<svg width="1080" height="1080" viewBox="0 0 1080 1080" fill="none" xmlns="http://www.w3.org/2000/svg">
<path opacity="0.15" d="M70.9 488.2C66.8 434.8 86.4 377.6 126.8 348.6C145.4 335.2 167.3 328.3 186 315C231.4 282.8 251.1 219 293.6 182.3C333.6 147.8 388.9 142.2 438.3 154.5C487.7 166.8 532.5 194.9 576.4 222.9C620.3 250.9 664.8 279.4 714 292.7C769.9 307.8 828.4 302.5 885.5 310C942.6 317.6 1003.1 342.5 1031.5 398.3C1043.5 421.9 1048.7 449 1051.2 476C1055.4 522.5 1051.8 570.8 1034 613.1C1014 660.7 978 697.2 942.9 732.4C919.1 756.2 894.5 780.6 864.2 791.9C828.4 805.3 789.1 798.8 752.8 787.3C716.5 775.8 681.3 759.3 644.1 752.6C609.2 746.3 573.6 748.8 538.2 748.7C496 748.6 453.9 744.8 411.9 741C381.9 738.3 351.8 735.5 322.2 729.5C263.1 717.4 181.5 694.2 134.4 650.4C116.4 633.6 112.9 607.8 101.7 585.7C86 554.9 73.6 523.8 70.9 488.2Z" fill="#C2DCFE"/>
<path d="M870.3 725.401H319.2C314.9 725.401 311.5 721.901 311.5 717.701V325.801C311.5 321.501 315 318.101 319.2 318.101H870.4C874.7 318.101 878.1 321.601 878.1 325.801V717.701C878 722.001 874.6 725.401 870.3 725.401Z" fill="#F0EFEF" stroke="black" stroke-width="0.5" stroke-miterlimit="10" stroke-linecap="round" stroke-linejoin="round"/>
<path d="M860.6 712.701H328.9C324.5 712.701 320.9 709.101 320.9 704.701V338.801C320.9 334.401 324.5 330.801 328.9 330.801H860.6C865 330.801 868.6 334.401 868.6 338.801V704.701C868.6 709.101 865 712.701 860.6 712.701Z" fill="white" stroke="black" stroke-width="0.5" stroke-miterlimit="10" stroke-linecap="round" stroke-linejoin="round"/>
<path d="M609.3 399.801C609.3 401.101 609.3 402.401 610 403.401C611 404.801 613 405.001 614.8 405.001C644.7 405.801 674.5 405.901 704.4 405.501C705.2 405.501 706.2 405.401 706.8 404.801C707.4 404.201 707.4 403.301 707.4 402.401C707 388.101 706.5 373.801 706.1 359.501C706 355.201 705.5 350.301 702.1 347.701C699.5 345.701 695.9 345.801 692.6 345.901C674 346.601 655.4 346.801 636.8 346.601C632.3 346.501 627.8 346.501 623.4 346.401C620.9 346.301 612.9 344.801 611 346.501C607.9 349.301 610.1 365.101 610 369.301C609.7 379.501 609.5 389.701 609.3 399.801Z" stroke="black" stroke-width="0.5" stroke-miterlimit="10" stroke-linecap="round" stroke-linejoin="round"/>
<path d="M631.9 359.401C631.9 358.701 630.8 358.301 630.2 358.701C629.6 359.101 629.4 359.901 629.4 360.701C629.4 361.101 629.5 361.501 629.7 361.801C630.1 362.301 630.9 362.301 631.4 361.901C631.9 361.501 632.2 360.901 632.3 360.201C632.1 360.801 632.5 361.601 633.1 361.801C633.5 361.501 633.8 361.101 634.1 360.701C634 361.101 634.5 361.401 634.9 361.301C635.3 361.201 635.7 361.001 636.1 361.001C636.3 361.001 636.5 361.101 636.7 361.101C636.9 361.001 637.1 360.801 637.1 360.601C637.3 360.001 637.3 359.401 637.1 358.801C637.1 358.701 637 358.501 636.9 358.401C636.6 358.201 636.3 358.501 636.1 358.801C635.8 359.301 635.4 359.801 635.4 360.401C635.4 361.001 635.9 361.601 636.5 361.501C636.8 361.401 637 361.201 637.3 361.101C638 360.801 638.8 361.601 638.5 362.301C638.9 362.101 639.3 361.701 639.3 361.201C639.9 361.501 640.5 361.801 641.1 362.001C641.5 361.501 641.9 361.001 642.3 360.501C643.5 361.101 645.2 360.201 645.2 358.901C645.2 358.401 644.9 357.701 644.4 357.801C644.2 357.801 644.1 357.901 643.9 358.001C642.9 358.801 643.3 360.701 644.5 361.201C645.7 361.701 647.2 361.001 647.8 359.801C647.6 360.301 647.9 360.901 648.3 361.201C648.7 361.501 649.4 361.401 649.7 361.001C650.2 361.801 651.4 362.001 652.2 361.501" stroke="black" stroke-width="0.5" stroke-miterlimit="10" stroke-linecap="round" stroke-linejoin="round"/>
<path d="M657 361.6C658.3 360.9 658.8 359.2 658 357.9C657.4 358.3 656.9 358.9 656.7 359.6C656.5 360.6 657.1 361.6 658.1 361.8C659.1 362 660.1 361 659.8 360.1C660.1 360.5 660.5 360.9 660.9 361.2C660.9 360.6 661.8 360.4 662.5 360.5C663.5 360.6 664.5 360.7 665.5 360.8C666 360.8 666.4 360.9 666.9 360.8C667.2 360.7 667.5 360.6 667.8 360.5C668.6 360.3 669.5 360.9 669.7 361.7C669.2 360.8 669.4 359.6 670.2 359C671 358.4 672.3 358.5 672.8 359.3C673.3 360.1 672.8 361.5 671.8 361.6C673.7 360.9 676 361.4 677.9 360.5C678.5 360.2 679.1 359.6 679.4 359C679.2 361.2 679 363.4 678.8 365.6C677.8 364.8 678.1 363.1 679 362.1C679.9 361.1 681.1 360.5 681.9 359.4C681.8 359.8 681.9 360.2 682.1 360.5C682.8 360.6 683.4 360.3 683.9 359.8C685.5 359.9 687.1 359.9 688.7 359.8C689.4 359.7 690.3 359.4 690.2 358.7C689.8 359 689.5 359.2 689.1 359.5" stroke="black" stroke-width="0.5" stroke-miterlimit="10" stroke-linecap="round" stroke-linejoin="round"/>
<path d="M632 373.201C632.2 372.501 632.4 371.701 631.8 371.301C631.1 370.801 630.1 371.601 629.8 372.401C629.5 373.201 629.3 374.201 629.9 374.801C630.5 375.401 631.9 374.901 631.6 374.001C631.7 374.601 632.5 375.101 633.1 375.001C633.8 374.901 634.3 374.401 634.6 373.801C635.1 374.001 635.5 374.401 635.7 374.901C636.3 374.701 636.8 374.301 637.1 373.801C637.6 374.501 638.6 374.701 639.3 374.401C640 374.101 640.5 373.101 640.2 372.301C638.9 372.101 637.6 373.401 637.9 374.701C638.1 376.001 639.8 376.701 640.9 376.001C641.5 375.601 641.9 374.901 642.5 374.601C642.6 375.101 643 375.601 643.4 376.001C643.6 375.401 644.2 374.601 644.8 374.901C645 375.001 645.1 375.201 645.3 375.301C646.1 376.001 647.3 375.201 648 374.501C648 375.101 648.5 375.701 649.1 375.701C649.7 375.701 650.1 375.301 650.6 375.001C651.1 374.701 651.7 374.501 652.2 374.801C652.7 375.101 652.4 376.101 651.8 375.901C651.2 374.501 653 372.701 654.4 373.401C655.8 374.001 655.6 376.501 654.1 377.001C654 375.601 655.2 374.301 656.6 374.201C656.9 374.601 657 375.101 656.8 375.601C657.4 374.701 658.9 374.701 659.7 375.501C660.4 376.301 660.5 377.601 659.9 378.601C659.4 379.601 658.5 380.301 657.5 380.801C658.2 378.401 659.4 376.101 660.8 374.101C660.9 374.001 661 373.801 661.2 373.901C661.4 374.001 661.2 374.301 661.1 374.101" stroke="black" stroke-width="0.5" stroke-miterlimit="10" stroke-linecap="round" stroke-linejoin="round"/>
<path d="M670.6 375.001C670.9 374.601 671.2 374.101 671.2 373.601C671.2 373.101 670.6 372.601 670.2 372.801C670 372.901 669.9 373.001 669.8 373.201C669.4 373.701 669 374.301 669 374.901C669 375.501 669.3 376.301 670 376.301C670.6 376.401 671.1 375.801 671.5 375.301C671.9 374.801 672.6 374.401 673.1 374.801C673.3 375.001 673.5 375.301 673.7 375.401C674.3 375.801 675 375.201 675.6 375.001C676.6 374.601 677.7 374.901 678.8 375.001C679.9 375.101 681.2 374.901 681.7 373.901" stroke="black" stroke-width="0.5" stroke-miterlimit="10" stroke-linecap="round" stroke-linejoin="round"/>
<path d="M632 388.801C632.6 388.601 632 387.501 631.4 387.601C630.8 387.701 630.4 388.401 630.2 389.001C630 389.601 629.7 390.201 629.8 390.901C629.9 391.501 630.4 392.201 631 392.101C632.1 392.001 632.7 390.201 633.8 390.401C634.2 390.501 634.5 390.801 634.8 391.001C635.7 391.501 636.9 391.001 637.3 390.101C637.8 390.901 638.8 391.201 639.7 391.401C640.4 391.501 641.2 391.601 641.9 391.301C642.6 391.001 643.2 390.401 643.2 389.601C643.2 388.801 642.3 388.201 641.6 388.501C641.3 389.101 641.1 389.701 641.1 390.401C641.1 391.101 641.6 391.801 642.2 391.901C642.9 392.001 643.6 391.401 644.3 391.101C645 390.801 646.1 391.501 645.6 392.101C646.2 391.401 647.1 390.701 648 391.001C648.3 391.101 648.5 391.301 648.8 391.401C649.7 391.801 650.8 391.401 651.4 390.601C652.8 391.901 654.9 391.601 656.7 391.101C657.1 391.001 657.6 390.801 657.8 390.501C658.3 389.801 657.4 388.701 656.6 389.001C655.8 389.201 655.4 390.301 655.8 391.101C656.2 391.801 657.2 392.101 658 391.901C658.8 391.701 659.5 391.101 660 390.401C660.2 390.801 660.4 391.201 660.6 391.601" stroke="black" stroke-width="0.5" stroke-miterlimit="10" stroke-linecap="round" stroke-linejoin="round"/>
<path d="M662.6 391.601C662.8 390.701 663 389.701 663.2 388.801C662.2 389.301 662.8 391.101 663.9 391.201C665 391.301 666 390.401 666.4 389.301C666.6 389.901 667.1 390.501 667.7 390.801C669.1 391.601 671.1 391.301 672.2 390.101C673.3 388.901 673.4 386.901 672.5 385.601C671.7 385.901 671.6 387.101 672.1 387.801C672.6 388.501 673.4 388.801 674.2 389.101C675 389.401 675.9 389.601 676.5 390.201C676.8 390.501 677.1 390.901 677.5 390.901C677.7 390.901 678 390.801 678.2 390.601C679.4 389.901 680.9 389.901 682.3 390.001C685.3 390.101 688.4 390.201 691.4 390.301" stroke="black" stroke-width="0.5" stroke-miterlimit="10" stroke-linecap="round" stroke-linejoin="round"/>
<path d="M633.3 458.001C633.3 457.501 632.6 457.301 632.2 457.601C631.8 457.901 631.7 458.401 631.7 458.901C631.6 459.201 631.6 459.601 631.7 459.901C631.8 460.201 632.1 460.501 632.4 460.501C632.7 460.501 632.9 460.301 633 460.101C633.5 459.601 633.8 459.001 634.1 458.401C634.3 458.801 634.6 459.201 634.9 459.501C635.1 459.301 635.3 459.101 635.4 458.901C635.6 459.501 636.7 459.601 636.9 458.901C636.9 459.501 637.7 459.901 638.3 459.601C638.9 459.401 639.2 458.801 639.4 458.201C639.5 457.901 639.5 457.401 639.2 457.301C638.9 457.301 638.8 457.601 638.7 457.901C638.5 458.501 638.5 459.401 639.1 459.501C639.7 459.601 640 458.901 640.6 458.801C641 458.701 641.5 459.001 641.6 459.401C641.8 459.201 641.9 458.901 642.2 458.801C642.4 458.701 642.8 458.701 642.9 458.901C643 459.101 643.1 459.401 643.3 459.401C643.5 459.401 643.6 459.301 643.7 459.201C644 458.901 644.3 458.501 644.6 458.201C644.6 458.601 644.7 459.001 644.9 459.301C645.3 459.301 645.6 459.001 645.9 458.901C646.2 458.701 646.7 458.701 646.9 459.101C647 459.301 646.9 459.501 646.9 459.701C646.5 460.801 645.8 461.701 644.9 462.301C644.8 460.801 646.1 459.401 647.6 459.401" stroke="black" stroke-width="0.5" stroke-miterlimit="10" stroke-linecap="round" stroke-linejoin="round"/>
<path d="M655.5 459.001C655.2 458.501 654.9 457.901 655.3 457.501C655.7 457.101 656.4 457.501 656.6 458.001C656.8 458.501 656.6 459.101 656.4 459.601C656.4 459.201 656.6 458.701 656.9 458.401C657.2 458.801 657.4 459.201 657.7 459.601C657.9 459.101 658.3 458.601 658.8 458.801C658.9 458.901 659 459.001 659.1 459.201C659.5 459.601 660.4 459.401 660.5 458.801C660.7 459.601 661.8 459.801 662.5 459.501C663.2 459.201 663.7 458.401 664.1 457.701C664.2 457.501 664.4 457.301 664.4 457.001C664.4 456.801 664.2 456.501 664 456.501C663.9 456.501 663.8 456.501 663.7 456.601C663.2 456.901 662.9 457.501 663 458.101C663.1 458.701 663.5 459.201 664.1 459.401C665.1 459.701 666.1 459.001 666.9 458.301C667 458.901 667.8 459.401 668.4 459.001C668.6 458.901 668.8 458.601 669.1 458.601C669.4 458.601 669.6 458.801 669.9 458.901C670.7 459.401 671.9 459.101 672.5 458.301" stroke="black" stroke-width="0.5" stroke-miterlimit="10" stroke-linecap="round" stroke-linejoin="round"/>
<path d="M634.3 469.401C634.4 468.701 634.2 467.601 633.5 467.701C633.1 467.801 632.9 468.201 632.8 468.601C632.6 469.301 632.6 470.101 632.7 470.801C632.8 471.501 633.2 472.301 633.9 472.401C634.9 472.501 635.4 471.101 635.5 470.101C635.4 470.701 635.7 471.301 636.1 471.801C636.7 471.501 637.1 470.901 637.2 470.301C637.3 470.901 637.5 471.601 637.6 472.201C638.3 471.601 638.7 470.801 638.9 469.901C638.2 470.001 638.2 471.201 638.8 471.501C639.4 471.801 640.3 471.401 640.5 470.701C640.3 471.001 640.7 471.301 641.1 471.201C641.4 471.101 641.6 470.701 641.7 470.401C642 471.901 641.7 473.501 640.9 474.801C640.5 473.801 640.6 472.701 641.1 471.801C641.5 471.201 642.1 470.701 642.8 471.001C643.4 471.201 643.4 472.501 642.7 472.401C642.2 472.001 643 471.401 643.6 471.301C644.8 471.101 646 471.101 647.3 471.001C648.3 471.001 649.3 471.001 650.2 470.501C651.1 470.001 651.6 468.801 651.1 468.001C651 467.801 650.9 467.701 650.7 467.601C650.2 467.401 649.7 467.701 649.4 468.101C648.7 469.001 648.9 470.501 649.9 471.101C650.9 471.701 652.4 471.001 652.4 469.801C652.6 470.801 654.2 471.201 654.8 470.301C654.9 471.001 655.9 471.401 656.4 470.901C656.8 471.701 658 471.801 658.5 471.101C659.6 471.801 661.4 471.001 661.5 469.701C661 469.501 660.3 469.901 660.3 470.501C660.3 471.101 660.7 471.601 661.2 471.601C662.1 471.601 662.7 470.401 663.6 470.401C663.4 470.801 664 471.201 664.5 471.101C665 471.001 665.3 470.701 665.8 470.601C666.3 470.601 666.8 470.901 667.3 470.801C667.8 470.701 668.2 470.001 668.8 470.101C669.3 470.201 669.5 470.801 670 470.801C670.4 470.801 670.6 470.401 671 470.201C671.9 469.901 673 471.401 673.6 470.701C673.3 471.601 672.2 472.201 671.3 472.001C671.8 471.001 672.7 470.201 673.7 469.901" stroke="black" stroke-width="0.5" stroke-miterlimit="10" stroke-linecap="round" stroke-linejoin="round"/>
<path d="M619.8 480.801C619.8 481.601 619.8 482.601 620.3 483.201C621 484.101 622.3 484.301 623.5 484.301C643.5 484.801 663.5 484.901 683.5 484.601C684.1 484.601 684.7 484.601 685.1 484.101C685.5 483.701 685.5 483.101 685.5 482.501C685.2 472.901 684.9 463.401 684.6 453.801C684.5 450.901 684.2 447.601 681.9 445.901C680.1 444.601 677.7 444.601 675.5 444.701C663 445.201 650.6 445.301 638.1 445.101C635.1 445.101 632.1 445.001 629.1 444.901C627.4 444.901 622.1 443.801 620.8 445.001C618.8 446.901 620.2 457.401 620.2 460.301C620 467.201 619.9 474.001 619.8 480.801Z" stroke="black" stroke-width="0.5" stroke-miterlimit="10" stroke-linecap="round" stroke-linejoin="round"/>
<path d="M501.1 465.601C501.1 466.401 501.1 467.401 501.6 468.001C502.3 468.901 503.6 469.101 504.8 469.101C524.8 469.601 544.8 469.701 564.8 469.401C565.4 469.401 566 469.401 566.4 468.901C566.8 468.501 566.8 467.901 566.8 467.301C566.5 457.701 566.2 448.201 565.9 438.601C565.8 435.701 565.5 432.401 563.2 430.701C561.4 429.401 559 429.401 556.8 429.501C544.3 430.001 531.9 430.101 519.4 429.901C516.4 429.901 513.4 429.801 510.4 429.701C508.7 429.701 503.4 428.601 502.1 429.801C500.1 431.701 501.5 442.201 501.5 445.101C501.4 452.001 501.3 458.801 501.1 465.601Z" stroke="black" stroke-width="0.5" stroke-miterlimit="10" stroke-linecap="round" stroke-linejoin="round"/>
<path d="M516.4 446.401C515.1 446.701 514.2 448.301 514.7 449.601C515.7 449.301 516.5 448.501 517 447.501C517.2 448.101 517.4 448.801 517.7 449.401C518.2 449.401 518.3 448.501 518.8 448.301C519.2 448.101 519.6 448.301 520 448.501C520.4 448.601 521 448.601 521.1 448.201C521.2 448.801 522.1 449.101 522.6 448.801C523.2 448.501 523.5 447.901 523.6 447.201C523.7 446.701 523.7 446.001 523.2 445.701C522.7 445.501 522.2 445.701 521.9 446.201C521.6 446.601 521.6 447.201 521.7 447.701C521.7 448.101 521.8 448.601 522.1 448.901C522.5 449.301 523.2 449.201 523.7 448.901C524.2 448.601 524.5 448.001 524.7 447.501C524.7 448.101 525 448.601 525.5 449.001C526.1 448.701 526.6 448.401 527.1 447.901C527.7 448.701 529.1 448.501 529.6 447.601C529.7 448.401 530.7 448.801 531.5 448.601C532.3 448.401 532.9 447.801 533.5 447.201C534.7 449.501 533.7 452.601 531.4 453.801C531 451.701 531.9 449.501 533.5 448.201C533.7 448.001 533.9 447.901 534.1 447.901C534.5 447.901 534.9 448.201 535 448.601C535.1 449.001 535 449.401 534.9 449.801C535.5 448.901 536.5 448.301 537.5 448.201C537.6 448.601 537.8 449.101 538.2 449.401" stroke="black" stroke-width="0.5" stroke-miterlimit="10" stroke-linecap="round" stroke-linejoin="round"/>
<path d="M546.2 447.201C545.8 446.501 546.2 445.501 545.6 444.901C545.2 444.501 544.4 444.701 544 445.201C543.6 445.701 543.5 446.301 543.5 447.001C543.5 447.201 543.5 447.401 543.5 447.601C543.7 447.901 544.1 448.101 544.5 448.001C544.9 447.901 545.2 447.601 545.5 447.401C545.6 448.001 545.9 448.501 546.3 448.901C546.6 448.101 547.7 447.701 548.5 448.101C548.8 448.301 549.2 448.601 549.5 448.501C550 448.401 550.2 447.601 550.7 447.701C550.9 447.801 551 447.901 551.1 448.101C551.5 448.501 552.2 448.501 552.7 448.301C553.2 448.001 553.6 447.601 554 447.101C554.2 446.801 554.4 446.601 554.4 446.201C554.4 445.901 554.2 445.601 554 445.401C553.1 444.601 551.5 444.701 550.8 445.701C550 446.601 550.3 448.201 551.2 448.901C552.2 449.601 553.7 449.301 554.4 448.301C554.5 448.101 554.6 448.001 554.7 447.901C554.9 447.801 555.1 447.901 555.1 448.001C557.9 445.101 558.1 441.701 556.7 437.901C556.5 437.401 556.3 437.001 555.9 436.701C555.4 436.501 554.8 436.701 554.4 437.101C554 437.501 553.8 438.001 553.6 438.501" stroke="black" stroke-width="0.5" stroke-miterlimit="10" stroke-linecap="round" stroke-linejoin="round"/>
<path d="M734.7 480.601C734.7 481.401 734.7 482.401 735.1 483.001C735.7 483.901 736.7 484.101 737.7 484.101C753.8 484.601 769.9 484.701 786 484.401C786.5 484.401 787 484.401 787.3 483.901C787.6 483.501 787.6 482.901 787.6 482.301C787.4 472.701 787.1 463.201 786.9 453.601C786.8 450.701 786.6 447.401 784.8 445.701C783.4 444.401 781.4 444.401 779.7 444.501C769.7 445.001 759.7 445.101 749.7 444.901C747.3 444.901 744.9 444.801 742.5 444.701C741.1 444.701 736.8 443.601 735.8 444.801C734.2 446.701 735.3 457.201 735.3 460.101C734.9 467.001 734.8 473.801 734.7 480.601Z" stroke="black" stroke-width="0.5" stroke-miterlimit="10" stroke-linecap="round" stroke-linejoin="round"/>
<path d="M744.3 458.101C744.4 457.801 743.9 457.801 743.8 458.001C743.4 458.501 743.2 459.301 743.3 460.101C743.3 460.201 743.3 460.301 743.4 460.401C743.5 460.501 743.7 460.401 743.8 460.201C744 459.901 744.3 459.601 744.5 459.401C744.6 459.701 744.6 460.001 744.7 460.301C745 460.201 745.2 460.001 745.4 459.701C745.5 459.901 745.5 460.101 745.5 460.301C745.8 460.401 746.2 460.301 746.4 460.101C746.3 460.501 746.6 460.801 746.9 460.801C747.2 460.801 747.5 460.601 747.7 460.301C748.2 459.801 748.7 458.901 748.4 458.201C747.9 458.701 747.7 459.401 747.6 460.101C747.6 460.301 747.6 460.501 747.7 460.601C747.9 461.001 748.4 460.901 748.7 460.701C749 460.401 749.3 460.001 749.7 459.901C749.9 460.201 750 460.501 750.2 460.701C750.5 460.701 750.7 460.001 751 460.101C751.1 460.101 751.2 460.301 751.3 460.401C751.7 460.801 752.4 460.501 752.5 459.901C752.7 460.401 753.3 460.401 753.7 460.201C754.1 460.001 754.6 459.701 755 460.001C755.5 460.401 755.3 461.401 755 462.101C754.7 462.601 754.3 463.001 753.8 463.401C753.5 462.301 754.3 461.201 755 460.401C755.2 460.101 755.5 459.801 755.8 459.701C756.1 459.601 756.5 459.901 756.5 460.301C756.4 459.701 757 459.401 757.5 459.401C758 459.501 758.4 459.901 758.8 459.901C759 459.901 759.2 459.901 759.5 460.001C759.7 460.101 760 460.201 760.2 460.301C760.9 460.401 761.6 459.601 761.5 458.801C761.5 458.401 761.2 458.101 760.9 458.101C760.8 458.101 760.7 458.201 760.6 458.401C760.1 459.001 759.7 460.001 760.1 460.701C760.4 461.401 761.2 461.601 761.8 461.401C762.4 461.201 762.9 460.701 763.4 460.201C763.7 460.701 763.9 461.301 764.4 461.601C764.9 461.901 765.5 461.601 765.6 461.001" stroke="black" stroke-width="0.5" stroke-miterlimit="10" stroke-linecap="round" stroke-linejoin="round"/>
<path d="M770.6 460.201C770.9 460.301 771.2 460.201 771.3 459.901C771.5 459.601 771.5 459.301 771.6 458.901C771.6 458.601 771.6 458.301 771.4 458.201C771.2 458.101 771 458.201 770.9 458.301C770.4 458.801 770 459.501 769.8 460.301C769.8 460.401 769.8 460.601 769.8 460.701C769.9 461.201 770.4 461.201 770.8 461.101C771.1 461.001 771.4 460.901 771.6 460.701C771.7 460.601 771.9 460.501 772 460.601C772.1 460.701 772.2 460.901 772.3 461.001C772.5 461.301 772.9 461.201 773.2 461.101C773.5 461.001 773.8 460.801 774.1 461.001C774.3 461.101 774.5 461.401 774.7 461.501C775 461.601 775.3 461.201 775.6 461.401C775.7 461.401 775.7 461.501 775.8 461.601C776.2 462.001 776.7 462.101 777.1 461.901C777.5 461.701 777.9 461.201 778 460.701C778 460.501 778 460.301 777.9 460.201C777.8 460.101 777.6 460.201 777.5 460.301C777.1 460.601 776.7 461.001 776.4 461.501" stroke="black" stroke-width="0.5" stroke-miterlimit="10" stroke-linecap="round" stroke-linejoin="round"/>
<path d="M745.4 469.801C745.7 469.601 746 469.301 746 468.901C746 468.401 745.4 468.301 745.1 468.501C744.8 468.801 744.7 469.301 744.5 469.701C744.4 470.001 744.3 470.401 744.4 470.701C744.5 471.001 744.7 471.401 745 471.301C745.1 471.301 745.3 471.201 745.4 471.101C745.9 470.701 746.4 470.301 746.9 469.801C746.7 470.301 747.4 470.701 747.8 470.601C748.2 470.501 748.7 470.101 749.1 470.301C749.3 470.401 749.5 470.701 749.8 470.701C750 470.701 750.2 470.401 750.4 470.401C750.5 470.401 750.6 470.501 750.7 470.601C751.6 471.401 753.1 470.601 753.2 469.301C752.8 469.501 752.6 470.001 752.6 470.601C753 470.801 753.4 470.601 753.8 470.501C754.2 470.401 754.6 470.301 755 470.501C755.4 470.701 755.4 471.501 755.1 471.701C755.4 470.701 756.8 470.601 757.1 471.601C757.6 471.501 757.9 471.101 758.4 470.901C758.9 470.701 759.5 471.201 759.3 471.701C759.7 471.201 760.3 471.201 760.9 471.301C761.5 471.401 762 471.501 762.5 471.201C763 470.901 763.3 470.001 763 469.501C762.5 469.101 761.8 469.901 762 470.601C762.2 471.301 762.9 471.601 763.4 471.401C764 471.201 764.4 470.601 764.6 469.901C764.3 469.901 764.1 470.301 764.1 470.701C764.4 470.801 764.7 470.501 765 470.301C765.3 470.101 765.7 470.001 765.9 470.301C766 470.401 766 470.601 766 470.801C766 472.801 765.5 474.701 764.6 476.401C764.2 475.901 764.5 475.101 764.8 474.501C765.3 473.501 766 472.401 767 472.201C767.4 472.201 767.9 472.301 768.3 472.201C768.7 472.101 769.2 471.701 769.1 471.201C769.2 471.401 769.2 471.601 769.3 471.801C769.5 471.601 769.8 471.701 769.9 472.001" stroke="black" stroke-width="0.5" stroke-miterlimit="10" stroke-linecap="round" stroke-linejoin="round"/>
<path d="M726 662.4C726 663.1 726 663.8 726.3 664.3C726.7 665.1 727.6 665.1 728.3 665.2C741 665.6 753.8 665.7 766.5 665.5C766.9 665.5 767.3 665.5 767.5 665.1C767.7 664.8 767.7 664.3 767.7 663.8C767.5 656.2 767.3 648.6 767.1 641C767 638.7 766.9 636.1 765.4 634.7C764.3 633.6 762.7 633.7 761.3 633.7C753.4 634.1 745.4 634.2 737.5 634C735.6 634 733.7 633.9 731.8 633.9C730.7 633.9 727.3 633 726.5 634C725.2 635.5 726.1 643.8 726.1 646.1C726.2 651.7 726.1 657 726 662.4Z" stroke="black" stroke-width="0.5" stroke-miterlimit="10" stroke-linecap="round" stroke-linejoin="round"/>
<path d="M735.8 644.6C736 643.8 734.8 643.401 734.2 643.901C733.6 644.401 733.5 645.3 733.5 646.1C733.5 646.7 733.7 647.501 734.2 647.501C734.5 647.501 734.7 647.3 734.9 647.1C735.4 646.6 735.7 646.001 735.9 645.401C736.2 645.701 736.3 646.101 736.4 646.501C736.8 646.301 737.1 646 737.4 645.6C737.5 646.1 737.7 646.6 737.8 647.1C738.2 646.8 738.6 646.601 739.1 646.301C739.8 646.801 740.9 646.301 741.2 645.401C741.5 644.601 741.3 643.601 740.9 642.801C740.4 643.401 740.2 644.201 740.2 644.901C740.2 645.401 740.5 646.001 741 646.001C741.3 646.001 741.5 645.8 741.7 645.6C742.3 645 742.9 644.301 743.5 643.701C744.4 645.101 744.8 646.801 744.4 648.401C744.3 648.901 743.8 649.601 743.3 649.401C743.1 649.301 742.9 649.001 742.9 648.801C742.6 647.201 743.6 645.5 745.1 645.1C745.4 645.6 745.6 646.201 745.9 646.701C746.3 646.301 746.7 645.901 747.2 645.501C747.3 645.401 747.4 645.301 747.6 645.201C748.2 645.101 748.3 646.101 748.9 646.201C749.4 646.301 749.6 645.601 750 645.401C750.4 645.201 750.8 645.5 751.2 645.6C751.6 645.7 752.2 645.701 752.3 645.301C752.2 646.001 753.3 646.301 753.9 645.901C754.5 645.501 754.6 644.701 754.7 644.001C754.7 643.601 754.7 643.101 754.3 643.001C753.4 643.601 753.2 645.101 754 645.801C754.8 646.501 756.4 646.001 756.4 644.901C757 646.601 759.9 647.001 760.9 645.401C761.8 645.201 762.3 644.001 761.7 643.201C761.1 642.501 759.8 642.601 759.4 643.401C759 644.201 759.7 645.401 760.6 645.401" stroke="black" stroke-width="0.5" stroke-miterlimit="10" stroke-linecap="round" stroke-linejoin="round"/>
<path d="M738.5 653.1C738.7 652.5 738 651.9 737.4 651.9C736.8 652 736.3 652.6 736.1 653.2C735.9 653.8 736 654.5 736.1 655.1C736.7 655 736.9 654.2 737.5 653.9C738.1 653.7 738.9 654.3 738.7 654.9C739.1 654.2 740.1 653.9 740.8 654.3C741.2 654.6 741.6 655 742.1 654.8C742.3 654.7 742.4 654.4 742.6 654.2C743.3 653.6 744.3 655.1 745.2 654.8C745.5 654.7 745.7 654.4 746 654.1C746.5 653.6 747.3 653.5 748 653.3C748.7 653.1 749.4 652.4 749.1 651.7C748.5 651.6 747.9 652 747.7 652.6C747.6 652.8 747.6 653 747.7 653.1C747.9 653.7 748.8 653.5 749.3 653.1C749.8 652.7 750.5 652.3 751 652.7C751 653 751 653.2 751 653.5C752.1 653.5 753.2 653.4 754.3 653.4C754.9 653.4 755.5 653.3 756 653C756.5 652.7 756.7 651.9 756.3 651.5C756.3 651.9 756.3 652.3 756.3 652.8C756.7 653.2 757.4 652.7 757.8 652.2C758.2 651.7 758.9 651.2 759.3 651.7C759.4 651.8 759.4 652 759.5 652.2C759.7 653.8 759.7 655.4 759.3 656.9C758.7 654.9 759.9 652.5 761.8 651.6" stroke="black" stroke-width="0.5" stroke-miterlimit="10" stroke-linecap="round" stroke-linejoin="round"/>
<path d="M743.1 564.201C744 564.801 744.4 564.901 745.3 565.601C746 565.101 746.8 564.801 747.5 564.201" stroke="black" stroke-width="0.5" stroke-miterlimit="10" stroke-linecap="round" stroke-linejoin="round"/>
<path d="M566 547.301C566.9 547.901 567.3 548.001 568.2 548.701C568.9 548.201 569.7 547.901 570.4 547.301" stroke="black" stroke-width="0.5" stroke-miterlimit="10" stroke-linecap="round" stroke-linejoin="round"/>
<path d="M568.3 548.8V528.9" stroke="black" stroke-width="0.5" stroke-miterlimit="10" stroke-linecap="round" stroke-linejoin="round"/>
<path d="M745.2 565.101V529.001" stroke="black" stroke-width="0.5" stroke-miterlimit="10" stroke-linecap="round" stroke-linejoin="round"/>
<path d="M653.2 529.501L653.1 484.801" stroke="black" stroke-width="0.5" stroke-miterlimit="10" stroke-linecap="round" stroke-linejoin="round"/>
<path d="M568.1 529.101C590.9 529.801 613.8 530.101 636.7 530.101C648.5 530.101 660.2 530.001 672 529.901C676.4 529.901 680.7 529.801 685.1 529.801C705.2 529.601 725.3 529.401 745.3 529.101" stroke="black" stroke-width="0.5" stroke-miterlimit="10" stroke-linecap="round" stroke-linejoin="round"/>
<path d="M743.1 564.201C744 564.801 744.4 564.901 745.3 565.601C746 565.101 746.8 564.801 747.5 564.201" stroke="black" stroke-width="0.5" stroke-miterlimit="10" stroke-linecap="round" stroke-linejoin="round"/>
<path d="M566 547.301C566.9 547.901 567.3 548.001 568.2 548.701C568.9 548.201 569.7 547.901 570.4 547.301" stroke="black" stroke-width="0.5" stroke-miterlimit="10" stroke-linecap="round" stroke-linejoin="round"/>
<path d="M568.3 548.8V528.9" stroke="black" stroke-width="0.5" stroke-miterlimit="10" stroke-linecap="round" stroke-linejoin="round"/>
<path d="M745.2 565.101V529.001" stroke="black" stroke-width="0.5" stroke-miterlimit="10" stroke-linecap="round" stroke-linejoin="round"/>
<path d="M653.2 529.501L653.1 484.801" stroke="black" stroke-width="0.5" stroke-miterlimit="10" stroke-linecap="round" stroke-linejoin="round"/>
<path d="M568.1 529.101C590.9 529.801 613.8 530.101 636.7 530.101C648.5 530.101 660.2 530.001 672 529.901C676.4 529.901 680.7 529.801 685.1 529.801C705.2 529.601 725.3 529.401 745.3 529.101" stroke="black" stroke-width="0.5" stroke-miterlimit="10" stroke-linecap="round" stroke-linejoin="round"/>
<path d="M653.2 405.801V444.601" stroke="black" stroke-width="0.5" stroke-miterlimit="10" stroke-linecap="round" stroke-linejoin="round"/>
<path d="M651 443.001C651.9 443.701 652.3 443.801 653.2 444.601C653.9 444.001 654.7 443.601 655.4 443.001" stroke="black" stroke-width="0.5" stroke-miterlimit="10" stroke-linecap="round" stroke-linejoin="round"/>
<path d="M549.6 557.201C545.6 562.101 542.9 568.301 543.1 574.601C543.4 583.201 549.2 591.201 557.1 594.701C565 598.201 574.5 597.301 582 593.001C586.3 590.601 590 587.001 592 582.501C595.7 574.501 593.5 564.501 587.6 558.001C577.6 547.201 559.4 545.401 549.6 557.201Z" stroke="black" stroke-width="0.5" stroke-miterlimit="10" stroke-linecap="round" stroke-linejoin="round"/>
<path d="M556.2 566.501C556.4 566.101 556.1 565.701 555.7 565.601C555.3 565.501 554.9 565.801 554.7 566.201C554.5 566.501 554.5 567.001 554.4 567.401C554.4 567.801 554.4 568.301 554.7 568.601C555.1 568.901 555.7 568.801 556 568.401C556.3 568.001 556.5 567.601 556.6 567.101C556.3 567.401 556.8 568.001 557.3 567.801C557.7 567.701 558 567.201 558.1 566.801C558.3 567.201 558.8 567.701 559.2 567.501C559.3 567.501 559.4 567.401 559.5 567.401C559.7 567.401 559.8 567.601 559.9 567.701C560.2 568.101 560.9 567.901 561.2 567.601C561.5 567.301 561.6 566.701 561.7 566.301C561.8 566.001 561.8 565.601 561.5 565.501C561.2 565.301 560.9 565.701 560.7 566.001C560.5 566.501 560.4 567.001 560.4 567.601C560.4 568.001 560.5 568.501 560.8 568.701C561.2 569.001 561.8 568.901 562.2 568.501C562.6 568.101 562.7 567.601 562.9 567.201C563.3 567.501 563.5 568.101 563.4 568.601C563.6 568.301 563.9 567.901 564.1 567.601C564.1 568.001 564.5 568.401 564.9 568.401C565.3 568.401 565.7 568.101 565.7 567.601C565.8 568.001 566.1 568.301 566.5 568.401C566.9 568.401 567.3 568.201 567.5 567.801C567.7 568.101 567.4 568.401 567.6 568.701C567.8 569.001 568.3 568.901 568.5 568.601C568.7 568.301 568.7 567.901 568.6 567.601C568.2 567.901 568.1 568.601 568.4 569.001" stroke="black" stroke-width="0.5" stroke-miterlimit="10" stroke-linecap="round" stroke-linejoin="round"/>
<path d="M576.6 567.301C577 567.201 577.2 566.701 577.3 566.301C577.4 565.901 577.4 565.301 577 565.101C576.8 565.001 576.5 565.101 576.3 565.301C576.1 565.501 576 565.701 576 566.001C575.9 566.401 575.8 566.801 575.9 567.201C576 567.601 576.3 568.001 576.7 568.001C577 568.001 577.2 567.901 577.5 567.701C577.9 567.401 578.2 567.101 578.4 566.801C578.5 566.701 578.5 566.601 578.6 566.601C578.8 566.601 578.9 566.901 578.9 567.001C579.1 567.301 579.5 567.401 579.9 567.201C580.2 567.001 580.5 566.701 580.7 566.401C580.7 566.801 581 567.101 581.4 567.101C581.8 567.101 582.1 566.901 582.2 566.501C582.3 567.001 582.9 567.201 583.4 567.001C583.9 566.801 584.1 566.301 584.2 565.801C584.2 565.501 584.2 565.101 584.1 564.801C583.9 564.501 583.6 564.301 583.2 564.401C582.8 564.501 582.6 565.001 582.5 565.401C582.3 565.901 582.2 566.601 582.7 566.901C583.4 567.301 584 566.001 584.8 566.101C585.2 566.201 585.5 566.601 585.5 567.001C585.5 567.401 585.3 567.801 585.1 568.201C585.1 567.901 585.3 567.501 585.6 567.401C585.9 567.301 586.3 567.501 586.3 567.901" stroke="black" stroke-width="0.5" stroke-miterlimit="10" stroke-linecap="round" stroke-linejoin="round"/>
<path d="M550 581.501C549.3 580.401 549.5 578.801 550.6 578.001C550.7 577.901 550.9 577.801 551.1 577.901C551.3 578.001 551.3 578.201 551.3 578.401C551.3 579.001 551.4 579.601 551.4 580.201C551.8 580.301 551.9 579.601 552.3 579.501C552.7 579.401 552.8 580.001 553.1 580.201C553.5 580.701 554.4 580.201 554.3 579.601C554.5 580.501 555.8 580.801 556.4 580.101C556.9 579.401 556.3 578.201 555.4 578.201C554.5 578.201 554 579.201 554.2 580.101C554.4 580.901 555.2 581.501 556 581.801C556.6 582.001 557.2 582.101 557.8 581.801C558.6 581.501 559.1 580.601 559 579.801C558.5 579.901 558.5 580.801 559 581.001C559.5 581.201 560.1 580.701 560.2 580.201C560 580.701 560.7 581.201 561.2 581.001C561.7 580.801 562 580.301 562.2 579.801C562.1 580.301 562.5 580.801 562.9 580.801C563.4 580.901 563.9 580.501 563.8 580.001C564 580.501 564.5 580.901 565.1 580.801C565.7 580.701 566.1 580.201 566.1 579.701C566.1 580.101 566.4 580.401 566.8 580.601" stroke="black" stroke-width="0.5" stroke-miterlimit="10" stroke-linecap="round" stroke-linejoin="round"/>
<path d="M570.3 580.201C570.8 579.801 571.3 579.401 571.5 578.901C571.8 578.301 571.7 577.601 571.2 577.301C570.9 577.801 570.7 578.401 570.7 579.001C570.7 579.301 570.7 579.501 570.9 579.701C571.2 580.101 571.8 580.101 572.2 579.801C572.6 579.601 572.9 579.101 573.1 578.701C573.3 579.301 573.8 580.001 574.4 579.701C574.8 579.501 575 579.001 575.4 579.101C575.6 579.201 575.7 579.401 575.8 579.501C576.1 579.701 576.5 579.601 576.7 579.401C576.9 579.201 577.1 578.901 577.2 578.601C577.6 579.501 579.2 579.401 579.5 578.501C580.2 579.201 581.5 579.101 582.2 578.301C582.9 577.601 582.8 576.301 582.1 575.601C581.8 576.201 581.5 576.801 581.6 577.401C581.7 578.001 582.3 578.601 582.9 578.401C583.3 578.301 583.6 577.801 584 577.601C584 578.201 584.5 578.701 585.1 578.801C585.7 578.901 586.3 578.601 586.5 578.001C586.9 578.401 587.5 578.501 588 578.301C588.5 578.101 589 577.801 589.4 577.501" stroke="black" stroke-width="0.5" stroke-miterlimit="10" stroke-linecap="round" stroke-linejoin="round"/>
<path d="M387.5 449.001C383.5 453.901 380.8 460.101 381 466.401C381.3 475.001 387.1 483.001 395 486.501C402.9 490.001 412.4 489.101 419.9 484.801C424.2 482.401 427.9 478.801 429.9 474.301C433.6 466.301 431.4 456.301 425.5 449.801C415.5 438.901 397.3 437.101 387.5 449.001Z" stroke="black" stroke-width="0.5" stroke-miterlimit="10" stroke-linecap="round" stroke-linejoin="round"/>
<path d="M394.1 458.301C394.3 457.901 394 457.501 393.6 457.401C393.2 457.301 392.8 457.601 392.6 458.001C392.4 458.301 392.4 458.801 392.3 459.201C392.3 459.601 392.3 460.101 392.6 460.401C393 460.701 393.6 460.601 393.9 460.201C394.2 459.801 394.4 459.401 394.5 458.901C394.2 459.201 394.7 459.801 395.2 459.601C395.6 459.501 395.9 459.001 396 458.601C396.2 459.001 396.7 459.501 397.1 459.301C397.2 459.301 397.3 459.201 397.4 459.201C397.6 459.201 397.7 459.401 397.8 459.501C398.1 459.901 398.8 459.701 399.1 459.401C399.4 459.101 399.5 458.501 399.6 458.101C399.7 457.801 399.7 457.401 399.4 457.301C399.1 457.101 398.8 457.501 398.6 457.801C398.4 458.301 398.3 458.801 398.3 459.401C398.3 459.801 398.4 460.301 398.7 460.501C399.1 460.801 399.7 460.701 400.1 460.301C400.5 459.901 400.6 459.401 400.8 459.001C401.2 459.301 401.4 459.901 401.3 460.401C401.5 460.101 401.8 459.701 402 459.401C402 459.801 402.4 460.201 402.8 460.201C403.2 460.201 403.6 459.901 403.6 459.401C403.7 459.801 404 460.101 404.4 460.201C404.8 460.201 405.2 460.001 405.4 459.601C405.6 459.901 405.3 460.201 405.5 460.501C405.7 460.801 406.2 460.701 406.4 460.401C406.6 460.101 406.6 459.701 406.5 459.401C406.1 459.701 406 460.401 406.3 460.801" stroke="black" stroke-width="0.5" stroke-miterlimit="10" stroke-linecap="round" stroke-linejoin="round"/>
<path d="M414.4 459.001C414.8 458.901 415 458.401 415.1 458.001C415.2 457.601 415.2 457.001 414.8 456.901C414.6 456.801 414.3 456.901 414.1 457.101C413.9 457.301 413.8 457.501 413.8 457.801C413.7 458.201 413.6 458.601 413.7 459.001C413.8 459.401 414.1 459.801 414.5 459.801C414.8 459.801 415 459.701 415.3 459.501C415.7 459.201 416 458.901 416.2 458.601C416.3 458.501 416.3 458.401 416.4 458.401C416.6 458.401 416.7 458.701 416.7 458.801C416.9 459.101 417.3 459.201 417.7 459.001C418 458.801 418.3 458.501 418.5 458.201C418.5 458.601 418.8 458.901 419.2 458.901C419.6 458.901 419.9 458.701 420 458.301C420.1 458.801 420.7 459.001 421.2 458.801C421.7 458.601 421.9 458.101 422 457.601C422 457.301 422 456.901 421.9 456.601C421.7 456.301 421.4 456.101 421 456.201C420.6 456.301 420.4 456.801 420.3 457.201C420.1 457.701 420 458.401 420.5 458.701C421.2 459.101 421.8 457.801 422.6 457.901C423 458.001 423.3 458.401 423.3 458.801C423.3 459.201 423.1 459.601 422.9 460.001C422.9 459.701 423.1 459.301 423.4 459.201C423.7 459.101 424.1 459.301 424.1 459.701" stroke="black" stroke-width="0.5" stroke-miterlimit="10" stroke-linecap="round" stroke-linejoin="round"/>
<path d="M387.9 473.301C387.2 472.201 387.4 470.601 388.5 469.801C388.6 469.701 388.8 469.601 389 469.701C389.2 469.801 389.2 470.001 389.2 470.201C389.2 470.801 389.3 471.401 389.3 472.001C389.7 472.101 389.8 471.401 390.2 471.301C390.6 471.201 390.7 471.801 391 472.001C391.4 472.501 392.3 472.001 392.2 471.401C392.4 472.301 393.7 472.601 394.3 471.901C394.9 471.201 394.2 470.001 393.3 470.001C392.4 470.001 391.9 471.001 392.1 471.901C392.3 472.701 393.1 473.301 393.9 473.601C394.5 473.801 395.1 473.901 395.7 473.601C396.5 473.301 397 472.401 396.9 471.601C396.4 471.701 396.4 472.601 396.9 472.801C397.4 473.001 398 472.501 398.1 472.001C397.9 472.501 398.6 473.001 399.1 472.801C399.6 472.601 399.9 472.101 400.1 471.601C400 472.101 400.4 472.601 400.8 472.601C401.3 472.701 401.8 472.301 401.7 471.801C401.9 472.301 402.4 472.701 403 472.601C403.6 472.501 404 472.001 404 471.501C404 471.901 404.3 472.201 404.7 472.401" stroke="black" stroke-width="0.5" stroke-miterlimit="10" stroke-linecap="round" stroke-linejoin="round"/>
<path d="M408.2 472.001C408.7 471.601 409.2 471.201 409.4 470.701C409.7 470.101 409.6 469.401 409.1 469.101C408.8 469.601 408.6 470.201 408.6 470.801C408.6 471.101 408.6 471.301 408.8 471.501C409.1 471.901 409.7 471.901 410.1 471.601C410.5 471.401 410.8 470.901 411 470.501C411.2 471.101 411.7 471.801 412.3 471.501C412.7 471.301 412.9 470.801 413.3 470.901C413.5 471.001 413.6 471.201 413.7 471.301C414 471.501 414.4 471.401 414.6 471.201C414.8 471.001 415 470.701 415.1 470.401C415.5 471.301 417.1 471.201 417.4 470.301C418.1 471.001 419.4 470.901 420.1 470.101C420.8 469.401 420.7 468.101 420 467.401C419.7 468.001 419.4 468.601 419.5 469.201C419.6 469.801 420.2 470.401 420.8 470.201C421.2 470.101 421.5 469.601 421.9 469.401C421.9 470.001 422.4 470.501 423 470.601C423.6 470.701 424.2 470.401 424.4 469.801C424.8 470.201 425.4 470.301 425.9 470.101C426.4 469.901 426.9 469.601 427.3 469.301" stroke="black" stroke-width="0.5" stroke-miterlimit="10" stroke-linecap="round" stroke-linejoin="round"/>
<path d="M387.5 555C383.5 559.9 380.8 566.1 381 572.4C381.3 581 387.1 589 395 592.5C402.9 596 412.4 595.1 419.9 590.8C424.2 588.4 427.9 584.8 429.9 580.3C433.6 572.3 431.4 562.3 425.5 555.8C415.5 545 397.3 543.2 387.5 555Z" stroke="black" stroke-width="0.5" stroke-miterlimit="10" stroke-linecap="round" stroke-linejoin="round"/>
<path d="M394.1 564.3C394.3 563.9 394 563.5 393.6 563.4C393.2 563.3 392.8 563.6 392.6 564C392.4 564.3 392.4 564.8 392.3 565.2C392.3 565.6 392.3 566.1 392.6 566.4C393 566.7 393.6 566.6 393.9 566.2C394.2 565.8 394.4 565.4 394.5 564.9C394.2 565.2 394.7 565.8 395.2 565.6C395.6 565.5 395.9 565 396 564.6C396.2 565 396.7 565.5 397.1 565.3C397.2 565.3 397.3 565.2 397.4 565.2C397.6 565.2 397.7 565.4 397.8 565.5C398.1 565.9 398.8 565.7 399.1 565.4C399.4 565 399.5 564.5 399.6 564.1C399.7 563.8 399.7 563.4 399.4 563.3C399.1 563.1 398.8 563.5 398.6 563.8C398.4 564.3 398.3 564.8 398.3 565.4C398.3 565.8 398.4 566.3 398.7 566.5C399.1 566.8 399.7 566.7 400.1 566.3C400.5 565.9 400.6 565.4 400.8 565C401.2 565.3 401.4 565.9 401.3 566.4C401.5 566.1 401.8 565.7 402 565.4C402 565.8 402.4 566.2 402.8 566.2C403.2 566.2 403.6 565.9 403.6 565.4C403.7 565.8 404 566.1 404.4 566.2C404.8 566.2 405.2 566 405.4 565.6C405.6 565.9 405.3 566.2 405.5 566.5C405.7 566.8 406.2 566.7 406.4 566.4C406.6 566.1 406.6 565.7 406.5 565.4C406.1 565.7 406 566.4 406.3 566.8" stroke="black" stroke-width="0.5" stroke-miterlimit="10" stroke-linecap="round" stroke-linejoin="round"/>
<path d="M414.4 565.1C414.8 565 415 564.5 415.1 564.1C415.2 563.7 415.2 563.1 414.8 563C414.6 562.9 414.3 563 414.1 563.2C413.9 563.4 413.8 563.6 413.8 563.9C413.7 564.3 413.6 564.7 413.7 565.1C413.8 565.5 414.1 565.9 414.5 565.9C414.8 565.9 415 565.8 415.3 565.6C415.7 565.3 416 565 416.2 564.7C416.3 564.6 416.3 564.5 416.4 564.5C416.6 564.5 416.7 564.8 416.7 564.9C416.9 565.2 417.3 565.3 417.7 565.1C418 564.9 418.3 564.6 418.5 564.3C418.5 564.7 418.8 565 419.2 565C419.6 565 419.9 564.8 420 564.4C420.1 564.9 420.7 565.1 421.2 564.9C421.7 564.7 421.9 564.2 422 563.7C422 563.4 422 563 421.9 562.7C421.7 562.4 421.4 562.2 421 562.3C420.6 562.4 420.4 562.9 420.3 563.3C420.1 563.8 420 564.5 420.5 564.8C421.2 565.2 421.8 563.9 422.6 564C423 564.1 423.3 564.5 423.3 564.9C423.3 565.3 423.1 565.7 422.9 566.1C422.9 565.8 423.1 565.4 423.4 565.3C423.7 565.2 424.1 565.4 424.1 565.8" stroke="black" stroke-width="0.5" stroke-miterlimit="10" stroke-linecap="round" stroke-linejoin="round"/>
<path d="M387.9 579.301C387.2 578.201 387.4 576.601 388.5 575.801C388.6 575.701 388.8 575.601 389 575.701C389.2 575.801 389.2 576.001 389.2 576.201C389.2 576.801 389.3 577.401 389.3 578.001C389.7 578.101 389.8 577.401 390.2 577.301C390.6 577.201 390.7 577.801 391 578.001C391.4 578.501 392.3 578.001 392.2 577.401C392.4 578.301 393.7 578.601 394.3 577.901C394.9 577.201 394.2 576.001 393.3 576.001C392.4 576.001 391.9 577.001 392.1 577.901C392.3 578.701 393.1 579.301 393.9 579.601C394.5 579.801 395.1 579.901 395.7 579.601C396.5 579.301 397 578.401 396.9 577.601C396.4 577.701 396.4 578.601 396.9 578.801C397.4 579.001 398 578.501 398.1 578.001C397.9 578.501 398.6 579.001 399.1 578.801C399.6 578.601 399.9 578.101 400.1 577.601C400 578.101 400.4 578.601 400.8 578.601C401.3 578.701 401.8 578.301 401.7 577.801C401.9 578.301 402.4 578.701 403 578.601C403.6 578.501 404 578.001 404 577.501C404 577.901 404.3 578.201 404.7 578.401" stroke="black" stroke-width="0.5" stroke-miterlimit="10" stroke-linecap="round" stroke-linejoin="round"/>
<path d="M408.2 578C408.7 577.6 409.2 577.2 409.4 576.7C409.7 576.1 409.6 575.4 409.1 575.1C408.8 575.6 408.6 576.2 408.6 576.8C408.6 577.1 408.6 577.3 408.8 577.5C409.1 577.9 409.7 577.9 410.1 577.6C410.5 577.4 410.8 576.9 411 576.5C411.2 577.1 411.7 577.8 412.3 577.5C412.7 577.3 412.9 576.8 413.3 576.9C413.5 577 413.6 577.2 413.7 577.3C414 577.5 414.4 577.4 414.6 577.2C414.8 577 415 576.7 415.1 576.4C415.5 577.3 417.1 577.2 417.4 576.3C418.1 577 419.4 576.9 420.1 576.1C420.8 575.3 420.7 574.1 420 573.4C419.7 574 419.4 574.6 419.5 575.2C419.6 575.8 420.2 576.4 420.8 576.2C421.2 576.1 421.5 575.6 421.9 575.4C421.9 576 422.4 576.5 423 576.6C423.6 576.7 424.2 576.4 424.4 575.8C424.8 576.2 425.4 576.3 425.9 576.1C426.4 575.9 426.9 575.6 427.3 575.3" stroke="black" stroke-width="0.5" stroke-miterlimit="10" stroke-linecap="round" stroke-linejoin="round"/>
<path d="M726.3 573.701C722.3 578.601 719.6 584.801 719.8 591.101C720.1 599.701 725.9 607.701 733.8 611.201C741.7 614.701 751.2 613.801 758.7 609.501C763 607.101 766.7 603.501 768.7 599.001C772.4 591.001 770.2 581.001 764.3 574.501C754.3 563.701 736.1 561.901 726.3 573.701Z" stroke="black" stroke-width="0.5" stroke-miterlimit="10" stroke-linecap="round" stroke-linejoin="round"/>
<path d="M728 584C728.1 583.4 727.1 583.1 726.6 583.5C726.1 583.9 726 584.601 726 585.201C726 585.601 725.9 586.1 725.9 586.5C725.8 587.1 725.9 588.001 726.5 588.201C727 588.401 727.5 587.9 727.8 587.5C728 587 728.1 586.5 728.5 586.1C728.8 586.4 729.1 586.8 729.4 587.1C729.7 586.6 730.1 586 730.4 585.5C730.9 585.7 731.3 586.1 731.5 586.6C731.8 586.5 732 586.3 732.2 586.1C732.7 586.6 733.6 586.701 734.2 586.401C734.8 586.001 735.1 585.2 734.9 584.5C734 584.1 733.3 585.401 733.1 586.401C733 586.701 733 587.1 733.3 587.3C733.8 587.6 734.3 586.601 734.8 586.701C735 586.701 735.1 586.9 735.2 587.1C736.3 588.7 736.9 590.6 736.9 592.5C736.9 593 736.6 593.7 736.1 593.6C735.8 593.6 735.6 593.3 735.5 593.1C734.7 591.7 734.6 590.001 734.6 588.401C734.6 587.601 734.7 586.701 735.4 586.201C736.1 585.701 737.3 586.4 736.9 587.1C737.3 586.6 737.6 586 738 585.5C738.3 586 738.6 586.4 739.2 586.6C739.7 586.7 740.4 586.201 740.1 585.701C741 586.001 742 586.2 742.9 586.5" stroke="black" stroke-width="0.5" stroke-miterlimit="10" stroke-linecap="round" stroke-linejoin="round"/>
<path d="M750 586.5C750.2 585.9 750.4 585.3 750.3 584.7C750.2 584.1 749.8 583.5 749.2 583.4C748.6 583.3 748 583.7 747.7 584.2C747.4 584.7 747.4 585.4 747.4 586C747.4 586.7 747.4 587.5 747.8 588.1C748.2 588.7 749.2 588.9 749.6 588.3C749.8 588 749.8 587.6 750.1 587.3C750.5 586.8 751.3 587.1 752 587.2C752.7 587.3 753.6 586.9 753.4 586.3C753.6 586.1 753.9 586.3 754.1 586.5C754.2 586.7 754.4 587.1 754.6 587.1C755.1 587.2 755.2 586.2 755.7 586.2C756 586.2 756.1 586.5 756.3 586.7C756.8 587.1 757.7 586.9 757.9 586.2C757.8 586.8 758.8 587.1 759.3 586.8C759.8 586.4 760 585.7 760.1 585.1C760.1 584.9 760.2 584.7 760.1 584.6C760 584.5 759.9 584.4 759.7 584.3C758.7 584 757.5 585.3 758.1 586.3C758.5 587.1 759.6 587.2 760.3 587.7C761.4 588.5 761.7 590.2 760.9 591.3C760.7 590 760.9 588.6 761.4 587.4C761.6 586.8 762 586.2 762.7 586.2C763.4 586.3 763.6 587.2 763.7 587.9C764.1 586.8 764.9 585.8 766 585.2C766.2 585.5 766.2 586 765.9 586.2" stroke="black" stroke-width="0.5" stroke-miterlimit="10" stroke-linecap="round" stroke-linejoin="round"/>
<path d="M735.1 601.1C735.6 600.2 734.3 599.3 733.4 599.7C732.5 600.1 732.1 601.2 732.1 602.2C732.1 603.2 732.6 604.4 733.6 604.3C734.5 604.3 735 603.3 735.4 602.6C735.8 601.8 736.7 601.1 737.5 601.6C737.8 601.8 738 602.3 738.4 602.4C739.2 602.6 739.3 601.1 740.1 600.8C740.8 600.5 741.4 601.4 742.1 601.8C742.9 602.2 744 601.7 744.8 602.1C745.1 602.3 745.4 602.6 745.7 602.8C746.7 603.5 748 602.6 748.9 601.7C750.1 600.5 751.5 599.1 751.4 597.3C751.4 596.9 751.3 596.5 751 596.4C750.4 596 749.7 596.9 749.5 597.6C749.1 599 748.9 600.9 750.3 601.5C751.4 601.9 752.5 600.9 753.3 600C753.2 600.7 753.4 601.8 754.2 601.7C754.9 601.6 755.2 600.3 755.9 600.4C756.4 600.5 756.6 601.4 757.1 601.5C757.6 601.6 757.9 600.8 758.5 600.8C758.8 600.8 759.1 601.1 759.4 601.2C760.1 601.6 761 601 761.3 600.3C761.6 599.6 761.5 598.7 761.3 597.9C760.6 597.4 759.6 597.7 758.9 598.3C758.2 598.9 757.6 599.8 757.9 600.6C758.2 601.4 759.6 601.7 759.9 600.8" stroke="black" stroke-width="0.5" stroke-miterlimit="10" stroke-linecap="round" stroke-linejoin="round"/>
<path d="M413.6 594.7C413.6 594.7 484.8 684 726 652.8" stroke="black" stroke-width="0.5" stroke-miterlimit="10" stroke-linecap="round" stroke-linejoin="round"/>
<path d="M724.8 655.1C725.2 654.1 725.2 653.7 725.7 652.7C725 652.1 724.6 651.4 723.9 650.8" stroke="black" stroke-width="0.5" stroke-miterlimit="10" stroke-linecap="round" stroke-linejoin="round"/>
<path d="M787 463.4C787 463.4 897.6 550.6 767.8 650.4" stroke="black" stroke-width="0.5" stroke-miterlimit="10" stroke-linecap="round" stroke-linejoin="round"/>
<path d="M768.2 647.801C768.1 648.701 768 649.701 767.9 650.601C768.6 651.001 769.3 651.501 769.8 652.101" stroke="black" stroke-width="0.5" stroke-miterlimit="10" stroke-linecap="round" stroke-linejoin="round"/>
<path d="M433.7 394.601H384.3V430.201H433.7V394.601Z" fill="#E2F5FF" stroke="black" stroke-width="0.5" stroke-miterlimit="10" stroke-linecap="round" stroke-linejoin="round"/>
<path d="M407.5 400.7C407.7 402.8 407.8 405 408 407.1L407.5 400.7Z" fill="#E2F5FF"/>
<path d="M407.5 400.7C407.7 402.8 407.8 405 408 407.1" stroke="black" stroke-width="0.5" stroke-miterlimit="10" stroke-linecap="round" stroke-linejoin="round"/>
<path d="M411.2 405.2C411.4 405.4 411.4 405.7 411.3 405.9C411 406 410.8 405.5 411 405.3" fill="#E2F5FF"/>
<path d="M411.2 405.2C411.4 405.4 411.4 405.7 411.3 405.9C411 406 410.8 405.5 411 405.3" stroke="black" stroke-width="0.5" stroke-miterlimit="10" stroke-linecap="round" stroke-linejoin="round"/>
<path d="M392.8 417.8C392.8 417.4 392.8 416.9 392.8 416.5C392.5 416.4 392.1 416.3 391.8 416.4C391.3 417.6 391.2 419 391.6 420.3C392.5 419.6 393.4 418.8 394.2 418C394.6 418.6 394.8 419.4 394.7 420.2C395.2 419.8 395.7 419.5 396.2 419.1C396.4 419.4 396.7 419.7 396.9 420C398.1 419.9 399.4 419.7 400.3 418.9C401.2 418.1 401.6 416.5 400.7 415.7C400.5 415.6 400.4 415.5 400.1 415.4C399.4 415.3 399 416.2 399.1 416.9C399.2 418.1 400.3 419.2 401.5 419.3C402.7 419.4 404 418.6 404.3 417.4C404.7 418 405.1 418.6 405.5 419.1C405.5 418.6 406.3 418.3 406.7 418.6C407.2 418.9 407.4 419.4 407.5 420C408 419.6 408.5 419.2 408.9 418.9C409.2 419.9 410.9 420.1 411.3 419.2C411.5 419.9 412.4 420.4 413.1 420.2C413.8 420 414.3 419.1 414 418.4C413 418.5 412.9 420.2 413.8 420.7C414.7 421.2 415.9 420.6 416.5 419.8C416.6 420.1 416.4 420.6 416 420.7C416 419.3 416.3 418 416.7 416.7C417 415.9 417.6 414.9 418.4 415C419 415.1 419.5 415.6 419.8 416.2C420.6 417.6 421 419.1 421.2 420.6C420.8 420.3 421.1 419.6 421.6 419.5C422.1 419.4 422.6 419.9 422.8 420.3C423 420.7 423.3 421.2 423.8 421.5C424.5 421.9 425.3 421.7 425.9 421.2C426.5 420.7 426.8 420 427.1 419.3C427.5 418.4 427.5 417 426.6 417C426.1 417 425.8 417.5 425.6 418C425.1 419.1 424.5 420.3 424.7 421.5C424.9 422.7 426.3 423.8 427.4 423.2" fill="#E2F5FF"/>
<path d="M392.8 417.8C392.8 417.4 392.8 416.9 392.8 416.5C392.5 416.4 392.1 416.3 391.8 416.4C391.3 417.6 391.2 419 391.6 420.3C392.5 419.6 393.4 418.8 394.2 418C394.6 418.6 394.8 419.4 394.7 420.2C395.2 419.8 395.7 419.5 396.2 419.1C396.4 419.4 396.7 419.7 396.9 420C398.1 419.9 399.4 419.7 400.3 418.9C401.2 418.1 401.6 416.5 400.7 415.7C400.5 415.6 400.4 415.5 400.1 415.4C399.4 415.3 399 416.2 399.1 416.9C399.2 418.1 400.3 419.2 401.5 419.3C402.7 419.4 404 418.6 404.3 417.4C404.7 418 405.1 418.6 405.5 419.1C405.5 418.6 406.3 418.3 406.7 418.6C407.2 418.9 407.4 419.4 407.5 420C408 419.6 408.5 419.2 408.9 418.9C409.2 419.9 410.9 420.1 411.3 419.2C411.5 419.9 412.4 420.4 413.1 420.2C413.8 420 414.3 419.1 414 418.4C413 418.5 412.9 420.2 413.8 420.7C414.7 421.2 415.9 420.6 416.5 419.8C416.6 420.1 416.4 420.6 416 420.7C416 419.3 416.3 418 416.7 416.7C417 415.9 417.6 414.9 418.4 415C419 415.1 419.5 415.6 419.8 416.2C420.6 417.6 421 419.1 421.2 420.6C420.8 420.3 421.1 419.6 421.6 419.5C422.1 419.4 422.6 419.9 422.8 420.3C423 420.7 423.3 421.2 423.8 421.5C424.5 421.9 425.3 421.7 425.9 421.2C426.5 420.7 426.8 420 427.1 419.3C427.5 418.4 427.5 417 426.6 417C426.1 417 425.8 417.5 425.6 418C425.1 419.1 424.5 420.3 424.7 421.5C424.9 422.7 426.3 423.8 427.4 423.2" stroke="black" stroke-width="0.5" stroke-miterlimit="10" stroke-linecap="round" stroke-linejoin="round"/>
<path d="M625.1 370.2H575.7V405.8H625.1V370.2Z" fill="#E2F5FF" stroke="black" stroke-width="0.5" stroke-miterlimit="10" stroke-linecap="round" stroke-linejoin="round"/>
<path d="M597.9 378.501C597.5 378.101 597.5 377.301 597.9 376.901C598.3 376.501 599 376.401 599.5 376.801C600 377.201 600.1 377.901 600 378.501C599.9 379.201 599.7 379.801 599.3 380.401C599 380.901 598.5 381.401 598.2 381.901C597.9 382.401 597.7 383.101 597.9 383.701C598.3 383.201 599.1 383.001 599.7 383.201C600 383.301 600.3 383.501 600.6 383.601C600.9 383.701 601.3 383.801 601.5 383.601C601.8 383.401 601.9 383.001 601.6 382.801" fill="#E2F5FF"/>
<path d="M597.9 378.501C597.5 378.101 597.5 377.301 597.9 376.901C598.3 376.501 599 376.401 599.5 376.801C600 377.201 600.1 377.901 600 378.501C599.9 379.201 599.7 379.801 599.3 380.401C599 380.901 598.5 381.401 598.2 381.901C597.9 382.401 597.7 383.101 597.9 383.701C598.3 383.201 599.1 383.001 599.7 383.201C600 383.301 600.3 383.501 600.6 383.601C600.9 383.701 601.3 383.801 601.5 383.601C601.8 383.401 601.9 383.001 601.6 382.801" stroke="black" stroke-width="0.5" stroke-miterlimit="10" stroke-linecap="round" stroke-linejoin="round"/>
<path d="M602.7 380.801C602.7 380.701 602.4 380.701 602.4 380.901C602.4 381.101 602.5 381.201 602.6 381.301C602.9 381.201 603 380.801 602.8 380.601C602.7 380.701 602.6 380.801 602.6 380.901" fill="#E2F5FF"/>
<path d="M602.7 380.801C602.7 380.701 602.4 380.701 602.4 380.901C602.4 381.101 602.5 381.201 602.6 381.301C602.9 381.201 603 380.801 602.8 380.601C602.7 380.701 602.6 380.801 602.6 380.901" stroke="black" stroke-width="0.5" stroke-miterlimit="10" stroke-linecap="round" stroke-linejoin="round"/>
<path d="M585.4 395.2C585.3 394.7 585.2 394.3 584.9 393.9C584.8 393.8 584.7 393.6 584.6 393.6C584.4 393.5 584.1 393.7 584 393.9C583.2 394.7 582.8 395.8 582.9 396.9C582.9 397.3 583.1 397.8 583.5 397.8C583.8 397.8 583.9 397.6 584.1 397.4C584.5 397 584.8 396.5 585.2 396.1C585.4 396.7 585.5 397.3 585.5 397.9C585.8 397.4 586.1 397 586.4 396.5C586.8 396.7 586.6 397.7 587.1 397.7C587.6 397.7 587.6 396.6 588 396.8C588.1 396.8 588.2 396.9 588.3 397C588.7 397.3 589.3 397 589.5 396.6C589.7 396.2 589.7 395.7 589.6 395.2C589.6 395 589.5 394.8 589.4 394.6C589.3 394.4 589 394.4 588.9 394.5C588.8 394.6 588.8 394.6 588.8 394.7C588.6 395.2 588.5 395.7 588.5 396.2C588.5 396.7 588.8 397.3 589.3 397.5C589.8 397.7 590.4 397.6 590.8 397.2C591.2 396.9 591.5 396.4 591.8 396C591.8 396.7 592 397.3 592.4 397.9C592.5 397.5 592.8 396.9 593.2 397.1C593.6 397.3 593.6 398 594 397.9C594.1 397.9 594.2 397.8 594.3 397.8C594.4 397.8 594.5 397.8 594.6 397.7C594.7 397.6 594.7 397.5 594.7 397.4C594.6 397.3 594.5 397.5 594.6 397.5" fill="#E2F5FF"/>
<path d="M585.4 395.2C585.3 394.7 585.2 394.3 584.9 393.9C584.8 393.8 584.7 393.6 584.6 393.6C584.4 393.5 584.1 393.7 584 393.9C583.2 394.7 582.8 395.8 582.9 396.9C582.9 397.3 583.1 397.8 583.5 397.8C583.8 397.8 583.9 397.6 584.1 397.4C584.5 397 584.8 396.5 585.2 396.1C585.4 396.7 585.5 397.3 585.5 397.9C585.8 397.4 586.1 397 586.4 396.5C586.8 396.7 586.6 397.7 587.1 397.7C587.6 397.7 587.6 396.6 588 396.8C588.1 396.8 588.2 396.9 588.3 397C588.7 397.3 589.3 397 589.5 396.6C589.7 396.2 589.7 395.7 589.6 395.2C589.6 395 589.5 394.8 589.4 394.6C589.3 394.4 589 394.4 588.9 394.5C588.8 394.6 588.8 394.6 588.8 394.7C588.6 395.2 588.5 395.7 588.5 396.2C588.5 396.7 588.8 397.3 589.3 397.5C589.8 397.7 590.4 397.6 590.8 397.2C591.2 396.9 591.5 396.4 591.8 396C591.8 396.7 592 397.3 592.4 397.9C592.5 397.5 592.8 396.9 593.2 397.1C593.6 397.3 593.6 398 594 397.9C594.1 397.9 594.2 397.8 594.3 397.8C594.4 397.8 594.5 397.8 594.6 397.7C594.7 397.6 594.7 397.5 594.7 397.4C594.6 397.3 594.5 397.5 594.6 397.5" stroke="black" stroke-width="0.5" stroke-miterlimit="10" stroke-linecap="round" stroke-linejoin="round"/>
<path d="M600.8 395.901C601.1 395.401 601.3 394.901 601.2 394.301C601.1 393.701 600.5 393.301 600 393.601C599.8 393.701 599.7 394.001 599.6 394.301C599.4 394.901 599.3 395.601 599.2 396.301C599.2 396.501 599.2 396.701 599.3 396.901C599.5 397.301 600.1 397.401 600.6 397.201C601 397.001 601.3 396.501 601.6 396.101C601.6 396.601 602.1 397.101 602.6 397.201C603.1 397.201 603.7 396.801 603.7 396.301C604.1 397.201 605.8 397.101 606.1 396.101C606.3 397.001 607.5 397.401 608.2 397.001C608.5 396.801 608.8 396.401 609.2 396.501C609.5 396.501 609.7 396.801 610 396.901C610.6 397.201 611.2 396.501 611.5 395.901C611.7 395.501 612 395.101 612 394.601C612 394.101 611.8 393.601 611.4 393.401C610.9 393.201 610.3 393.501 610.1 394.001C609.8 394.401 609.8 395.001 609.8 395.501C609.8 395.801 609.8 396.101 610 396.401C610.3 396.801 610.9 396.801 611.4 396.501C611.9 396.201 612.3 395.901 612.7 395.801C613.3 395.701 613.9 396.001 614.2 396.501C614.5 397.001 614.4 397.701 614 398.101C614.2 396.701 615.4 395.601 616.8 395.501C616.9 396.201 616.7 397.001 616.3 397.601C616.5 397.001 616.6 396.401 617.1 396.001C617.5 395.601 618.3 395.401 618.7 395.801C618.9 396.001 619 396.201 619.1 396.501C619.7 398.101 619.1 400.001 617.8 401.101C616.7 398.501 617.6 395.301 619.9 393.701" fill="#E2F5FF"/>
<path d="M600.8 395.901C601.1 395.401 601.3 394.901 601.2 394.301C601.1 393.701 600.5 393.301 600 393.601C599.8 393.701 599.7 394.001 599.6 394.301C599.4 394.901 599.3 395.601 599.2 396.301C599.2 396.501 599.2 396.701 599.3 396.901C599.5 397.301 600.1 397.401 600.6 397.201C601 397.001 601.3 396.501 601.6 396.101C601.6 396.601 602.1 397.101 602.6 397.201C603.1 397.201 603.7 396.801 603.7 396.301C604.1 397.201 605.8 397.101 606.1 396.101C606.3 397.001 607.5 397.401 608.2 397.001C608.5 396.801 608.8 396.401 609.2 396.501C609.5 396.501 609.7 396.801 610 396.901C610.6 397.201 611.2 396.501 611.5 395.901C611.7 395.501 612 395.101 612 394.601C612 394.101 611.8 393.601 611.4 393.401C610.9 393.201 610.3 393.501 610.1 394.001C609.8 394.401 609.8 395.001 609.8 395.501C609.8 395.801 609.8 396.101 610 396.401C610.3 396.801 610.9 396.801 611.4 396.501C611.9 396.201 612.3 395.901 612.7 395.801C613.3 395.701 613.9 396.001 614.2 396.501C614.5 397.001 614.4 397.701 614 398.101C614.2 396.701 615.4 395.601 616.8 395.501C616.9 396.201 616.7 397.001 616.3 397.601C616.5 397.001 616.6 396.401 617.1 396.001C617.5 395.601 618.3 395.401 618.7 395.801C618.9 396.001 619 396.201 619.1 396.501C619.7 398.101 619.1 400.001 617.8 401.101C616.7 398.501 617.6 395.301 619.9 393.701" stroke="black" stroke-width="0.5" stroke-miterlimit="10" stroke-linecap="round" stroke-linejoin="round"/>
<path d="M581.039 501.958L533.215 514.328L542.129 548.792L589.953 536.423L581.039 501.958Z" fill="#E2F5FF" stroke="black" stroke-width="0.5" stroke-miterlimit="10" stroke-linecap="round" stroke-linejoin="round"/>
<path d="M555.5 517.9C555 517.3 555.7 516.2 556.5 516.3C557.3 516.3 557.9 517.1 558 517.9C558.1 518.7 557.8 519.5 557.5 520.2C557.2 519.2 558.6 518.3 559.5 518.7C560.4 519.2 560.7 520.5 560.4 521.4C559.9 522.6 558.5 523.4 557.2 523.1" fill="#E2F5FF"/>
<path d="M555.5 517.9C555 517.3 555.7 516.2 556.5 516.3C557.3 516.3 557.9 517.1 558 517.9C558.1 518.7 557.8 519.5 557.5 520.2C557.2 519.2 558.6 518.3 559.5 518.7C560.4 519.2 560.7 520.5 560.4 521.4C559.9 522.6 558.5 523.4 557.2 523.1" stroke="black" stroke-width="0.5" stroke-miterlimit="10" stroke-linecap="round" stroke-linejoin="round"/>
<path d="M563.1 519.4C562.9 519.6 562.9 520 563.1 520.2C563.1 519.9 563.1 519.7 563.1 519.4Z" fill="#E2F5FF" stroke="black" stroke-width="0.5" stroke-miterlimit="10" stroke-linecap="round" stroke-linejoin="round"/>
<path d="M545.6 539.4C545.4 538.7 544.8 537.9 544.3 538.4C544.1 538.6 544.1 538.9 544.1 539.1C544.1 539.7 544 540.3 544 540.9C544 541.5 544.1 542.3 544.7 542.3C545.7 542.4 545.3 540.5 546.2 540C546.9 539.5 547.7 540.5 548 541.4C548.3 540.8 548.6 540.1 549 539.5C549.4 539.6 549.8 539.9 549.9 540.3C550.7 539.6 551.8 539.3 552.8 539.3C553.2 539.3 553.5 539.4 553.9 539.3C555 539 555.1 537.2 554 536.8C553.2 537.8 553.5 539.5 554.6 540.1C555.3 539.1 556 538 556.7 537C556.6 537.7 557.4 538.2 558.1 538.1C558.8 538 559.3 537.6 560 537.4C561 537 562.1 537.1 563 537.6C564.6 537 566.8 535.8 567.7 534.4C568.2 534.8 568.7 535.1 569.2 535.5C569.2 534.9 569.9 534.3 570.5 534.4C570.8 534.4 571 534.5 571.3 534.6C572 534.7 572.7 534.2 572.8 533.6C573.1 533.9 573.5 534.1 573.9 534.1C574.2 534.1 574.5 534 574.8 533.9C575.8 533.5 576.8 533 577.5 532.1C578.1 531.2 578.3 529.9 577.8 529C576.6 530.4 576.2 532.4 576.8 534.1C578.1 533 579.2 531.5 579.7 529.9C580.2 531 581.6 531.6 582.7 531.2C583.7 530.9 584.6 530 585.7 530.1" fill="#E2F5FF"/>
<path d="M545.6 539.4C545.4 538.7 544.8 537.9 544.3 538.4C544.1 538.6 544.1 538.9 544.1 539.1C544.1 539.7 544 540.3 544 540.9C544 541.5 544.1 542.3 544.7 542.3C545.7 542.4 545.3 540.5 546.2 540C546.9 539.5 547.7 540.5 548 541.4C548.3 540.8 548.6 540.1 549 539.5C549.4 539.6 549.8 539.9 549.9 540.3C550.7 539.6 551.8 539.3 552.8 539.3C553.2 539.3 553.5 539.4 553.9 539.3C555 539 555.1 537.2 554 536.8C553.2 537.8 553.5 539.5 554.6 540.1C555.3 539.1 556 538 556.7 537C556.6 537.7 557.4 538.2 558.1 538.1C558.8 538 559.3 537.6 560 537.4C561 537 562.1 537.1 563 537.6C564.6 537 566.8 535.8 567.7 534.4C568.2 534.8 568.7 535.1 569.2 535.5C569.2 534.9 569.9 534.3 570.5 534.4C570.8 534.4 571 534.5 571.3 534.6C572 534.7 572.7 534.2 572.8 533.6C573.1 533.9 573.5 534.1 573.9 534.1C574.2 534.1 574.5 534 574.8 533.9C575.8 533.5 576.8 533 577.5 532.1C578.1 531.2 578.3 529.9 577.8 529C576.6 530.4 576.2 532.4 576.8 534.1C578.1 533 579.2 531.5 579.7 529.9C580.2 531 581.6 531.6 582.7 531.2C583.7 530.9 584.6 530 585.7 530.1" stroke="black" stroke-width="0.5" stroke-miterlimit="10" stroke-linecap="round" stroke-linejoin="round"/>
<path d="M848.8 528.7H799.4V564.3H848.8V528.7Z" fill="#E2F5FF" stroke="black" stroke-width="0.5" stroke-miterlimit="10" stroke-linecap="round" stroke-linejoin="round"/>
<path d="M825.8 540.101C823.3 539.701 820.8 539.901 818.4 540.701C820.1 539.101 821.6 537.201 822.6 535.101C822.8 538.001 822.9 540.801 823.1 543.701" fill="#E2F5FF"/>
<path d="M825.8 540.101C823.3 539.701 820.8 539.901 818.4 540.701C820.1 539.101 821.6 537.201 822.6 535.101C822.8 538.001 822.9 540.801 823.1 543.701" stroke="black" stroke-width="0.5" stroke-miterlimit="10" stroke-linecap="round" stroke-linejoin="round"/>
<path d="M829.1 539.5C828.7 539.9 828.6 540.6 828.9 541.2C829.4 541 830 540.7 830.1 540.1C830.1 539.5 829.2 539.1 829.1 539.5Z" fill="#E2F5FF" stroke="black" stroke-width="0.5" stroke-miterlimit="10" stroke-linecap="round" stroke-linejoin="round"/>
<path d="M807.3 553.7C807.3 552.7 805.7 552.6 805.2 553.4C804.7 554.2 805 555.3 805.3 556.2C806.6 556.2 808 555.3 808.4 554C809.1 554.7 809.6 555.6 809.8 556.6C810.3 555.9 810.7 555.2 811.2 554.5C811.2 555.3 811.9 556 812.6 556.1C813.4 556.2 814.2 555.7 814.4 555C814.8 556.1 816.4 556.5 817.3 555.7C818.2 554.9 817.9 553.2 816.8 552.7C815.6 553.6 815.6 555.6 816.7 556.6C817.8 557.6 819.8 557.2 820.6 555.9" fill="#E2F5FF"/>
<path d="M807.3 553.7C807.3 552.7 805.7 552.6 805.2 553.4C804.7 554.2 805 555.3 805.3 556.2C806.6 556.2 808 555.3 808.4 554C809.1 554.7 809.6 555.6 809.8 556.6C810.3 555.9 810.7 555.2 811.2 554.5C811.2 555.3 811.9 556 812.6 556.1C813.4 556.2 814.2 555.7 814.4 555C814.8 556.1 816.4 556.5 817.3 555.7C818.2 554.9 817.9 553.2 816.8 552.7C815.6 553.6 815.6 555.6 816.7 556.6C817.8 557.6 819.8 557.2 820.6 555.9" stroke="black" stroke-width="0.5" stroke-miterlimit="10" stroke-linecap="round" stroke-linejoin="round"/>
<path d="M825 555.201C826.5 554.701 826.7 552.301 825.3 551.601C824.8 552.401 824.4 553.201 824.4 554.001C824.4 554.901 825.2 555.801 826 555.701C826.9 555.601 827.3 554.601 827.5 553.801C827.3 554.601 827.9 555.501 828.7 555.701C829.5 555.901 830.4 555.301 830.6 554.501C831.2 555.801 833.4 555.701 833.9 554.401C834 555.301 834.9 556.101 835.8 556.001C836.7 555.901 837.5 555.001 837.4 554.101C838.2 554.901 839.4 555.501 840.5 555.401C841.6 555.201 842.6 554.001 842.3 552.901C841.7 552.901 841.1 553.501 841.3 554.101" fill="#E2F5FF"/>
<path d="M825 555.201C826.5 554.701 826.7 552.301 825.3 551.601C824.8 552.401 824.4 553.201 824.4 554.001C824.4 554.901 825.2 555.801 826 555.701C826.9 555.601 827.3 554.601 827.5 553.801C827.3 554.601 827.9 555.501 828.7 555.701C829.5 555.901 830.4 555.301 830.6 554.501C831.2 555.801 833.4 555.701 833.9 554.401C834 555.301 834.9 556.101 835.8 556.001C836.7 555.901 837.5 555.001 837.4 554.101C838.2 554.901 839.4 555.501 840.5 555.401C841.6 555.201 842.6 554.001 842.3 552.901C841.7 552.901 841.1 553.501 841.3 554.101" stroke="black" stroke-width="0.5" stroke-miterlimit="10" stroke-linecap="round" stroke-linejoin="round"/>
<path d="M823.8 559.9C823.3 559.4 822.4 559.4 821.9 559.9C821.4 560.4 821.4 561.3 821.9 561.8C822.4 562.4 823.3 561.7 823.8 561.1C824.2 560.4 824.9 559.6 825.6 560C825.9 560.1 826.1 560.5 826.4 560.6C827 560.9 827.7 560.4 828.3 560.2C829.6 559.7 831 560.1 832.4 560.2C833.8 560.4 835.4 560.2 836.1 559" fill="#E2F5FF"/>
<path d="M823.8 559.9C823.3 559.4 822.4 559.4 821.9 559.9C821.4 560.4 821.4 561.3 821.9 561.8C822.4 562.4 823.3 561.7 823.8 561.1C824.2 560.4 824.9 559.6 825.6 560C825.9 560.1 826.1 560.5 826.4 560.6C827 560.9 827.7 560.4 828.3 560.2C829.6 559.7 831 560.1 832.4 560.2C833.8 560.4 835.4 560.2 836.1 559" stroke="black" stroke-width="0.5" stroke-miterlimit="10" stroke-linecap="round" stroke-linejoin="round"/>
<path d="M654.2 641.601H604.8V677.201H654.2V641.601Z" fill="#E2F5FF" stroke="black" stroke-width="0.5" stroke-miterlimit="10" stroke-linecap="round" stroke-linejoin="round"/>
<path d="M623.8 657C625.1 657 626.4 657.1 627.6 656.6C628.8 656.1 629.8 655 629.7 653.7C629.6 652.6 628.7 651.6 627.6 651.4C626.5 651.2 625.3 651.6 624.5 652.5C624.4 651.1 624.6 649.7 625.2 648.5C626.7 648.3 628 648.8 629.5 648.6" fill="#E2F5FF"/>
<path d="M623.8 657C625.1 657 626.4 657.1 627.6 656.6C628.8 656.1 629.8 655 629.7 653.7C629.6 652.6 628.7 651.6 627.6 651.4C626.5 651.2 625.3 651.6 624.5 652.5C624.4 651.1 624.6 649.7 625.2 648.5C626.7 648.3 628 648.8 629.5 648.6" stroke="black" stroke-width="0.5" stroke-miterlimit="10" stroke-linecap="round" stroke-linejoin="round"/>
<path d="M632.6 655.601C632 655.701 632.1 656.701 632.7 656.801C633.3 656.901 633.4 655.801 632.9 655.601" fill="#E2F5FF"/>
<path d="M632.6 655.601C632 655.701 632.1 656.701 632.7 656.801C633.3 656.901 633.4 655.801 632.9 655.601" stroke="black" stroke-width="0.5" stroke-miterlimit="10" stroke-linecap="round" stroke-linejoin="round"/>
<path d="M610.8 668.901C610.7 668.501 610.4 668.101 609.9 668.001C609.4 668.901 609.1 669.801 609 670.801C609 671.501 609.1 672.301 609.7 672.601C610.3 673.001 611.1 672.701 611.6 672.101C612.1 671.601 612.2 670.801 612.4 670.101C613.6 670.501 614.7 671.001 615.9 671.401C616.6 671.701 617.2 671.901 617.9 671.801C618.6 671.701 619.3 671.201 619.3 670.501C618.9 671.801 620.4 673.101 621.6 672.601C622.8 672.101 622.9 670.101 621.8 669.501C621.1 670.301 621.2 671.701 622 672.401C622.8 673.101 624.2 673.101 624.9 672.301C625.2 672.001 625.4 671.701 625.7 671.501C626.3 671.201 627 671.401 627.7 671.501C628.4 671.601 629.2 671.301 629.3 670.701C629.6 671.001 630 671.401 630.3 671.701C630.7 671.501 631 671.201 631.2 670.901C632.3 671.801 634.1 671.901 635.2 671.001C636.4 670.101 636.8 668.401 636.2 667.101C634.7 667.901 634.6 670.301 635.9 671.201C637.3 672.101 639.5 671.101 639.6 669.501C640.4 670.601 642.3 670.601 643.1 669.601C643.4 670.601 644.3 671.401 645.4 671.501C646.5 671.601 647.5 671.001 648 670.001" fill="#E2F5FF"/>
<path d="M610.8 668.901C610.7 668.501 610.4 668.101 609.9 668.001C609.4 668.901 609.1 669.801 609 670.801C609 671.501 609.1 672.301 609.7 672.601C610.3 673.001 611.1 672.701 611.6 672.101C612.1 671.601 612.2 670.801 612.4 670.101C613.6 670.501 614.7 671.001 615.9 671.401C616.6 671.701 617.2 671.901 617.9 671.801C618.6 671.701 619.3 671.201 619.3 670.501C618.9 671.801 620.4 673.101 621.6 672.601C622.8 672.101 622.9 670.101 621.8 669.501C621.1 670.301 621.2 671.701 622 672.401C622.8 673.101 624.2 673.101 624.9 672.301C625.2 672.001 625.4 671.701 625.7 671.501C626.3 671.201 627 671.401 627.7 671.501C628.4 671.601 629.2 671.301 629.3 670.701C629.6 671.001 630 671.401 630.3 671.701C630.7 671.501 631 671.201 631.2 670.901C632.3 671.801 634.1 671.901 635.2 671.001C636.4 670.101 636.8 668.401 636.2 667.101C634.7 667.901 634.6 670.301 635.9 671.201C637.3 672.101 639.5 671.101 639.6 669.501C640.4 670.601 642.3 670.601 643.1 669.601C643.4 670.601 644.3 671.401 645.4 671.501C646.5 671.601 647.5 671.001 648 670.001" stroke="black" stroke-width="0.5" stroke-miterlimit="10" stroke-linecap="round" stroke-linejoin="round"/>
<path d="M421.5 446.3C433.7 441.4 451.9 435.7 463.4 436.4C473.9 437.1 491.5 440 501.1 446.3" stroke="black" stroke-width="0.5" stroke-miterlimit="10" stroke-linecap="round" stroke-linejoin="round"/>
<path d="M500.4 444.2L501.3 446.1L499.1 447" stroke="black" stroke-width="0.5" stroke-miterlimit="10" stroke-linecap="round" stroke-linejoin="round"/>
<path d="M566.5 458.701C584.5 458.101 602.2 458.201 620.2 459.401" stroke="black" stroke-width="0.5" stroke-miterlimit="10" stroke-linecap="round" stroke-linejoin="round"/>
<path d="M618.2 457.801L619.7 459.301L617.9 460.801" stroke="black" stroke-width="0.5" stroke-miterlimit="10" stroke-linecap="round" stroke-linejoin="round"/>
<path d="M685.3 462.9C693.2 461.7 701.2 462.6 709.1 463C717.5 463.4 726.5 463.4 734.8 462.5" stroke="black" stroke-width="0.5" stroke-miterlimit="10" stroke-linecap="round" stroke-linejoin="round"/>
<path d="M732.9 461.4L734.6 462.6L733.2 464.4" stroke="black" stroke-width="0.5" stroke-miterlimit="10" stroke-linecap="round" stroke-linejoin="round"/>
<path d="M406.3 546.9V488.9" stroke="black" stroke-width="0.5" stroke-miterlimit="10" stroke-linecap="round" stroke-linejoin="round"/>
<path d="M404.9 545.301C405.5 545.601 406 546.101 406.3 546.701C406.8 546.201 407.3 545.801 407.7 545.301" stroke="black" stroke-width="0.5" stroke-miterlimit="10" stroke-linecap="round" stroke-linejoin="round"/>
<path d="M470.9 608.3C470.9 608.3 475.6 601.2 476.6 587.7C477.6 574.2 479.7 569.8 481.4 567.6C483.1 565.4 480.8 558.9 482.3 557.8C483.8 556.8 489.4 559.3 488.4 567.3C488.4 567.3 500 554.6 502.3 552.7C504.6 550.8 514.7 537.8 515.7 537.4C516.7 537 522.6 533.6 521 540.8C519.4 548 513.3 552.6 512.4 554.3C511.5 555.9 507 560.5 506.3 561.3C505.7 562 504 564.8 504.2 565.5C504.3 566.3 506.1 567.6 509.2 568.1C512.2 568.6 512.1 573.8 512.3 573.9C512.5 574 516.1 576.1 516 579.7C515.8 583.4 521.5 589.1 518.7 592.5C515.9 595.9 511.2 598.7 508.8 603.3C506.4 607.9 498.6 610.8 498.6 610.8L493.5 619.6L470.9 608.3Z" fill="white" stroke="black" stroke-miterlimit="10" stroke-linecap="round" stroke-linejoin="round"/>
<path d="M512.4 590.8C511.4 592 511.2 592.4 510.7 593" stroke="black" stroke-miterlimit="10" stroke-linecap="round" stroke-linejoin="round"/>
<path d="M164.8 690.8C164.8 690.8 153.1 676.8 232.7 673C354.9 667.1 169.3 703.6 169.3 703.6L155 686.3" fill="#5A5A81"/>
<path d="M164.8 690.8C164.8 690.8 153.1 676.8 232.7 673C354.9 667.1 169.3 703.6 169.3 703.6L155 686.3" stroke="black" stroke-miterlimit="10" stroke-linecap="round" stroke-linejoin="round"/>
<path d="M195.1 644.2C195.1 644.2 198 687.4 185.5 706.1C185.5 706.1 225.6 725.4 251.2 702.1C251.2 702.1 231.1 666.8 235.2 644.2H195.1Z" fill="white" stroke="black" stroke-miterlimit="10" stroke-linecap="round" stroke-linejoin="round"/>
<path d="M228.9 674.7C228.9 674.7 230.8 679.6 231.5 682.6L228.9 674.7Z" fill="white"/>
<path d="M228.9 674.7C228.9 674.7 230.8 679.6 231.5 682.6" stroke="black" stroke-miterlimit="10" stroke-linecap="round" stroke-linejoin="round"/>
<path d="M504.6 646.001C499.4 609.401 485.3 603.401 474.7 594.601C470.8 591.401 465.1 592.101 462.1 596.101C411.5 666.201 257.7 672.601 257.7 672.601C199.4 708.301 181.5 678.801 181.5 678.801C181.5 678.801 95.3 701.401 83.2 715.001C71.1 728.701 70.1 959.801 70 970.701C69.9 981.601 129.4 982.201 132.2 970.601C135 959.101 140.9 812.201 140.9 812.201C147.6 860.201 139.5 964.701 151.2 982.101C162.8 999.601 348.6 982.601 348.6 982.601C348.6 982.601 351.1 967.601 344.2 914.701C337.3 861.801 322.7 744.201 322.7 744.201C353.8 737.301 504.6 646.001 504.6 646.001Z" fill="#39CFFE" stroke="black" stroke-miterlimit="10" stroke-linecap="round" stroke-linejoin="round"/>
<path d="M322.9 744.301C318.7 746.701 313.9 747.901 309.1 747.701L322.9 744.301Z" fill="#39CFFE"/>
<path d="M322.9 744.301C318.7 746.701 313.9 747.901 309.1 747.701" stroke="black" stroke-miterlimit="10" stroke-linecap="round" stroke-linejoin="round"/>
<path d="M320.9 750.001C319.6 753.501 317.2 756.501 314.2 758.601L320.9 750.001Z" fill="#39CFFE"/>
<path d="M320.9 750.001C319.6 753.501 317.2 756.501 314.2 758.601" stroke="black" stroke-miterlimit="10" stroke-linecap="round" stroke-linejoin="round"/>
<path d="M140.9 812.8C143.8 810.9 146.4 808.6 148.6 805.9L140.9 812.8Z" fill="#39CFFE"/>
<path d="M140.9 812.8C143.8 810.9 146.4 808.6 148.6 805.9" stroke="black" stroke-miterlimit="10" stroke-linecap="round" stroke-linejoin="round"/>
<path d="M312.7 879.4C309.8 896 303.6 912 294.6 926.3L312.7 879.4Z" fill="#39CFFE"/>
<path d="M312.7 879.4C309.8 896 303.6 912 294.6 926.3" stroke="black" stroke-miterlimit="10" stroke-linecap="round" stroke-linejoin="round"/>
<path d="M496.1 638.101C490.7 643.901 484.5 648.801 477.7 652.701L496.1 638.101Z" fill="#39CFFE"/>
<path d="M496.1 638.101C490.7 643.901 484.5 648.801 477.7 652.701" stroke="black" stroke-miterlimit="10" stroke-linecap="round" stroke-linejoin="round"/>
<path d="M251.2 607C251.2 607 247.8 621.3 243.6 625.4" stroke="black" stroke-miterlimit="10" stroke-linecap="round" stroke-linejoin="round"/>
<path d="M253.2 500.101C299 479.401 288.9 587.501 273 591.701C273 591.701 261.2 655.401 207.7 668.401C207.7 668.401 122 617.8 143.1 525.8C143.1 525.8 145.3 446.201 260.1 497" fill="#3A3A3A"/>
<path d="M253.2 500.101C299 479.401 288.9 587.501 273 591.701C273 591.701 261.2 655.401 207.7 668.401C207.7 668.401 122 617.8 143.1 525.8C143.1 525.8 145.3 446.201 260.1 497" stroke="black" stroke-miterlimit="10" stroke-linecap="round" stroke-linejoin="round"/>
<path d="M232.9 619.801C232.9 619.801 226 637.901 218.5 640.801" stroke="black" stroke-miterlimit="10" stroke-linecap="round" stroke-linejoin="round"/>
<path d="M243.5 564.801C243.5 564.801 236.9 593.701 223.9 603.501" stroke="black" stroke-miterlimit="10" stroke-linecap="round" stroke-linejoin="round"/>
</svg>
