<svg width="3040" height="804" viewBox="0 0 3040 804" fill="none" xmlns="http://www.w3.org/2000/svg">
<rect width="3040" height="804" fill="white"/>
<circle cx="149" cy="442" r="104" fill="white"/>
<circle cx="149" cy="442" r="102" stroke="black" stroke-opacity="0.2" stroke-width="4"/>
<path d="M148.991 466.023C145.082 466.008 141.719 465.045 138.901 463.136C136.098 461.227 133.938 458.462 132.423 454.841C130.923 451.22 130.181 446.864 130.196 441.773C130.196 436.697 130.946 432.371 132.446 428.795C133.961 425.22 136.12 422.5 138.923 420.636C141.741 418.758 145.098 417.818 148.991 417.818C152.885 417.818 156.234 418.758 159.037 420.636C161.855 422.515 164.022 425.242 165.537 428.818C167.052 432.379 167.802 436.697 167.787 441.773C167.787 446.879 167.029 451.242 165.514 454.864C164.014 458.485 161.863 461.25 159.06 463.159C156.257 465.068 152.901 466.023 148.991 466.023ZM148.991 457.864C151.658 457.864 153.787 456.523 155.378 453.841C156.969 451.159 157.757 447.136 157.741 441.773C157.741 438.242 157.378 435.303 156.651 432.955C155.938 430.606 154.923 428.841 153.605 427.659C152.302 426.477 150.764 425.886 148.991 425.886C146.34 425.886 144.219 427.212 142.628 429.864C141.037 432.515 140.234 436.485 140.219 441.773C140.219 445.348 140.575 448.333 141.287 450.727C142.014 453.106 143.037 454.894 144.355 456.091C145.673 457.273 147.219 457.864 148.991 457.864Z" fill="black" fill-opacity="0.8"/>
<circle cx="405" cy="442" r="104" fill="white"/>
<circle cx="405" cy="442" r="102" stroke="black" stroke-opacity="0.2" stroke-width="4"/>
<path d="M392.039 418.455V465H382.198V427.795H381.926L371.266 434.477V425.75L382.789 418.455H392.039ZM419.944 466.023C416.035 466.008 412.671 465.045 409.853 463.136C407.05 461.227 404.891 458.462 403.376 454.841C401.876 451.22 401.133 446.864 401.148 441.773C401.148 436.697 401.898 432.371 403.398 428.795C404.913 425.22 407.073 422.5 409.876 420.636C412.694 418.758 416.05 417.818 419.944 417.818C423.838 417.818 427.186 418.758 429.989 420.636C432.807 422.515 434.974 425.242 436.489 428.818C438.004 432.379 438.754 436.697 438.739 441.773C438.739 446.879 437.982 451.242 436.466 454.864C434.966 458.485 432.815 461.25 430.012 463.159C427.209 465.068 423.853 466.023 419.944 466.023ZM419.944 457.864C422.61 457.864 424.739 456.523 426.33 453.841C427.921 451.159 428.709 447.136 428.694 441.773C428.694 438.242 428.33 435.303 427.603 432.955C426.891 430.606 425.876 428.841 424.557 427.659C423.254 426.477 421.716 425.886 419.944 425.886C417.292 425.886 415.171 427.212 413.58 429.864C411.989 432.515 411.186 436.485 411.171 441.773C411.171 445.348 411.527 448.333 412.239 450.727C412.966 453.106 413.989 454.894 415.307 456.091C416.626 457.273 418.171 457.864 419.944 457.864Z" fill="black" fill-opacity="0.8"/>
<circle cx="661" cy="441" r="104" fill="white"/>
<circle cx="661" cy="441" r="102" stroke="black" stroke-opacity="0.2" stroke-width="4"/>
<path d="M623.289 464V456.909L639.857 441.568C641.266 440.205 642.448 438.977 643.403 437.886C644.373 436.795 645.107 435.727 645.607 434.682C646.107 433.621 646.357 432.477 646.357 431.25C646.357 429.886 646.047 428.712 645.426 427.727C644.804 426.727 643.956 425.962 642.88 425.432C641.804 424.886 640.585 424.614 639.221 424.614C637.797 424.614 636.554 424.902 635.494 425.477C634.433 426.053 633.615 426.879 633.039 427.955C632.463 429.03 632.176 430.311 632.176 431.795H622.835C622.835 428.75 623.524 426.106 624.903 423.864C626.282 421.621 628.213 419.886 630.698 418.659C633.183 417.432 636.047 416.818 639.289 416.818C642.623 416.818 645.524 417.409 647.994 418.591C650.479 419.758 652.41 421.379 653.789 423.455C655.168 425.53 655.857 427.909 655.857 430.591C655.857 432.348 655.509 434.083 654.812 435.795C654.13 437.508 652.91 439.409 651.153 441.5C649.395 443.576 646.918 446.068 643.721 448.977L636.926 455.636V455.955H656.471V464H623.289ZM680.444 465.023C676.535 465.008 673.171 464.045 670.353 462.136C667.55 460.227 665.391 457.462 663.876 453.841C662.376 450.22 661.633 445.864 661.648 440.773C661.648 435.697 662.398 431.371 663.898 427.795C665.413 424.22 667.573 421.5 670.376 419.636C673.194 417.758 676.55 416.818 680.444 416.818C684.338 416.818 687.686 417.758 690.489 419.636C693.307 421.515 695.474 424.242 696.989 427.818C698.504 431.379 699.254 435.697 699.239 440.773C699.239 445.879 698.482 450.242 696.966 453.864C695.466 457.485 693.315 460.25 690.512 462.159C687.709 464.068 684.353 465.023 680.444 465.023ZM680.444 456.864C683.11 456.864 685.239 455.523 686.83 452.841C688.421 450.159 689.209 446.136 689.194 440.773C689.194 437.242 688.83 434.303 688.103 431.955C687.391 429.606 686.376 427.841 685.057 426.659C683.754 425.477 682.216 424.886 680.444 424.886C677.792 424.886 675.671 426.212 674.08 428.864C672.489 431.515 671.686 435.485 671.671 440.773C671.671 444.348 672.027 447.333 672.739 449.727C673.466 452.106 674.489 453.894 675.807 455.091C677.126 456.273 678.671 456.864 680.444 456.864Z" fill="black" fill-opacity="0.8"/>
<circle cx="917" cy="441" r="104" fill="white"/>
<circle cx="917" cy="441" r="102" stroke="black" stroke-opacity="0.2" stroke-width="4"/>
<path d="M895.556 464.636C892.162 464.636 889.14 464.053 886.488 462.886C883.852 461.705 881.768 460.083 880.238 458.023C878.723 455.947 877.943 453.553 877.897 450.841H887.806C887.867 451.977 888.238 452.977 888.92 453.841C889.617 454.689 890.541 455.348 891.693 455.818C892.844 456.288 894.14 456.523 895.579 456.523C897.079 456.523 898.405 456.258 899.556 455.727C900.708 455.197 901.609 454.462 902.261 453.523C902.912 452.583 903.238 451.5 903.238 450.273C903.238 449.03 902.89 447.932 902.193 446.977C901.511 446.008 900.526 445.25 899.238 444.705C897.965 444.159 896.45 443.886 894.693 443.886H890.352V436.659H894.693C896.177 436.659 897.488 436.402 898.624 435.886C899.776 435.371 900.67 434.659 901.306 433.75C901.943 432.826 902.261 431.75 902.261 430.523C902.261 429.356 901.981 428.333 901.42 427.455C900.874 426.561 900.102 425.864 899.102 425.364C898.117 424.864 896.965 424.614 895.647 424.614C894.314 424.614 893.094 424.856 891.988 425.341C890.882 425.811 889.996 426.485 889.329 427.364C888.662 428.242 888.306 429.273 888.261 430.455H878.829C878.874 427.773 879.64 425.409 881.124 423.364C882.609 421.318 884.609 419.72 887.124 418.568C889.655 417.402 892.511 416.818 895.693 416.818C898.905 416.818 901.715 417.402 904.124 418.568C906.534 419.735 908.405 421.311 909.738 423.295C911.087 425.265 911.753 427.477 911.738 429.932C911.753 432.538 910.943 434.712 909.306 436.455C907.685 438.197 905.571 439.303 902.965 439.773V440.136C906.39 440.576 908.996 441.765 910.784 443.705C912.587 445.629 913.481 448.038 913.465 450.932C913.481 453.583 912.715 455.939 911.17 458C909.64 460.061 907.526 461.682 904.829 462.864C902.132 464.045 899.041 464.636 895.556 464.636ZM937.381 465.023C933.472 465.008 930.108 464.045 927.29 462.136C924.487 460.227 922.328 457.462 920.813 453.841C919.313 450.22 918.571 445.864 918.586 440.773C918.586 435.697 919.336 431.371 920.836 427.795C922.351 424.22 924.51 421.5 927.313 419.636C930.131 417.758 933.487 416.818 937.381 416.818C941.275 416.818 944.624 417.758 947.427 419.636C950.245 421.515 952.412 424.242 953.927 427.818C955.442 431.379 956.192 435.697 956.177 440.773C956.177 445.879 955.419 450.242 953.904 453.864C952.404 457.485 950.252 460.25 947.449 462.159C944.646 464.068 941.29 465.023 937.381 465.023ZM937.381 456.864C940.048 456.864 942.177 455.523 943.768 452.841C945.358 450.159 946.146 446.136 946.131 440.773C946.131 437.242 945.768 434.303 945.04 431.955C944.328 429.606 943.313 427.841 941.995 426.659C940.692 425.477 939.154 424.886 937.381 424.886C934.73 424.886 932.608 426.212 931.018 428.864C929.427 431.515 928.624 435.485 928.608 440.773C928.608 444.348 928.965 447.333 929.677 449.727C930.404 452.106 931.427 453.894 932.745 455.091C934.063 456.273 935.608 456.864 937.381 456.864Z" fill="black" fill-opacity="0.8"/>
<circle cx="1173" cy="441" r="104" fill="white"/>
<circle cx="1173" cy="441" r="102" stroke="black" stroke-opacity="0.2" stroke-width="4"/>
<path d="M1133.05 455.818V448.068L1152.49 417.455H1159.17V428.182H1155.21L1142.96 447.568V447.932H1170.58V455.818H1133.05ZM1155.39 464V453.455L1155.58 450.023V417.455H1164.8V464H1155.39ZM1193.97 465.023C1190.07 465.008 1186.7 464.045 1183.88 462.136C1181.08 460.227 1178.92 457.462 1177.41 453.841C1175.91 450.22 1175.16 445.864 1175.18 440.773C1175.18 435.697 1175.93 431.371 1177.43 427.795C1178.94 424.22 1181.1 421.5 1183.91 419.636C1186.72 417.758 1190.08 416.818 1193.97 416.818C1197.87 416.818 1201.22 417.758 1204.02 419.636C1206.84 421.515 1209.01 424.242 1210.52 427.818C1212.04 431.379 1212.79 435.697 1212.77 440.773C1212.77 445.879 1212.01 450.242 1210.5 453.864C1209 457.485 1206.85 460.25 1204.04 462.159C1201.24 464.068 1197.88 465.023 1193.97 465.023ZM1193.97 456.864C1196.64 456.864 1198.77 455.523 1200.36 452.841C1201.95 450.159 1202.74 446.136 1202.72 440.773C1202.72 437.242 1202.36 434.303 1201.63 431.955C1200.92 429.606 1199.91 427.841 1198.59 426.659C1197.29 425.477 1195.75 424.886 1193.97 424.886C1191.32 424.886 1189.2 426.212 1187.61 428.864C1186.02 431.515 1185.22 435.485 1185.2 440.773C1185.2 444.348 1185.56 447.333 1186.27 449.727C1187 452.106 1188.02 453.894 1189.34 455.091C1190.66 456.273 1192.2 456.864 1193.97 456.864Z" fill="black" fill-opacity="0.8"/>
<circle cx="1429" cy="441" r="104" fill="white"/>
<circle cx="1429" cy="441" r="102" stroke="black" stroke-opacity="0.2" stroke-width="4"/>
<path d="M1407.82 464.636C1404.61 464.636 1401.74 464.045 1399.23 462.864C1396.73 461.682 1394.74 460.053 1393.28 457.977C1391.81 455.902 1391.04 453.523 1390.98 450.841H1400.53C1400.63 452.644 1401.39 454.106 1402.8 455.227C1404.21 456.348 1405.88 456.909 1407.82 456.909C1409.37 456.909 1410.73 456.568 1411.91 455.886C1413.11 455.189 1414.04 454.227 1414.71 453C1415.39 451.758 1415.73 450.333 1415.73 448.727C1415.73 447.091 1415.38 445.652 1414.68 444.409C1414 443.167 1413.06 442.197 1411.84 441.5C1410.63 440.803 1409.24 440.447 1407.68 440.432C1406.32 440.432 1404.99 440.712 1403.71 441.273C1402.43 441.833 1401.44 442.598 1400.73 443.568L1391.98 442L1394.18 417.455H1422.64V425.5H1402.3L1401.09 437.159H1401.37C1402.18 436.008 1403.42 435.053 1405.07 434.295C1406.72 433.538 1408.57 433.159 1410.62 433.159C1413.42 433.159 1415.92 433.818 1418.12 435.136C1420.31 436.455 1422.05 438.265 1423.32 440.568C1424.59 442.856 1425.22 445.492 1425.21 448.477C1425.22 451.614 1424.49 454.402 1423.03 456.841C1421.57 459.265 1419.53 461.174 1416.91 462.568C1414.31 463.947 1411.28 464.636 1407.82 464.636ZM1448.91 465.023C1445 465.008 1441.64 464.045 1438.82 462.136C1436.02 460.227 1433.86 457.462 1432.34 453.841C1430.84 450.22 1430.1 445.864 1430.12 440.773C1430.12 435.697 1430.87 431.371 1432.37 427.795C1433.88 424.22 1436.04 421.5 1438.84 419.636C1441.66 417.758 1445.02 416.818 1448.91 416.818C1452.81 416.818 1456.15 417.758 1458.96 419.636C1461.78 421.515 1463.94 424.242 1465.46 427.818C1466.97 431.379 1467.72 435.697 1467.71 440.773C1467.71 445.879 1466.95 450.242 1465.44 453.864C1463.94 457.485 1461.78 460.25 1458.98 462.159C1456.18 464.068 1452.82 465.023 1448.91 465.023ZM1448.91 456.864C1451.58 456.864 1453.71 455.523 1455.3 452.841C1456.89 450.159 1457.68 446.136 1457.66 440.773C1457.66 437.242 1457.3 434.303 1456.57 431.955C1455.86 429.606 1454.84 427.841 1453.53 426.659C1452.22 425.477 1450.69 424.886 1448.91 424.886C1446.26 424.886 1444.14 426.212 1442.55 428.864C1440.96 431.515 1440.15 435.485 1440.14 440.773C1440.14 444.348 1440.5 447.333 1441.21 449.727C1441.94 452.106 1442.96 453.894 1444.28 455.091C1445.59 456.273 1447.14 456.864 1448.91 456.864Z" fill="black" fill-opacity="0.8"/>
<circle cx="1685" cy="441" r="104" fill="white"/>
<circle cx="1685" cy="441" r="102" stroke="black" stroke-opacity="0.2" stroke-width="4"/>
<path d="M1664.18 464.636C1661.79 464.621 1659.48 464.22 1657.25 463.432C1655.04 462.644 1653.06 461.364 1651.3 459.591C1649.54 457.818 1648.15 455.47 1647.12 452.545C1646.1 449.621 1645.59 446.03 1645.59 441.773C1645.61 437.864 1646.06 434.371 1646.93 431.295C1647.83 428.205 1649.1 425.583 1650.75 423.432C1652.42 421.28 1654.41 419.644 1656.73 418.523C1659.05 417.386 1661.65 416.818 1664.53 416.818C1667.63 416.818 1670.37 417.424 1672.75 418.636C1675.13 419.833 1677.04 421.462 1678.48 423.523C1679.93 425.583 1680.81 427.894 1681.12 430.455H1671.41C1671.03 428.833 1670.24 427.561 1669.03 426.636C1667.81 425.712 1666.31 425.25 1664.53 425.25C1661.49 425.25 1659.19 426.568 1657.62 429.205C1656.06 431.841 1655.26 435.424 1655.23 439.955H1655.55C1656.24 438.576 1657.18 437.402 1658.37 436.432C1659.56 435.447 1660.92 434.697 1662.43 434.182C1663.96 433.652 1665.58 433.386 1667.28 433.386C1670.03 433.386 1672.49 434.038 1674.64 435.341C1676.79 436.629 1678.49 438.402 1679.73 440.659C1680.97 442.917 1681.59 445.5 1681.59 448.409C1681.59 451.561 1680.86 454.364 1679.39 456.818C1677.93 459.273 1675.9 461.197 1673.28 462.591C1670.67 463.97 1667.64 464.652 1664.18 464.636ZM1664.14 456.909C1665.65 456.909 1667.01 456.545 1668.21 455.818C1669.4 455.091 1670.34 454.106 1671.03 452.864C1671.71 451.621 1672.05 450.227 1672.05 448.682C1672.05 447.136 1671.71 445.75 1671.03 444.523C1670.36 443.295 1669.43 442.318 1668.25 441.591C1667.07 440.864 1665.72 440.5 1664.21 440.5C1663.07 440.5 1662.02 440.712 1661.05 441.136C1660.09 441.561 1659.25 442.152 1658.53 442.909C1657.81 443.667 1657.25 444.545 1656.84 445.545C1656.43 446.53 1656.23 447.583 1656.23 448.705C1656.23 450.205 1656.57 451.576 1657.25 452.818C1657.95 454.061 1658.89 455.053 1660.07 455.795C1661.27 456.538 1662.62 456.909 1664.14 456.909ZM1705.41 465.023C1701.5 465.008 1698.14 464.045 1695.32 462.136C1692.52 460.227 1690.36 457.462 1688.84 453.841C1687.34 450.22 1686.6 445.864 1686.62 440.773C1686.62 435.697 1687.37 431.371 1688.87 427.795C1690.38 424.22 1692.54 421.5 1695.34 419.636C1698.16 417.758 1701.52 416.818 1705.41 416.818C1709.31 416.818 1712.65 417.758 1715.46 419.636C1718.28 421.515 1720.44 424.242 1721.96 427.818C1723.47 431.379 1724.22 435.697 1724.21 440.773C1724.21 445.879 1723.45 450.242 1721.94 453.864C1720.44 457.485 1718.28 460.25 1715.48 462.159C1712.68 464.068 1709.32 465.023 1705.41 465.023ZM1705.41 456.864C1708.08 456.864 1710.21 455.523 1711.8 452.841C1713.39 450.159 1714.18 446.136 1714.16 440.773C1714.16 437.242 1713.8 434.303 1713.07 431.955C1712.36 429.606 1711.34 427.841 1710.03 426.659C1708.72 425.477 1707.19 424.886 1705.41 424.886C1702.76 424.886 1700.64 426.212 1699.05 428.864C1697.46 431.515 1696.65 435.485 1696.64 440.773C1696.64 444.348 1697 447.333 1697.71 449.727C1698.44 452.106 1699.46 453.894 1700.78 455.091C1702.09 456.273 1703.64 456.864 1705.41 456.864Z" fill="black" fill-opacity="0.8"/>
<circle cx="1941" cy="441" r="104" fill="white"/>
<circle cx="1941" cy="441" r="102" stroke="black" stroke-opacity="0.2" stroke-width="4"/>
<path d="M1906.76 464L1926.05 425.818V425.5H1903.57V417.455H1936.23V425.614L1916.91 464H1906.76ZM1958.82 465.023C1954.91 465.008 1951.55 464.045 1948.73 462.136C1945.92 460.227 1943.77 457.462 1942.25 453.841C1940.75 450.22 1940.01 445.864 1940.02 440.773C1940.02 435.697 1940.77 431.371 1942.27 427.795C1943.79 424.22 1945.95 421.5 1948.75 419.636C1951.57 417.758 1954.92 416.818 1958.82 416.818C1962.71 416.818 1966.06 417.758 1968.86 419.636C1971.68 421.515 1973.85 424.242 1975.36 427.818C1976.88 431.379 1977.63 435.697 1977.61 440.773C1977.61 445.879 1976.86 450.242 1975.34 453.864C1973.84 457.485 1971.69 460.25 1968.89 462.159C1966.08 464.068 1962.73 465.023 1958.82 465.023ZM1958.82 456.864C1961.49 456.864 1963.61 455.523 1965.21 452.841C1966.8 450.159 1967.58 446.136 1967.57 440.773C1967.57 437.242 1967.21 434.303 1966.48 431.955C1965.77 429.606 1964.75 427.841 1963.43 426.659C1962.13 425.477 1960.59 424.886 1958.82 424.886C1956.17 424.886 1954.05 426.212 1952.46 428.864C1950.86 431.515 1950.06 435.485 1950.05 440.773C1950.05 444.348 1950.4 447.333 1951.11 449.727C1951.84 452.106 1952.86 453.894 1954.18 455.091C1955.5 456.273 1957.05 456.864 1958.82 456.864Z" fill="black" fill-opacity="0.8"/>
<circle cx="2197" cy="441" r="104" fill="white"/>
<circle cx="2197" cy="441" r="102" stroke="black" stroke-opacity="0.2" stroke-width="4"/>
<path d="M2175.65 464.636C2172.15 464.636 2169.04 464.068 2166.31 462.932C2163.6 461.78 2161.47 460.212 2159.93 458.227C2158.38 456.242 2157.61 453.992 2157.61 451.477C2157.61 449.538 2158.05 447.758 2158.93 446.136C2159.82 444.5 2161.03 443.144 2162.56 442.068C2164.09 440.977 2165.8 440.28 2167.7 439.977V439.659C2165.21 439.159 2163.2 437.955 2161.65 436.045C2160.11 434.121 2159.33 431.886 2159.33 429.341C2159.33 426.932 2160.04 424.788 2161.45 422.909C2162.86 421.015 2164.79 419.53 2167.24 418.455C2169.71 417.364 2172.52 416.818 2175.65 416.818C2178.79 416.818 2181.58 417.364 2184.04 418.455C2186.51 419.545 2188.45 421.038 2189.86 422.932C2191.27 424.811 2191.98 426.947 2191.99 429.341C2191.98 431.902 2191.19 434.136 2189.63 436.045C2188.07 437.955 2186.07 439.159 2183.63 439.659V439.977C2185.49 440.28 2187.18 440.977 2188.7 442.068C2190.23 443.144 2191.44 444.5 2192.33 446.136C2193.24 447.758 2193.71 449.538 2193.72 451.477C2193.71 453.992 2192.93 456.242 2191.38 458.227C2189.83 460.212 2187.7 461.78 2184.97 462.932C2182.26 464.068 2179.15 464.636 2175.65 464.636ZM2175.65 457.409C2177.21 457.409 2178.58 457.129 2179.74 456.568C2180.91 455.992 2181.82 455.205 2182.47 454.205C2183.14 453.189 2183.47 452.023 2183.47 450.705C2183.47 449.356 2183.13 448.167 2182.45 447.136C2181.77 446.091 2180.84 445.273 2179.68 444.682C2178.51 444.076 2177.17 443.773 2175.65 443.773C2174.15 443.773 2172.81 444.076 2171.63 444.682C2170.45 445.273 2169.52 446.091 2168.83 447.136C2168.17 448.167 2167.83 449.356 2167.83 450.705C2167.83 452.023 2168.16 453.189 2168.81 454.205C2169.46 455.205 2170.38 455.992 2171.56 456.568C2172.74 457.129 2174.11 457.409 2175.65 457.409ZM2175.65 436.614C2176.96 436.614 2178.11 436.348 2179.13 435.818C2180.15 435.288 2180.94 434.553 2181.52 433.614C2182.09 432.674 2182.38 431.591 2182.38 430.364C2182.38 429.152 2182.09 428.091 2181.52 427.182C2180.94 426.258 2180.15 425.538 2179.15 425.023C2178.15 424.492 2176.99 424.227 2175.65 424.227C2174.33 424.227 2173.17 424.492 2172.15 425.023C2171.14 425.538 2170.34 426.258 2169.77 427.182C2169.21 428.091 2168.93 429.152 2168.93 430.364C2168.93 431.591 2169.21 432.674 2169.79 433.614C2170.36 434.553 2171.16 435.288 2172.18 435.818C2173.19 436.348 2174.35 436.614 2175.65 436.614ZM2217.44 465.023C2213.53 465.008 2210.17 464.045 2207.35 462.136C2204.55 460.227 2202.39 457.462 2200.88 453.841C2199.38 450.22 2198.63 445.864 2198.65 440.773C2198.65 435.697 2199.4 431.371 2200.9 427.795C2202.41 424.22 2204.57 421.5 2207.38 419.636C2210.19 417.758 2213.55 416.818 2217.44 416.818C2221.34 416.818 2224.69 417.758 2227.49 419.636C2230.31 421.515 2232.47 424.242 2233.99 427.818C2235.5 431.379 2236.25 435.697 2236.24 440.773C2236.24 445.879 2235.48 450.242 2233.97 453.864C2232.47 457.485 2230.31 460.25 2227.51 462.159C2224.71 464.068 2221.35 465.023 2217.44 465.023ZM2217.44 456.864C2220.11 456.864 2222.24 455.523 2223.83 452.841C2225.42 450.159 2226.21 446.136 2226.19 440.773C2226.19 437.242 2225.83 434.303 2225.1 431.955C2224.39 429.606 2223.38 427.841 2222.06 426.659C2220.75 425.477 2219.22 424.886 2217.44 424.886C2214.79 424.886 2212.67 426.212 2211.08 428.864C2209.49 431.515 2208.69 435.485 2208.67 440.773C2208.67 444.348 2209.03 447.333 2209.74 449.727C2210.47 452.106 2211.49 453.894 2212.81 455.091C2214.13 456.273 2215.67 456.864 2217.44 456.864Z" fill="black" fill-opacity="0.8"/>
<circle cx="2453" cy="441" r="104" fill="white"/>
<circle cx="2453" cy="441" r="102" stroke="black" stroke-opacity="0.2" stroke-width="4"/>
<path d="M2431.16 416.818C2433.56 416.818 2435.86 417.22 2438.07 418.023C2440.3 418.826 2442.28 420.106 2444.03 421.864C2445.78 423.621 2447.17 425.955 2448.18 428.864C2449.21 431.758 2449.74 435.311 2449.75 439.523C2449.75 443.477 2449.31 447.008 2448.41 450.114C2447.53 453.205 2446.27 455.833 2444.62 458C2442.96 460.167 2440.97 461.818 2438.64 462.955C2436.31 464.076 2433.7 464.636 2430.82 464.636C2427.71 464.636 2424.97 464.038 2422.59 462.841C2420.21 461.629 2418.3 459.985 2416.84 457.909C2415.4 455.818 2414.53 453.47 2414.23 450.864H2423.93C2424.31 452.561 2425.11 453.879 2426.32 454.818C2427.53 455.742 2429.03 456.205 2430.82 456.205C2433.85 456.205 2436.15 454.886 2437.73 452.25C2439.31 449.598 2440.1 445.97 2440.12 441.364H2439.8C2439.1 442.727 2438.16 443.902 2436.98 444.886C2435.8 445.856 2434.44 446.606 2432.91 447.136C2431.4 447.667 2429.78 447.932 2428.07 447.932C2425.33 447.932 2422.88 447.288 2420.73 446C2418.58 444.712 2416.88 442.939 2415.64 440.682C2414.4 438.424 2413.78 435.848 2413.78 432.955C2413.76 429.833 2414.48 427.053 2415.93 424.614C2417.39 422.174 2419.42 420.265 2422.03 418.886C2424.65 417.492 2427.69 416.803 2431.16 416.818ZM2431.23 424.545C2429.7 424.545 2428.34 424.909 2427.14 425.636C2425.96 426.364 2425.02 427.341 2424.32 428.568C2423.64 429.795 2423.31 431.167 2423.32 432.682C2423.32 434.212 2423.65 435.591 2424.32 436.818C2425 438.03 2425.93 439 2427.09 439.727C2428.28 440.439 2429.62 440.795 2431.14 440.795C2432.28 440.795 2433.33 440.583 2434.3 440.159C2435.27 439.735 2436.11 439.152 2436.82 438.409C2437.55 437.652 2438.12 436.78 2438.53 435.795C2438.93 434.811 2439.14 433.765 2439.14 432.659C2439.12 431.189 2438.78 429.841 2438.09 428.614C2437.41 427.386 2436.47 426.402 2435.28 425.659C2434.08 424.917 2432.73 424.545 2431.23 424.545ZM2473.41 465.023C2469.5 465.008 2466.14 464.045 2463.32 462.136C2460.52 460.227 2458.36 457.462 2456.84 453.841C2455.34 450.22 2454.6 445.864 2454.62 440.773C2454.62 435.697 2455.37 431.371 2456.87 427.795C2458.38 424.22 2460.54 421.5 2463.34 419.636C2466.16 417.758 2469.52 416.818 2473.41 416.818C2477.31 416.818 2480.65 417.758 2483.46 419.636C2486.28 421.515 2488.44 424.242 2489.96 427.818C2491.47 431.379 2492.22 435.697 2492.21 440.773C2492.21 445.879 2491.45 450.242 2489.94 453.864C2488.44 457.485 2486.28 460.25 2483.48 462.159C2480.68 464.068 2477.32 465.023 2473.41 465.023ZM2473.41 456.864C2476.08 456.864 2478.21 455.523 2479.8 452.841C2481.39 450.159 2482.18 446.136 2482.16 440.773C2482.16 437.242 2481.8 434.303 2481.07 431.955C2480.36 429.606 2479.34 427.841 2478.03 426.659C2476.72 425.477 2475.19 424.886 2473.41 424.886C2470.76 424.886 2468.64 426.212 2467.05 428.864C2465.46 431.515 2464.65 435.485 2464.64 440.773C2464.64 444.348 2465 447.333 2465.71 449.727C2466.44 452.106 2467.46 453.894 2468.78 455.091C2470.09 456.273 2471.64 456.864 2473.41 456.864Z" fill="black" fill-opacity="0.8"/>
<circle cx="2709" cy="441" r="104" fill="white"/>
<circle cx="2709" cy="441" r="102" stroke="black" stroke-opacity="0.2" stroke-width="4"/>
<path d="M2674.71 417.455V464H2664.87V426.795H2664.6L2653.94 433.477V424.75L2665.46 417.455H2674.71ZM2702.62 465.023C2698.71 465.008 2695.34 464.045 2692.53 462.136C2689.72 460.227 2687.56 457.462 2686.05 453.841C2684.55 450.22 2683.81 445.864 2683.82 440.773C2683.82 435.697 2684.57 431.371 2686.07 427.795C2687.59 424.22 2689.75 421.5 2692.55 419.636C2695.37 417.758 2698.72 416.818 2702.62 416.818C2706.51 416.818 2709.86 417.758 2712.66 419.636C2715.48 421.515 2717.65 424.242 2719.16 427.818C2720.68 431.379 2721.43 435.697 2721.41 440.773C2721.41 445.879 2720.65 450.242 2719.14 453.864C2717.64 457.485 2715.49 460.25 2712.68 462.159C2709.88 464.068 2706.53 465.023 2702.62 465.023ZM2702.62 456.864C2705.28 456.864 2707.41 455.523 2709 452.841C2710.59 450.159 2711.38 446.136 2711.37 440.773C2711.37 437.242 2711 434.303 2710.28 431.955C2709.56 429.606 2708.55 427.841 2707.23 426.659C2705.93 425.477 2704.39 424.886 2702.62 424.886C2699.96 424.886 2697.84 426.212 2696.25 428.864C2694.66 431.515 2693.86 435.485 2693.84 440.773C2693.84 444.348 2694.2 447.333 2694.91 449.727C2695.64 452.106 2696.66 453.894 2697.98 455.091C2699.3 456.273 2700.84 456.864 2702.62 456.864ZM2745.27 465.023C2741.36 465.008 2738 464.045 2735.18 462.136C2732.38 460.227 2730.22 457.462 2728.7 453.841C2727.2 450.22 2726.46 445.864 2726.48 440.773C2726.48 435.697 2727.23 431.371 2728.73 427.795C2730.24 424.22 2732.4 421.5 2735.2 419.636C2738.02 417.758 2741.38 416.818 2745.27 416.818C2749.16 416.818 2752.51 417.758 2755.32 419.636C2758.13 421.515 2760.3 424.242 2761.82 427.818C2763.33 431.379 2764.08 435.697 2764.07 440.773C2764.07 445.879 2763.31 450.242 2761.79 453.864C2760.29 457.485 2758.14 460.25 2755.34 462.159C2752.54 464.068 2749.18 465.023 2745.27 465.023ZM2745.27 456.864C2747.94 456.864 2750.07 455.523 2751.66 452.841C2753.25 450.159 2754.04 446.136 2754.02 440.773C2754.02 437.242 2753.66 434.303 2752.93 431.955C2752.22 429.606 2751.2 427.841 2749.88 426.659C2748.58 425.477 2747.04 424.886 2745.27 424.886C2742.62 424.886 2740.5 426.212 2738.91 428.864C2737.32 431.515 2736.51 435.485 2736.5 440.773C2736.5 444.348 2736.85 447.333 2737.57 449.727C2738.29 452.106 2739.32 453.894 2740.63 455.091C2741.95 456.273 2743.5 456.864 2745.27 456.864Z" fill="black" fill-opacity="0.8"/>
<path d="M1006.32 763.273V728.364H1020.09C1022.74 728.364 1024.99 728.87 1026.86 729.881C1028.72 730.881 1030.14 732.273 1031.12 734.057C1032.11 735.83 1032.6 737.875 1032.6 740.193C1032.6 742.512 1032.1 744.557 1031.1 746.33C1030.1 748.102 1028.65 749.483 1026.75 750.472C1024.87 751.46 1022.58 751.955 1019.9 751.955H1011.12V746.04H1018.71C1020.13 746.04 1021.3 745.796 1022.22 745.307C1023.15 744.807 1023.84 744.12 1024.3 743.245C1024.77 742.358 1025 741.341 1025 740.193C1025 739.034 1024.77 738.023 1024.3 737.159C1023.84 736.284 1023.15 735.608 1022.22 735.131C1021.29 734.642 1020.11 734.398 1018.67 734.398H1013.7V763.273H1006.32ZM1047.75 763.784C1045.11 763.784 1042.82 763.222 1040.88 762.097C1038.96 760.96 1037.48 759.381 1036.44 757.358C1035.39 755.324 1034.87 752.966 1034.87 750.284C1034.87 747.58 1035.39 745.216 1036.44 743.193C1037.48 741.159 1038.96 739.58 1040.88 738.455C1042.82 737.318 1045.11 736.75 1047.75 736.75C1050.4 736.75 1052.69 737.318 1054.61 738.455C1056.54 739.58 1058.03 741.159 1059.07 743.193C1060.12 745.216 1060.64 747.58 1060.64 750.284C1060.64 752.966 1060.12 755.324 1059.07 757.358C1058.03 759.381 1056.54 760.96 1054.61 762.097C1052.69 763.222 1050.4 763.784 1047.75 763.784ZM1047.79 758.159C1048.99 758.159 1050 757.818 1050.8 757.137C1051.61 756.443 1052.22 755.5 1052.63 754.307C1053.05 753.114 1053.26 751.756 1053.26 750.233C1053.26 748.71 1053.05 747.352 1052.63 746.159C1052.22 744.966 1051.61 744.023 1050.8 743.33C1050 742.637 1048.99 742.29 1047.79 742.29C1046.57 742.29 1045.55 742.637 1044.72 743.33C1043.9 744.023 1043.28 744.966 1042.86 746.159C1042.45 747.352 1042.25 748.71 1042.25 750.233C1042.25 751.756 1042.45 753.114 1042.86 754.307C1043.28 755.5 1043.9 756.443 1044.72 757.137C1045.55 757.818 1046.57 758.159 1047.79 758.159ZM1076.28 763.784C1073.63 763.784 1071.34 763.222 1069.41 762.097C1067.49 760.96 1066.01 759.381 1064.96 757.358C1063.92 755.324 1063.39 752.966 1063.39 750.284C1063.39 747.58 1063.92 745.216 1064.96 743.193C1066.01 741.159 1067.49 739.58 1069.41 738.455C1071.34 737.318 1073.63 736.75 1076.28 736.75C1078.93 736.75 1081.21 737.318 1083.13 738.455C1085.06 739.58 1086.55 741.159 1087.6 743.193C1088.64 745.216 1089.17 747.58 1089.17 750.284C1089.17 752.966 1088.64 755.324 1087.6 757.358C1086.55 759.381 1085.06 760.96 1083.13 762.097C1081.21 763.222 1078.93 763.784 1076.28 763.784ZM1076.31 758.159C1077.52 758.159 1078.52 757.818 1079.33 757.137C1080.14 756.443 1080.74 755.5 1081.15 754.307C1081.57 753.114 1081.78 751.756 1081.78 750.233C1081.78 748.71 1081.57 747.352 1081.15 746.159C1080.74 744.966 1080.14 744.023 1079.33 743.33C1078.52 742.637 1077.52 742.29 1076.31 742.29C1075.1 742.29 1074.07 742.637 1073.24 743.33C1072.43 744.023 1071.81 744.966 1071.39 746.159C1070.98 747.352 1070.77 748.71 1070.77 750.233C1070.77 751.756 1070.98 753.114 1071.39 754.307C1071.81 755.5 1072.43 756.443 1073.24 757.137C1074.07 757.818 1075.1 758.159 1076.31 758.159ZM1092.98 763.273V737.091H1100.01V741.659H1100.29C1100.76 740.034 1101.57 738.807 1102.69 737.977C1103.82 737.137 1105.11 736.716 1106.58 736.716C1106.94 736.716 1107.33 736.739 1107.75 736.784C1108.17 736.83 1108.54 736.892 1108.86 736.972V743.415C1108.52 743.313 1108.05 743.222 1107.45 743.142C1106.84 743.063 1106.29 743.023 1105.79 743.023C1104.73 743.023 1103.77 743.256 1102.93 743.722C1102.1 744.176 1101.44 744.813 1100.95 745.631C1100.48 746.449 1100.24 747.392 1100.24 748.46V763.273H1092.98Z" fill="#1E1E1E"/>
<path d="M579.115 763.273L569.126 728.364H577.189L582.967 752.62H583.257L589.632 728.364H596.535L602.893 752.671H603.2L608.978 728.364H617.041L607.052 763.273H599.859L593.211 740.449H592.939L586.308 763.273H579.115ZM628.96 763.784C626.312 763.784 624.022 763.222 622.091 762.097C620.17 760.96 618.687 759.381 617.642 757.358C616.596 755.324 616.074 752.966 616.074 750.284C616.074 747.58 616.596 745.216 617.642 743.193C618.687 741.159 620.17 739.58 622.091 738.455C624.022 737.318 626.312 736.75 628.96 736.75C631.608 736.75 633.892 737.318 635.812 738.455C637.744 739.58 639.233 741.159 640.278 743.193C641.324 745.216 641.846 747.58 641.846 750.284C641.846 752.966 641.324 755.324 640.278 757.358C639.233 759.381 637.744 760.96 635.812 762.097C633.892 763.222 631.608 763.784 628.96 763.784ZM628.994 758.159C630.199 758.159 631.204 757.818 632.011 757.137C632.818 756.443 633.426 755.5 633.835 754.307C634.255 753.114 634.466 751.756 634.466 750.233C634.466 748.71 634.255 747.352 633.835 746.159C633.426 744.966 632.818 744.023 632.011 743.33C631.204 742.637 630.199 742.29 628.994 742.29C627.778 742.29 626.755 742.637 625.926 743.33C625.108 744.023 624.488 744.966 624.068 746.159C623.659 747.352 623.454 748.71 623.454 750.233C623.454 751.756 623.659 753.114 624.068 754.307C624.488 755.5 625.108 756.443 625.926 757.137C626.755 757.818 627.778 758.159 628.994 758.159ZM645.656 763.273V737.091H652.696V741.659H652.968C653.446 740.034 654.247 738.807 655.372 737.977C656.497 737.137 657.792 736.716 659.258 736.716C659.622 736.716 660.014 736.739 660.434 736.784C660.855 736.83 661.224 736.892 661.542 736.972V743.415C661.201 743.313 660.73 743.222 660.128 743.142C659.525 743.063 658.974 743.023 658.474 743.023C657.406 743.023 656.451 743.256 655.61 743.722C654.781 744.176 654.122 744.813 653.633 745.631C653.156 746.449 652.917 747.392 652.917 748.46V763.273H645.656ZM686.169 744.557L679.521 744.966C679.407 744.398 679.163 743.887 678.788 743.432C678.413 742.966 677.919 742.597 677.305 742.324C676.703 742.04 675.981 741.898 675.14 741.898C674.015 741.898 673.066 742.137 672.294 742.614C671.521 743.08 671.135 743.705 671.135 744.489C671.135 745.114 671.385 745.642 671.885 746.074C672.385 746.506 673.242 746.852 674.458 747.114L679.197 748.068C681.742 748.591 683.64 749.432 684.89 750.591C686.14 751.75 686.765 753.273 686.765 755.159C686.765 756.875 686.26 758.381 685.248 759.676C684.248 760.972 682.873 761.983 681.123 762.71C679.385 763.426 677.379 763.784 675.106 763.784C671.64 763.784 668.879 763.063 666.822 761.62C664.777 760.165 663.578 758.188 663.225 755.688L670.367 755.313C670.583 756.37 671.106 757.176 671.936 757.733C672.765 758.279 673.828 758.551 675.123 758.551C676.396 758.551 677.419 758.307 678.191 757.818C678.975 757.318 679.373 756.676 679.385 755.892C679.373 755.233 679.095 754.693 678.549 754.273C678.004 753.841 677.163 753.512 676.027 753.284L671.492 752.381C668.936 751.87 667.032 750.983 665.782 749.722C664.544 748.46 663.924 746.852 663.924 744.898C663.924 743.216 664.379 741.767 665.288 740.551C666.208 739.335 667.498 738.398 669.157 737.739C670.828 737.08 672.782 736.75 675.021 736.75C678.328 736.75 680.93 737.449 682.828 738.847C684.737 740.245 685.85 742.148 686.169 744.557ZM704.352 737.091V742.546H688.585V737.091H704.352ZM692.164 730.818H699.426V755.227C699.426 755.898 699.528 756.421 699.732 756.796C699.937 757.159 700.221 757.415 700.585 757.563C700.96 757.71 701.392 757.784 701.88 757.784C702.221 757.784 702.562 757.756 702.903 757.699C703.244 757.631 703.505 757.58 703.687 757.546L704.829 762.949C704.465 763.063 703.954 763.193 703.295 763.341C702.636 763.5 701.835 763.597 700.892 763.631C699.142 763.699 697.607 763.466 696.289 762.932C694.982 762.398 693.965 761.568 693.238 760.443C692.511 759.318 692.153 757.898 692.164 756.182V730.818ZM725.884 728.364V763.273H718.504V728.364H725.884ZM730.908 763.273V737.091H737.829V741.71H738.136C738.681 740.176 739.59 738.966 740.863 738.08C742.136 737.193 743.658 736.75 745.431 736.75C747.227 736.75 748.755 737.199 750.016 738.097C751.278 738.983 752.119 740.188 752.539 741.71H752.812C753.346 740.21 754.312 739.012 755.71 738.114C757.119 737.205 758.783 736.75 760.704 736.75C763.147 736.75 765.13 737.529 766.653 739.085C768.187 740.631 768.954 742.824 768.954 745.665V763.273H761.71V747.097C761.71 745.642 761.323 744.551 760.55 743.824C759.778 743.097 758.812 742.733 757.653 742.733C756.335 742.733 755.306 743.154 754.568 743.995C753.829 744.824 753.46 745.921 753.46 747.284V763.273H746.42V746.943C746.42 745.659 746.05 744.637 745.312 743.875C744.585 743.114 743.624 742.733 742.431 742.733C741.624 742.733 740.897 742.938 740.249 743.347C739.613 743.745 739.107 744.307 738.732 745.034C738.357 745.75 738.17 746.591 738.17 747.557V763.273H730.908ZM781.244 763.767C779.573 763.767 778.084 763.477 776.778 762.898C775.471 762.307 774.437 761.438 773.675 760.29C772.925 759.131 772.55 757.688 772.55 755.96C772.55 754.506 772.817 753.284 773.352 752.296C773.886 751.307 774.613 750.512 775.533 749.909C776.454 749.307 777.499 748.852 778.67 748.546C779.852 748.239 781.09 748.023 782.386 747.898C783.908 747.739 785.136 747.591 786.067 747.455C786.999 747.307 787.675 747.091 788.096 746.807C788.516 746.523 788.727 746.102 788.727 745.546V745.443C788.727 744.364 788.386 743.529 787.704 742.938C787.033 742.347 786.079 742.051 784.84 742.051C783.533 742.051 782.494 742.341 781.721 742.921C780.948 743.489 780.437 744.205 780.187 745.068L773.471 744.523C773.812 742.932 774.482 741.557 775.482 740.398C776.482 739.227 777.772 738.33 779.352 737.705C780.942 737.068 782.783 736.75 784.874 736.75C786.329 736.75 787.721 736.921 789.05 737.262C790.391 737.602 791.579 738.131 792.613 738.847C793.658 739.563 794.482 740.483 795.084 741.608C795.687 742.722 795.988 744.057 795.988 745.614V763.273H789.102V759.642H788.897C788.477 760.46 787.914 761.182 787.209 761.807C786.505 762.421 785.658 762.904 784.67 763.256C783.681 763.597 782.539 763.767 781.244 763.767ZM783.323 758.756C784.391 758.756 785.334 758.546 786.153 758.125C786.971 757.693 787.613 757.114 788.079 756.387C788.545 755.659 788.778 754.835 788.778 753.915V751.137C788.55 751.284 788.238 751.421 787.84 751.546C787.454 751.659 787.016 751.767 786.528 751.87C786.039 751.96 785.55 752.046 785.062 752.125C784.573 752.193 784.13 752.256 783.732 752.313C782.88 752.438 782.136 752.637 781.499 752.909C780.863 753.182 780.369 753.551 780.016 754.017C779.664 754.472 779.488 755.04 779.488 755.722C779.488 756.71 779.846 757.466 780.562 757.989C781.289 758.5 782.209 758.756 783.323 758.756ZM812.505 773.637C810.153 773.637 808.136 773.313 806.454 772.665C804.783 772.029 803.454 771.159 802.465 770.057C801.476 768.955 800.834 767.716 800.539 766.341L807.255 765.438C807.459 765.96 807.783 766.449 808.226 766.904C808.67 767.358 809.255 767.722 809.982 767.995C810.721 768.279 811.619 768.421 812.675 768.421C814.255 768.421 815.556 768.034 816.579 767.262C817.613 766.5 818.13 765.222 818.13 763.426V758.637H817.823C817.505 759.364 817.028 760.051 816.391 760.699C815.755 761.347 814.937 761.875 813.937 762.284C812.937 762.693 811.744 762.898 810.357 762.898C808.391 762.898 806.601 762.443 804.988 761.534C803.386 760.614 802.107 759.21 801.153 757.324C800.209 755.426 799.738 753.029 799.738 750.131C799.738 747.165 800.221 744.688 801.187 742.699C802.153 740.71 803.437 739.222 805.039 738.233C806.653 737.245 808.42 736.75 810.34 736.75C811.806 736.75 813.033 737 814.022 737.5C815.011 737.989 815.806 738.602 816.408 739.341C817.022 740.068 817.494 740.784 817.823 741.489H818.096V737.091H825.306V763.529C825.306 765.756 824.761 767.62 823.67 769.12C822.579 770.62 821.067 771.745 819.136 772.495C817.215 773.256 815.005 773.637 812.505 773.637ZM812.658 757.443C813.829 757.443 814.817 757.154 815.624 756.574C816.442 755.983 817.067 755.142 817.499 754.051C817.942 752.949 818.164 751.631 818.164 750.097C818.164 748.563 817.948 747.233 817.516 746.108C817.084 744.972 816.459 744.091 815.641 743.466C814.823 742.841 813.829 742.529 812.658 742.529C811.465 742.529 810.459 742.852 809.641 743.5C808.823 744.137 808.204 745.023 807.783 746.159C807.363 747.296 807.153 748.608 807.153 750.097C807.153 751.608 807.363 752.915 807.783 754.017C808.215 755.108 808.834 755.955 809.641 756.557C810.459 757.148 811.465 757.443 812.658 757.443ZM830.172 763.273V737.091H837.434V763.273H830.172ZM833.82 733.716C832.741 733.716 831.814 733.358 831.042 732.642C830.28 731.915 829.9 731.046 829.9 730.034C829.9 729.034 830.28 728.176 831.042 727.46C831.814 726.733 832.741 726.37 833.82 726.37C834.9 726.37 835.82 726.733 836.582 727.46C837.354 728.176 837.741 729.034 837.741 730.034C837.741 731.046 837.354 731.915 836.582 732.642C835.82 733.358 834.9 733.716 833.82 733.716ZM849.6 748.137V763.273H842.339V737.091H849.259V741.71H849.566C850.145 740.188 851.117 738.983 852.481 738.097C853.844 737.199 855.498 736.75 857.441 736.75C859.259 736.75 860.844 737.148 862.196 737.943C863.549 738.739 864.6 739.875 865.35 741.352C866.1 742.818 866.475 744.568 866.475 746.602V763.273H859.214V747.898C859.225 746.296 858.816 745.046 857.986 744.148C857.157 743.239 856.015 742.784 854.56 742.784C853.583 742.784 852.719 742.995 851.969 743.415C851.231 743.835 850.651 744.449 850.231 745.256C849.821 746.051 849.611 747.012 849.6 748.137ZM878.752 763.767C877.081 763.767 875.593 763.477 874.286 762.898C872.979 762.307 871.945 761.438 871.184 760.29C870.434 759.131 870.059 757.688 870.059 755.96C870.059 754.506 870.326 753.284 870.86 752.296C871.394 751.307 872.121 750.512 873.042 749.909C873.962 749.307 875.008 748.852 876.178 748.546C877.36 748.239 878.598 748.023 879.894 747.898C881.417 747.739 882.644 747.591 883.576 747.455C884.508 747.307 885.184 747.091 885.604 746.807C886.025 746.523 886.235 746.102 886.235 745.546V745.443C886.235 744.364 885.894 743.529 885.212 742.938C884.542 742.347 883.587 742.051 882.348 742.051C881.042 742.051 880.002 742.341 879.229 742.921C878.456 743.489 877.945 744.205 877.695 745.068L870.979 744.523C871.32 742.932 871.99 741.557 872.99 740.398C873.99 739.227 875.28 738.33 876.86 737.705C878.451 737.068 880.292 736.75 882.383 736.75C883.837 736.75 885.229 736.921 886.559 737.262C887.9 737.602 889.087 738.131 890.121 738.847C891.167 739.563 891.99 740.483 892.593 741.608C893.195 742.722 893.496 744.057 893.496 745.614V763.273H886.61V759.642H886.405C885.985 760.46 885.422 761.182 884.718 761.807C884.013 762.421 883.167 762.904 882.178 763.256C881.189 763.597 880.047 763.767 878.752 763.767ZM880.831 758.756C881.9 758.756 882.843 758.546 883.661 758.125C884.479 757.693 885.121 757.114 885.587 756.387C886.053 755.659 886.286 754.835 886.286 753.915V751.137C886.059 751.284 885.746 751.421 885.348 751.546C884.962 751.659 884.525 751.767 884.036 751.87C883.547 751.96 883.059 752.046 882.57 752.125C882.081 752.193 881.638 752.256 881.24 752.313C880.388 752.438 879.644 752.637 879.008 752.909C878.371 753.182 877.877 753.551 877.525 754.017C877.172 754.472 876.996 755.04 876.996 755.722C876.996 756.71 877.354 757.466 878.07 757.989C878.797 758.5 879.718 758.756 880.831 758.756ZM898.354 763.273V728.364H905.615V741.489H905.837C906.155 740.784 906.615 740.068 907.218 739.341C907.831 738.602 908.627 737.989 909.604 737.5C910.593 737 911.82 736.75 913.286 736.75C915.195 736.75 916.956 737.25 918.57 738.25C920.184 739.239 921.473 740.733 922.439 742.733C923.405 744.722 923.888 747.216 923.888 750.216C923.888 753.137 923.417 755.602 922.473 757.614C921.542 759.614 920.269 761.131 918.655 762.165C917.053 763.188 915.257 763.699 913.269 763.699C911.86 763.699 910.661 763.466 909.672 763C908.695 762.534 907.894 761.949 907.269 761.245C906.644 760.529 906.167 759.807 905.837 759.08H905.513V763.273H898.354ZM905.462 750.182C905.462 751.739 905.678 753.097 906.11 754.256C906.542 755.415 907.167 756.318 907.985 756.966C908.803 757.602 909.797 757.921 910.968 757.921C912.149 757.921 913.149 757.597 913.968 756.949C914.786 756.29 915.405 755.381 915.826 754.222C916.257 753.051 916.473 751.705 916.473 750.182C916.473 748.671 916.263 747.341 915.843 746.193C915.422 745.046 914.803 744.148 913.985 743.5C913.167 742.852 912.161 742.529 910.968 742.529C909.786 742.529 908.786 742.841 907.968 743.466C907.161 744.091 906.542 744.977 906.11 746.125C905.678 747.273 905.462 748.625 905.462 750.182ZM935.083 728.364V763.273H927.821V728.364H935.083ZM951.919 763.784C949.226 763.784 946.908 763.239 944.965 762.148C943.033 761.046 941.544 759.489 940.499 757.477C939.453 755.455 938.931 753.063 938.931 750.301C938.931 747.608 939.453 745.245 940.499 743.21C941.544 741.176 943.016 739.591 944.914 738.455C946.823 737.318 949.061 736.75 951.629 736.75C953.357 736.75 954.965 737.029 956.453 737.585C957.953 738.131 959.26 738.955 960.374 740.057C961.499 741.159 962.374 742.546 962.999 744.216C963.624 745.875 963.936 747.818 963.936 750.046V752.04H941.828V747.54H957.101C957.101 746.495 956.874 745.568 956.419 744.762C955.965 743.955 955.334 743.324 954.527 742.87C953.732 742.404 952.806 742.171 951.749 742.171C950.647 742.171 949.669 742.426 948.817 742.938C947.976 743.438 947.317 744.114 946.84 744.966C946.362 745.807 946.118 746.745 946.107 747.779V752.057C946.107 753.352 946.345 754.472 946.823 755.415C947.311 756.358 947.999 757.085 948.885 757.597C949.772 758.108 950.823 758.364 952.039 758.364C952.845 758.364 953.584 758.25 954.254 758.023C954.925 757.796 955.499 757.455 955.976 757C956.453 756.546 956.817 755.989 957.067 755.33L963.783 755.773C963.442 757.387 962.743 758.796 961.686 760C960.641 761.193 959.289 762.125 957.629 762.796C955.982 763.455 954.078 763.784 951.919 763.784Z" fill="#1E1E1E"/>
<path d="M1556.75 745.818C1556.75 749.625 1556.03 752.864 1554.58 755.534C1553.15 758.205 1551.2 760.245 1548.72 761.654C1546.26 763.051 1543.48 763.75 1540.4 763.75C1537.3 763.75 1534.52 763.046 1532.05 761.637C1529.58 760.227 1527.64 758.188 1526.2 755.517C1524.77 752.847 1524.06 749.614 1524.06 745.818C1524.06 742.012 1524.77 738.773 1526.2 736.102C1527.64 733.432 1529.58 731.398 1532.05 730C1534.52 728.591 1537.3 727.887 1540.4 727.887C1543.48 727.887 1546.26 728.591 1548.72 730C1551.2 731.398 1553.15 733.432 1554.58 736.102C1556.03 738.773 1556.75 742.012 1556.75 745.818ZM1549.27 745.818C1549.27 743.352 1548.9 741.273 1548.16 739.58C1547.43 737.887 1546.4 736.602 1545.07 735.727C1543.74 734.852 1542.19 734.415 1540.4 734.415C1538.62 734.415 1537.06 734.852 1535.73 735.727C1534.4 736.602 1533.37 737.887 1532.63 739.58C1531.9 741.273 1531.54 743.352 1531.54 745.818C1531.54 748.284 1531.9 750.364 1532.63 752.057C1533.37 753.75 1534.4 755.034 1535.73 755.909C1537.06 756.784 1538.62 757.222 1540.4 757.222C1542.19 757.222 1543.74 756.784 1545.07 755.909C1546.4 755.034 1547.43 753.75 1548.16 752.057C1548.9 750.364 1549.27 748.284 1549.27 745.818ZM1561.3 763.273V728.364H1568.69V743.756H1569.15L1581.71 728.364H1590.55L1577.6 743.995L1590.71 763.273H1581.88L1572.32 748.921L1568.69 753.352V763.273H1561.3Z" fill="#1E1E1E"/>
<path d="M2033.1 739.648C2032.86 738.818 2032.52 738.085 2032.09 737.449C2031.66 736.801 2031.13 736.256 2030.51 735.813C2029.89 735.358 2029.19 735.012 2028.39 734.773C2027.61 734.534 2026.74 734.415 2025.78 734.415C2024 734.415 2022.43 734.858 2021.08 735.745C2019.74 736.631 2018.69 737.921 2017.94 739.614C2017.19 741.296 2016.82 743.352 2016.82 745.784C2016.82 748.216 2017.19 750.284 2017.93 751.989C2018.66 753.693 2019.71 754.995 2021.06 755.892C2022.41 756.779 2024.01 757.222 2025.85 757.222C2027.52 757.222 2028.95 756.926 2030.13 756.335C2031.32 755.733 2032.23 754.887 2032.86 753.796C2033.49 752.705 2033.81 751.415 2033.81 749.926L2035.31 750.148H2026.31V744.591H2040.92V748.989C2040.92 752.057 2040.27 754.693 2038.98 756.898C2037.68 759.091 2035.9 760.784 2033.63 761.977C2031.35 763.159 2028.75 763.75 2025.82 763.75C2022.55 763.75 2019.67 763.029 2017.19 761.585C2014.72 760.131 2012.78 758.068 2011.4 755.398C2010.02 752.716 2009.34 749.534 2009.34 745.852C2009.34 743.023 2009.74 740.5 2010.56 738.284C2011.39 736.057 2012.55 734.171 2014.04 732.625C2015.53 731.08 2017.26 729.904 2019.24 729.097C2021.22 728.29 2023.36 727.887 2025.66 727.887C2027.64 727.887 2029.48 728.176 2031.19 728.756C2032.89 729.324 2034.4 730.131 2035.72 731.176C2037.05 732.222 2038.14 733.466 2038.98 734.909C2039.82 736.341 2040.36 737.921 2040.6 739.648H2033.1ZM2057.25 763.784C2054.6 763.784 2052.31 763.222 2050.38 762.097C2048.46 760.96 2046.97 759.381 2045.93 757.358C2044.88 755.324 2044.36 752.966 2044.36 750.284C2044.36 747.58 2044.88 745.216 2045.93 743.193C2046.97 741.159 2048.46 739.58 2050.38 738.455C2052.31 737.318 2054.6 736.75 2057.25 736.75C2059.89 736.75 2062.18 737.318 2064.1 738.455C2066.03 739.58 2067.52 741.159 2068.56 743.193C2069.61 745.216 2070.13 747.58 2070.13 750.284C2070.13 752.966 2069.61 755.324 2068.56 757.358C2067.52 759.381 2066.03 760.96 2064.1 762.097C2062.18 763.222 2059.89 763.784 2057.25 763.784ZM2057.28 758.159C2058.48 758.159 2059.49 757.818 2060.3 757.137C2061.1 756.443 2061.71 755.5 2062.12 754.307C2062.54 753.114 2062.75 751.756 2062.75 750.233C2062.75 748.71 2062.54 747.352 2062.12 746.159C2061.71 744.966 2061.1 744.023 2060.3 743.33C2059.49 742.637 2058.48 742.29 2057.28 742.29C2056.06 742.29 2055.04 742.637 2054.21 743.33C2053.39 744.023 2052.77 744.966 2052.35 746.159C2051.94 747.352 2051.74 748.71 2051.74 750.233C2051.74 751.756 2051.94 753.114 2052.35 754.307C2052.77 755.5 2053.39 756.443 2054.21 757.137C2055.04 757.818 2056.06 758.159 2057.28 758.159ZM2085.77 763.784C2083.12 763.784 2080.83 763.222 2078.9 762.097C2076.98 760.96 2075.5 759.381 2074.45 757.358C2073.41 755.324 2072.88 752.966 2072.88 750.284C2072.88 747.58 2073.41 745.216 2074.45 743.193C2075.5 741.159 2076.98 739.58 2078.9 738.455C2080.83 737.318 2083.12 736.75 2085.77 736.75C2088.42 736.75 2090.7 737.318 2092.62 738.455C2094.56 739.58 2096.04 741.159 2097.09 743.193C2098.13 745.216 2098.66 747.58 2098.66 750.284C2098.66 752.966 2098.13 755.324 2097.09 757.358C2096.04 759.381 2094.56 760.96 2092.62 762.097C2090.7 763.222 2088.42 763.784 2085.77 763.784ZM2085.81 758.159C2087.01 758.159 2088.02 757.818 2088.82 757.137C2089.63 756.443 2090.24 755.5 2090.65 754.307C2091.07 753.114 2091.28 751.756 2091.28 750.233C2091.28 748.71 2091.07 747.352 2090.65 746.159C2090.24 744.966 2089.63 744.023 2088.82 743.33C2088.02 742.637 2087.01 742.29 2085.81 742.29C2084.59 742.29 2083.57 742.637 2082.74 743.33C2081.92 744.023 2081.3 744.966 2080.88 746.159C2080.47 747.352 2080.27 748.71 2080.27 750.233C2080.27 751.756 2080.47 753.114 2080.88 754.307C2081.3 755.5 2081.92 756.443 2082.74 757.137C2083.57 757.818 2084.59 758.159 2085.81 758.159ZM2112.11 763.699C2110.13 763.699 2108.33 763.188 2106.71 762.165C2105.11 761.131 2103.84 759.614 2102.89 757.614C2101.96 755.602 2101.5 753.137 2101.5 750.216C2101.5 747.216 2101.98 744.722 2102.94 742.733C2103.91 740.733 2105.19 739.239 2106.8 738.25C2108.41 737.25 2110.18 736.75 2112.1 736.75C2113.56 736.75 2114.79 737 2115.76 737.5C2116.75 737.989 2117.55 738.602 2118.15 739.341C2118.76 740.068 2119.23 740.784 2119.55 741.489H2119.77V728.364H2127.01V763.273H2119.85V759.08H2119.55C2119.21 759.807 2118.72 760.529 2118.1 761.245C2117.48 761.949 2116.68 762.534 2115.69 763C2114.72 763.466 2113.52 763.699 2112.11 763.699ZM2114.42 757.921C2115.59 757.921 2116.58 757.602 2117.38 756.966C2118.2 756.318 2118.83 755.415 2119.26 754.256C2119.7 753.097 2119.92 751.739 2119.92 750.182C2119.92 748.625 2119.71 747.273 2119.27 746.125C2118.84 744.977 2118.22 744.091 2117.4 743.466C2116.58 742.841 2115.59 742.529 2114.42 742.529C2113.22 742.529 2112.22 742.852 2111.4 743.5C2110.58 744.148 2109.96 745.046 2109.54 746.193C2109.12 747.341 2108.91 748.671 2108.91 750.182C2108.91 751.705 2109.12 753.051 2109.54 754.222C2109.97 755.381 2110.59 756.29 2111.4 756.949C2112.22 757.597 2113.22 757.921 2114.42 757.921Z" fill="#1E1E1E"/>
<path d="M2658.59 763.273V728.364H2672.57C2675.14 728.364 2677.28 728.745 2678.99 729.506C2680.71 730.267 2682 731.324 2682.86 732.676C2683.73 734.017 2684.16 735.563 2684.16 737.313C2684.16 738.676 2683.89 739.875 2683.34 740.909C2682.79 741.932 2682.04 742.773 2681.09 743.432C2680.15 744.08 2679.07 744.54 2677.85 744.813V745.154C2679.18 745.21 2680.43 745.585 2681.58 746.279C2682.75 746.972 2683.7 747.943 2684.43 749.193C2685.16 750.432 2685.52 751.909 2685.52 753.625C2685.52 755.477 2685.06 757.131 2684.14 758.585C2683.23 760.029 2681.89 761.171 2680.1 762.012C2678.32 762.852 2676.12 763.273 2673.5 763.273H2658.59ZM2665.97 757.239H2671.99C2674.04 757.239 2675.54 756.847 2676.49 756.063C2677.43 755.267 2677.9 754.21 2677.9 752.892C2677.9 751.926 2677.67 751.074 2677.2 750.335C2676.74 749.597 2676.07 749.017 2675.21 748.597C2674.36 748.176 2673.34 747.966 2672.16 747.966H2665.97V757.239ZM2665.97 742.972H2671.44C2672.45 742.972 2673.35 742.796 2674.14 742.443C2674.93 742.08 2675.56 741.568 2676.01 740.909C2676.48 740.25 2676.71 739.46 2676.71 738.54C2676.71 737.279 2676.26 736.262 2675.36 735.489C2674.48 734.716 2673.21 734.33 2671.58 734.33H2665.97V742.972ZM2701.21 763.784C2698.51 763.784 2696.2 763.239 2694.25 762.148C2692.32 761.046 2690.83 759.489 2689.79 757.477C2688.74 755.455 2688.22 753.063 2688.22 750.301C2688.22 747.608 2688.74 745.245 2689.79 743.21C2690.83 741.176 2692.3 739.591 2694.2 738.455C2696.11 737.318 2698.35 736.75 2700.92 736.75C2702.65 736.75 2704.25 737.029 2705.74 737.585C2707.24 738.131 2708.55 738.955 2709.66 740.057C2710.79 741.159 2711.66 742.546 2712.29 744.216C2712.91 745.875 2713.22 747.818 2713.22 750.046V752.04H2691.12V747.54H2706.39C2706.39 746.495 2706.16 745.568 2705.71 744.762C2705.25 743.955 2704.62 743.324 2703.82 742.87C2703.02 742.404 2702.09 742.171 2701.04 742.171C2699.94 742.171 2698.96 742.426 2698.11 742.938C2697.26 743.438 2696.61 744.114 2696.13 744.966C2695.65 745.807 2695.41 746.745 2695.4 747.779V752.057C2695.4 753.352 2695.63 754.472 2696.11 755.415C2696.6 756.358 2697.29 757.085 2698.17 757.597C2699.06 758.108 2700.11 758.364 2701.33 758.364C2702.13 758.364 2702.87 758.25 2703.54 758.023C2704.21 757.796 2704.79 757.455 2705.26 757C2705.74 756.546 2706.11 755.989 2706.36 755.33L2713.07 755.773C2712.73 757.387 2712.03 758.796 2710.97 760C2709.93 761.193 2708.58 762.125 2706.92 762.796C2705.27 763.455 2703.37 763.784 2701.21 763.784ZM2738.84 744.557L2732.19 744.966C2732.07 744.398 2731.83 743.887 2731.45 743.432C2731.08 742.966 2730.59 742.597 2729.97 742.324C2729.37 742.04 2728.65 741.898 2727.81 741.898C2726.68 741.898 2725.73 742.137 2724.96 742.614C2724.19 743.08 2723.8 743.705 2723.8 744.489C2723.8 745.114 2724.05 745.642 2724.55 746.074C2725.05 746.506 2725.91 746.852 2727.13 747.114L2731.86 748.068C2734.41 748.591 2736.31 749.432 2737.56 750.591C2738.81 751.75 2739.43 753.273 2739.43 755.159C2739.43 756.875 2738.93 758.381 2737.92 759.676C2736.92 760.972 2735.54 761.983 2733.79 762.71C2732.05 763.426 2730.05 763.784 2727.77 763.784C2724.31 763.784 2721.55 763.063 2719.49 761.62C2717.44 760.165 2716.24 758.188 2715.89 755.688L2723.03 755.313C2723.25 756.37 2723.77 757.176 2724.6 757.733C2725.43 758.279 2726.49 758.551 2727.79 758.551C2729.06 758.551 2730.09 758.307 2730.86 757.818C2731.64 757.318 2732.04 756.676 2732.05 755.892C2732.04 755.233 2731.76 754.693 2731.22 754.273C2730.67 753.841 2729.83 753.512 2728.69 753.284L2724.16 752.381C2721.6 751.87 2719.7 750.983 2718.45 749.722C2717.21 748.46 2716.59 746.852 2716.59 744.898C2716.59 743.216 2717.05 741.767 2717.95 740.551C2718.88 739.335 2720.17 738.398 2721.82 737.739C2723.49 737.08 2725.45 736.75 2727.69 736.75C2730.99 736.75 2733.6 737.449 2735.49 738.847C2737.4 740.245 2738.52 742.148 2738.84 744.557ZM2757.02 737.091V742.546H2741.25V737.091H2757.02ZM2744.83 730.818H2752.09V755.227C2752.09 755.898 2752.19 756.421 2752.4 756.796C2752.6 757.159 2752.89 757.415 2753.25 757.563C2753.63 757.71 2754.06 757.784 2754.55 757.784C2754.89 757.784 2755.23 757.756 2755.57 757.699C2755.91 757.631 2756.17 757.58 2756.35 757.546L2757.5 762.949C2757.13 763.063 2756.62 763.193 2755.96 763.341C2755.3 763.5 2754.5 763.597 2753.56 763.631C2751.81 763.699 2750.27 763.466 2748.96 762.932C2747.65 762.398 2746.63 761.568 2745.91 760.443C2745.18 759.318 2744.82 757.898 2744.83 756.182V730.818ZM2778.55 728.364V763.273H2771.17V728.364H2778.55ZM2783.58 763.273V737.091H2790.5V741.71H2790.8C2791.35 740.176 2792.26 738.966 2793.53 738.08C2794.8 737.193 2796.33 736.75 2798.1 736.75C2799.89 736.75 2801.42 737.199 2802.68 738.097C2803.94 738.983 2804.79 740.188 2805.21 741.71H2805.48C2806.01 740.21 2806.98 739.012 2808.38 738.114C2809.79 737.205 2811.45 736.75 2813.37 736.75C2815.81 736.75 2817.8 737.529 2819.32 739.085C2820.85 740.631 2821.62 742.824 2821.62 745.665V763.273H2814.38V747.097C2814.38 745.642 2813.99 744.551 2813.22 743.824C2812.44 743.097 2811.48 742.733 2810.32 742.733C2809 742.733 2807.97 743.154 2807.23 743.995C2806.5 744.824 2806.13 745.921 2806.13 747.284V763.273H2799.09V746.943C2799.09 745.659 2798.72 744.637 2797.98 743.875C2797.25 743.114 2796.29 742.733 2795.1 742.733C2794.29 742.733 2793.56 742.938 2792.92 743.347C2792.28 743.745 2791.77 744.307 2791.4 745.034C2791.02 745.75 2790.84 746.591 2790.84 747.557V763.273H2783.58ZM2833.91 763.767C2832.24 763.767 2830.75 763.477 2829.44 762.898C2828.14 762.307 2827.1 761.438 2826.34 760.29C2825.59 759.131 2825.22 757.688 2825.22 755.96C2825.22 754.506 2825.48 753.284 2826.02 752.296C2826.55 751.307 2827.28 750.512 2828.2 749.909C2829.12 749.307 2830.17 748.852 2831.34 748.546C2832.52 748.239 2833.76 748.023 2835.05 747.898C2836.58 747.739 2837.8 747.591 2838.73 747.455C2839.67 747.307 2840.34 747.091 2840.76 746.807C2841.18 746.523 2841.39 746.102 2841.39 745.546V745.443C2841.39 744.364 2841.05 743.529 2840.37 742.938C2839.7 742.347 2838.75 742.051 2837.51 742.051C2836.2 742.051 2835.16 742.341 2834.39 742.921C2833.62 743.489 2833.1 744.205 2832.85 745.068L2826.14 744.523C2826.48 742.932 2827.15 741.557 2828.15 740.398C2829.15 739.227 2830.44 738.33 2832.02 737.705C2833.61 737.068 2835.45 736.75 2837.54 736.75C2839 736.75 2840.39 736.921 2841.72 737.262C2843.06 737.602 2844.25 738.131 2845.28 738.847C2846.33 739.563 2847.15 740.483 2847.75 741.608C2848.35 742.722 2848.65 744.057 2848.65 745.614V763.273H2841.77V759.642H2841.56C2841.14 760.46 2840.58 761.182 2839.88 761.807C2839.17 762.421 2838.33 762.904 2837.34 763.256C2836.35 763.597 2835.21 763.767 2833.91 763.767ZM2835.99 758.756C2837.06 758.756 2838 758.546 2838.82 758.125C2839.64 757.693 2840.28 757.114 2840.75 756.387C2841.21 755.659 2841.44 754.835 2841.44 753.915V751.137C2841.22 751.284 2840.9 751.421 2840.51 751.546C2840.12 751.659 2839.68 751.767 2839.19 751.87C2838.71 751.96 2838.22 752.046 2837.73 752.125C2837.24 752.193 2836.8 752.256 2836.4 752.313C2835.55 752.438 2834.8 752.637 2834.17 752.909C2833.53 753.182 2833.04 753.551 2832.68 754.017C2832.33 754.472 2832.15 755.04 2832.15 755.722C2832.15 756.71 2832.51 757.466 2833.23 757.989C2833.96 758.5 2834.88 758.756 2835.99 758.756ZM2865.17 773.637C2862.82 773.637 2860.8 773.313 2859.12 772.665C2857.45 772.029 2856.12 771.159 2855.13 770.057C2854.14 768.955 2853.5 767.716 2853.21 766.341L2859.92 765.438C2860.13 765.96 2860.45 766.449 2860.89 766.904C2861.34 767.358 2861.92 767.722 2862.65 767.995C2863.39 768.279 2864.29 768.421 2865.34 768.421C2866.92 768.421 2868.22 768.034 2869.25 767.262C2870.28 766.5 2870.8 765.222 2870.8 763.426V758.637H2870.49C2870.17 759.364 2869.69 760.051 2869.06 760.699C2868.42 761.347 2867.6 761.875 2866.6 762.284C2865.6 762.693 2864.41 762.898 2863.02 762.898C2861.06 762.898 2859.27 762.443 2857.65 761.534C2856.05 760.614 2854.77 759.21 2853.82 757.324C2852.88 755.426 2852.4 753.029 2852.4 750.131C2852.4 747.165 2852.89 744.688 2853.85 742.699C2854.82 740.71 2856.1 739.222 2857.71 738.233C2859.32 737.245 2861.09 736.75 2863.01 736.75C2864.47 736.75 2865.7 737 2866.69 737.5C2867.68 737.989 2868.47 738.602 2869.08 739.341C2869.69 740.068 2870.16 740.784 2870.49 741.489H2870.76V737.091H2877.97V763.529C2877.97 765.756 2877.43 767.62 2876.34 769.12C2875.25 770.62 2873.73 771.745 2871.8 772.495C2869.88 773.256 2867.67 773.637 2865.17 773.637ZM2865.33 757.443C2866.5 757.443 2867.48 757.154 2868.29 756.574C2869.11 755.983 2869.73 755.142 2870.17 754.051C2870.61 752.949 2870.83 751.631 2870.83 750.097C2870.83 748.563 2870.61 747.233 2870.18 746.108C2869.75 744.972 2869.13 744.091 2868.31 743.466C2867.49 742.841 2866.5 742.529 2865.33 742.529C2864.13 742.529 2863.13 742.852 2862.31 743.5C2861.49 744.137 2860.87 745.023 2860.45 746.159C2860.03 747.296 2859.82 748.608 2859.82 750.097C2859.82 751.608 2860.03 752.915 2860.45 754.017C2860.88 755.108 2861.5 755.955 2862.31 756.557C2863.13 757.148 2864.13 757.443 2865.33 757.443ZM2882.84 763.273V737.091H2890.1V763.273H2882.84ZM2886.49 733.716C2885.41 733.716 2884.48 733.358 2883.71 732.642C2882.95 731.915 2882.57 731.046 2882.57 730.034C2882.57 729.034 2882.95 728.176 2883.71 727.46C2884.48 726.733 2885.41 726.37 2886.49 726.37C2887.57 726.37 2888.49 726.733 2889.25 727.46C2890.02 728.176 2890.41 729.034 2890.41 730.034C2890.41 731.046 2890.02 731.915 2889.25 732.642C2888.49 733.358 2887.57 733.716 2886.49 733.716ZM2902.27 748.137V763.273H2895.01V737.091H2901.93V741.71H2902.23C2902.81 740.188 2903.78 738.983 2905.15 738.097C2906.51 737.199 2908.16 736.75 2910.11 736.75C2911.93 736.75 2913.51 737.148 2914.86 737.943C2916.22 738.739 2917.27 739.875 2918.02 741.352C2918.77 742.818 2919.14 744.568 2919.14 746.602V763.273H2911.88V747.898C2911.89 746.296 2911.48 745.046 2910.65 744.148C2909.82 743.239 2908.68 742.784 2907.23 742.784C2906.25 742.784 2905.39 742.995 2904.64 743.415C2903.9 743.835 2903.32 744.449 2902.9 745.256C2902.49 746.051 2902.28 747.012 2902.27 748.137ZM2931.42 763.767C2929.75 763.767 2928.26 763.477 2926.95 762.898C2925.65 762.307 2924.61 761.438 2923.85 760.29C2923.1 759.131 2922.73 757.688 2922.73 755.96C2922.73 754.506 2922.99 753.284 2923.53 752.296C2924.06 751.307 2924.79 750.512 2925.71 749.909C2926.63 749.307 2927.67 748.852 2928.84 748.546C2930.03 748.239 2931.27 748.023 2932.56 747.898C2934.08 747.739 2935.31 747.591 2936.24 747.455C2937.17 747.307 2937.85 747.091 2938.27 746.807C2938.69 746.523 2938.9 746.102 2938.9 745.546V745.443C2938.9 744.364 2938.56 743.529 2937.88 742.938C2937.21 742.347 2936.25 742.051 2935.02 742.051C2933.71 742.051 2932.67 742.341 2931.9 742.921C2931.12 743.489 2930.61 744.205 2930.36 745.068L2923.65 744.523C2923.99 742.932 2924.66 741.557 2925.66 740.398C2926.66 739.227 2927.95 738.33 2929.53 737.705C2931.12 737.068 2932.96 736.75 2935.05 736.75C2936.5 736.75 2937.9 736.921 2939.23 737.262C2940.57 737.602 2941.75 738.131 2942.79 738.847C2943.83 739.563 2944.66 740.483 2945.26 741.608C2945.86 742.722 2946.16 744.057 2946.16 745.614V763.273H2939.28V759.642H2939.07C2938.65 760.46 2938.09 761.182 2937.38 761.807C2936.68 762.421 2935.83 762.904 2934.84 763.256C2933.86 763.597 2932.71 763.767 2931.42 763.767ZM2933.5 758.756C2934.57 758.756 2935.51 758.546 2936.33 758.125C2937.15 757.693 2937.79 757.114 2938.25 756.387C2938.72 755.659 2938.95 754.835 2938.95 753.915V751.137C2938.73 751.284 2938.41 751.421 2938.02 751.546C2937.63 751.659 2937.19 751.767 2936.7 751.87C2936.21 751.96 2935.73 752.046 2935.24 752.125C2934.75 752.193 2934.31 752.256 2933.91 752.313C2933.06 752.438 2932.31 752.637 2931.67 752.909C2931.04 753.182 2930.54 753.551 2930.19 754.017C2929.84 754.472 2929.66 755.04 2929.66 755.722C2929.66 756.71 2930.02 757.466 2930.74 757.989C2931.46 758.5 2932.38 758.756 2933.5 758.756ZM2951.02 763.273V728.364H2958.28V741.489H2958.5C2958.82 740.784 2959.28 740.068 2959.88 739.341C2960.5 738.602 2961.29 737.989 2962.27 737.5C2963.26 737 2964.49 736.75 2965.95 736.75C2967.86 736.75 2969.62 737.25 2971.24 738.25C2972.85 739.239 2974.14 740.733 2975.11 742.733C2976.07 744.722 2976.56 747.216 2976.56 750.216C2976.56 753.137 2976.08 755.602 2975.14 757.614C2974.21 759.614 2972.94 761.131 2971.32 762.165C2969.72 763.188 2967.92 763.699 2965.94 763.699C2964.53 763.699 2963.33 763.466 2962.34 763C2961.36 762.534 2960.56 761.949 2959.94 761.245C2959.31 760.529 2958.83 759.807 2958.5 759.08H2958.18V763.273H2951.02ZM2958.13 750.182C2958.13 751.739 2958.34 753.097 2958.78 754.256C2959.21 755.415 2959.83 756.318 2960.65 756.966C2961.47 757.602 2962.46 757.921 2963.63 757.921C2964.82 757.921 2965.82 757.597 2966.63 756.949C2967.45 756.29 2968.07 755.381 2968.49 754.222C2968.92 753.051 2969.14 751.705 2969.14 750.182C2969.14 748.671 2968.93 747.341 2968.51 746.193C2968.09 745.046 2967.47 744.148 2966.65 743.5C2965.83 742.852 2964.83 742.529 2963.63 742.529C2962.45 742.529 2961.45 742.841 2960.63 743.466C2959.83 744.091 2959.21 744.977 2958.78 746.125C2958.34 747.273 2958.13 748.625 2958.13 750.182ZM2987.75 728.364V763.273H2980.49V728.364H2987.75ZM3004.59 763.784C3001.89 763.784 2999.57 763.239 2997.63 762.148C2995.7 761.046 2994.21 759.489 2993.17 757.477C2992.12 755.455 2991.6 753.063 2991.6 750.301C2991.6 747.608 2992.12 745.245 2993.17 743.21C2994.21 741.176 2995.68 739.591 2997.58 738.455C2999.49 737.318 3001.73 736.75 3004.3 736.75C3006.02 736.75 3007.63 737.029 3009.12 737.585C3010.62 738.131 3011.93 738.955 3013.04 740.057C3014.17 741.159 3015.04 742.546 3015.67 744.216C3016.29 745.875 3016.6 747.818 3016.6 750.046V752.04H2994.5V747.54H3009.77C3009.77 746.495 3009.54 745.568 3009.09 744.762C3008.63 743.955 3008 743.324 3007.19 742.87C3006.4 742.404 3005.47 742.171 3004.42 742.171C3003.31 742.171 3002.34 742.426 3001.48 742.938C3000.64 743.438 2999.98 744.114 2999.51 744.966C2999.03 745.807 2998.79 746.745 2998.77 747.779V752.057C2998.77 753.352 2999.01 754.472 2999.49 755.415C2999.98 756.358 3000.67 757.085 3001.55 757.597C3002.44 758.108 3003.49 758.364 3004.71 758.364C3005.51 758.364 3006.25 758.25 3006.92 758.023C3007.59 757.796 3008.17 757.455 3008.64 757C3009.12 756.546 3009.48 755.989 3009.73 755.33L3016.45 755.773C3016.11 757.387 3015.41 758.796 3014.35 760C3013.31 761.193 3011.96 762.125 3010.3 762.796C3008.65 763.455 3006.75 763.784 3004.59 763.784Z" fill="#1E1E1E"/>
<path d="M2224.06 763.273V728.364H2247.59V734.449H2231.45V742.767H2246.38V748.852H2231.45V757.188H2247.66V763.273H2224.06ZM2258.48 737.091L2263.28 746.245L2268.21 737.091H2275.66L2268.07 750.182L2275.86 763.273H2268.45L2263.28 754.222L2258.2 763.273H2250.7L2258.48 750.182L2250.98 737.091H2258.48ZM2289.95 763.784C2287.27 763.784 2284.96 763.216 2283.03 762.08C2281.11 760.932 2279.63 759.341 2278.6 757.307C2277.57 755.273 2277.06 752.932 2277.06 750.284C2277.06 747.602 2277.58 745.25 2278.61 743.227C2279.66 741.193 2281.14 739.608 2283.06 738.472C2284.98 737.324 2287.27 736.75 2289.92 736.75C2292.2 736.75 2294.2 737.165 2295.92 737.995C2297.63 738.824 2298.99 739.989 2299.99 741.489C2300.99 742.989 2301.54 744.75 2301.64 746.773H2294.79C2294.6 745.466 2294.09 744.415 2293.26 743.62C2292.44 742.813 2291.36 742.409 2290.03 742.409C2288.91 742.409 2287.93 742.716 2287.09 743.33C2286.26 743.932 2285.61 744.813 2285.14 745.972C2284.68 747.131 2284.44 748.534 2284.44 750.182C2284.44 751.852 2284.67 753.273 2285.13 754.443C2285.59 755.614 2286.25 756.506 2287.09 757.12C2287.93 757.733 2288.91 758.04 2290.03 758.04C2290.86 758.04 2291.61 757.87 2292.27 757.529C2292.94 757.188 2293.49 756.693 2293.92 756.046C2294.36 755.387 2294.65 754.597 2294.79 753.676H2301.64C2301.53 755.676 2300.98 757.438 2300.01 758.96C2299.04 760.472 2297.71 761.654 2296 762.506C2294.3 763.358 2292.28 763.784 2289.95 763.784ZM2317.31 763.784C2314.62 763.784 2312.3 763.239 2310.36 762.148C2308.43 761.046 2306.94 759.489 2305.89 757.477C2304.85 755.455 2304.32 753.063 2304.32 750.301C2304.32 747.608 2304.85 745.245 2305.89 743.21C2306.94 741.176 2308.41 739.591 2310.31 738.455C2312.22 737.318 2314.45 736.75 2317.02 736.75C2318.75 736.75 2320.36 737.029 2321.85 737.585C2323.35 738.131 2324.65 738.955 2325.77 740.057C2326.89 741.159 2327.77 742.546 2328.39 744.216C2329.02 745.875 2329.33 747.818 2329.33 750.046V752.04H2307.22V747.54H2322.49C2322.49 746.495 2322.27 745.568 2321.81 744.762C2321.36 743.955 2320.73 743.324 2319.92 742.87C2319.12 742.404 2318.2 742.171 2317.14 742.171C2316.04 742.171 2315.06 742.426 2314.21 742.938C2313.37 743.438 2312.71 744.114 2312.23 744.966C2311.76 745.807 2311.51 746.745 2311.5 747.779V752.057C2311.5 753.352 2311.74 754.472 2312.22 755.415C2312.7 756.358 2313.39 757.085 2314.28 757.597C2315.16 758.108 2316.22 758.364 2317.43 758.364C2318.24 758.364 2318.98 758.25 2319.65 758.023C2320.32 757.796 2320.89 757.455 2321.37 757C2321.85 756.546 2322.21 755.989 2322.46 755.33L2329.18 755.773C2328.83 757.387 2328.14 758.796 2327.08 760C2326.03 761.193 2324.68 762.125 2323.02 762.796C2321.37 763.455 2319.47 763.784 2317.31 763.784ZM2340.42 728.364V763.273H2333.16V728.364H2340.42ZM2352.58 728.364V763.273H2345.32V728.364H2352.58ZM2369.42 763.784C2366.73 763.784 2364.41 763.239 2362.47 762.148C2360.53 761.046 2359.04 759.489 2358 757.477C2356.95 755.455 2356.43 753.063 2356.43 750.301C2356.43 747.608 2356.95 745.245 2358 743.21C2359.04 741.176 2360.52 739.591 2362.41 738.455C2364.32 737.318 2366.56 736.75 2369.13 736.75C2370.86 736.75 2372.47 737.029 2373.95 737.585C2375.45 738.131 2376.76 738.955 2377.87 740.057C2379 741.159 2379.87 742.546 2380.5 744.216C2381.12 745.875 2381.44 747.818 2381.44 750.046V752.04H2359.33V747.54H2374.6C2374.6 746.495 2374.37 745.568 2373.92 744.762C2373.47 743.955 2372.83 743.324 2372.03 742.87C2371.23 742.404 2370.31 742.171 2369.25 742.171C2368.15 742.171 2367.17 742.426 2366.32 742.938C2365.48 743.438 2364.82 744.114 2364.34 744.966C2363.86 745.807 2363.62 746.745 2363.61 747.779V752.057C2363.61 753.352 2363.85 754.472 2364.32 755.415C2364.81 756.358 2365.5 757.085 2366.39 757.597C2367.27 758.108 2368.32 758.364 2369.54 758.364C2370.35 758.364 2371.08 758.25 2371.75 758.023C2372.43 757.796 2373 757.455 2373.48 757C2373.95 756.546 2374.32 755.989 2374.57 755.33L2381.28 755.773C2380.94 757.387 2380.24 758.796 2379.19 760C2378.14 761.193 2376.79 762.125 2375.13 762.796C2373.48 763.455 2371.58 763.784 2369.42 763.784ZM2392.52 748.137V763.273H2385.26V737.091H2392.18V741.71H2392.49C2393.07 740.188 2394.04 738.983 2395.41 738.097C2396.77 737.199 2398.42 736.75 2400.37 736.75C2402.18 736.75 2403.77 737.148 2405.12 737.943C2406.47 738.739 2407.52 739.875 2408.27 741.352C2409.02 742.818 2409.4 744.568 2409.4 746.602V763.273H2402.14V747.898C2402.15 746.296 2401.74 745.046 2400.91 744.148C2400.08 743.239 2398.94 742.784 2397.48 742.784C2396.51 742.784 2395.64 742.995 2394.89 743.415C2394.16 743.835 2393.58 744.449 2393.16 745.256C2392.75 746.051 2392.54 747.012 2392.52 748.137ZM2428.14 737.091V742.546H2412.37V737.091H2428.14ZM2415.95 730.818H2423.21V755.227C2423.21 755.898 2423.31 756.421 2423.52 756.796C2423.72 757.159 2424.01 757.415 2424.37 757.563C2424.74 757.71 2425.18 757.784 2425.67 757.784C2426.01 757.784 2426.35 757.756 2426.69 757.699C2427.03 757.631 2427.29 757.58 2427.47 757.546L2428.61 762.949C2428.25 763.063 2427.74 763.193 2427.08 763.341C2426.42 763.5 2425.62 763.597 2424.68 763.631C2422.93 763.699 2421.39 763.466 2420.07 762.932C2418.77 762.398 2417.75 761.568 2417.02 760.443C2416.3 759.318 2415.94 757.898 2415.95 756.182V730.818Z" fill="#1E1E1E"/>
<circle cx="789" cy="441" r="16" fill="#F24822"/>
<circle cx="1045" cy="441" r="16" fill="#FFA629"/>
<circle cx="1045" cy="657" r="32" fill="#FFA629"/>
<path d="M1045 621V461" stroke="#FFA629" stroke-width="3" stroke-linecap="round"/>
<circle cx="789" cy="441" r="16" fill="#F24822"/>
<circle cx="789" cy="657" r="32" fill="#F24822"/>
<path d="M789 621V461" stroke="#F24822" stroke-width="3" stroke-linecap="round"/>
<circle cx="1557" cy="441" r="16" fill="#FFCD29"/>
<circle cx="1557" cy="657" r="32" fill="#FFCD29"/>
<path d="M1557 621V461" stroke="#FFCD29" stroke-width="3" stroke-linecap="round"/>
<circle cx="2069" cy="441" r="16" fill="#0D99FF"/>
<circle cx="2069" cy="657" r="32" fill="#0D99FF"/>
<path d="M2069 621V461" stroke="#0D99FF" stroke-width="3" stroke-linecap="round"/>
<circle cx="2837" cy="441" r="16" fill="#9747FF"/>
<circle cx="2837" cy="657" r="32" fill="#9747FF"/>
<path d="M2837 621V461" stroke="#9747FF" stroke-width="3" stroke-linecap="round"/>
<circle cx="2325.5" cy="441" r="16" fill="#14AE5C"/>
<circle cx="2325.5" cy="657" r="32" fill="#14AE5C"/>
<path d="M2325.5 621V461" stroke="#14AE5C" stroke-width="3" stroke-linecap="round"/>
<circle cx="1992" cy="153" r="119" fill="#FFE8A3"/>
<path d="M1936.64 234.683L1986.63 334.683C1988.84 339.106 1995.16 339.106 1997.37 334.683L2047.36 234.683C2049.35 230.694 2046.45 226 2041.99 226H1942.01C1937.55 226 1934.65 230.694 1936.64 234.683Z" fill="#FFE8A3"/>
<path d="M1930.57 175.728L1949.86 137.546V137.228H1927.39V129.182H1960.05V137.341L1940.73 175.728H1930.57ZM1965.38 175.728V168.637L1981.95 153.296C1983.36 151.932 1984.54 150.705 1985.5 149.614C1986.47 148.523 1987.2 147.455 1987.7 146.409C1988.2 145.349 1988.45 144.205 1988.45 142.978C1988.45 141.614 1988.14 140.44 1987.52 139.455C1986.9 138.455 1986.05 137.69 1984.97 137.159C1983.9 136.614 1982.68 136.341 1981.31 136.341C1979.89 136.341 1978.65 136.629 1977.59 137.205C1976.53 137.781 1975.71 138.606 1975.13 139.682C1974.56 140.758 1974.27 142.038 1974.27 143.523H1964.93C1964.93 140.478 1965.62 137.834 1967 135.591C1968.38 133.349 1970.31 131.614 1972.79 130.387C1975.28 129.159 1978.14 128.546 1981.38 128.546C1984.72 128.546 1987.62 129.137 1990.09 130.318C1992.57 131.485 1994.5 133.106 1995.88 135.182C1997.26 137.258 1997.95 139.637 1997.95 142.318C1997.95 144.076 1997.6 145.811 1996.91 147.523C1996.22 149.235 1995 151.137 1993.25 153.228C1991.49 155.303 1989.01 157.796 1985.81 160.705L1979.02 167.364V167.682H1998.56V175.728H1965.38ZM2010.04 176.318C2008.54 176.318 2007.25 175.788 2006.17 174.728C2005.11 173.652 2004.58 172.364 2004.58 170.864C2004.58 169.379 2005.11 168.106 2006.17 167.046C2007.25 165.985 2008.54 165.455 2010.04 165.455C2011.49 165.455 2012.76 165.985 2013.86 167.046C2014.95 168.106 2015.49 169.379 2015.49 170.864C2015.49 171.864 2015.23 172.781 2014.72 173.614C2014.22 174.432 2013.56 175.091 2012.74 175.591C2011.92 176.076 2011.02 176.318 2010.04 176.318ZM2038.57 176.364C2035.35 176.364 2032.49 175.773 2029.98 174.591C2027.48 173.409 2025.49 171.781 2024.02 169.705C2022.55 167.629 2021.79 165.25 2021.73 162.568H2031.27C2031.38 164.371 2032.14 165.834 2033.54 166.955C2034.95 168.076 2036.63 168.637 2038.57 168.637C2040.11 168.637 2041.48 168.296 2042.66 167.614C2043.85 166.917 2044.79 165.955 2045.45 164.728C2046.14 163.485 2046.48 162.061 2046.48 160.455C2046.48 158.818 2046.13 157.379 2045.43 156.137C2044.75 154.894 2043.8 153.925 2042.59 153.228C2041.38 152.531 2039.99 152.175 2038.43 152.159C2037.07 152.159 2035.74 152.44 2034.45 153C2033.18 153.561 2032.19 154.326 2031.48 155.296L2022.73 153.728L2024.93 129.182H2053.39V137.228H2033.04L2031.84 148.887H2032.11C2032.93 147.735 2034.17 146.781 2035.82 146.023C2037.47 145.265 2039.32 144.887 2041.36 144.887C2044.17 144.887 2046.67 145.546 2048.86 146.864C2051.06 148.182 2052.79 149.993 2054.07 152.296C2055.34 154.584 2055.97 157.22 2055.95 160.205C2055.97 163.341 2055.24 166.129 2053.77 168.568C2052.32 170.993 2050.28 172.902 2047.66 174.296C2045.05 175.675 2042.02 176.364 2038.57 176.364Z" fill="#1E1E1E"/>
</svg>
