<?xml version="1.0" encoding="utf-8"?>
<!-- Generator: Adobe Illustrator 16.0.0, SVG Export Plug-In . SVG Version: 6.00 Build 0)  -->
<!DOCTYPE svg PUBLIC "-//W3C//DTD SVG 1.1//EN" "http://www.w3.org/Graphics/SVG/1.1/DTD/svg11.dtd">
<svg version="1.1" xmlns="http://www.w3.org/2000/svg" xmlns:xlink="http://www.w3.org/1999/xlink" x="0px" y="0px"
	 width="566.929px" height="566.93px" viewBox="0 0 566.929 566.93" enable-background="new 0 0 566.929 566.93"
	 xml:space="preserve">
<g id="Background">
	<path fill-rule="evenodd" clip-rule="evenodd" fill="#CC46BF" stroke="#FFFFFF" stroke-miterlimit="10" d="M320.586,208.002
		c2.728,0.705,5.232-1.405,4.959-4.202c-0.191-1.952-0.648-3.885-0.382-5.869c0.736-5.464,3.565-8.953,9.773-9.052
		c0.908-0.016,1.76,0.088,2.597,0.406c1.046,0.39,2.093,0.779,3.139,1.167c0.187,0.107,0.375,0.213,0.563,0.316
		c0.695,0.65,1.392,1.299,2.089,1.947c1.459,2.015,2.64,4.126,2.328,6.75c0.155,1.989-0.465,3.658-1.751,5.229
		c-0.777,0.95-1.832,1.672-2.374,2.813c-1.669,1.233-3.396,2.438-2.92,4.933c0.25,1.321,0.873,2.379,2.195,2.896
		c0.345,0.497,0.93,0.545,1.428,0.727c6.953,2.534,13.909,5.055,20.862,7.577c-0.303,0.892-0.595,1.79-0.916,2.676
		c-7.401,20.418-14.816,40.828-22.185,61.258c-0.381,1.054-0.732,1.223-1.779,0.841c-20.963-7.646-41.941-15.251-62.915-22.87
		c-0.278-0.1-0.544-0.236-0.817-0.353c0.527-0.44,0.69-1.075,0.91-1.682c2.474-6.819,4.987-13.624,7.391-20.471
		c0.565-1.609,1.548-2.587,3.146-2.741c1.445-0.139,2.468,0.465,3.6,1.702c2.696,2.954,5.759,5.638,10.21,5.651
		c2.861,0.007,6.966-2.847,8.299-5.807c1.299-2.882,1.661-5.797,0.558-8.813c-1.458-3.986-4.875-6.923-9.562-6.333
		c-1.521,0.191-3.054,0.261-4.579,0.472c-2.939,0.408-5.041-2.279-4.039-5.063c2.458-6.824,4.966-13.634,7.386-20.473
		c0.411-1.162,0.866-1.399,2.028-0.968c6.381,2.37,12.79,4.667,19.194,6.978C319.522,207.828,320,208.167,320.586,208.002z"/>
	<path fill-rule="evenodd" clip-rule="evenodd" fill="#CC46BF" stroke="#FFFFFF" stroke-miterlimit="10" d="M233.768,99.097
		c-2.804,0.268-4.439,3.105-3.229,5.642c0.845,1.771,1.933,3.43,2.359,5.387c1.17,5.388-0.298,9.633-6.1,11.843
		c-0.848,0.322-1.686,0.516-2.581,0.501c-1.116-0.008-2.232-0.018-3.348-0.026c-0.213-0.036-0.427-0.07-0.637-0.105
		c-0.875-0.373-1.751-0.746-2.627-1.118c-2.059-1.396-3.889-2.978-4.49-5.551c-0.825-1.817-0.811-3.598-0.138-5.515
		c0.407-1.157,1.152-2.195,1.274-3.453c1.148-1.728,2.361-3.449,1.063-5.632c-0.686-1.157-1.632-1.939-3.052-1.975
		c-0.494-0.35-1.06-0.196-1.59-0.196c-7.399-0.012-14.798-0.01-22.195-0.01c-0.019-0.942-0.051-1.885-0.051-2.828
		c-0.004-21.718,0.007-43.434-0.031-65.151c-0.001-1.122,0.272-1.398,1.386-1.396c22.314,0.039,44.628,0.037,66.942,0.047
		c0.296,0,0.592,0.036,0.888,0.055c-0.345,0.593-0.282,1.245-0.282,1.889c0,7.255-0.043,14.511,0.032,21.764
		c0.018,1.707-0.574,2.962-2.022,3.651c-1.312,0.623-2.479,0.404-3.964-0.374c-3.542-1.856-7.336-3.335-11.525-1.828
		c-2.691,0.967-5.579,5.05-5.822,8.285c-0.238,3.152,0.415,6.016,2.48,8.474c2.73,3.252,6.943,4.847,11.147,2.694
		c1.366-0.7,2.783-1.285,4.145-2.005c2.623-1.384,5.516,0.425,5.522,3.383c0.017,7.254-0.02,14.51,0.037,21.764
		c0.009,1.232-0.337,1.609-1.577,1.601c-6.807-0.051-13.615-0.025-20.423-0.015C234.828,98.897,234.262,98.741,233.768,99.097z"/>
	<path fill-rule="evenodd" clip-rule="evenodd" fill="#CC46BF" stroke="#FFFFFF" stroke-miterlimit="10" d="M279.407,71.484
		c0.793-2.702-1.234-5.273-4.039-5.093c-1.958,0.127-3.902,0.52-5.877,0.188c-5.437-0.914-8.832-3.854-8.729-10.063
		c0.015-0.906,0.146-1.758,0.493-2.582c0.423-1.033,0.845-2.066,1.269-3.099c0.113-0.185,0.224-0.371,0.335-0.552
		c0.671-0.675,1.342-1.35,2.014-2.024c2.061-1.393,4.209-2.504,6.822-2.105c1.994-0.092,3.641,0.583,5.17,1.92
		c0.924,0.809,1.61,1.885,2.732,2.466c1.178,1.709,2.326,3.473,4.835,3.078c1.329-0.206,2.406-0.794,2.967-2.1
		c0.508-0.329,0.574-0.912,0.773-1.403c2.76-6.866,5.505-13.736,8.255-20.604c0.881,0.332,1.769,0.652,2.643,1.002
		c20.165,8.064,40.324,16.144,60.501,24.176c1.042,0.415,1.196,0.771,0.78,1.804c-8.326,20.703-16.614,41.421-24.911,62.136
		c-0.11,0.274-0.253,0.536-0.382,0.804c-0.422-0.539-1.051-0.723-1.648-0.964c-6.735-2.693-13.456-5.43-20.218-8.055
		c-1.591-0.617-2.536-1.632-2.638-3.234c-0.092-1.449,0.546-2.451,1.82-3.542c3.039-2.598,5.821-5.572,5.979-10.02
		c0.101-2.86-2.617-7.058-5.531-8.483c-2.838-1.394-5.738-1.851-8.789-0.847c-4.032,1.327-7.079,4.646-6.641,9.35
		c0.142,1.528,0.16,3.062,0.321,4.592c0.311,2.951-2.443,4.964-5.192,3.872c-6.742-2.68-13.464-5.41-20.221-8.052
		c-1.148-0.449-1.369-0.91-0.9-2.059c2.577-6.301,5.082-12.631,7.601-18.955C279.198,72.541,279.552,72.075,279.407,71.484z"/>
	<path fill-rule="evenodd" clip-rule="evenodd" fill="#CC46BF" stroke="#FFFFFF" stroke-miterlimit="10" d="M257.979,122.303
		c0.267,2.803,3.105,4.438,5.642,3.227c1.77-0.843,3.429-1.932,5.386-2.358c5.388-1.171,9.632,0.298,11.843,6.1
		c0.323,0.849,0.517,1.687,0.502,2.582c-0.009,1.116-0.018,2.232-0.027,3.347c-0.036,0.213-0.071,0.427-0.106,0.638
		c-0.373,0.875-0.746,1.751-1.118,2.627c-1.396,2.059-2.978,3.89-5.551,4.49c-1.818,0.825-3.598,0.811-5.515,0.139
		c-1.157-0.407-2.195-1.153-3.453-1.275c-1.728-1.148-3.449-2.361-5.633-1.062c-1.156,0.685-1.938,1.632-1.975,3.051
		c-0.349,0.494-0.194,1.06-0.196,1.591c-0.012,7.399-0.009,14.799-0.01,22.196c-0.942,0.018-1.885,0.05-2.827,0.05
		c-21.718,0.005-43.435-0.008-65.153,0.032c-1.121,0-1.397-0.273-1.395-1.387c0.04-22.313,0.038-44.629,0.046-66.942
		c0-0.295,0.037-0.592,0.056-0.888c0.592,0.345,1.245,0.281,1.888,0.281c7.254,0,14.51,0.044,21.764-0.031
		c1.708-0.017,2.961,0.573,3.651,2.022c0.624,1.312,0.404,2.478-0.374,3.964c-1.856,3.542-3.335,7.336-1.829,11.524
		c0.969,2.691,5.05,5.579,8.287,5.822c3.152,0.238,6.015-0.414,8.474-2.48c3.251-2.729,4.847-6.942,2.693-11.146
		c-0.699-1.366-1.286-2.782-2.004-4.145c-1.385-2.624,0.424-5.517,3.382-5.522c7.254-0.017,14.51,0.02,21.764-0.037
		c1.233-0.009,1.61,0.337,1.601,1.576c-0.051,6.807-0.026,13.616-0.015,20.423C257.78,121.243,257.625,121.809,257.979,122.303z"/>
</g>
<g id="图层_2">
	<ellipse fill-rule="evenodd" clip-rule="evenodd" fill="#EDE1FF" cx="283.856" cy="507.108" rx="172.095" ry="59.821"/>
</g>
<g id="图层_1">
	<path fill-rule="evenodd" clip-rule="evenodd" fill="#ACB3C1" d="M421.85,427.289c5.372,4.346,5.807,8.142,0.817,14.124
		c-3.675,4.404-7.353,8.796-8.629,14.424c-0.815,3.598-2.906,5.247-5.952,6.38c-2.996-2.953-6.894-3.977-10.773-5.038
		c0.934-4.864,2.439-9.667,1.646-14.726c6.73,1.513,11.478-1.23,14.95-6.866c0.537-0.87,1.476-1.487,2.198-2.251
		C417.233,432.146,420.976,426.649,421.85,427.289"/>
	<path fill-rule="evenodd" clip-rule="evenodd" fill="#101010" d="M408.086,462.217c3.045-1.133,5.136-2.782,5.952-6.38
		c1.277-5.628,4.955-10.02,8.629-14.424c4.99-5.982,4.555-9.778-0.817-14.124c1.848-2.515,3.721-5.02,5.537-7.563
		c1.351-1.894,3.059-2.748,5.393-2.188c2.498,0.601,2.909,2.656,3.355,4.706c0.441,2.026,0.896,4.05,1.344,6.071
		c-2.813,12.445-11.345,21.846-17.458,32.524C417.117,465.913,414.143,466.027,408.086,462.217z"/>
	<path fill-rule="evenodd" clip-rule="evenodd" fill="#253F61" d="M398.959,442.453c0.793,5.059-0.712,9.861-1.646,14.726
		c-0.461,0.115-0.922,0.23-1.384,0.346c-0.5-0.155-1-0.312-1.5-0.468c0.421-4.971,0.844-9.943,1.265-14.917
		C396.782,442.244,397.87,442.348,398.959,442.453z"/>
	<path fill-rule="evenodd" clip-rule="evenodd" fill="#ACB3C1" d="M394.429,457.057c0.5,0.156,1.001,0.313,1.5,0.468
		c-0.533,0.313-1.066,0.626-1.601,0.94C394.361,457.996,394.395,457.527,394.429,457.057z"/>
	<path fill-rule="evenodd" clip-rule="evenodd" fill="#101010" d="M416.104,323.885c-0.337-6.724,2.234-12.727,5.173-18.448
		c2.458-4.789,6.88-4.541,9.756,0.119c3.617,5.855,3.204,12.164,1.079,18.204c-2.157,6.133-2.718,11.985-1.202,18.39
		c1.036,4.379,0.149,8.741-6.246,8.104c-1.111-7.838-1.44-15.702-1.12-23.619c0.093-2.294,1.289-5.341-1.826-6.566
		C418.373,318.753,418.074,322.721,416.104,323.885z"/>
	<path fill-rule="evenodd" clip-rule="evenodd" fill="#ACB3C1" d="M416.104,323.885c1.971-1.164,2.27-5.132,5.615-3.817
		c3.115,1.226,1.919,4.272,1.826,6.566c-0.32,7.917,0.009,15.781,1.12,23.619c-2.954,1.552-5.908,3.103-8.86,4.652
		c-1.668-4.96-3-10.076-6.771-14.016C411.39,335.222,413.747,329.553,416.104,323.885z"/>
	<path fill-rule="evenodd" clip-rule="evenodd" fill="#253F61" d="M409.034,340.89c3.771,3.939,5.103,9.056,6.771,14.016
		c-4.518,1.957-0.796,7.007-3.608,9.603c0.665-8.892-3.135-16.587-6.544-24.387C406.673,340.843,407.53,342.287,409.034,340.89z"/>
	<path fill-rule="evenodd" clip-rule="evenodd" fill="#253F61" d="M412.171,364.525"/>
	<path fill-rule="evenodd" clip-rule="evenodd" fill="#F79B78" d="M248.052,365.539c2.722-4.244,5.431-8.496,8.169-12.729
		c5.692-8.799,17.003-11.288,26.171-6.126c2.783,1.567,3.124,3.612,2.971,6.232c-3.466,3.444-3.851,8.464-6.335,12.42
		c-1.217,1.936-1.669,4.338-3.562,5.871c-2.818-4.224-6.727-7.319-11.668-7.82c-3.337-0.339-8.678-2.506-9.862,2.339
		c-0.932,3.81,3.175,6.271,6.926,7.543c-1.168,1.687-2.337,3.372-3.506,5.058C254.255,374.065,251.154,369.803,248.052,365.539z"/>
	<path fill-rule="evenodd" clip-rule="evenodd" fill="#E45925" d="M275.404,371.507c-2.695,0.374-5.465,0.909-8.027-0.279
		c-2.927-1.356-4.708,0.208-6.515,2.042c-3.751-1.271-7.858-3.733-6.926-7.543c1.184-4.845,6.525-2.678,9.862-2.339
		c4.941,0.501,8.851,3.597,11.668,7.82C275.469,371.209,275.404,371.507,275.404,371.507z"/>
	<path fill-rule="evenodd" clip-rule="evenodd" fill="#FD4D0F" d="M237.708,409.598c0.057-0.156,0.108-0.442,0.17-0.445
		c0.181-0.007,0.365,0.101,0.548,0.164c-0.057,0.156-0.108,0.441-0.171,0.443C238.075,409.768,237.891,409.66,237.708,409.598z"/>
	<path fill-rule="evenodd" clip-rule="evenodd" fill="#DDEDFA" d="M262.381,387.011c1.001,2.55,2.001,5.1,3.001,7.65
		c-0.98,0.933-1.962,1.866-2.944,2.8c-7.685,2.17-14.189,6.624-22.542,10.347c4.684,1.637,7.279-1.963,11.434-0.057
		c-17.323,11.876-33.44,24.082-51.508,33.593c2.437,0.478,4.695,0.387,6.943,0.5c3.224,0.162,6.395-2.962,9.648-0.15
		c-6.349,5.355-13.801,8.529-21.642,10.936c-0.267-0.046-0.536-0.074-0.81-0.087c-0.562-0.18-1.121-0.357-1.68-0.534
		c-0.912-0.554-1.822-1.106-2.732-1.657c-0.451-0.386-0.903-0.775-1.354-1.163c-2.852-2.121-4.045-4.999-3.888-8.498
		c0.094-0.643,0.188-1.283,0.282-1.925c3.267-4.379,4.985-9.477,6.731-14.559c5.721-1.75,6.655-6.762,7.296-11.53
		c1.144-8.515,1.766-17.1,2.62-25.656c0.712-7.137,4.54-13.362,5.386-20.647c1.08-9.294,0.649-18.512,0.952-27.759
		c0.133-4.094,0.131-8.193,0.192-12.289c0.843-3.791,2.493-7.185,5.004-10.152c5.36-3.691,7.521-9.869,11.165-14.847
		c5.922-8.088,13.45-13.78,22.083-18.391c2.225-1.189,4.514-2.375,6.454-3.955c4.723-3.853,9.237-8.308,14.1-0.198
		c0.203,0.337,1.185,0.208,1.804,0.295c3.082,2.683,1.538,4.29-1.039,6.328c-9.484,7.496-18.044,15.887-23.9,26.667
		c-1.896,0.734-3.071,2.191-3.871,3.974c-5.086,11.315-7.029,22.842-2.016,34.725c2.397,5.684,3.883,12.067,10.502,14.77
		c3.102,4.264,6.203,8.526,9.304,12.788C257.922,381.864,258.824,385.207,262.381,387.011z M237.708,409.598
		c0.183,0.063,0.367,0.17,0.547,0.162c0.063-0.002,0.114-0.287,0.171-0.443c-0.183-0.063-0.367-0.171-0.548-0.164
		C237.816,409.155,237.765,409.441,237.708,409.598z"/>
	<g>
		<g>
			<g>
				<path fill-rule="evenodd" clip-rule="evenodd" fill="#85B8E3" d="M194.534,378.653c3.252-0.571,2.877-3.072,2.912-5.4
					c0.229-15.306,3.645-29.988,8.735-44.333c0.332-0.936,1.049-1.734,1.585-2.596c-0.061,4.096-0.059,8.195-0.192,12.289
					c-0.302,9.247,0.128,18.465-0.952,27.759c-0.846,7.285-4.673,13.511-5.386,20.647c-0.854,8.557-1.476,17.142-2.62,25.656
					c-0.641,4.769-1.575,9.78-7.296,11.531l-0.367-0.063c0.022-0.834,0.044-1.667,0.067-2.5
					C192.668,407.353,196.189,393.216,194.534,378.653z"/>
			</g>
			<g>
				<path fill-rule="evenodd" clip-rule="evenodd" fill="#85B8E3" d="M262.321,270.558c2.078,2.62,4.154,5.239,6.23,7.856
					c-0.017,0.23-0.076,0.451-0.176,0.662c-0.619-0.087-1.601,0.042-1.804-0.295c-4.863-8.109-9.377-3.654-14.1,0.198
					c-1.939,1.58-4.229,2.766-6.454,3.955c-8.632,4.61-16.16,10.303-22.083,18.391c-3.644,4.978-5.805,11.155-11.164,14.847
					c0.229-5.817,6.497-9.147,6.246-15.162c5.411-6.209,10.821-12.42,16.229-18.625c6.157-4.929,12.337-9.835,18.468-14.804
					c2.2-1.781,4.245-2.229,6.27,0.169C260.76,268.686,261.541,269.621,262.321,270.558z"/>
			</g>
			<g>
				<path fill-rule="evenodd" clip-rule="evenodd" fill="#85B8E3" d="M216.413,441.693c-3.253-2.812-6.424,0.313-9.648,0.15
					c-2.248-0.113-4.506-0.022-6.943-0.5c18.068-9.511,34.185-21.717,51.508-33.593c-4.155-1.906-6.75,1.693-11.434,0.057
					c8.353-3.723,14.857-8.177,22.542-10.347c-2.226,4.968-6.589,8.116-10.292,11.759
					C240.671,420.515,230.422,433.181,216.413,441.693z"/>
			</g>
		</g>
	</g>
	<path fill-rule="evenodd" clip-rule="evenodd" fill="#421E9B" d="M337.436,395.944c-2.884,2.063-6.085,3.769-8.176,6.795
		c-10.015,7.791-18.489,16.875-24.72,28.814c28.919-2.638,56.753,0.229,84.558,3.897c4.21,0.557,7.429,1.459,6.596,6.689
		c-0.422,4.973-0.844,9.945-1.266,14.916c-0.034,0.471-0.067,0.939-0.1,1.409c-1.434,4.656-4.009,5.954-9.301,5.617
		c-36.678-2.324-72.353,1.051-104.673,20.896c-6.726,4.129-52.481,26.3-80.618-22.744c-0.439-0.448-3.75-6.852-4.964-9.605
		c7.841-2.406,15.293-5.58,21.642-10.936c14.009-8.513,24.258-21.179,35.734-32.474c3.703-3.643,8.066-6.791,10.292-11.759
		c0.982-0.934,1.963-1.867,2.944-2.802c11.159-13.302,24.214-23.711,41.622-27.651c2.829-0.641,5.512-1.924,8.262-2.911
		c19.81-6.018,39.616-12.044,59.429-18.048c8.418-2.551,16.868-5.002,25.268-7.611c2.397-0.744,4.521-1.369,5.688,1.684
		c3.409,7.8,7.209,15.495,6.544,24.387l-0.025,0.018C410.728,365.074,358.824,380.644,337.436,395.944z"/>
	<path fill-rule="evenodd" clip-rule="evenodd" fill="#4839B7" d="M184.945,374.476c-10.423-7.506-20.829-15.034-31.273-22.51
		c-11.126-7.963-13.307-12.786-9.474-25.762c4.712-15.954,14.387-28.663,28.446-37.524c10.563-6.657,21.359-5.086,31.479,1.628
		c5.09,3.377,9.937,7.123,14.894,10.702c0.251,6.015-6.017,9.345-6.247,15.162c-2.511,2.968-4.161,6.361-5.003,10.154
		c-0.537,0.859-1.254,1.658-1.586,2.594c-5.091,14.345-8.506,29.027-8.735,44.333c-0.035,2.328,0.34,4.829-2.912,5.4
		C191.338,377.261,188.142,375.869,184.945,374.476z"/>
	<path fill-rule="evenodd" clip-rule="evenodd" fill="#4839B7" d="M248.052,365.539c-6.62-2.702-8.105-9.086-10.502-14.77
		c-5.014-11.883-3.07-23.409,2.016-34.725c0.8-1.782,1.975-3.239,3.871-3.974c9.282,2.536,19.105,2.255,28.27,5.313
		c9.769,3.263,18.656,7.761,22.665,18.224c3.011,7.857-0.833,15.2-9.007,17.309c0.153-2.62-0.188-4.665-2.971-6.232
		c-9.168-5.162-20.479-2.673-26.171,6.126C253.483,357.043,250.774,361.295,248.052,365.539z"/>
	<path fill-rule="evenodd" clip-rule="evenodd" fill="#4839B7" d="M257.356,378.327c1.168-1.686,2.337-3.371,3.506-5.058
		c1.806-1.834,3.587-3.398,6.515-2.042c2.563,1.188,5.332,0.653,8.027,0.279c-2.119,7.035-7.868,11.023-13.023,15.506
		C258.824,385.207,257.922,381.864,257.356,378.327z"/>
	<path fill-rule="evenodd" clip-rule="evenodd" fill="#F79B78" d="M287.317,248.991c3.505,2.956-1.416,7.442,0.74,11.577
		c0.303,1.028,0.61,2.056,0.917,3.082c-0.057,0.914-0.115,1.827-0.172,2.74c-1.645,5.136-6.126,8.128-6.831,8.206
		c-5.124-0.101-10.807-2.424-13.42,3.819c-2.078-2.619-6.49-8.047-8.568-10.666c2.396-0.496,2.831-2.521,4.63-7.178
		C266.626,255.545,283.425,245.712,287.317,248.991z"/>
</g>
</svg>
