<?xml version="1.0" encoding="utf-8"?>
<!-- Generator: Adobe Illustrator 16.0.0, SVG Export Plug-In . SVG Version: 6.00 Build 0)  -->
<!DOCTYPE svg PUBLIC "-//W3C//DTD SVG 1.1//EN" "http://www.w3.org/Graphics/SVG/1.1/DTD/svg11.dtd">
<svg version="1.1" xmlns="http://www.w3.org/2000/svg" xmlns:xlink="http://www.w3.org/1999/xlink" x="0px" y="0px"
	 width="566.929px" height="566.93px" viewBox="0 0 566.929 566.93" enable-background="new 0 0 566.929 566.93"
	 xml:space="preserve">
<g id="Background">
	<polygon fill-rule="evenodd" clip-rule="evenodd" fill="#91148B" points="350.518,159.147 350.518,93.777 246.149,47.096 
		246.149,112.463 	"/>
	<polygon fill-rule="evenodd" clip-rule="evenodd" fill="#CC46BF" points="350.518,93.777 405.245,71.025 405.245,137.418 
		350.518,159.147 	"/>
	<polygon fill-rule="evenodd" clip-rule="evenodd" fill="#F980F9" points="350.518,93.777 405.245,71.025 302.854,26.646 
		246.149,47.096 	"/>
	<polygon fill-rule="evenodd" clip-rule="evenodd" fill="#CC46BF" points="165.02,245.19 309.107,186.859 309.107,253.25 
		165.02,310.56 	"/>
	<polygon fill-rule="evenodd" clip-rule="evenodd" fill="#91148B" points="165.02,310.56 165.02,245.19 116.304,223.91 
		116.304,289.276 	"/>
	<polygon fill-rule="evenodd" clip-rule="evenodd" fill="#F980F9" points="165.02,245.038 309.107,186.86 262.744,167.676 
		115.406,223.552 	"/>
	<g>
		<circle fill-rule="evenodd" clip-rule="evenodd" fill="#91148B" cx="282.237" cy="134.573" r="22.674"/>
		<g>
			<defs>
				<circle id="SVGID_1_" cx="289.762" cy="121.271" r="27.823"/>
			</defs>
			<clipPath id="SVGID_2_">
				<use xlink:href="#SVGID_1_"  overflow="visible"/>
			</clipPath>
			<path clip-path="url(#SVGID_2_)" fill-rule="evenodd" clip-rule="evenodd" fill="#CC46BF" d="M304.812,134.536
				c0,12.525-10.15,22.676-22.673,22.676c-12.523,0-22.675-10.15-22.675-22.676c0-12.521,10.151-22.671,22.675-22.671
				C294.661,111.865,304.812,122.016,304.812,134.536z"/>
		</g>
	</g>
	<g>
		<circle fill-rule="evenodd" clip-rule="evenodd" fill="#91148B" cx="162.496" cy="196.427" r="35.33"/>
		<g>
			<defs>
				<circle id="SVGID_3_" cx="174.221" cy="175.698" r="43.353"/>
			</defs>
			<clipPath id="SVGID_4_">
				<use xlink:href="#SVGID_3_"  overflow="visible"/>
			</clipPath>
			
				<circle clip-path="url(#SVGID_4_)" fill-rule="evenodd" clip-rule="evenodd" fill="#CC46BF" cx="162.341" cy="196.372" r="35.331"/>
		</g>
	</g>
</g>
<g id="图层_2">
	<ellipse fill-rule="evenodd" clip-rule="evenodd" fill="#EDE1FF" cx="282.392" cy="506.644" rx="172.095" ry="59.821"/>
</g>
<g id="图层_1">
	<path fill-rule="evenodd" clip-rule="evenodd" fill="#85B8E3" d="M362.588,327.335c8.71,6.291,19.472,8.697,28.221,14.929
		c11.99,8.539,18.24,20.033,18.539,34.852c0.308,15.274-1.399,30.301-4.92,45.128c-2.189,9.23-5.091,18.277-6.79,27.646
		c-1.54,8.5-7.418,15.536-8.458,24.338c-0.32,2.711-2.85,4.575-5.736,5.31c-9.713-13.337-23.217-21.897-37.37-29.638
		c-0.629-0.764-1.352-1.32-2.424-1.13l0.124-0.02c-1.805-2.677-5.805-2.182-7.611-5.211c2.016-0.945,4.021-1.641,5.761-2.753
		c3.287-2.102,3.118-3.802-0.88-4.646c-0.156-0.388-0.448-0.564-0.87-0.532c-0.576-0.647-1.208-1.144-2.15-0.769l0.146-0.013
		c-4.086-1.273-6.149-4.144-6.576-8.314c-0.584-5.701-3.475-6.767-8.985-5.771c-10.598,1.914-10.65,1.519-13.699-8.399
		c-0.484-1.579-1.235-3.078-1.862-4.615c13.242-0.722,19.768-7.363,21.738-20.864c1.591-10.889,6.06-21.418,11.365-31.259
		c2.242-4.162-0.743-8.863,2.089-12.728C351.457,340.887,357.627,334.901,362.588,327.335z"/>
	<path fill-rule="evenodd" clip-rule="evenodd" fill="#421E9B" d="M346.073,449.898c14.153,7.74,27.657,16.301,37.37,29.638
		c-9.614,26.722-38.232,34.574-63.222,17.276c-11.471-7.94-23.006-15.806-34.177-24.153c-5.768-4.306-11.545-5.198-18.41-3.781
		c-18.417,3.8-36.907,7.238-55.381,10.756c-1.68,0.32-3.748,1.687-4.929-0.956c3.266-1.294,3.001-4.387,3.295-6.988
		c0.38-3.34,0.349-6.734,0.365-10.107c0.012-2.946,1.305-4.456,4.198-5.395c9.812-3.182,19.817-6.139,29.228-10.103
		c14.738-6.208,26.534-4.229,37.351,7.327c3.915,4.183,8.756,6.942,15.196,4.797c3.733-1.243,7.875-1.189,11.741-2.105
		c11.632-2.754,23.849-2.698,35.074-7.354c0,0-0.124,0.02-0.126,0.023C344.072,449.979,345.034,450.022,346.073,449.898z"/>
	<path fill-rule="evenodd" clip-rule="evenodd" fill="#F79B78" d="M362.588,327.335c-4.961,7.566-11.131,13.552-20.35,15.54
		c-2.469-2.558-4.646,0.248-6.925,0.498c-2.123,0.231-4.001,0.469-5.502-0.319c-1.027-0.538-1.878-1.558-2.509-3.389
		c-0.977-2.823-3.19-6.006-6.03-6.812c-5.919-1.68-4.412-5.298-4.436-9.667c-0.039-6.966-3.013-13.78-1.836-20.981
		c0.176-1.071-1.084-1.342-2.174-1.693c-4.891-1.566-6.199-5.48-5.4-10.007c0.832-4.705,3.826-8.536,8.634-8.669
		c8.957-0.248,17.766-0.291,26.613-2.592c5.373-1.394,10.847,0.025,12.586,7.103c0.621,2.521,2.307,4.896,3.908,7.035
		c3.973,5.307,3.825,10.798,1.35,16.566C357.865,316.133,357.517,322.062,362.588,327.335z"/>
	<path fill-rule="evenodd" clip-rule="evenodd" fill="#101010" d="M343.773,448.749c-11.226,4.656-23.442,4.601-35.074,7.354
		c-3.866,0.916-8.008,0.862-11.741,2.105c-6.44,2.146-11.281-0.614-15.196-4.797c-10.816-11.556-22.612-13.535-37.351-7.327
		c-9.41,3.964-19.416,6.921-29.228,10.103c-2.894,0.938-4.187,2.448-4.198,5.395c-0.017,3.373,0.015,6.768-0.365,10.107
		c-0.294,2.602-0.029,5.694-3.295,6.988c-3.886,0.953-7.742,2.122-11.827,1.588c-0.793-2.369-1.862-4.684-2.32-7.113
		c-0.936-4.967-2.962-10.36,5.003-11.995c3.171-0.65,1.861-2.967,0.247-4.633c-1.723-1.783-5.158-2.431-4.048-6.098
		c1.783-0.565,3.568-1.13,5.352-1.695c10.35-3.403,20.69-6.842,31.053-10.205c7.183-2.329,14.427-4.307,22.104-4.106
		c1.539,0.039,3.521,0.041,3.842-2.306c8.956,3.918,16.333,10.333,23.831,16.255c6.745,5.328,11.987,6.998,20.445,3.066
		c11.529-5.358,24.134-8.409,36.276-12.45c1.575-0.524,3.358-0.771,3.758-2.848c4,0.846,4.169,2.546,0.882,4.647
		c-1.74,1.112-3.745,1.808-5.761,2.753C337.969,446.567,341.969,446.072,343.773,448.749z"/>
	<path fill-rule="evenodd" clip-rule="evenodd" fill="#101010" d="M275.427,415.559c4.734-5.451,11.419-5.509,17.793-6.497
		c3.065-0.478,6.302,0.639,9.226-1.029c1.529-0.104,3.059-0.205,4.596-0.308c0.632,1.538,1.383,3.037,1.867,4.616
		c3.049,9.918,3.102,10.313,13.699,8.399c5.511-0.995,8.401,0.07,8.985,5.771c0.427,4.171,2.49,7.041,6.576,8.314
		c-5.813,0.226-11.529-0.691-17.493,0.863c-3.975,1.037-2.97,4.904-5.026,5.674c-7.293,2.725-14.345,6.141-21.978,7.993
		c-2.982,0.724-4.024-0.35-5.156-2.894c-2.728-6.133-5.597-12.211-8.65-18.204C277.916,424.429,273.926,420.775,275.427,415.559z"/>
	<path fill-rule="evenodd" clip-rule="evenodd" fill="#101010" d="M147.361,461.414c6.998,5.401,13.23,1.549,19.518-1.615
		c2.844-0.398,5.654-0.905,8.047-2.67c1.209-0.529,2.42-1.056,3.63-1.586c4.063,5.459,3.565,18.342-0.913,23.689
		c-8.907,0.841-17.247,4.944-26.363,4.576c-1.872-1.639-3.986-3.069-5.573-4.949C139.938,472.035,140.554,466.33,147.361,461.414z"
		/>
	<path fill-rule="evenodd" clip-rule="evenodd" fill="#253F61" d="M140.916,488.656c-3.83,4.549-6.704,1.39-8.079-1.808
		c-5.298-12.325-11.226-24.482-13.59-37.851c-0.65-3.674-1.904-7.386-0.995-11.201c0.378-1.584,0.551-3.489,2.423-4.146
		c1.945-0.682,3.319,0.785,4.309,1.98c1.856,2.243,3.327,4.806,4.958,7.235c1.705,5.632,2.109,11.474,3.008,17.246
		c0.886,5.69-1.967,12.314,2.304,16.921C138.526,480.565,139.411,484.612,140.916,488.656z"/>
	<path fill-rule="evenodd" clip-rule="evenodd" fill="#ACB3C1" d="M194.38,450.427c-1.11,3.667,2.325,4.314,4.048,6.098
		c1.614,1.666,2.924,3.982-0.247,4.633c-7.965,1.635-5.938,7.028-5.003,11.995c0.458,2.43,1.527,4.744,2.32,7.113
		c-3.857,0.744-7.715,1.491-11.572,2.238c-0.26-1.449-0.964-2.98-0.709-4.332c3.154-16.697-1.649-33.479,0.622-50.17
		c0.809-5.322,3.422-0.066,5.003-0.854C191.828,434.636,191.243,442.974,194.38,450.427z"/>
	<path fill-rule="evenodd" clip-rule="evenodd" fill="#ACB3C1" d="M140.916,488.656c-1.505-4.044-2.39-8.091-5.663-11.623
		c-4.271-4.606-1.418-11.23-2.304-16.921c-0.898-5.772-1.303-11.614-3.008-17.246c6.108,5.898,12.702,11.34,17.42,18.548
		c-6.808,4.916-7.423,10.621-1.655,17.445c1.587,1.88,3.701,3.311,5.573,4.949C149.149,488.257,144.371,487.041,140.916,488.656z"/>
	<path fill-rule="evenodd" clip-rule="evenodd" fill="#253F61" d="M183.839,428.002c-2.271,16.691,2.532,33.473-0.622,50.17
		c-0.255,1.352,0.449,2.883,0.709,4.332c-3.136,0.911-4.793-1.023-6.284-3.271c4.479-5.348,4.977-18.23,0.914-23.689
		c-0.954-7.465-1.62-14.928,0.726-22.28C180.041,430.88,180.641,428.298,183.839,428.002z"/>
	<path fill-rule="evenodd" clip-rule="evenodd" fill="#253F61" d="M174.926,457.129c-2.393,1.765-5.203,2.271-8.047,2.67
		C169.376,458.348,172.003,457.292,174.926,457.129z"/>
	<path fill-rule="evenodd" clip-rule="evenodd" fill="#3F51B5" d="M275.392,415.568c-1.501,5.217,2.489,8.87,4.44,12.7
		c3.053,5.995,5.921,12.071,8.648,18.204c1.133,2.544,2.175,3.617,5.156,2.894c7.633-1.853,14.686-5.268,21.979-7.993
		c2.058-0.77,1.052-4.637,5.025-5.674c5.965-1.555,11.682-0.637,17.494-0.863l-0.146,0.013c0.716,0.256,1.431,0.515,2.149,0.771
		c0.422-0.033,0.713,0.143,0.87,0.53c-0.401,2.074-2.184,2.321-3.761,2.846c-12.143,4.041-24.035,8.937-36.145,12.981
		c-12.244,4.089-12.753,2.997-21.119-3.091c-7.498-5.924-14.554-11.723-23.288-16.762c-7.645-17.133-15.29-34.263-22.934-51.393
		c1.28-0.038,9.828,5.684,13.269,7.573c6.549,3.595,12.318,8.841,19.753,10.637C267.195,399.557,272.463,410.129,275.392,415.568z"
		/>
	<path fill-rule="evenodd" clip-rule="evenodd" fill="#101010" d="M346.073,449.898c-1.039,0.124-2.001,0.08-2.426-1.126
		C344.722,448.578,345.444,449.135,346.073,449.898z"/>
	<path fill-rule="evenodd" clip-rule="evenodd" fill="#101010" d="M340.173,435.607c-0.718-0.254-1.434-0.513-2.15-0.769
		C338.965,434.464,339.597,434.96,340.173,435.607z"/>
	<polygon fill-rule="evenodd" clip-rule="evenodd" fill="#ACB3C1" points="233.808,380.856 265.657,400.018 267.039,398.897 
		235.418,379.964 	"/>
	<path fill-rule="evenodd" clip-rule="evenodd" fill="#4839B7" d="M306.578,293.938c0.908,2.951,2.546,9.169,8.348,7.698
		c5.801-1.47,26.125-8.515,27.181,0c1.055,8.513,1.807,15.239,6.972,15.936s10.395,3.44,10.447-0.847
		c0.054-4.289,3.457-8.177,3.268-12.976c-0.188-4.795-1.06-9.031-3.177-10.868c-2.117-1.839-4.237-3.792-4.356-6.534
		c-0.118-2.744,0.415-6.208-4.058-7.548c-4.473-1.339-15.746,1.986-18.974,2.262c-3.226,0.277-14.54-2.613-19.479,0.483
		C307.81,284.643,305.426,290.194,306.578,293.938z"/>
	<path fill-rule="evenodd" clip-rule="evenodd" fill="#E45925" d="M330.652,343.234c0,0,7.704-1.852,13.524-6.351
		c3.884-3.001,9.894-4.827,9.685-2.963c-0.21,1.864-5.204,7.48-8.097,8.242s-3.526,0.712-3.526,0.712s-1.555-1.744-2.824-1.069
		c-1.271,0.675-2.791,1.399-4.868,1.791S330.652,343.234,330.652,343.234z"/>
</g>
</svg>
