<?xml version="1.0" encoding="utf-8"?>
<!-- Generator: Adobe Illustrator 16.0.0, SVG Export Plug-In . SVG Version: 6.00 Build 0)  -->
<!DOCTYPE svg PUBLIC "-//W3C//DTD SVG 1.1//EN" "http://www.w3.org/Graphics/SVG/1.1/DTD/svg11.dtd">
<svg version="1.1" xmlns="http://www.w3.org/2000/svg" xmlns:xlink="http://www.w3.org/1999/xlink" x="0px" y="0px"
	 width="566.929px" height="566.93px" viewBox="0 0 566.929 566.93" enable-background="new 0 0 566.929 566.93"
	 xml:space="preserve">
<g id="Background">
	<path fill-rule="evenodd" clip-rule="evenodd" fill="#CC46BF" stroke="#FFFFFF" stroke-miterlimit="10" d="M277.13,39.616
		c1.103,6.58-1.896,8.678-8.253,8.536c-11.842-0.26-23.695,0.077-35.541,0.166c-30.139-0.166-60.277-0.338-90.415-0.501
		c-10.228-0.055-11.701-2.733-6.466-11.823c3.93-6.818,9.814-11.125,17.64-11.388c5.343-0.181,9.189-1.894,13.222-5.361
		c14.387-12.381,35.627-11.178,49.209,2.769c3.637,3.733,6.361,5.507,11.843,3.453c8.468-3.172,16.144-0.114,22.521,5.914
		c2.268,2.141,4.139,3.798,7.578,2.436C266.132,30.781,272.065,33.95,277.13,39.616z"/>
	<g>
		<path opacity="0.5" fill-rule="evenodd" clip-rule="evenodd" fill="#CC46BF" stroke="#FFFFFF" stroke-miterlimit="10" d="
			M303.294,401.386c2.226-3.871,5.786-6.921,6.997-11.413c8.7-10.231,17.462-20.426,23.293-32.703
			c4.574-2.46,6.707-7.076,9.578-11.006c2.717-3.72,5.151-4.093,8.227-0.363c3.266,3.963,6.835,7.681,10.271,11.503
			c0.547,4.323,2.027,7.944,6.826,9.066c4.774,9.002,9.42,18.1,17.877,24.409c0.427,6.005,8.765,8.46,6.951,15.47
			c0.005,6.021,0.01,12.046,0.013,18.063c0.012,5.09,0.024,10.177,0.038,15.267c0.01,6.089,0.021,12.179,0.032,18.269
			c-0.011,5.034-0.023,10.07-0.036,15.104c-0.01,4.885-0.02,9.771-0.031,14.655c-0.023,6.952-0.046,13.904-0.068,20.854
			c-29.977,0.027-59.953,0.053-89.93,0.076C303.32,472.886,303.308,437.137,303.294,401.386z M352.715,471.513
			c-0.045,7.007,5.113,12.876,10.743,12.158c6.137-0.779,11.095-3.912,11.853-10.754c0.614-5.564-5.908-12.035-11.609-11.701
			C356.818,461.614,353.339,465.667,352.715,471.513z M329.869,452.238c7.248,0.134,13.677-5.884,13.668-11.337
			c-0.009-5.054-6.522-11.606-11.574-11.025c-6.39,0.731-10.852,3.946-10.964,11.101
			C320.889,447.985,324.619,451.548,329.869,452.238z M331.656,483.829c6.086-0.086,12.046-6.018,11.454-11.767
			c-0.612-5.997-4.118-10.363-10.633-10.825c-6.53-0.464-11.821,4.997-11.396,11.633
			C321.526,479.789,325.582,483.297,331.656,483.829z M364.088,420.774c6.458-0.059,11.727-4.863,11.165-10.874
			c-0.644-6.903-5.037-10.291-11.854-10.399c-7.026-0.11-9.974,4.467-10.53,10.53C352.313,416.075,357.689,420.833,364.088,420.774z
			 M363.11,452.269c5.502,0.089,11.977-5.446,12.189-10.42c0.256-5.949-4.73-10.703-11.207-10.795
			c-6.595-0.093-10.637,3.047-11.307,9.575C352.144,446.887,357.117,452.169,363.11,452.269z M331.536,420.853
			c7.721-0.474,10.661-4.523,10.729-11.532c0.07-7.439-4.452-9.624-10.678-9.792c-6.41-0.173-11.039,4.809-10.528,11.221
			C321.586,417.363,325.541,420.499,331.536,420.853z"/>
		<path opacity="0.5" fill-rule="evenodd" clip-rule="evenodd" fill="#CC46BF" stroke="#FFFFFF" stroke-miterlimit="10" d="
			M386.363,390.879c-8.457-6.31-13.103-15.407-17.877-24.415c0.342-4.995,0.965-10.198-6.826-9.061
			c-3.437-3.822-7.006-7.54-10.271-11.503c-3.075-3.729-5.51-3.356-8.227,0.363c-2.871,3.93-5.004,8.546-9.578,11.006
			c-0.07-5.828-0.138-11.658-0.206-17.486c9.66-0.055,19.336-0.397,28.983-0.068c6.261,0.213,6.292-3.396,6.265-7.858
			c-0.027-4.393,0.103-8.112-6.213-7.899c-9.651,0.322-19.325-0.031-28.988-0.1c-0.748-11.945-0.769-12.18,10.711-13.141
			c4.476-0.378,5.226-2.521,5.16-6.228c-0.122-6.728,0.253-13.476-0.109-20.188c-0.276-5.117,1.755-6.371,6.604-6.475
			c16.509-0.354,16.235-0.545,16.68-17.393c0.109-4.118-3.737-11.581,3.815-11.963c8.487-0.425,4.223,7.434,4.333,11.362
			c0.485,17.271,0.201,17.271,17.789,18.128c1.954,0.097,4.211-0.499,5.327,1.947c0.006,0.635,0.016,1.268,0.023,1.902
			c0,8.725,0.004,17.451,0.004,26.176c0.263,0.714,0.525,1.425,0.786,2.139c1.446,0.172,2.889,0.395,4.339,0.505
			c11.651,0.88,11.651,0.872,10.829,13.316c-9.638,0.037-19.29,0.401-28.909,0.004c-6.801-0.283-6.465,3.729-6.631,8.404
			c-0.176,5.013,1.088,7.562,6.765,7.37c9.624-0.326,19.271-0.041,28.909-0.011c0.018,5.887,0.029,11.771,0.046,17.657
			c-9.656,0.037-19.321,0.344-28.964,0.014c-5.703-0.195-6.93,2.35-6.746,7.37c0.173,4.671-0.234,8.714,6.605,8.418
			c9.638-0.412,19.308-0.061,28.962-0.037c0.018,5.88,0.034,11.759,0.052,17.64C408.657,390.811,397.51,390.846,386.363,390.879z"/>
		<path opacity="0.5" fill-rule="evenodd" clip-rule="evenodd" fill="#CC46BF" stroke="#FFFFFF" stroke-miterlimit="10" d="
			M219.398,249.97c6.407-0.7,5.164,3.973,5.172,7.549c0.049,37.685,0.052,75.369,0.031,113.052c0,4.095-0.118,8.179,1.182,12.132
			c-2.521,4.098-4.197,8.843-8.704,11.433c0.657-14.885-1.083-16.427-17.551-15.545c-3.707-7.762-10.027-14.312-10.866-23.423
			c-0.035-0.364-0.914-0.648-1.401-0.973c-7.101-10.057-12.269-10.049-21.971,0.021c-1.466,0.157-2.934,0.313-4.402,0.47
			c-3.258-18.021-2.471-36.073-0.399-54.132c17.787-15.036,35.586-30.055,53.346-45.122
			C215.809,253.751,217.55,251.797,219.398,249.97z M217.351,358.372c0.146-7.522-4.23-11.26-10.688-11.225
			c-6.43,0.034-10.663,3.72-10.645,11.06c0.021,7.356,4.342,10.986,10.729,10.973C213.15,369.166,217.625,365.483,217.351,358.372z
			 M187.522,327.138c-0.467-6.089-3.772-10.287-10.841-10.225c-6.508,0.059-10.186,3.713-10.468,10.29
			c-0.275,6.392,4.38,11.008,10.825,10.884C183.688,337.96,187.179,334.519,187.522,327.138z M217.336,327.82
			c0.177-6.003-3.947-10.605-9.85-10.99c-6.36-0.415-11.313,3.971-11.367,10.297c-0.059,6.537,3.311,10.325,9.807,10.929
			C212.299,338.649,217.149,334.147,217.336,327.82z"/>
		<path opacity="0.5" fill-rule="evenodd" clip-rule="evenodd" fill="#CC46BF" stroke="#FFFFFF" stroke-miterlimit="10" d="
			M419.85,339.715c-9.638-0.03-19.285-0.315-28.909,0.011c-5.677,0.191-6.94-2.357-6.765-7.37c0.166-4.675-0.17-8.688,6.631-8.404
			c9.619,0.397,19.271,0.033,28.909-0.004C421.498,329.188,421.356,334.446,419.85,339.715z"/>
		<path opacity="0.5" fill-rule="evenodd" clip-rule="evenodd" fill="#CC46BF" stroke="#FFFFFF" stroke-miterlimit="10" d="
			M419.753,373.137c-9.654-0.023-19.324-0.375-28.962,0.037c-6.84,0.296-6.433-3.747-6.605-8.418
			c-0.184-5.021,1.043-7.565,6.746-7.37c9.643,0.33,19.308,0.023,28.964-0.014C421.323,362.642,421.512,367.896,419.753,373.137z"/>
		<path opacity="0.5" fill-rule="evenodd" clip-rule="evenodd" fill="#CC46BF" stroke="#FFFFFF" stroke-miterlimit="10" d="
			M333.425,323.857c9.663,0.068,19.337,0.422,28.988,0.1c6.315-0.213,6.186,3.507,6.213,7.899c0.027,4.462-0.004,8.071-6.265,7.858
			c-9.647-0.329-19.323,0.014-28.983,0.068C333.393,334.474,333.407,329.168,333.425,323.857z"/>
		<path opacity="0.5" fill-rule="evenodd" clip-rule="evenodd" fill="#CC46BF" stroke="#FFFFFF" stroke-miterlimit="10" d="
			M386.363,390.879c11.146-0.033,22.294-0.068,33.441-0.103c1.619,5.276,1.635,10.551-0.031,15.824
			c-8.819-0.084-17.641-0.165-26.459-0.252C395.128,399.339,386.79,396.884,386.363,390.879z"/>
		<path opacity="0.5" fill-rule="evenodd" clip-rule="evenodd" fill="#CC46BF" stroke="#FFFFFF" stroke-miterlimit="10" d="
			M393.314,406.349c8.818,0.087,17.64,0.168,26.459,0.252c0.006,5.861,0.011,11.725,0.014,17.587
			c-8.819,0.076-17.637,0.151-26.457,0.228C393.324,418.395,393.319,412.37,393.314,406.349z"/>
		<path opacity="0.5" fill-rule="evenodd" clip-rule="evenodd" fill="#CC46BF" stroke="#FFFFFF" stroke-miterlimit="10" d="
			M393.397,457.946c-0.011-6.09-0.022-12.18-0.036-18.265c8.82,0.092,17.64,0.181,26.461,0.271
			c0.006,5.884,0.01,11.765,0.016,17.646C411.026,457.716,402.211,457.83,393.397,457.946z"/>
		<path opacity="0.5" fill-rule="evenodd" clip-rule="evenodd" fill="#CC46BF" stroke="#FFFFFF" stroke-miterlimit="10" d="
			M419.822,439.952c-8.821-0.09-17.641-0.179-26.461-0.271c-0.01-5.094-0.022-10.181-0.034-15.271
			c8.823-0.072,17.641-0.147,26.46-0.224C421.477,429.439,421.347,434.694,419.822,439.952z"/>
		<path opacity="0.5" fill-rule="evenodd" clip-rule="evenodd" fill="#CC46BF" stroke="#FFFFFF" stroke-miterlimit="10" d="
			M393.397,457.946c8.813-0.116,17.629-0.23,26.44-0.348c1.598,5.273,1.492,10.556,0.057,15.837
			c-8.845-0.127-17.688-0.257-26.533-0.385C393.374,468.017,393.387,462.98,393.397,457.946z"/>
		<path opacity="0.5" fill-rule="evenodd" clip-rule="evenodd" fill="#CC46BF" stroke="#FFFFFF" stroke-miterlimit="10" d="
			M393.361,473.051c8.845,0.128,17.688,0.258,26.533,0.385c-0.035,4.744-0.07,9.487-0.101,14.229
			c-8.822,0.014-17.646,0.024-26.467,0.038C393.342,482.822,393.352,477.936,393.361,473.051z"/>
		<path opacity="0.5" fill-rule="evenodd" clip-rule="evenodd" fill="#CC46BF" stroke="#FFFFFF" stroke-miterlimit="10" d="
			M403.758,281.812c-0.008-0.635-0.018-1.268-0.023-1.902c0.192,0.446,0.44,0.875,0.542,1.339
			C404.31,281.39,403.941,281.619,403.758,281.812z"/>
		<path opacity="0.5" fill-rule="evenodd" clip-rule="evenodd" fill="#CC46BF" stroke="#FFFFFF" stroke-miterlimit="10" d="
			M404.548,310.126c-0.261-0.714-0.523-1.425-0.786-2.139C404.024,308.701,404.287,309.412,404.548,310.126z"/>
		<path opacity="0.5" fill-rule="evenodd" clip-rule="evenodd" fill="#CC46BF" stroke="#FFFFFF" stroke-miterlimit="10" d="
			M187.261,354.194c0.487,0.324,1.366,0.608,1.401,0.973c0.839,9.111,7.159,15.661,10.86,23.421
			c-1.849,5.178-2.731,10.45,5.112,10.021c7.413-0.405,7.945,3.623,7.551,9.053c-3.074,2.854-1.829,6.608-1.842,9.961
			c-0.103,30.76-0.321,61.523,0.114,92.276c0.116,8.273-2.682,10.592-10.637,10.441c-22.548-0.431-45.111-0.221-67.668-0.083
			c-3.884,0.024-7.515-0.718-11.167-1.751c1.412-37.513-0.08-75.012-0.493-112.517c0.194-1.696,0.388-3.39,0.577-5.084
			c0.398-0.607,0.796-1.215,1.198-1.823c6.599,0.584,7.563-3.667,7.826-8.827c0.153-3.025-1.53-7.714,2.23-8.562
			c6.288-1.426,5.43-5.743,5.87-9.964c0.301-2.902,0.666-5.884,3.635-7.55C143.499,354.965,179.933,355.6,187.261,354.194z
			 M146.92,409.835c-1.028-3.994,2.029-9.222-3.591-11.485c-2.034-0.821-5.58-1.198-6.138,1.287
			c-1.432,6.428-1.918,13.221,0.31,19.503c0.883,2.489,4.934,2.057,7.054,0.849C148.694,417.632,145.908,413.174,146.92,409.835z
			 M180.195,439.544c0-2.023-0.102-4.054,0.022-6.065c0.242-3.94-1.24-5.845-5.466-5.76c-3.867,0.082-5.015,1.971-4.906,5.434
			c0.136,4.33-0.05,8.673,0.231,12.989c0.212,3.239,2.634,4.094,5.533,4.193c3.358,0.12,4.701-1.521,4.593-4.726
			C180.138,443.59,180.192,441.563,180.195,439.544z M180.124,409.876c0.026,0,0.051,0,0.077,0c0-1.449-0.009-2.902,0.002-4.352
			c0.023-3.64-0.024-7.326-5.035-7.429c-4.957-0.104-5.369,3.38-5.32,7.147c0.051,3.771,0.023,7.542,0.069,11.313
			c0.048,3.679,2.571,3.992,5.397,3.968c2.563-0.024,4.69-0.57,4.793-3.686C180.186,414.52,180.124,412.197,180.124,409.876z
			 M136.25,437.913c1.046,3.959-2.071,9.088,3.067,11.853c2.095,1.126,5.322,1.116,6.203-1.334
			c2.201-6.113,2.219-12.635-0.023-18.703c-1.01-2.737-4.71-2.684-7.002-1.423C134.554,430.474,137.161,434.663,136.25,437.913z
			 M136.434,467.731c0,2.335-0.03,4.675,0.009,7.01c0.042,2.456,1.291,3.761,3.791,3.798c2.1,0.035,4.363,0.076,4.774-2.619
			c0.705-4.593,1.266-9.212,1.672-13.838c0.297-3.38-1.66-4.62-4.869-4.586c-2.904,0.031-5.323,0.464-5.374,4.098
			C136.409,463.641,136.433,465.685,136.434,467.731z M187.408,409.008c-0.019,0-0.037,0-0.059,0c0,2.029,0.059,4.062-0.012,6.089
			c-0.114,3.396,0.839,5.599,4.86,5.424c3.744-0.165,4.011-2.586,3.999-5.376c-0.016-4.349-0.045-8.695-0.045-13.044
			c0.004-2.943-1.59-4.104-4.364-4.122c-2.777-0.018-4.395,1.12-4.381,4.073C187.419,404.37,187.408,406.689,187.408,409.008z
			 M162.792,468.143c0-1.462,0.011-2.926-0.003-4.389c-0.031-2.971,0.224-6.044-4.162-6.213c-4.954-0.188-4.736,3.193-4.726,6.505
			c0.011,3.511,0.031,7.021,0.067,10.534c0.03,3.002,1.765,4.028,4.538,3.987c2.875-0.042,4.321-1.356,4.268-4.28
			C162.738,472.241,162.767,470.19,162.792,468.143z M196.119,467.958c0-2.343,0.098-4.688-0.025-7.02
			c-0.136-2.588-1.891-3.388-4.203-3.401c-2.24-0.01-4.281,0.526-4.358,3.17c-0.144,4.967-0.169,9.947,0.044,14.906
			c0.113,2.679,2.329,2.981,4.517,2.965c2.405-0.025,3.93-1.055,4.005-3.596C196.166,472.643,196.111,470.3,196.119,467.958z
			 M162.688,438.534c0.037,0,0.073,0,0.109,0c0-1.463-0.014-2.923,0.002-4.383c0.035-3.4-0.023-6.622-4.888-6.351
			c-4.446,0.248-3.965,3.455-3.991,6.334c-0.035,3.794-0.039,7.597,0.143,11.389c0.124,2.586,2.011,3.301,4.281,3.291
			c2.253-0.008,4.133-0.684,4.312-3.277C162.814,443.212,162.688,440.87,162.688,438.534z M162.728,410.085c0.014,0,0.027,0,0.042,0
			c0-1.459,0.006-2.922-0.004-4.382c-0.021-2.96,0.265-6.051-4.121-6.21c-4.902-0.175-4.756,3.18-4.743,6.502
			c0.014,3.504,0.032,7.006,0.064,10.51c0.029,2.988,1.754,4.032,4.52,4.004c2.889-0.027,4.284-1.411,4.247-4.293
			C162.707,414.172,162.728,412.13,162.728,410.085z M187.399,437.919c-0.015,0-0.032,0-0.05,0c0,1.464-0.004,2.926,0,4.39
			c0.01,3.29-0.269,6.694,4.702,6.529c4.419-0.147,4.147-3.222,4.151-6.189c0.005-3.514-0.064-7.023-0.038-10.538
			c0.022-2.877-1.295-4.296-4.221-4.323c-2.77-0.031-4.514,0.976-4.541,3.983C187.385,433.822,187.399,435.869,187.399,437.919z
			 M178.567,469.942c0-3.317,0.033-4.763-0.007-6.209c-0.08-2.857,0.42-6.007-4.004-6.196c-4.829-0.206-4.812,2.988-4.784,6.337
			c0.03,3.473,0.01,6.941,0.02,10.41c0.008,2.219,0.565,4.021,3.237,4.19c2.643,0.171,4.676-0.906,5.227-3.492
			C178.729,472.749,178.548,470.383,178.567,469.942z"/>
		<path opacity="0.5" fill-rule="evenodd" clip-rule="evenodd" fill="#CC46BF" stroke="#FFFFFF" stroke-miterlimit="10" d="
			M217.078,394.135c4.508-2.59,6.185-7.335,8.705-11.433c3.275-3.191,7.003-4.664,11.778-4.547
			c13.132,0.313,26.282,0.363,39.413,0.085c4.978-0.106,7.954,1.806,10.932,5.608c4.785,6.11,8.349,13.389,15.392,17.533
			c0.01,35.755,0.022,71.504,0.034,107.255c-1.855,2.013-4.316,1.497-6.598,1.497c-25.173,0.024-50.347-0.179-75.516,0.124
			c-6.858,0.083-9.191-2.13-9.122-9.084c0.304-30.438,0.082-60.882,0.21-91.318c0.014-3.445,1.022-6.883,1.572-10.324
			c2.135-1.146,3.386-2.838,3.299-5.357L217.078,394.135z M257.906,432.963c2.92,0,5.842,0,8.762,0
			c16.805,0.004,16.656,0.011,15.74-16.754c-0.244-4.433-1.614-6.268-6.176-6.203c-12.266,0.179-24.539,0.21-36.805-0.02
			c-5.021-0.093-6.58,1.939-6.521,6.752c0.238,19.94-1.441,15.799,15.359,16.215C251.477,433.032,254.691,432.963,257.906,432.963z
			 M257.627,466.498c5.822,0,11.658-0.223,17.468,0.064c5.063,0.255,7.801-1.252,7.255-6.816c-0.254-2.597-0.253-5.259,0.007-7.852
			c0.553-5.554-2.155-6.965-7.231-6.853c-11.059,0.251-22.154,0.532-33.183-0.093c-7.61-0.429-9.357,2.543-9.109,9.532
			c0.429,11.993,0.056,12.007,11.69,12.023C248.891,466.509,253.259,466.505,257.627,466.498z"/>
		<path opacity="0.5" fill-rule="evenodd" clip-rule="evenodd" fill="#CC46BF" stroke="#FFFFFF" stroke-miterlimit="10" d="
			M213.834,397.532c1.114-1.12,2.229-2.238,3.344-3.358c0.087,2.52-1.164,4.211-3.299,5.357
			C213.865,398.864,213.85,398.198,213.834,397.532z"/>
		<path opacity="0.5" fill-rule="evenodd" clip-rule="evenodd" fill="#CC46BF" stroke="#FFFFFF" stroke-miterlimit="10" d="
			M361.66,357.403c7.791-1.138,7.168,4.065,6.826,9.061C363.688,365.348,362.207,361.727,361.66,357.403z"/>
	</g>
	<path fill-rule="evenodd" clip-rule="evenodd" fill="#CC46BF" stroke="#FFFFFF" stroke-miterlimit="10" d="M401.289,152.063
		c0.713,4.244-1.223,5.599-5.324,5.507c-7.639-0.167-15.287,0.05-22.93,0.108c-19.444-0.108-38.889-0.22-58.333-0.324
		c-6.6-0.034-7.55-1.764-4.172-7.628c2.535-4.4,6.333-7.178,11.381-7.348c3.446-0.116,5.929-1.22,8.529-3.458
		c9.282-7.987,22.985-7.212,31.75,1.786c2.347,2.409,4.104,3.553,7.64,2.228c5.463-2.046,10.416-0.073,14.53,3.815
		c1.463,1.381,2.671,2.451,4.89,1.571C394.195,146.362,398.022,148.407,401.289,152.063z"/>
	<path fill-rule="evenodd" clip-rule="evenodd" fill="#CC46BF" stroke="#FFFFFF" stroke-miterlimit="10" d="M176.978,249.197
		c0.455,2.708-0.779,3.573-3.396,3.514c-4.873-0.106-9.753,0.031-14.628,0.069c-12.406-0.069-24.812-0.141-37.216-0.206
		c-4.21-0.023-4.816-1.126-2.661-4.867c1.616-2.807,4.04-4.579,7.261-4.688c2.198-0.074,3.782-0.778,5.441-2.206
		c5.921-5.096,14.664-4.602,20.256,1.139c1.497,1.537,2.617,2.268,4.873,1.422c3.485-1.306,6.646-0.047,9.271,2.434
		c0.934,0.882,1.704,1.564,3.119,1.002C172.452,245.562,174.894,246.866,176.978,249.197z"/>
</g>
<g id="图层_2">
	<ellipse fill-rule="evenodd" clip-rule="evenodd" fill="#EDE1FF" cx="286.464" cy="506.682" rx="172.095" ry="59.821"/>
</g>
<g id="图层_1">
	<path fill-rule="evenodd" clip-rule="evenodd" fill="#F79B78" d="M290.329,155.563c1.271,6.975-3.456,16.847-9.584,19.729
		c-4.181,1.968-6.646-0.884-9.144-3.538c-3.951-4.196-4.479-10.396-8.537-14.523c0.155-1.828,0.312-3.653,0.467-5.479
		c2.108,0.155,4.121,0.3,5.631-1.771c2.176-2.981,2.199-13.05-0.373-16.938c-2.772-4.187-7.171-3.055-10.886-2.306
		c-4.021,0.812-7.769,1.486-11.519-0.615c2.043-3.037,2.984-6.243,1.523-9.824c1.424,0.284,2.856,0.849,4.271,0.803
		c5.265-0.174,11.418,1.931,15.111-3.343c2.13-3.039,3.916-2.934,6.8-2.141c5.278,1.451,8.804,6.124,14.118,7.428
		c1.493,4.913-2.015,7.706-4.622,10.871c-4.755,5.771-3.548,9.093,3.848,10.561C287.183,148.488,289.604,151.805,290.329,155.563z"
		/>
	<path fill-rule="evenodd" clip-rule="evenodd" fill="#101010" d="M288.208,123.043c-5.314-1.304-8.84-5.977-14.118-7.428
		c-2.884-0.793-4.67-0.898-6.8,2.141c-3.693,5.273-9.847,3.169-15.111,3.343c-1.414,0.046-2.847-0.519-4.271-0.803
		c-0.721-0.419-1.437-0.844-2.162-1.255c-10.318-5.864-11.174-12.897-2.453-21.041c1.754-1.64,4.103-1.972,6.494-2.015
		c4.004-0.071,8.008-0.274,12.01-0.423c4.022,1.775,9.783,3.304,10.616,7.011c1.043,4.647,3.958,4.978,6.784,6.232
		c9.962,4.423,19.751,9.114,28.276,16.052c0.331,3.401-0.934,6.046-3.758,7.953C298.719,129.28,294.459,124.582,288.208,123.043z"/>
	<path fill-rule="evenodd" clip-rule="evenodd" fill="#101010" d="M395.22,262.495c-8.345-2.848-9.888-5.497-7.293-12.522
		c7.312-2.016,14.443-9.593,22.314,0.242c-0.283-2.519-1.615-3.889-0.926-5.57c9.285,5.549,16.625,13.332,24.023,21.031
		c0.679,0.704,1.077,1.858,1.226,2.859c0.869,5.868-12.527,17.217-18.266,15.604c-6.24-1.754-6.377-7.084-7.048-12.002
		c-0.461-3.391-0.377-6.93-5.065-7.276C401.388,263.343,398.482,262.235,395.22,262.495z"/>
	<path fill-rule="evenodd" clip-rule="evenodd" fill="#101010" d="M330.421,479.475c5.559-0.561,11.338,4.234,10.003,10.085
		c-2.104,9.227,0.291,17.999,0.398,26.969c0.079,6.756-2.717,12.274-8.618,15.871c-5.013,3.055-8.67,1.477-10.571-4.075
		c-1.89-5.521-0.891-11.31-1.938-16.91c-1.27-6.783-2.144-13.64-3.188-20.463c2.538-2.086,5.649-6.347,7.508-5.855
		C330.046,486.69,329.259,482.347,330.421,479.475z"/>
	<path fill-rule="evenodd" clip-rule="evenodd" fill="#101010" d="M325.495,406.176c6.92-0.396,11.553,3.575,10.153,9.734
		c-1.416,6.238,0.304,12.006,0.891,17.964c0.781,7.924-0.524,15.021-7.339,20.17c-5.391,4.072-8.998,2.936-11.511-3.314
		c-2.181-5.431-1.596-11.236-2.101-16.766c-0.663-7.284-3.628-14.252-2.796-21.678c3.553-2.457,6.403-6.685,11.768-4.668
		C324.675,407.662,325.176,406.68,325.495,406.176z"/>
	<path fill-rule="evenodd" clip-rule="evenodd" fill="#F79B78" d="M175.387,102.81c-0.741-3.651-6.957-12.747-7.886-17.78
		c-0.754-4.089-1.917-8.459,2.171-8.362c1.581,0.037-0.939-2.811,2.646-4.394c4.286,0.9,3.649-3.378,5.716-2.063
		c2.224,1.416,6.297-4.128,5.769,14.712c-0.055,1.958,0.687,4.656,2.418,3.099c6.683-10.136,7.098-2.862,5.903,0.156
		c-0.94,2.377-2.806,6.049-3.652,7.938c-1.683,2.132,1.471,9.656,2.192,11.289c-1.501-1.662-2.639-3.643-5.185-0.791
		c-2.456,2.751-5.579,4.905-8.408,7.323C175.918,107.598,176.403,109.202,175.387,102.81z"/>
	<path fill-rule="evenodd" clip-rule="evenodd" fill="#E45925" d="M246.385,130.12c3.75,2.102,7.498,1.427,11.519,0.615
		c3.715-0.749,8.113-1.881,10.886,2.306c2.572,3.888,2.549,13.956,0.373,16.938c-1.51,2.071-3.522,1.927-5.631,1.771
		c-1.175-6.328-4.78-10.612-10.272-14.018C250.512,136.025,245.122,135.772,246.385,130.12z"/>
	<path fill-rule="evenodd" clip-rule="evenodd" fill="#F79B78" d="M409.315,244.645c-0.689,1.682,0.643,3.052,0.926,5.57
		c-7.871-9.835-15.003-2.258-22.314-0.242c-0.459-2.978-0.572-6.183-4.499-6.899c1.93-3.774,4.738-6.735,8.309-8.999
		c1.424,0.859,2.75,2.162,4.291,2.506C401.416,237.78,406.096,239.957,409.315,244.645z"/>
	<path fill-rule="evenodd" clip-rule="evenodd" fill="#ACB3C1" d="M330.421,479.475c-1.162,2.872-0.375,7.216-6.406,5.621
		c-1.858-0.491-4.97,3.77-7.508,5.855c-3.179-2.021-3.968-6.437-7.812-7.789c2.361-5.047,6.425-8.183,11.467-10.221
		C322.335,477.077,326.099,478.717,330.421,479.475z"/>
	<path fill-rule="evenodd" clip-rule="evenodd" fill="#ACB3C1" d="M325.495,406.176c-0.319,0.504-0.82,1.486-0.935,1.442
		c-5.364-2.017-8.215,2.211-11.768,4.668c-1.73-2.937-3.463-5.872-5.195-8.807c3.998-2.945,8.85-5.038,10.393-10.429
		C320.189,397.598,323.896,401.285,325.495,406.176z"/>
	<path fill-rule="evenodd" clip-rule="evenodd" fill="#F79B78" d="M395.22,262.495c3.263-0.26,6.168,0.848,8.966,2.365
		C398.01,269.026,396.847,268.72,395.22,262.495z"/>
	<path fill-rule="evenodd" clip-rule="evenodd" fill="#85B8E3" d="M317.811,265.864c-12.616-0.392-24.432,2.722-36.055,7.455
		c-6.743,2.744-13.908,4.629-21.4,4.309c-1.449-0.063-3.015-0.147-3.949,1.395c-5.31-16.847-7.896-34.192-9.838-51.696
		c-1.348-12.147-1.539-24.338-2.16-36.514c-0.108-2.116-0.751-3.55-2.686-4.532c-16.788-8.521-30.218-21.254-43.207-34.531
		c-0.959-1.116-8.504-11.613-9.894-13.973c-4.499-7.634-9.816-14.868-11.552-23.841c2.829-2.417,5.952-4.571,8.408-7.322
		c2.546-2.852,3.684-0.871,5.186,0.793c3.804,8.241,9.855,14.854,15.67,21.637c1.53,1.582,3.06,3.164,4.591,4.746
		c12.2,10.947,25.704,19.479,42.142,22.421c3.288,0.591,6.663,0.692,9.998,1.02c4.059,4.128,4.586,10.327,8.537,14.523
		c2.497,2.654,4.963,5.506,9.144,3.538c6.128-2.882,10.855-12.754,9.584-19.729c9.241,1.013,17.001,5.822,24.897,10.06
		c29.685,15.929,54.036,38.119,74.759,64.478c0.918,1.167,1.792,2.372,1.751,3.975c-3.57,2.264-6.379,5.225-8.31,8.999
		c-2.994,1.954-4.136-0.968-5.628-2.342c-18.343-16.893-37.985-31.855-61.19-41.571c-2.286-0.958-4.695-1.618-7.184-2.461
		C305.176,220.811,309.89,243.532,317.811,265.864z"/>
	<path fill-rule="evenodd" clip-rule="evenodd" fill="#421E9B" d="M234.931,372.968c0.354-12.622,1.975-25.11,4.675-37.416
		c0.605-2.761-0.816-3.786-1.953-5.433c-4.541-6.576-8.684-13.184-8.877-21.708c-0.191-8.443,3.702-14.116,10.707-17.754
		c4.407-2.288,9.201-4.001,14.001-5.31c4.016-1.097,4.886-2.853,2.923-6.325c0.935-1.542,2.5-1.457,3.949-1.395
		c7.492,0.32,14.657-1.564,21.4-4.309c11.623-4.733,23.438-7.847,36.055-7.455c7.87,9.759,16.161,19.465,15.188,33.113
		c-0.782,10.986-4.755,20.326-16.005,24.729c-10.756,5.584-22.011,2.901-34.168,1.265c9.923,15.295,19.228,29.638,28.532,43.979
		c1.323,2.368,2.496,4.838,4.005,7.08c3.01,4.479,6.861,8.727,1.597,14.182c-0.307,0.317,0.658,1.864,1.031,2.839
		c-1.543,5.391-6.395,7.483-10.393,10.429c-0.14-0.154-0.354-0.465-0.409-0.439c-7.515,3.52-9.126-2.565-11.877-7.119
		c-3.296-5.452-6.27-11.142-10.637-15.882c-4.34-8.353-10.585-15.213-17.048-22.533c-0.637,2.383-1.579,4.138-1.471,5.826
		c0.375,5.795-4.24,11.464-0.423,17.308c14.359,16.811,24.018,36.383,33.624,56.085c4.675,9.585,11.813,17.829,18.904,25.813
		c3.09,3.477,4.438,6.341,1.9,10.403c-5.042,2.038-9.105,5.174-11.467,10.221c-2.906,2.154-4.858,1.74-7.142-1.418
		c-20.445-28.261-41.013-56.434-61.715-84.509c-3.624-4.915-3.921-10.468-4.572-16.04
		C234.949,378.477,235.03,375.71,234.931,372.968z"/>
	<path fill-rule="evenodd" clip-rule="evenodd" fill="#4839B7" d="M288.208,123.043c6.251,1.539,10.511,6.237,15.508,9.768
		c-3.916,6.001-9.684,9.413-16.282,11.664c-7.396-1.468-8.603-4.79-3.848-10.561C286.193,130.749,289.701,127.956,288.208,123.043z"
		/>
	<path fill-rule="evenodd" clip-rule="evenodd" fill="#4839B7" d="M307.474,124.857c-8.525-6.938-18.314-11.629-28.276-16.052
		c-2.826-1.255-5.741-1.585-6.784-6.232c-0.833-3.707-6.594-5.235-10.616-7.011c-0.598-5.6,0.499-10.816,5.575-13.794
		c4.959-2.909,9.771-0.509,14.172,2.161c10.998,6.672,19.021,16.612,27.585,25.858C313.752,114.781,309.837,120.006,307.474,124.857
		z"/>
</g>
</svg>
