<svg width="1920" height="741" viewBox="0 0 1920 741" fill="none" xmlns="http://www.w3.org/2000/svg">
<g clip-path="url(#clip0_327_91964)">
<rect width="1920" height="741" fill="white"/>
<rect x="568" y="32" width="784" height="400" rx="6" fill="#F8F8F8"/>
<rect x="570" y="34" width="780" height="396" rx="4" stroke="black" stroke-opacity="0.2" stroke-width="4" stroke-dasharray="16 6"/>
<path d="M676 178C676 164.745 723.921 154 783.036 154C842.151 154 890.072 164.745 890.072 178V338C890.072 351.255 842.151 362 783.036 362C723.921 362 676 351.255 676 338V178Z" fill="#FFD233"/>
<path d="M888.072 178C888.072 179.011 887.624 180.169 886.42 181.489C885.206 182.819 883.32 184.199 880.724 185.575C875.535 188.326 867.895 190.864 858.285 193.019C839.097 197.321 812.491 200 783.036 200V204C812.695 204 839.608 201.306 859.16 196.922C868.919 194.734 876.954 192.101 882.598 189.109C885.418 187.614 887.737 185.979 889.375 184.185C891.023 182.38 892.072 180.303 892.072 178H888.072ZM783.036 200C753.581 200 726.975 197.321 707.788 193.019C698.178 190.864 690.537 188.326 685.348 185.575C682.752 184.199 680.866 182.819 679.652 181.489C678.448 180.169 678 179.011 678 178H674C674 180.303 675.05 182.38 676.697 184.185C678.335 185.979 680.655 187.614 683.475 189.109C689.118 192.101 697.153 194.734 706.912 196.922C726.464 201.306 753.377 204 783.036 204V200ZM678 178C678 176.989 678.448 175.831 679.652 174.511C680.866 173.181 682.752 171.801 685.348 170.425C690.537 167.674 698.178 165.136 707.788 162.981C726.975 158.679 753.581 156 783.036 156V152C753.377 152 726.464 154.694 706.912 159.078C697.153 161.266 689.118 163.899 683.475 166.891C680.655 168.386 678.335 170.021 676.697 171.815C675.05 173.62 674 175.697 674 178H678ZM783.036 156C812.491 156 839.097 158.679 858.285 162.981C867.895 165.136 875.535 167.674 880.724 170.425C883.32 171.801 885.206 173.181 886.42 174.511C887.624 175.831 888.072 176.989 888.072 178H892.072C892.072 175.697 891.023 173.62 889.375 171.815C887.737 170.021 885.418 168.386 882.598 166.891C876.954 163.899 868.919 161.266 859.16 159.078C839.608 154.694 812.695 152 783.036 152V156ZM674 178V338H678V178H674ZM674 338C674 340.303 675.05 342.38 676.697 344.185C678.335 345.979 680.655 347.614 683.475 349.109C689.118 352.101 697.153 354.734 706.912 356.922C726.464 361.306 753.377 364 783.036 364V360C753.581 360 726.975 357.321 707.788 353.019C698.178 350.864 690.537 348.326 685.348 345.575C682.752 344.199 680.866 342.819 679.652 341.489C678.448 340.169 678 339.011 678 338H674ZM783.036 364C812.695 364 839.608 361.306 859.16 356.922C868.919 354.734 876.954 352.101 882.598 349.109C885.418 347.614 887.737 345.979 889.375 344.185C891.023 342.38 892.072 340.303 892.072 338H888.072C888.072 339.011 887.624 340.169 886.42 341.489C885.206 342.819 883.32 344.199 880.724 345.575C875.535 348.326 867.895 350.864 858.285 353.019C839.097 357.321 812.491 360 783.036 360V364ZM892.072 338V178H888.072V338H892.072Z" fill="#CCA829"/>
<path d="M752.041 287H746.391V269.545H752.22C753.93 269.545 755.399 269.895 756.626 270.594C757.854 271.287 758.794 272.284 759.447 273.585C760.106 274.881 760.436 276.435 760.436 278.247C760.436 280.065 760.104 281.628 759.439 282.935C758.78 284.241 757.825 285.247 756.575 285.952C755.325 286.651 753.814 287 752.041 287ZM749.024 284.699H751.896C753.226 284.699 754.331 284.449 755.212 283.949C756.092 283.443 756.751 282.713 757.189 281.759C757.626 280.798 757.845 279.628 757.845 278.247C757.845 276.878 757.626 275.716 757.189 274.761C756.757 273.807 756.112 273.082 755.254 272.588C754.396 272.094 753.331 271.847 752.058 271.847H749.024V284.699ZM768.692 287.264C767.403 287.264 766.292 286.989 765.36 286.438C764.434 285.881 763.718 285.099 763.212 284.094C762.712 283.082 762.462 281.898 762.462 280.54C762.462 279.199 762.712 278.017 763.212 276.994C763.718 275.972 764.423 275.173 765.326 274.599C766.235 274.026 767.298 273.739 768.513 273.739C769.252 273.739 769.968 273.861 770.661 274.105C771.354 274.349 771.976 274.733 772.528 275.256C773.079 275.778 773.513 276.457 773.832 277.293C774.15 278.122 774.309 279.131 774.309 280.318V281.222H763.903V279.312H771.812C771.812 278.642 771.675 278.048 771.403 277.531C771.13 277.009 770.746 276.597 770.252 276.295C769.763 275.994 769.19 275.844 768.53 275.844C767.815 275.844 767.19 276.02 766.655 276.372C766.127 276.719 765.718 277.173 765.428 277.736C765.144 278.293 765.002 278.898 765.002 279.551V281.043C765.002 281.918 765.155 282.662 765.462 283.276C765.775 283.889 766.209 284.358 766.766 284.682C767.323 285 767.974 285.159 768.718 285.159C769.201 285.159 769.641 285.091 770.039 284.955C770.437 284.812 770.78 284.602 771.07 284.324C771.36 284.045 771.582 283.702 771.735 283.293L774.147 283.727C773.954 284.437 773.607 285.06 773.107 285.594C772.613 286.122 771.991 286.534 771.241 286.83C770.496 287.119 769.647 287.264 768.692 287.264ZM786.49 277.105L784.18 277.514C784.084 277.219 783.93 276.937 783.72 276.67C783.516 276.403 783.237 276.185 782.885 276.014C782.533 275.844 782.092 275.759 781.564 275.759C780.842 275.759 780.24 275.92 779.757 276.244C779.274 276.562 779.033 276.974 779.033 277.48C779.033 277.918 779.194 278.27 779.518 278.537C779.842 278.804 780.365 279.023 781.087 279.193L783.166 279.67C784.371 279.949 785.268 280.378 785.859 280.957C786.45 281.537 786.746 282.29 786.746 283.216C786.746 284 786.518 284.699 786.064 285.312C785.615 285.92 784.987 286.398 784.18 286.744C783.379 287.091 782.45 287.264 781.393 287.264C779.927 287.264 778.731 286.952 777.805 286.327C776.879 285.696 776.311 284.801 776.101 283.642L778.564 283.267C778.717 283.909 779.033 284.395 779.51 284.724C779.987 285.048 780.609 285.21 781.376 285.21C782.212 285.21 782.879 285.037 783.379 284.69C783.879 284.338 784.129 283.909 784.129 283.403C784.129 282.994 783.976 282.651 783.669 282.372C783.368 282.094 782.905 281.884 782.28 281.741L780.064 281.256C778.842 280.977 777.939 280.534 777.354 279.926C776.774 279.318 776.484 278.548 776.484 277.616C776.484 276.844 776.7 276.168 777.132 275.588C777.564 275.009 778.16 274.557 778.922 274.233C779.683 273.903 780.555 273.739 781.538 273.739C782.953 273.739 784.067 274.045 784.879 274.659C785.692 275.267 786.229 276.082 786.49 277.105ZM789.091 287V273.909H791.64V287H789.091ZM790.378 271.889C789.935 271.889 789.555 271.741 789.236 271.446C788.924 271.145 788.768 270.787 788.768 270.372C788.768 269.952 788.924 269.594 789.236 269.298C789.555 268.997 789.935 268.847 790.378 268.847C790.822 268.847 791.199 268.997 791.512 269.298C791.83 269.594 791.989 269.952 791.989 270.372C791.989 270.787 791.83 271.145 791.512 271.446C791.199 271.741 790.822 271.889 790.378 271.889ZM800.101 292.182C799.061 292.182 798.166 292.045 797.416 291.773C796.672 291.5 796.064 291.139 795.592 290.69C795.121 290.241 794.768 289.75 794.535 289.216L796.726 288.312C796.879 288.562 797.084 288.827 797.339 289.105C797.601 289.389 797.953 289.631 798.396 289.83C798.845 290.028 799.422 290.128 800.126 290.128C801.092 290.128 801.89 289.892 802.521 289.42C803.152 288.955 803.467 288.21 803.467 287.188V284.614H803.305C803.152 284.892 802.93 285.202 802.64 285.543C802.356 285.884 801.964 286.179 801.464 286.429C800.964 286.679 800.314 286.804 799.513 286.804C798.479 286.804 797.547 286.562 796.717 286.08C795.893 285.591 795.24 284.872 794.757 283.923C794.28 282.969 794.041 281.795 794.041 280.403C794.041 279.011 794.277 277.818 794.748 276.824C795.226 275.83 795.879 275.068 796.709 274.54C797.538 274.006 798.479 273.739 799.53 273.739C800.342 273.739 800.998 273.875 801.498 274.148C801.998 274.415 802.388 274.727 802.666 275.085C802.95 275.443 803.169 275.759 803.322 276.031H803.51V273.909H806.007V287.29C806.007 288.415 805.746 289.338 805.223 290.06C804.7 290.781 803.993 291.315 803.101 291.662C802.214 292.009 801.214 292.182 800.101 292.182ZM800.075 284.69C800.808 284.69 801.427 284.52 801.933 284.179C802.444 283.832 802.831 283.338 803.092 282.696C803.359 282.048 803.493 281.273 803.493 280.369C803.493 279.489 803.362 278.713 803.101 278.043C802.839 277.372 802.456 276.849 801.95 276.474C801.444 276.094 800.819 275.903 800.075 275.903C799.308 275.903 798.669 276.102 798.157 276.5C797.646 276.892 797.26 277.426 796.998 278.102C796.743 278.778 796.615 279.534 796.615 280.369C796.615 281.227 796.746 281.98 797.007 282.628C797.268 283.276 797.655 283.781 798.166 284.145C798.683 284.509 799.319 284.69 800.075 284.69ZM811.517 279.227V287H808.969V273.909H811.415V276.04H811.576C811.878 275.347 812.349 274.79 812.991 274.369C813.639 273.949 814.454 273.739 815.437 273.739C816.329 273.739 817.111 273.926 817.781 274.301C818.451 274.67 818.971 275.222 819.341 275.955C819.71 276.687 819.895 277.594 819.895 278.673V287H817.346V278.98C817.346 278.031 817.099 277.29 816.605 276.756C816.111 276.216 815.432 275.946 814.568 275.946C813.977 275.946 813.451 276.074 812.991 276.33C812.537 276.585 812.176 276.96 811.909 277.455C811.648 277.943 811.517 278.534 811.517 279.227Z" fill="#333333"/>
<path d="M1044 178C1044 164.745 1091.92 154 1151.04 154C1210.15 154 1258.07 164.745 1258.07 178V338C1258.07 351.255 1210.15 362 1151.04 362C1091.92 362 1044 351.255 1044 338V178Z" fill="#FFD233"/>
<path d="M1256.07 178C1256.07 179.011 1255.62 180.169 1254.42 181.489C1253.21 182.819 1251.32 184.199 1248.72 185.575C1243.53 188.326 1235.89 190.864 1226.28 193.019C1207.1 197.321 1180.49 200 1151.04 200V204C1180.7 204 1207.61 201.306 1227.16 196.922C1236.92 194.734 1244.95 192.101 1250.6 189.109C1253.42 187.614 1255.74 185.979 1257.37 184.185C1259.02 182.38 1260.07 180.303 1260.07 178H1256.07ZM1151.04 200C1121.58 200 1094.98 197.321 1075.79 193.019C1066.18 190.864 1058.54 188.326 1053.35 185.575C1050.75 184.199 1048.87 182.819 1047.65 181.489C1046.45 180.169 1046 179.011 1046 178H1042C1042 180.303 1043.05 182.38 1044.7 184.185C1046.33 185.979 1048.65 187.614 1051.47 189.109C1057.12 192.101 1065.15 194.734 1074.91 196.922C1094.46 201.306 1121.38 204 1151.04 204V200ZM1046 178C1046 176.989 1046.45 175.831 1047.65 174.511C1048.87 173.181 1050.75 171.801 1053.35 170.425C1058.54 167.674 1066.18 165.136 1075.79 162.981C1094.98 158.679 1121.58 156 1151.04 156V152C1121.38 152 1094.46 154.694 1074.91 159.078C1065.15 161.266 1057.12 163.899 1051.47 166.891C1048.65 168.386 1046.33 170.021 1044.7 171.815C1043.05 173.62 1042 175.697 1042 178H1046ZM1151.04 156C1180.49 156 1207.1 158.679 1226.28 162.981C1235.89 165.136 1243.53 167.674 1248.72 170.425C1251.32 171.801 1253.21 173.181 1254.42 174.511C1255.62 175.831 1256.07 176.989 1256.07 178H1260.07C1260.07 175.697 1259.02 173.62 1257.37 171.815C1255.74 170.021 1253.42 168.386 1250.6 166.891C1244.95 163.899 1236.92 161.266 1227.16 159.078C1207.61 154.694 1180.7 152 1151.04 152V156ZM1042 178V338H1046V178H1042ZM1042 338C1042 340.303 1043.05 342.38 1044.7 344.185C1046.33 345.979 1048.65 347.614 1051.47 349.109C1057.12 352.101 1065.15 354.734 1074.91 356.922C1094.46 361.306 1121.38 364 1151.04 364V360C1121.58 360 1094.98 357.321 1075.79 353.019C1066.18 350.864 1058.54 348.326 1053.35 345.575C1050.75 344.199 1048.87 342.819 1047.65 341.489C1046.45 340.169 1046 339.011 1046 338H1042ZM1151.04 364C1180.7 364 1207.61 361.306 1227.16 356.922C1236.92 354.734 1244.95 352.101 1250.6 349.109C1253.42 347.614 1255.74 345.979 1257.37 344.185C1259.02 342.38 1260.07 340.303 1260.07 338H1256.07C1256.07 339.011 1255.62 340.169 1254.42 341.489C1253.21 342.819 1251.32 344.199 1248.72 345.575C1243.53 348.326 1235.89 350.864 1226.28 353.019C1207.1 357.321 1180.49 360 1151.04 360V364ZM1260.07 338V178H1256.07V338H1260.07Z" fill="#CCA829"/>
<path d="M1137.75 275.222H1135.09C1134.99 274.653 1134.8 274.153 1134.52 273.722C1134.24 273.29 1133.9 272.923 1133.5 272.622C1133.1 272.321 1132.65 272.094 1132.15 271.94C1131.65 271.787 1131.13 271.71 1130.57 271.71C1129.56 271.71 1128.66 271.963 1127.87 272.469C1127.08 272.974 1126.45 273.716 1125.99 274.693C1125.54 275.67 1125.31 276.864 1125.31 278.273C1125.31 279.693 1125.54 280.892 1125.99 281.869C1126.45 282.847 1127.08 283.585 1127.88 284.085C1128.67 284.585 1129.57 284.835 1130.56 284.835C1131.11 284.835 1131.63 284.761 1132.13 284.614C1132.63 284.46 1133.08 284.236 1133.48 283.94C1133.89 283.645 1134.23 283.284 1134.51 282.858C1134.79 282.426 1134.99 281.932 1135.09 281.375L1137.75 281.384C1137.61 282.241 1137.34 283.031 1136.93 283.753C1136.52 284.469 1136 285.088 1135.37 285.611C1134.74 286.128 1134.01 286.528 1133.2 286.812C1132.39 287.097 1131.5 287.239 1130.54 287.239C1129.03 287.239 1127.69 286.881 1126.5 286.165C1125.32 285.443 1124.39 284.412 1123.71 283.071C1123.03 281.73 1122.69 280.131 1122.69 278.273C1122.69 276.409 1123.03 274.81 1123.72 273.474C1124.4 272.134 1125.33 271.105 1126.51 270.389C1127.69 269.668 1129.04 269.307 1130.54 269.307C1131.47 269.307 1132.33 269.44 1133.13 269.707C1133.94 269.969 1134.67 270.355 1135.31 270.866C1135.95 271.372 1136.48 271.991 1136.9 272.724C1137.32 273.452 1137.61 274.284 1137.75 275.222ZM1145.76 287.264C1144.53 287.264 1143.46 286.983 1142.55 286.42C1141.63 285.858 1140.92 285.071 1140.41 284.06C1139.91 283.048 1139.66 281.866 1139.66 280.514C1139.66 279.156 1139.91 277.969 1140.41 276.952C1140.92 275.935 1141.63 275.145 1142.55 274.582C1143.46 274.02 1144.53 273.739 1145.76 273.739C1146.99 273.739 1148.06 274.02 1148.97 274.582C1149.89 275.145 1150.6 275.935 1151.1 276.952C1151.61 277.969 1151.86 279.156 1151.86 280.514C1151.86 281.866 1151.61 283.048 1151.1 284.06C1150.6 285.071 1149.89 285.858 1148.97 286.42C1148.06 286.983 1146.99 287.264 1145.76 287.264ZM1145.77 285.125C1146.56 285.125 1147.22 284.915 1147.74 284.494C1148.27 284.074 1148.65 283.514 1148.9 282.815C1149.16 282.116 1149.29 281.347 1149.29 280.506C1149.29 279.67 1149.16 278.903 1148.9 278.205C1148.65 277.5 1148.27 276.935 1147.74 276.509C1147.22 276.082 1146.56 275.869 1145.77 275.869C1144.97 275.869 1144.3 276.082 1143.77 276.509C1143.25 276.935 1142.86 277.5 1142.61 278.205C1142.36 278.903 1142.23 279.67 1142.23 280.506C1142.23 281.347 1142.36 282.116 1142.61 282.815C1142.86 283.514 1143.25 284.074 1143.77 284.494C1144.3 284.915 1144.97 285.125 1145.77 285.125ZM1159.15 287.256C1158.09 287.256 1157.15 286.986 1156.32 286.446C1155.5 285.901 1154.85 285.125 1154.38 284.119C1153.91 283.108 1153.68 281.895 1153.68 280.48C1153.68 279.065 1153.91 277.855 1154.39 276.849C1154.86 275.844 1155.52 275.074 1156.35 274.54C1157.18 274.006 1158.12 273.739 1159.17 273.739C1159.98 273.739 1160.63 273.875 1161.13 274.148C1161.63 274.415 1162.01 274.727 1162.29 275.085C1162.56 275.443 1162.78 275.759 1162.93 276.031H1163.09V269.545H1165.64V287H1163.15V284.963H1162.93C1162.78 285.241 1162.56 285.56 1162.27 285.918C1161.98 286.276 1161.59 286.588 1161.09 286.855C1160.59 287.122 1159.95 287.256 1159.15 287.256ZM1159.71 285.082C1160.45 285.082 1161.06 284.889 1161.57 284.503C1162.08 284.111 1162.47 283.568 1162.73 282.875C1163 282.182 1163.13 281.375 1163.13 280.455C1163.13 279.545 1163 278.75 1162.74 278.068C1162.48 277.386 1162.09 276.855 1161.59 276.474C1161.08 276.094 1160.46 275.903 1159.71 275.903C1158.95 275.903 1158.31 276.102 1157.79 276.5C1157.28 276.898 1156.9 277.44 1156.64 278.128C1156.38 278.815 1156.25 279.591 1156.25 280.455C1156.25 281.33 1156.38 282.116 1156.64 282.815C1156.91 283.514 1157.29 284.068 1157.8 284.477C1158.32 284.881 1158.96 285.082 1159.71 285.082ZM1174.46 287.264C1173.17 287.264 1172.06 286.989 1171.13 286.438C1170.2 285.881 1169.48 285.099 1168.98 284.094C1168.48 283.082 1168.23 281.898 1168.23 280.54C1168.23 279.199 1168.48 278.017 1168.98 276.994C1169.48 275.972 1170.19 275.173 1171.09 274.599C1172 274.026 1173.06 273.739 1174.28 273.739C1175.02 273.739 1175.73 273.861 1176.43 274.105C1177.12 274.349 1177.74 274.733 1178.29 275.256C1178.85 275.778 1179.28 276.457 1179.6 277.293C1179.92 278.122 1180.08 279.131 1180.08 280.318V281.222H1169.67V279.312H1177.58C1177.58 278.642 1177.44 278.048 1177.17 277.531C1176.9 277.009 1176.51 276.597 1176.02 276.295C1175.53 275.994 1174.96 275.844 1174.3 275.844C1173.58 275.844 1172.96 276.02 1172.42 276.372C1171.89 276.719 1171.48 277.173 1171.19 277.736C1170.91 278.293 1170.77 278.898 1170.77 279.551V281.043C1170.77 281.918 1170.92 282.662 1171.23 283.276C1171.54 283.889 1171.98 284.358 1172.53 284.682C1173.09 285 1173.74 285.159 1174.48 285.159C1174.97 285.159 1175.41 285.091 1175.81 284.955C1176.2 284.812 1176.55 284.602 1176.84 284.324C1177.13 284.045 1177.35 283.702 1177.5 283.293L1179.91 283.727C1179.72 284.437 1179.37 285.06 1178.87 285.594C1178.38 286.122 1177.76 286.534 1177.01 286.83C1176.26 287.119 1175.41 287.264 1174.46 287.264Z" fill="#333333"/>
<path d="M597.551 61.8179V79.2725H594.918V61.8179H597.551ZM603.274 71.4997V79.2725H600.726V66.1816H603.172V68.3122H603.334C603.635 67.6191 604.107 67.0622 604.749 66.6418C605.396 66.2213 606.212 66.0111 607.195 66.0111C608.087 66.0111 608.868 66.1986 609.538 66.5736C610.209 66.9429 610.729 67.4941 611.098 68.227C611.467 68.96 611.652 69.8662 611.652 70.9458V79.2725H609.104V71.2526C609.104 70.3037 608.857 69.5622 608.362 69.0281C607.868 68.4884 607.189 68.2185 606.325 68.2185C605.734 68.2185 605.209 68.3463 604.749 68.602C604.294 68.8577 603.933 69.2327 603.666 69.727C603.405 70.2156 603.274 70.8066 603.274 71.4997ZM614.818 61.8179H618.014L623.571 75.3861H623.775L629.332 61.8179H632.528V79.2725H630.023V66.6418H629.861L624.713 79.2469H622.633L617.486 66.6333H617.324V79.2725H614.818V61.8179ZM639.506 79.5622C638.677 79.5622 637.927 79.4088 637.256 79.102C636.586 78.7895 636.055 78.3378 635.663 77.7469C635.276 77.156 635.083 76.4316 635.083 75.5736C635.083 74.835 635.225 74.227 635.509 73.7497C635.793 73.2725 636.177 72.8946 636.66 72.6162C637.143 72.3378 637.682 72.1276 638.279 71.9855C638.876 71.8435 639.484 71.7355 640.103 71.6617C640.887 71.5708 641.523 71.4969 642.012 71.4401C642.501 71.3776 642.856 71.2781 643.077 71.1418C643.299 71.0054 643.41 70.7838 643.41 70.477V70.4173C643.41 69.673 643.199 69.0963 642.779 68.6872C642.364 68.2781 641.745 68.0736 640.921 68.0736C640.063 68.0736 639.387 68.2639 638.893 68.6446C638.404 69.0196 638.066 69.4372 637.878 69.8975L635.484 69.352C635.768 68.5566 636.182 67.9145 636.728 67.4259C637.279 66.9316 637.913 66.5736 638.628 66.352C639.344 66.1247 640.097 66.0111 640.887 66.0111C641.41 66.0111 641.964 66.0736 642.549 66.1986C643.14 66.3179 643.691 66.5395 644.202 66.8634C644.719 67.1872 645.143 67.6503 645.472 68.2526C645.802 68.8492 645.967 69.6247 645.967 70.5793V79.2725H643.478V77.4827H643.376C643.211 77.8122 642.964 78.1361 642.634 78.4543C642.305 78.7725 641.881 79.0367 641.364 79.2469C640.847 79.4571 640.228 79.5622 639.506 79.5622ZM640.06 77.5168C640.765 77.5168 641.367 77.3776 641.867 77.0992C642.373 76.8208 642.756 76.4571 643.018 76.0083C643.285 75.5537 643.418 75.0679 643.418 74.5509V72.8634C643.327 72.9543 643.151 73.0395 642.89 73.1191C642.634 73.1929 642.342 73.2583 642.012 73.3151C641.682 73.3662 641.361 73.4145 641.049 73.46C640.736 73.4997 640.475 73.5338 640.265 73.5622C639.77 73.6247 639.319 73.7298 638.91 73.8776C638.506 74.0253 638.182 74.2384 637.938 74.5168C637.699 74.7895 637.58 75.1531 637.58 75.6077C637.58 76.2384 637.813 76.7156 638.279 77.0395C638.745 77.3577 639.339 77.5168 640.06 77.5168ZM648.905 79.2725V66.1816H651.368V68.2611H651.504C651.743 67.5566 652.163 67.0026 652.765 66.5992C653.373 66.1901 654.061 65.9855 654.828 65.9855C654.987 65.9855 655.175 65.9912 655.39 66.0026C655.612 66.0139 655.785 66.0281 655.91 66.0452V68.4827C655.808 68.4543 655.626 68.423 655.365 68.3889C655.104 68.3492 654.842 68.3293 654.581 68.3293C653.979 68.3293 653.442 68.4571 652.97 68.7128C652.504 68.9628 652.135 69.3122 651.862 69.7611C651.589 70.2043 651.453 70.71 651.453 71.2781V79.2725H648.905ZM657.864 79.2725V61.8179H660.498V70.1531H660.711L668.032 61.8179H671.347L664.307 69.6759L671.373 79.2725H668.202L662.56 71.4742L660.498 73.8435V79.2725H657.864ZM673.961 79.2725V66.1816H676.51V79.2725H673.961ZM675.248 64.1617C674.805 64.1617 674.425 64.0139 674.106 63.7185C673.794 63.4173 673.638 63.0594 673.638 62.6446C673.638 62.2242 673.794 61.8662 674.106 61.5708C674.425 61.2696 674.805 61.1191 675.248 61.1191C675.692 61.1191 676.069 61.2696 676.382 61.5708C676.7 61.8662 676.859 62.2242 676.859 62.6446C676.859 63.0594 676.7 63.4173 676.382 63.7185C676.069 64.0139 675.692 64.1617 675.248 64.1617ZM685.593 66.1816V68.227H678.442V66.1816H685.593ZM680.36 63.0452H682.908V75.4287C682.908 75.923 682.982 76.2952 683.13 76.5452C683.277 76.7895 683.468 76.9571 683.701 77.048C683.939 77.1333 684.198 77.1759 684.476 77.1759C684.681 77.1759 684.86 77.1617 685.013 77.1333C685.167 77.1048 685.286 77.0821 685.371 77.0651L685.831 79.1702C685.684 79.227 685.473 79.2838 685.201 79.3406C684.928 79.4031 684.587 79.4372 684.178 79.4429C683.508 79.4543 682.883 79.335 682.303 79.085C681.723 78.835 681.255 78.4486 680.897 77.9259C680.539 77.4031 680.36 76.7469 680.36 75.9571V63.0452ZM699.706 79.2725H694.056V61.8179H699.885C701.596 61.8179 703.064 62.1673 704.292 62.8662C705.519 63.5594 706.459 64.5566 707.113 65.8577C707.772 67.1531 708.101 68.7071 708.101 70.5196C708.101 72.3378 707.769 73.9003 707.104 75.2071C706.445 76.5139 705.49 77.5196 704.24 78.2242C702.99 78.923 701.479 79.2725 699.706 79.2725ZM696.689 76.9713H699.561C700.891 76.9713 701.996 76.7213 702.877 76.2213C703.758 75.7156 704.417 74.9855 704.854 74.031C705.292 73.0708 705.51 71.9003 705.51 70.5196C705.51 69.1503 705.292 67.9884 704.854 67.0338C704.422 66.0793 703.777 65.3548 702.919 64.8605C702.061 64.3662 700.996 64.1191 699.723 64.1191H696.689V76.9713ZM716.358 79.5367C715.068 79.5367 713.957 79.2611 713.025 78.71C712.099 78.1531 711.383 77.3719 710.878 76.3662C710.378 75.3548 710.128 74.1702 710.128 72.8122C710.128 71.4713 710.378 70.2895 710.878 69.2668C711.383 68.2441 712.088 67.4458 712.991 66.8719C713.9 66.298 714.963 66.0111 716.179 66.0111C716.917 66.0111 717.633 66.1333 718.326 66.3776C719.02 66.6219 719.642 67.0054 720.193 67.5281C720.744 68.0509 721.179 68.7298 721.497 69.5651C721.815 70.3946 721.974 71.4031 721.974 72.5906V73.4941H711.568V71.585H719.477C719.477 70.9145 719.341 70.3208 719.068 69.8037C718.795 69.281 718.412 68.8691 717.917 68.5679C717.429 68.2668 716.855 68.1162 716.196 68.1162C715.48 68.1162 714.855 68.2923 714.321 68.6446C713.792 68.9912 713.383 69.4458 713.093 70.0083C712.809 70.5651 712.667 71.1702 712.667 71.8236V73.3151C712.667 74.1901 712.821 74.9344 713.128 75.548C713.44 76.1617 713.875 76.6304 714.431 76.9543C714.988 77.2725 715.639 77.4316 716.383 77.4316C716.866 77.4316 717.306 77.3634 717.704 77.227C718.102 77.085 718.446 76.8747 718.735 76.5963C719.025 76.3179 719.247 75.9742 719.4 75.5651L721.812 75.9997C721.619 76.71 721.272 77.3321 720.772 77.8662C720.278 78.3946 719.656 78.8066 718.906 79.102C718.162 79.3918 717.312 79.5367 716.358 79.5367ZM734.155 69.3776L731.845 69.7867C731.749 69.4912 731.595 69.21 731.385 68.9429C731.181 68.6759 730.902 68.4571 730.55 68.2867C730.198 68.1162 729.757 68.031 729.229 68.031C728.507 68.031 727.905 68.1929 727.422 68.5168C726.939 68.835 726.698 69.2469 726.698 69.7526C726.698 70.1901 726.86 70.5423 727.184 70.8094C727.507 71.0764 728.03 71.2952 728.752 71.4656L730.831 71.9429C732.036 72.2213 732.934 72.6503 733.524 73.2298C734.115 73.8094 734.411 74.5622 734.411 75.4884C734.411 76.2725 734.184 76.9713 733.729 77.585C733.28 78.1929 732.652 78.6702 731.845 79.0168C731.044 79.3634 730.115 79.5367 729.059 79.5367C727.593 79.5367 726.397 79.2242 725.47 78.5992C724.544 77.9685 723.976 77.0736 723.766 75.9145L726.229 75.5395C726.382 76.1816 726.698 76.6673 727.175 76.9969C727.652 77.3208 728.274 77.4827 729.042 77.4827C729.877 77.4827 730.544 77.3094 731.044 76.9628C731.544 76.6105 731.794 76.1816 731.794 75.6759C731.794 75.2668 731.641 74.923 731.334 74.6446C731.033 74.3662 730.57 74.156 729.945 74.0139L727.729 73.5281C726.507 73.2497 725.604 72.8066 725.019 72.1986C724.439 71.5906 724.149 70.8208 724.149 69.8889C724.149 69.1162 724.365 68.4401 724.797 67.8605C725.229 67.281 725.826 66.8293 726.587 66.5054C727.348 66.1759 728.22 66.0111 729.203 66.0111C730.618 66.0111 731.732 66.3179 732.544 66.9316C733.357 67.5395 733.894 68.3548 734.155 69.3776ZM736.757 79.2725V66.1816H739.305V79.2725H736.757ZM738.044 64.1617C737.6 64.1617 737.22 64.0139 736.902 63.7185C736.589 63.4173 736.433 63.0594 736.433 62.6446C736.433 62.2242 736.589 61.8662 736.902 61.5708C737.22 61.2696 737.6 61.1191 738.044 61.1191C738.487 61.1191 738.865 61.2696 739.177 61.5708C739.495 61.8662 739.654 62.2242 739.654 62.6446C739.654 63.0594 739.495 63.4173 739.177 63.7185C738.865 64.0139 738.487 64.1617 738.044 64.1617ZM747.766 84.4543C746.726 84.4543 745.831 84.3179 745.081 84.0452C744.337 83.7725 743.729 83.4117 743.257 82.9628C742.786 82.5139 742.434 82.0225 742.201 81.4884L744.391 80.585C744.544 80.835 744.749 81.0992 745.005 81.3776C745.266 81.6617 745.618 81.9031 746.061 82.102C746.51 82.3009 747.087 82.4003 747.791 82.4003C748.757 82.4003 749.556 82.1645 750.186 81.6929C750.817 81.227 751.132 80.4827 751.132 79.46V76.8861H750.97C750.817 77.1645 750.595 77.4742 750.306 77.8151C750.022 78.156 749.63 78.4514 749.13 78.7014C748.63 78.9514 747.979 79.0764 747.178 79.0764C746.144 79.0764 745.212 78.835 744.382 78.352C743.559 77.8634 742.905 77.1446 742.422 76.1958C741.945 75.2412 741.706 74.0679 741.706 72.6759C741.706 71.2838 741.942 70.0906 742.414 69.0963C742.891 68.102 743.544 67.3406 744.374 66.8122C745.203 66.2781 746.144 66.0111 747.195 66.0111C748.007 66.0111 748.664 66.1475 749.164 66.4202C749.664 66.6872 750.053 66.9997 750.331 67.3577C750.615 67.7156 750.834 68.031 750.987 68.3037H751.175V66.1816H753.672V79.5622C753.672 80.6872 753.411 81.6105 752.888 82.3321C752.365 83.0537 751.658 83.5878 750.766 83.9344C749.88 84.281 748.88 84.4543 747.766 84.4543ZM747.74 76.9628C748.473 76.9628 749.093 76.7923 749.598 76.4514C750.11 76.1048 750.496 75.6105 750.757 74.9685C751.024 74.3208 751.158 73.5452 751.158 72.6418C751.158 71.7611 751.027 70.9855 750.766 70.3151C750.505 69.6446 750.121 69.1219 749.615 68.7469C749.11 68.3662 748.485 68.1759 747.74 68.1759C746.973 68.1759 746.334 68.3747 745.823 68.7725C745.311 69.1645 744.925 69.6986 744.664 70.3747C744.408 71.0509 744.28 71.8066 744.28 72.6418C744.28 73.4997 744.411 74.2526 744.672 74.9003C744.934 75.548 745.32 76.0537 745.831 76.4173C746.348 76.781 746.985 76.9628 747.74 76.9628ZM759.182 71.4997V79.2725H756.634V66.1816H759.08V68.3122H759.242C759.543 67.6191 760.014 67.0622 760.656 66.6418C761.304 66.2213 762.12 66.0111 763.103 66.0111C763.995 66.0111 764.776 66.1986 765.446 66.5736C766.117 66.9429 766.637 67.4941 767.006 68.227C767.375 68.96 767.56 69.8662 767.56 70.9458V79.2725H765.012V71.2526C765.012 70.3037 764.764 69.5622 764.27 69.0281C763.776 68.4884 763.097 68.2185 762.233 68.2185C761.642 68.2185 761.117 68.3463 760.656 68.602C760.202 68.8577 759.841 69.2327 759.574 69.727C759.313 70.2156 759.182 70.8066 759.182 71.4997ZM786.141 66.4031C786.051 65.5963 785.676 64.9713 785.016 64.5281C784.357 64.0793 783.528 63.8548 782.528 63.8548C781.812 63.8548 781.193 63.9685 780.67 64.1958C780.147 64.4173 779.741 64.7242 779.451 65.1162C779.167 65.5026 779.025 65.9429 779.025 66.4372C779.025 66.852 779.122 67.21 779.315 67.5111C779.514 67.8122 779.772 68.0651 780.09 68.2696C780.414 68.4685 780.761 68.6361 781.13 68.7725C781.499 68.9031 781.855 69.0111 782.195 69.0963L783.9 69.5395C784.457 69.6759 785.028 69.8605 785.613 70.0935C786.198 70.3264 786.741 70.6333 787.241 71.0139C787.741 71.3946 788.144 71.8662 788.451 72.4287C788.764 72.9912 788.92 73.6645 788.92 74.4486C788.92 75.4372 788.664 76.3151 788.153 77.0821C787.647 77.8492 786.911 78.4543 785.945 78.8975C784.985 79.3406 783.823 79.5622 782.46 79.5622C781.153 79.5622 780.022 79.3548 779.068 78.9401C778.113 78.5253 777.366 77.9372 776.826 77.1759C776.286 76.4088 775.988 75.4997 775.931 74.4486H778.573C778.624 75.0793 778.829 75.6048 779.187 76.0253C779.551 76.4401 780.014 76.7497 780.576 76.9543C781.144 77.1531 781.766 77.2526 782.443 77.2526C783.187 77.2526 783.849 77.1361 784.428 76.9031C785.014 76.6645 785.474 76.335 785.809 75.9145C786.144 75.4884 786.312 74.9912 786.312 74.423C786.312 73.906 786.164 73.4827 785.869 73.1531C785.579 72.8236 785.184 72.5509 784.684 72.335C784.19 72.1191 783.63 71.9287 783.005 71.7639L780.943 71.2014C779.545 70.8208 778.437 70.2611 777.619 69.5225C776.806 68.7838 776.4 67.8066 776.4 66.5906C776.4 65.585 776.673 64.7071 777.218 63.9571C777.764 63.2071 778.502 62.6247 779.434 62.21C780.366 61.7895 781.417 61.5793 782.588 61.5793C783.769 61.5793 784.812 61.7867 785.715 62.2014C786.624 62.6162 787.34 63.1872 787.863 63.9145C788.386 64.6361 788.659 65.4656 788.681 66.4031H786.141ZM793.017 84.1816C792.636 84.1816 792.29 84.1503 791.977 84.0878C791.665 84.031 791.432 83.9685 791.279 83.9003L791.892 81.8122C792.358 81.9372 792.773 81.9912 793.136 81.9742C793.5 81.9571 793.821 81.8208 794.1 81.5651C794.384 81.3094 794.634 80.8918 794.85 80.3122L795.165 79.4429L790.375 66.1816H793.102L796.418 76.3406H796.554L799.869 66.1816H802.605L797.21 81.0196C796.96 81.7014 796.642 82.2781 796.256 82.7497C795.869 83.227 795.409 83.585 794.875 83.8236C794.341 84.0622 793.722 84.1816 793.017 84.1816ZM814.354 69.3776L812.044 69.7867C811.948 69.4912 811.794 69.21 811.584 68.9429C811.379 68.6759 811.101 68.4571 810.749 68.2867C810.396 68.1162 809.956 68.031 809.428 68.031C808.706 68.031 808.104 68.1929 807.621 68.5168C807.138 68.835 806.896 69.2469 806.896 69.7526C806.896 70.1901 807.058 70.5423 807.382 70.8094C807.706 71.0764 808.229 71.2952 808.95 71.4656L811.03 71.9429C812.234 72.2213 813.132 72.6503 813.723 73.2298C814.314 73.8094 814.609 74.5622 814.609 75.4884C814.609 76.2725 814.382 76.9713 813.928 77.585C813.479 78.1929 812.851 78.6702 812.044 79.0168C811.243 79.3634 810.314 79.5367 809.257 79.5367C807.791 79.5367 806.595 79.2242 805.669 78.5992C804.743 77.9685 804.175 77.0736 803.965 75.9145L806.428 75.5395C806.581 76.1816 806.896 76.6673 807.374 76.9969C807.851 77.3208 808.473 77.4827 809.24 77.4827C810.075 77.4827 810.743 77.3094 811.243 76.9628C811.743 76.6105 811.993 76.1816 811.993 75.6759C811.993 75.2668 811.84 74.923 811.533 74.6446C811.232 74.3662 810.769 74.156 810.144 74.0139L807.928 73.5281C806.706 73.2497 805.803 72.8066 805.217 72.1986C804.638 71.5906 804.348 70.8208 804.348 69.8889C804.348 69.1162 804.564 68.4401 804.996 67.8605C805.428 67.281 806.024 66.8293 806.786 66.5054C807.547 66.1759 808.419 66.0111 809.402 66.0111C810.817 66.0111 811.931 66.3179 812.743 66.9316C813.556 67.5395 814.092 68.3548 814.354 69.3776ZM823.066 66.1816V68.227H815.916V66.1816H823.066ZM817.833 63.0452H820.381V75.4287C820.381 75.923 820.455 76.2952 820.603 76.5452C820.751 76.7895 820.941 76.9571 821.174 77.048C821.413 77.1333 821.671 77.1759 821.95 77.1759C822.154 77.1759 822.333 77.1617 822.487 77.1333C822.64 77.1048 822.759 77.0821 822.845 77.0651L823.305 79.1702C823.157 79.227 822.947 79.2838 822.674 79.3406C822.401 79.4031 822.06 79.4372 821.651 79.4429C820.981 79.4543 820.356 79.335 819.776 79.085C819.197 78.835 818.728 78.4486 818.37 77.9259C818.012 77.4031 817.833 76.7469 817.833 75.9571V63.0452ZM830.93 79.5367C829.641 79.5367 828.53 79.2611 827.598 78.71C826.672 78.1531 825.956 77.3719 825.45 76.3662C824.95 75.3548 824.7 74.1702 824.7 72.8122C824.7 71.4713 824.95 70.2895 825.45 69.2668C825.956 68.2441 826.661 67.4458 827.564 66.8719C828.473 66.298 829.536 66.0111 830.751 66.0111C831.49 66.0111 832.206 66.1333 832.899 66.3776C833.592 66.6219 834.215 67.0054 834.766 67.5281C835.317 68.0509 835.751 68.7298 836.07 69.5651C836.388 70.3946 836.547 71.4031 836.547 72.5906V73.4941H826.141V71.585H834.05C834.05 70.9145 833.913 70.3208 833.641 69.8037C833.368 69.281 832.984 68.8691 832.49 68.5679C832.001 68.2668 831.428 68.1162 830.768 68.1162C830.053 68.1162 829.428 68.2923 828.893 68.6446C828.365 68.9912 827.956 69.4458 827.666 70.0083C827.382 70.5651 827.24 71.1702 827.24 71.8236V73.3151C827.24 74.1901 827.393 74.9344 827.7 75.548C828.013 76.1617 828.447 76.6304 829.004 76.9543C829.561 77.2725 830.212 77.4316 830.956 77.4316C831.439 77.4316 831.879 77.3634 832.277 77.227C832.675 77.085 833.018 76.8747 833.308 76.5963C833.598 76.3179 833.82 75.9742 833.973 75.5651L836.385 75.9997C836.192 76.71 835.845 77.3321 835.345 77.8662C834.851 78.3946 834.229 78.8066 833.479 79.102C832.734 79.3918 831.885 79.5367 830.93 79.5367ZM838.918 79.2725V66.1816H841.364V68.3122H841.526C841.799 67.5906 842.245 67.0281 842.864 66.6247C843.484 66.2156 844.225 66.0111 845.089 66.0111C845.964 66.0111 846.697 66.2156 847.288 66.6247C847.884 67.0338 848.325 67.5963 848.609 68.3122H848.745C849.058 67.6134 849.555 67.0566 850.236 66.6418C850.918 66.2213 851.731 66.0111 852.674 66.0111C853.861 66.0111 854.83 66.3833 855.58 67.1276C856.336 67.8719 856.714 68.9941 856.714 70.4941V79.2725H854.165V70.7327C854.165 69.8463 853.924 69.2043 853.441 68.8066C852.958 68.4088 852.381 68.21 851.711 68.21C850.881 68.21 850.236 68.4656 849.776 68.977C849.316 69.4827 849.086 70.1333 849.086 70.9287V79.2725H846.546V70.5708C846.546 69.8605 846.325 69.2895 845.881 68.8577C845.438 68.4259 844.861 68.21 844.151 68.21C843.668 68.21 843.222 68.3378 842.813 68.5935C842.41 68.8435 842.083 69.1929 841.833 69.6418C841.589 70.0906 841.467 70.6105 841.467 71.2014V79.2725H838.918Z" fill="#333333"/>
<path d="M1040 258L1025 249.34V266.66L1040 258ZM894.072 259.5H929.036V256.5H894.072V259.5ZM1005.04 259.5H1026.5V256.5H1005.04V259.5Z" fill="#B3B3B3"/>
<path d="M950.658 254.131C950.567 253.324 950.192 252.699 949.533 252.256C948.874 251.807 948.044 251.582 947.044 251.582C946.328 251.582 945.709 251.696 945.186 251.923C944.663 252.145 944.257 252.452 943.967 252.844C943.683 253.23 943.541 253.67 943.541 254.165C943.541 254.58 943.638 254.937 943.831 255.239C944.03 255.54 944.288 255.793 944.606 255.997C944.93 256.196 945.277 256.364 945.646 256.5C946.016 256.631 946.371 256.739 946.712 256.824L948.416 257.267C948.973 257.403 949.544 257.588 950.129 257.821C950.714 258.054 951.257 258.361 951.757 258.741C952.257 259.122 952.66 259.594 952.967 260.156C953.28 260.719 953.436 261.392 953.436 262.176C953.436 263.165 953.18 264.043 952.669 264.81C952.163 265.577 951.428 266.182 950.462 266.625C949.501 267.068 948.339 267.29 946.976 267.29C945.669 267.29 944.538 267.082 943.584 266.668C942.629 266.253 941.882 265.665 941.342 264.903C940.803 264.136 940.504 263.227 940.447 262.176H943.089C943.141 262.807 943.345 263.332 943.703 263.753C944.067 264.168 944.53 264.477 945.092 264.682C945.66 264.881 946.283 264.98 946.959 264.98C947.703 264.98 948.365 264.864 948.945 264.631C949.53 264.392 949.99 264.062 950.325 263.642C950.66 263.216 950.828 262.719 950.828 262.151C950.828 261.634 950.68 261.21 950.385 260.881C950.095 260.551 949.7 260.278 949.2 260.062C948.706 259.847 948.146 259.656 947.521 259.491L945.459 258.929C944.061 258.548 942.953 257.989 942.135 257.25C941.322 256.511 940.916 255.534 940.916 254.318C940.916 253.312 941.189 252.435 941.734 251.685C942.28 250.935 943.018 250.352 943.95 249.938C944.882 249.517 945.933 249.307 947.104 249.307C948.285 249.307 949.328 249.514 950.231 249.929C951.141 250.344 951.856 250.915 952.379 251.642C952.902 252.364 953.175 253.193 953.197 254.131H950.658ZM957.533 271.909C957.153 271.909 956.806 271.878 956.494 271.815C956.181 271.759 955.948 271.696 955.795 271.628L956.408 269.54C956.874 269.665 957.289 269.719 957.653 269.702C958.016 269.685 958.337 269.548 958.616 269.293C958.9 269.037 959.15 268.619 959.366 268.04L959.681 267.17L954.891 253.909H957.619L960.934 264.068H961.07L964.386 253.909H967.121L961.726 268.747C961.476 269.429 961.158 270.006 960.772 270.477C960.386 270.955 959.925 271.313 959.391 271.551C958.857 271.79 958.238 271.909 957.533 271.909ZM971.609 259.227V267H969.06V253.909H971.506V256.04H971.668C971.969 255.347 972.441 254.79 973.083 254.369C973.731 253.949 974.546 253.739 975.529 253.739C976.421 253.739 977.202 253.926 977.873 254.301C978.543 254.67 979.063 255.222 979.432 255.955C979.802 256.687 979.986 257.594 979.986 258.673V267H977.438V258.98C977.438 258.031 977.191 257.29 976.697 256.756C976.202 256.216 975.523 255.946 974.66 255.946C974.069 255.946 973.543 256.074 973.083 256.33C972.628 256.585 972.268 256.96 972.001 257.455C971.739 257.943 971.609 258.534 971.609 259.227ZM988.462 267.264C987.195 267.264 986.104 266.977 985.189 266.403C984.28 265.824 983.582 265.026 983.093 264.009C982.604 262.991 982.36 261.827 982.36 260.514C982.36 259.185 982.61 258.011 983.11 256.994C983.61 255.972 984.314 255.173 985.224 254.599C986.133 254.026 987.204 253.739 988.437 253.739C989.431 253.739 990.317 253.923 991.096 254.293C991.874 254.656 992.502 255.168 992.979 255.827C993.462 256.486 993.749 257.256 993.84 258.136H991.36C991.224 257.523 990.911 256.994 990.422 256.551C989.939 256.108 989.292 255.886 988.479 255.886C987.769 255.886 987.147 256.074 986.613 256.449C986.084 256.818 985.672 257.347 985.377 258.034C985.082 258.716 984.934 259.523 984.934 260.455C984.934 261.409 985.079 262.233 985.368 262.926C985.658 263.619 986.067 264.156 986.596 264.537C987.13 264.918 987.758 265.108 988.479 265.108C988.962 265.108 989.4 265.02 989.792 264.844C990.189 264.662 990.522 264.403 990.789 264.068C991.062 263.733 991.252 263.33 991.36 262.858H993.84C993.749 263.705 993.474 264.46 993.013 265.125C992.553 265.79 991.937 266.312 991.164 266.693C990.397 267.074 989.496 267.264 988.462 267.264Z" fill="black" fill-opacity="0.8"/>
<path d="M782.5 608C809.844 608 832.5 585.734 832.5 558C832.5 530.656 809.844 508 782.5 508C754.766 508 732.5 530.656 732.5 558C732.5 585.734 754.766 608 782.5 608ZM802.031 626.75H762.578C725.078 626.75 695 657.219 695 694.719C695 702.141 700.859 708 708.281 708H856.328C863.75 708 870 702.141 870 694.719C870 657.219 839.531 626.75 802.031 626.75Z" fill="#0D99FF"/>
<path d="M734.607 681H728.956V663.545H734.786C736.496 663.545 737.965 663.895 739.192 664.594C740.42 665.287 741.36 666.284 742.013 667.585C742.672 668.881 743.002 670.435 743.002 672.247C743.002 674.065 742.67 675.628 742.005 676.935C741.346 678.241 740.391 679.247 739.141 679.952C737.891 680.651 736.38 681 734.607 681ZM731.59 678.699H734.462C735.792 678.699 736.897 678.449 737.777 677.949C738.658 677.443 739.317 676.713 739.755 675.759C740.192 674.798 740.411 673.628 740.411 672.247C740.411 670.878 740.192 669.716 739.755 668.761C739.323 667.807 738.678 667.082 737.82 666.588C736.962 666.094 735.897 665.847 734.624 665.847H731.59V678.699ZM751.258 681.264C749.969 681.264 748.858 680.989 747.926 680.438C747 679.881 746.284 679.099 745.778 678.094C745.278 677.082 745.028 675.898 745.028 674.54C745.028 673.199 745.278 672.017 745.778 670.994C746.284 669.972 746.988 669.173 747.892 668.599C748.801 668.026 749.863 667.739 751.079 667.739C751.818 667.739 752.534 667.861 753.227 668.105C753.92 668.349 754.542 668.733 755.094 669.256C755.645 669.778 756.079 670.457 756.397 671.293C756.716 672.122 756.875 673.131 756.875 674.318V675.222H746.469V673.312H754.378C754.378 672.642 754.241 672.048 753.969 671.531C753.696 671.009 753.312 670.597 752.818 670.295C752.329 669.994 751.755 669.844 751.096 669.844C750.38 669.844 749.755 670.02 749.221 670.372C748.693 670.719 748.284 671.173 747.994 671.736C747.71 672.293 747.568 672.898 747.568 673.551V675.043C747.568 675.918 747.721 676.662 748.028 677.276C748.341 677.889 748.775 678.358 749.332 678.682C749.889 679 750.54 679.159 751.284 679.159C751.767 679.159 752.207 679.091 752.605 678.955C753.003 678.812 753.346 678.602 753.636 678.324C753.926 678.045 754.147 677.702 754.301 677.293L756.713 677.727C756.52 678.437 756.173 679.06 755.673 679.594C755.179 680.122 754.557 680.534 753.807 680.83C753.062 681.119 752.213 681.264 751.258 681.264ZM769.056 671.105L766.746 671.514C766.65 671.219 766.496 670.937 766.286 670.67C766.081 670.403 765.803 670.185 765.451 670.014C765.098 669.844 764.658 669.759 764.13 669.759C763.408 669.759 762.806 669.92 762.323 670.244C761.84 670.562 761.598 670.974 761.598 671.48C761.598 671.918 761.76 672.27 762.084 672.537C762.408 672.804 762.931 673.023 763.652 673.193L765.732 673.67C766.937 673.949 767.834 674.378 768.425 674.957C769.016 675.537 769.312 676.29 769.312 677.216C769.312 678 769.084 678.699 768.63 679.312C768.181 679.92 767.553 680.398 766.746 680.744C765.945 681.091 765.016 681.264 763.959 681.264C762.493 681.264 761.297 680.952 760.371 680.327C759.445 679.696 758.877 678.801 758.667 677.642L761.13 677.267C761.283 677.909 761.598 678.395 762.076 678.724C762.553 679.048 763.175 679.21 763.942 679.21C764.777 679.21 765.445 679.037 765.945 678.69C766.445 678.338 766.695 677.909 766.695 677.403C766.695 676.994 766.542 676.651 766.235 676.372C765.934 676.094 765.471 675.884 764.846 675.741L762.63 675.256C761.408 674.977 760.505 674.534 759.919 673.926C759.34 673.318 759.05 672.548 759.05 671.616C759.05 670.844 759.266 670.168 759.698 669.588C760.13 669.009 760.726 668.557 761.488 668.233C762.249 667.903 763.121 667.739 764.104 667.739C765.519 667.739 766.633 668.045 767.445 668.659C768.258 669.267 768.794 670.082 769.056 671.105ZM771.657 681V667.909H774.206V681H771.657ZM772.944 665.889C772.501 665.889 772.12 665.741 771.802 665.446C771.49 665.145 771.333 664.787 771.333 664.372C771.333 663.952 771.49 663.594 771.802 663.298C772.12 662.997 772.501 662.847 772.944 662.847C773.387 662.847 773.765 662.997 774.078 663.298C774.396 663.594 774.555 663.952 774.555 664.372C774.555 664.787 774.396 665.145 774.078 665.446C773.765 665.741 773.387 665.889 772.944 665.889ZM782.667 686.182C781.627 686.182 780.732 686.045 779.982 685.773C779.238 685.5 778.63 685.139 778.158 684.69C777.686 684.241 777.334 683.75 777.101 683.216L779.292 682.312C779.445 682.562 779.65 682.827 779.905 683.105C780.167 683.389 780.519 683.631 780.962 683.83C781.411 684.028 781.988 684.128 782.692 684.128C783.658 684.128 784.456 683.892 785.087 683.42C785.718 682.955 786.033 682.21 786.033 681.188V678.614H785.871C785.718 678.892 785.496 679.202 785.206 679.543C784.922 679.884 784.53 680.179 784.03 680.429C783.53 680.679 782.88 680.804 782.078 680.804C781.044 680.804 780.113 680.562 779.283 680.08C778.459 679.591 777.806 678.872 777.323 677.923C776.846 676.969 776.607 675.795 776.607 674.403C776.607 673.011 776.843 671.818 777.314 670.824C777.792 669.83 778.445 669.068 779.275 668.54C780.104 668.006 781.044 667.739 782.096 667.739C782.908 667.739 783.564 667.875 784.064 668.148C784.564 668.415 784.953 668.727 785.232 669.085C785.516 669.443 785.735 669.759 785.888 670.031H786.076V667.909H788.573V681.29C788.573 682.415 788.311 683.338 787.789 684.06C787.266 684.781 786.559 685.315 785.667 685.662C784.78 686.009 783.78 686.182 782.667 686.182ZM782.641 678.69C783.374 678.69 783.993 678.52 784.499 678.179C785.01 677.832 785.397 677.338 785.658 676.696C785.925 676.048 786.059 675.273 786.059 674.369C786.059 673.489 785.928 672.713 785.667 672.043C785.405 671.372 785.022 670.849 784.516 670.474C784.01 670.094 783.385 669.903 782.641 669.903C781.874 669.903 781.235 670.102 780.723 670.5C780.212 670.892 779.826 671.426 779.564 672.102C779.309 672.778 779.181 673.534 779.181 674.369C779.181 675.227 779.311 675.98 779.573 676.628C779.834 677.276 780.221 677.781 780.732 678.145C781.249 678.509 781.885 678.69 782.641 678.69ZM794.083 673.227V681H791.534V667.909H793.98V670.04H794.142C794.444 669.347 794.915 668.79 795.557 668.369C796.205 667.949 797.02 667.739 798.003 667.739C798.895 667.739 799.676 667.926 800.347 668.301C801.017 668.67 801.537 669.222 801.907 669.955C802.276 670.687 802.461 671.594 802.461 672.673V681H799.912V672.98C799.912 672.031 799.665 671.29 799.171 670.756C798.676 670.216 797.997 669.946 797.134 669.946C796.543 669.946 796.017 670.074 795.557 670.33C795.103 670.585 794.742 670.96 794.475 671.455C794.213 671.943 794.083 672.534 794.083 673.227ZM811.064 681.264C809.774 681.264 808.664 680.989 807.732 680.438C806.806 679.881 806.09 679.099 805.584 678.094C805.084 677.082 804.834 675.898 804.834 674.54C804.834 673.199 805.084 672.017 805.584 670.994C806.09 669.972 806.794 669.173 807.698 668.599C808.607 668.026 809.669 667.739 810.885 667.739C811.624 667.739 812.34 667.861 813.033 668.105C813.726 668.349 814.348 668.733 814.899 669.256C815.451 669.778 815.885 670.457 816.203 671.293C816.522 672.122 816.681 673.131 816.681 674.318V675.222H806.274V673.312H814.184C814.184 672.642 814.047 672.048 813.774 671.531C813.502 671.009 813.118 670.597 812.624 670.295C812.135 669.994 811.561 669.844 810.902 669.844C810.186 669.844 809.561 670.02 809.027 670.372C808.499 670.719 808.09 671.173 807.8 671.736C807.516 672.293 807.374 672.898 807.374 673.551V675.043C807.374 675.918 807.527 676.662 807.834 677.276C808.147 677.889 808.581 678.358 809.138 678.682C809.695 679 810.345 679.159 811.09 679.159C811.573 679.159 812.013 679.091 812.411 678.955C812.809 678.812 813.152 678.602 813.442 678.324C813.732 678.045 813.953 677.702 814.107 677.293L816.519 677.727C816.326 678.437 815.979 679.06 815.479 679.594C814.985 680.122 814.363 680.534 813.613 680.83C812.868 681.119 812.019 681.264 811.064 681.264ZM819.052 681V667.909H821.515V669.989H821.652C821.89 669.284 822.311 668.73 822.913 668.327C823.521 667.918 824.208 667.713 824.975 667.713C825.134 667.713 825.322 667.719 825.538 667.73C825.759 667.741 825.933 667.756 826.058 667.773V670.21C825.956 670.182 825.774 670.151 825.512 670.116C825.251 670.077 824.99 670.057 824.728 670.057C824.126 670.057 823.589 670.185 823.117 670.44C822.652 670.69 822.282 671.04 822.009 671.489C821.737 671.932 821.6 672.437 821.6 673.006V681H819.052ZM837.617 671.105L835.307 671.514C835.21 671.219 835.057 670.937 834.847 670.67C834.642 670.403 834.364 670.185 834.012 670.014C833.659 669.844 833.219 669.759 832.691 669.759C831.969 669.759 831.367 669.92 830.884 670.244C830.401 670.562 830.159 670.974 830.159 671.48C830.159 671.918 830.321 672.27 830.645 672.537C830.969 672.804 831.492 673.023 832.213 673.193L834.293 673.67C835.497 673.949 836.395 674.378 836.986 674.957C837.577 675.537 837.872 676.29 837.872 677.216C837.872 678 837.645 678.699 837.191 679.312C836.742 679.92 836.114 680.398 835.307 680.744C834.506 681.091 833.577 681.264 832.52 681.264C831.054 681.264 829.858 680.952 828.932 680.327C828.006 679.696 827.438 678.801 827.227 677.642L829.691 677.267C829.844 677.909 830.159 678.395 830.637 678.724C831.114 679.048 831.736 679.21 832.503 679.21C833.338 679.21 834.006 679.037 834.506 678.69C835.006 678.338 835.256 677.909 835.256 677.403C835.256 676.994 835.102 676.651 834.796 676.372C834.495 676.094 834.031 675.884 833.406 675.741L831.191 675.256C829.969 674.977 829.066 674.534 828.48 673.926C827.901 673.318 827.611 672.548 827.611 671.616C827.611 670.844 827.827 670.168 828.259 669.588C828.691 669.009 829.287 668.557 830.049 668.233C830.81 667.903 831.682 667.739 832.665 667.739C834.08 667.739 835.193 668.045 836.006 668.659C836.818 669.267 837.355 670.082 837.617 671.105Z" fill="white"/>
<path d="M1150.5 608C1177.84 608 1200.5 585.734 1200.5 558C1200.5 530.656 1177.84 508 1150.5 508C1122.77 508 1100.5 530.656 1100.5 558C1100.5 585.734 1122.77 608 1150.5 608ZM1170.03 626.75H1130.58C1093.08 626.75 1063 657.219 1063 694.719C1063 702.141 1068.86 708 1076.28 708H1224.33C1231.75 708 1238 702.141 1238 694.719C1238 657.219 1207.53 626.75 1170.03 626.75Z" fill="#0D99FF"/>
<path d="M1097.65 681V663.545H1108.59V665.812H1100.28V671.131H1108.02V673.389H1100.28V678.733H1108.69V681H1097.65ZM1114 673.227V681H1111.45V667.909H1113.89V670.04H1114.06C1114.36 669.347 1114.83 668.79 1115.47 668.369C1116.12 667.949 1116.93 667.739 1117.92 667.739C1118.81 667.739 1119.59 667.926 1120.26 668.301C1120.93 668.67 1121.45 669.222 1121.82 669.955C1122.19 670.687 1122.37 671.594 1122.37 672.673V681H1119.83V672.98C1119.83 672.031 1119.58 671.29 1119.08 670.756C1118.59 670.216 1117.91 669.946 1117.05 669.946C1116.46 669.946 1115.93 670.074 1115.47 670.33C1115.02 670.585 1114.66 670.96 1114.39 671.455C1114.13 671.943 1114 672.534 1114 673.227ZM1130.82 686.182C1129.78 686.182 1128.89 686.045 1128.14 685.773C1127.4 685.5 1126.79 685.139 1126.32 684.69C1125.84 684.241 1125.49 683.75 1125.26 683.216L1127.45 682.312C1127.6 682.562 1127.81 682.827 1128.06 683.105C1128.32 683.389 1128.68 683.631 1129.12 683.83C1129.57 684.028 1130.15 684.128 1130.85 684.128C1131.82 684.128 1132.61 683.892 1133.25 683.42C1133.88 682.955 1134.19 682.21 1134.19 681.188V678.614H1134.03C1133.88 678.892 1133.65 679.202 1133.36 679.543C1133.08 679.884 1132.69 680.179 1132.19 680.429C1131.69 680.679 1131.04 680.804 1130.24 680.804C1129.2 680.804 1128.27 680.562 1127.44 680.08C1126.62 679.591 1125.96 678.872 1125.48 677.923C1125 676.969 1124.76 675.795 1124.76 674.403C1124.76 673.011 1125 671.818 1125.47 670.824C1125.95 669.83 1126.6 669.068 1127.43 668.54C1128.26 668.006 1129.2 667.739 1130.25 667.739C1131.07 667.739 1131.72 667.875 1132.22 668.148C1132.72 668.415 1133.11 668.727 1133.39 669.085C1133.67 669.443 1133.89 669.759 1134.05 670.031H1134.23V667.909H1136.73V681.29C1136.73 682.415 1136.47 683.338 1135.95 684.06C1135.42 684.781 1134.72 685.315 1133.82 685.662C1132.94 686.009 1131.94 686.182 1130.82 686.182ZM1130.8 678.69C1131.53 678.69 1132.15 678.52 1132.66 678.179C1133.17 677.832 1133.55 677.338 1133.82 676.696C1134.08 676.048 1134.22 675.273 1134.22 674.369C1134.22 673.489 1134.09 672.713 1133.82 672.043C1133.56 671.372 1133.18 670.849 1132.67 670.474C1132.17 670.094 1131.54 669.903 1130.8 669.903C1130.03 669.903 1129.39 670.102 1128.88 670.5C1128.37 670.892 1127.98 671.426 1127.72 672.102C1127.47 672.778 1127.34 673.534 1127.34 674.369C1127.34 675.227 1127.47 675.98 1127.73 676.628C1127.99 677.276 1128.38 677.781 1128.89 678.145C1129.41 678.509 1130.04 678.69 1130.8 678.69ZM1139.69 681V667.909H1142.24V681H1139.69ZM1140.98 665.889C1140.54 665.889 1140.16 665.741 1139.84 665.446C1139.52 665.145 1139.37 664.787 1139.37 664.372C1139.37 663.952 1139.52 663.594 1139.84 663.298C1140.16 662.997 1140.54 662.847 1140.98 662.847C1141.42 662.847 1141.8 662.997 1142.11 663.298C1142.43 663.594 1142.59 663.952 1142.59 664.372C1142.59 664.787 1142.43 665.145 1142.11 665.446C1141.8 665.741 1141.42 665.889 1140.98 665.889ZM1147.76 673.227V681H1145.21V667.909H1147.66V670.04H1147.82C1148.12 669.347 1148.59 668.79 1149.24 668.369C1149.88 667.949 1150.7 667.739 1151.68 667.739C1152.57 667.739 1153.36 667.926 1154.03 668.301C1154.7 668.67 1155.22 669.222 1155.59 669.955C1155.95 670.687 1156.14 671.594 1156.14 672.673V681H1153.59V672.98C1153.59 672.031 1153.34 671.29 1152.85 670.756C1152.36 670.216 1151.68 669.946 1150.81 669.946C1150.22 669.946 1149.7 670.074 1149.24 670.33C1148.78 670.585 1148.42 670.96 1148.15 671.455C1147.89 671.943 1147.76 672.534 1147.76 673.227ZM1164.74 681.264C1163.45 681.264 1162.34 680.989 1161.41 680.438C1160.48 679.881 1159.77 679.099 1159.26 678.094C1158.76 677.082 1158.51 675.898 1158.51 674.54C1158.51 673.199 1158.76 672.017 1159.26 670.994C1159.77 669.972 1160.47 669.173 1161.38 668.599C1162.29 668.026 1163.35 667.739 1164.56 667.739C1165.3 667.739 1166.02 667.861 1166.71 668.105C1167.4 668.349 1168.03 668.733 1168.58 669.256C1169.13 669.778 1169.56 670.457 1169.88 671.293C1170.2 672.122 1170.36 673.131 1170.36 674.318V675.222H1159.95V673.312H1167.86C1167.86 672.642 1167.73 672.048 1167.45 671.531C1167.18 671.009 1166.8 670.597 1166.3 670.295C1165.81 669.994 1165.24 669.844 1164.58 669.844C1163.87 669.844 1163.24 670.02 1162.71 670.372C1162.18 670.719 1161.77 671.173 1161.48 671.736C1161.19 672.293 1161.05 672.898 1161.05 673.551V675.043C1161.05 675.918 1161.21 676.662 1161.51 677.276C1161.83 677.889 1162.26 678.358 1162.82 678.682C1163.37 679 1164.02 679.159 1164.77 679.159C1165.25 679.159 1165.69 679.091 1166.09 678.955C1166.49 678.812 1166.83 678.602 1167.12 678.324C1167.41 678.045 1167.63 677.702 1167.79 677.293L1170.2 677.727C1170 678.437 1169.66 679.06 1169.16 679.594C1168.66 680.122 1168.04 680.534 1167.29 680.83C1166.55 681.119 1165.7 681.264 1164.74 681.264ZM1178.37 681.264C1177.08 681.264 1175.97 680.989 1175.04 680.438C1174.11 679.881 1173.4 679.099 1172.89 678.094C1172.39 677.082 1172.14 675.898 1172.14 674.54C1172.14 673.199 1172.39 672.017 1172.89 670.994C1173.4 669.972 1174.1 669.173 1175.01 668.599C1175.92 668.026 1176.98 667.739 1178.19 667.739C1178.93 667.739 1179.65 667.861 1180.34 668.105C1181.03 668.349 1181.66 668.733 1182.21 669.256C1182.76 669.778 1183.19 670.457 1183.51 671.293C1183.83 672.122 1183.99 673.131 1183.99 674.318V675.222H1173.58V673.312H1181.49C1181.49 672.642 1181.36 672.048 1181.08 671.531C1180.81 671.009 1180.43 670.597 1179.93 670.295C1179.44 669.994 1178.87 669.844 1178.21 669.844C1177.49 669.844 1176.87 670.02 1176.34 670.372C1175.81 670.719 1175.4 671.173 1175.11 671.736C1174.82 672.293 1174.68 672.898 1174.68 673.551V675.043C1174.68 675.918 1174.84 676.662 1175.14 677.276C1175.46 677.889 1175.89 678.358 1176.45 678.682C1177 679 1177.65 679.159 1178.4 679.159C1178.88 679.159 1179.32 679.091 1179.72 678.955C1180.12 678.812 1180.46 678.602 1180.75 678.324C1181.04 678.045 1181.26 677.702 1181.42 677.293L1183.83 677.727C1183.63 678.437 1183.29 679.06 1182.79 679.594C1182.29 680.122 1181.67 680.534 1180.92 680.83C1180.18 681.119 1179.33 681.264 1178.37 681.264ZM1186.36 681V667.909H1188.82V669.989H1188.96C1189.2 669.284 1189.62 668.73 1190.22 668.327C1190.83 667.918 1191.52 667.713 1192.28 667.713C1192.44 667.713 1192.63 667.719 1192.85 667.73C1193.07 667.741 1193.24 667.756 1193.37 667.773V670.21C1193.26 670.182 1193.08 670.151 1192.82 670.116C1192.56 670.077 1192.3 670.057 1192.04 670.057C1191.43 670.057 1190.9 670.185 1190.43 670.44C1189.96 670.69 1189.59 671.04 1189.32 671.489C1189.05 671.932 1188.91 672.437 1188.91 673.006V681H1186.36ZM1204.93 671.105L1202.62 671.514C1202.52 671.219 1202.37 670.937 1202.16 670.67C1201.95 670.403 1201.67 670.185 1201.32 670.014C1200.97 669.844 1200.53 669.759 1200 669.759C1199.28 669.759 1198.68 669.92 1198.19 670.244C1197.71 670.562 1197.47 670.974 1197.47 671.48C1197.47 671.918 1197.63 672.27 1197.95 672.537C1198.28 672.804 1198.8 673.023 1199.52 673.193L1201.6 673.67C1202.81 673.949 1203.7 674.378 1204.29 674.957C1204.89 675.537 1205.18 676.29 1205.18 677.216C1205.18 678 1204.95 678.699 1204.5 679.312C1204.05 679.92 1203.42 680.398 1202.62 680.744C1201.81 681.091 1200.89 681.264 1199.83 681.264C1198.36 681.264 1197.17 680.952 1196.24 680.327C1195.31 679.696 1194.75 678.801 1194.54 677.642L1197 677.267C1197.15 677.909 1197.47 678.395 1197.95 678.724C1198.42 679.048 1199.04 679.21 1199.81 679.21C1200.65 679.21 1201.31 679.037 1201.81 678.69C1202.31 678.338 1202.56 677.909 1202.56 677.403C1202.56 676.994 1202.41 676.651 1202.1 676.372C1201.8 676.094 1201.34 675.884 1200.72 675.741L1198.5 675.256C1197.28 674.977 1196.37 674.534 1195.79 673.926C1195.21 673.318 1194.92 672.548 1194.92 671.616C1194.92 670.844 1195.14 670.168 1195.57 669.588C1196 669.009 1196.6 668.557 1197.36 668.233C1198.12 667.903 1198.99 667.739 1199.97 667.739C1201.39 667.739 1202.5 668.045 1203.31 668.659C1204.13 669.267 1204.66 670.082 1204.93 671.105Z" fill="white"/>
<path d="M784 366C784 365.172 783.328 364.5 782.5 364.5C781.672 364.5 781 365.172 781 366H784ZM782.5 504L791.16 489H773.84L782.5 504ZM781 366V490.5H784V366H781Z" fill="#B3B3B3"/>
<path d="M1152 366C1152 365.172 1151.33 364.5 1150.5 364.5C1149.67 364.5 1149 365.172 1149 366H1152ZM1150.5 504L1159.16 489H1141.84L1150.5 504ZM1149 366V490.5H1152V366H1149Z" fill="#B3B3B3"/>
</g>
<defs>
<clipPath id="clip0_327_91964">
<rect width="1920" height="741" fill="white"/>
</clipPath>
</defs>
</svg>
