<svg width="833" height="926" viewBox="0 0 833 926" fill="none" xmlns="http://www.w3.org/2000/svg">
<rect width="833" height="926" fill="#E4E4E4"/>
<path d="M30.3828 342.125C30.3828 341.859 30.3411 341.625 30.2578 341.422C30.1797 341.214 30.0391 341.026 29.8359 340.859C29.638 340.693 29.362 340.534 29.0078 340.383C28.6589 340.232 28.2161 340.078 27.6797 339.922C27.1172 339.755 26.6094 339.57 26.1562 339.367C25.7031 339.159 25.3151 338.922 24.9922 338.656C24.6693 338.391 24.4219 338.086 24.25 337.742C24.0781 337.398 23.9922 337.005 23.9922 336.562C23.9922 336.12 24.0833 335.711 24.2656 335.336C24.4479 334.961 24.7083 334.635 25.0469 334.359C25.3906 334.078 25.7995 333.859 26.2734 333.703C26.7474 333.547 27.276 333.469 27.8594 333.469C28.7135 333.469 29.4375 333.633 30.0312 333.961C30.6302 334.284 31.0859 334.708 31.3984 335.234C31.7109 335.755 31.8672 336.312 31.8672 336.906H30.3672C30.3672 336.479 30.276 336.102 30.0938 335.773C29.9115 335.44 29.6354 335.18 29.2656 334.992C28.8958 334.799 28.4271 334.703 27.8594 334.703C27.3229 334.703 26.8802 334.784 26.5312 334.945C26.1823 335.107 25.9219 335.326 25.75 335.602C25.5833 335.878 25.5 336.193 25.5 336.547C25.5 336.786 25.5495 337.005 25.6484 337.203C25.7526 337.396 25.9115 337.576 26.125 337.742C26.3438 337.909 26.6198 338.062 26.9531 338.203C27.2917 338.344 27.6953 338.479 28.1641 338.609C28.8099 338.792 29.3672 338.995 29.8359 339.219C30.3047 339.443 30.6901 339.695 30.9922 339.977C31.2995 340.253 31.526 340.568 31.6719 340.922C31.8229 341.271 31.8984 341.667 31.8984 342.109C31.8984 342.573 31.8047 342.992 31.6172 343.367C31.4297 343.742 31.1615 344.062 30.8125 344.328C30.4635 344.594 30.0443 344.799 29.5547 344.945C29.0703 345.086 28.5286 345.156 27.9297 345.156C27.4036 345.156 26.8854 345.083 26.375 344.938C25.8698 344.792 25.4089 344.573 24.9922 344.281C24.5807 343.99 24.25 343.63 24 343.203C23.7552 342.771 23.6328 342.271 23.6328 341.703H25.1328C25.1328 342.094 25.2083 342.43 25.3594 342.711C25.5104 342.987 25.7161 343.216 25.9766 343.398C26.2422 343.581 26.5417 343.716 26.875 343.805C27.2135 343.888 27.5651 343.93 27.9297 343.93C28.4557 343.93 28.901 343.857 29.2656 343.711C29.6302 343.565 29.9062 343.357 30.0938 343.086C30.2865 342.815 30.3828 342.495 30.3828 342.125ZM37.1094 345.156C36.5208 345.156 35.987 345.057 35.5078 344.859C35.0339 344.656 34.625 344.372 34.2812 344.008C33.9427 343.643 33.6823 343.211 33.5 342.711C33.3177 342.211 33.2266 341.664 33.2266 341.07V340.742C33.2266 340.055 33.3281 339.443 33.5312 338.906C33.7344 338.365 34.0104 337.906 34.3594 337.531C34.7083 337.156 35.1042 336.872 35.5469 336.68C35.9896 336.487 36.4479 336.391 36.9219 336.391C37.526 336.391 38.0469 336.495 38.4844 336.703C38.9271 336.911 39.2891 337.203 39.5703 337.578C39.8516 337.948 40.0599 338.385 40.1953 338.891C40.3307 339.391 40.3984 339.938 40.3984 340.531V341.18H34.0859V340H38.9531V339.891C38.9323 339.516 38.8542 339.151 38.7188 338.797C38.5885 338.443 38.3802 338.151 38.0938 337.922C37.8073 337.693 37.4167 337.578 36.9219 337.578C36.5938 337.578 36.2917 337.648 36.0156 337.789C35.7396 337.924 35.5026 338.128 35.3047 338.398C35.1068 338.669 34.9531 339 34.8438 339.391C34.7344 339.781 34.6797 340.232 34.6797 340.742V341.07C34.6797 341.471 34.7344 341.849 34.8438 342.203C34.9583 342.552 35.1224 342.859 35.3359 343.125C35.5547 343.391 35.8177 343.599 36.125 343.75C36.4375 343.901 36.7917 343.977 37.1875 343.977C37.6979 343.977 38.1302 343.872 38.4844 343.664C38.8385 343.456 39.1484 343.177 39.4141 342.828L40.2891 343.523C40.1068 343.799 39.875 344.062 39.5938 344.312C39.3125 344.562 38.9661 344.766 38.5547 344.922C38.1484 345.078 37.6667 345.156 37.1094 345.156ZM45.4688 343.969C45.8125 343.969 46.1302 343.898 46.4219 343.758C46.7135 343.617 46.9531 343.424 47.1406 343.18C47.3281 342.93 47.4349 342.646 47.4609 342.328H48.8359C48.8099 342.828 48.6406 343.294 48.3281 343.727C48.0208 344.154 47.6172 344.5 47.1172 344.766C46.6172 345.026 46.0677 345.156 45.4688 345.156C44.8333 345.156 44.2786 345.044 43.8047 344.82C43.3359 344.596 42.9453 344.289 42.6328 343.898C42.3255 343.508 42.0938 343.06 41.9375 342.555C41.7865 342.044 41.7109 341.505 41.7109 340.938V340.609C41.7109 340.042 41.7865 339.505 41.9375 339C42.0938 338.49 42.3255 338.039 42.6328 337.648C42.9453 337.258 43.3359 336.951 43.8047 336.727C44.2786 336.503 44.8333 336.391 45.4688 336.391C46.1302 336.391 46.7083 336.526 47.2031 336.797C47.6979 337.062 48.0859 337.427 48.3672 337.891C48.6536 338.349 48.8099 338.87 48.8359 339.453H47.4609C47.4349 339.104 47.3359 338.789 47.1641 338.508C46.9974 338.227 46.7682 338.003 46.4766 337.836C46.1901 337.664 45.8542 337.578 45.4688 337.578C45.026 337.578 44.6536 337.667 44.3516 337.844C44.0547 338.016 43.8177 338.25 43.6406 338.547C43.4688 338.839 43.3438 339.164 43.2656 339.523C43.1927 339.878 43.1562 340.24 43.1562 340.609V340.938C43.1562 341.307 43.1927 341.672 43.2656 342.031C43.3385 342.391 43.4609 342.716 43.6328 343.008C43.8099 343.299 44.0469 343.534 44.3438 343.711C44.6458 343.883 45.0208 343.969 45.4688 343.969ZM54 336.547V337.656H49.4297V336.547H54ZM50.9766 334.492H52.4219V342.906C52.4219 343.193 52.4661 343.409 52.5547 343.555C52.6432 343.701 52.7578 343.797 52.8984 343.844C53.0391 343.891 53.1901 343.914 53.3516 343.914C53.4714 343.914 53.5964 343.904 53.7266 343.883C53.862 343.857 53.9635 343.836 54.0312 343.82L54.0391 345C53.9245 345.036 53.7734 345.07 53.5859 345.102C53.4036 345.138 53.1823 345.156 52.9219 345.156C52.5677 345.156 52.2422 345.086 51.9453 344.945C51.6484 344.805 51.4115 344.57 51.2344 344.242C51.0625 343.909 50.9766 343.461 50.9766 342.898V334.492ZM57.2656 336.547V345H55.8125V336.547H57.2656ZM55.7031 334.305C55.7031 334.07 55.7734 333.872 55.9141 333.711C56.0599 333.549 56.2734 333.469 56.5547 333.469C56.8307 333.469 57.0417 333.549 57.1875 333.711C57.3385 333.872 57.4141 334.07 57.4141 334.305C57.4141 334.529 57.3385 334.721 57.1875 334.883C57.0417 335.039 56.8307 335.117 56.5547 335.117C56.2734 335.117 56.0599 335.039 55.9141 334.883C55.7734 334.721 55.7031 334.529 55.7031 334.305ZM59.2031 340.867V340.688C59.2031 340.078 59.2917 339.513 59.4688 338.992C59.6458 338.466 59.901 338.01 60.2344 337.625C60.5677 337.234 60.9714 336.932 61.4453 336.719C61.9193 336.5 62.4505 336.391 63.0391 336.391C63.6328 336.391 64.1667 336.5 64.6406 336.719C65.1198 336.932 65.526 337.234 65.8594 337.625C66.1979 338.01 66.4557 338.466 66.6328 338.992C66.8099 339.513 66.8984 340.078 66.8984 340.688V340.867C66.8984 341.477 66.8099 342.042 66.6328 342.562C66.4557 343.083 66.1979 343.539 65.8594 343.93C65.526 344.315 65.1224 344.617 64.6484 344.836C64.1797 345.049 63.6484 345.156 63.0547 345.156C62.4609 345.156 61.9271 345.049 61.4531 344.836C60.9792 344.617 60.5729 344.315 60.2344 343.93C59.901 343.539 59.6458 343.083 59.4688 342.562C59.2917 342.042 59.2031 341.477 59.2031 340.867ZM60.6484 340.688V340.867C60.6484 341.289 60.6979 341.688 60.7969 342.062C60.8958 342.432 61.0443 342.76 61.2422 343.047C61.4453 343.333 61.6979 343.56 62 343.727C62.3021 343.888 62.6536 343.969 63.0547 343.969C63.4505 343.969 63.7969 343.888 64.0938 343.727C64.3958 343.56 64.6458 343.333 64.8438 343.047C65.0417 342.76 65.1901 342.432 65.2891 342.062C65.3932 341.688 65.4453 341.289 65.4453 340.867V340.688C65.4453 340.271 65.3932 339.878 65.2891 339.508C65.1901 339.133 65.0391 338.802 64.8359 338.516C64.638 338.224 64.388 337.995 64.0859 337.828C63.7891 337.661 63.4401 337.578 63.0391 337.578C62.6432 337.578 62.2943 337.661 61.9922 337.828C61.6953 337.995 61.4453 338.224 61.2422 338.516C61.0443 338.802 60.8958 339.133 60.7969 339.508C60.6979 339.878 60.6484 340.271 60.6484 340.688ZM70.1562 338.352V345H68.7109V336.547H70.0781L70.1562 338.352ZM69.8125 340.453L69.2109 340.43C69.2161 339.852 69.3021 339.318 69.4688 338.828C69.6354 338.333 69.8698 337.904 70.1719 337.539C70.474 337.174 70.8333 336.893 71.25 336.695C71.6719 336.492 72.138 336.391 72.6484 336.391C73.0651 336.391 73.4401 336.448 73.7734 336.562C74.1068 336.672 74.3906 336.849 74.625 337.094C74.8646 337.339 75.0469 337.656 75.1719 338.047C75.2969 338.432 75.3594 338.904 75.3594 339.461V345H73.9062V339.445C73.9062 339.003 73.8411 338.648 73.7109 338.383C73.5807 338.112 73.3906 337.917 73.1406 337.797C72.8906 337.672 72.5833 337.609 72.2188 337.609C71.8594 337.609 71.5312 337.685 71.2344 337.836C70.9427 337.987 70.6901 338.195 70.4766 338.461C70.2682 338.727 70.1042 339.031 69.9844 339.375C69.8698 339.714 69.8125 340.073 69.8125 340.453ZM90.4922 333.625V345H88.9766L83.25 336.227V345H81.7422V333.625H83.25L89 342.422V333.625H90.4922ZM97.9297 343.555V339.203C97.9297 338.87 97.862 338.581 97.7266 338.336C97.5964 338.086 97.3984 337.893 97.1328 337.758C96.8672 337.622 96.5391 337.555 96.1484 337.555C95.7839 337.555 95.4635 337.617 95.1875 337.742C94.9167 337.867 94.7031 338.031 94.5469 338.234C94.3958 338.438 94.3203 338.656 94.3203 338.891H92.875C92.875 338.589 92.9531 338.289 93.1094 337.992C93.2656 337.695 93.4896 337.427 93.7812 337.188C94.0781 336.943 94.4323 336.75 94.8438 336.609C95.2604 336.464 95.724 336.391 96.2344 336.391C96.849 336.391 97.3906 336.495 97.8594 336.703C98.3333 336.911 98.7031 337.227 98.9688 337.648C99.2396 338.065 99.375 338.589 99.375 339.219V343.156C99.375 343.438 99.3984 343.737 99.4453 344.055C99.4974 344.372 99.5729 344.646 99.6719 344.875V345H98.1641C98.0911 344.833 98.0339 344.612 97.9922 344.336C97.9505 344.055 97.9297 343.794 97.9297 343.555ZM98.1797 339.875L98.1953 340.891H96.7344C96.3229 340.891 95.9557 340.924 95.6328 340.992C95.3099 341.055 95.0391 341.151 94.8203 341.281C94.6016 341.411 94.4349 341.576 94.3203 341.773C94.2057 341.966 94.1484 342.193 94.1484 342.453C94.1484 342.719 94.2083 342.961 94.3281 343.18C94.4479 343.398 94.6276 343.573 94.8672 343.703C95.112 343.828 95.4115 343.891 95.7656 343.891C96.2083 343.891 96.599 343.797 96.9375 343.609C97.276 343.422 97.5443 343.193 97.7422 342.922C97.9453 342.651 98.0547 342.388 98.0703 342.133L98.6875 342.828C98.651 343.047 98.5521 343.289 98.3906 343.555C98.2292 343.82 98.013 344.076 97.7422 344.32C97.4766 344.56 97.1589 344.76 96.7891 344.922C96.4245 345.078 96.013 345.156 95.5547 345.156C94.9818 345.156 94.4792 345.044 94.0469 344.82C93.6198 344.596 93.2865 344.297 93.0469 343.922C92.8125 343.542 92.6953 343.117 92.6953 342.648C92.6953 342.195 92.7839 341.797 92.9609 341.453C93.138 341.104 93.3932 340.815 93.7266 340.586C94.0599 340.352 94.4609 340.174 94.9297 340.055C95.3984 339.935 95.9219 339.875 96.5 339.875H98.1797ZM103.086 338.227V345H101.633V336.547H103.008L103.086 338.227ZM102.789 340.453L102.117 340.43C102.122 339.852 102.198 339.318 102.344 338.828C102.49 338.333 102.706 337.904 102.992 337.539C103.279 337.174 103.635 336.893 104.062 336.695C104.49 336.492 104.984 336.391 105.547 336.391C105.943 336.391 106.307 336.448 106.641 336.562C106.974 336.672 107.263 336.846 107.508 337.086C107.753 337.326 107.943 337.633 108.078 338.008C108.214 338.383 108.281 338.836 108.281 339.367V345H106.836V339.438C106.836 338.995 106.76 338.641 106.609 338.375C106.464 338.109 106.255 337.917 105.984 337.797C105.714 337.672 105.396 337.609 105.031 337.609C104.604 337.609 104.247 337.685 103.961 337.836C103.674 337.987 103.445 338.195 103.273 338.461C103.102 338.727 102.977 339.031 102.898 339.375C102.826 339.714 102.789 340.073 102.789 340.453ZM108.266 339.656L107.297 339.953C107.302 339.49 107.378 339.044 107.523 338.617C107.674 338.19 107.891 337.81 108.172 337.477C108.458 337.143 108.81 336.88 109.227 336.688C109.643 336.49 110.12 336.391 110.656 336.391C111.109 336.391 111.51 336.451 111.859 336.57C112.214 336.69 112.51 336.875 112.75 337.125C112.995 337.37 113.18 337.685 113.305 338.07C113.43 338.456 113.492 338.914 113.492 339.445V345H112.039V339.43C112.039 338.956 111.964 338.589 111.812 338.328C111.667 338.062 111.458 337.878 111.188 337.773C110.922 337.664 110.604 337.609 110.234 337.609C109.917 337.609 109.635 337.664 109.391 337.773C109.146 337.883 108.94 338.034 108.773 338.227C108.607 338.414 108.479 338.63 108.391 338.875C108.307 339.12 108.266 339.38 108.266 339.656ZM119.188 345.156C118.599 345.156 118.065 345.057 117.586 344.859C117.112 344.656 116.703 344.372 116.359 344.008C116.021 343.643 115.76 343.211 115.578 342.711C115.396 342.211 115.305 341.664 115.305 341.07V340.742C115.305 340.055 115.406 339.443 115.609 338.906C115.812 338.365 116.089 337.906 116.438 337.531C116.786 337.156 117.182 336.872 117.625 336.68C118.068 336.487 118.526 336.391 119 336.391C119.604 336.391 120.125 336.495 120.562 336.703C121.005 336.911 121.367 337.203 121.648 337.578C121.93 337.948 122.138 338.385 122.273 338.891C122.409 339.391 122.477 339.938 122.477 340.531V341.18H116.164V340H121.031V339.891C121.01 339.516 120.932 339.151 120.797 338.797C120.667 338.443 120.458 338.151 120.172 337.922C119.885 337.693 119.495 337.578 119 337.578C118.672 337.578 118.37 337.648 118.094 337.789C117.818 337.924 117.581 338.128 117.383 338.398C117.185 338.669 117.031 339 116.922 339.391C116.812 339.781 116.758 340.232 116.758 340.742V341.07C116.758 341.471 116.812 341.849 116.922 342.203C117.036 342.552 117.201 342.859 117.414 343.125C117.633 343.391 117.896 343.599 118.203 343.75C118.516 343.901 118.87 343.977 119.266 343.977C119.776 343.977 120.208 343.872 120.562 343.664C120.917 343.456 121.227 343.177 121.492 342.828L122.367 343.523C122.185 343.799 121.953 344.062 121.672 344.312C121.391 344.562 121.044 344.766 120.633 344.922C120.227 345.078 119.745 345.156 119.188 345.156Z" fill="black"/>
<rect x="23" y="357" width="50" height="246" fill="white"/>
<rect x="89" y="357" width="50" height="75" fill="white"/>
<rect x="155" y="357" width="50" height="75" fill="white"/>
<rect opacity="0.3" x="221" y="357" width="50" height="75" fill="white"/>
<path d="M348.383 342.125C348.383 341.859 348.341 341.625 348.258 341.422C348.18 341.214 348.039 341.026 347.836 340.859C347.638 340.693 347.362 340.534 347.008 340.383C346.659 340.232 346.216 340.078 345.68 339.922C345.117 339.755 344.609 339.57 344.156 339.367C343.703 339.159 343.315 338.922 342.992 338.656C342.669 338.391 342.422 338.086 342.25 337.742C342.078 337.398 341.992 337.005 341.992 336.562C341.992 336.12 342.083 335.711 342.266 335.336C342.448 334.961 342.708 334.635 343.047 334.359C343.391 334.078 343.799 333.859 344.273 333.703C344.747 333.547 345.276 333.469 345.859 333.469C346.714 333.469 347.438 333.633 348.031 333.961C348.63 334.284 349.086 334.708 349.398 335.234C349.711 335.755 349.867 336.312 349.867 336.906H348.367C348.367 336.479 348.276 336.102 348.094 335.773C347.911 335.44 347.635 335.18 347.266 334.992C346.896 334.799 346.427 334.703 345.859 334.703C345.323 334.703 344.88 334.784 344.531 334.945C344.182 335.107 343.922 335.326 343.75 335.602C343.583 335.878 343.5 336.193 343.5 336.547C343.5 336.786 343.549 337.005 343.648 337.203C343.753 337.396 343.911 337.576 344.125 337.742C344.344 337.909 344.62 338.062 344.953 338.203C345.292 338.344 345.695 338.479 346.164 338.609C346.81 338.792 347.367 338.995 347.836 339.219C348.305 339.443 348.69 339.695 348.992 339.977C349.299 340.253 349.526 340.568 349.672 340.922C349.823 341.271 349.898 341.667 349.898 342.109C349.898 342.573 349.805 342.992 349.617 343.367C349.43 343.742 349.161 344.062 348.812 344.328C348.464 344.594 348.044 344.799 347.555 344.945C347.07 345.086 346.529 345.156 345.93 345.156C345.404 345.156 344.885 345.083 344.375 344.938C343.87 344.792 343.409 344.573 342.992 344.281C342.581 343.99 342.25 343.63 342 343.203C341.755 342.771 341.633 342.271 341.633 341.703H343.133C343.133 342.094 343.208 342.43 343.359 342.711C343.51 342.987 343.716 343.216 343.977 343.398C344.242 343.581 344.542 343.716 344.875 343.805C345.214 343.888 345.565 343.93 345.93 343.93C346.456 343.93 346.901 343.857 347.266 343.711C347.63 343.565 347.906 343.357 348.094 343.086C348.286 342.815 348.383 342.495 348.383 342.125ZM355.109 345.156C354.521 345.156 353.987 345.057 353.508 344.859C353.034 344.656 352.625 344.372 352.281 344.008C351.943 343.643 351.682 343.211 351.5 342.711C351.318 342.211 351.227 341.664 351.227 341.07V340.742C351.227 340.055 351.328 339.443 351.531 338.906C351.734 338.365 352.01 337.906 352.359 337.531C352.708 337.156 353.104 336.872 353.547 336.68C353.99 336.487 354.448 336.391 354.922 336.391C355.526 336.391 356.047 336.495 356.484 336.703C356.927 336.911 357.289 337.203 357.57 337.578C357.852 337.948 358.06 338.385 358.195 338.891C358.331 339.391 358.398 339.938 358.398 340.531V341.18H352.086V340H356.953V339.891C356.932 339.516 356.854 339.151 356.719 338.797C356.589 338.443 356.38 338.151 356.094 337.922C355.807 337.693 355.417 337.578 354.922 337.578C354.594 337.578 354.292 337.648 354.016 337.789C353.74 337.924 353.503 338.128 353.305 338.398C353.107 338.669 352.953 339 352.844 339.391C352.734 339.781 352.68 340.232 352.68 340.742V341.07C352.68 341.471 352.734 341.849 352.844 342.203C352.958 342.552 353.122 342.859 353.336 343.125C353.555 343.391 353.818 343.599 354.125 343.75C354.438 343.901 354.792 343.977 355.188 343.977C355.698 343.977 356.13 343.872 356.484 343.664C356.839 343.456 357.148 343.177 357.414 342.828L358.289 343.523C358.107 343.799 357.875 344.062 357.594 344.312C357.312 344.562 356.966 344.766 356.555 344.922C356.148 345.078 355.667 345.156 355.109 345.156ZM363.469 343.969C363.812 343.969 364.13 343.898 364.422 343.758C364.714 343.617 364.953 343.424 365.141 343.18C365.328 342.93 365.435 342.646 365.461 342.328H366.836C366.81 342.828 366.641 343.294 366.328 343.727C366.021 344.154 365.617 344.5 365.117 344.766C364.617 345.026 364.068 345.156 363.469 345.156C362.833 345.156 362.279 345.044 361.805 344.82C361.336 344.596 360.945 344.289 360.633 343.898C360.326 343.508 360.094 343.06 359.938 342.555C359.786 342.044 359.711 341.505 359.711 340.938V340.609C359.711 340.042 359.786 339.505 359.938 339C360.094 338.49 360.326 338.039 360.633 337.648C360.945 337.258 361.336 336.951 361.805 336.727C362.279 336.503 362.833 336.391 363.469 336.391C364.13 336.391 364.708 336.526 365.203 336.797C365.698 337.062 366.086 337.427 366.367 337.891C366.654 338.349 366.81 338.87 366.836 339.453H365.461C365.435 339.104 365.336 338.789 365.164 338.508C364.997 338.227 364.768 338.003 364.477 337.836C364.19 337.664 363.854 337.578 363.469 337.578C363.026 337.578 362.654 337.667 362.352 337.844C362.055 338.016 361.818 338.25 361.641 338.547C361.469 338.839 361.344 339.164 361.266 339.523C361.193 339.878 361.156 340.24 361.156 340.609V340.938C361.156 341.307 361.193 341.672 361.266 342.031C361.339 342.391 361.461 342.716 361.633 343.008C361.81 343.299 362.047 343.534 362.344 343.711C362.646 343.883 363.021 343.969 363.469 343.969ZM372 336.547V337.656H367.43V336.547H372ZM368.977 334.492H370.422V342.906C370.422 343.193 370.466 343.409 370.555 343.555C370.643 343.701 370.758 343.797 370.898 343.844C371.039 343.891 371.19 343.914 371.352 343.914C371.471 343.914 371.596 343.904 371.727 343.883C371.862 343.857 371.964 343.836 372.031 343.82L372.039 345C371.924 345.036 371.773 345.07 371.586 345.102C371.404 345.138 371.182 345.156 370.922 345.156C370.568 345.156 370.242 345.086 369.945 344.945C369.648 344.805 369.411 344.57 369.234 344.242C369.062 343.909 368.977 343.461 368.977 342.898V334.492ZM375.266 336.547V345H373.812V336.547H375.266ZM373.703 334.305C373.703 334.07 373.773 333.872 373.914 333.711C374.06 333.549 374.273 333.469 374.555 333.469C374.831 333.469 375.042 333.549 375.188 333.711C375.339 333.872 375.414 334.07 375.414 334.305C375.414 334.529 375.339 334.721 375.188 334.883C375.042 335.039 374.831 335.117 374.555 335.117C374.273 335.117 374.06 335.039 373.914 334.883C373.773 334.721 373.703 334.529 373.703 334.305ZM377.203 340.867V340.688C377.203 340.078 377.292 339.513 377.469 338.992C377.646 338.466 377.901 338.01 378.234 337.625C378.568 337.234 378.971 336.932 379.445 336.719C379.919 336.5 380.451 336.391 381.039 336.391C381.633 336.391 382.167 336.5 382.641 336.719C383.12 336.932 383.526 337.234 383.859 337.625C384.198 338.01 384.456 338.466 384.633 338.992C384.81 339.513 384.898 340.078 384.898 340.688V340.867C384.898 341.477 384.81 342.042 384.633 342.562C384.456 343.083 384.198 343.539 383.859 343.93C383.526 344.315 383.122 344.617 382.648 344.836C382.18 345.049 381.648 345.156 381.055 345.156C380.461 345.156 379.927 345.049 379.453 344.836C378.979 344.617 378.573 344.315 378.234 343.93C377.901 343.539 377.646 343.083 377.469 342.562C377.292 342.042 377.203 341.477 377.203 340.867ZM378.648 340.688V340.867C378.648 341.289 378.698 341.688 378.797 342.062C378.896 342.432 379.044 342.76 379.242 343.047C379.445 343.333 379.698 343.56 380 343.727C380.302 343.888 380.654 343.969 381.055 343.969C381.451 343.969 381.797 343.888 382.094 343.727C382.396 343.56 382.646 343.333 382.844 343.047C383.042 342.76 383.19 342.432 383.289 342.062C383.393 341.688 383.445 341.289 383.445 340.867V340.688C383.445 340.271 383.393 339.878 383.289 339.508C383.19 339.133 383.039 338.802 382.836 338.516C382.638 338.224 382.388 337.995 382.086 337.828C381.789 337.661 381.44 337.578 381.039 337.578C380.643 337.578 380.294 337.661 379.992 337.828C379.695 337.995 379.445 338.224 379.242 338.516C379.044 338.802 378.896 339.133 378.797 339.508C378.698 339.878 378.648 340.271 378.648 340.688ZM388.156 338.352V345H386.711V336.547H388.078L388.156 338.352ZM387.812 340.453L387.211 340.43C387.216 339.852 387.302 339.318 387.469 338.828C387.635 338.333 387.87 337.904 388.172 337.539C388.474 337.174 388.833 336.893 389.25 336.695C389.672 336.492 390.138 336.391 390.648 336.391C391.065 336.391 391.44 336.448 391.773 336.562C392.107 336.672 392.391 336.849 392.625 337.094C392.865 337.339 393.047 337.656 393.172 338.047C393.297 338.432 393.359 338.904 393.359 339.461V345H391.906V339.445C391.906 339.003 391.841 338.648 391.711 338.383C391.581 338.112 391.391 337.917 391.141 337.797C390.891 337.672 390.583 337.609 390.219 337.609C389.859 337.609 389.531 337.685 389.234 337.836C388.943 337.987 388.69 338.195 388.477 338.461C388.268 338.727 388.104 339.031 387.984 339.375C387.87 339.714 387.812 340.073 387.812 340.453ZM408.492 333.625V345H406.977L401.25 336.227V345H399.742V333.625H401.25L407 342.422V333.625H408.492ZM415.93 343.555V339.203C415.93 338.87 415.862 338.581 415.727 338.336C415.596 338.086 415.398 337.893 415.133 337.758C414.867 337.622 414.539 337.555 414.148 337.555C413.784 337.555 413.464 337.617 413.188 337.742C412.917 337.867 412.703 338.031 412.547 338.234C412.396 338.438 412.32 338.656 412.32 338.891H410.875C410.875 338.589 410.953 338.289 411.109 337.992C411.266 337.695 411.49 337.427 411.781 337.188C412.078 336.943 412.432 336.75 412.844 336.609C413.26 336.464 413.724 336.391 414.234 336.391C414.849 336.391 415.391 336.495 415.859 336.703C416.333 336.911 416.703 337.227 416.969 337.648C417.24 338.065 417.375 338.589 417.375 339.219V343.156C417.375 343.438 417.398 343.737 417.445 344.055C417.497 344.372 417.573 344.646 417.672 344.875V345H416.164C416.091 344.833 416.034 344.612 415.992 344.336C415.951 344.055 415.93 343.794 415.93 343.555ZM416.18 339.875L416.195 340.891H414.734C414.323 340.891 413.956 340.924 413.633 340.992C413.31 341.055 413.039 341.151 412.82 341.281C412.602 341.411 412.435 341.576 412.32 341.773C412.206 341.966 412.148 342.193 412.148 342.453C412.148 342.719 412.208 342.961 412.328 343.18C412.448 343.398 412.628 343.573 412.867 343.703C413.112 343.828 413.411 343.891 413.766 343.891C414.208 343.891 414.599 343.797 414.938 343.609C415.276 343.422 415.544 343.193 415.742 342.922C415.945 342.651 416.055 342.388 416.07 342.133L416.688 342.828C416.651 343.047 416.552 343.289 416.391 343.555C416.229 343.82 416.013 344.076 415.742 344.32C415.477 344.56 415.159 344.76 414.789 344.922C414.424 345.078 414.013 345.156 413.555 345.156C412.982 345.156 412.479 345.044 412.047 344.82C411.62 344.596 411.286 344.297 411.047 343.922C410.812 343.542 410.695 343.117 410.695 342.648C410.695 342.195 410.784 341.797 410.961 341.453C411.138 341.104 411.393 340.815 411.727 340.586C412.06 340.352 412.461 340.174 412.93 340.055C413.398 339.935 413.922 339.875 414.5 339.875H416.18ZM421.086 338.227V345H419.633V336.547H421.008L421.086 338.227ZM420.789 340.453L420.117 340.43C420.122 339.852 420.198 339.318 420.344 338.828C420.49 338.333 420.706 337.904 420.992 337.539C421.279 337.174 421.635 336.893 422.062 336.695C422.49 336.492 422.984 336.391 423.547 336.391C423.943 336.391 424.307 336.448 424.641 336.562C424.974 336.672 425.263 336.846 425.508 337.086C425.753 337.326 425.943 337.633 426.078 338.008C426.214 338.383 426.281 338.836 426.281 339.367V345H424.836V339.438C424.836 338.995 424.76 338.641 424.609 338.375C424.464 338.109 424.255 337.917 423.984 337.797C423.714 337.672 423.396 337.609 423.031 337.609C422.604 337.609 422.247 337.685 421.961 337.836C421.674 337.987 421.445 338.195 421.273 338.461C421.102 338.727 420.977 339.031 420.898 339.375C420.826 339.714 420.789 340.073 420.789 340.453ZM426.266 339.656L425.297 339.953C425.302 339.49 425.378 339.044 425.523 338.617C425.674 338.19 425.891 337.81 426.172 337.477C426.458 337.143 426.81 336.88 427.227 336.688C427.643 336.49 428.12 336.391 428.656 336.391C429.109 336.391 429.51 336.451 429.859 336.57C430.214 336.69 430.51 336.875 430.75 337.125C430.995 337.37 431.18 337.685 431.305 338.07C431.43 338.456 431.492 338.914 431.492 339.445V345H430.039V339.43C430.039 338.956 429.964 338.589 429.812 338.328C429.667 338.062 429.458 337.878 429.188 337.773C428.922 337.664 428.604 337.609 428.234 337.609C427.917 337.609 427.635 337.664 427.391 337.773C427.146 337.883 426.94 338.034 426.773 338.227C426.607 338.414 426.479 338.63 426.391 338.875C426.307 339.12 426.266 339.38 426.266 339.656ZM437.188 345.156C436.599 345.156 436.065 345.057 435.586 344.859C435.112 344.656 434.703 344.372 434.359 344.008C434.021 343.643 433.76 343.211 433.578 342.711C433.396 342.211 433.305 341.664 433.305 341.07V340.742C433.305 340.055 433.406 339.443 433.609 338.906C433.812 338.365 434.089 337.906 434.438 337.531C434.786 337.156 435.182 336.872 435.625 336.68C436.068 336.487 436.526 336.391 437 336.391C437.604 336.391 438.125 336.495 438.562 336.703C439.005 336.911 439.367 337.203 439.648 337.578C439.93 337.948 440.138 338.385 440.273 338.891C440.409 339.391 440.477 339.938 440.477 340.531V341.18H434.164V340H439.031V339.891C439.01 339.516 438.932 339.151 438.797 338.797C438.667 338.443 438.458 338.151 438.172 337.922C437.885 337.693 437.495 337.578 437 337.578C436.672 337.578 436.37 337.648 436.094 337.789C435.818 337.924 435.581 338.128 435.383 338.398C435.185 338.669 435.031 339 434.922 339.391C434.812 339.781 434.758 340.232 434.758 340.742V341.07C434.758 341.471 434.812 341.849 434.922 342.203C435.036 342.552 435.201 342.859 435.414 343.125C435.633 343.391 435.896 343.599 436.203 343.75C436.516 343.901 436.87 343.977 437.266 343.977C437.776 343.977 438.208 343.872 438.562 343.664C438.917 343.456 439.227 343.177 439.492 342.828L440.367 343.523C440.185 343.799 439.953 344.062 439.672 344.312C439.391 344.562 439.044 344.766 438.633 344.922C438.227 345.078 437.745 345.156 437.188 345.156Z" fill="black"/>
<rect x="341" y="357" width="50" height="75" fill="white"/>
<rect x="407" y="357" width="50" height="75" fill="white"/>
<rect x="473" y="357" width="50" height="75" fill="white"/>
<path d="M635.383 342.125C635.383 341.859 635.341 341.625 635.258 341.422C635.18 341.214 635.039 341.026 634.836 340.859C634.638 340.693 634.362 340.534 634.008 340.383C633.659 340.232 633.216 340.078 632.68 339.922C632.117 339.755 631.609 339.57 631.156 339.367C630.703 339.159 630.315 338.922 629.992 338.656C629.669 338.391 629.422 338.086 629.25 337.742C629.078 337.398 628.992 337.005 628.992 336.562C628.992 336.12 629.083 335.711 629.266 335.336C629.448 334.961 629.708 334.635 630.047 334.359C630.391 334.078 630.799 333.859 631.273 333.703C631.747 333.547 632.276 333.469 632.859 333.469C633.714 333.469 634.438 333.633 635.031 333.961C635.63 334.284 636.086 334.708 636.398 335.234C636.711 335.755 636.867 336.312 636.867 336.906H635.367C635.367 336.479 635.276 336.102 635.094 335.773C634.911 335.44 634.635 335.18 634.266 334.992C633.896 334.799 633.427 334.703 632.859 334.703C632.323 334.703 631.88 334.784 631.531 334.945C631.182 335.107 630.922 335.326 630.75 335.602C630.583 335.878 630.5 336.193 630.5 336.547C630.5 336.786 630.549 337.005 630.648 337.203C630.753 337.396 630.911 337.576 631.125 337.742C631.344 337.909 631.62 338.062 631.953 338.203C632.292 338.344 632.695 338.479 633.164 338.609C633.81 338.792 634.367 338.995 634.836 339.219C635.305 339.443 635.69 339.695 635.992 339.977C636.299 340.253 636.526 340.568 636.672 340.922C636.823 341.271 636.898 341.667 636.898 342.109C636.898 342.573 636.805 342.992 636.617 343.367C636.43 343.742 636.161 344.062 635.812 344.328C635.464 344.594 635.044 344.799 634.555 344.945C634.07 345.086 633.529 345.156 632.93 345.156C632.404 345.156 631.885 345.083 631.375 344.938C630.87 344.792 630.409 344.573 629.992 344.281C629.581 343.99 629.25 343.63 629 343.203C628.755 342.771 628.633 342.271 628.633 341.703H630.133C630.133 342.094 630.208 342.43 630.359 342.711C630.51 342.987 630.716 343.216 630.977 343.398C631.242 343.581 631.542 343.716 631.875 343.805C632.214 343.888 632.565 343.93 632.93 343.93C633.456 343.93 633.901 343.857 634.266 343.711C634.63 343.565 634.906 343.357 635.094 343.086C635.286 342.815 635.383 342.495 635.383 342.125ZM642.109 345.156C641.521 345.156 640.987 345.057 640.508 344.859C640.034 344.656 639.625 344.372 639.281 344.008C638.943 343.643 638.682 343.211 638.5 342.711C638.318 342.211 638.227 341.664 638.227 341.07V340.742C638.227 340.055 638.328 339.443 638.531 338.906C638.734 338.365 639.01 337.906 639.359 337.531C639.708 337.156 640.104 336.872 640.547 336.68C640.99 336.487 641.448 336.391 641.922 336.391C642.526 336.391 643.047 336.495 643.484 336.703C643.927 336.911 644.289 337.203 644.57 337.578C644.852 337.948 645.06 338.385 645.195 338.891C645.331 339.391 645.398 339.938 645.398 340.531V341.18H639.086V340H643.953V339.891C643.932 339.516 643.854 339.151 643.719 338.797C643.589 338.443 643.38 338.151 643.094 337.922C642.807 337.693 642.417 337.578 641.922 337.578C641.594 337.578 641.292 337.648 641.016 337.789C640.74 337.924 640.503 338.128 640.305 338.398C640.107 338.669 639.953 339 639.844 339.391C639.734 339.781 639.68 340.232 639.68 340.742V341.07C639.68 341.471 639.734 341.849 639.844 342.203C639.958 342.552 640.122 342.859 640.336 343.125C640.555 343.391 640.818 343.599 641.125 343.75C641.438 343.901 641.792 343.977 642.188 343.977C642.698 343.977 643.13 343.872 643.484 343.664C643.839 343.456 644.148 343.177 644.414 342.828L645.289 343.523C645.107 343.799 644.875 344.062 644.594 344.312C644.312 344.562 643.966 344.766 643.555 344.922C643.148 345.078 642.667 345.156 642.109 345.156ZM650.469 343.969C650.812 343.969 651.13 343.898 651.422 343.758C651.714 343.617 651.953 343.424 652.141 343.18C652.328 342.93 652.435 342.646 652.461 342.328H653.836C653.81 342.828 653.641 343.294 653.328 343.727C653.021 344.154 652.617 344.5 652.117 344.766C651.617 345.026 651.068 345.156 650.469 345.156C649.833 345.156 649.279 345.044 648.805 344.82C648.336 344.596 647.945 344.289 647.633 343.898C647.326 343.508 647.094 343.06 646.938 342.555C646.786 342.044 646.711 341.505 646.711 340.938V340.609C646.711 340.042 646.786 339.505 646.938 339C647.094 338.49 647.326 338.039 647.633 337.648C647.945 337.258 648.336 336.951 648.805 336.727C649.279 336.503 649.833 336.391 650.469 336.391C651.13 336.391 651.708 336.526 652.203 336.797C652.698 337.062 653.086 337.427 653.367 337.891C653.654 338.349 653.81 338.87 653.836 339.453H652.461C652.435 339.104 652.336 338.789 652.164 338.508C651.997 338.227 651.768 338.003 651.477 337.836C651.19 337.664 650.854 337.578 650.469 337.578C650.026 337.578 649.654 337.667 649.352 337.844C649.055 338.016 648.818 338.25 648.641 338.547C648.469 338.839 648.344 339.164 648.266 339.523C648.193 339.878 648.156 340.24 648.156 340.609V340.938C648.156 341.307 648.193 341.672 648.266 342.031C648.339 342.391 648.461 342.716 648.633 343.008C648.81 343.299 649.047 343.534 649.344 343.711C649.646 343.883 650.021 343.969 650.469 343.969ZM659 336.547V337.656H654.43V336.547H659ZM655.977 334.492H657.422V342.906C657.422 343.193 657.466 343.409 657.555 343.555C657.643 343.701 657.758 343.797 657.898 343.844C658.039 343.891 658.19 343.914 658.352 343.914C658.471 343.914 658.596 343.904 658.727 343.883C658.862 343.857 658.964 343.836 659.031 343.82L659.039 345C658.924 345.036 658.773 345.07 658.586 345.102C658.404 345.138 658.182 345.156 657.922 345.156C657.568 345.156 657.242 345.086 656.945 344.945C656.648 344.805 656.411 344.57 656.234 344.242C656.062 343.909 655.977 343.461 655.977 342.898V334.492ZM662.266 336.547V345H660.812V336.547H662.266ZM660.703 334.305C660.703 334.07 660.773 333.872 660.914 333.711C661.06 333.549 661.273 333.469 661.555 333.469C661.831 333.469 662.042 333.549 662.188 333.711C662.339 333.872 662.414 334.07 662.414 334.305C662.414 334.529 662.339 334.721 662.188 334.883C662.042 335.039 661.831 335.117 661.555 335.117C661.273 335.117 661.06 335.039 660.914 334.883C660.773 334.721 660.703 334.529 660.703 334.305ZM664.203 340.867V340.688C664.203 340.078 664.292 339.513 664.469 338.992C664.646 338.466 664.901 338.01 665.234 337.625C665.568 337.234 665.971 336.932 666.445 336.719C666.919 336.5 667.451 336.391 668.039 336.391C668.633 336.391 669.167 336.5 669.641 336.719C670.12 336.932 670.526 337.234 670.859 337.625C671.198 338.01 671.456 338.466 671.633 338.992C671.81 339.513 671.898 340.078 671.898 340.688V340.867C671.898 341.477 671.81 342.042 671.633 342.562C671.456 343.083 671.198 343.539 670.859 343.93C670.526 344.315 670.122 344.617 669.648 344.836C669.18 345.049 668.648 345.156 668.055 345.156C667.461 345.156 666.927 345.049 666.453 344.836C665.979 344.617 665.573 344.315 665.234 343.93C664.901 343.539 664.646 343.083 664.469 342.562C664.292 342.042 664.203 341.477 664.203 340.867ZM665.648 340.688V340.867C665.648 341.289 665.698 341.688 665.797 342.062C665.896 342.432 666.044 342.76 666.242 343.047C666.445 343.333 666.698 343.56 667 343.727C667.302 343.888 667.654 343.969 668.055 343.969C668.451 343.969 668.797 343.888 669.094 343.727C669.396 343.56 669.646 343.333 669.844 343.047C670.042 342.76 670.19 342.432 670.289 342.062C670.393 341.688 670.445 341.289 670.445 340.867V340.688C670.445 340.271 670.393 339.878 670.289 339.508C670.19 339.133 670.039 338.802 669.836 338.516C669.638 338.224 669.388 337.995 669.086 337.828C668.789 337.661 668.44 337.578 668.039 337.578C667.643 337.578 667.294 337.661 666.992 337.828C666.695 337.995 666.445 338.224 666.242 338.516C666.044 338.802 665.896 339.133 665.797 339.508C665.698 339.878 665.648 340.271 665.648 340.688ZM675.156 338.352V345H673.711V336.547H675.078L675.156 338.352ZM674.812 340.453L674.211 340.43C674.216 339.852 674.302 339.318 674.469 338.828C674.635 338.333 674.87 337.904 675.172 337.539C675.474 337.174 675.833 336.893 676.25 336.695C676.672 336.492 677.138 336.391 677.648 336.391C678.065 336.391 678.44 336.448 678.773 336.562C679.107 336.672 679.391 336.849 679.625 337.094C679.865 337.339 680.047 337.656 680.172 338.047C680.297 338.432 680.359 338.904 680.359 339.461V345H678.906V339.445C678.906 339.003 678.841 338.648 678.711 338.383C678.581 338.112 678.391 337.917 678.141 337.797C677.891 337.672 677.583 337.609 677.219 337.609C676.859 337.609 676.531 337.685 676.234 337.836C675.943 337.987 675.69 338.195 675.477 338.461C675.268 338.727 675.104 339.031 674.984 339.375C674.87 339.714 674.812 340.073 674.812 340.453ZM695.492 333.625V345H693.977L688.25 336.227V345H686.742V333.625H688.25L694 342.422V333.625H695.492ZM702.93 343.555V339.203C702.93 338.87 702.862 338.581 702.727 338.336C702.596 338.086 702.398 337.893 702.133 337.758C701.867 337.622 701.539 337.555 701.148 337.555C700.784 337.555 700.464 337.617 700.188 337.742C699.917 337.867 699.703 338.031 699.547 338.234C699.396 338.438 699.32 338.656 699.32 338.891H697.875C697.875 338.589 697.953 338.289 698.109 337.992C698.266 337.695 698.49 337.427 698.781 337.188C699.078 336.943 699.432 336.75 699.844 336.609C700.26 336.464 700.724 336.391 701.234 336.391C701.849 336.391 702.391 336.495 702.859 336.703C703.333 336.911 703.703 337.227 703.969 337.648C704.24 338.065 704.375 338.589 704.375 339.219V343.156C704.375 343.438 704.398 343.737 704.445 344.055C704.497 344.372 704.573 344.646 704.672 344.875V345H703.164C703.091 344.833 703.034 344.612 702.992 344.336C702.951 344.055 702.93 343.794 702.93 343.555ZM703.18 339.875L703.195 340.891H701.734C701.323 340.891 700.956 340.924 700.633 340.992C700.31 341.055 700.039 341.151 699.82 341.281C699.602 341.411 699.435 341.576 699.32 341.773C699.206 341.966 699.148 342.193 699.148 342.453C699.148 342.719 699.208 342.961 699.328 343.18C699.448 343.398 699.628 343.573 699.867 343.703C700.112 343.828 700.411 343.891 700.766 343.891C701.208 343.891 701.599 343.797 701.938 343.609C702.276 343.422 702.544 343.193 702.742 342.922C702.945 342.651 703.055 342.388 703.07 342.133L703.688 342.828C703.651 343.047 703.552 343.289 703.391 343.555C703.229 343.82 703.013 344.076 702.742 344.32C702.477 344.56 702.159 344.76 701.789 344.922C701.424 345.078 701.013 345.156 700.555 345.156C699.982 345.156 699.479 345.044 699.047 344.82C698.62 344.596 698.286 344.297 698.047 343.922C697.812 343.542 697.695 343.117 697.695 342.648C697.695 342.195 697.784 341.797 697.961 341.453C698.138 341.104 698.393 340.815 698.727 340.586C699.06 340.352 699.461 340.174 699.93 340.055C700.398 339.935 700.922 339.875 701.5 339.875H703.18ZM708.086 338.227V345H706.633V336.547H708.008L708.086 338.227ZM707.789 340.453L707.117 340.43C707.122 339.852 707.198 339.318 707.344 338.828C707.49 338.333 707.706 337.904 707.992 337.539C708.279 337.174 708.635 336.893 709.062 336.695C709.49 336.492 709.984 336.391 710.547 336.391C710.943 336.391 711.307 336.448 711.641 336.562C711.974 336.672 712.263 336.846 712.508 337.086C712.753 337.326 712.943 337.633 713.078 338.008C713.214 338.383 713.281 338.836 713.281 339.367V345H711.836V339.438C711.836 338.995 711.76 338.641 711.609 338.375C711.464 338.109 711.255 337.917 710.984 337.797C710.714 337.672 710.396 337.609 710.031 337.609C709.604 337.609 709.247 337.685 708.961 337.836C708.674 337.987 708.445 338.195 708.273 338.461C708.102 338.727 707.977 339.031 707.898 339.375C707.826 339.714 707.789 340.073 707.789 340.453ZM713.266 339.656L712.297 339.953C712.302 339.49 712.378 339.044 712.523 338.617C712.674 338.19 712.891 337.81 713.172 337.477C713.458 337.143 713.81 336.88 714.227 336.688C714.643 336.49 715.12 336.391 715.656 336.391C716.109 336.391 716.51 336.451 716.859 336.57C717.214 336.69 717.51 336.875 717.75 337.125C717.995 337.37 718.18 337.685 718.305 338.07C718.43 338.456 718.492 338.914 718.492 339.445V345H717.039V339.43C717.039 338.956 716.964 338.589 716.812 338.328C716.667 338.062 716.458 337.878 716.188 337.773C715.922 337.664 715.604 337.609 715.234 337.609C714.917 337.609 714.635 337.664 714.391 337.773C714.146 337.883 713.94 338.034 713.773 338.227C713.607 338.414 713.479 338.63 713.391 338.875C713.307 339.12 713.266 339.38 713.266 339.656ZM724.188 345.156C723.599 345.156 723.065 345.057 722.586 344.859C722.112 344.656 721.703 344.372 721.359 344.008C721.021 343.643 720.76 343.211 720.578 342.711C720.396 342.211 720.305 341.664 720.305 341.07V340.742C720.305 340.055 720.406 339.443 720.609 338.906C720.812 338.365 721.089 337.906 721.438 337.531C721.786 337.156 722.182 336.872 722.625 336.68C723.068 336.487 723.526 336.391 724 336.391C724.604 336.391 725.125 336.495 725.562 336.703C726.005 336.911 726.367 337.203 726.648 337.578C726.93 337.948 727.138 338.385 727.273 338.891C727.409 339.391 727.477 339.938 727.477 340.531V341.18H721.164V340H726.031V339.891C726.01 339.516 725.932 339.151 725.797 338.797C725.667 338.443 725.458 338.151 725.172 337.922C724.885 337.693 724.495 337.578 724 337.578C723.672 337.578 723.37 337.648 723.094 337.789C722.818 337.924 722.581 338.128 722.383 338.398C722.185 338.669 722.031 339 721.922 339.391C721.812 339.781 721.758 340.232 721.758 340.742V341.07C721.758 341.471 721.812 341.849 721.922 342.203C722.036 342.552 722.201 342.859 722.414 343.125C722.633 343.391 722.896 343.599 723.203 343.75C723.516 343.901 723.87 343.977 724.266 343.977C724.776 343.977 725.208 343.872 725.562 343.664C725.917 343.456 726.227 343.177 726.492 342.828L727.367 343.523C727.185 343.799 726.953 344.062 726.672 344.312C726.391 344.562 726.044 344.766 725.633 344.922C725.227 345.078 724.745 345.156 724.188 345.156Z" fill="black"/>
<rect x="628" y="357" width="50" height="75" fill="white"/>
<rect x="694" y="357" width="50" height="75" fill="white"/>
<rect x="760" y="357" width="50" height="75" fill="white"/>
<circle cx="48" cy="310" r="16" fill="black"/>
<path d="M49.543 300.844V318H47.375V303.551L43.0039 305.145V303.188L49.2031 300.844H49.543Z" fill="white"/>
<circle cx="366" cy="310" r="16" fill="black"/>
<path d="M367.543 300.844V318H365.375V303.551L361.004 305.145V303.188L367.203 300.844H367.543Z" fill="white"/>
<circle cx="653" cy="310" r="16" fill="black"/>
<path d="M654.543 300.844V318H652.375V303.551L648.004 305.145V303.188L654.203 300.844H654.543Z" fill="white"/>
<circle cx="48" cy="480" r="16" fill="black"/>
<path d="M53.5977 486.219V488H42.4297V486.441L48.0195 480.219C48.707 479.453 49.2383 478.805 49.6133 478.273C49.9961 477.734 50.2617 477.254 50.4102 476.832C50.5664 476.402 50.6445 475.965 50.6445 475.52C50.6445 474.957 50.5273 474.449 50.293 473.996C50.0664 473.535 49.7305 473.168 49.2852 472.895C48.8398 472.621 48.3008 472.484 47.668 472.484C46.9102 472.484 46.2773 472.633 45.7695 472.93C45.2695 473.219 44.8945 473.625 44.6445 474.148C44.3945 474.672 44.2695 475.273 44.2695 475.953H42.1016C42.1016 474.992 42.3125 474.113 42.7344 473.316C43.1562 472.52 43.7812 471.887 44.6094 471.418C45.4375 470.941 46.457 470.703 47.668 470.703C48.7461 470.703 49.668 470.895 50.4336 471.277C51.1992 471.652 51.7852 472.184 52.1914 472.871C52.6055 473.551 52.8125 474.348 52.8125 475.262C52.8125 475.762 52.7266 476.27 52.5547 476.785C52.3906 477.293 52.1602 477.801 51.8633 478.309C51.5742 478.816 51.2344 479.316 50.8438 479.809C50.4609 480.301 50.0508 480.785 49.6133 481.262L45.043 486.219H53.5977Z" fill="white"/>
<circle cx="245" cy="396" r="16" fill="black"/>
<path d="M242.582 394.402H244.129C244.887 394.402 245.512 394.277 246.004 394.027C246.504 393.77 246.875 393.422 247.117 392.984C247.367 392.539 247.492 392.039 247.492 391.484C247.492 390.828 247.383 390.277 247.164 389.832C246.945 389.387 246.617 389.051 246.18 388.824C245.742 388.598 245.188 388.484 244.516 388.484C243.906 388.484 243.367 388.605 242.898 388.848C242.438 389.082 242.074 389.418 241.809 389.855C241.551 390.293 241.422 390.809 241.422 391.402H239.254C239.254 390.535 239.473 389.746 239.91 389.035C240.348 388.324 240.961 387.758 241.75 387.336C242.547 386.914 243.469 386.703 244.516 386.703C245.547 386.703 246.449 386.887 247.223 387.254C247.996 387.613 248.598 388.152 249.027 388.871C249.457 389.582 249.672 390.469 249.672 391.531C249.672 391.961 249.57 392.422 249.367 392.914C249.172 393.398 248.863 393.852 248.441 394.273C248.027 394.695 247.488 395.043 246.824 395.316C246.16 395.582 245.363 395.715 244.434 395.715H242.582V394.402ZM242.582 396.184V394.883H244.434C245.52 394.883 246.418 395.012 247.129 395.27C247.84 395.527 248.398 395.871 248.805 396.301C249.219 396.73 249.508 397.203 249.672 397.719C249.844 398.227 249.93 398.734 249.93 399.242C249.93 400.039 249.793 400.746 249.52 401.363C249.254 401.98 248.875 402.504 248.383 402.934C247.898 403.363 247.328 403.688 246.672 403.906C246.016 404.125 245.301 404.234 244.527 404.234C243.785 404.234 243.086 404.129 242.43 403.918C241.781 403.707 241.207 403.402 240.707 403.004C240.207 402.598 239.816 402.102 239.535 401.516C239.254 400.922 239.113 400.246 239.113 399.488H241.281C241.281 400.082 241.41 400.602 241.668 401.047C241.934 401.492 242.309 401.84 242.793 402.09C243.285 402.332 243.863 402.453 244.527 402.453C245.191 402.453 245.762 402.34 246.238 402.113C246.723 401.879 247.094 401.527 247.352 401.059C247.617 400.59 247.75 400 247.75 399.289C247.75 398.578 247.602 397.996 247.305 397.543C247.008 397.082 246.586 396.742 246.039 396.523C245.5 396.297 244.863 396.184 244.129 396.184H242.582Z" fill="white"/>
</svg>
