<svg width="1920" height="574" viewBox="0 0 1920 574" fill="none" xmlns="http://www.w3.org/2000/svg">
<rect width="1920" height="574" fill="white"/>
<rect x="346" y="62" width="351.809" height="112" rx="44.8" fill="#FFD233"/>
<rect x="348" y="64" width="347.809" height="108" rx="42.8" stroke="black" stroke-opacity="0.2" stroke-width="4"/>
<path d="M505.777 114.131C505.686 113.324 505.311 112.699 504.652 112.256C503.993 111.807 503.164 111.582 502.164 111.582C501.448 111.582 500.829 111.696 500.306 111.923C499.783 112.145 499.377 112.452 499.087 112.844C498.803 113.23 498.661 113.67 498.661 114.165C498.661 114.58 498.758 114.937 498.951 115.239C499.15 115.54 499.408 115.793 499.726 115.997C500.05 116.196 500.397 116.364 500.766 116.5C501.135 116.631 501.49 116.739 501.831 116.824L503.536 117.267C504.093 117.403 504.664 117.588 505.249 117.821C505.834 118.054 506.377 118.361 506.877 118.741C507.377 119.122 507.78 119.594 508.087 120.156C508.4 120.719 508.556 121.392 508.556 122.176C508.556 123.165 508.3 124.043 507.789 124.81C507.283 125.577 506.547 126.182 505.581 126.625C504.621 127.068 503.459 127.29 502.096 127.29C500.789 127.29 499.658 127.082 498.704 126.668C497.749 126.253 497.002 125.665 496.462 124.903C495.922 124.136 495.624 123.227 495.567 122.176H498.209C498.26 122.807 498.465 123.332 498.823 123.753C499.186 124.168 499.65 124.477 500.212 124.682C500.78 124.881 501.402 124.98 502.079 124.98C502.823 124.98 503.485 124.864 504.064 124.631C504.65 124.392 505.11 124.062 505.445 123.642C505.78 123.216 505.948 122.719 505.948 122.151C505.948 121.634 505.8 121.21 505.505 120.881C505.215 120.551 504.82 120.278 504.32 120.062C503.826 119.847 503.266 119.656 502.641 119.491L500.579 118.929C499.181 118.548 498.073 117.989 497.255 117.25C496.442 116.511 496.036 115.534 496.036 114.318C496.036 113.312 496.309 112.435 496.854 111.685C497.4 110.935 498.138 110.352 499.07 109.938C500.002 109.517 501.053 109.307 502.223 109.307C503.405 109.307 504.448 109.514 505.351 109.929C506.26 110.344 506.976 110.915 507.499 111.642C508.022 112.364 508.294 113.193 508.317 114.131H505.777ZM517.153 113.909V115.955H510.003V113.909H517.153ZM511.92 110.773H514.468V123.156C514.468 123.651 514.542 124.023 514.69 124.273C514.838 124.517 515.028 124.685 515.261 124.776C515.5 124.861 515.758 124.903 516.037 124.903C516.241 124.903 516.42 124.889 516.574 124.861C516.727 124.832 516.846 124.81 516.931 124.793L517.392 126.898C517.244 126.955 517.034 127.011 516.761 127.068C516.488 127.131 516.147 127.165 515.738 127.17C515.068 127.182 514.443 127.062 513.863 126.812C513.284 126.562 512.815 126.176 512.457 125.653C512.099 125.131 511.92 124.474 511.92 123.685V110.773ZM523.326 127.29C522.496 127.29 521.746 127.136 521.076 126.83C520.405 126.517 519.874 126.065 519.482 125.474C519.096 124.884 518.902 124.159 518.902 123.301C518.902 122.562 519.044 121.955 519.328 121.477C519.613 121 519.996 120.622 520.479 120.344C520.962 120.065 521.502 119.855 522.098 119.713C522.695 119.571 523.303 119.463 523.922 119.389C524.706 119.298 525.343 119.224 525.831 119.168C526.32 119.105 526.675 119.006 526.897 118.869C527.118 118.733 527.229 118.511 527.229 118.205V118.145C527.229 117.401 527.019 116.824 526.598 116.415C526.184 116.006 525.564 115.801 524.74 115.801C523.882 115.801 523.206 115.991 522.712 116.372C522.223 116.747 521.885 117.165 521.698 117.625L519.303 117.08C519.587 116.284 520.002 115.642 520.547 115.153C521.098 114.659 521.732 114.301 522.448 114.08C523.164 113.852 523.917 113.739 524.706 113.739C525.229 113.739 525.783 113.801 526.368 113.926C526.959 114.045 527.51 114.267 528.022 114.591C528.539 114.915 528.962 115.378 529.292 115.98C529.621 116.577 529.786 117.352 529.786 118.307V127H527.297V125.21H527.195C527.03 125.54 526.783 125.864 526.453 126.182C526.124 126.5 525.701 126.764 525.184 126.974C524.667 127.185 524.047 127.29 523.326 127.29ZM523.88 125.244C524.584 125.244 525.186 125.105 525.686 124.827C526.192 124.548 526.576 124.185 526.837 123.736C527.104 123.281 527.238 122.795 527.238 122.278V120.591C527.147 120.682 526.971 120.767 526.709 120.847C526.453 120.92 526.161 120.986 525.831 121.043C525.502 121.094 525.181 121.142 524.868 121.188C524.556 121.227 524.294 121.261 524.084 121.29C523.59 121.352 523.138 121.457 522.729 121.605C522.326 121.753 522.002 121.966 521.757 122.244C521.519 122.517 521.399 122.881 521.399 123.335C521.399 123.966 521.632 124.443 522.098 124.767C522.564 125.085 523.158 125.244 523.88 125.244ZM532.724 127V113.909H535.187V115.989H535.323C535.562 115.284 535.983 114.73 536.585 114.327C537.193 113.918 537.88 113.713 538.647 113.713C538.806 113.713 538.994 113.719 539.21 113.73C539.431 113.741 539.605 113.756 539.73 113.773V116.21C539.627 116.182 539.446 116.151 539.184 116.116C538.923 116.077 538.662 116.057 538.4 116.057C537.798 116.057 537.261 116.185 536.789 116.44C536.323 116.69 535.954 117.04 535.681 117.489C535.409 117.932 535.272 118.437 535.272 119.006V127H532.724ZM548.363 113.909V115.955H541.213V113.909H548.363ZM543.13 110.773H545.679V123.156C545.679 123.651 545.752 124.023 545.9 124.273C546.048 124.517 546.238 124.685 546.471 124.776C546.71 124.861 546.968 124.903 547.247 124.903C547.451 124.903 547.63 124.889 547.784 124.861C547.937 124.832 548.056 124.81 548.142 124.793L548.602 126.898C548.454 126.955 548.244 127.011 547.971 127.068C547.698 127.131 547.358 127.165 546.948 127.17C546.278 127.182 545.653 127.062 545.073 126.812C544.494 126.562 544.025 126.176 543.667 125.653C543.309 125.131 543.13 124.474 543.13 123.685V110.773Z" fill="#333333"/>
<rect x="784" y="78" width="352" height="80" rx="6" fill="#D99BFF"/>
<rect x="786" y="80" width="348" height="76" rx="4" stroke="black" stroke-opacity="0.2" stroke-width="4"/>
<path d="M828.289 115.222H825.63C825.528 114.653 825.337 114.153 825.059 113.722C824.781 113.29 824.44 112.923 824.036 112.622C823.633 112.321 823.181 112.094 822.681 111.94C822.187 111.787 821.661 111.71 821.104 111.71C820.099 111.71 819.198 111.963 818.403 112.469C817.613 112.974 816.988 113.716 816.528 114.693C816.073 115.67 815.846 116.864 815.846 118.273C815.846 119.693 816.073 120.892 816.528 121.869C816.988 122.847 817.616 123.585 818.411 124.085C819.207 124.585 820.102 124.835 821.096 124.835C821.647 124.835 822.17 124.761 822.664 124.614C823.164 124.46 823.616 124.236 824.019 123.94C824.423 123.645 824.764 123.284 825.042 122.858C825.326 122.426 825.522 121.932 825.63 121.375L828.289 121.384C828.147 122.241 827.872 123.031 827.462 123.753C827.059 124.469 826.539 125.088 825.903 125.611C825.272 126.128 824.55 126.528 823.738 126.812C822.925 127.097 822.039 127.239 821.079 127.239C819.568 127.239 818.221 126.881 817.039 126.165C815.857 125.443 814.925 124.412 814.244 123.071C813.568 121.73 813.229 120.131 813.229 118.273C813.229 116.409 813.57 114.81 814.252 113.474C814.934 112.134 815.866 111.105 817.048 110.389C818.229 109.668 819.573 109.307 821.079 109.307C822.005 109.307 822.869 109.44 823.67 109.707C824.477 109.969 825.201 110.355 825.843 110.866C826.485 111.372 827.016 111.991 827.437 112.724C827.857 113.452 828.141 114.284 828.289 115.222ZM839.072 121.571V113.909H841.629V127H839.124V124.733H838.987C838.686 125.432 838.203 126.014 837.538 126.48C836.879 126.94 836.058 127.17 835.075 127.17C834.234 127.17 833.49 126.986 832.842 126.616C832.2 126.241 831.695 125.688 831.325 124.955C830.962 124.222 830.78 123.315 830.78 122.236V113.909H833.328V121.929C833.328 122.821 833.575 123.531 834.07 124.06C834.564 124.588 835.206 124.852 835.996 124.852C836.473 124.852 836.947 124.733 837.419 124.494C837.896 124.256 838.291 123.895 838.604 123.412C838.922 122.929 839.078 122.315 839.072 121.571ZM854.407 117.105L852.097 117.514C852.001 117.219 851.847 116.937 851.637 116.67C851.433 116.403 851.154 116.185 850.802 116.014C850.45 115.844 850.009 115.759 849.481 115.759C848.759 115.759 848.157 115.92 847.674 116.244C847.191 116.562 846.95 116.974 846.95 117.48C846.95 117.918 847.111 118.27 847.435 118.537C847.759 118.804 848.282 119.023 849.004 119.193L851.083 119.67C852.288 119.949 853.185 120.378 853.776 120.957C854.367 121.537 854.663 122.29 854.663 123.216C854.663 124 854.435 124.699 853.981 125.312C853.532 125.92 852.904 126.398 852.097 126.744C851.296 127.091 850.367 127.264 849.31 127.264C847.844 127.264 846.648 126.952 845.722 126.327C844.796 125.696 844.228 124.801 844.018 123.642L846.481 123.267C846.634 123.909 846.95 124.395 847.427 124.724C847.904 125.048 848.526 125.21 849.293 125.21C850.129 125.21 850.796 125.037 851.296 124.69C851.796 124.338 852.046 123.909 852.046 123.403C852.046 122.994 851.893 122.651 851.586 122.372C851.285 122.094 850.822 121.884 850.197 121.741L847.981 121.256C846.759 120.977 845.856 120.534 845.271 119.926C844.691 119.318 844.401 118.548 844.401 117.616C844.401 116.844 844.617 116.168 845.049 115.588C845.481 115.009 846.077 114.557 846.839 114.233C847.6 113.903 848.472 113.739 849.455 113.739C850.87 113.739 851.984 114.045 852.796 114.659C853.609 115.267 854.146 116.082 854.407 117.105ZM863.119 113.909V115.955H855.969V113.909H863.119ZM857.886 110.773H860.435V123.156C860.435 123.651 860.508 124.023 860.656 124.273C860.804 124.517 860.994 124.685 861.227 124.776C861.466 124.861 861.724 124.903 862.003 124.903C862.207 124.903 862.386 124.889 862.54 124.861C862.693 124.832 862.812 124.81 862.898 124.793L863.358 126.898C863.21 126.955 863 127.011 862.727 127.068C862.454 127.131 862.114 127.165 861.704 127.17C861.034 127.182 860.409 127.062 859.829 126.812C859.25 126.562 858.781 126.176 858.423 125.653C858.065 125.131 857.886 124.474 857.886 123.685V110.773ZM870.856 127.264C869.628 127.264 868.557 126.983 867.643 126.42C866.728 125.858 866.018 125.071 865.512 124.06C865.006 123.048 864.753 121.866 864.753 120.514C864.753 119.156 865.006 117.969 865.512 116.952C866.018 115.935 866.728 115.145 867.643 114.582C868.557 114.02 869.628 113.739 870.856 113.739C872.083 113.739 873.154 114.02 874.069 114.582C874.984 115.145 875.694 115.935 876.199 116.952C876.705 117.969 876.958 119.156 876.958 120.514C876.958 121.866 876.705 123.048 876.199 124.06C875.694 125.071 874.984 125.858 874.069 126.42C873.154 126.983 872.083 127.264 870.856 127.264ZM870.864 125.125C871.66 125.125 872.319 124.915 872.842 124.494C873.364 124.074 873.751 123.514 874.001 122.815C874.256 122.116 874.384 121.347 874.384 120.506C874.384 119.67 874.256 118.903 874.001 118.205C873.751 117.5 873.364 116.935 872.842 116.509C872.319 116.082 871.66 115.869 870.864 115.869C870.063 115.869 869.398 116.082 868.87 116.509C868.347 116.935 867.958 117.5 867.702 118.205C867.452 118.903 867.327 119.67 867.327 120.506C867.327 121.347 867.452 122.116 867.702 122.815C867.958 123.514 868.347 124.074 868.87 124.494C869.398 124.915 870.063 125.125 870.864 125.125ZM879.346 127V113.909H881.792V116.04H881.954C882.227 115.318 882.673 114.756 883.292 114.352C883.912 113.943 884.653 113.739 885.517 113.739C886.392 113.739 887.125 113.943 887.716 114.352C888.312 114.761 888.753 115.324 889.037 116.04H889.173C889.486 115.341 889.983 114.784 890.665 114.369C891.346 113.949 892.159 113.739 893.102 113.739C894.29 113.739 895.258 114.111 896.008 114.855C896.764 115.599 897.142 116.722 897.142 118.222V127H894.594V118.46C894.594 117.574 894.352 116.932 893.869 116.534C893.386 116.136 892.81 115.938 892.139 115.938C891.31 115.938 890.665 116.193 890.204 116.705C889.744 117.21 889.514 117.861 889.514 118.656V127H886.974V118.298C886.974 117.588 886.753 117.017 886.31 116.585C885.866 116.153 885.29 115.938 884.579 115.938C884.096 115.938 883.65 116.065 883.241 116.321C882.838 116.571 882.511 116.92 882.261 117.369C882.017 117.818 881.895 118.338 881.895 118.929V127H879.346ZM900.101 127V113.909H902.65V127H900.101ZM901.388 111.889C900.945 111.889 900.564 111.741 900.246 111.446C899.934 111.145 899.778 110.787 899.778 110.372C899.778 109.952 899.934 109.594 900.246 109.298C900.564 108.997 900.945 108.847 901.388 108.847C901.832 108.847 902.209 108.997 902.522 109.298C902.84 109.594 902.999 109.952 902.999 110.372C902.999 110.787 902.84 111.145 902.522 111.446C902.209 111.741 901.832 111.889 901.388 111.889ZM905.349 127V125.253L912.44 116.244V116.125H905.579V113.909H915.619V115.767L908.801 124.665V124.784H915.858V127H905.349ZM923.675 127.264C922.385 127.264 921.275 126.989 920.343 126.438C919.417 125.881 918.701 125.099 918.195 124.094C917.695 123.082 917.445 121.898 917.445 120.54C917.445 119.199 917.695 118.017 918.195 116.994C918.701 115.972 919.405 115.173 920.309 114.599C921.218 114.026 922.28 113.739 923.496 113.739C924.235 113.739 924.951 113.861 925.644 114.105C926.337 114.349 926.959 114.733 927.51 115.256C928.062 115.778 928.496 116.457 928.814 117.293C929.133 118.122 929.292 119.131 929.292 120.318V121.222H918.885V119.312H926.795C926.795 118.642 926.658 118.048 926.385 117.531C926.113 117.009 925.729 116.597 925.235 116.295C924.746 115.994 924.172 115.844 923.513 115.844C922.797 115.844 922.172 116.02 921.638 116.372C921.11 116.719 920.701 117.173 920.411 117.736C920.127 118.293 919.985 118.898 919.985 119.551V121.043C919.985 121.918 920.138 122.662 920.445 123.276C920.758 123.889 921.192 124.358 921.749 124.682C922.306 125 922.956 125.159 923.701 125.159C924.184 125.159 924.624 125.091 925.022 124.955C925.42 124.812 925.763 124.602 926.053 124.324C926.343 124.045 926.564 123.702 926.718 123.293L929.13 123.727C928.937 124.437 928.59 125.06 928.09 125.594C927.596 126.122 926.974 126.534 926.224 126.83C925.479 127.119 924.63 127.264 923.675 127.264ZM937.763 109.545H940.959L946.516 123.114H946.721L952.277 109.545H955.473V127H952.968V114.369H952.806L947.658 126.974H945.579L940.431 114.361H940.269V127H937.763V109.545ZM962.451 127.29C961.622 127.29 960.872 127.136 960.201 126.83C959.531 126.517 959 126.065 958.608 125.474C958.221 124.884 958.028 124.159 958.028 123.301C958.028 122.562 958.17 121.955 958.454 121.477C958.738 121 959.122 120.622 959.605 120.344C960.088 120.065 960.628 119.855 961.224 119.713C961.821 119.571 962.429 119.463 963.048 119.389C963.832 119.298 964.468 119.224 964.957 119.168C965.446 119.105 965.801 119.006 966.022 118.869C966.244 118.733 966.355 118.511 966.355 118.205V118.145C966.355 117.401 966.145 116.824 965.724 116.415C965.309 116.006 964.69 115.801 963.866 115.801C963.008 115.801 962.332 115.991 961.838 116.372C961.349 116.747 961.011 117.165 960.824 117.625L958.429 117.08C958.713 116.284 959.128 115.642 959.673 115.153C960.224 114.659 960.858 114.301 961.574 114.08C962.289 113.852 963.042 113.739 963.832 113.739C964.355 113.739 964.909 113.801 965.494 113.926C966.085 114.045 966.636 114.267 967.147 114.591C967.664 114.915 968.088 115.378 968.417 115.98C968.747 116.577 968.912 117.352 968.912 118.307V127H966.423V125.21H966.321C966.156 125.54 965.909 125.864 965.579 126.182C965.25 126.5 964.826 126.764 964.309 126.974C963.792 127.185 963.173 127.29 962.451 127.29ZM963.005 125.244C963.71 125.244 964.312 125.105 964.812 124.827C965.318 124.548 965.701 124.185 965.963 123.736C966.23 123.281 966.363 122.795 966.363 122.278V120.591C966.272 120.682 966.096 120.767 965.835 120.847C965.579 120.92 965.287 120.986 964.957 121.043C964.628 121.094 964.306 121.142 963.994 121.188C963.681 121.227 963.42 121.261 963.21 121.29C962.716 121.352 962.264 121.457 961.855 121.605C961.451 121.753 961.128 121.966 960.883 122.244C960.645 122.517 960.525 122.881 960.525 123.335C960.525 123.966 960.758 124.443 961.224 124.767C961.69 125.085 962.284 125.244 963.005 125.244ZM977.961 113.909V115.955H970.81V113.909H977.961ZM972.728 110.773H975.276V123.156C975.276 123.651 975.35 124.023 975.498 124.273C975.645 124.517 975.836 124.685 976.069 124.776C976.307 124.861 976.566 124.903 976.844 124.903C977.049 124.903 977.228 124.889 977.381 124.861C977.534 124.832 977.654 124.81 977.739 124.793L978.199 126.898C978.051 126.955 977.841 127.011 977.569 127.068C977.296 127.131 976.955 127.165 976.546 127.17C975.875 127.182 975.25 127.062 974.671 126.812C974.091 126.562 973.623 126.176 973.265 125.653C972.907 125.131 972.728 124.474 972.728 123.685V110.773ZM985.825 127.264C984.535 127.264 983.424 126.989 982.493 126.438C981.566 125.881 980.85 125.099 980.345 124.094C979.845 123.082 979.595 121.898 979.595 120.54C979.595 119.199 979.845 118.017 980.345 116.994C980.85 115.972 981.555 115.173 982.458 114.599C983.368 114.026 984.43 113.739 985.646 113.739C986.385 113.739 987.1 113.861 987.794 114.105C988.487 114.349 989.109 114.733 989.66 115.256C990.211 115.778 990.646 116.457 990.964 117.293C991.282 118.122 991.441 119.131 991.441 120.318V121.222H981.035V119.312H988.944C988.944 118.642 988.808 118.048 988.535 117.531C988.262 117.009 987.879 116.597 987.385 116.295C986.896 115.994 986.322 115.844 985.663 115.844C984.947 115.844 984.322 116.02 983.788 116.372C983.26 116.719 982.85 117.173 982.561 117.736C982.277 118.293 982.135 118.898 982.135 119.551V121.043C982.135 121.918 982.288 122.662 982.595 123.276C982.907 123.889 983.342 124.358 983.899 124.682C984.456 125 985.106 125.159 985.85 125.159C986.333 125.159 986.774 125.091 987.171 124.955C987.569 124.812 987.913 124.602 988.203 124.324C988.493 124.045 988.714 123.702 988.868 123.293L991.279 123.727C991.086 124.437 990.74 125.06 990.24 125.594C989.745 126.122 989.123 126.534 988.373 126.83C987.629 127.119 986.779 127.264 985.825 127.264ZM993.813 127V113.909H996.276V115.989H996.412C996.651 115.284 997.071 114.73 997.674 114.327C998.282 113.918 998.969 113.713 999.736 113.713C999.895 113.713 1000.08 113.719 1000.3 113.73C1000.52 113.741 1000.69 113.756 1000.82 113.773V116.21C1000.72 116.182 1000.53 116.151 1000.27 116.116C1000.01 116.077 999.75 116.057 999.489 116.057C998.887 116.057 998.35 116.185 997.878 116.44C997.412 116.69 997.043 117.04 996.77 117.489C996.497 117.932 996.361 118.437 996.361 119.006V127H993.813ZM1002.57 127V113.909H1005.12V127H1002.57ZM1003.85 111.889C1003.41 111.889 1003.03 111.741 1002.71 111.446C1002.4 111.145 1002.24 110.787 1002.24 110.372C1002.24 109.952 1002.4 109.594 1002.71 109.298C1003.03 108.997 1003.41 108.847 1003.85 108.847C1004.3 108.847 1004.68 108.997 1004.99 109.298C1005.31 109.594 1005.47 109.952 1005.47 110.372C1005.47 110.787 1005.31 111.145 1004.99 111.446C1004.68 111.741 1004.3 111.889 1003.85 111.889ZM1011.9 127.29C1011.07 127.29 1010.32 127.136 1009.65 126.83C1008.98 126.517 1008.45 126.065 1008.05 125.474C1007.67 124.884 1007.47 124.159 1007.47 123.301C1007.47 122.562 1007.62 121.955 1007.9 121.477C1008.18 121 1008.57 120.622 1009.05 120.344C1009.53 120.065 1010.07 119.855 1010.67 119.713C1011.27 119.571 1011.88 119.463 1012.49 119.389C1013.28 119.298 1013.91 119.224 1014.4 119.168C1014.89 119.105 1015.25 119.006 1015.47 118.869C1015.69 118.733 1015.8 118.511 1015.8 118.205V118.145C1015.8 117.401 1015.59 116.824 1015.17 116.415C1014.76 116.006 1014.14 115.801 1013.31 115.801C1012.45 115.801 1011.78 115.991 1011.28 116.372C1010.8 116.747 1010.46 117.165 1010.27 117.625L1007.88 117.08C1008.16 116.284 1008.57 115.642 1009.12 115.153C1009.67 114.659 1010.3 114.301 1011.02 114.08C1011.74 113.852 1012.49 113.739 1013.28 113.739C1013.8 113.739 1014.36 113.801 1014.94 113.926C1015.53 114.045 1016.08 114.267 1016.59 114.591C1017.11 114.915 1017.53 115.378 1017.86 115.98C1018.19 116.577 1018.36 117.352 1018.36 118.307V127H1015.87V125.21H1015.77C1015.6 125.54 1015.36 125.864 1015.03 126.182C1014.7 126.5 1014.27 126.764 1013.76 126.974C1013.24 127.185 1012.62 127.29 1011.9 127.29ZM1012.45 125.244C1013.16 125.244 1013.76 125.105 1014.26 124.827C1014.76 124.548 1015.15 124.185 1015.41 123.736C1015.68 123.281 1015.81 122.795 1015.81 122.278V120.591C1015.72 120.682 1015.54 120.767 1015.28 120.847C1015.03 120.92 1014.73 120.986 1014.4 121.043C1014.07 121.094 1013.75 121.142 1013.44 121.188C1013.13 121.227 1012.87 121.261 1012.66 121.29C1012.16 121.352 1011.71 121.457 1011.3 121.605C1010.9 121.753 1010.57 121.966 1010.33 122.244C1010.09 122.517 1009.97 122.881 1009.97 123.335C1009.97 123.966 1010.2 124.443 1010.67 124.767C1011.14 125.085 1011.73 125.244 1012.45 125.244ZM1023.84 109.545V127H1021.3V109.545H1023.84ZM1038.57 127H1032.92V109.545H1038.75C1040.46 109.545 1041.93 109.895 1043.15 110.594C1044.38 111.287 1045.32 112.284 1045.97 113.585C1046.63 114.881 1046.96 116.435 1046.96 118.247C1046.96 120.065 1046.63 121.628 1045.97 122.935C1045.31 124.241 1044.35 125.247 1043.1 125.952C1041.85 126.651 1040.34 127 1038.57 127ZM1035.55 124.699H1038.42C1039.75 124.699 1040.86 124.449 1041.74 123.949C1042.62 123.443 1043.28 122.713 1043.72 121.759C1044.15 120.798 1044.37 119.628 1044.37 118.247C1044.37 116.878 1044.15 115.716 1043.72 114.761C1043.28 113.807 1042.64 113.082 1041.78 112.588C1040.92 112.094 1039.86 111.847 1038.58 111.847H1035.55V124.699ZM1055.22 127.264C1053.93 127.264 1052.82 126.989 1051.89 126.438C1050.96 125.881 1050.24 125.099 1049.74 124.094C1049.24 123.082 1048.99 121.898 1048.99 120.54C1048.99 119.199 1049.24 118.017 1049.74 116.994C1050.24 115.972 1050.95 115.173 1051.85 114.599C1052.76 114.026 1053.82 113.739 1055.04 113.739C1055.78 113.739 1056.49 113.861 1057.19 114.105C1057.88 114.349 1058.5 114.733 1059.05 115.256C1059.61 115.778 1060.04 116.457 1060.36 117.293C1060.68 118.122 1060.84 119.131 1060.84 120.318V121.222H1050.43V119.312H1058.34C1058.34 118.642 1058.2 118.048 1057.93 117.531C1057.66 117.009 1057.27 116.597 1056.78 116.295C1056.29 115.994 1055.72 115.844 1055.06 115.844C1054.34 115.844 1053.72 116.02 1053.18 116.372C1052.65 116.719 1052.24 117.173 1051.95 117.736C1051.67 118.293 1051.53 118.898 1051.53 119.551V121.043C1051.53 121.918 1051.68 122.662 1051.99 123.276C1052.3 123.889 1052.74 124.358 1053.29 124.682C1053.85 125 1054.5 125.159 1055.24 125.159C1055.73 125.159 1056.17 125.091 1056.57 124.955C1056.96 124.812 1057.31 124.602 1057.6 124.324C1057.89 124.045 1058.11 123.702 1058.26 123.293L1060.67 123.727C1060.48 124.437 1060.13 125.06 1059.63 125.594C1059.14 126.122 1058.52 126.534 1057.77 126.83C1057.02 127.119 1056.17 127.264 1055.22 127.264ZM1073.02 117.105L1070.71 117.514C1070.61 117.219 1070.46 116.937 1070.25 116.67C1070.04 116.403 1069.76 116.185 1069.41 116.014C1069.06 115.844 1068.62 115.759 1068.09 115.759C1067.37 115.759 1066.77 115.92 1066.28 116.244C1065.8 116.562 1065.56 116.974 1065.56 117.48C1065.56 117.918 1065.72 118.27 1066.04 118.537C1066.37 118.804 1066.89 119.023 1067.61 119.193L1069.69 119.67C1070.9 119.949 1071.79 120.378 1072.39 120.957C1072.98 121.537 1073.27 122.29 1073.27 123.216C1073.27 124 1073.04 124.699 1072.59 125.312C1072.14 125.92 1071.51 126.398 1070.71 126.744C1069.91 127.091 1068.98 127.264 1067.92 127.264C1066.45 127.264 1065.26 126.952 1064.33 126.327C1063.41 125.696 1062.84 124.801 1062.63 123.642L1065.09 123.267C1065.24 123.909 1065.56 124.395 1066.04 124.724C1066.51 125.048 1067.14 125.21 1067.9 125.21C1068.74 125.21 1069.41 125.037 1069.91 124.69C1070.41 124.338 1070.66 123.909 1070.66 123.403C1070.66 122.994 1070.5 122.651 1070.2 122.372C1069.89 122.094 1069.43 121.884 1068.81 121.741L1066.59 121.256C1065.37 120.977 1064.47 120.534 1063.88 119.926C1063.3 119.318 1063.01 118.548 1063.01 117.616C1063.01 116.844 1063.23 116.168 1063.66 115.588C1064.09 115.009 1064.69 114.557 1065.45 114.233C1066.21 113.903 1067.08 113.739 1068.06 113.739C1069.48 113.739 1070.59 114.045 1071.41 114.659C1072.22 115.267 1072.76 116.082 1073.02 117.105ZM1075.62 127V113.909H1078.17V127H1075.62ZM1076.9 111.889C1076.46 111.889 1076.08 111.741 1075.76 111.446C1075.45 111.145 1075.29 110.787 1075.29 110.372C1075.29 109.952 1075.45 109.594 1075.76 109.298C1076.08 108.997 1076.46 108.847 1076.9 108.847C1077.35 108.847 1077.73 108.997 1078.04 109.298C1078.36 109.594 1078.52 109.952 1078.52 110.372C1078.52 110.787 1078.36 111.145 1078.04 111.446C1077.73 111.741 1077.35 111.889 1076.9 111.889ZM1086.63 132.182C1085.59 132.182 1084.69 132.045 1083.94 131.773C1083.2 131.5 1082.59 131.139 1082.12 130.69C1081.65 130.241 1081.29 129.75 1081.06 129.216L1083.25 128.312C1083.41 128.562 1083.61 128.827 1083.87 129.105C1084.13 129.389 1084.48 129.631 1084.92 129.83C1085.37 130.028 1085.95 130.128 1086.65 130.128C1087.62 130.128 1088.42 129.892 1089.05 129.42C1089.68 128.955 1089.99 128.21 1089.99 127.188V124.614H1089.83C1089.68 124.892 1089.46 125.202 1089.17 125.543C1088.88 125.884 1088.49 126.179 1087.99 126.429C1087.49 126.679 1086.84 126.804 1086.04 126.804C1085 126.804 1084.07 126.562 1083.24 126.08C1082.42 125.591 1081.77 124.872 1081.28 123.923C1080.81 122.969 1080.57 121.795 1080.57 120.403C1080.57 119.011 1080.8 117.818 1081.27 116.824C1081.75 115.83 1082.41 115.068 1083.24 114.54C1084.06 114.006 1085 113.739 1086.06 113.739C1086.87 113.739 1087.52 113.875 1088.02 114.148C1088.52 114.415 1088.91 114.727 1089.19 115.085C1089.48 115.443 1089.7 115.759 1089.85 116.031H1090.04V113.909H1092.53V127.29C1092.53 128.415 1092.27 129.338 1091.75 130.06C1091.23 130.781 1090.52 131.315 1089.63 131.662C1088.74 132.009 1087.74 132.182 1086.63 132.182ZM1086.6 124.69C1087.33 124.69 1087.95 124.52 1088.46 124.179C1088.97 123.832 1089.36 123.338 1089.62 122.696C1089.89 122.048 1090.02 121.273 1090.02 120.369C1090.02 119.489 1089.89 118.713 1089.63 118.043C1089.37 117.372 1088.98 116.849 1088.48 116.474C1087.97 116.094 1087.35 115.903 1086.6 115.903C1085.83 115.903 1085.2 116.102 1084.68 116.5C1084.17 116.892 1083.79 117.426 1083.52 118.102C1083.27 118.778 1083.14 119.534 1083.14 120.369C1083.14 121.227 1083.27 121.98 1083.53 122.628C1083.79 123.276 1084.18 123.781 1084.69 124.145C1085.21 124.509 1085.85 124.69 1086.6 124.69ZM1098.04 119.227V127H1095.49V113.909H1097.94V116.04H1098.1C1098.4 115.347 1098.88 114.79 1099.52 114.369C1100.17 113.949 1100.98 113.739 1101.96 113.739C1102.86 113.739 1103.64 113.926 1104.31 114.301C1104.98 114.67 1105.5 115.222 1105.87 115.955C1106.24 116.687 1106.42 117.594 1106.42 118.673V127H1103.87V118.98C1103.87 118.031 1103.63 117.29 1103.13 116.756C1102.64 116.216 1101.96 115.946 1101.09 115.946C1100.5 115.946 1099.98 116.074 1099.52 116.33C1099.06 116.585 1098.7 116.96 1098.44 117.455C1098.17 117.943 1098.04 118.534 1098.04 119.227Z" fill="#333333"/>
<path d="M701.805 116.5C700.976 116.5 700.305 117.172 700.305 118C700.305 118.828 700.976 119.5 701.805 119.5V116.5ZM781.056 119.061C781.642 118.475 781.642 117.525 781.056 116.939L771.51 107.393C770.925 106.808 769.975 106.808 769.389 107.393C768.803 107.979 768.803 108.929 769.389 109.515L777.874 118L769.389 126.485C768.803 127.071 768.803 128.021 769.389 128.607C769.975 129.192 770.925 129.192 771.51 128.607L781.056 119.061ZM701.805 119.5H779.996V116.5H701.805V119.5Z" fill="#B3B3B3"/>
<path d="M1394.36 15.2339C1396.51 13.5887 1399.49 13.5887 1401.64 15.2339L1531.64 113.234C1534.79 115.635 1534.79 120.365 1531.64 122.766L1401.64 220.766C1399.49 222.411 1396.51 222.411 1394.36 220.766L1264.36 122.766C1261.21 120.365 1261.21 115.635 1264.36 113.234L1394.36 15.2339Z" fill="#CECCCC"/>
<path d="M1400.44 16.8309L1530.43 114.823C1530.43 114.824 1530.43 114.826 1530.44 114.827C1532.52 116.428 1532.52 119.572 1530.44 121.173C1530.43 121.174 1530.43 121.176 1530.43 121.177L1400.44 219.169L1400.43 219.177C1399 220.274 1397 220.274 1395.57 219.177L1395.56 219.169L1265.57 121.177C1265.57 121.176 1265.57 121.175 1265.57 121.174C1263.48 119.573 1263.48 116.427 1265.57 114.826C1265.57 114.825 1265.57 114.824 1265.57 114.823L1395.56 16.8309L1395.57 16.8226C1397 15.7258 1399 15.7258 1400.43 16.8226L1400.44 16.8309Z" stroke="black" stroke-opacity="0.2" stroke-width="4"/>
<path d="M1349.89 95L1345.05 77.5455H1347.82L1351.22 91.0625H1351.38L1354.92 77.5455H1357.66L1361.2 91.071H1361.36L1364.75 77.5455H1367.53L1362.68 95H1360.03L1356.36 81.9261H1356.22L1352.55 95H1349.89ZM1373.5 95.2642C1372.27 95.2642 1371.2 94.983 1370.28 94.4205C1369.37 93.858 1368.66 93.071 1368.15 92.0597C1367.65 91.0483 1367.39 89.8665 1367.39 88.5142C1367.39 87.1562 1367.65 85.9687 1368.15 84.9517C1368.66 83.9347 1369.37 83.1449 1370.28 82.5824C1371.2 82.0199 1372.27 81.7386 1373.5 81.7386C1374.72 81.7386 1375.79 82.0199 1376.71 82.5824C1377.62 83.1449 1378.33 83.9347 1378.84 84.9517C1379.34 85.9687 1379.6 87.1562 1379.6 88.5142C1379.6 89.8665 1379.34 91.0483 1378.84 92.0597C1378.33 93.071 1377.62 93.858 1376.71 94.4205C1375.79 94.983 1374.72 95.2642 1373.5 95.2642ZM1373.5 93.125C1374.3 93.125 1374.96 92.9148 1375.48 92.4943C1376 92.0739 1376.39 91.5142 1376.64 90.8153C1376.9 90.1165 1377.02 89.3466 1377.02 88.5057C1377.02 87.6705 1376.9 86.9034 1376.64 86.2045C1376.39 85.5 1376 84.9347 1375.48 84.5085C1374.96 84.0824 1374.3 83.8693 1373.5 83.8693C1372.7 83.8693 1372.04 84.0824 1371.51 84.5085C1370.99 84.9347 1370.6 85.5 1370.34 86.2045C1370.09 86.9034 1369.97 87.6705 1369.97 88.5057C1369.97 89.3466 1370.09 90.1165 1370.34 90.8153C1370.6 91.5142 1370.99 92.0739 1371.51 92.4943C1372.04 92.9148 1372.7 93.125 1373.5 93.125ZM1381.99 95V81.9091H1384.45V83.9886H1384.59C1384.82 83.2841 1385.24 82.7301 1385.85 82.3267C1386.45 81.9176 1387.14 81.7131 1387.91 81.7131C1388.07 81.7131 1388.26 81.7187 1388.47 81.7301C1388.69 81.7415 1388.87 81.7557 1388.99 81.7727V84.2102C1388.89 84.1818 1388.71 84.1506 1388.45 84.1165C1388.18 84.0767 1387.92 84.0568 1387.66 84.0568C1387.06 84.0568 1386.52 84.1847 1386.05 84.4403C1385.59 84.6903 1385.22 85.0398 1384.94 85.4886C1384.67 85.9318 1384.53 86.4375 1384.53 87.0057V95H1381.99ZM1393.08 90.5597L1393.07 87.4489H1393.51L1398.73 81.9091H1401.78L1395.83 88.2159H1395.43L1393.08 90.5597ZM1390.74 95V77.5455H1393.29V95H1390.74ZM1399.01 95L1394.32 88.7784L1396.08 86.9972L1402.14 95H1399.01ZM1412.38 95L1408.53 81.9091H1411.16L1413.72 91.5227H1413.85L1416.43 81.9091H1419.06L1421.62 91.4801H1421.74L1424.29 81.9091H1426.93L1423.08 95H1420.48L1417.82 85.5483H1417.63L1414.97 95H1412.38ZM1434.13 95.2642C1432.84 95.2642 1431.73 94.9886 1430.8 94.4375C1429.87 93.8807 1429.16 93.0994 1428.65 92.0938C1428.15 91.0824 1427.9 89.8977 1427.9 88.5398C1427.9 87.1989 1428.15 86.017 1428.65 84.9943C1429.16 83.9716 1429.86 83.1733 1430.77 82.5994C1431.67 82.0256 1432.74 81.7386 1433.95 81.7386C1434.69 81.7386 1435.41 81.8608 1436.1 82.1051C1436.79 82.3494 1437.42 82.733 1437.97 83.2557C1438.52 83.7784 1438.95 84.4574 1439.27 85.2926C1439.59 86.1222 1439.75 87.1307 1439.75 88.3182V89.2216H1429.34V87.3125H1437.25C1437.25 86.642 1437.12 86.0483 1436.84 85.5312C1436.57 85.0085 1436.19 84.5966 1435.69 84.2955C1435.2 83.9943 1434.63 83.8438 1433.97 83.8438C1433.25 83.8438 1432.63 84.0199 1432.1 84.3722C1431.57 84.7187 1431.16 85.1733 1430.87 85.7358C1430.58 86.2926 1430.44 86.8977 1430.44 87.5511V89.0426C1430.44 89.9176 1430.6 90.6619 1430.9 91.2756C1431.21 91.8892 1431.65 92.358 1432.21 92.6818C1432.76 93 1433.41 93.1591 1434.16 93.1591C1434.64 93.1591 1435.08 93.0909 1435.48 92.9545C1435.88 92.8125 1436.22 92.6023 1436.51 92.3239C1436.8 92.0455 1437.02 91.7017 1437.17 91.2926L1439.59 91.7273C1439.39 92.4375 1439.05 93.0597 1438.55 93.5938C1438.05 94.1222 1437.43 94.5341 1436.68 94.8295C1435.94 95.1193 1435.09 95.2642 1434.13 95.2642ZM1444.67 77.5455V95H1442.12V77.5455H1444.67ZM1450.19 77.5455V95H1447.64V77.5455H1450.19ZM1390.62 113.909V115.955H1383.22V113.909H1390.62ZM1385.25 127V112.392C1385.25 111.574 1385.43 110.895 1385.79 110.355C1386.14 109.81 1386.62 109.403 1387.21 109.136C1387.8 108.864 1388.44 108.727 1389.14 108.727C1389.65 108.727 1390.09 108.77 1390.45 108.855C1390.81 108.935 1391.08 109.009 1391.26 109.077L1390.66 111.139C1390.54 111.105 1390.39 111.065 1390.2 111.02C1390.01 110.969 1389.79 110.943 1389.52 110.943C1388.9 110.943 1388.46 111.097 1388.19 111.403C1387.93 111.71 1387.8 112.153 1387.8 112.733V127H1385.25ZM1397.79 127.264C1396.56 127.264 1395.49 126.983 1394.58 126.42C1393.66 125.858 1392.95 125.071 1392.45 124.06C1391.94 123.048 1391.69 121.866 1391.69 120.514C1391.69 119.156 1391.94 117.969 1392.45 116.952C1392.95 115.935 1393.66 115.145 1394.58 114.582C1395.49 114.02 1396.56 113.739 1397.79 113.739C1399.02 113.739 1400.09 114.02 1401 114.582C1401.92 115.145 1402.63 115.935 1403.13 116.952C1403.64 117.969 1403.89 119.156 1403.89 120.514C1403.89 121.866 1403.64 123.048 1403.13 124.06C1402.63 125.071 1401.92 125.858 1401 126.42C1400.09 126.983 1399.02 127.264 1397.79 127.264ZM1397.8 125.125C1398.6 125.125 1399.25 124.915 1399.78 124.494C1400.3 124.074 1400.69 123.514 1400.94 122.815C1401.19 122.116 1401.32 121.347 1401.32 120.506C1401.32 119.67 1401.19 118.903 1400.94 118.205C1400.69 117.5 1400.3 116.935 1399.78 116.509C1399.25 116.082 1398.6 115.869 1397.8 115.869C1397 115.869 1396.33 116.082 1395.81 116.509C1395.28 116.935 1394.89 117.5 1394.64 118.205C1394.39 118.903 1394.26 119.67 1394.26 120.506C1394.26 121.347 1394.39 122.116 1394.64 122.815C1394.89 123.514 1395.28 124.074 1395.81 124.494C1396.33 124.915 1397 125.125 1397.8 125.125ZM1406.28 127V113.909H1408.75V115.989H1408.88C1409.12 115.284 1409.54 114.73 1410.14 114.327C1410.75 113.918 1411.44 113.713 1412.21 113.713C1412.36 113.713 1412.55 113.719 1412.77 113.73C1412.99 113.741 1413.16 113.756 1413.29 113.773V116.21C1413.19 116.182 1413 116.151 1412.74 116.116C1412.48 116.077 1412.22 116.057 1411.96 116.057C1411.36 116.057 1410.82 116.185 1410.35 116.44C1409.88 116.69 1409.51 117.04 1409.24 117.489C1408.97 117.932 1408.83 118.437 1408.83 119.006V127H1406.28ZM1347.54 141.545V159H1344.91V141.545H1347.54ZM1353.26 151.227V159H1350.71V145.909H1353.16V148.04H1353.32C1353.62 147.347 1354.09 146.79 1354.74 146.369C1355.38 145.949 1356.2 145.739 1357.18 145.739C1358.07 145.739 1358.86 145.926 1359.53 146.301C1360.2 146.67 1360.72 147.222 1361.09 147.955C1361.46 148.687 1361.64 149.594 1361.64 150.673V159H1359.09V150.98C1359.09 150.031 1358.84 149.29 1358.35 148.756C1357.86 148.216 1357.18 147.946 1356.31 147.946C1355.72 147.946 1355.2 148.074 1354.74 148.33C1354.28 148.585 1353.92 148.96 1353.65 149.455C1353.39 149.943 1353.26 150.534 1353.26 151.227ZM1364.81 141.545H1368L1373.56 155.114H1373.76L1379.32 141.545H1382.52V159H1380.01V146.369H1379.85L1374.7 158.974H1372.62L1367.47 146.361H1367.31V159H1364.81V141.545ZM1389.49 159.29C1388.66 159.29 1387.91 159.136 1387.24 158.83C1386.57 158.517 1386.04 158.065 1385.65 157.474C1385.26 156.884 1385.07 156.159 1385.07 155.301C1385.07 154.562 1385.21 153.955 1385.5 153.477C1385.78 153 1386.16 152.622 1386.65 152.344C1387.13 152.065 1387.67 151.855 1388.27 151.713C1388.86 151.571 1389.47 151.463 1390.09 151.389C1390.88 151.298 1391.51 151.224 1392 151.168C1392.49 151.105 1392.84 151.006 1393.07 150.869C1393.29 150.733 1393.4 150.511 1393.4 150.205V150.145C1393.4 149.401 1393.19 148.824 1392.77 148.415C1392.35 148.006 1391.73 147.801 1390.91 147.801C1390.05 147.801 1389.38 147.991 1388.88 148.372C1388.39 148.747 1388.05 149.165 1387.87 149.625L1385.47 149.08C1385.76 148.284 1386.17 147.642 1386.72 147.153C1387.27 146.659 1387.9 146.301 1388.62 146.08C1389.33 145.852 1390.09 145.739 1390.88 145.739C1391.4 145.739 1391.95 145.801 1392.54 145.926C1393.13 146.045 1393.68 146.267 1394.19 146.591C1394.71 146.915 1395.13 147.378 1395.46 147.98C1395.79 148.577 1395.95 149.352 1395.95 150.307V159H1393.47V157.21H1393.36C1393.2 157.54 1392.95 157.864 1392.62 158.182C1392.29 158.5 1391.87 158.764 1391.35 158.974C1390.84 159.185 1390.22 159.29 1389.49 159.29ZM1390.05 157.244C1390.75 157.244 1391.36 157.105 1391.86 156.827C1392.36 156.548 1392.74 156.185 1393.01 155.736C1393.27 155.281 1393.41 154.795 1393.41 154.278V152.591C1393.32 152.682 1393.14 152.767 1392.88 152.847C1392.62 152.92 1392.33 152.986 1392 153.043C1391.67 153.094 1391.35 153.142 1391.04 153.188C1390.72 153.227 1390.46 153.261 1390.25 153.29C1389.76 153.352 1389.31 153.457 1388.9 153.605C1388.49 153.753 1388.17 153.966 1387.93 154.244C1387.69 154.517 1387.57 154.881 1387.57 155.335C1387.57 155.966 1387.8 156.443 1388.27 156.767C1388.73 157.085 1389.33 157.244 1390.05 157.244ZM1398.89 159V145.909H1401.36V147.989H1401.49C1401.73 147.284 1402.15 146.73 1402.75 146.327C1403.36 145.918 1404.05 145.713 1404.82 145.713C1404.98 145.713 1405.16 145.719 1405.38 145.73C1405.6 145.741 1405.77 145.756 1405.9 145.773V148.21C1405.8 148.182 1405.61 148.151 1405.35 148.116C1405.09 148.077 1404.83 148.057 1404.57 148.057C1403.97 148.057 1403.43 148.185 1402.96 148.44C1402.49 148.69 1402.12 149.04 1401.85 149.489C1401.58 149.932 1401.44 150.437 1401.44 151.006V159H1398.89ZM1409.99 154.56L1409.97 151.449H1410.42L1415.63 145.909H1418.68L1412.74 152.216H1412.34L1409.99 154.56ZM1407.65 159V141.545H1410.2V159H1407.65ZM1415.91 159L1411.23 152.778L1412.98 150.997L1419.04 159H1415.91ZM1425.65 159.264C1424.36 159.264 1423.25 158.989 1422.32 158.438C1421.4 157.881 1420.68 157.099 1420.17 156.094C1419.67 155.082 1419.42 153.898 1419.42 152.54C1419.42 151.199 1419.67 150.017 1420.17 148.994C1420.68 147.972 1421.38 147.173 1422.29 146.599C1423.2 146.026 1424.26 145.739 1425.48 145.739C1426.21 145.739 1426.93 145.861 1427.62 146.105C1428.32 146.349 1428.94 146.733 1429.49 147.256C1430.04 147.778 1430.48 148.457 1430.79 149.293C1431.11 150.122 1431.27 151.131 1431.27 152.318V153.222H1420.86V151.312H1428.77C1428.77 150.642 1428.64 150.048 1428.36 149.531C1428.09 149.009 1427.71 148.597 1427.21 148.295C1426.73 147.994 1426.15 147.844 1425.49 147.844C1424.78 147.844 1424.15 148.02 1423.62 148.372C1423.09 148.719 1422.68 149.173 1422.39 149.736C1422.11 150.293 1421.96 150.898 1421.96 151.551V153.043C1421.96 153.918 1422.12 154.662 1422.42 155.276C1422.74 155.889 1423.17 156.358 1423.73 156.682C1424.28 157 1424.94 157.159 1425.68 157.159C1426.16 157.159 1426.6 157.091 1427 156.955C1427.4 156.812 1427.74 156.602 1428.03 156.324C1428.32 156.045 1428.54 155.702 1428.7 155.293L1431.11 155.727C1430.92 156.437 1430.57 157.06 1430.07 157.594C1429.57 158.122 1428.95 158.534 1428.2 158.83C1427.46 159.119 1426.61 159.264 1425.65 159.264ZM1439.75 145.909V147.955H1432.6V145.909H1439.75ZM1434.52 142.773H1437.07V155.156C1437.07 155.651 1437.14 156.023 1437.29 156.273C1437.44 156.517 1437.63 156.685 1437.86 156.776C1438.1 156.861 1438.36 156.903 1438.64 156.903C1438.84 156.903 1439.02 156.889 1439.17 156.861C1439.33 156.832 1439.45 156.81 1439.53 156.793L1439.99 158.898C1439.84 158.955 1439.63 159.011 1439.36 159.068C1439.09 159.131 1438.75 159.165 1438.34 159.17C1437.67 159.182 1437.04 159.062 1436.46 158.812C1435.88 158.562 1435.41 158.176 1435.06 157.653C1434.7 157.131 1434.52 156.474 1434.52 155.685V142.773ZM1444.9 153.98V153.818C1444.91 152.761 1445.02 151.92 1445.22 151.295C1445.42 150.67 1445.71 150.165 1446.09 149.778C1446.46 149.392 1446.91 149.04 1447.44 148.722C1447.78 148.506 1448.09 148.264 1448.36 147.997C1448.64 147.73 1448.85 147.423 1449.01 147.077C1449.17 146.73 1449.25 146.347 1449.25 145.926C1449.25 145.42 1449.13 144.983 1448.89 144.614C1448.65 144.244 1448.33 143.96 1447.94 143.761C1447.54 143.557 1447.11 143.455 1446.62 143.455C1446.19 143.455 1445.77 143.545 1445.37 143.727C1444.97 143.909 1444.64 144.193 1444.38 144.58C1444.12 144.96 1443.97 145.452 1443.93 146.054H1441.34C1441.38 145.031 1441.64 144.168 1442.12 143.463C1442.59 142.753 1443.22 142.216 1444.01 141.852C1444.8 141.489 1445.67 141.307 1446.62 141.307C1447.67 141.307 1448.58 141.503 1449.37 141.895C1450.15 142.281 1450.76 142.824 1451.19 143.523C1451.63 144.216 1451.85 145.026 1451.85 145.952C1451.85 146.588 1451.75 147.162 1451.55 147.673C1451.35 148.179 1451.07 148.631 1450.7 149.028C1450.33 149.426 1449.9 149.778 1449.39 150.085C1448.9 150.386 1448.51 150.699 1448.21 151.023C1447.91 151.347 1447.7 151.73 1447.56 152.173C1447.43 152.616 1447.35 153.165 1447.34 153.818V153.98H1444.9ZM1446.19 159.162C1445.72 159.162 1445.32 158.997 1444.99 158.668C1444.65 158.332 1444.48 157.929 1444.48 157.457C1444.48 156.991 1444.65 156.594 1444.99 156.264C1445.32 155.929 1445.72 155.761 1446.19 155.761C1446.65 155.761 1447.05 155.929 1447.38 156.264C1447.72 156.594 1447.89 156.991 1447.89 157.457C1447.89 157.77 1447.81 158.057 1447.66 158.318C1447.5 158.574 1447.3 158.778 1447.04 158.932C1446.79 159.085 1446.5 159.162 1446.19 159.162Z" fill="#333333"/>
<path d="M1140 116.5C1139.17 116.5 1138.5 117.172 1138.5 118C1138.5 118.828 1139.17 119.5 1140 119.5V116.5ZM1259.06 119.061C1259.65 118.475 1259.65 117.525 1259.06 116.939L1249.51 107.393C1248.93 106.808 1247.98 106.808 1247.39 107.393C1246.81 107.979 1246.81 108.929 1247.39 109.515L1255.88 118L1247.39 126.485C1246.81 127.071 1246.81 128.021 1247.39 128.607C1247.98 129.192 1248.93 129.192 1249.51 128.607L1259.06 119.061ZM1140 119.5H1258V116.5H1140V119.5Z" fill="#B3B3B3"/>
<rect x="1222" y="462" width="352" height="80" rx="6" fill="#D99BFF"/>
<rect x="1224" y="464" width="348" height="76" rx="4" stroke="black" stroke-opacity="0.2" stroke-width="4"/>
<path d="M1308.21 511H1305.41L1311.69 493.545H1314.74L1321.02 511H1318.22L1313.29 496.716H1313.15L1308.21 511ZM1308.68 504.165H1317.75V506.381H1308.68V504.165ZM1322.88 515.909V497.909H1325.37V500.031H1325.58C1325.73 499.759 1325.94 499.443 1326.22 499.085C1326.5 498.727 1326.88 498.415 1327.38 498.148C1327.87 497.875 1328.53 497.739 1329.34 497.739C1330.4 497.739 1331.34 498.006 1332.17 498.54C1333 499.074 1333.65 499.844 1334.12 500.849C1334.6 501.855 1334.84 503.065 1334.84 504.48C1334.84 505.895 1334.6 507.108 1334.13 508.119C1333.66 509.125 1333.01 509.901 1332.19 510.446C1331.36 510.986 1330.42 511.256 1329.36 511.256C1328.57 511.256 1327.92 511.122 1327.41 510.855C1326.91 510.588 1326.52 510.276 1326.24 509.918C1325.95 509.56 1325.73 509.241 1325.58 508.963H1325.43V515.909H1322.88ZM1325.38 504.455C1325.38 505.375 1325.51 506.182 1325.78 506.875C1326.04 507.568 1326.43 508.111 1326.94 508.503C1327.44 508.889 1328.06 509.082 1328.79 509.082C1329.55 509.082 1330.19 508.881 1330.7 508.477C1331.21 508.068 1331.6 507.514 1331.86 506.815C1332.13 506.116 1332.26 505.33 1332.26 504.455C1332.26 503.591 1332.13 502.815 1331.87 502.128C1331.61 501.44 1331.23 500.898 1330.71 500.5C1330.2 500.102 1329.56 499.903 1328.79 499.903C1328.05 499.903 1327.43 500.094 1326.92 500.474C1326.41 500.855 1326.03 501.386 1325.77 502.068C1325.51 502.75 1325.38 503.545 1325.38 504.455ZM1337.24 515.909V497.909H1339.72V500.031H1339.94C1340.08 499.759 1340.3 499.443 1340.58 499.085C1340.85 498.727 1341.24 498.415 1341.74 498.148C1342.23 497.875 1342.88 497.739 1343.7 497.739C1344.75 497.739 1345.7 498.006 1346.53 498.54C1347.35 499.074 1348.01 499.844 1348.48 500.849C1348.95 501.855 1349.19 503.065 1349.19 504.48C1349.19 505.895 1348.96 507.108 1348.49 508.119C1348.01 509.125 1347.37 509.901 1346.54 510.446C1345.72 510.986 1344.78 511.256 1343.72 511.256C1342.93 511.256 1342.28 511.122 1341.77 510.855C1341.27 510.588 1340.88 510.276 1340.59 509.918C1340.31 509.56 1340.09 509.241 1339.94 508.963H1339.78V515.909H1337.24ZM1339.73 504.455C1339.73 505.375 1339.87 506.182 1340.13 506.875C1340.4 507.568 1340.79 508.111 1341.29 508.503C1341.8 508.889 1342.42 509.082 1343.15 509.082C1343.91 509.082 1344.55 508.881 1345.06 508.477C1345.57 508.068 1345.96 507.514 1346.22 506.815C1346.49 506.116 1346.62 505.33 1346.62 504.455C1346.62 503.591 1346.49 502.815 1346.23 502.128C1345.97 501.44 1345.58 500.898 1345.07 500.5C1344.56 500.102 1343.92 499.903 1343.15 499.903C1342.41 499.903 1341.79 500.094 1341.28 500.474C1340.77 500.855 1340.39 501.386 1340.12 502.068C1339.86 502.75 1339.73 503.545 1339.73 504.455ZM1351.59 511V497.909H1354.05V499.989H1354.19C1354.43 499.284 1354.85 498.73 1355.45 498.327C1356.06 497.918 1356.75 497.713 1357.52 497.713C1357.67 497.713 1357.86 497.719 1358.08 497.73C1358.3 497.741 1358.47 497.756 1358.6 497.773V500.21C1358.5 500.182 1358.31 500.151 1358.05 500.116C1357.79 500.077 1357.53 500.057 1357.27 500.057C1356.67 500.057 1356.13 500.185 1355.66 500.44C1355.19 500.69 1354.82 501.04 1354.55 501.489C1354.28 501.932 1354.14 502.437 1354.14 503.006V511H1351.59ZM1365.39 511.264C1364.16 511.264 1363.09 510.983 1362.18 510.42C1361.26 509.858 1360.55 509.071 1360.05 508.06C1359.54 507.048 1359.29 505.866 1359.29 504.514C1359.29 503.156 1359.54 501.969 1360.05 500.952C1360.55 499.935 1361.26 499.145 1362.18 498.582C1363.09 498.02 1364.16 497.739 1365.39 497.739C1366.62 497.739 1367.69 498.02 1368.61 498.582C1369.52 499.145 1370.23 499.935 1370.74 500.952C1371.24 501.969 1371.49 503.156 1371.49 504.514C1371.49 505.866 1371.24 507.048 1370.74 508.06C1370.23 509.071 1369.52 509.858 1368.61 510.42C1367.69 510.983 1366.62 511.264 1365.39 511.264ZM1365.4 509.125C1366.2 509.125 1366.86 508.915 1367.38 508.494C1367.9 508.074 1368.29 507.514 1368.54 506.815C1368.79 506.116 1368.92 505.347 1368.92 504.506C1368.92 503.67 1368.79 502.903 1368.54 502.205C1368.29 501.5 1367.9 500.935 1367.38 500.509C1366.86 500.082 1366.2 499.869 1365.4 499.869C1364.6 499.869 1363.93 500.082 1363.41 500.509C1362.88 500.935 1362.49 501.5 1362.24 502.205C1361.99 502.903 1361.86 503.67 1361.86 504.506C1361.86 505.347 1361.99 506.116 1362.24 506.815C1362.49 507.514 1362.88 508.074 1363.41 508.494C1363.93 508.915 1364.6 509.125 1365.4 509.125ZM1384.64 497.909L1379.89 511H1377.16L1372.41 497.909H1375.14L1378.46 507.983H1378.59L1381.9 497.909H1384.64ZM1391.77 511.264C1390.48 511.264 1389.37 510.989 1388.44 510.438C1387.51 509.881 1386.8 509.099 1386.29 508.094C1385.79 507.082 1385.54 505.898 1385.54 504.54C1385.54 503.199 1385.79 502.017 1386.29 500.994C1386.8 499.972 1387.5 499.173 1388.41 498.599C1389.31 498.026 1390.38 497.739 1391.59 497.739C1392.33 497.739 1393.05 497.861 1393.74 498.105C1394.43 498.349 1395.06 498.733 1395.61 499.256C1396.16 499.778 1396.59 500.457 1396.91 501.293C1397.23 502.122 1397.39 503.131 1397.39 504.318V505.222H1386.98V503.312H1394.89C1394.89 502.642 1394.75 502.048 1394.48 501.531C1394.21 501.009 1393.83 500.597 1393.33 500.295C1392.84 499.994 1392.27 499.844 1391.61 499.844C1390.89 499.844 1390.27 500.02 1389.74 500.372C1389.21 500.719 1388.8 501.173 1388.51 501.736C1388.22 502.293 1388.08 502.898 1388.08 503.551V505.043C1388.08 505.918 1388.24 506.662 1388.54 507.276C1388.85 507.889 1389.29 508.358 1389.85 508.682C1390.4 509 1391.05 509.159 1391.8 509.159C1392.28 509.159 1392.72 509.091 1393.12 508.955C1393.52 508.812 1393.86 508.602 1394.15 508.324C1394.44 508.045 1394.66 507.702 1394.81 507.293L1397.23 507.727C1397.03 508.437 1396.69 509.06 1396.19 509.594C1395.69 510.122 1395.07 510.534 1394.32 510.83C1393.58 511.119 1392.73 511.264 1391.77 511.264ZM1410.56 511.256C1409.5 511.256 1408.56 510.986 1407.73 510.446C1406.9 509.901 1406.25 509.125 1405.78 508.119C1405.32 507.108 1405.08 505.895 1405.08 504.48C1405.08 503.065 1405.32 501.855 1405.79 500.849C1406.27 499.844 1406.92 499.074 1407.75 498.54C1408.58 498.006 1409.52 497.739 1410.57 497.739C1411.39 497.739 1412.04 497.875 1412.53 498.148C1413.03 498.415 1413.42 498.727 1413.69 499.085C1413.97 499.443 1414.19 499.759 1414.34 500.031H1414.49V493.545H1417.04V511H1414.55V508.963H1414.34C1414.19 509.241 1413.97 509.56 1413.68 509.918C1413.39 510.276 1413 510.588 1412.5 510.855C1412 511.122 1411.35 511.256 1410.56 511.256ZM1411.12 509.082C1411.85 509.082 1412.47 508.889 1412.98 508.503C1413.49 508.111 1413.87 507.568 1414.14 506.875C1414.4 506.182 1414.54 505.375 1414.54 504.455C1414.54 503.545 1414.41 502.75 1414.14 502.068C1413.88 501.386 1413.5 500.855 1412.99 500.474C1412.49 500.094 1411.86 499.903 1411.12 499.903C1410.35 499.903 1409.71 500.102 1409.2 500.5C1408.69 500.898 1408.3 501.44 1408.04 502.128C1407.79 502.815 1407.66 503.591 1407.66 504.455C1407.66 505.33 1407.79 506.116 1408.05 506.815C1408.31 507.514 1408.7 508.068 1409.21 508.477C1409.73 508.881 1410.36 509.082 1411.12 509.082ZM1425.87 511.264C1424.58 511.264 1423.46 510.989 1422.53 510.438C1421.61 509.881 1420.89 509.099 1420.38 508.094C1419.88 507.082 1419.63 505.898 1419.63 504.54C1419.63 503.199 1419.88 502.017 1420.38 500.994C1420.89 499.972 1421.6 499.173 1422.5 498.599C1423.41 498.026 1424.47 497.739 1425.69 497.739C1426.42 497.739 1427.14 497.861 1427.83 498.105C1428.53 498.349 1429.15 498.733 1429.7 499.256C1430.25 499.778 1430.69 500.457 1431 501.293C1431.32 502.122 1431.48 503.131 1431.48 504.318V505.222H1421.08V503.312H1428.98C1428.98 502.642 1428.85 502.048 1428.58 501.531C1428.3 501.009 1427.92 500.597 1427.42 500.295C1426.94 499.994 1426.36 499.844 1425.7 499.844C1424.99 499.844 1424.36 500.02 1423.83 500.372C1423.3 500.719 1422.89 501.173 1422.6 501.736C1422.32 502.293 1422.17 502.898 1422.17 503.551V505.043C1422.17 505.918 1422.33 506.662 1422.63 507.276C1422.95 507.889 1423.38 508.358 1423.94 508.682C1424.5 509 1425.15 509.159 1425.89 509.159C1426.37 509.159 1426.81 509.091 1427.21 508.955C1427.61 508.812 1427.95 508.602 1428.24 508.324C1428.53 508.045 1428.75 507.702 1428.91 507.293L1431.32 507.727C1431.13 508.437 1430.78 509.06 1430.28 509.594C1429.79 510.122 1429.16 510.534 1428.41 510.83C1427.67 511.119 1426.82 511.264 1425.87 511.264ZM1443.66 501.105L1441.35 501.514C1441.26 501.219 1441.1 500.937 1440.89 500.67C1440.69 500.403 1440.41 500.185 1440.06 500.014C1439.71 499.844 1439.26 499.759 1438.74 499.759C1438.01 499.759 1437.41 499.92 1436.93 500.244C1436.45 500.562 1436.21 500.974 1436.21 501.48C1436.21 501.918 1436.37 502.27 1436.69 502.537C1437.01 502.804 1437.54 503.023 1438.26 503.193L1440.34 503.67C1441.54 503.949 1442.44 504.378 1443.03 504.957C1443.62 505.537 1443.92 506.29 1443.92 507.216C1443.92 508 1443.69 508.699 1443.24 509.312C1442.79 509.92 1442.16 510.398 1441.35 510.744C1440.55 511.091 1439.62 511.264 1438.57 511.264C1437.1 511.264 1435.9 510.952 1434.98 510.327C1434.05 509.696 1433.48 508.801 1433.27 507.642L1435.74 507.267C1435.89 507.909 1436.21 508.395 1436.68 508.724C1437.16 509.048 1437.78 509.21 1438.55 509.21C1439.38 509.21 1440.05 509.037 1440.55 508.69C1441.05 508.338 1441.3 507.909 1441.3 507.403C1441.3 506.994 1441.15 506.651 1440.84 506.372C1440.54 506.094 1440.08 505.884 1439.45 505.741L1437.24 505.256C1436.01 504.977 1435.11 504.534 1434.53 503.926C1433.95 503.318 1433.66 502.548 1433.66 501.616C1433.66 500.844 1433.87 500.168 1434.3 499.588C1434.74 499.009 1435.33 498.557 1436.09 498.233C1436.86 497.903 1437.73 497.739 1438.71 497.739C1440.13 497.739 1441.24 498.045 1442.05 498.659C1442.86 499.267 1443.4 500.082 1443.66 501.105ZM1446.26 511V497.909H1448.81V511H1446.26ZM1447.55 495.889C1447.11 495.889 1446.73 495.741 1446.41 495.446C1446.1 495.145 1445.94 494.787 1445.94 494.372C1445.94 493.952 1446.1 493.594 1446.41 493.298C1446.73 492.997 1447.11 492.847 1447.55 492.847C1447.99 492.847 1448.37 492.997 1448.68 493.298C1449 493.594 1449.16 493.952 1449.16 494.372C1449.16 494.787 1449 495.145 1448.68 495.446C1448.37 495.741 1447.99 495.889 1447.55 495.889ZM1457.27 516.182C1456.23 516.182 1455.34 516.045 1454.59 515.773C1453.84 515.5 1453.24 515.139 1452.76 514.69C1452.29 514.241 1451.94 513.75 1451.71 513.216L1453.9 512.312C1454.05 512.562 1454.26 512.827 1454.51 513.105C1454.77 513.389 1455.13 513.631 1455.57 513.83C1456.02 514.028 1456.59 514.128 1457.3 514.128C1458.26 514.128 1459.06 513.892 1459.69 513.42C1460.32 512.955 1460.64 512.21 1460.64 511.188V508.614H1460.48C1460.32 508.892 1460.1 509.202 1459.81 509.543C1459.53 509.884 1459.14 510.179 1458.64 510.429C1458.14 510.679 1457.49 510.804 1456.69 510.804C1455.65 510.804 1454.72 510.562 1453.89 510.08C1453.07 509.591 1452.41 508.872 1451.93 507.923C1451.45 506.969 1451.21 505.795 1451.21 504.403C1451.21 503.011 1451.45 501.818 1451.92 500.824C1452.4 499.83 1453.05 499.068 1453.88 498.54C1454.71 498.006 1455.65 497.739 1456.7 497.739C1457.51 497.739 1458.17 497.875 1458.67 498.148C1459.17 498.415 1459.56 498.727 1459.84 499.085C1460.12 499.443 1460.34 499.759 1460.49 500.031H1460.68V497.909H1463.18V511.29C1463.18 512.415 1462.92 513.338 1462.4 514.06C1461.87 514.781 1461.17 515.315 1460.27 515.662C1459.39 516.009 1458.39 516.182 1457.27 516.182ZM1457.25 508.69C1457.98 508.69 1458.6 508.52 1459.11 508.179C1459.62 507.832 1460 507.338 1460.26 506.696C1460.53 506.048 1460.67 505.273 1460.67 504.369C1460.67 503.489 1460.53 502.713 1460.27 502.043C1460.01 501.372 1459.63 500.849 1459.12 500.474C1458.62 500.094 1457.99 499.903 1457.25 499.903C1456.48 499.903 1455.84 500.102 1455.33 500.5C1454.82 500.892 1454.43 501.426 1454.17 502.102C1453.92 502.778 1453.79 503.534 1453.79 504.369C1453.79 505.227 1453.92 505.98 1454.18 506.628C1454.44 507.276 1454.83 507.781 1455.34 508.145C1455.86 508.509 1456.49 508.69 1457.25 508.69ZM1468.69 503.227V511H1466.14V497.909H1468.59V500.04H1468.75C1469.05 499.347 1469.52 498.79 1470.16 498.369C1470.81 497.949 1471.63 497.739 1472.61 497.739C1473.5 497.739 1474.28 497.926 1474.95 498.301C1475.62 498.67 1476.14 499.222 1476.51 499.955C1476.88 500.687 1477.07 501.594 1477.07 502.673V511H1474.52V502.98C1474.52 502.031 1474.27 501.29 1473.78 500.756C1473.28 500.216 1472.6 499.946 1471.74 499.946C1471.15 499.946 1470.62 500.074 1470.16 500.33C1469.71 500.585 1469.35 500.96 1469.08 501.455C1468.82 501.943 1468.69 502.534 1468.69 503.227ZM1489.84 501.105L1487.53 501.514C1487.43 501.219 1487.28 500.937 1487.07 500.67C1486.86 500.403 1486.59 500.185 1486.23 500.014C1485.88 499.844 1485.44 499.759 1484.91 499.759C1484.19 499.759 1483.59 499.92 1483.11 500.244C1482.62 500.562 1482.38 500.974 1482.38 501.48C1482.38 501.918 1482.54 502.27 1482.87 502.537C1483.19 502.804 1483.71 503.023 1484.44 503.193L1486.51 503.67C1487.72 503.949 1488.62 504.378 1489.21 504.957C1489.8 505.537 1490.09 506.29 1490.09 507.216C1490.09 508 1489.87 508.699 1489.41 509.312C1488.96 509.92 1488.34 510.398 1487.53 510.744C1486.73 511.091 1485.8 511.264 1484.74 511.264C1483.28 511.264 1482.08 510.952 1481.15 510.327C1480.23 509.696 1479.66 508.801 1479.45 507.642L1481.91 507.267C1482.07 507.909 1482.38 508.395 1482.86 508.724C1483.34 509.048 1483.96 509.21 1484.72 509.21C1485.56 509.21 1486.23 509.037 1486.73 508.69C1487.23 508.338 1487.48 507.909 1487.48 507.403C1487.48 506.994 1487.32 506.651 1487.02 506.372C1486.72 506.094 1486.25 505.884 1485.63 505.741L1483.41 505.256C1482.19 504.977 1481.29 504.534 1480.7 503.926C1480.12 503.318 1479.83 502.548 1479.83 501.616C1479.83 500.844 1480.05 500.168 1480.48 499.588C1480.91 499.009 1481.51 498.557 1482.27 498.233C1483.03 497.903 1483.9 497.739 1484.89 497.739C1486.3 497.739 1487.42 498.045 1488.23 498.659C1489.04 499.267 1489.58 500.082 1489.84 501.105Z" fill="#333333"/>
<path d="M1538 116.5C1537.17 116.5 1536.5 117.172 1536.5 118C1536.5 118.828 1537.17 119.5 1538 119.5V116.5ZM1576.94 500.939C1576.35 501.525 1576.35 502.475 1576.94 503.061L1586.49 512.607C1587.07 513.192 1588.02 513.192 1588.61 512.607C1589.19 512.021 1589.19 511.071 1588.61 510.485L1580.12 502L1588.61 493.515C1589.19 492.929 1589.19 491.979 1588.61 491.393C1588.02 490.808 1587.07 490.808 1586.49 491.393L1576.94 500.939ZM1538 119.5H1650V116.5H1538V119.5ZM1672.5 142V288H1675.5V142H1672.5ZM1672.5 332V478H1675.5V332H1672.5ZM1650 500.5H1578V503.5H1650V500.5ZM1672.5 478C1672.5 490.426 1662.43 500.5 1650 500.5V503.5C1664.08 503.5 1675.5 492.083 1675.5 478H1672.5ZM1650 119.5C1662.43 119.5 1672.5 129.574 1672.5 142H1675.5C1675.5 127.917 1664.08 116.5 1650 116.5V119.5Z" fill="#B3B3B3"/>
<path d="M1660.81 304.364H1662.81L1665.85 309.653H1665.97L1669.01 304.364H1671.01L1666.79 311.432V316H1665.04V311.432L1660.81 304.364ZM1674.68 316.176C1673.82 316.176 1673.08 315.992 1672.46 315.625C1671.84 315.254 1671.36 314.733 1671.02 314.062C1670.69 313.388 1670.52 312.598 1670.52 311.693C1670.52 310.799 1670.69 310.011 1671.02 309.33C1671.36 308.648 1671.83 308.116 1672.43 307.733C1673.04 307.35 1673.75 307.159 1674.56 307.159C1675.05 307.159 1675.53 307.241 1675.99 307.403C1676.45 307.566 1676.87 307.822 1677.23 308.17C1677.6 308.519 1677.89 308.972 1678.1 309.528C1678.32 310.081 1678.42 310.754 1678.42 311.545V312.148H1671.48V310.875H1676.76C1676.76 310.428 1676.67 310.032 1676.48 309.688C1676.3 309.339 1676.05 309.064 1675.72 308.864C1675.39 308.663 1675.01 308.562 1674.57 308.562C1674.09 308.562 1673.67 308.68 1673.32 308.915C1672.97 309.146 1672.69 309.449 1672.5 309.824C1672.31 310.195 1672.22 310.598 1672.22 311.034V312.028C1672.22 312.612 1672.32 313.108 1672.52 313.517C1672.73 313.926 1673.02 314.239 1673.39 314.455C1673.76 314.667 1674.2 314.773 1674.69 314.773C1675.02 314.773 1675.31 314.727 1675.57 314.636C1675.84 314.542 1676.07 314.402 1676.26 314.216C1676.46 314.03 1676.6 313.801 1676.71 313.528L1678.31 313.818C1678.18 314.292 1677.95 314.706 1677.62 315.062C1677.29 315.415 1676.88 315.689 1676.38 315.886C1675.88 316.08 1675.31 316.176 1674.68 316.176ZM1686.67 309.403L1685.13 309.676C1685.07 309.479 1684.96 309.292 1684.82 309.114C1684.69 308.936 1684.5 308.79 1684.27 308.676C1684.03 308.562 1683.74 308.506 1683.39 308.506C1682.9 308.506 1682.5 308.614 1682.18 308.83C1681.86 309.042 1681.7 309.316 1681.7 309.653C1681.7 309.945 1681.81 310.18 1682.02 310.358C1682.24 310.536 1682.59 310.682 1683.07 310.795L1684.45 311.114C1685.26 311.299 1685.86 311.585 1686.25 311.972C1686.64 312.358 1686.84 312.86 1686.84 313.477C1686.84 314 1686.69 314.466 1686.39 314.875C1686.09 315.28 1685.67 315.598 1685.13 315.83C1684.6 316.061 1683.98 316.176 1683.27 316.176C1682.29 316.176 1681.5 315.968 1680.88 315.551C1680.26 315.131 1679.88 314.534 1679.74 313.761L1681.39 313.511C1681.49 313.939 1681.7 314.263 1682.02 314.483C1682.33 314.699 1682.75 314.807 1683.26 314.807C1683.82 314.807 1684.26 314.691 1684.6 314.46C1684.93 314.225 1685.1 313.939 1685.1 313.602C1685.1 313.33 1684.99 313.1 1684.79 312.915C1684.59 312.729 1684.28 312.589 1683.86 312.494L1682.39 312.17C1681.57 311.985 1680.97 311.689 1680.58 311.284C1680.19 310.879 1680 310.366 1680 309.744C1680 309.229 1680.14 308.778 1680.43 308.392C1680.72 308.006 1681.12 307.705 1681.62 307.489C1682.13 307.269 1682.71 307.159 1683.37 307.159C1684.31 307.159 1685.05 307.364 1685.6 307.773C1686.14 308.178 1686.5 308.722 1686.67 309.403Z" fill="black" fill-opacity="0.8"/>
<path d="M1399.5 226C1399.5 225.172 1398.83 224.5 1398 224.5C1397.17 224.5 1396.5 225.172 1396.5 226H1399.5ZM961.061 160.939C960.475 160.354 959.525 160.354 958.939 160.939L949.393 170.485C948.808 171.071 948.808 172.021 949.393 172.607C949.979 173.192 950.929 173.192 951.515 172.607L960 164.121L968.485 172.607C969.071 173.192 970.021 173.192 970.607 172.607C971.192 172.021 971.192 171.071 970.607 170.485L961.061 160.939ZM1396.5 226V294H1399.5V226H1396.5ZM1374 316.5H1200V319.5H1374V316.5ZM1158 316.5H984V319.5H1158V316.5ZM961.5 294V162H958.5V294H961.5ZM984 316.5C971.574 316.5 961.5 306.426 961.5 294H958.5C958.5 308.083 969.917 319.5 984 319.5V316.5ZM1396.5 294C1396.5 306.426 1386.43 316.5 1374 316.5V319.5C1388.08 319.5 1399.5 308.083 1399.5 294H1396.5Z" fill="#B3B3B3"/>
<path d="M1178.96 312.364V324H1177.35L1171.43 315.466H1171.33V324H1169.57V312.364H1171.19L1177.11 320.909H1177.22V312.364H1178.96ZM1184.89 324.176C1184.07 324.176 1183.35 323.989 1182.74 323.614C1182.13 323.239 1181.66 322.714 1181.32 322.04C1180.99 321.366 1180.82 320.578 1180.82 319.676C1180.82 318.771 1180.99 317.979 1181.32 317.301C1181.66 316.623 1182.13 316.097 1182.74 315.722C1183.35 315.347 1184.07 315.159 1184.89 315.159C1185.7 315.159 1186.42 315.347 1187.03 315.722C1187.64 316.097 1188.11 316.623 1188.45 317.301C1188.79 317.979 1188.95 318.771 1188.95 319.676C1188.95 320.578 1188.79 321.366 1188.45 322.04C1188.11 322.714 1187.64 323.239 1187.03 323.614C1186.42 323.989 1185.7 324.176 1184.89 324.176ZM1184.89 322.75C1185.42 322.75 1185.86 322.61 1186.21 322.33C1186.56 322.049 1186.82 321.676 1186.98 321.21C1187.15 320.744 1187.24 320.231 1187.24 319.67C1187.24 319.114 1187.15 318.602 1186.98 318.136C1186.82 317.667 1186.56 317.29 1186.21 317.006C1185.86 316.722 1185.42 316.58 1184.89 316.58C1184.36 316.58 1183.91 316.722 1183.56 317.006C1183.21 317.29 1182.95 317.667 1182.78 318.136C1182.62 318.602 1182.53 319.114 1182.53 319.67C1182.53 320.231 1182.62 320.744 1182.78 321.21C1182.95 321.676 1183.21 322.049 1183.56 322.33C1183.91 322.61 1184.36 322.75 1184.89 322.75Z" fill="black" fill-opacity="0.8"/>
<rect x="346" y="446" width="351.809" height="112" rx="44.8" fill="#FF9790"/>
<rect x="348" y="448" width="347.809" height="108" rx="42.8" stroke="black" stroke-opacity="0.2" stroke-width="4"/>
<path d="M502.364 511V493.545H513.307V495.812H504.998V501.131H512.736V503.389H504.998V508.733H513.409V511H502.364ZM518.713 503.227V511H516.164V497.909H518.61V500.04H518.772C519.073 499.347 519.545 498.79 520.187 498.369C520.835 497.949 521.65 497.739 522.633 497.739C523.525 497.739 524.306 497.926 524.977 498.301C525.647 498.67 526.167 499.222 526.537 499.955C526.906 500.687 527.091 501.594 527.091 502.673V511H524.542V502.98C524.542 502.031 524.295 501.29 523.801 500.756C523.306 500.216 522.627 499.946 521.764 499.946C521.173 499.946 520.647 500.074 520.187 500.33C519.733 500.585 519.372 500.96 519.105 501.455C518.843 501.943 518.713 502.534 518.713 503.227ZM534.953 511.256C533.896 511.256 532.953 510.986 532.123 510.446C531.299 509.901 530.652 509.125 530.18 508.119C529.714 507.108 529.481 505.895 529.481 504.48C529.481 503.065 529.717 501.855 530.189 500.849C530.666 499.844 531.319 499.074 532.149 498.54C532.978 498.006 533.919 497.739 534.97 497.739C535.782 497.739 536.436 497.875 536.93 498.148C537.43 498.415 537.816 498.727 538.089 499.085C538.368 499.443 538.583 499.759 538.737 500.031H538.89V493.545H541.439V511H538.95V508.963H538.737C538.583 509.241 538.362 509.56 538.072 509.918C537.788 510.276 537.396 510.588 536.896 510.855C536.396 511.122 535.748 511.256 534.953 511.256ZM535.515 509.082C536.248 509.082 536.868 508.889 537.373 508.503C537.885 508.111 538.271 507.568 538.532 506.875C538.799 506.182 538.933 505.375 538.933 504.455C538.933 503.545 538.802 502.75 538.541 502.068C538.279 501.386 537.896 500.855 537.39 500.474C536.885 500.094 536.26 499.903 535.515 499.903C534.748 499.903 534.109 500.102 533.598 500.5C533.086 500.898 532.7 501.44 532.439 502.128C532.183 502.815 532.055 503.591 532.055 504.455C532.055 505.33 532.186 506.116 532.447 506.815C532.708 507.514 533.095 508.068 533.606 508.477C534.123 508.881 534.76 509.082 535.515 509.082Z" fill="#333333"/>
<rect x="784" y="462" width="352" height="80" rx="6" fill="#D99BFF"/>
<rect x="786" y="464" width="348" height="76" rx="4" stroke="black" stroke-opacity="0.2" stroke-width="4"/>
<path d="M821.26 493.545V511H818.626V493.545H821.26ZM824.435 511V497.909H826.881V500.04H827.043C827.315 499.318 827.761 498.756 828.381 498.352C829 497.943 829.741 497.739 830.605 497.739C831.48 497.739 832.213 497.943 832.804 498.352C833.401 498.761 833.841 499.324 834.125 500.04H834.261C834.574 499.341 835.071 498.784 835.753 498.369C836.435 497.949 837.247 497.739 838.19 497.739C839.378 497.739 840.347 498.111 841.097 498.855C841.852 499.599 842.23 500.722 842.23 502.222V511H839.682V502.46C839.682 501.574 839.44 500.932 838.957 500.534C838.474 500.136 837.898 499.938 837.227 499.938C836.398 499.938 835.753 500.193 835.293 500.705C834.832 501.21 834.602 501.861 834.602 502.656V511H832.063V502.298C832.063 501.588 831.841 501.017 831.398 500.585C830.955 500.153 830.378 499.938 829.668 499.938C829.185 499.938 828.739 500.065 828.33 500.321C827.926 500.571 827.599 500.92 827.349 501.369C827.105 501.818 826.983 502.338 826.983 502.929V511H824.435ZM845.19 515.909V497.909H847.678V500.031H847.891C848.039 499.759 848.252 499.443 848.531 499.085C848.809 498.727 849.195 498.415 849.69 498.148C850.184 497.875 850.837 497.739 851.65 497.739C852.707 497.739 853.65 498.006 854.479 498.54C855.309 499.074 855.959 499.844 856.431 500.849C856.908 501.855 857.147 503.065 857.147 504.48C857.147 505.895 856.911 507.108 856.44 508.119C855.968 509.125 855.32 509.901 854.496 510.446C853.673 510.986 852.732 511.256 851.675 511.256C850.88 511.256 850.229 511.122 849.724 510.855C849.224 510.588 848.832 510.276 848.548 509.918C848.263 509.56 848.045 509.241 847.891 508.963H847.738V515.909H845.19ZM847.687 504.455C847.687 505.375 847.82 506.182 848.087 506.875C848.354 507.568 848.741 508.111 849.246 508.503C849.752 508.889 850.371 509.082 851.104 509.082C851.866 509.082 852.502 508.881 853.013 508.477C853.525 508.068 853.911 507.514 854.173 506.815C854.44 506.116 854.573 505.33 854.573 504.455C854.573 503.591 854.442 502.815 854.181 502.128C853.925 501.44 853.539 500.898 853.022 500.5C852.511 500.102 851.871 499.903 851.104 499.903C850.366 499.903 849.741 500.094 849.229 500.474C848.724 500.855 848.34 501.386 848.079 502.068C847.817 502.75 847.687 503.545 847.687 504.455ZM862.094 493.545V511H859.546V493.545H862.094ZM870.709 511.264C869.419 511.264 868.308 510.989 867.376 510.438C866.45 509.881 865.734 509.099 865.229 508.094C864.729 507.082 864.479 505.898 864.479 504.54C864.479 503.199 864.729 502.017 865.229 500.994C865.734 499.972 866.439 499.173 867.342 498.599C868.251 498.026 869.314 497.739 870.53 497.739C871.268 497.739 871.984 497.861 872.677 498.105C873.371 498.349 873.993 498.733 874.544 499.256C875.095 499.778 875.53 500.457 875.848 501.293C876.166 502.122 876.325 503.131 876.325 504.318V505.222H865.919V503.312H873.828C873.828 502.642 873.692 502.048 873.419 501.531C873.146 501.009 872.763 500.597 872.268 500.295C871.78 499.994 871.206 499.844 870.547 499.844C869.831 499.844 869.206 500.02 868.672 500.372C868.143 500.719 867.734 501.173 867.445 501.736C867.16 502.293 867.018 502.898 867.018 503.551V505.043C867.018 505.918 867.172 506.662 867.479 507.276C867.791 507.889 868.226 508.358 868.783 508.682C869.339 509 869.99 509.159 870.734 509.159C871.217 509.159 871.658 509.091 872.055 508.955C872.453 508.812 872.797 508.602 873.087 508.324C873.376 508.045 873.598 507.702 873.751 507.293L876.163 507.727C875.97 508.437 875.623 509.06 875.123 509.594C874.629 510.122 874.007 510.534 873.257 510.83C872.513 511.119 871.663 511.264 870.709 511.264ZM878.697 511V497.909H881.143V500.04H881.305C881.577 499.318 882.023 498.756 882.643 498.352C883.262 497.943 884.003 497.739 884.867 497.739C885.742 497.739 886.475 497.943 887.066 498.352C887.663 498.761 888.103 499.324 888.387 500.04H888.523C888.836 499.341 889.333 498.784 890.015 498.369C890.697 497.949 891.509 497.739 892.452 497.739C893.64 497.739 894.609 498.111 895.359 498.855C896.114 499.599 896.492 500.722 896.492 502.222V511H893.944V502.46C893.944 501.574 893.702 500.932 893.219 500.534C892.736 500.136 892.16 499.938 891.489 499.938C890.66 499.938 890.015 500.193 889.555 500.705C889.094 501.21 888.864 501.861 888.864 502.656V511H886.324V502.298C886.324 501.588 886.103 501.017 885.66 500.585C885.216 500.153 884.64 499.938 883.93 499.938C883.447 499.938 883.001 500.065 882.591 500.321C882.188 500.571 881.861 500.92 881.611 501.369C881.367 501.818 881.245 502.338 881.245 502.929V511H878.697ZM905.094 511.264C903.804 511.264 902.693 510.989 901.761 510.438C900.835 509.881 900.119 509.099 899.613 508.094C899.113 507.082 898.863 505.898 898.863 504.54C898.863 503.199 899.113 502.017 899.613 500.994C900.119 499.972 900.824 499.173 901.727 498.599C902.636 498.026 903.699 497.739 904.915 497.739C905.653 497.739 906.369 497.861 907.062 498.105C907.756 498.349 908.378 498.733 908.929 499.256C909.48 499.778 909.915 500.457 910.233 501.293C910.551 502.122 910.71 503.131 910.71 504.318V505.222H900.304V503.312H908.213C908.213 502.642 908.077 502.048 907.804 501.531C907.531 501.009 907.148 500.597 906.653 500.295C906.165 499.994 905.591 499.844 904.932 499.844C904.216 499.844 903.591 500.02 903.057 500.372C902.528 500.719 902.119 501.173 901.829 501.736C901.545 502.293 901.403 502.898 901.403 503.551V505.043C901.403 505.918 901.557 506.662 901.863 507.276C902.176 507.889 902.611 508.358 903.167 508.682C903.724 509 904.375 509.159 905.119 509.159C905.602 509.159 906.042 509.091 906.44 508.955C906.838 508.812 907.182 508.602 907.471 508.324C907.761 508.045 907.983 507.702 908.136 507.293L910.548 507.727C910.355 508.437 910.008 509.06 909.508 509.594C909.014 510.122 908.392 510.534 907.642 510.83C906.898 511.119 906.048 511.264 905.094 511.264ZM915.63 503.227V511H913.081V497.909H915.527V500.04H915.689C915.991 499.347 916.462 498.79 917.104 498.369C917.752 497.949 918.567 497.739 919.55 497.739C920.442 497.739 921.224 497.926 921.894 498.301C922.564 498.67 923.084 499.222 923.454 499.955C923.823 500.687 924.008 501.594 924.008 502.673V511H921.459V502.98C921.459 502.031 921.212 501.29 920.718 500.756C920.224 500.216 919.545 499.946 918.681 499.946C918.09 499.946 917.564 500.074 917.104 500.33C916.65 500.585 916.289 500.96 916.022 501.455C915.76 501.943 915.63 502.534 915.63 503.227ZM933.08 497.909V499.955H925.929V497.909H933.08ZM927.847 494.773H930.395V507.156C930.395 507.651 930.469 508.023 930.617 508.273C930.765 508.517 930.955 508.685 931.188 508.776C931.427 508.861 931.685 508.903 931.964 508.903C932.168 508.903 932.347 508.889 932.5 508.861C932.654 508.832 932.773 508.81 932.858 508.793L933.319 510.898C933.171 510.955 932.961 511.011 932.688 511.068C932.415 511.131 932.074 511.165 931.665 511.17C930.995 511.182 930.37 511.062 929.79 510.812C929.211 510.562 928.742 510.176 928.384 509.653C928.026 509.131 927.847 508.474 927.847 507.685V494.773ZM944.177 511L940.324 497.909H942.958L945.523 507.523H945.651L948.225 497.909H950.858L953.415 507.48H953.543L956.091 497.909H958.725L954.881 511H952.282L949.623 501.548H949.427L946.767 511H944.177ZM960.687 511V497.909H963.235V511H960.687ZM961.974 495.889C961.531 495.889 961.15 495.741 960.832 495.446C960.52 495.145 960.363 494.787 960.363 494.372C960.363 493.952 960.52 493.594 960.832 493.298C961.15 492.997 961.531 492.847 961.974 492.847C962.417 492.847 962.795 492.997 963.108 493.298C963.426 493.594 963.585 493.952 963.585 494.372C963.585 494.787 963.426 495.145 963.108 495.446C962.795 495.741 962.417 495.889 961.974 495.889ZM972.319 497.909V499.955H965.168V497.909H972.319ZM967.086 494.773H969.634V507.156C969.634 507.651 969.708 508.023 969.855 508.273C970.003 508.517 970.194 508.685 970.426 508.776C970.665 508.861 970.924 508.903 971.202 508.903C971.407 508.903 971.586 508.889 971.739 508.861C971.892 508.832 972.012 508.81 972.097 508.793L972.557 510.898C972.409 510.955 972.199 511.011 971.926 511.068C971.654 511.131 971.313 511.165 970.904 511.17C970.233 511.182 969.608 511.062 969.029 510.812C968.449 510.562 967.98 510.176 967.623 509.653C967.265 509.131 967.086 508.474 967.086 507.685V494.773ZM977.511 503.227V511H974.963V493.545H977.477V500.04H977.639C977.946 499.335 978.414 498.776 979.045 498.361C979.676 497.946 980.5 497.739 981.517 497.739C982.414 497.739 983.198 497.923 983.869 498.293C984.545 498.662 985.068 499.213 985.437 499.946C985.812 500.673 986 501.582 986 502.673V511H983.451V502.98C983.451 502.02 983.204 501.276 982.71 500.747C982.216 500.213 981.528 499.946 980.647 499.946C980.045 499.946 979.505 500.074 979.028 500.33C978.556 500.585 978.184 500.96 977.912 501.455C977.644 501.943 977.511 502.534 977.511 503.227ZM1000.48 511.264C999.192 511.264 998.081 510.989 997.149 510.438C996.223 509.881 995.507 509.099 995.002 508.094C994.502 507.082 994.252 505.898 994.252 504.54C994.252 503.199 994.502 502.017 995.002 500.994C995.507 499.972 996.212 499.173 997.115 498.599C998.024 498.026 999.087 497.739 1000.3 497.739C1001.04 497.739 1001.76 497.861 1002.45 498.105C1003.14 498.349 1003.77 498.733 1004.32 499.256C1004.87 499.778 1005.3 500.457 1005.62 501.293C1005.94 502.122 1006.1 503.131 1006.1 504.318V505.222H995.692V503.312H1003.6C1003.6 502.642 1003.46 502.048 1003.19 501.531C1002.92 501.009 1002.54 500.597 1002.04 500.295C1001.55 499.994 1000.98 499.844 1000.32 499.844C999.604 499.844 998.979 500.02 998.445 500.372C997.916 500.719 997.507 501.173 997.218 501.736C996.933 502.293 996.791 502.898 996.791 503.551V505.043C996.791 505.918 996.945 506.662 997.252 507.276C997.564 507.889 997.999 508.358 998.556 508.682C999.112 509 999.763 509.159 1000.51 509.159C1000.99 509.159 1001.43 509.091 1001.83 508.955C1002.23 508.812 1002.57 508.602 1002.86 508.324C1003.15 508.045 1003.37 507.702 1003.52 507.293L1005.94 507.727C1005.74 508.437 1005.4 509.06 1004.9 509.594C1004.4 510.122 1003.78 510.534 1003.03 510.83C1002.29 511.119 1001.44 511.264 1000.48 511.264ZM1011.02 503.227V511H1008.47V497.909H1010.92V500.04H1011.08C1011.38 499.347 1011.85 498.79 1012.49 498.369C1013.14 497.949 1013.96 497.739 1014.94 497.739C1015.83 497.739 1016.61 497.926 1017.28 498.301C1017.95 498.67 1018.47 499.222 1018.84 499.955C1019.21 500.687 1019.4 501.594 1019.4 502.673V511H1016.85V502.98C1016.85 502.031 1016.6 501.29 1016.11 500.756C1015.61 500.216 1014.93 499.946 1014.07 499.946C1013.48 499.946 1012.95 500.074 1012.49 500.33C1012.04 500.585 1011.68 500.96 1011.41 501.455C1011.15 501.943 1011.02 502.534 1011.02 503.227ZM1027.85 516.182C1026.81 516.182 1025.91 516.045 1025.16 515.773C1024.42 515.5 1023.81 515.139 1023.34 514.69C1022.87 514.241 1022.51 513.75 1022.28 513.216L1024.47 512.312C1024.62 512.562 1024.83 512.827 1025.08 513.105C1025.35 513.389 1025.7 513.631 1026.14 513.83C1026.59 514.028 1027.17 514.128 1027.87 514.128C1028.84 514.128 1029.64 513.892 1030.27 513.42C1030.9 512.955 1031.21 512.21 1031.21 511.188V508.614H1031.05C1030.9 508.892 1030.68 509.202 1030.39 509.543C1030.1 509.884 1029.71 510.179 1029.21 510.429C1028.71 510.679 1028.06 510.804 1027.26 510.804C1026.22 510.804 1025.29 510.562 1024.46 510.08C1023.64 509.591 1022.99 508.872 1022.5 507.923C1022.03 506.969 1021.79 505.795 1021.79 504.403C1021.79 503.011 1022.02 501.818 1022.49 500.824C1022.97 499.83 1023.62 499.068 1024.45 498.54C1025.28 498.006 1026.22 497.739 1027.28 497.739C1028.09 497.739 1028.74 497.875 1029.24 498.148C1029.74 498.415 1030.13 498.727 1030.41 499.085C1030.7 499.443 1030.91 499.759 1031.07 500.031H1031.26V497.909H1033.75V511.29C1033.75 512.415 1033.49 513.338 1032.97 514.06C1032.45 514.781 1031.74 515.315 1030.85 515.662C1029.96 516.009 1028.96 516.182 1027.85 516.182ZM1027.82 508.69C1028.55 508.69 1029.17 508.52 1029.68 508.179C1030.19 507.832 1030.58 507.338 1030.84 506.696C1031.1 506.048 1031.24 505.273 1031.24 504.369C1031.24 503.489 1031.11 502.713 1030.85 502.043C1030.58 501.372 1030.2 500.849 1029.7 500.474C1029.19 500.094 1028.56 499.903 1027.82 499.903C1027.05 499.903 1026.41 500.102 1025.9 500.5C1025.39 500.892 1025.01 501.426 1024.74 502.102C1024.49 502.778 1024.36 503.534 1024.36 504.369C1024.36 505.227 1024.49 505.98 1024.75 506.628C1025.01 507.276 1025.4 507.781 1025.91 508.145C1026.43 508.509 1027.06 508.69 1027.82 508.69ZM1036.71 511V497.909H1039.26V511H1036.71ZM1038 495.889C1037.56 495.889 1037.18 495.741 1036.86 495.446C1036.55 495.145 1036.39 494.787 1036.39 494.372C1036.39 493.952 1036.55 493.594 1036.86 493.298C1037.18 492.997 1037.56 492.847 1038 492.847C1038.44 492.847 1038.82 492.997 1039.13 493.298C1039.45 493.594 1039.61 493.952 1039.61 494.372C1039.61 494.787 1039.45 495.145 1039.13 495.446C1038.82 495.741 1038.44 495.889 1038 495.889ZM1044.78 503.227V511H1042.23V497.909H1044.68V500.04H1044.84C1045.14 499.347 1045.62 498.79 1046.26 498.369C1046.9 497.949 1047.72 497.739 1048.7 497.739C1049.6 497.739 1050.38 497.926 1051.05 498.301C1051.72 498.67 1052.24 499.222 1052.61 499.955C1052.98 500.687 1053.16 501.594 1053.16 502.673V511H1050.61V502.98C1050.61 502.031 1050.37 501.29 1049.87 500.756C1049.38 500.216 1048.7 499.946 1047.83 499.946C1047.24 499.946 1046.72 500.074 1046.26 500.33C1045.8 500.585 1045.44 500.96 1045.17 501.455C1044.91 501.943 1044.78 502.534 1044.78 503.227ZM1061.76 511.264C1060.47 511.264 1059.36 510.989 1058.43 510.438C1057.51 509.881 1056.79 509.099 1056.28 508.094C1055.78 507.082 1055.53 505.898 1055.53 504.54C1055.53 503.199 1055.78 502.017 1056.28 500.994C1056.79 499.972 1057.49 499.173 1058.4 498.599C1059.31 498.026 1060.37 497.739 1061.59 497.739C1062.32 497.739 1063.04 497.861 1063.73 498.105C1064.43 498.349 1065.05 498.733 1065.6 499.256C1066.15 499.778 1066.59 500.457 1066.9 501.293C1067.22 502.122 1067.38 503.131 1067.38 504.318V505.222H1056.97V503.312H1064.88C1064.88 502.642 1064.75 502.048 1064.47 501.531C1064.2 501.009 1063.82 500.597 1063.32 500.295C1062.84 499.994 1062.26 499.844 1061.6 499.844C1060.89 499.844 1060.26 500.02 1059.73 500.372C1059.2 500.719 1058.79 501.173 1058.5 501.736C1058.22 502.293 1058.07 502.898 1058.07 503.551V505.043C1058.07 505.918 1058.23 506.662 1058.53 507.276C1058.85 507.889 1059.28 508.358 1059.84 508.682C1060.39 509 1061.05 509.159 1061.79 509.159C1062.27 509.159 1062.71 509.091 1063.11 508.955C1063.51 508.812 1063.85 508.602 1064.14 508.324C1064.43 508.045 1064.65 507.702 1064.81 507.293L1067.22 507.727C1067.03 508.437 1066.68 509.06 1066.18 509.594C1065.68 510.122 1065.06 510.534 1064.31 510.83C1063.57 511.119 1062.72 511.264 1061.76 511.264ZM1075.39 511.264C1074.1 511.264 1072.99 510.989 1072.06 510.438C1071.14 509.881 1070.42 509.099 1069.91 508.094C1069.41 507.082 1069.16 505.898 1069.16 504.54C1069.16 503.199 1069.41 502.017 1069.91 500.994C1070.42 499.972 1071.12 499.173 1072.03 498.599C1072.94 498.026 1074 497.739 1075.22 497.739C1075.95 497.739 1076.67 497.861 1077.36 498.105C1078.06 498.349 1078.68 498.733 1079.23 499.256C1079.78 499.778 1080.22 500.457 1080.53 501.293C1080.85 502.122 1081.01 503.131 1081.01 504.318V505.222H1070.6V503.312H1078.51C1078.51 502.642 1078.38 502.048 1078.1 501.531C1077.83 501.009 1077.45 500.597 1076.95 500.295C1076.47 499.994 1075.89 499.844 1075.23 499.844C1074.52 499.844 1073.89 500.02 1073.36 500.372C1072.83 500.719 1072.42 501.173 1072.13 501.736C1071.85 502.293 1071.7 502.898 1071.7 503.551V505.043C1071.7 505.918 1071.86 506.662 1072.16 507.276C1072.48 507.889 1072.91 508.358 1073.47 508.682C1074.02 509 1074.68 509.159 1075.42 509.159C1075.9 509.159 1076.34 509.091 1076.74 508.955C1077.14 508.812 1077.48 508.602 1077.77 508.324C1078.06 508.045 1078.28 507.702 1078.44 507.293L1080.85 507.727C1080.66 508.437 1080.31 509.06 1079.81 509.594C1079.31 510.122 1078.69 510.534 1077.94 510.83C1077.2 511.119 1076.35 511.264 1075.39 511.264ZM1083.38 511V497.909H1085.85V499.989H1085.98C1086.22 499.284 1086.64 498.73 1087.24 498.327C1087.85 497.918 1088.54 497.713 1089.31 497.713C1089.46 497.713 1089.65 497.719 1089.87 497.73C1090.09 497.741 1090.26 497.756 1090.39 497.773V500.21C1090.29 500.182 1090.1 500.151 1089.84 500.116C1089.58 500.077 1089.32 500.057 1089.06 500.057C1088.46 500.057 1087.92 500.185 1087.45 500.44C1086.98 500.69 1086.61 501.04 1086.34 501.489C1086.07 501.932 1085.93 502.437 1085.93 503.006V511H1083.38ZM1101.95 501.105L1099.64 501.514C1099.54 501.219 1099.39 500.937 1099.18 500.67C1098.97 500.403 1098.69 500.185 1098.34 500.014C1097.99 499.844 1097.55 499.759 1097.02 499.759C1096.3 499.759 1095.7 499.92 1095.21 500.244C1094.73 500.562 1094.49 500.974 1094.49 501.48C1094.49 501.918 1094.65 502.27 1094.98 502.537C1095.3 502.804 1095.82 503.023 1096.54 503.193L1098.62 503.67C1099.83 503.949 1100.73 504.378 1101.32 504.957C1101.91 505.537 1102.2 506.29 1102.2 507.216C1102.2 508 1101.98 508.699 1101.52 509.312C1101.07 509.92 1100.44 510.398 1099.64 510.744C1098.84 511.091 1097.91 511.264 1096.85 511.264C1095.38 511.264 1094.19 510.952 1093.26 510.327C1092.34 509.696 1091.77 508.801 1091.56 507.642L1094.02 507.267C1094.17 507.909 1094.49 508.395 1094.97 508.724C1095.44 509.048 1096.07 509.21 1096.83 509.21C1097.67 509.21 1098.34 509.037 1098.84 508.69C1099.34 508.338 1099.59 507.909 1099.59 507.403C1099.59 506.994 1099.43 506.651 1099.13 506.372C1098.82 506.094 1098.36 505.884 1097.74 505.741L1095.52 505.256C1094.3 504.977 1093.4 504.534 1092.81 503.926C1092.23 503.318 1091.94 502.548 1091.94 501.616C1091.94 500.844 1092.16 500.168 1092.59 499.588C1093.02 499.009 1093.62 498.557 1094.38 498.233C1095.14 497.903 1096.01 497.739 1096.99 497.739C1098.41 497.739 1099.52 498.045 1100.34 498.659C1101.15 499.267 1101.69 500.082 1101.95 501.105Z" fill="#333333"/>
<path d="M779.996 503.5C780.824 503.5 781.496 502.828 781.496 502C781.496 501.172 780.824 500.5 779.996 500.5V503.5ZM700.744 500.939C700.158 501.525 700.158 502.475 700.744 503.061L710.29 512.607C710.876 513.192 711.826 513.192 712.411 512.607C712.997 512.021 712.997 511.071 712.411 510.485L703.926 502L712.411 493.515C712.997 492.929 712.997 491.979 712.411 491.393C711.826 490.808 710.876 490.808 710.29 491.393L700.744 500.939ZM779.996 500.5H701.805V503.5H779.996V500.5Z" fill="#B3B3B3"/>
<path d="M1218 503.5C1218.83 503.5 1219.5 502.828 1219.5 502C1219.5 501.172 1218.83 500.5 1218 500.5V503.5ZM1138.94 500.939C1138.35 501.525 1138.35 502.475 1138.94 503.061L1148.49 512.607C1149.07 513.192 1150.02 513.192 1150.61 512.607C1151.19 512.021 1151.19 511.071 1150.61 510.485L1142.12 502L1150.61 493.515C1151.19 492.929 1151.19 491.979 1150.61 491.393C1150.02 490.808 1149.07 490.808 1148.49 491.393L1138.94 500.939ZM1218 500.5H1140V503.5H1218V500.5Z" fill="#B3B3B3"/>
</svg>
