<svg width="510" height="660" viewBox="0 0 510 660" fill="none" xmlns="http://www.w3.org/2000/svg">
<rect width="510" height="660" fill="white"/>
<path d="M500 0H10C4.47715 0 0 4.47715 0 10V650C0 655.523 4.47715 660 10 660H500C505.523 660 510 655.523 510 650V10C510 4.47715 505.523 0 500 0Z" fill="white"/>
<path d="M31.1923 46.9268V48H26.2157V46.9268H31.1923ZM26.4755 38.0469V48H25.1562V38.0469H26.4755ZM37.023 46.7354V42.9277C37.023 42.6361 36.9637 42.3831 36.8452 42.1689C36.7313 41.9502 36.5581 41.7816 36.3257 41.6631C36.0933 41.5446 35.8063 41.4854 35.4645 41.4854C35.1455 41.4854 34.8651 41.54 34.6236 41.6494C34.3866 41.7588 34.1997 41.9023 34.063 42.0801C33.9308 42.2578 33.8648 42.4492 33.8648 42.6543H32.6002C32.6002 42.39 32.6685 42.1279 32.8052 41.8682C32.9419 41.6084 33.138 41.3737 33.3932 41.1641C33.653 40.9499 33.9627 40.7812 34.3228 40.6582C34.6874 40.5306 35.093 40.4668 35.5396 40.4668C36.0773 40.4668 36.5513 40.5579 36.9614 40.7402C37.3762 40.9225 37.6998 41.1982 37.9323 41.5674C38.1692 41.932 38.2877 42.39 38.2877 42.9414V46.3867C38.2877 46.6328 38.3082 46.8949 38.3492 47.1729C38.3948 47.4508 38.4609 47.6901 38.5475 47.8906V48H37.2281C37.1643 47.8542 37.1142 47.6605 37.0778 47.4189C37.0413 47.1729 37.023 46.945 37.023 46.7354ZM37.2417 43.5156L37.2555 44.4043H35.9771C35.617 44.4043 35.2958 44.4339 35.0132 44.4932C34.7307 44.5479 34.4937 44.6322 34.3023 44.7461C34.1109 44.86 33.965 45.0036 33.8648 45.1768C33.7645 45.3454 33.7145 45.5436 33.7145 45.7715C33.7145 46.0039 33.7669 46.2158 33.8717 46.4072C33.9765 46.5986 34.1336 46.7513 34.3433 46.8652C34.5575 46.9746 34.8196 47.0293 35.1295 47.0293C35.5169 47.0293 35.8586 46.9473 36.1549 46.7832C36.4511 46.6191 36.6858 46.4186 36.859 46.1816C37.0367 45.9447 37.1323 45.7145 37.146 45.4912L37.6861 46.0996C37.6542 46.291 37.5676 46.5029 37.4263 46.7354C37.285 46.9678 37.096 47.1911 36.859 47.4053C36.6266 47.6149 36.3485 47.7904 36.0249 47.9316C35.7059 48.0684 35.346 48.1367 34.9449 48.1367C34.4436 48.1367 34.0038 48.0387 33.6255 47.8428C33.2518 47.6468 32.9601 47.3848 32.7505 47.0566C32.5454 46.724 32.443 46.3525 32.443 45.9424C32.443 45.5459 32.5205 45.1973 32.6754 44.8965C32.8304 44.5911 33.0536 44.3382 33.3452 44.1377C33.6369 43.9326 33.9878 43.7777 34.398 43.6729C34.8081 43.568 35.2661 43.5156 35.772 43.5156H37.2417ZM40.4201 37.5H41.6916V46.5645L41.5822 48H40.4201V37.5ZM46.6886 44.2402V44.3838C46.6886 44.9215 46.6248 45.4206 46.4972 45.8809C46.3696 46.3366 46.1827 46.7331 45.9366 47.0703C45.6905 47.4076 45.3899 47.6696 45.0344 47.8564C44.6789 48.0433 44.271 48.1367 43.8107 48.1367C43.3413 48.1367 42.9288 48.057 42.5734 47.8975C42.2224 47.7334 41.9262 47.4987 41.6847 47.1934C41.4432 46.888 41.2495 46.5189 41.1036 46.0859C40.9624 45.653 40.8644 45.1654 40.8097 44.623V43.9941C40.8644 43.4473 40.9624 42.9574 41.1036 42.5244C41.2495 42.0915 41.4432 41.7223 41.6847 41.417C41.9262 41.1071 42.2224 40.8724 42.5734 40.7129C42.9243 40.5488 43.3323 40.4668 43.7971 40.4668C44.2619 40.4668 44.6744 40.5579 45.0344 40.7402C45.3944 40.918 45.6951 41.1732 45.9366 41.5059C46.1827 41.8385 46.3696 42.2373 46.4972 42.7021C46.6248 43.1624 46.6886 43.6751 46.6886 44.2402ZM45.4171 44.3838V44.2402C45.4171 43.8711 45.383 43.5247 45.3147 43.2012C45.2463 42.873 45.1369 42.5859 44.9865 42.3398C44.8362 42.0892 44.6379 41.8932 44.3918 41.752C44.1457 41.6061 43.8427 41.5332 43.4826 41.5332C43.1636 41.5332 42.8856 41.5879 42.6487 41.6973C42.4162 41.8066 42.2179 41.9548 42.0538 42.1416C41.8898 42.3239 41.7554 42.5335 41.6506 42.7705C41.5503 43.0029 41.4751 43.2445 41.4249 43.4951V45.1426C41.4978 45.4616 41.6163 45.7692 41.7804 46.0654C41.949 46.3571 42.1724 46.5964 42.4504 46.7832C42.733 46.9701 43.0816 47.0635 43.4963 47.0635C43.8381 47.0635 44.1298 46.9951 44.3713 46.8584C44.6174 46.7171 44.8156 46.5234 44.966 46.2773C45.121 46.0312 45.2349 45.7464 45.3078 45.4229C45.3808 45.0993 45.4171 44.7529 45.4171 44.3838ZM51.5075 48.1367C50.9926 48.1367 50.5255 48.0501 50.1063 47.877C49.6916 47.6992 49.3338 47.4508 49.033 47.1318C48.7368 46.8128 48.5088 46.4346 48.3493 45.9971C48.1898 45.5596 48.1101 45.0811 48.1101 44.5615V44.2744C48.1101 43.6729 48.199 43.1374 48.3768 42.668C48.5545 42.194 48.796 41.793 49.1013 41.4648C49.4066 41.1367 49.753 40.8883 50.1404 40.7197C50.5277 40.5511 50.9289 40.4668 51.3436 40.4668C51.8722 40.4668 52.328 40.5579 52.7108 40.7402C53.0981 40.9225 53.4148 41.1777 53.6609 41.5059C53.907 41.8294 54.0892 42.2122 54.2077 42.6543C54.3262 43.0918 54.3856 43.5703 54.3856 44.0898V44.6572H48.862V43.625H53.1208V43.5293C53.1026 43.2012 53.0342 42.8822 52.9157 42.5723C52.8018 42.2624 52.6195 42.0072 52.3689 41.8066C52.1182 41.6061 51.7765 41.5059 51.3436 41.5059C51.0565 41.5059 50.792 41.5674 50.5505 41.6904C50.309 41.8089 50.1017 41.9867 49.9285 42.2236C49.7554 42.4606 49.6209 42.75 49.5252 43.0918C49.4295 43.4336 49.3816 43.8278 49.3816 44.2744V44.5615C49.3816 44.9124 49.4295 45.2428 49.5252 45.5527C49.6255 45.8581 49.7689 46.127 49.9558 46.3594C50.1472 46.5918 50.3774 46.7741 50.6463 46.9062C50.9198 47.0384 51.2296 47.1045 51.576 47.1045C52.0226 47.1045 52.4009 47.0133 52.7108 46.8311C53.0207 46.6488 53.2918 46.4049 53.5242 46.0996L54.2898 46.708C54.1303 46.9495 53.9275 47.1797 53.6814 47.3984C53.4353 47.6172 53.1323 47.7949 52.7723 47.9316C52.4168 48.0684 51.9952 48.1367 51.5075 48.1367ZM57.3862 37.5V48H56.1147V37.5H57.3862ZM59.5117 47.3301C59.5117 47.1159 59.5777 46.9359 59.7099 46.79C59.8466 46.6396 60.0427 46.5645 60.2979 46.5645C60.5531 46.5645 60.7467 46.6396 60.8788 46.79C61.0155 46.9359 61.084 47.1159 61.084 47.3301C61.084 47.5397 61.0155 47.7174 60.8788 47.8633C60.7467 48.0091 60.5531 48.082 60.2979 48.082C60.0427 48.082 59.8466 48.0091 59.7099 47.8633C59.5777 47.7174 59.5117 47.5397 59.5117 47.3301ZM59.5186 41.2939C59.5186 41.0798 59.5847 40.8997 59.7168 40.7539C59.8535 40.6035 60.0494 40.5283 60.3046 40.5283C60.5598 40.5283 60.7535 40.6035 60.8857 40.7539C61.0224 40.8997 61.0908 41.0798 61.0908 41.2939C61.0908 41.5036 61.0224 41.6813 60.8857 41.8271C60.7535 41.973 60.5598 42.0459 60.3046 42.0459C60.0494 42.0459 59.8535 41.973 59.7168 41.8271C59.5847 41.6813 59.5186 41.5036 59.5186 41.2939ZM70.3254 38.0469V48H69.0265V38.0469H70.3254ZM73.5245 38.0469V39.127H65.8341V38.0469H73.5245ZM75.7049 41.7656V48H74.4403V40.6035H75.6707L75.7049 41.7656ZM78.0155 40.5625L78.0085 41.7383C77.9037 41.7155 77.8035 41.7018 77.7078 41.6973C77.6167 41.6882 77.5119 41.6836 77.3934 41.6836C77.1017 41.6836 76.8442 41.7292 76.6209 41.8203C76.3976 41.9115 76.2084 42.0391 76.0534 42.2031C75.8985 42.3672 75.7755 42.5632 75.6844 42.791C75.5978 43.0143 75.5407 43.2604 75.5134 43.5293L75.1579 43.7344C75.1579 43.2878 75.2013 42.8685 75.2879 42.4766C75.3791 42.0846 75.5181 41.7383 75.7049 41.4375C75.8918 41.1322 76.1287 40.8952 76.4158 40.7266C76.7075 40.5534 77.0539 40.4668 77.4549 40.4668C77.5461 40.4668 77.6509 40.4782 77.7694 40.501C77.8878 40.5192 77.9699 40.5397 78.0155 40.5625ZM83.8598 46.291V40.6035H85.1313V48H83.9213L83.8598 46.291ZM84.0989 44.7324L84.6253 44.7188C84.6253 45.2109 84.573 45.6667 84.4682 46.0859C84.3679 46.5007 84.2038 46.8607 83.9759 47.166C83.748 47.4714 83.4495 47.7106 83.0804 47.8838C82.7113 48.0524 82.2625 48.1367 81.7338 48.1367C81.3738 48.1367 81.0433 48.0843 80.7425 47.9795C80.4463 47.8747 80.1911 47.7129 79.9769 47.4941C79.7627 47.2754 79.5963 46.9906 79.4779 46.6396C79.3639 46.2887 79.307 45.8672 79.307 45.375V40.6035H80.5717V45.3887C80.5717 45.7214 80.6081 45.9971 80.681 46.2158C80.7585 46.43 80.8611 46.6009 80.9887 46.7285C81.1209 46.8516 81.2667 46.9382 81.4262 46.9883C81.5903 47.0384 81.7588 47.0635 81.932 47.0635C82.4697 47.0635 82.8958 46.9609 83.2103 46.7559C83.5247 46.5462 83.7504 46.266 83.8871 45.915C84.0284 45.5596 84.0989 45.1654 84.0989 44.7324ZM90.2782 48.1367C89.7633 48.1367 89.2961 48.0501 88.8769 47.877C88.4622 47.6992 88.1044 47.4508 87.8036 47.1318C87.5074 46.8128 87.2796 46.4346 87.1201 45.9971C86.9606 45.5596 86.8808 45.0811 86.8808 44.5615V44.2744C86.8808 43.6729 86.9697 43.1374 87.1474 42.668C87.3251 42.194 87.5668 41.793 87.8721 41.4648C88.1774 41.1367 88.5238 40.8883 88.9112 40.7197C89.2985 40.5511 89.6995 40.4668 90.1142 40.4668C90.6428 40.4668 91.0986 40.5579 91.4814 40.7402C91.8687 40.9225 92.1856 41.1777 92.4317 41.5059C92.6778 41.8294 92.86 42.2122 92.9785 42.6543C93.097 43.0918 93.1562 43.5703 93.1562 44.0898V44.6572H87.6327V43.625H91.8916V43.5293C91.8734 43.2012 91.8049 42.8822 91.6864 42.5723C91.5725 42.2624 91.3902 42.0072 91.1396 41.8066C90.8889 41.6061 90.5471 41.5059 90.1142 41.5059C89.8271 41.5059 89.5627 41.5674 89.3212 41.6904C89.0797 41.8089 88.8723 41.9867 88.6991 42.2236C88.526 42.4606 88.3915 42.75 88.2958 43.0918C88.2001 43.4336 88.1523 43.8278 88.1523 44.2744V44.5615C88.1523 44.9124 88.2001 45.2428 88.2958 45.5527C88.3961 45.8581 88.5397 46.127 88.7266 46.3594C88.918 46.5918 89.148 46.7741 89.4169 46.9062C89.6904 47.0384 90.0002 47.1045 90.3466 47.1045C90.7932 47.1045 91.1715 47.0133 91.4814 46.8311C91.7913 46.6488 92.0624 46.4049 92.2948 46.0996L93.0605 46.708C92.901 46.9495 92.6982 47.1797 92.4521 47.3984C92.206 47.6172 91.903 47.7949 91.543 47.9316C91.1875 48.0684 90.7659 48.1367 90.2782 48.1367Z" fill="#616161"/>
<path d="M174.476 37.0469V47H173.156V37.0469H174.476ZM178.646 41.5244V42.6045H174.189V41.5244H178.646ZM179.322 37.0469V38.127H174.189V37.0469H179.322ZM184.982 45.7354V41.9277C184.982 41.6361 184.923 41.3831 184.804 41.1689C184.69 40.9502 184.517 40.7816 184.285 40.6631C184.052 40.5446 183.765 40.4854 183.423 40.4854C183.104 40.4854 182.824 40.54 182.583 40.6494C182.346 40.7588 182.159 40.9023 182.022 41.0801C181.89 41.2578 181.824 41.4492 181.824 41.6543H180.559C180.559 41.39 180.628 41.1279 180.764 40.8682C180.901 40.6084 181.097 40.3737 181.352 40.1641C181.612 39.9499 181.922 39.7812 182.282 39.6582C182.646 39.5306 183.052 39.4668 183.499 39.4668C184.036 39.4668 184.51 39.5579 184.921 39.7402C185.335 39.9225 185.659 40.1982 185.891 40.5674C186.128 40.932 186.247 41.39 186.247 41.9414V45.3867C186.247 45.6328 186.267 45.8949 186.308 46.1729C186.354 46.4508 186.42 46.6901 186.506 46.8906V47H185.187C185.123 46.8542 185.073 46.6605 185.037 46.4189C185 46.1729 184.982 45.945 184.982 45.7354ZM185.201 42.5156L185.214 43.4043H183.936C183.576 43.4043 183.255 43.4339 182.972 43.4932C182.69 43.5479 182.453 43.6322 182.261 43.7461C182.07 43.86 181.924 44.0036 181.824 44.1768C181.724 44.3454 181.673 44.5436 181.673 44.7715C181.673 45.0039 181.726 45.2158 181.831 45.4072C181.936 45.5986 182.093 45.7513 182.302 45.8652C182.517 45.9746 182.779 46.0293 183.089 46.0293C183.476 46.0293 183.818 45.9473 184.114 45.7832C184.41 45.6191 184.645 45.4186 184.818 45.1816C184.996 44.9447 185.091 44.7145 185.105 44.4912L185.645 45.0996C185.613 45.291 185.527 45.5029 185.385 45.7354C185.244 45.9678 185.055 46.1911 184.818 46.4053C184.586 46.6149 184.308 46.7904 183.984 46.9316C183.665 47.0684 183.305 47.1367 182.904 47.1367C182.403 47.1367 181.963 47.0387 181.585 46.8428C181.211 46.6468 180.919 46.3848 180.71 46.0566C180.505 45.724 180.402 45.3525 180.402 44.9424C180.402 44.5459 180.479 44.1973 180.634 43.8965C180.789 43.5911 181.013 43.3382 181.304 43.1377C181.596 42.9326 181.947 42.7777 182.357 42.6729C182.767 42.568 183.225 42.5156 183.731 42.5156H185.201ZM189.76 36.5V47H188.489V36.5H189.76ZM196.247 45.0381C196.247 44.8558 196.206 44.6872 196.124 44.5322C196.046 44.3727 195.885 44.2292 195.639 44.1016C195.397 43.9694 195.032 43.8555 194.545 43.7598C194.135 43.6732 193.763 43.5706 193.43 43.4521C193.102 43.3337 192.822 43.1901 192.59 43.0215C192.362 42.8529 192.186 42.6546 192.063 42.4268C191.94 42.1989 191.879 41.9323 191.879 41.627C191.879 41.3353 191.943 41.0596 192.07 40.7998C192.202 40.54 192.387 40.3099 192.624 40.1094C192.865 39.9089 193.155 39.7516 193.492 39.6377C193.829 39.5238 194.205 39.4668 194.62 39.4668C195.212 39.4668 195.718 39.5716 196.138 39.7812C196.557 39.9909 196.878 40.2712 197.101 40.6221C197.325 40.9684 197.436 41.3535 197.436 41.7773H196.172C196.172 41.5723 196.11 41.374 195.987 41.1826C195.869 40.9867 195.693 40.8249 195.461 40.6973C195.233 40.5697 194.953 40.5059 194.62 40.5059C194.269 40.5059 193.984 40.5605 193.765 40.6699C193.551 40.7747 193.394 40.9092 193.294 41.0732C193.198 41.2373 193.15 41.4105 193.15 41.5928C193.15 41.7295 193.173 41.8525 193.219 41.9619C193.269 42.0667 193.355 42.1647 193.478 42.2559C193.601 42.3424 193.775 42.4245 193.998 42.502C194.221 42.5794 194.506 42.6569 194.852 42.7344C195.458 42.8711 195.958 43.0352 196.349 43.2266C196.741 43.418 197.033 43.6527 197.224 43.9307C197.416 44.2087 197.512 44.5459 197.512 44.9424C197.512 45.266 197.443 45.5622 197.306 45.8311C197.174 46.0999 196.981 46.3324 196.725 46.5283C196.475 46.7197 196.174 46.8701 195.823 46.9795C195.477 47.0843 195.087 47.1367 194.654 47.1367C194.002 47.1367 193.451 47.0205 193 46.7881C192.549 46.5557 192.207 46.2549 191.974 45.8857C191.742 45.5166 191.626 45.127 191.626 44.7168H192.897C192.916 45.0632 193.016 45.3389 193.198 45.5439C193.38 45.7445 193.604 45.888 193.868 45.9746C194.132 46.0566 194.394 46.0977 194.654 46.0977C195 46.0977 195.29 46.0521 195.522 45.9609C195.759 45.8698 195.939 45.7445 196.062 45.585C196.185 45.4255 196.247 45.2432 196.247 45.0381ZM202.392 47.1367C201.877 47.1367 201.41 47.0501 200.991 46.877C200.576 46.6992 200.218 46.4508 199.917 46.1318C199.621 45.8128 199.393 45.4346 199.234 44.9971C199.074 44.5596 198.995 44.0811 198.995 43.5615V43.2744C198.995 42.6729 199.083 42.1374 199.261 41.668C199.439 41.194 199.68 40.793 199.986 40.4648C200.291 40.1367 200.637 39.8883 201.025 39.7197C201.412 39.5511 201.813 39.4668 202.228 39.4668C202.757 39.4668 203.212 39.5579 203.595 39.7402C203.983 39.9225 204.299 40.1777 204.545 40.5059C204.791 40.8294 204.974 41.2122 205.092 41.6543C205.211 42.0918 205.27 42.5703 205.27 43.0898V43.6572H199.747V42.625H204.005V42.5293C203.987 42.2012 203.919 41.8822 203.8 41.5723C203.686 41.2624 203.504 41.0072 203.253 40.8066C203.003 40.6061 202.661 40.5059 202.228 40.5059C201.941 40.5059 201.677 40.5674 201.435 40.6904C201.193 40.8089 200.986 40.9867 200.813 41.2236C200.64 41.4606 200.505 41.75 200.41 42.0918C200.314 42.4336 200.266 42.8278 200.266 43.2744V43.5615C200.266 43.9124 200.314 44.2428 200.41 44.5527C200.51 44.8581 200.653 45.127 200.84 45.3594C201.032 45.5918 201.262 45.7741 201.531 45.9062C201.804 46.0384 202.114 46.1045 202.46 46.1045C202.907 46.1045 203.285 46.0133 203.595 45.8311C203.905 45.6488 204.176 45.4049 204.409 45.0996L205.174 45.708C205.015 45.9495 204.812 46.1797 204.566 46.3984C204.32 46.6172 204.017 46.7949 203.657 46.9316C203.301 47.0684 202.88 47.1367 202.392 47.1367Z" fill="#616161"/>
<path d="M287.657 42.3262V43.3994H282.271V42.3262H287.657ZM282.476 38.0469V48H281.156V38.0469H282.476ZM288.806 38.0469V48H287.493V38.0469H288.806ZM290.774 44.3838V44.2266C290.774 43.6934 290.852 43.1989 291.006 42.7432C291.161 42.2829 291.385 41.8841 291.676 41.5469C291.968 41.2051 292.321 40.9408 292.736 40.7539C293.151 40.5625 293.616 40.4668 294.13 40.4668C294.65 40.4668 295.117 40.5625 295.532 40.7539C295.951 40.9408 296.307 41.2051 296.598 41.5469C296.894 41.8841 297.12 42.2829 297.275 42.7432C297.43 43.1989 297.507 43.6934 297.507 44.2266V44.3838C297.507 44.917 297.43 45.4115 297.275 45.8672C297.12 46.3229 296.894 46.7217 296.598 47.0635C296.307 47.4007 295.953 47.665 295.539 47.8564C295.129 48.0433 294.664 48.1367 294.144 48.1367C293.625 48.1367 293.158 48.0433 292.743 47.8564C292.328 47.665 291.973 47.4007 291.676 47.0635C291.385 46.7217 291.161 46.3229 291.006 45.8672C290.852 45.4115 290.774 44.917 290.774 44.3838ZM292.039 44.2266V44.3838C292.039 44.7529 292.082 45.1016 292.169 45.4297C292.255 45.7533 292.385 46.0404 292.558 46.291C292.736 46.5417 292.957 46.7399 293.221 46.8857C293.486 47.027 293.793 47.0977 294.144 47.0977C294.491 47.0977 294.794 47.027 295.053 46.8857C295.318 46.7399 295.536 46.5417 295.71 46.291C295.883 46.0404 296.013 45.7533 296.099 45.4297C296.19 45.1016 296.236 44.7529 296.236 44.3838V44.2266C296.236 43.862 296.19 43.5179 296.099 43.1943C296.013 42.8662 295.88 42.5768 295.703 42.3262C295.53 42.071 295.311 41.8704 295.047 41.7246C294.787 41.5788 294.481 41.5059 294.13 41.5059C293.784 41.5059 293.479 41.5788 293.214 41.7246C292.955 41.8704 292.736 42.071 292.558 42.3262C292.385 42.5768 292.255 42.8662 292.169 43.1943C292.082 43.5179 292.039 43.862 292.039 44.2266ZM301.383 46.8584L303.406 40.6035H304.698L302.039 48H301.192L301.383 46.8584ZM299.695 40.6035L301.78 46.8926L301.923 48H301.075L298.396 40.6035H299.695ZM309.039 48.1367C308.524 48.1367 308.057 48.0501 307.638 47.877C307.223 47.6992 306.865 47.4508 306.564 47.1318C306.268 46.8128 306.04 46.4346 305.881 45.9971C305.721 45.5596 305.641 45.0811 305.641 44.5615V44.2744C305.641 43.6729 305.73 43.1374 305.908 42.668C306.086 42.194 306.327 41.793 306.633 41.4648C306.938 41.1367 307.284 40.8883 307.672 40.7197C308.059 40.5511 308.46 40.4668 308.875 40.4668C309.403 40.4668 309.859 40.5579 310.242 40.7402C310.629 40.9225 310.946 41.1777 311.192 41.5059C311.438 41.8294 311.621 42.2122 311.739 42.6543C311.858 43.0918 311.917 43.5703 311.917 44.0898V44.6572H306.393V43.625H310.652V43.5293C310.634 43.2012 310.566 42.8822 310.447 42.5723C310.333 42.2624 310.151 42.0072 309.9 41.8066C309.65 41.6061 309.308 41.5059 308.875 41.5059C308.588 41.5059 308.323 41.5674 308.082 41.6904C307.84 41.8089 307.633 41.9867 307.46 42.2236C307.287 42.4606 307.152 42.75 307.056 43.0918C306.961 43.4336 306.913 43.8278 306.913 44.2744V44.5615C306.913 44.9124 306.961 45.2428 307.056 45.5527C307.157 45.8581 307.3 46.127 307.487 46.3594C307.679 46.5918 307.909 46.7741 308.178 46.9062C308.451 47.0384 308.761 47.1045 309.107 47.1045C309.554 47.1045 309.932 47.0133 310.242 46.8311C310.552 46.6488 310.823 46.4049 311.055 46.0996L311.821 46.708C311.662 46.9495 311.459 47.1797 311.213 47.3984C310.967 47.6172 310.664 47.7949 310.304 47.9316C309.948 48.0684 309.527 48.1367 309.039 48.1367ZM314.808 41.7656V48H313.543V40.6035H314.774L314.808 41.7656ZM317.119 40.5625L317.112 41.7383C317.007 41.7155 316.907 41.7018 316.811 41.6973C316.72 41.6882 316.615 41.6836 316.497 41.6836C316.205 41.6836 315.947 41.7292 315.724 41.8203C315.501 41.9115 315.312 42.0391 315.157 42.2031C315.002 42.3672 314.879 42.5632 314.788 42.791C314.701 43.0143 314.644 43.2604 314.617 43.5293L314.261 43.7344C314.261 43.2878 314.304 42.8685 314.391 42.4766C314.482 42.0846 314.621 41.7383 314.808 41.4375C314.995 41.1322 315.232 40.8952 315.519 40.7266C315.811 40.5534 316.157 40.4668 316.558 40.4668C316.649 40.4668 316.754 40.4782 316.872 40.501C316.991 40.5192 317.073 40.5397 317.119 40.5625Z" fill="#616161"/>
<g opacity="0.5">
<path d="M63 102H43C39.134 102 36 105.134 36 109C36 112.866 39.134 116 43 116H63C66.866 116 70 112.866 70 109C70 105.134 66.866 102 63 102Z" fill="black"/>
</g>
<g filter="url(#filter0_dii_339_92189)">
<path d="M63 119C68.5228 119 73 114.523 73 109C73 103.477 68.5228 99 63 99C57.4772 99 53 103.477 53 109C53 114.523 57.4772 119 63 119Z" fill="white"/>
</g>
<path d="M83.0938 113H88.5957V111.964H84.2557V103.662H83.0938V113ZM94.225 113H95.275V108.352C95.275 106.714 94.085 106.07 92.657 106.07C91.551 106.07 90.683 106.434 89.955 107.19L90.445 107.918C91.047 107.274 91.705 106.98 92.517 106.98C93.497 106.98 94.225 107.498 94.225 108.408V109.626C93.679 108.996 92.909 108.702 91.985 108.702C90.837 108.702 89.619 109.416 89.619 110.928C89.619 112.398 90.837 113.168 91.985 113.168C92.895 113.168 93.665 112.846 94.225 112.23V113ZM94.225 111.572C93.819 112.132 93.105 112.412 92.363 112.412C91.383 112.412 90.697 111.796 90.697 110.942C90.697 110.074 91.383 109.458 92.363 109.458C93.105 109.458 93.819 109.738 94.225 110.298V111.572ZM97.3798 113H98.4298V111.992C98.9338 112.678 99.7597 113.168 100.712 113.168C102.476 113.168 103.722 111.824 103.722 109.626C103.722 107.47 102.476 106.07 100.712 106.07C99.7877 106.07 98.9758 106.518 98.4298 107.26V103.662H97.3798V113ZM98.4298 111.166V108.1C98.7938 107.512 99.6197 107.008 100.446 107.008C101.818 107.008 102.63 108.128 102.63 109.626C102.63 111.124 101.818 112.23 100.446 112.23C99.6197 112.23 98.7938 111.754 98.4298 111.166ZM105.041 109.612C105.041 111.726 106.483 113.168 108.485 113.168C109.591 113.168 110.501 112.804 111.173 112.132L110.669 111.446C110.137 111.992 109.353 112.3 108.583 112.3C107.127 112.3 106.231 111.236 106.147 109.962H111.621V109.696C111.621 107.666 110.417 106.07 108.373 106.07C106.441 106.07 105.041 107.652 105.041 109.612ZM108.359 106.938C109.899 106.938 110.571 108.184 110.585 109.192H106.147C106.203 108.156 106.917 106.938 108.359 106.938ZM113.322 113H114.372V103.662H113.322V113Z" fill="#2D2D2D"/>
<g opacity="0.38">
<path d="M319 102H299C295.134 102 292 105.134 292 109C292 112.866 295.134 116 299 116H319C322.866 116 326 112.866 326 109C326 105.134 322.866 102 319 102Z" fill="black"/>
</g>
<path d="M318 109C318 98.5066 309.493 90 299 90C288.507 90 280 98.5066 280 109C280 119.493 288.507 128 299 128C309.493 128 318 119.493 318 109Z" fill="black" fill-opacity="0.04"/>
<g filter="url(#filter1_dii_339_92189)">
<path d="M299 119C304.523 119 309 114.523 309 109C309 103.477 304.523 99 299 99C293.477 99 289 103.477 289 109C289 114.523 293.477 119 299 119Z" fill="#FAFAFA"/>
</g>
<path d="M339.094 113H344.596V111.964H340.256V103.662H339.094V113ZM350.225 113H351.275V108.352C351.275 106.714 350.085 106.07 348.657 106.07C347.551 106.07 346.683 106.434 345.955 107.19L346.445 107.918C347.047 107.274 347.705 106.98 348.517 106.98C349.497 106.98 350.225 107.498 350.225 108.408V109.626C349.679 108.996 348.909 108.702 347.985 108.702C346.837 108.702 345.619 109.416 345.619 110.928C345.619 112.398 346.837 113.168 347.985 113.168C348.895 113.168 349.665 112.846 350.225 112.23V113ZM350.225 111.572C349.819 112.132 349.105 112.412 348.363 112.412C347.383 112.412 346.697 111.796 346.697 110.942C346.697 110.074 347.383 109.458 348.363 109.458C349.105 109.458 349.819 109.738 350.225 110.298V111.572ZM353.38 113H354.43V111.992C354.934 112.678 355.76 113.168 356.712 113.168C358.476 113.168 359.722 111.824 359.722 109.626C359.722 107.47 358.476 106.07 356.712 106.07C355.788 106.07 354.976 106.518 354.43 107.26V103.662H353.38V113ZM354.43 111.166V108.1C354.794 107.512 355.62 107.008 356.446 107.008C357.818 107.008 358.63 108.128 358.63 109.626C358.63 111.124 357.818 112.23 356.446 112.23C355.62 112.23 354.794 111.754 354.43 111.166ZM361.041 109.612C361.041 111.726 362.483 113.168 364.485 113.168C365.591 113.168 366.501 112.804 367.173 112.132L366.669 111.446C366.137 111.992 365.353 112.3 364.583 112.3C363.127 112.3 362.231 111.236 362.147 109.962H367.621V109.696C367.621 107.666 366.417 106.07 364.373 106.07C362.441 106.07 361.041 107.652 361.041 109.612ZM364.359 106.938C365.899 106.938 366.571 108.184 366.585 109.192H362.147C362.203 108.156 362.917 106.938 364.359 106.938ZM369.322 113H370.372V103.662H369.322V113Z" fill="#2D2D2D"/>
<g opacity="0.38">
<path d="M319 164H299C295.134 164 292 167.134 292 171C292 174.866 295.134 178 299 178H319C322.866 178 326 174.866 326 171C326 167.134 322.866 164 319 164Z" fill="black"/>
</g>
<path d="M318 171C318 160.507 309.493 152 299 152C288.507 152 280 160.507 280 171C280 181.493 288.507 190 299 190C309.493 190 318 181.493 318 171Z" fill="black" fill-opacity="0.04"/>
<g filter="url(#filter2_dii_339_92189)">
<path d="M299 181C304.523 181 309 176.523 309 171C309 165.477 304.523 161 299 161C293.477 161 289 165.477 289 171C289 176.523 293.477 181 299 181Z" fill="#FAFAFA"/>
</g>
<path d="M339.094 175H344.596V173.964H340.256V165.662H339.094V175ZM350.225 175H351.275V170.352C351.275 168.714 350.085 168.07 348.657 168.07C347.551 168.07 346.683 168.434 345.955 169.19L346.445 169.918C347.047 169.274 347.705 168.98 348.517 168.98C349.497 168.98 350.225 169.498 350.225 170.408V171.626C349.679 170.996 348.909 170.702 347.985 170.702C346.837 170.702 345.619 171.416 345.619 172.928C345.619 174.398 346.837 175.168 347.985 175.168C348.895 175.168 349.665 174.846 350.225 174.23V175ZM350.225 173.572C349.819 174.132 349.105 174.412 348.363 174.412C347.383 174.412 346.697 173.796 346.697 172.942C346.697 172.074 347.383 171.458 348.363 171.458C349.105 171.458 349.819 171.738 350.225 172.298V173.572ZM353.38 175H354.43V173.992C354.934 174.678 355.76 175.168 356.712 175.168C358.476 175.168 359.722 173.824 359.722 171.626C359.722 169.47 358.476 168.07 356.712 168.07C355.788 168.07 354.976 168.518 354.43 169.26V165.662H353.38V175ZM354.43 173.166V170.1C354.794 169.512 355.62 169.008 356.446 169.008C357.818 169.008 358.63 170.128 358.63 171.626C358.63 173.124 357.818 174.23 356.446 174.23C355.62 174.23 354.794 173.754 354.43 173.166ZM361.041 171.612C361.041 173.726 362.483 175.168 364.485 175.168C365.591 175.168 366.501 174.804 367.173 174.132L366.669 173.446C366.137 173.992 365.353 174.3 364.583 174.3C363.127 174.3 362.231 173.236 362.147 171.962H367.621V171.696C367.621 169.666 366.417 168.07 364.373 168.07C362.441 168.07 361.041 169.652 361.041 171.612ZM364.359 168.938C365.899 168.938 366.571 170.184 366.585 171.192H362.147C362.203 170.156 362.917 168.938 364.359 168.938ZM369.322 175H370.372V165.662H369.322V175Z" fill="#2D2D2D"/>
<g opacity="0.38">
<path d="M52 619H36C33.2386 619 31 621.239 31 624C31 626.761 33.2386 629 36 629H52C54.7614 629 57 626.761 57 624C57 621.239 54.7614 619 52 619Z" fill="black"/>
</g>
<g filter="url(#filter3_dii_339_92189)">
<path d="M36 632C40.4183 632 44 628.418 44 624C44 619.582 40.4183 616 36 616C31.5817 616 28 619.582 28 624C28 628.418 31.5817 632 36 632Z" fill="#FAFAFA"/>
</g>
<path d="M65.0938 628H70.5957V626.964H66.2557V618.662H65.0938V628ZM76.225 628H77.275V623.352C77.275 621.714 76.085 621.07 74.657 621.07C73.551 621.07 72.683 621.434 71.955 622.19L72.445 622.918C73.047 622.274 73.705 621.98 74.517 621.98C75.497 621.98 76.225 622.498 76.225 623.408V624.626C75.679 623.996 74.909 623.702 73.985 623.702C72.837 623.702 71.619 624.416 71.619 625.928C71.619 627.398 72.837 628.168 73.985 628.168C74.895 628.168 75.665 627.846 76.225 627.23V628ZM76.225 626.572C75.819 627.132 75.105 627.412 74.363 627.412C73.383 627.412 72.697 626.796 72.697 625.942C72.697 625.074 73.383 624.458 74.363 624.458C75.105 624.458 75.819 624.738 76.225 625.298V626.572ZM79.3798 628H80.4298V626.992C80.9338 627.678 81.7598 628.168 82.7118 628.168C84.4758 628.168 85.7218 626.824 85.7218 624.626C85.7218 622.47 84.4758 621.07 82.7118 621.07C81.7878 621.07 80.9758 621.518 80.4298 622.26V618.662H79.3798V628ZM80.4298 626.166V623.1C80.7938 622.512 81.6198 622.008 82.4458 622.008C83.8178 622.008 84.6298 623.128 84.6298 624.626C84.6298 626.124 83.8178 627.23 82.4458 627.23C81.6198 627.23 80.7938 626.754 80.4298 626.166ZM87.0406 624.612C87.0406 626.726 88.4826 628.168 90.4846 628.168C91.5906 628.168 92.5006 627.804 93.1726 627.132L92.6686 626.446C92.1366 626.992 91.3526 627.3 90.5826 627.3C89.1266 627.3 88.2306 626.236 88.1466 624.962H93.6206V624.696C93.6206 622.666 92.4167 621.07 90.3727 621.07C88.4407 621.07 87.0406 622.652 87.0406 624.612ZM90.3587 621.938C91.8987 621.938 92.5706 623.184 92.5846 624.192H88.1466C88.2026 623.156 88.9167 621.938 90.3587 621.938ZM95.3213 628H96.3712V618.662H95.3213V628Z" fill="#2D2D2D"/>
<path d="M63 164H43C39.134 164 36 167.134 36 171C36 174.866 39.134 178 43 178H63C66.866 178 70 174.866 70 171C70 167.134 66.866 164 63 164Z" fill="black" fill-opacity="0.12"/>
<g filter="url(#filter4_dii_339_92189)">
<path d="M43 181C48.5228 181 53 176.523 53 171C53 165.477 48.5228 161 43 161C37.4772 161 33 165.477 33 171C33 176.523 37.4772 181 43 181Z" fill="#F5F5F5"/>
</g>
<path d="M83.0938 175H88.5957V173.964H84.2557V165.662H83.0938V175ZM94.225 175H95.275V170.352C95.275 168.714 94.085 168.07 92.657 168.07C91.551 168.07 90.683 168.434 89.955 169.19L90.445 169.918C91.047 169.274 91.705 168.98 92.517 168.98C93.497 168.98 94.225 169.498 94.225 170.408V171.626C93.679 170.996 92.909 170.702 91.985 170.702C90.837 170.702 89.619 171.416 89.619 172.928C89.619 174.398 90.837 175.168 91.985 175.168C92.895 175.168 93.665 174.846 94.225 174.23V175ZM94.225 173.572C93.819 174.132 93.105 174.412 92.363 174.412C91.383 174.412 90.697 173.796 90.697 172.942C90.697 172.074 91.383 171.458 92.363 171.458C93.105 171.458 93.819 171.738 94.225 172.298V173.572ZM97.3798 175H98.4298V173.992C98.9338 174.678 99.7597 175.168 100.712 175.168C102.476 175.168 103.722 173.824 103.722 171.626C103.722 169.47 102.476 168.07 100.712 168.07C99.7877 168.07 98.9758 168.518 98.4298 169.26V165.662H97.3798V175ZM98.4298 173.166V170.1C98.7938 169.512 99.6197 169.008 100.446 169.008C101.818 169.008 102.63 170.128 102.63 171.626C102.63 173.124 101.818 174.23 100.446 174.23C99.6197 174.23 98.7938 173.754 98.4298 173.166ZM105.041 171.612C105.041 173.726 106.483 175.168 108.485 175.168C109.591 175.168 110.501 174.804 111.173 174.132L110.669 173.446C110.137 173.992 109.353 174.3 108.583 174.3C107.127 174.3 106.231 173.236 106.147 171.962H111.621V171.696C111.621 169.666 110.417 168.07 108.373 168.07C106.441 168.07 105.041 169.652 105.041 171.612ZM108.359 168.938C109.899 168.938 110.571 170.184 110.585 171.192H106.147C106.203 170.156 106.917 168.938 108.359 168.938ZM113.322 175H114.372V165.662H113.322V175Z" fill="#2D2D2D" fill-opacity="0.25"/>
<g opacity="0.5">
<path d="M63 226H43C39.134 226 36 229.134 36 233C36 236.866 39.134 240 43 240H63C66.866 240 70 236.866 70 233C70 229.134 66.866 226 63 226Z" fill="#62A42D"/>
</g>
<g filter="url(#filter5_dii_339_92189)">
<path d="M63 243C68.5228 243 73 238.523 73 233C73 227.477 68.5228 223 63 223C57.4772 223 53 227.477 53 233C53 238.523 57.4772 243 63 243Z" fill="#62A42D"/>
</g>
<path d="M83.0938 237H88.5957V235.964H84.2557V227.662H83.0938V237ZM94.225 237H95.275V232.352C95.275 230.714 94.085 230.07 92.657 230.07C91.551 230.07 90.683 230.434 89.955 231.19L90.445 231.918C91.047 231.274 91.705 230.98 92.517 230.98C93.497 230.98 94.225 231.498 94.225 232.408V233.626C93.679 232.996 92.909 232.702 91.985 232.702C90.837 232.702 89.619 233.416 89.619 234.928C89.619 236.398 90.837 237.168 91.985 237.168C92.895 237.168 93.665 236.846 94.225 236.23V237ZM94.225 235.572C93.819 236.132 93.105 236.412 92.363 236.412C91.383 236.412 90.697 235.796 90.697 234.942C90.697 234.074 91.383 233.458 92.363 233.458C93.105 233.458 93.819 233.738 94.225 234.298V235.572ZM97.3798 237H98.4298V235.992C98.9338 236.678 99.7597 237.168 100.712 237.168C102.476 237.168 103.722 235.824 103.722 233.626C103.722 231.47 102.476 230.07 100.712 230.07C99.7877 230.07 98.9758 230.518 98.4298 231.26V227.662H97.3798V237ZM98.4298 235.166V232.1C98.7938 231.512 99.6197 231.008 100.446 231.008C101.818 231.008 102.63 232.128 102.63 233.626C102.63 235.124 101.818 236.23 100.446 236.23C99.6197 236.23 98.7938 235.754 98.4298 235.166ZM105.041 233.612C105.041 235.726 106.483 237.168 108.485 237.168C109.591 237.168 110.501 236.804 111.173 236.132L110.669 235.446C110.137 235.992 109.353 236.3 108.583 236.3C107.127 236.3 106.231 235.236 106.147 233.962H111.621V233.696C111.621 231.666 110.417 230.07 108.373 230.07C106.441 230.07 105.041 231.652 105.041 233.612ZM108.359 230.938C109.899 230.938 110.571 232.184 110.585 233.192H106.147C106.203 232.156 106.917 230.938 108.359 230.938ZM113.322 237H114.372V227.662H113.322V237Z" fill="#2D2D2D"/>
<g opacity="0.5">
<path d="M63 288H43C39.134 288 36 291.134 36 295C36 298.866 39.134 302 43 302H63C66.866 302 70 298.866 70 295C70 291.134 66.866 288 63 288Z" fill="#437EEB"/>
</g>
<g filter="url(#filter6_dii_339_92189)">
<path d="M63 305C68.5228 305 73 300.523 73 295C73 289.477 68.5228 285 63 285C57.4772 285 53 289.477 53 295C53 300.523 57.4772 305 63 305Z" fill="#437EEB"/>
</g>
<path d="M83.0938 299H88.5957V297.964H84.2557V289.662H83.0938V299ZM94.225 299H95.275V294.352C95.275 292.714 94.085 292.07 92.657 292.07C91.551 292.07 90.683 292.434 89.955 293.19L90.445 293.918C91.047 293.274 91.705 292.98 92.517 292.98C93.497 292.98 94.225 293.498 94.225 294.408V295.626C93.679 294.996 92.909 294.702 91.985 294.702C90.837 294.702 89.619 295.416 89.619 296.928C89.619 298.398 90.837 299.168 91.985 299.168C92.895 299.168 93.665 298.846 94.225 298.23V299ZM94.225 297.572C93.819 298.132 93.105 298.412 92.363 298.412C91.383 298.412 90.697 297.796 90.697 296.942C90.697 296.074 91.383 295.458 92.363 295.458C93.105 295.458 93.819 295.738 94.225 296.298V297.572ZM97.3798 299H98.4298V297.992C98.9338 298.678 99.7597 299.168 100.712 299.168C102.476 299.168 103.722 297.824 103.722 295.626C103.722 293.47 102.476 292.07 100.712 292.07C99.7877 292.07 98.9758 292.518 98.4298 293.26V289.662H97.3798V299ZM98.4298 297.166V294.1C98.7938 293.512 99.6197 293.008 100.446 293.008C101.818 293.008 102.63 294.128 102.63 295.626C102.63 297.124 101.818 298.23 100.446 298.23C99.6197 298.23 98.7938 297.754 98.4298 297.166ZM105.041 295.612C105.041 297.726 106.483 299.168 108.485 299.168C109.591 299.168 110.501 298.804 111.173 298.132L110.669 297.446C110.137 297.992 109.353 298.3 108.583 298.3C107.127 298.3 106.231 297.236 106.147 295.962H111.621V295.696C111.621 293.666 110.417 292.07 108.373 292.07C106.441 292.07 105.041 293.652 105.041 295.612ZM108.359 292.938C109.899 292.938 110.571 294.184 110.585 295.192H106.147C106.203 294.156 106.917 292.938 108.359 292.938ZM113.322 299H114.372V289.662H113.322V299Z" fill="#2D2D2D"/>
<g opacity="0.5">
<path d="M63 350H43C39.134 350 36 353.134 36 357C36 360.866 39.134 364 43 364H63C66.866 364 70 360.866 70 357C70 353.134 66.866 350 63 350Z" fill="#B00020"/>
</g>
<g filter="url(#filter7_dii_339_92189)">
<path d="M63 367C68.5228 367 73 362.523 73 357C73 351.477 68.5228 347 63 347C57.4772 347 53 351.477 53 357C53 362.523 57.4772 367 63 367Z" fill="#B00020"/>
</g>
<path d="M83.0938 361H88.5957V359.964H84.2557V351.662H83.0938V361ZM94.225 361H95.275V356.352C95.275 354.714 94.085 354.07 92.657 354.07C91.551 354.07 90.683 354.434 89.955 355.19L90.445 355.918C91.047 355.274 91.705 354.98 92.517 354.98C93.497 354.98 94.225 355.498 94.225 356.408V357.626C93.679 356.996 92.909 356.702 91.985 356.702C90.837 356.702 89.619 357.416 89.619 358.928C89.619 360.398 90.837 361.168 91.985 361.168C92.895 361.168 93.665 360.846 94.225 360.23V361ZM94.225 359.572C93.819 360.132 93.105 360.412 92.363 360.412C91.383 360.412 90.697 359.796 90.697 358.942C90.697 358.074 91.383 357.458 92.363 357.458C93.105 357.458 93.819 357.738 94.225 358.298V359.572ZM97.3798 361H98.4298V359.992C98.9338 360.678 99.7597 361.168 100.712 361.168C102.476 361.168 103.722 359.824 103.722 357.626C103.722 355.47 102.476 354.07 100.712 354.07C99.7877 354.07 98.9758 354.518 98.4298 355.26V351.662H97.3798V361ZM98.4298 359.166V356.1C98.7938 355.512 99.6197 355.008 100.446 355.008C101.818 355.008 102.63 356.128 102.63 357.626C102.63 359.124 101.818 360.23 100.446 360.23C99.6197 360.23 98.7938 359.754 98.4298 359.166ZM105.041 357.612C105.041 359.726 106.483 361.168 108.485 361.168C109.591 361.168 110.501 360.804 111.173 360.132L110.669 359.446C110.137 359.992 109.353 360.3 108.583 360.3C107.127 360.3 106.231 359.236 106.147 357.962H111.621V357.696C111.621 355.666 110.417 354.07 108.373 354.07C106.441 354.07 105.041 355.652 105.041 357.612ZM108.359 354.938C109.899 354.938 110.571 356.184 110.585 357.192H106.147C106.203 356.156 106.917 354.938 108.359 354.938ZM113.322 361H114.372V351.662H113.322V361Z" fill="#2D2D2D"/>
<g opacity="0.5">
<path d="M63 412H43C39.134 412 36 415.134 36 419C36 422.866 39.134 426 43 426H63C66.866 426 70 422.866 70 419C70 415.134 66.866 412 63 412Z" fill="#E68E00"/>
</g>
<g filter="url(#filter8_dii_339_92189)">
<path d="M63 429C68.5228 429 73 424.523 73 419C73 413.477 68.5228 409 63 409C57.4772 409 53 413.477 53 419C53 424.523 57.4772 429 63 429Z" fill="#E68E00"/>
</g>
<path d="M83.0938 423H88.5957V421.964H84.2557V413.662H83.0938V423ZM94.225 423H95.275V418.352C95.275 416.714 94.085 416.07 92.657 416.07C91.551 416.07 90.683 416.434 89.955 417.19L90.445 417.918C91.047 417.274 91.705 416.98 92.517 416.98C93.497 416.98 94.225 417.498 94.225 418.408V419.626C93.679 418.996 92.909 418.702 91.985 418.702C90.837 418.702 89.619 419.416 89.619 420.928C89.619 422.398 90.837 423.168 91.985 423.168C92.895 423.168 93.665 422.846 94.225 422.23V423ZM94.225 421.572C93.819 422.132 93.105 422.412 92.363 422.412C91.383 422.412 90.697 421.796 90.697 420.942C90.697 420.074 91.383 419.458 92.363 419.458C93.105 419.458 93.819 419.738 94.225 420.298V421.572ZM97.3798 423H98.4298V421.992C98.9338 422.678 99.7597 423.168 100.712 423.168C102.476 423.168 103.722 421.824 103.722 419.626C103.722 417.47 102.476 416.07 100.712 416.07C99.7877 416.07 98.9758 416.518 98.4298 417.26V413.662H97.3798V423ZM98.4298 421.166V418.1C98.7938 417.512 99.6197 417.008 100.446 417.008C101.818 417.008 102.63 418.128 102.63 419.626C102.63 421.124 101.818 422.23 100.446 422.23C99.6197 422.23 98.7938 421.754 98.4298 421.166ZM105.041 419.612C105.041 421.726 106.483 423.168 108.485 423.168C109.591 423.168 110.501 422.804 111.173 422.132L110.669 421.446C110.137 421.992 109.353 422.3 108.583 422.3C107.127 422.3 106.231 421.236 106.147 419.962H111.621V419.696C111.621 417.666 110.417 416.07 108.373 416.07C106.441 416.07 105.041 417.652 105.041 419.612ZM108.359 416.938C109.899 416.938 110.571 418.184 110.585 419.192H106.147C106.203 418.156 106.917 416.938 108.359 416.938ZM113.322 423H114.372V413.662H113.322V423Z" fill="#2D2D2D"/>
<g opacity="0.5">
<path d="M63 474H43C39.134 474 36 477.134 36 481C36 484.866 39.134 488 43 488H63C66.866 488 70 484.866 70 481C70 477.134 66.866 474 63 474Z" fill="#0A2241"/>
</g>
<g filter="url(#filter9_dii_339_92189)">
<path d="M63 491C68.5228 491 73 486.523 73 481C73 475.477 68.5228 471 63 471C57.4772 471 53 475.477 53 481C53 486.523 57.4772 491 63 491Z" fill="#0A2241"/>
</g>
<path d="M83.0938 485H88.5957V483.964H84.2557V475.662H83.0938V485ZM94.225 485H95.275V480.352C95.275 478.714 94.085 478.07 92.657 478.07C91.551 478.07 90.683 478.434 89.955 479.19L90.445 479.918C91.047 479.274 91.705 478.98 92.517 478.98C93.497 478.98 94.225 479.498 94.225 480.408V481.626C93.679 480.996 92.909 480.702 91.985 480.702C90.837 480.702 89.619 481.416 89.619 482.928C89.619 484.398 90.837 485.168 91.985 485.168C92.895 485.168 93.665 484.846 94.225 484.23V485ZM94.225 483.572C93.819 484.132 93.105 484.412 92.363 484.412C91.383 484.412 90.697 483.796 90.697 482.942C90.697 482.074 91.383 481.458 92.363 481.458C93.105 481.458 93.819 481.738 94.225 482.298V483.572ZM97.3798 485H98.4298V483.992C98.9338 484.678 99.7597 485.168 100.712 485.168C102.476 485.168 103.722 483.824 103.722 481.626C103.722 479.47 102.476 478.07 100.712 478.07C99.7877 478.07 98.9758 478.518 98.4298 479.26V475.662H97.3798V485ZM98.4298 483.166V480.1C98.7938 479.512 99.6197 479.008 100.446 479.008C101.818 479.008 102.63 480.128 102.63 481.626C102.63 483.124 101.818 484.23 100.446 484.23C99.6197 484.23 98.7938 483.754 98.4298 483.166ZM105.041 481.612C105.041 483.726 106.483 485.168 108.485 485.168C109.591 485.168 110.501 484.804 111.173 484.132L110.669 483.446C110.137 483.992 109.353 484.3 108.583 484.3C107.127 484.3 106.231 483.236 106.147 481.962H111.621V481.696C111.621 479.666 110.417 478.07 108.373 478.07C106.441 478.07 105.041 479.652 105.041 481.612ZM108.359 478.938C109.899 478.938 110.571 480.184 110.585 481.192H106.147C106.203 480.156 106.917 478.938 108.359 478.938ZM113.322 485H114.372V475.662H113.322V485Z" fill="#2D2D2D"/>
<g opacity="0.5">
<path d="M63 536H43C39.134 536 36 539.134 36 543C36 546.866 39.134 550 43 550H63C66.866 550 70 546.866 70 543C70 539.134 66.866 536 63 536Z" fill="#7DBE42"/>
</g>
<g filter="url(#filter10_dii_339_92189)">
<path d="M63 553C68.5228 553 73 548.523 73 543C73 537.477 68.5228 533 63 533C57.4772 533 53 537.477 53 543C53 548.523 57.4772 553 63 553Z" fill="#7DBE42"/>
</g>
<path d="M83.0938 547H88.5957V545.964H84.2557V537.662H83.0938V547ZM94.225 547H95.275V542.352C95.275 540.714 94.085 540.07 92.657 540.07C91.551 540.07 90.683 540.434 89.955 541.19L90.445 541.918C91.047 541.274 91.705 540.98 92.517 540.98C93.497 540.98 94.225 541.498 94.225 542.408V543.626C93.679 542.996 92.909 542.702 91.985 542.702C90.837 542.702 89.619 543.416 89.619 544.928C89.619 546.398 90.837 547.168 91.985 547.168C92.895 547.168 93.665 546.846 94.225 546.23V547ZM94.225 545.572C93.819 546.132 93.105 546.412 92.363 546.412C91.383 546.412 90.697 545.796 90.697 544.942C90.697 544.074 91.383 543.458 92.363 543.458C93.105 543.458 93.819 543.738 94.225 544.298V545.572ZM97.3798 547H98.4298V545.992C98.9338 546.678 99.7597 547.168 100.712 547.168C102.476 547.168 103.722 545.824 103.722 543.626C103.722 541.47 102.476 540.07 100.712 540.07C99.7877 540.07 98.9758 540.518 98.4298 541.26V537.662H97.3798V547ZM98.4298 545.166V542.1C98.7938 541.512 99.6197 541.008 100.446 541.008C101.818 541.008 102.63 542.128 102.63 543.626C102.63 545.124 101.818 546.23 100.446 546.23C99.6197 546.23 98.7938 545.754 98.4298 545.166ZM105.041 543.612C105.041 545.726 106.483 547.168 108.485 547.168C109.591 547.168 110.501 546.804 111.173 546.132L110.669 545.446C110.137 545.992 109.353 546.3 108.583 546.3C107.127 546.3 106.231 545.236 106.147 543.962H111.621V543.696C111.621 541.666 110.417 540.07 108.373 540.07C106.441 540.07 105.041 541.652 105.041 543.612ZM108.359 540.938C109.899 540.938 110.571 542.184 110.585 543.192H106.147C106.203 542.156 106.917 540.938 108.359 540.938ZM113.322 547H114.372V537.662H113.322V547Z" fill="#2D2D2D"/>
<g opacity="0.38">
<path d="M211 101H191C187.134 101 184 104.134 184 108C184 111.866 187.134 115 191 115H211C214.866 115 218 111.866 218 108C218 104.134 214.866 101 211 101Z" fill="black"/>
</g>
<g filter="url(#filter11_dii_339_92189)">
<path d="M191 118C196.523 118 201 113.523 201 108C201 102.477 196.523 98 191 98C185.477 98 181 102.477 181 108C181 113.523 185.477 118 191 118Z" fill="#FAFAFA"/>
</g>
<g opacity="0.38">
<path d="M467 102H447C443.134 102 440 105.134 440 109C440 112.866 443.134 116 447 116H467C470.866 116 474 112.866 474 109C474 105.134 470.866 102 467 102Z" fill="black"/>
</g>
<path d="M466 109C466 98.5066 457.493 90 447 90C436.507 90 428 98.5066 428 109C428 119.493 436.507 128 447 128C457.493 128 466 119.493 466 109Z" fill="black" fill-opacity="0.04"/>
<g filter="url(#filter12_dii_339_92189)">
<path d="M447 119C452.523 119 457 114.523 457 109C457 103.477 452.523 99 447 99C441.477 99 437 103.477 437 109C437 114.523 441.477 119 447 119Z" fill="#FAFAFA"/>
</g>
<g opacity="0.38">
<path d="M467 164H447C443.134 164 440 167.134 440 171C440 174.866 443.134 178 447 178H467C470.866 178 474 174.866 474 171C474 167.134 470.866 164 467 164Z" fill="black"/>
</g>
<path d="M466 171C466 160.507 457.493 152 447 152C436.507 152 428 160.507 428 171C428 181.493 436.507 190 447 190C457.493 190 466 181.493 466 171Z" fill="black" fill-opacity="0.04"/>
<g filter="url(#filter13_dii_339_92189)">
<path d="M447 181C452.523 181 457 176.523 457 171C457 165.477 452.523 161 447 161C441.477 161 437 165.477 437 171C437 176.523 441.477 181 447 181Z" fill="#FAFAFA"/>
</g>
<g opacity="0.38">
<path d="M200 618H184C181.239 618 179 620.239 179 623C179 625.761 181.239 628 184 628H200C202.761 628 205 625.761 205 623C205 620.239 202.761 618 200 618Z" fill="black"/>
</g>
<g filter="url(#filter14_dii_339_92189)">
<path d="M184 631C188.418 631 192 627.418 192 623C192 618.582 188.418 615 184 615C179.582 615 176 618.582 176 623C176 627.418 179.582 631 184 631Z" fill="#FAFAFA"/>
</g>
<path d="M211 163H191C187.134 163 184 166.134 184 170C184 173.866 187.134 177 191 177H211C214.866 177 218 173.866 218 170C218 166.134 214.866 163 211 163Z" fill="black" fill-opacity="0.12"/>
<g filter="url(#filter15_dii_339_92189)">
<path d="M191 180C196.523 180 201 175.523 201 170C201 164.477 196.523 160 191 160C185.477 160 181 164.477 181 170C181 175.523 185.477 180 191 180Z" fill="#F5F5F5"/>
</g>
<g opacity="0.5">
<path d="M211 225H191C187.134 225 184 228.134 184 232C184 235.866 187.134 239 191 239H211C214.866 239 218 235.866 218 232C218 228.134 214.866 225 211 225Z" fill="#62A42D"/>
</g>
<g filter="url(#filter16_dii_339_92189)">
<path d="M211 242C216.523 242 221 237.523 221 232C221 226.477 216.523 222 211 222C205.477 222 201 226.477 201 232C201 237.523 205.477 242 211 242Z" fill="#62A42D"/>
</g>
<g opacity="0.5">
<path d="M211 287H191C187.134 287 184 290.134 184 294C184 297.866 187.134 301 191 301H211C214.866 301 218 297.866 218 294C218 290.134 214.866 287 211 287Z" fill="#437EEB"/>
</g>
<g filter="url(#filter17_dii_339_92189)">
<path d="M211 304C216.523 304 221 299.523 221 294C221 288.477 216.523 284 211 284C205.477 284 201 288.477 201 294C201 299.523 205.477 304 211 304Z" fill="#437EEB"/>
</g>
<g opacity="0.5">
<path d="M211 349H191C187.134 349 184 352.134 184 356C184 359.866 187.134 363 191 363H211C214.866 363 218 359.866 218 356C218 352.134 214.866 349 211 349Z" fill="#B00020"/>
</g>
<g filter="url(#filter18_dii_339_92189)">
<path d="M211 366C216.523 366 221 361.523 221 356C221 350.477 216.523 346 211 346C205.477 346 201 350.477 201 356C201 361.523 205.477 366 211 366Z" fill="#B00020"/>
</g>
<g opacity="0.5">
<path d="M211 411H191C187.134 411 184 414.134 184 418C184 421.866 187.134 425 191 425H211C214.866 425 218 421.866 218 418C218 414.134 214.866 411 211 411Z" fill="#E68E00"/>
</g>
<g filter="url(#filter19_dii_339_92189)">
<path d="M211 428C216.523 428 221 423.523 221 418C221 412.477 216.523 408 211 408C205.477 408 201 412.477 201 418C201 423.523 205.477 428 211 428Z" fill="#E68E00"/>
</g>
<g opacity="0.5">
<path d="M211 473H191C187.134 473 184 476.134 184 480C184 483.866 187.134 487 191 487H211C214.866 487 218 483.866 218 480C218 476.134 214.866 473 211 473Z" fill="#0A2241"/>
</g>
<g filter="url(#filter20_dii_339_92189)">
<path d="M211 490C216.523 490 221 485.523 221 480C221 474.477 216.523 470 211 470C205.477 470 201 474.477 201 480C201 485.523 205.477 490 211 490Z" fill="#0A2241"/>
</g>
<g opacity="0.5">
<path d="M211 535H191C187.134 535 184 538.134 184 542C184 545.866 187.134 549 191 549H211C214.866 549 218 545.866 218 542C218 538.134 214.866 535 211 535Z" fill="#7DBE42"/>
</g>
<g filter="url(#filter21_dii_339_92189)">
<path d="M211 552C216.523 552 221 547.523 221 542C221 536.477 216.523 532 211 532C205.477 532 201 536.477 201 542C201 547.523 205.477 552 211 552Z" fill="#7DBE42"/>
</g>
<defs>
<filter id="filter0_dii_339_92189" x="52" y="99" width="22" height="23" filterUnits="userSpaceOnUse" color-interpolation-filters="sRGB">
<feFlood flood-opacity="0" result="BackgroundImageFix"/>
<feColorMatrix in="SourceAlpha" type="matrix" values="0 0 0 0 0 0 0 0 0 0 0 0 0 0 0 0 0 0 127 0" result="hardAlpha"/>
<feOffset dy="2"/>
<feGaussianBlur stdDeviation="0.5"/>
<feColorMatrix type="matrix" values="0 0 0 0 0 0 0 0 0 0 0 0 0 0 0 0 0 0 0.2 0"/>
<feBlend mode="normal" in2="BackgroundImageFix" result="effect1_dropShadow_339_92189"/>
<feBlend mode="normal" in="SourceGraphic" in2="effect1_dropShadow_339_92189" result="shape"/>
<feColorMatrix in="SourceAlpha" type="matrix" values="0 0 0 0 0 0 0 0 0 0 0 0 0 0 0 0 0 0 127 0" result="hardAlpha"/>
<feOffset dy="1"/>
<feGaussianBlur stdDeviation="1.5"/>
<feComposite in2="hardAlpha" operator="arithmetic" k2="-1" k3="1"/>
<feColorMatrix type="matrix" values="0 0 0 0 0 0 0 0 0 0 0 0 0 0 0 0 0 0 0.12 0"/>
<feBlend mode="normal" in2="shape" result="effect2_innerShadow_339_92189"/>
<feColorMatrix in="SourceAlpha" type="matrix" values="0 0 0 0 0 0 0 0 0 0 0 0 0 0 0 0 0 0 127 0" result="hardAlpha"/>
<feOffset dy="1"/>
<feGaussianBlur stdDeviation="0.5"/>
<feComposite in2="hardAlpha" operator="arithmetic" k2="-1" k3="1"/>
<feColorMatrix type="matrix" values="0 0 0 0 0 0 0 0 0 0 0 0 0 0 0 0 0 0 0.14 0"/>
<feBlend mode="normal" in2="effect2_innerShadow_339_92189" result="effect3_innerShadow_339_92189"/>
</filter>
<filter id="filter1_dii_339_92189" x="288" y="99" width="22" height="23" filterUnits="userSpaceOnUse" color-interpolation-filters="sRGB">
<feFlood flood-opacity="0" result="BackgroundImageFix"/>
<feColorMatrix in="SourceAlpha" type="matrix" values="0 0 0 0 0 0 0 0 0 0 0 0 0 0 0 0 0 0 127 0" result="hardAlpha"/>
<feOffset dy="2"/>
<feGaussianBlur stdDeviation="0.5"/>
<feColorMatrix type="matrix" values="0 0 0 0 0 0 0 0 0 0 0 0 0 0 0 0 0 0 0.2 0"/>
<feBlend mode="normal" in2="BackgroundImageFix" result="effect1_dropShadow_339_92189"/>
<feBlend mode="normal" in="SourceGraphic" in2="effect1_dropShadow_339_92189" result="shape"/>
<feColorMatrix in="SourceAlpha" type="matrix" values="0 0 0 0 0 0 0 0 0 0 0 0 0 0 0 0 0 0 127 0" result="hardAlpha"/>
<feOffset dy="1"/>
<feGaussianBlur stdDeviation="1.5"/>
<feComposite in2="hardAlpha" operator="arithmetic" k2="-1" k3="1"/>
<feColorMatrix type="matrix" values="0 0 0 0 0 0 0 0 0 0 0 0 0 0 0 0 0 0 0.12 0"/>
<feBlend mode="normal" in2="shape" result="effect2_innerShadow_339_92189"/>
<feColorMatrix in="SourceAlpha" type="matrix" values="0 0 0 0 0 0 0 0 0 0 0 0 0 0 0 0 0 0 127 0" result="hardAlpha"/>
<feOffset dy="1"/>
<feGaussianBlur stdDeviation="0.5"/>
<feComposite in2="hardAlpha" operator="arithmetic" k2="-1" k3="1"/>
<feColorMatrix type="matrix" values="0 0 0 0 0 0 0 0 0 0 0 0 0 0 0 0 0 0 0.14 0"/>
<feBlend mode="normal" in2="effect2_innerShadow_339_92189" result="effect3_innerShadow_339_92189"/>
</filter>
<filter id="filter2_dii_339_92189" x="288" y="161" width="22" height="23" filterUnits="userSpaceOnUse" color-interpolation-filters="sRGB">
<feFlood flood-opacity="0" result="BackgroundImageFix"/>
<feColorMatrix in="SourceAlpha" type="matrix" values="0 0 0 0 0 0 0 0 0 0 0 0 0 0 0 0 0 0 127 0" result="hardAlpha"/>
<feOffset dy="2"/>
<feGaussianBlur stdDeviation="0.5"/>
<feColorMatrix type="matrix" values="0 0 0 0 0 0 0 0 0 0 0 0 0 0 0 0 0 0 0.2 0"/>
<feBlend mode="normal" in2="BackgroundImageFix" result="effect1_dropShadow_339_92189"/>
<feBlend mode="normal" in="SourceGraphic" in2="effect1_dropShadow_339_92189" result="shape"/>
<feColorMatrix in="SourceAlpha" type="matrix" values="0 0 0 0 0 0 0 0 0 0 0 0 0 0 0 0 0 0 127 0" result="hardAlpha"/>
<feOffset dy="1"/>
<feGaussianBlur stdDeviation="1.5"/>
<feComposite in2="hardAlpha" operator="arithmetic" k2="-1" k3="1"/>
<feColorMatrix type="matrix" values="0 0 0 0 0 0 0 0 0 0 0 0 0 0 0 0 0 0 0.12 0"/>
<feBlend mode="normal" in2="shape" result="effect2_innerShadow_339_92189"/>
<feColorMatrix in="SourceAlpha" type="matrix" values="0 0 0 0 0 0 0 0 0 0 0 0 0 0 0 0 0 0 127 0" result="hardAlpha"/>
<feOffset dy="1"/>
<feGaussianBlur stdDeviation="0.5"/>
<feComposite in2="hardAlpha" operator="arithmetic" k2="-1" k3="1"/>
<feColorMatrix type="matrix" values="0 0 0 0 0 0 0 0 0 0 0 0 0 0 0 0 0 0 0.14 0"/>
<feBlend mode="normal" in2="effect2_innerShadow_339_92189" result="effect3_innerShadow_339_92189"/>
</filter>
<filter id="filter3_dii_339_92189" x="27" y="616" width="18" height="19" filterUnits="userSpaceOnUse" color-interpolation-filters="sRGB">
<feFlood flood-opacity="0" result="BackgroundImageFix"/>
<feColorMatrix in="SourceAlpha" type="matrix" values="0 0 0 0 0 0 0 0 0 0 0 0 0 0 0 0 0 0 127 0" result="hardAlpha"/>
<feOffset dy="2"/>
<feGaussianBlur stdDeviation="0.5"/>
<feColorMatrix type="matrix" values="0 0 0 0 0 0 0 0 0 0 0 0 0 0 0 0 0 0 0.2 0"/>
<feBlend mode="normal" in2="BackgroundImageFix" result="effect1_dropShadow_339_92189"/>
<feBlend mode="normal" in="SourceGraphic" in2="effect1_dropShadow_339_92189" result="shape"/>
<feColorMatrix in="SourceAlpha" type="matrix" values="0 0 0 0 0 0 0 0 0 0 0 0 0 0 0 0 0 0 127 0" result="hardAlpha"/>
<feOffset dy="1"/>
<feGaussianBlur stdDeviation="1.5"/>
<feComposite in2="hardAlpha" operator="arithmetic" k2="-1" k3="1"/>
<feColorMatrix type="matrix" values="0 0 0 0 0 0 0 0 0 0 0 0 0 0 0 0 0 0 0.12 0"/>
<feBlend mode="normal" in2="shape" result="effect2_innerShadow_339_92189"/>
<feColorMatrix in="SourceAlpha" type="matrix" values="0 0 0 0 0 0 0 0 0 0 0 0 0 0 0 0 0 0 127 0" result="hardAlpha"/>
<feOffset dy="1"/>
<feGaussianBlur stdDeviation="0.5"/>
<feComposite in2="hardAlpha" operator="arithmetic" k2="-1" k3="1"/>
<feColorMatrix type="matrix" values="0 0 0 0 0 0 0 0 0 0 0 0 0 0 0 0 0 0 0.14 0"/>
<feBlend mode="normal" in2="effect2_innerShadow_339_92189" result="effect3_innerShadow_339_92189"/>
</filter>
<filter id="filter4_dii_339_92189" x="32" y="161" width="22" height="23" filterUnits="userSpaceOnUse" color-interpolation-filters="sRGB">
<feFlood flood-opacity="0" result="BackgroundImageFix"/>
<feColorMatrix in="SourceAlpha" type="matrix" values="0 0 0 0 0 0 0 0 0 0 0 0 0 0 0 0 0 0 127 0" result="hardAlpha"/>
<feOffset dy="2"/>
<feGaussianBlur stdDeviation="0.5"/>
<feColorMatrix type="matrix" values="0 0 0 0 0 0 0 0 0 0 0 0 0 0 0 0 0 0 0.2 0"/>
<feBlend mode="normal" in2="BackgroundImageFix" result="effect1_dropShadow_339_92189"/>
<feBlend mode="normal" in="SourceGraphic" in2="effect1_dropShadow_339_92189" result="shape"/>
<feColorMatrix in="SourceAlpha" type="matrix" values="0 0 0 0 0 0 0 0 0 0 0 0 0 0 0 0 0 0 127 0" result="hardAlpha"/>
<feOffset dy="1"/>
<feGaussianBlur stdDeviation="1.5"/>
<feComposite in2="hardAlpha" operator="arithmetic" k2="-1" k3="1"/>
<feColorMatrix type="matrix" values="0 0 0 0 0 0 0 0 0 0 0 0 0 0 0 0 0 0 0.12 0"/>
<feBlend mode="normal" in2="shape" result="effect2_innerShadow_339_92189"/>
<feColorMatrix in="SourceAlpha" type="matrix" values="0 0 0 0 0 0 0 0 0 0 0 0 0 0 0 0 0 0 127 0" result="hardAlpha"/>
<feOffset dy="1"/>
<feGaussianBlur stdDeviation="0.5"/>
<feComposite in2="hardAlpha" operator="arithmetic" k2="-1" k3="1"/>
<feColorMatrix type="matrix" values="0 0 0 0 0 0 0 0 0 0 0 0 0 0 0 0 0 0 0.14 0"/>
<feBlend mode="normal" in2="effect2_innerShadow_339_92189" result="effect3_innerShadow_339_92189"/>
</filter>
<filter id="filter5_dii_339_92189" x="52" y="223" width="22" height="23" filterUnits="userSpaceOnUse" color-interpolation-filters="sRGB">
<feFlood flood-opacity="0" result="BackgroundImageFix"/>
<feColorMatrix in="SourceAlpha" type="matrix" values="0 0 0 0 0 0 0 0 0 0 0 0 0 0 0 0 0 0 127 0" result="hardAlpha"/>
<feOffset dy="2"/>
<feGaussianBlur stdDeviation="0.5"/>
<feColorMatrix type="matrix" values="0 0 0 0 0 0 0 0 0 0 0 0 0 0 0 0 0 0 0.2 0"/>
<feBlend mode="normal" in2="BackgroundImageFix" result="effect1_dropShadow_339_92189"/>
<feBlend mode="normal" in="SourceGraphic" in2="effect1_dropShadow_339_92189" result="shape"/>
<feColorMatrix in="SourceAlpha" type="matrix" values="0 0 0 0 0 0 0 0 0 0 0 0 0 0 0 0 0 0 127 0" result="hardAlpha"/>
<feOffset dy="1"/>
<feGaussianBlur stdDeviation="1.5"/>
<feComposite in2="hardAlpha" operator="arithmetic" k2="-1" k3="1"/>
<feColorMatrix type="matrix" values="0 0 0 0 0 0 0 0 0 0 0 0 0 0 0 0 0 0 0.12 0"/>
<feBlend mode="normal" in2="shape" result="effect2_innerShadow_339_92189"/>
<feColorMatrix in="SourceAlpha" type="matrix" values="0 0 0 0 0 0 0 0 0 0 0 0 0 0 0 0 0 0 127 0" result="hardAlpha"/>
<feOffset dy="1"/>
<feGaussianBlur stdDeviation="0.5"/>
<feComposite in2="hardAlpha" operator="arithmetic" k2="-1" k3="1"/>
<feColorMatrix type="matrix" values="0 0 0 0 0 0 0 0 0 0 0 0 0 0 0 0 0 0 0.14 0"/>
<feBlend mode="normal" in2="effect2_innerShadow_339_92189" result="effect3_innerShadow_339_92189"/>
</filter>
<filter id="filter6_dii_339_92189" x="52" y="285" width="22" height="23" filterUnits="userSpaceOnUse" color-interpolation-filters="sRGB">
<feFlood flood-opacity="0" result="BackgroundImageFix"/>
<feColorMatrix in="SourceAlpha" type="matrix" values="0 0 0 0 0 0 0 0 0 0 0 0 0 0 0 0 0 0 127 0" result="hardAlpha"/>
<feOffset dy="2"/>
<feGaussianBlur stdDeviation="0.5"/>
<feColorMatrix type="matrix" values="0 0 0 0 0 0 0 0 0 0 0 0 0 0 0 0 0 0 0.2 0"/>
<feBlend mode="normal" in2="BackgroundImageFix" result="effect1_dropShadow_339_92189"/>
<feBlend mode="normal" in="SourceGraphic" in2="effect1_dropShadow_339_92189" result="shape"/>
<feColorMatrix in="SourceAlpha" type="matrix" values="0 0 0 0 0 0 0 0 0 0 0 0 0 0 0 0 0 0 127 0" result="hardAlpha"/>
<feOffset dy="1"/>
<feGaussianBlur stdDeviation="1.5"/>
<feComposite in2="hardAlpha" operator="arithmetic" k2="-1" k3="1"/>
<feColorMatrix type="matrix" values="0 0 0 0 0 0 0 0 0 0 0 0 0 0 0 0 0 0 0.12 0"/>
<feBlend mode="normal" in2="shape" result="effect2_innerShadow_339_92189"/>
<feColorMatrix in="SourceAlpha" type="matrix" values="0 0 0 0 0 0 0 0 0 0 0 0 0 0 0 0 0 0 127 0" result="hardAlpha"/>
<feOffset dy="1"/>
<feGaussianBlur stdDeviation="0.5"/>
<feComposite in2="hardAlpha" operator="arithmetic" k2="-1" k3="1"/>
<feColorMatrix type="matrix" values="0 0 0 0 0 0 0 0 0 0 0 0 0 0 0 0 0 0 0.14 0"/>
<feBlend mode="normal" in2="effect2_innerShadow_339_92189" result="effect3_innerShadow_339_92189"/>
</filter>
<filter id="filter7_dii_339_92189" x="52" y="347" width="22" height="23" filterUnits="userSpaceOnUse" color-interpolation-filters="sRGB">
<feFlood flood-opacity="0" result="BackgroundImageFix"/>
<feColorMatrix in="SourceAlpha" type="matrix" values="0 0 0 0 0 0 0 0 0 0 0 0 0 0 0 0 0 0 127 0" result="hardAlpha"/>
<feOffset dy="2"/>
<feGaussianBlur stdDeviation="0.5"/>
<feColorMatrix type="matrix" values="0 0 0 0 0 0 0 0 0 0 0 0 0 0 0 0 0 0 0.2 0"/>
<feBlend mode="normal" in2="BackgroundImageFix" result="effect1_dropShadow_339_92189"/>
<feBlend mode="normal" in="SourceGraphic" in2="effect1_dropShadow_339_92189" result="shape"/>
<feColorMatrix in="SourceAlpha" type="matrix" values="0 0 0 0 0 0 0 0 0 0 0 0 0 0 0 0 0 0 127 0" result="hardAlpha"/>
<feOffset dy="1"/>
<feGaussianBlur stdDeviation="1.5"/>
<feComposite in2="hardAlpha" operator="arithmetic" k2="-1" k3="1"/>
<feColorMatrix type="matrix" values="0 0 0 0 0 0 0 0 0 0 0 0 0 0 0 0 0 0 0.12 0"/>
<feBlend mode="normal" in2="shape" result="effect2_innerShadow_339_92189"/>
<feColorMatrix in="SourceAlpha" type="matrix" values="0 0 0 0 0 0 0 0 0 0 0 0 0 0 0 0 0 0 127 0" result="hardAlpha"/>
<feOffset dy="1"/>
<feGaussianBlur stdDeviation="0.5"/>
<feComposite in2="hardAlpha" operator="arithmetic" k2="-1" k3="1"/>
<feColorMatrix type="matrix" values="0 0 0 0 0 0 0 0 0 0 0 0 0 0 0 0 0 0 0.14 0"/>
<feBlend mode="normal" in2="effect2_innerShadow_339_92189" result="effect3_innerShadow_339_92189"/>
</filter>
<filter id="filter8_dii_339_92189" x="52" y="409" width="22" height="23" filterUnits="userSpaceOnUse" color-interpolation-filters="sRGB">
<feFlood flood-opacity="0" result="BackgroundImageFix"/>
<feColorMatrix in="SourceAlpha" type="matrix" values="0 0 0 0 0 0 0 0 0 0 0 0 0 0 0 0 0 0 127 0" result="hardAlpha"/>
<feOffset dy="2"/>
<feGaussianBlur stdDeviation="0.5"/>
<feColorMatrix type="matrix" values="0 0 0 0 0 0 0 0 0 0 0 0 0 0 0 0 0 0 0.2 0"/>
<feBlend mode="normal" in2="BackgroundImageFix" result="effect1_dropShadow_339_92189"/>
<feBlend mode="normal" in="SourceGraphic" in2="effect1_dropShadow_339_92189" result="shape"/>
<feColorMatrix in="SourceAlpha" type="matrix" values="0 0 0 0 0 0 0 0 0 0 0 0 0 0 0 0 0 0 127 0" result="hardAlpha"/>
<feOffset dy="1"/>
<feGaussianBlur stdDeviation="1.5"/>
<feComposite in2="hardAlpha" operator="arithmetic" k2="-1" k3="1"/>
<feColorMatrix type="matrix" values="0 0 0 0 0 0 0 0 0 0 0 0 0 0 0 0 0 0 0.12 0"/>
<feBlend mode="normal" in2="shape" result="effect2_innerShadow_339_92189"/>
<feColorMatrix in="SourceAlpha" type="matrix" values="0 0 0 0 0 0 0 0 0 0 0 0 0 0 0 0 0 0 127 0" result="hardAlpha"/>
<feOffset dy="1"/>
<feGaussianBlur stdDeviation="0.5"/>
<feComposite in2="hardAlpha" operator="arithmetic" k2="-1" k3="1"/>
<feColorMatrix type="matrix" values="0 0 0 0 0 0 0 0 0 0 0 0 0 0 0 0 0 0 0.14 0"/>
<feBlend mode="normal" in2="effect2_innerShadow_339_92189" result="effect3_innerShadow_339_92189"/>
</filter>
<filter id="filter9_dii_339_92189" x="52" y="471" width="22" height="23" filterUnits="userSpaceOnUse" color-interpolation-filters="sRGB">
<feFlood flood-opacity="0" result="BackgroundImageFix"/>
<feColorMatrix in="SourceAlpha" type="matrix" values="0 0 0 0 0 0 0 0 0 0 0 0 0 0 0 0 0 0 127 0" result="hardAlpha"/>
<feOffset dy="2"/>
<feGaussianBlur stdDeviation="0.5"/>
<feColorMatrix type="matrix" values="0 0 0 0 0 0 0 0 0 0 0 0 0 0 0 0 0 0 0.2 0"/>
<feBlend mode="normal" in2="BackgroundImageFix" result="effect1_dropShadow_339_92189"/>
<feBlend mode="normal" in="SourceGraphic" in2="effect1_dropShadow_339_92189" result="shape"/>
<feColorMatrix in="SourceAlpha" type="matrix" values="0 0 0 0 0 0 0 0 0 0 0 0 0 0 0 0 0 0 127 0" result="hardAlpha"/>
<feOffset dy="1"/>
<feGaussianBlur stdDeviation="1.5"/>
<feComposite in2="hardAlpha" operator="arithmetic" k2="-1" k3="1"/>
<feColorMatrix type="matrix" values="0 0 0 0 0 0 0 0 0 0 0 0 0 0 0 0 0 0 0.12 0"/>
<feBlend mode="normal" in2="shape" result="effect2_innerShadow_339_92189"/>
<feColorMatrix in="SourceAlpha" type="matrix" values="0 0 0 0 0 0 0 0 0 0 0 0 0 0 0 0 0 0 127 0" result="hardAlpha"/>
<feOffset dy="1"/>
<feGaussianBlur stdDeviation="0.5"/>
<feComposite in2="hardAlpha" operator="arithmetic" k2="-1" k3="1"/>
<feColorMatrix type="matrix" values="0 0 0 0 0 0 0 0 0 0 0 0 0 0 0 0 0 0 0.14 0"/>
<feBlend mode="normal" in2="effect2_innerShadow_339_92189" result="effect3_innerShadow_339_92189"/>
</filter>
<filter id="filter10_dii_339_92189" x="52" y="533" width="22" height="23" filterUnits="userSpaceOnUse" color-interpolation-filters="sRGB">
<feFlood flood-opacity="0" result="BackgroundImageFix"/>
<feColorMatrix in="SourceAlpha" type="matrix" values="0 0 0 0 0 0 0 0 0 0 0 0 0 0 0 0 0 0 127 0" result="hardAlpha"/>
<feOffset dy="2"/>
<feGaussianBlur stdDeviation="0.5"/>
<feColorMatrix type="matrix" values="0 0 0 0 0 0 0 0 0 0 0 0 0 0 0 0 0 0 0.2 0"/>
<feBlend mode="normal" in2="BackgroundImageFix" result="effect1_dropShadow_339_92189"/>
<feBlend mode="normal" in="SourceGraphic" in2="effect1_dropShadow_339_92189" result="shape"/>
<feColorMatrix in="SourceAlpha" type="matrix" values="0 0 0 0 0 0 0 0 0 0 0 0 0 0 0 0 0 0 127 0" result="hardAlpha"/>
<feOffset dy="1"/>
<feGaussianBlur stdDeviation="1.5"/>
<feComposite in2="hardAlpha" operator="arithmetic" k2="-1" k3="1"/>
<feColorMatrix type="matrix" values="0 0 0 0 0 0 0 0 0 0 0 0 0 0 0 0 0 0 0.12 0"/>
<feBlend mode="normal" in2="shape" result="effect2_innerShadow_339_92189"/>
<feColorMatrix in="SourceAlpha" type="matrix" values="0 0 0 0 0 0 0 0 0 0 0 0 0 0 0 0 0 0 127 0" result="hardAlpha"/>
<feOffset dy="1"/>
<feGaussianBlur stdDeviation="0.5"/>
<feComposite in2="hardAlpha" operator="arithmetic" k2="-1" k3="1"/>
<feColorMatrix type="matrix" values="0 0 0 0 0 0 0 0 0 0 0 0 0 0 0 0 0 0 0.14 0"/>
<feBlend mode="normal" in2="effect2_innerShadow_339_92189" result="effect3_innerShadow_339_92189"/>
</filter>
<filter id="filter11_dii_339_92189" x="180" y="98" width="22" height="23" filterUnits="userSpaceOnUse" color-interpolation-filters="sRGB">
<feFlood flood-opacity="0" result="BackgroundImageFix"/>
<feColorMatrix in="SourceAlpha" type="matrix" values="0 0 0 0 0 0 0 0 0 0 0 0 0 0 0 0 0 0 127 0" result="hardAlpha"/>
<feOffset dy="2"/>
<feGaussianBlur stdDeviation="0.5"/>
<feColorMatrix type="matrix" values="0 0 0 0 0 0 0 0 0 0 0 0 0 0 0 0 0 0 0.2 0"/>
<feBlend mode="normal" in2="BackgroundImageFix" result="effect1_dropShadow_339_92189"/>
<feBlend mode="normal" in="SourceGraphic" in2="effect1_dropShadow_339_92189" result="shape"/>
<feColorMatrix in="SourceAlpha" type="matrix" values="0 0 0 0 0 0 0 0 0 0 0 0 0 0 0 0 0 0 127 0" result="hardAlpha"/>
<feOffset dy="1"/>
<feGaussianBlur stdDeviation="1.5"/>
<feComposite in2="hardAlpha" operator="arithmetic" k2="-1" k3="1"/>
<feColorMatrix type="matrix" values="0 0 0 0 0 0 0 0 0 0 0 0 0 0 0 0 0 0 0.12 0"/>
<feBlend mode="normal" in2="shape" result="effect2_innerShadow_339_92189"/>
<feColorMatrix in="SourceAlpha" type="matrix" values="0 0 0 0 0 0 0 0 0 0 0 0 0 0 0 0 0 0 127 0" result="hardAlpha"/>
<feOffset dy="1"/>
<feGaussianBlur stdDeviation="0.5"/>
<feComposite in2="hardAlpha" operator="arithmetic" k2="-1" k3="1"/>
<feColorMatrix type="matrix" values="0 0 0 0 0 0 0 0 0 0 0 0 0 0 0 0 0 0 0.14 0"/>
<feBlend mode="normal" in2="effect2_innerShadow_339_92189" result="effect3_innerShadow_339_92189"/>
</filter>
<filter id="filter12_dii_339_92189" x="436" y="99" width="22" height="23" filterUnits="userSpaceOnUse" color-interpolation-filters="sRGB">
<feFlood flood-opacity="0" result="BackgroundImageFix"/>
<feColorMatrix in="SourceAlpha" type="matrix" values="0 0 0 0 0 0 0 0 0 0 0 0 0 0 0 0 0 0 127 0" result="hardAlpha"/>
<feOffset dy="2"/>
<feGaussianBlur stdDeviation="0.5"/>
<feColorMatrix type="matrix" values="0 0 0 0 0 0 0 0 0 0 0 0 0 0 0 0 0 0 0.2 0"/>
<feBlend mode="normal" in2="BackgroundImageFix" result="effect1_dropShadow_339_92189"/>
<feBlend mode="normal" in="SourceGraphic" in2="effect1_dropShadow_339_92189" result="shape"/>
<feColorMatrix in="SourceAlpha" type="matrix" values="0 0 0 0 0 0 0 0 0 0 0 0 0 0 0 0 0 0 127 0" result="hardAlpha"/>
<feOffset dy="1"/>
<feGaussianBlur stdDeviation="1.5"/>
<feComposite in2="hardAlpha" operator="arithmetic" k2="-1" k3="1"/>
<feColorMatrix type="matrix" values="0 0 0 0 0 0 0 0 0 0 0 0 0 0 0 0 0 0 0.12 0"/>
<feBlend mode="normal" in2="shape" result="effect2_innerShadow_339_92189"/>
<feColorMatrix in="SourceAlpha" type="matrix" values="0 0 0 0 0 0 0 0 0 0 0 0 0 0 0 0 0 0 127 0" result="hardAlpha"/>
<feOffset dy="1"/>
<feGaussianBlur stdDeviation="0.5"/>
<feComposite in2="hardAlpha" operator="arithmetic" k2="-1" k3="1"/>
<feColorMatrix type="matrix" values="0 0 0 0 0 0 0 0 0 0 0 0 0 0 0 0 0 0 0.14 0"/>
<feBlend mode="normal" in2="effect2_innerShadow_339_92189" result="effect3_innerShadow_339_92189"/>
</filter>
<filter id="filter13_dii_339_92189" x="436" y="161" width="22" height="23" filterUnits="userSpaceOnUse" color-interpolation-filters="sRGB">
<feFlood flood-opacity="0" result="BackgroundImageFix"/>
<feColorMatrix in="SourceAlpha" type="matrix" values="0 0 0 0 0 0 0 0 0 0 0 0 0 0 0 0 0 0 127 0" result="hardAlpha"/>
<feOffset dy="2"/>
<feGaussianBlur stdDeviation="0.5"/>
<feColorMatrix type="matrix" values="0 0 0 0 0 0 0 0 0 0 0 0 0 0 0 0 0 0 0.2 0"/>
<feBlend mode="normal" in2="BackgroundImageFix" result="effect1_dropShadow_339_92189"/>
<feBlend mode="normal" in="SourceGraphic" in2="effect1_dropShadow_339_92189" result="shape"/>
<feColorMatrix in="SourceAlpha" type="matrix" values="0 0 0 0 0 0 0 0 0 0 0 0 0 0 0 0 0 0 127 0" result="hardAlpha"/>
<feOffset dy="1"/>
<feGaussianBlur stdDeviation="1.5"/>
<feComposite in2="hardAlpha" operator="arithmetic" k2="-1" k3="1"/>
<feColorMatrix type="matrix" values="0 0 0 0 0 0 0 0 0 0 0 0 0 0 0 0 0 0 0.12 0"/>
<feBlend mode="normal" in2="shape" result="effect2_innerShadow_339_92189"/>
<feColorMatrix in="SourceAlpha" type="matrix" values="0 0 0 0 0 0 0 0 0 0 0 0 0 0 0 0 0 0 127 0" result="hardAlpha"/>
<feOffset dy="1"/>
<feGaussianBlur stdDeviation="0.5"/>
<feComposite in2="hardAlpha" operator="arithmetic" k2="-1" k3="1"/>
<feColorMatrix type="matrix" values="0 0 0 0 0 0 0 0 0 0 0 0 0 0 0 0 0 0 0.14 0"/>
<feBlend mode="normal" in2="effect2_innerShadow_339_92189" result="effect3_innerShadow_339_92189"/>
</filter>
<filter id="filter14_dii_339_92189" x="175" y="615" width="18" height="19" filterUnits="userSpaceOnUse" color-interpolation-filters="sRGB">
<feFlood flood-opacity="0" result="BackgroundImageFix"/>
<feColorMatrix in="SourceAlpha" type="matrix" values="0 0 0 0 0 0 0 0 0 0 0 0 0 0 0 0 0 0 127 0" result="hardAlpha"/>
<feOffset dy="2"/>
<feGaussianBlur stdDeviation="0.5"/>
<feColorMatrix type="matrix" values="0 0 0 0 0 0 0 0 0 0 0 0 0 0 0 0 0 0 0.2 0"/>
<feBlend mode="normal" in2="BackgroundImageFix" result="effect1_dropShadow_339_92189"/>
<feBlend mode="normal" in="SourceGraphic" in2="effect1_dropShadow_339_92189" result="shape"/>
<feColorMatrix in="SourceAlpha" type="matrix" values="0 0 0 0 0 0 0 0 0 0 0 0 0 0 0 0 0 0 127 0" result="hardAlpha"/>
<feOffset dy="1"/>
<feGaussianBlur stdDeviation="1.5"/>
<feComposite in2="hardAlpha" operator="arithmetic" k2="-1" k3="1"/>
<feColorMatrix type="matrix" values="0 0 0 0 0 0 0 0 0 0 0 0 0 0 0 0 0 0 0.12 0"/>
<feBlend mode="normal" in2="shape" result="effect2_innerShadow_339_92189"/>
<feColorMatrix in="SourceAlpha" type="matrix" values="0 0 0 0 0 0 0 0 0 0 0 0 0 0 0 0 0 0 127 0" result="hardAlpha"/>
<feOffset dy="1"/>
<feGaussianBlur stdDeviation="0.5"/>
<feComposite in2="hardAlpha" operator="arithmetic" k2="-1" k3="1"/>
<feColorMatrix type="matrix" values="0 0 0 0 0 0 0 0 0 0 0 0 0 0 0 0 0 0 0.14 0"/>
<feBlend mode="normal" in2="effect2_innerShadow_339_92189" result="effect3_innerShadow_339_92189"/>
</filter>
<filter id="filter15_dii_339_92189" x="180" y="160" width="22" height="23" filterUnits="userSpaceOnUse" color-interpolation-filters="sRGB">
<feFlood flood-opacity="0" result="BackgroundImageFix"/>
<feColorMatrix in="SourceAlpha" type="matrix" values="0 0 0 0 0 0 0 0 0 0 0 0 0 0 0 0 0 0 127 0" result="hardAlpha"/>
<feOffset dy="2"/>
<feGaussianBlur stdDeviation="0.5"/>
<feColorMatrix type="matrix" values="0 0 0 0 0 0 0 0 0 0 0 0 0 0 0 0 0 0 0.2 0"/>
<feBlend mode="normal" in2="BackgroundImageFix" result="effect1_dropShadow_339_92189"/>
<feBlend mode="normal" in="SourceGraphic" in2="effect1_dropShadow_339_92189" result="shape"/>
<feColorMatrix in="SourceAlpha" type="matrix" values="0 0 0 0 0 0 0 0 0 0 0 0 0 0 0 0 0 0 127 0" result="hardAlpha"/>
<feOffset dy="1"/>
<feGaussianBlur stdDeviation="1.5"/>
<feComposite in2="hardAlpha" operator="arithmetic" k2="-1" k3="1"/>
<feColorMatrix type="matrix" values="0 0 0 0 0 0 0 0 0 0 0 0 0 0 0 0 0 0 0.12 0"/>
<feBlend mode="normal" in2="shape" result="effect2_innerShadow_339_92189"/>
<feColorMatrix in="SourceAlpha" type="matrix" values="0 0 0 0 0 0 0 0 0 0 0 0 0 0 0 0 0 0 127 0" result="hardAlpha"/>
<feOffset dy="1"/>
<feGaussianBlur stdDeviation="0.5"/>
<feComposite in2="hardAlpha" operator="arithmetic" k2="-1" k3="1"/>
<feColorMatrix type="matrix" values="0 0 0 0 0 0 0 0 0 0 0 0 0 0 0 0 0 0 0.14 0"/>
<feBlend mode="normal" in2="effect2_innerShadow_339_92189" result="effect3_innerShadow_339_92189"/>
</filter>
<filter id="filter16_dii_339_92189" x="200" y="222" width="22" height="23" filterUnits="userSpaceOnUse" color-interpolation-filters="sRGB">
<feFlood flood-opacity="0" result="BackgroundImageFix"/>
<feColorMatrix in="SourceAlpha" type="matrix" values="0 0 0 0 0 0 0 0 0 0 0 0 0 0 0 0 0 0 127 0" result="hardAlpha"/>
<feOffset dy="2"/>
<feGaussianBlur stdDeviation="0.5"/>
<feColorMatrix type="matrix" values="0 0 0 0 0 0 0 0 0 0 0 0 0 0 0 0 0 0 0.2 0"/>
<feBlend mode="normal" in2="BackgroundImageFix" result="effect1_dropShadow_339_92189"/>
<feBlend mode="normal" in="SourceGraphic" in2="effect1_dropShadow_339_92189" result="shape"/>
<feColorMatrix in="SourceAlpha" type="matrix" values="0 0 0 0 0 0 0 0 0 0 0 0 0 0 0 0 0 0 127 0" result="hardAlpha"/>
<feOffset dy="1"/>
<feGaussianBlur stdDeviation="1.5"/>
<feComposite in2="hardAlpha" operator="arithmetic" k2="-1" k3="1"/>
<feColorMatrix type="matrix" values="0 0 0 0 0 0 0 0 0 0 0 0 0 0 0 0 0 0 0.12 0"/>
<feBlend mode="normal" in2="shape" result="effect2_innerShadow_339_92189"/>
<feColorMatrix in="SourceAlpha" type="matrix" values="0 0 0 0 0 0 0 0 0 0 0 0 0 0 0 0 0 0 127 0" result="hardAlpha"/>
<feOffset dy="1"/>
<feGaussianBlur stdDeviation="0.5"/>
<feComposite in2="hardAlpha" operator="arithmetic" k2="-1" k3="1"/>
<feColorMatrix type="matrix" values="0 0 0 0 0 0 0 0 0 0 0 0 0 0 0 0 0 0 0.14 0"/>
<feBlend mode="normal" in2="effect2_innerShadow_339_92189" result="effect3_innerShadow_339_92189"/>
</filter>
<filter id="filter17_dii_339_92189" x="200" y="284" width="22" height="23" filterUnits="userSpaceOnUse" color-interpolation-filters="sRGB">
<feFlood flood-opacity="0" result="BackgroundImageFix"/>
<feColorMatrix in="SourceAlpha" type="matrix" values="0 0 0 0 0 0 0 0 0 0 0 0 0 0 0 0 0 0 127 0" result="hardAlpha"/>
<feOffset dy="2"/>
<feGaussianBlur stdDeviation="0.5"/>
<feColorMatrix type="matrix" values="0 0 0 0 0 0 0 0 0 0 0 0 0 0 0 0 0 0 0.2 0"/>
<feBlend mode="normal" in2="BackgroundImageFix" result="effect1_dropShadow_339_92189"/>
<feBlend mode="normal" in="SourceGraphic" in2="effect1_dropShadow_339_92189" result="shape"/>
<feColorMatrix in="SourceAlpha" type="matrix" values="0 0 0 0 0 0 0 0 0 0 0 0 0 0 0 0 0 0 127 0" result="hardAlpha"/>
<feOffset dy="1"/>
<feGaussianBlur stdDeviation="1.5"/>
<feComposite in2="hardAlpha" operator="arithmetic" k2="-1" k3="1"/>
<feColorMatrix type="matrix" values="0 0 0 0 0 0 0 0 0 0 0 0 0 0 0 0 0 0 0.12 0"/>
<feBlend mode="normal" in2="shape" result="effect2_innerShadow_339_92189"/>
<feColorMatrix in="SourceAlpha" type="matrix" values="0 0 0 0 0 0 0 0 0 0 0 0 0 0 0 0 0 0 127 0" result="hardAlpha"/>
<feOffset dy="1"/>
<feGaussianBlur stdDeviation="0.5"/>
<feComposite in2="hardAlpha" operator="arithmetic" k2="-1" k3="1"/>
<feColorMatrix type="matrix" values="0 0 0 0 0 0 0 0 0 0 0 0 0 0 0 0 0 0 0.14 0"/>
<feBlend mode="normal" in2="effect2_innerShadow_339_92189" result="effect3_innerShadow_339_92189"/>
</filter>
<filter id="filter18_dii_339_92189" x="200" y="346" width="22" height="23" filterUnits="userSpaceOnUse" color-interpolation-filters="sRGB">
<feFlood flood-opacity="0" result="BackgroundImageFix"/>
<feColorMatrix in="SourceAlpha" type="matrix" values="0 0 0 0 0 0 0 0 0 0 0 0 0 0 0 0 0 0 127 0" result="hardAlpha"/>
<feOffset dy="2"/>
<feGaussianBlur stdDeviation="0.5"/>
<feColorMatrix type="matrix" values="0 0 0 0 0 0 0 0 0 0 0 0 0 0 0 0 0 0 0.2 0"/>
<feBlend mode="normal" in2="BackgroundImageFix" result="effect1_dropShadow_339_92189"/>
<feBlend mode="normal" in="SourceGraphic" in2="effect1_dropShadow_339_92189" result="shape"/>
<feColorMatrix in="SourceAlpha" type="matrix" values="0 0 0 0 0 0 0 0 0 0 0 0 0 0 0 0 0 0 127 0" result="hardAlpha"/>
<feOffset dy="1"/>
<feGaussianBlur stdDeviation="1.5"/>
<feComposite in2="hardAlpha" operator="arithmetic" k2="-1" k3="1"/>
<feColorMatrix type="matrix" values="0 0 0 0 0 0 0 0 0 0 0 0 0 0 0 0 0 0 0.12 0"/>
<feBlend mode="normal" in2="shape" result="effect2_innerShadow_339_92189"/>
<feColorMatrix in="SourceAlpha" type="matrix" values="0 0 0 0 0 0 0 0 0 0 0 0 0 0 0 0 0 0 127 0" result="hardAlpha"/>
<feOffset dy="1"/>
<feGaussianBlur stdDeviation="0.5"/>
<feComposite in2="hardAlpha" operator="arithmetic" k2="-1" k3="1"/>
<feColorMatrix type="matrix" values="0 0 0 0 0 0 0 0 0 0 0 0 0 0 0 0 0 0 0.14 0"/>
<feBlend mode="normal" in2="effect2_innerShadow_339_92189" result="effect3_innerShadow_339_92189"/>
</filter>
<filter id="filter19_dii_339_92189" x="200" y="408" width="22" height="23" filterUnits="userSpaceOnUse" color-interpolation-filters="sRGB">
<feFlood flood-opacity="0" result="BackgroundImageFix"/>
<feColorMatrix in="SourceAlpha" type="matrix" values="0 0 0 0 0 0 0 0 0 0 0 0 0 0 0 0 0 0 127 0" result="hardAlpha"/>
<feOffset dy="2"/>
<feGaussianBlur stdDeviation="0.5"/>
<feColorMatrix type="matrix" values="0 0 0 0 0 0 0 0 0 0 0 0 0 0 0 0 0 0 0.2 0"/>
<feBlend mode="normal" in2="BackgroundImageFix" result="effect1_dropShadow_339_92189"/>
<feBlend mode="normal" in="SourceGraphic" in2="effect1_dropShadow_339_92189" result="shape"/>
<feColorMatrix in="SourceAlpha" type="matrix" values="0 0 0 0 0 0 0 0 0 0 0 0 0 0 0 0 0 0 127 0" result="hardAlpha"/>
<feOffset dy="1"/>
<feGaussianBlur stdDeviation="1.5"/>
<feComposite in2="hardAlpha" operator="arithmetic" k2="-1" k3="1"/>
<feColorMatrix type="matrix" values="0 0 0 0 0 0 0 0 0 0 0 0 0 0 0 0 0 0 0.12 0"/>
<feBlend mode="normal" in2="shape" result="effect2_innerShadow_339_92189"/>
<feColorMatrix in="SourceAlpha" type="matrix" values="0 0 0 0 0 0 0 0 0 0 0 0 0 0 0 0 0 0 127 0" result="hardAlpha"/>
<feOffset dy="1"/>
<feGaussianBlur stdDeviation="0.5"/>
<feComposite in2="hardAlpha" operator="arithmetic" k2="-1" k3="1"/>
<feColorMatrix type="matrix" values="0 0 0 0 0 0 0 0 0 0 0 0 0 0 0 0 0 0 0.14 0"/>
<feBlend mode="normal" in2="effect2_innerShadow_339_92189" result="effect3_innerShadow_339_92189"/>
</filter>
<filter id="filter20_dii_339_92189" x="200" y="470" width="22" height="23" filterUnits="userSpaceOnUse" color-interpolation-filters="sRGB">
<feFlood flood-opacity="0" result="BackgroundImageFix"/>
<feColorMatrix in="SourceAlpha" type="matrix" values="0 0 0 0 0 0 0 0 0 0 0 0 0 0 0 0 0 0 127 0" result="hardAlpha"/>
<feOffset dy="2"/>
<feGaussianBlur stdDeviation="0.5"/>
<feColorMatrix type="matrix" values="0 0 0 0 0 0 0 0 0 0 0 0 0 0 0 0 0 0 0.2 0"/>
<feBlend mode="normal" in2="BackgroundImageFix" result="effect1_dropShadow_339_92189"/>
<feBlend mode="normal" in="SourceGraphic" in2="effect1_dropShadow_339_92189" result="shape"/>
<feColorMatrix in="SourceAlpha" type="matrix" values="0 0 0 0 0 0 0 0 0 0 0 0 0 0 0 0 0 0 127 0" result="hardAlpha"/>
<feOffset dy="1"/>
<feGaussianBlur stdDeviation="1.5"/>
<feComposite in2="hardAlpha" operator="arithmetic" k2="-1" k3="1"/>
<feColorMatrix type="matrix" values="0 0 0 0 0 0 0 0 0 0 0 0 0 0 0 0 0 0 0.12 0"/>
<feBlend mode="normal" in2="shape" result="effect2_innerShadow_339_92189"/>
<feColorMatrix in="SourceAlpha" type="matrix" values="0 0 0 0 0 0 0 0 0 0 0 0 0 0 0 0 0 0 127 0" result="hardAlpha"/>
<feOffset dy="1"/>
<feGaussianBlur stdDeviation="0.5"/>
<feComposite in2="hardAlpha" operator="arithmetic" k2="-1" k3="1"/>
<feColorMatrix type="matrix" values="0 0 0 0 0 0 0 0 0 0 0 0 0 0 0 0 0 0 0.14 0"/>
<feBlend mode="normal" in2="effect2_innerShadow_339_92189" result="effect3_innerShadow_339_92189"/>
</filter>
<filter id="filter21_dii_339_92189" x="200" y="532" width="22" height="23" filterUnits="userSpaceOnUse" color-interpolation-filters="sRGB">
<feFlood flood-opacity="0" result="BackgroundImageFix"/>
<feColorMatrix in="SourceAlpha" type="matrix" values="0 0 0 0 0 0 0 0 0 0 0 0 0 0 0 0 0 0 127 0" result="hardAlpha"/>
<feOffset dy="2"/>
<feGaussianBlur stdDeviation="0.5"/>
<feColorMatrix type="matrix" values="0 0 0 0 0 0 0 0 0 0 0 0 0 0 0 0 0 0 0.2 0"/>
<feBlend mode="normal" in2="BackgroundImageFix" result="effect1_dropShadow_339_92189"/>
<feBlend mode="normal" in="SourceGraphic" in2="effect1_dropShadow_339_92189" result="shape"/>
<feColorMatrix in="SourceAlpha" type="matrix" values="0 0 0 0 0 0 0 0 0 0 0 0 0 0 0 0 0 0 127 0" result="hardAlpha"/>
<feOffset dy="1"/>
<feGaussianBlur stdDeviation="1.5"/>
<feComposite in2="hardAlpha" operator="arithmetic" k2="-1" k3="1"/>
<feColorMatrix type="matrix" values="0 0 0 0 0 0 0 0 0 0 0 0 0 0 0 0 0 0 0.12 0"/>
<feBlend mode="normal" in2="shape" result="effect2_innerShadow_339_92189"/>
<feColorMatrix in="SourceAlpha" type="matrix" values="0 0 0 0 0 0 0 0 0 0 0 0 0 0 0 0 0 0 127 0" result="hardAlpha"/>
<feOffset dy="1"/>
<feGaussianBlur stdDeviation="0.5"/>
<feComposite in2="hardAlpha" operator="arithmetic" k2="-1" k3="1"/>
<feColorMatrix type="matrix" values="0 0 0 0 0 0 0 0 0 0 0 0 0 0 0 0 0 0 0.14 0"/>
<feBlend mode="normal" in2="effect2_innerShadow_339_92189" result="effect3_innerShadow_339_92189"/>
</filter>
</defs>
</svg>
