<?xml version="1.0" encoding="utf-8"?>
<!-- Generator: Adobe Illustrator 16.0.0, SVG Export Plug-In . SVG Version: 6.00 Build 0)  -->
<!DOCTYPE svg PUBLIC "-//W3C//DTD SVG 1.1//EN" "http://www.w3.org/Graphics/SVG/1.1/DTD/svg11.dtd">
<svg version="1.1" id="图层_1" xmlns="http://www.w3.org/2000/svg" xmlns:xlink="http://www.w3.org/1999/xlink" x="0px" y="0px"
	 width="536.032px" height="813.333px" viewBox="0 0 536.032 813.333" enable-background="new 0 0 536.032 813.333"
	 xml:space="preserve">
<g id="图层_1_1_">
	<path fill="#E1E1E1" d="M417.911,652.313c-4.121-0.455-12.734-0.746-21.045-2.495c-13.256-2.783-21.992,1.606-30.857,12.104
		c-49.793,58.979-121.721,59.367-171.823,0.825c-9.305-10.872-17.158-13.082-30.713-8.909
		c-56.647,17.422-100.962,7.758-113.611-49.541c-2.935-13.269-14.269-21.888-25.821-30.13c-26.34-18.794-24.426-61.532-11.86-87.241
		c12.03-24.619,37.38-36.17,67.339-27.115c15.928,4.813,26.058,3.184,38.551-8.459c34.001-31.719,70.325-33.547,109.173-6.186
		c12.357,8.703,19.491,8.23,30.291-2.188c38.662-37.278,77.96-42.203,122.953-15.443c12.902,7.674,25.656,7.146,39.342,7.168
		c62.398,0.089,111.541,49.204,110.883,110.275C530.067,604.184,481.438,652.338,417.911,652.313z"/>
	<path fill="#F8EFEA" d="M440.159,683.926c-0.104-0.029-0.205-0.059-0.309-0.088c0.053,0.09,0.104,0.182,0.152,0.271
		C440.12,684.102,440.17,684.042,440.159,683.926z"/>
	<g>
		<g>
			<path d="M27.561,491.791c0.299,0.652,0.576,1.263,0.873,1.912c-1.886,0.911-3.242,2.205-3.574,4.396
				c0.274,0.088,0.517,0.162,0.757,0.242c3.298,1.092,4.435,5.402,2.026,7.805c-1.386,1.382-3.113,1.781-4.97,1.227
				c-1.964-0.588-3.008-2.074-3.37-4.023c-0.951-5.109,2.523-10.228,7.721-11.434C27.177,491.879,27.328,491.844,27.561,491.791z"/>
			<path d="M40.017,491.786c0.313,0.674,0.598,1.279,0.897,1.921c-1.904,0.888-3.233,2.204-3.602,4.409
				c0.273,0.08,0.54,0.148,0.801,0.238c2.102,0.703,3.359,2.625,3.248,4.955c-0.1,2.047-1.518,3.644-3.699,4.158
				c-2.091,0.492-4.236-0.414-5.23-2.318c-1.305-2.502-1.023-5.043,0.095-7.51C33.98,494.43,36.538,492.563,40.017,491.786z"/>
		</g>
		<g>
			<path d="M505.008,507.611c-0.299-0.653-0.576-1.263-0.873-1.912c1.887-0.91,3.24-2.207,3.574-4.396
				c-0.273-0.088-0.516-0.162-0.756-0.242c-3.299-1.094-4.438-5.402-2.029-7.805c1.387-1.383,3.113-1.781,4.973-1.228
				c1.963,0.588,3.006,2.075,3.369,4.024c0.951,5.109-2.523,10.228-7.721,11.433C505.391,507.522,505.243,507.557,505.008,507.611z"
				/>
			<path d="M492.551,507.614c-0.313-0.672-0.598-1.277-0.896-1.919c1.904-0.888,3.234-2.205,3.602-4.41
				c-0.273-0.079-0.541-0.149-0.801-0.235c-2.104-0.707-3.357-2.627-3.248-4.957c0.1-2.047,1.518-3.645,3.697-4.158
				c2.094-0.492,4.238,0.414,5.232,2.318c1.307,2.502,1.023,5.043-0.094,7.51C498.588,504.971,496.032,506.838,492.551,507.614z"/>
		</g>
	</g>
	<ellipse fill="#E1E1E1" cx="363.442" cy="711.356" rx="20.49" ry="15.305"/>
	<ellipse fill="#E1E1E1" cx="405.938" cy="734.052" rx="11.49" ry="8.991"/>
	<path fill="#E1E1E1" d="M117.668,247.512c4.115-0.456,12.719-0.747,21.017-2.496c13.239-2.783,21.965,1.607,30.821,12.104
		c49.731,58.98,121.571,59.368,171.612,0.826c9.293-10.872,17.137-13.082,30.674-8.91c56.578,17.422,100.838,7.758,113.473-49.54
		c2.932-13.269,14.25-21.888,25.789-30.13c26.309-18.794,24.396-61.532,11.848-87.241c-12.018-24.619-37.334-36.171-67.258-27.115
		c-15.906,4.813-26.025,3.183-38.504-8.46c-33.959-31.719-70.236-33.546-109.037-6.185c-12.344,8.703-19.469,8.231-30.254-2.187
		C239.234,0.898,199.985-4.026,155.047,22.733c-12.888,7.674-25.626,7.146-39.295,7.168C53.43,29.992,4.35,79.105,5.006,140.178
		C5.647,199.382,54.216,247.535,117.668,247.512z"/>
	<ellipse fill="#E1E1E1" cx="172.068" cy="306.554" rx="20.466" ry="15.305"/>
	<ellipse fill="#E1E1E1" cx="129.624" cy="329.25" rx="11.477" ry="8.991"/>
	<g>
		<g>
			<path d="M33.272,87.958c0.299,0.652,0.576,1.262,0.873,1.912c-1.886,0.911-3.242,2.205-3.574,4.396
				c0.274,0.088,0.517,0.162,0.757,0.241c3.298,1.093,4.435,5.403,2.026,7.805c-1.386,1.382-3.113,1.782-4.97,1.227
				c-1.964-0.588-3.008-2.075-3.37-4.023c-0.951-5.11,2.523-10.228,7.721-11.434C32.887,88.047,33.039,88.012,33.272,87.958z"/>
			<path d="M45.728,87.953c0.313,0.673,0.598,1.279,0.897,1.921c-1.904,0.887-3.233,2.204-3.602,4.409
				c0.273,0.08,0.54,0.149,0.801,0.238c2.102,0.704,3.359,2.625,3.248,4.955c-0.1,2.048-1.518,3.644-3.699,4.159
				c-2.091,0.492-4.236-0.415-5.23-2.319c-1.305-2.502-1.023-5.042,0.095-7.51C39.691,90.598,42.249,88.729,45.728,87.953z"/>
		</g>
		<g>
			<path d="M510.719,103.778c-0.299-0.653-0.576-1.262-0.873-1.912c1.887-0.91,3.24-2.207,3.574-4.396
				c-0.273-0.088-0.516-0.161-0.756-0.241c-3.299-1.094-4.438-5.403-2.029-7.805c1.387-1.383,3.113-1.782,4.973-1.228
				c1.963,0.588,3.006,2.075,3.369,4.024c0.951,5.11-2.523,10.228-7.721,11.433C511.102,103.688,510.954,103.725,510.719,103.778z"
				/>
			<path d="M498.26,103.781c-0.313-0.672-0.596-1.278-0.895-1.919c1.904-0.887,3.232-2.205,3.602-4.41
				c-0.273-0.079-0.541-0.149-0.801-0.235c-2.105-0.707-3.359-2.627-3.248-4.957c0.1-2.048,1.518-3.645,3.697-4.159
				c2.092-0.492,4.236,0.415,5.23,2.319c1.307,2.502,1.025,5.043-0.094,7.51C504.299,101.139,501.743,103.006,498.26,103.781z"/>
		</g>
	</g>
	<g>
		<path fill="#F3BD95" d="M86.199,314.763c0.531,0.813,1.516,3.657,1.516,3.657c0.058,0.584,0.26,1.155,0.393,1.733
			c1.119,4.861,0.938,9.729,0.063,14.599c-2.719,8.963-7.536,16.257-16.203,20.546c-0.69,0.343-1.538,0.668-1.89,1.515
			c-3.688,0.699-7.348,0.548-10.736-1.095c-6.682-3.24-12.392-7.59-15.422-14.694c-0.456-1.069-0.928-1.729-2.31-1.978
			c-3.31-0.593-5.98-5.771-4.786-8.924c0.389-1.023,1.155-1.782,2.385-1.73c0.464,0.02,1.399-0.179,1.222,0.49
			c-0.31,1.165,0.407,0.871,0.892,0.825c0.966-0.093,1.729,0.261,2.575,1.221c0-1.155-0.025-1.963,0.004-2.77
			c0.206-5.7,1.552-10.943,5.942-14.999c2.621-2.42,3.998-5.213,2.384-8.806c-0.061-0.136,0.082-0.364,0.147-0.613
			c1.018,0.485,1.506,1.295,1.965,2.157c0.458,0.86,1.147,1.463,2.191,1.158c3.338-0.974,6.788-1.254,10.641-1.605
			c-2.622-2.479-2.356-5.192-1.432-7.918c0.387-1.137,0.191-2.074-0.392-2.987c-1.524-2.391-1.485-4.801-0.195-7.257
			c0.75,0.037,1.501,0.074,2.251,0.11c-0.742,1.641-2.334,3.193-0.909,5.143c1.651,2.259,1.885,4.491,0.801,7.119
			c-1.038,2.517,1.381,5.986,4.089,6.138c5.62,0.316,10.51,1.973,13.602,7.098C84.986,312.896,85.668,313.95,86.199,314.763z
			 M68.877,347.725c1.064,0.181,2.212-0.163,3.339-0.577c1.48-0.545,0.984-1.828,1.005-2.882c0.022-1.12-0.854-1.037-1.6-1.043
			c-2.759-0.02-5.519,0.094-8.264-0.395c-0.66-0.117-1.746-0.449-2.021,0.354c-0.32,0.937,0.229,1.952,1.107,2.482
			C64.364,346.823,66.323,347.96,68.877,347.725z M60.25,327.449c-0.012-2.294-0.886-3.757-2.163-3.633
			c-1.959,0.191-2.216,1.812-2.339,3.307c-0.156,1.894,1.082,3.692,2.367,3.5C60.058,330.331,60.137,328.715,60.25,327.449z
			 M80.562,327.501c0.027-2.145-0.857-3.616-2.097-3.695c-1.345-0.086-2.561,1.495-2.425,3.444c0.104,1.481,0.318,3.303,2.256,3.323
			C80.255,330.594,80.357,328.786,80.562,327.501z M58.74,318.488c-2.627-0.172-4.841,0.004-6.966,0.789
			c-0.554,0.205-1.198,0.531-0.986,1.272c0.232,0.814,0.852,0.271,1.3,0.204c3.097-0.466,6.201-0.793,9.322-0.3
			c0.717,0.113,1.209-0.007,1.323-0.751c0.112-0.732-0.359-1.155-1.021-1.195C60.598,318.438,59.477,318.488,58.74,318.488z
			 M85.51,320.642c-3.241-3.195-7.189-2.045-10.939-2.075c-0.545-0.004-0.918,0.524-0.806,1.14c0.135,0.742,0.618,0.839,1.332,0.768
			c1.48-0.147,2.976-0.243,4.461-0.207C81.543,320.317,83.525,320.51,85.51,320.642z"/>
		<path fill="#DE9F5F" d="M65.153,287.287c-1.29,2.456-1.329,4.866,0.195,7.257c0.583,0.914,0.778,1.851,0.392,2.987
			c-0.925,2.726-1.19,5.438,1.432,7.918c-3.853,0.351-7.303,0.631-10.641,1.605c-1.044,0.305-1.733-0.297-2.191-1.158
			c-0.459-0.862-0.947-1.672-1.965-2.157c-0.065,0.25-0.208,0.478-0.147,0.613c1.614,3.593,0.237,6.386-2.384,8.806
			c-4.391,4.056-5.736,9.298-5.942,14.999c-0.029,0.807-0.004,1.614-0.004,2.77c-0.847-0.96-1.609-1.313-2.575-1.221
			c-0.484,0.046-1.201,0.34-0.892-0.825c0.178-0.669-0.758-0.471-1.222-0.49c-1.229-0.052-1.996,0.707-2.385,1.73
			c-1.194,3.153,1.477,8.331,4.786,8.924c1.382,0.247,1.854,0.908,2.31,1.978c3.03,7.104,8.74,11.454,15.422,14.694
			c3.389,1.643,7.048,1.794,10.736,1.095c0.005,0.735,0.01,1.472,0.015,2.207c-2.234,1.447-4.849,1.383-7.333,1.806
			c-1.823,0.311-5.631,3.216-5.688,4.786c-0.055,1.513-0.994,1.915-2.04,2.285c-1.269,0.449-2.594,0.716-3.959,0.669
			c-4.095-0.25-7.953-1.363-11.706-3.001c-4.951-2.16-5.985-6.646-6.623-11.223c-0.775-5.562-1.547-11.15-1.448-16.789
			c0.173-9.899,1.514-19.558,5.598-28.73c1.484-3.335,2.163-7.02,4.572-9.952c0.626-0.761,1.24-1.502,2.035-2.063
			c3.763-2.656,7.426-5.479,11.351-7.87C57.952,287.047,61.589,287.044,65.153,287.287z"/>
		<path fill="#266691" d="M78.671,367.599c2.206,0.114,4.343,0.451,6.122,1.926c2.097,3.394,2.607,7.127,2.286,11.011
			c-0.61,7.386-1.266,14.767-1.901,22.149c-13.73,0.021-27.46,0.042-41.189,0.063c0.334-4.806,2.145-9.318,2.83-14.04
			c0.924-6.348,0.905-12.523-5.35-16.62c3.211-1.059,6.422-2.116,9.633-3.174c1.045,1.241,0.408,2.7,0.445,4.039
			c0.288,10.203,6.098,15.669,16.203,15.14c4.978-0.261,8.956-4.366,9.115-9.379c0.134-4.182-1.25-7.929-3.238-11.509
			C75.399,366.163,76.957,367.888,78.671,367.599z"/>
		<path fill="#E1E1E1" d="M43.988,402.748c13.729-0.021,27.459-0.042,41.189-0.063c3.273,0.045,6.547,0.063,9.819,0.148
			c1.233,0.033,1.552-0.466,1.756-1.674c0.295-1.751-1.183-3.034-0.894-4.696c3.846,0.904,7.819,1.335,11.407,3.18
			c1.356,0.697,2.905,1.337,2.873,3.094c-0.029,1.591-1.392,2.257-2.727,2.922c-4.553,2.27-9.488,3.165-14.415,3.859
			c-10.917,1.539-21.926,2.093-32.944,1.82c-8.142-0.201-16.266-0.785-24.343-2.058c-4.54-0.714-8.961-1.685-13.247-3.31
			c-0.35-0.133-0.728-0.229-1.036-0.43c-1.006-0.655-2.192-1.314-2.274-2.612c-0.094-1.468,1.185-2.201,2.268-2.827
			c3.426-1.98,7.2-2.832,11.105-3.194c-0.116,0.955-0.29,1.906-0.339,2.864c-0.13,2.559,0.329,3.046,2.825,3.04
			C38.003,402.808,40.995,402.771,43.988,402.748z"/>
		<path fill="#F3BD95" d="M73.627,367.205c1.988,3.58,3.372,7.327,3.238,11.509c-0.159,5.013-4.138,9.118-9.115,9.379
			c-10.105,0.529-15.915-4.937-16.203-15.14c-0.037-1.339,0.6-2.798-0.445-4.039c-0.008-0.117-0.017-0.233-0.028-0.35
			c1.365,0.047,2.69-0.22,3.959-0.669c1.046-0.37,1.985-0.772,2.04-2.285c0.057-1.57,3.864-4.476,5.688-4.786
			c2.484-0.423,5.099-0.358,7.333-1.806c0.009,2.161,0.044,4.323,0.014,6.483c-0.016,1.079,0.294,1.713,1.512,1.637
			C72.283,367.097,72.957,367.179,73.627,367.205z"/>
		<path fill="#DE9F5F" d="M71.594,287.855c1.786,0.37,3.643,1.415,5.229,2.188c0,0,10.75,5.5,15.125,14.125
			s4.667,27.379,4.667,27.379c0.979,7.656,1.282,15.352,1.47,23.066c0.114,4.675-2.032,7.558-6.058,9.193
			c-2.821,1.146-5.75,2.159-8.906,1.937c-0.008-0.488,0.212-0.878,0.59-1.15c3.581-2.586,4.47-6.625,5.146-10.511
			c0.96-5.518,0.628-11.16,0.535-16.754c-0.016-0.949,0.074-2.146-1.222-2.578c0.874-4.87,1.056-9.737-0.063-14.599
			c-0.133-0.578-0.444-1.274-0.502-1.858c0,0-1.404-3.525-1.955-4.375c-0.551-0.85-0.664-1.024-0.664-1.024
			c-3.092-5.125-7.981-6.782-13.602-7.098c-2.708-0.152-5.127-3.622-4.089-6.138c1.084-2.628,0.851-4.86-0.801-7.119
			c-1.425-1.95,0.167-3.502,0.909-5.143C67.404,287.397,70.5,287.733,71.594,287.855z"/>
		<path fill="#F3BD95" d="M43.988,402.748c-2.993,0.023-5.985,0.06-8.978,0.064c-2.496,0.006-2.955-0.481-2.825-3.04
			c0.049-0.958,0.223-1.909,0.339-2.864c0.232-6.217,0.976-12.382,1.868-18.531c0.481-3.317,3.62-6.1,7.076-6.289
			c6.255,4.097,6.273,10.272,5.35,16.62C46.133,393.43,44.322,397.942,43.988,402.748z"/>
		<path fill="#C45E3F" d="M88.171,334.751c1.296,0.432,1.206,1.629,1.222,2.578c0.093,5.594,0.425,11.236-0.535,16.754
			c-0.676,3.886-1.564,7.925-5.146,10.511c-0.378,0.272-0.598,0.662-0.59,1.15c-1.494,0.592-3.412,0.168-4.451,1.854
			c-1.714,0.289-3.271-1.436-5.044-0.394c-0.67-0.026-1.344-0.108-2.009-0.066c-1.218,0.076-1.527-0.558-1.512-1.637
			c0.03-2.16-0.005-4.322-0.014-6.483c-0.005-0.735-0.01-1.472-0.015-2.207c0.352-0.847,1.199-1.172,1.89-1.515
			C80.635,351.008,85.452,343.714,88.171,334.751z"/>
		<path fill="#F3BD95" d="M95.859,396.463c-0.289,1.662,1.188,2.945,0.894,4.696c-0.204,1.208-0.522,1.707-1.756,1.674
			c-3.272-0.086-6.546-0.104-9.819-0.148c0.636-7.383,1.291-14.764,1.901-22.149c0.321-3.884-0.189-7.617-2.286-11.011
			c1.39-0.318,2.264,0.648,3.134,1.396c3.423,2.945,5.021,6.752,5.558,11.224C94.06,386.942,95.05,391.691,95.859,396.463z"/>
		<path fill="#F8EFEA" d="M68.877,347.725c-2.554,0.235-4.513-0.901-6.434-2.06c-0.878-0.53-1.428-1.546-1.107-2.482
			c0.275-0.804,1.361-0.472,2.021-0.354c2.745,0.488,5.505,0.375,8.264,0.395c0.745,0.006,1.622-0.077,1.6,1.043
			c-0.021,1.054,0.476,2.337-1.005,2.882C71.089,347.562,69.941,347.905,68.877,347.725z"/>
		<path fill="#7C4427" d="M60.25,327.449c-0.112,1.266-0.191,2.882-2.135,3.174c-1.285,0.192-2.523-1.606-2.367-3.5
			c0.123-1.496,0.38-3.115,2.339-3.307C59.364,323.692,60.238,325.155,60.25,327.449z"/>
		<path fill="#7C4427" d="M80.562,327.501c-0.205,1.285-0.308,3.093-2.266,3.072c-1.938-0.021-2.152-1.842-2.256-3.323
			c-0.136-1.949,1.08-3.53,2.425-3.444C79.705,323.885,80.59,325.356,80.562,327.501z"/>
		<path fill="#7C4427" d="M58.74,318.488c0.737,0,1.858-0.049,2.972,0.019c0.662,0.04,1.134,0.463,1.021,1.195
			c-0.114,0.744-0.606,0.864-1.323,0.751c-3.121-0.493-6.226-0.167-9.322,0.3c-0.448,0.067-1.067,0.61-1.3-0.204
			c-0.212-0.742,0.433-1.068,0.986-1.272C53.899,318.493,56.113,318.316,58.74,318.488z"/>
		<path fill="#7C4427" d="M85.51,320.642c-1.984-0.131-3.967-0.325-5.952-0.374c-1.485-0.036-2.98,0.06-4.461,0.207
			c-0.714,0.071-1.197-0.026-1.332-0.768c-0.112-0.616,0.261-1.145,0.806-1.14C78.32,318.596,82.268,317.447,85.51,320.642z"/>
	</g>
</g>
<g id="图层_2">
	<g>
		<path fill="#425E0B" d="M515.766,795.297c-0.318-5.75-1.029-11.511-0.859-17.246c0.209-7.021-3.496-10.904-9.324-13.302
			c-4.631-1.903-9.432-3.387-14.16-5.047c-1.27-0.444-2.736-1.44-3.771-1.11c-0.979,0.311-0.596,2.262-0.975,3.463
			c-1.592,5.017-4.945,8.123-10.006,9.36c-3.322,0.813-6.734,0.87-10.059,0.236c-5.979-1.142-11.381-4.437-11.84-14.234
			c-7.764,2.581-16.273,3.32-21.551,10.772c-1.459,2.061-2.313,4.303-2.672,6.83c-0.879,6.162-1.434,12.371-2.688,18.479
			c-0.068,0.818-0.08,1.646-0.213,2.455c-0.559,3.396-0.572,3.396,2.738,3.396c27.002-0.004,54.006-0.021,81.01-0.004
			C515.549,799.35,515.549,799.416,515.766,795.297z"/>
		<path fill="#F3BD95" d="M478.999,751.522c0.434-1.701,0.199-3.436,0.197-5.15c-0.002-1.496,0.42-2.352,1.881-3.136
			c4.783-2.57,9.205-5.63,11.193-11.087c0.104-0.28,0.275-0.543,0.338-0.831c0.672-3.214,1.336-6.101,4.617-8.197
			c3.158-2.017,3.119-6.519,0.67-9.474c-0.863-1.043-0.512-2.116-0.646-3.189c-0.824,0.569,0.125,2.331-1.578,2.321
			c-2.002-0.013-3.135,1.192-3.906,2.874c-0.324,0.707-0.678,1.414-1.646,1.097c-0.945-0.309-0.572-1.139-0.514-1.726
			c0.326-3.206,0.627-6.422,1.141-9.602c0.273-1.693-0.223-2.726-1.676-3.5c-2.635-1.406-2.621-1.432-0.873-3.72
			c1.648-2.155,1.666-3.465-0.01-5.644c-2.326-3.023-4.635-5.317-9.244-4.857c-5.777,0.576-11.699,0.156-17.518-0.309
			c-3.941-0.314-6.473,1.096-8.682,4.201c-2.672,3.756-2.861,3.668,0.191,7.103c0.975,1.092,1.307,1.894-0.451,2.291
			c-3.205,0.728-3.889,2.968-3.902,5.892c-0.014,2.524,0.33,5.086-0.344,7.586c0.59,5.647,1.154,11.299,1.775,16.942
			c0.293,2.647,2.381,4.248,3.871,6.153c2.561,3.281,4.813,6.895,8.725,8.869c0.721,0.363,0.861,1.166,0.848,1.969
			c-0.025,1.353-0.045,2.707,0.006,4.06c0.059,1.521-0.354,2.466-2.043,2.929c-2.969,0.814-2.613,2.563-1.68,5.899
			c1.424,5.088,5.375,6.444,10.15,6.5c4.146,0.048,8.135-0.209,11.043-3.752c1.418-1.728,1.994-3.778,2.301-5.933
			c0.158-1.143-0.633-1.623-1.512-1.94c-1.627-0.588-2.662-1.619-2.789-3.413c-3.91-4.461-9.697-3.813-15.1-5.098
			c1.592-1.205,2.836-0.305,4.061-0.434c3.215-0.34,6.33-0.881,9.27-2.271c1.326-0.627,1.605-0.063,1.605,1.236
			C478.768,747.961,478.43,749.766,478.999,751.522z M459.385,705.514c-0.912-0.041-1.826-0.082-2.736-0.123
			c-1.547,0.233-3.096,0.468-4.641,0.701c-0.676,0.104-1.51,0.727-1.859-0.402c-0.303-0.979,0.277-1.695,1.137-1.873
			c2.254-0.469,4.455-1.35,6.828-1.053c0.891,0.142,1.887-0.308,2.658,0.48c0.68,0.396,2.025-0.768,2.119,0.743
			c0.047,0.709,0.041,1.967-1.314,1.901C460.842,705.854,460.118,705.645,459.385,705.514z M477.352,705.613
			c-0.475,0-1.594-0.019-2.709,0.005c-0.975,0.02-1.219-0.67-1.467-1.4c-0.285-0.843,0.291-1.148,0.891-1.213
			c3.725-0.396,7.438-0.517,11.008,0.951c0.725,0.299,1.08,0.803,0.807,1.587c-0.254,0.728-0.795,0.701-1.457,0.589
			C482.299,705.768,480.176,705.324,477.352,705.613z M474.03,731.665c-2.367,3.038-4.977,3.979-8.055,3.544
			c-2.176-0.307-4.215-0.985-4.486-3.978C465.459,732.479,469.428,732.279,474.03,731.665z M480.569,712.49
			c-0.021,0.097-0.115,0.84-0.35,1.536c-0.502,1.49-2.215,1.839-3.285,0.707c-1.186-1.25-1.162-4.313,0.016-5.624
			c1.084-1.205,2.09-0.96,2.975,0.182C480.489,710.018,480.643,710.918,480.569,712.49z M455.317,711.942
			c-0.018-1.956,1.049-3.742,2.311-3.582c1.889,0.24,2.24,1.791,2.26,3.352c0.023,1.619-0.199,3.282-2.164,3.682
			C456.44,715.652,455.333,713.955,455.317,711.942z M493.303,715.049c0.816-1.063,1.646-0.914,2.41-0.322
			c1.061,0.818,2.256,1.629,1.902,3.271c-0.273,1.273-3.387,4.463-4.336,4.527c-0.416,0.027-0.969-0.151-0.756-0.482
			c0.83-1.283,0.189-3.531,2.461-3.861c0.588-0.086,1.24-0.006,1.338-0.854c0.088-0.758-0.473-1.071-0.979-1.362
			C494.776,715.639,494.143,715.42,493.303,715.049z"/>
		<path fill="#C45E3F" d="M448.237,714.465c0.674-2.5,0.33-5.062,0.344-7.586c0.016-2.924,0.697-5.164,3.902-5.892
			c1.758-0.397,1.426-1.199,0.451-2.291c-3.053-3.435-2.863-3.347-0.191-7.103c2.209-3.105,4.738-4.517,8.682-4.201
			c5.818,0.465,11.74,0.885,17.518,0.309c4.609-0.46,6.918,1.834,9.244,4.857c1.676,2.179,1.658,3.486,0.01,5.644
			c-1.748,2.288-1.762,2.313,0.873,3.72c1.453,0.774,1.949,1.807,1.676,3.5c-0.514,3.18-0.813,6.396-1.141,9.602
			c-0.061,0.587-0.432,1.417,0.514,1.727c0.969,0.316,1.322-0.391,1.646-1.098c0.771-1.682,1.904-2.887,3.906-2.874
			c1.703,0.01,0.754-1.752,1.578-2.321c0.676-4.287,1.338-8.578,2.033-12.863c0.742-4.559-0.291-8.469-4.031-11.438
			c-0.979-0.776-1.107-1.89-1.127-3.045c-0.07-4.155-1.693-6.44-5.676-7.826c-1.525-0.53-2.82-1.354-3.943-2.483
			c-3.703-3.723-8.258-4.586-13.105-2.475c-3.232,1.408-5.422,0.309-5.709-3.201c-0.189-2.322-1.094-1.754-2.301-0.975
			c-2.389,1.54-2.941,3.318-2.172,6.867c0.045,0.033,0.1,0.061,0.135,0.104c0.014,0.02-0.012,0.072-0.018,0.109
			c-0.031-0.078-0.059-0.156-0.088-0.234c-1.84,0.146-2.541-1.289-3.334-2.498c-0.758-1.15-1.355-1.363-2.688-0.572
			c-2.555,1.518-2.609,3.898-2.678,6.449c-1.574-0.867-1.102-2.41-1.514-3.779c-2.02,0.695-3.01,2.252-3.762,4.041
			c-0.041,0.305-0.084,0.609-0.127,0.914c0.01,0.289,0.02,0.576,0.029,0.865c0.24,1.359-0.234,2.793,0.418,4.111
			c0.67,1.271,1.1,2.784-0.018,3.781c-2.9,2.588-2.822,5.771-2.258,9.119c0.77,4.563,0.742,9.232,1.854,13.754
			C447.6,710.924,447.885,712.703,448.237,714.465z"/>
		<path fill="#E1E1E1" d="M515.766,795.297c-0.219,4.118-0.219,4.053-4.367,4.051c-27.006-0.018-54.008-0.002-81.012,0.004
			c-3.311,0-3.297,0-2.736-3.397c0.133-0.81,0.145-1.637,0.213-2.455c-4.99,0.021-9.807,0.937-14.379,2.955
			c-1.166,0.515-2.445,1.251-2.486,2.625c-0.037,1.254,1.256,1.728,2.291,2.206c5.162,2.396,10.723,3.18,16.27,3.906
			c8.666,1.137,17.379,1.572,26.117,1.969c10.797,0.49,21.582,0.346,32.361,0.199c7.141-0.098,14.287-0.932,21.396-1.74
			c6.277-0.715,12.615-1.297,18.607-3.559c1.648-0.621,3.914-1.131,3.738-3.272c-0.158-1.937-2.264-2.58-4.016-3.043
			c-2.523-0.668-5.021-1.425-7.609-1.864C518.364,793.576,516.596,792.831,515.766,795.297z"/>
		<path fill="#DE9F5F" d="M478.999,751.522c-0.566-1.756-0.23-3.561-0.23-5.338c0-1.299-0.279-1.864-1.604-1.237
			c-2.939,1.392-6.057,1.933-9.27,2.272c-1.225,0.129-2.471-0.772-4.063,0.433c5.402,1.286,11.189,0.637,15.102,5.098
			C478.954,752.338,478.975,751.93,478.999,751.522z"/>
		<path fill="#C45E3F" d="M477.352,705.613c2.822-0.289,4.945,0.153,7.07,0.519c0.662,0.112,1.205,0.139,1.457-0.589
			c0.273-0.784-0.08-1.288-0.807-1.587c-3.568-1.468-7.281-1.35-11.008-0.951c-0.598,0.063-1.174,0.37-0.889,1.213
			c0.246,0.73,0.492,1.42,1.465,1.4C475.76,705.596,476.879,705.613,477.352,705.613z"/>
		<path fill="#F8EFEA" d="M474.03,731.665c-4.602,0.614-8.57,0.814-12.541-0.434c0.271,2.99,2.311,3.671,4.486,3.978
			C469.053,735.643,471.663,734.703,474.03,731.665z"/>
		<path fill="#7C4427" d="M480.569,712.49c0.074-1.571-0.08-2.474-0.645-3.199c-0.887-1.142-1.893-1.387-2.977-0.182
			c-1.178,1.312-1.199,4.374-0.014,5.624c1.07,1.132,2.783,0.783,3.285-0.707C480.454,713.33,480.547,712.586,480.569,712.49z"/>
		<path fill="#7C4427" d="M455.317,711.942c0.016,2.013,1.123,3.71,2.404,3.449c1.965-0.397,2.189-2.062,2.164-3.68
			c-0.02-1.562-0.369-3.111-2.26-3.353C456.366,708.2,455.299,709.986,455.317,711.942z"/>
		<path fill="#DE9F5F" d="M493.303,715.049c0.84,0.371,1.473,0.59,2.043,0.916c0.506,0.289,1.064,0.604,0.979,1.361
			c-0.1,0.85-0.75,0.77-1.34,0.854c-2.271,0.33-1.631,2.58-2.459,3.863c-0.213,0.33,0.34,0.51,0.756,0.481
			c0.947-0.065,4.063-3.255,4.336-4.527c0.352-1.644-0.844-2.452-1.902-3.272C494.95,714.135,494.122,713.987,493.303,715.049z"/>
		<path fill="#C45E3F" d="M458.114,702.764c-2.373-0.297-4.574,0.584-6.828,1.053c-0.857,0.178-1.439,0.895-1.137,1.873
			c0.352,1.129,1.186,0.507,1.859,0.402c1.545-0.233,3.094-0.468,4.641-0.699C457.038,704.461,458.194,703.958,458.114,702.764z"/>
		<path fill="#C45E3F" d="M458.114,702.764c0.08,1.193-1.076,1.697-1.465,2.629c0.91,0.039,1.824,0.08,2.736,0.121
			c0.297-0.856,1.395-1.225,1.387-2.27C460,702.457,459.004,702.905,458.114,702.764z"/>
		<path fill="#C45E3F" d="M460.772,703.245c0.008,1.045-1.09,1.412-1.387,2.27c0.73,0.131,1.455,0.34,2.191,0.375
			c1.355,0.065,1.359-1.191,1.314-1.9C462.797,702.479,461.452,703.641,460.772,703.245z"/>
		<path fill="#F8EFEA" d="M461.247,672.995c0.029,0.078,0.057,0.156,0.088,0.234c0.006-0.037,0.031-0.09,0.018-0.109
			c-0.035-0.043-0.09-0.068-0.135-0.104L461.247,672.995z"/>
	</g>
	<g>
		<path d="M58.563,521.862h1.776v16.8h-1.776V521.862z"/>
		<path d="M66.554,521.106c0.24,0.248,0.36,0.556,0.36,0.924c0,0.191-0.028,0.396-0.084,0.611c-0.056,0.217-0.132,0.469-0.228,0.756
			l-1.032,3.313h-1.152l0.84-3.455c-0.272-0.08-0.488-0.229-0.648-0.445c-0.16-0.215-0.24-0.475-0.24-0.778
			c0-0.386,0.12-0.696,0.36-0.937c0.24-0.24,0.544-0.36,0.912-0.36C66.01,520.734,66.315,520.858,66.554,521.106z"/>
		<path d="M90.014,527.309c0.903,0.912,1.356,2.256,1.356,4.033v7.319h-1.705v-7.151c0-1.313-0.315-2.313-0.947-3
			c-0.633-0.688-1.523-1.033-2.676-1.033c-1.313,0-2.345,0.404-3.096,1.213c-0.753,0.809-1.129,1.925-1.129,3.349v6.624h-1.703
			v-7.15c0-1.313-0.316-2.313-0.949-3c-0.632-0.688-1.531-1.033-2.699-1.033c-1.297,0-2.324,0.404-3.084,1.213
			c-0.76,0.808-1.141,1.924-1.141,3.348v6.624h-1.704V526.04h1.631v2.305c0.448-0.769,1.072-1.359,1.873-1.776
			c0.799-0.415,1.719-0.623,2.76-0.623c1.056,0,1.972,0.226,2.748,0.672c0.775,0.446,1.355,1.112,1.74,1.991
			c0.463-0.831,1.131-1.483,2.004-1.956c0.871-0.472,1.867-0.707,2.988-0.707C87.867,525.942,89.11,526.397,90.014,527.309z"/>
		<path d="M102.734,538.338c-0.937-0.297-1.668-0.668-2.196-1.117l0.769-1.344c0.527,0.416,1.191,0.756,1.991,1.021
			c0.8,0.264,1.632,0.396,2.496,0.396c1.152,0,2.004-0.181,2.556-0.541c0.553-0.359,0.828-0.867,0.828-1.523
			c0-0.463-0.152-0.827-0.455-1.092c-0.305-0.265-0.688-0.463-1.152-0.601c-0.465-0.136-1.08-0.269-1.848-0.396
			c-1.025-0.191-1.849-0.387-2.473-0.588c-0.624-0.199-1.156-0.539-1.596-1.021c-0.44-0.479-0.66-1.146-0.66-1.991
			c0-1.057,0.439-1.921,1.32-2.593c0.879-0.672,2.104-1.008,3.672-1.008c0.816,0,1.632,0.106,2.447,0.323
			c0.816,0.215,1.488,0.5,2.017,0.853l-0.744,1.368c-1.04-0.721-2.28-1.08-3.72-1.08c-1.088,0-1.908,0.191-2.461,0.574
			c-0.551,0.386-0.827,0.89-0.827,1.514c0,0.479,0.155,0.864,0.468,1.15c0.313,0.289,0.699,0.502,1.164,0.638
			c0.464,0.138,1.104,0.274,1.92,0.42c1.008,0.19,1.816,0.384,2.424,0.576c0.607,0.19,1.129,0.521,1.561,0.983
			c0.432,0.465,0.647,1.104,0.647,1.92c0,1.104-0.46,1.979-1.38,2.629c-0.92,0.646-2.195,0.972-3.828,0.972
			C104.65,538.782,103.67,538.635,102.734,538.338z"/>
		<path d="M125.017,532.877h-10.56c0.096,1.313,0.601,2.372,1.512,3.182c0.912,0.808,2.063,1.211,3.456,1.211
			c0.783,0,1.504-0.141,2.16-0.42c0.656-0.279,1.225-0.691,1.704-1.235l0.96,1.104c-0.561,0.672-1.26,1.185-2.1,1.535
			c-0.84,0.354-1.765,0.528-2.772,0.528c-1.296,0-2.444-0.276-3.444-0.828s-1.779-1.315-2.34-2.292
			c-0.561-0.977-0.84-2.078-0.84-3.313c0-1.232,0.268-2.336,0.805-3.313c0.535-0.977,1.271-1.736,2.207-2.279
			c0.936-0.545,1.988-0.815,3.156-0.815s2.216,0.271,3.145,0.815c0.928,0.543,1.655,1.299,2.184,2.269
			c0.527,0.968,0.792,2.075,0.792,3.323L125.017,532.877z M115.861,528.57c-0.824,0.776-1.291,1.788-1.403,3.036h8.952
			c-0.112-1.248-0.58-2.26-1.404-3.036c-0.824-0.776-1.852-1.164-3.084-1.164C117.705,527.406,116.685,527.793,115.861,528.57z"/>
		<path d="M138.733,527.322c0.937,0.92,1.404,2.26,1.404,4.021v7.319h-1.704v-7.151c0-1.313-0.328-2.313-0.984-3
			c-0.656-0.688-1.592-1.033-2.808-1.033c-1.36,0-2.437,0.404-3.228,1.214c-0.793,0.808-1.188,1.924-1.188,3.348v6.624h-1.704
			v-12.624h1.632v2.328c0.464-0.769,1.108-1.362,1.933-1.788c0.823-0.424,1.779-0.636,2.867-0.636
			C136.537,525.942,137.797,526.402,138.733,527.322z"/>
		<path d="M151.417,537.895c-0.32,0.287-0.716,0.508-1.188,0.658c-0.472,0.152-0.963,0.229-1.476,0.229
			c-1.185,0-2.097-0.319-2.735-0.96c-0.641-0.641-0.961-1.544-0.961-2.712v-7.634h-2.256v-1.438h2.256v-2.76h1.705v2.76h3.84v1.438
			h-3.84v7.537c0,0.752,0.188,1.324,0.563,1.717c0.376,0.392,0.915,0.588,1.62,0.588c0.352,0,0.691-0.057,1.02-0.168
			c0.329-0.112,0.612-0.271,0.852-0.48L151.417,537.895z"/>
		<path d="M154.488,522.918c-0.24-0.24-0.359-0.529-0.359-0.865c0-0.318,0.119-0.6,0.359-0.84c0.24-0.24,0.536-0.359,0.889-0.359
			c0.352,0,0.648,0.115,0.888,0.349c0.24,0.231,0.36,0.509,0.36,0.828c0,0.353-0.12,0.647-0.36,0.888
			c-0.239,0.24-0.536,0.36-0.888,0.36C155.024,523.278,154.728,523.158,154.488,522.918z M154.512,526.038h1.704v12.624h-1.704
			V526.038z"/>
		<path d="M167.617,537.895c-0.32,0.287-0.717,0.508-1.188,0.658c-0.472,0.152-0.964,0.229-1.476,0.229
			c-1.185,0-2.097-0.319-2.736-0.96c-0.641-0.641-0.96-1.544-0.96-2.712v-7.634h-2.256v-1.438h2.256v-2.76h1.704v2.76h3.84v1.438
			h-3.84v7.537c0,0.752,0.188,1.324,0.564,1.717c0.375,0.392,0.915,0.588,1.619,0.588c0.352,0,0.691-0.057,1.02-0.168
			c0.329-0.112,0.613-0.271,0.853-0.48L167.617,537.895z"/>
		<path d="M170.688,522.918c-0.24-0.24-0.36-0.529-0.36-0.865c0-0.318,0.12-0.6,0.36-0.84c0.239-0.24,0.536-0.359,0.888-0.359
			s0.648,0.115,0.889,0.349c0.241,0.233,0.359,0.509,0.359,0.828c0,0.353-0.119,0.647-0.359,0.888c-0.24,0.24-0.537,0.36-0.889,0.36
			S170.927,523.158,170.688,522.918z M170.713,526.038h1.703v12.624h-1.703V526.038z"/>
		<path d="M187.776,526.038l-5.616,12.624h-1.752l-5.592-12.624h1.775l4.729,10.752l4.776-10.752H187.776z"/>
		<path d="M200.808,532.877h-10.561c0.096,1.313,0.601,2.372,1.512,3.182c0.912,0.808,2.064,1.211,3.457,1.211
			c0.783,0,1.504-0.141,2.16-0.42c0.655-0.279,1.224-0.691,1.703-1.235l0.961,1.104c-0.561,0.672-1.261,1.185-2.101,1.535
			c-0.84,0.354-1.765,0.528-2.772,0.528c-1.295,0-2.443-0.276-3.443-0.828s-1.78-1.315-2.34-2.292
			c-0.561-0.977-0.84-2.078-0.84-3.313c0-1.232,0.268-2.336,0.804-3.313c0.536-0.977,1.272-1.736,2.208-2.279
			c0.936-0.545,1.988-0.815,3.156-0.815s2.215,0.271,3.144,0.815c0.928,0.543,1.655,1.299,2.185,2.269
			c0.527,0.968,0.791,2.075,0.791,3.323L200.808,532.877z M191.652,528.57c-0.824,0.776-1.292,1.788-1.404,3.036h8.952
			c-0.112-1.248-0.58-2.26-1.403-3.036c-0.824-0.776-1.853-1.164-3.084-1.164C193.496,527.406,192.476,527.793,191.652,528.57z"/>
		<path d="M218.808,527.178c0.879,0.824,1.319,2.043,1.319,3.66v7.823h-1.632v-1.968c-0.384,0.656-0.947,1.168-1.691,1.535
			c-0.744,0.369-1.629,0.553-2.652,0.553c-1.408,0-2.528-0.336-3.36-1.008s-1.248-1.561-1.248-2.664
			c0-1.072,0.388-1.936,1.164-2.592s2.013-0.984,3.708-0.984h4.008v-0.768c0-1.088-0.304-1.916-0.912-2.484
			c-0.607-0.568-1.496-0.852-2.664-0.852c-0.8,0-1.568,0.131-2.304,0.396s-1.368,0.628-1.896,1.093l-0.769-1.273
			c0.64-0.543,1.408-0.963,2.304-1.26c0.896-0.295,1.84-0.442,2.832-0.442C216.664,525.942,217.927,526.354,218.808,527.178z
			 M216.888,536.778c0.688-0.439,1.199-1.076,1.535-1.908v-2.064h-3.959c-2.16,0-3.24,0.754-3.24,2.258
			c0,0.734,0.279,1.314,0.84,1.738c0.56,0.426,1.344,0.637,2.352,0.637C215.376,537.438,216.2,537.219,216.888,536.778z"/>
		<path d="M234.48,526.746c0.96,0.536,1.712,1.292,2.256,2.269c0.543,0.977,0.816,2.088,0.816,3.336s-0.273,2.359-0.816,3.336
			c-0.544,0.977-1.296,1.736-2.256,2.279c-0.96,0.545-2.032,0.816-3.217,0.816c-1.055,0-2.004-0.225-2.844-0.672
			c-0.84-0.448-1.516-1.096-2.027-1.944v2.496h-1.633v-17.808h1.705v7.584c0.527-0.816,1.203-1.436,2.027-1.86
			c0.824-0.424,1.748-0.636,2.771-0.636C232.448,525.942,233.52,526.209,234.48,526.746z M233.545,536.658
			c0.719-0.408,1.283-0.987,1.691-1.739c0.408-0.753,0.611-1.609,0.611-2.568c0-0.961-0.203-1.815-0.611-2.567
			c-0.408-0.752-0.973-1.332-1.691-1.739c-0.721-0.408-1.521-0.611-2.4-0.611c-0.896,0-1.701,0.203-2.412,0.611
			c-0.713,0.407-1.271,0.987-1.68,1.739c-0.409,0.752-0.612,1.606-0.612,2.567c0,0.959,0.204,1.815,0.612,2.568
			c0.408,0.752,0.967,1.331,1.68,1.739c0.711,0.408,1.516,0.612,2.412,0.612C232.023,537.27,232.824,537.065,233.545,536.658z"/>
		<path d="M242.904,537.954c-0.977-0.552-1.744-1.314-2.305-2.292c-0.56-0.976-0.84-2.079-0.84-3.312c0-1.233,0.28-2.336,0.84-3.313
			c0.561-0.976,1.328-1.735,2.305-2.278c0.976-0.545,2.072-0.816,3.288-0.816c1.216,0,2.312,0.271,3.288,0.816
			c0.976,0.543,1.74,1.303,2.292,2.278c0.552,0.978,0.827,2.08,0.827,3.313c0,1.232-0.275,2.336-0.827,3.312
			c-0.552,0.978-1.316,1.74-2.292,2.292c-0.977,0.553-2.072,0.828-3.288,0.828C244.976,538.782,243.88,538.506,242.904,537.954z
			 M248.604,536.658c0.712-0.408,1.268-0.987,1.668-1.739c0.399-0.753,0.6-1.609,0.6-2.568c0-0.961-0.2-1.815-0.6-2.567
			s-0.956-1.332-1.668-1.739c-0.712-0.408-1.517-0.611-2.412-0.611c-0.896,0-1.7,0.203-2.412,0.611
			c-0.712,0.407-1.272,0.987-1.681,1.739c-0.407,0.752-0.611,1.606-0.611,2.567c0,0.959,0.204,1.815,0.611,2.568
			c0.408,0.752,0.969,1.331,1.681,1.739c0.712,0.408,1.516,0.612,2.412,0.612S247.892,537.065,248.604,536.658z"/>
		<path d="M267.456,526.038v12.624h-1.632v-2.304c-0.448,0.768-1.064,1.363-1.848,1.787c-0.785,0.425-1.681,0.637-2.688,0.637
			c-1.647,0-2.948-0.46-3.899-1.38c-0.953-0.921-1.429-2.269-1.429-4.044v-7.32h1.704v7.152c0,1.328,0.328,2.336,0.984,3.023
			c0.656,0.688,1.592,1.031,2.808,1.031c1.328,0,2.376-0.404,3.144-1.212c0.769-0.808,1.152-1.933,1.152-3.372v-6.624
			L267.456,526.038L267.456,526.038z"/>
		<path d="M278.879,537.895c-0.319,0.287-0.715,0.508-1.188,0.658c-0.472,0.152-0.963,0.229-1.477,0.229
			c-1.184,0-2.096-0.319-2.734-0.96c-0.641-0.641-0.961-1.544-0.961-2.712v-7.634h-2.256v-1.438h2.256v-2.76h1.705v2.76h3.84v1.438
			h-3.84v7.537c0,0.752,0.188,1.324,0.563,1.717c0.377,0.392,0.916,0.588,1.621,0.588c0.352,0,0.69-0.057,1.02-0.168
			c0.328-0.112,0.611-0.271,0.852-0.48L278.879,537.895z"/>
		<path d="M307.739,527.309c0.902,0.912,1.355,2.256,1.355,4.033v7.319h-1.705v-7.151c0-1.313-0.314-2.313-0.945-3
			c-0.634-0.688-1.523-1.033-2.677-1.033c-1.313,0-2.345,0.404-3.097,1.213s-1.129,1.925-1.129,3.349v6.624h-1.703v-7.15
			c0-1.313-0.315-2.313-0.948-3c-0.632-0.688-1.531-1.033-2.699-1.033c-1.297,0-2.323,0.404-3.084,1.213
			c-0.76,0.808-1.142,1.924-1.142,3.348v6.624h-1.702V526.04h1.631v2.305c0.448-0.769,1.071-1.359,1.873-1.776
			c0.799-0.415,1.719-0.623,2.76-0.623c1.056,0,1.972,0.226,2.748,0.672c0.774,0.446,1.354,1.112,1.74,1.991
			c0.463-0.831,1.131-1.483,2.004-1.956c0.871-0.472,1.866-0.707,2.987-0.707C305.592,525.942,306.834,526.397,307.739,527.309z"/>
		<path d="M324.094,526.038l-6.313,14.137c-0.512,1.185-1.104,2.023-1.775,2.521c-0.672,0.495-1.479,0.743-2.424,0.743
			c-0.609,0-1.176-0.096-1.705-0.287c-0.527-0.191-0.982-0.48-1.367-0.864l0.791-1.272c0.643,0.642,1.408,0.961,2.307,0.961
			c0.574,0,1.066-0.159,1.477-0.479c0.406-0.319,0.787-0.864,1.139-1.632l0.553-1.225l-5.641-12.601h1.775l4.752,10.728
			l4.754-10.728L324.094,526.038L324.094,526.038z"/>
		<path fill="#FF7B00" d="M342.827,526.518c0.982,0.543,1.756,1.313,2.314,2.305c0.563,0.992,0.842,2.137,0.842,3.432
			c0,1.297-0.279,2.444-0.842,3.444c-0.559,1-1.332,1.772-2.314,2.315c-0.982,0.545-2.102,0.815-3.35,0.815
			c-1.727,0-3.096-0.575-4.104-1.728v6.216h-3v-17.472h2.857v1.68c0.494-0.607,1.105-1.064,1.836-1.368
			c0.727-0.304,1.531-0.456,2.41-0.456C340.725,525.702,341.844,525.973,342.827,526.518z M341.868,535.158
			c0.711-0.735,1.066-1.704,1.066-2.903c0-1.201-0.355-2.168-1.066-2.904c-0.713-0.735-1.621-1.104-2.727-1.104
			c-0.719,0-1.365,0.164-1.941,0.492s-1.033,0.796-1.369,1.402c-0.336,0.609-0.504,1.313-0.504,2.113
			c0,0.799,0.168,1.504,0.504,2.111s0.793,1.076,1.369,1.404s1.225,0.49,1.941,0.49
			C340.247,536.262,341.155,535.895,341.868,535.158z"/>
		<path fill="#FF7B00" d="M356.254,525.702v2.855c-0.256-0.047-0.488-0.071-0.695-0.071c-1.168,0-2.08,0.34-2.734,1.021
			c-0.656,0.68-0.984,1.659-0.984,2.939v6.216h-3v-12.815h2.855v1.871C352.557,526.374,354.079,525.702,356.254,525.702z"/>
		<path fill="#FF7B00" d="M358.944,523.217c-0.369-0.344-0.553-0.771-0.553-1.283c0-0.512,0.184-0.939,0.553-1.284
			c0.367-0.345,0.822-0.517,1.367-0.517s1,0.164,1.367,0.492s0.553,0.74,0.553,1.236c0,0.527-0.18,0.973-0.539,1.332
			s-0.82,0.539-1.381,0.539C359.766,523.733,359.311,523.563,358.944,523.217z M358.799,525.846h3v12.815h-3V525.846z"/>
		<path fill="#FF7B00" d="M377.735,525.846l-5.496,12.815h-3.098l-5.494-12.815h3.119l3.984,9.504l4.104-9.504H377.735z"/>
		<path fill="#FF7B00" d="M388.426,527.057c1,0.904,1.5,2.27,1.5,4.093v7.513h-2.832v-1.561c-0.367,0.561-0.893,0.988-1.57,1.283
			c-0.682,0.297-1.5,0.444-2.461,0.444c-0.959,0-1.801-0.164-2.52-0.491c-0.721-0.328-1.277-0.783-1.668-1.369
			c-0.393-0.582-0.588-1.242-0.588-1.979c0-1.152,0.428-2.076,1.283-2.771c0.854-0.695,2.203-1.043,4.043-1.043h3.313v-0.193
			c0-0.895-0.268-1.584-0.805-2.063c-0.535-0.48-1.332-0.721-2.387-0.721c-0.721,0-1.43,0.111-2.125,0.336s-1.283,0.536-1.764,0.936
			l-1.178-2.184c0.672-0.512,1.48-0.904,2.426-1.176c0.943-0.271,1.943-0.408,3-0.408
			C385.983,525.702,387.426,526.154,388.426,527.057z M385.69,536.129c0.584-0.344,0.996-0.836,1.236-1.476v-1.488h-3.098
			c-1.729,0-2.592,0.568-2.592,1.704c0,0.544,0.217,0.977,0.648,1.296c0.432,0.32,1.031,0.479,1.799,0.479
			C384.438,536.647,385.106,536.475,385.69,536.129z"/>
		<path fill="#FF7B00" d="M396.19,537.99c-1.057-0.56-1.881-1.34-2.473-2.34s-0.889-2.132-0.889-3.396
			c0-1.265,0.297-2.393,0.889-3.385s1.412-1.768,2.459-2.328c1.049-0.561,2.244-0.84,3.588-0.84c1.266,0,2.373,0.256,3.324,0.768
			c0.953,0.514,1.668,1.248,2.148,2.209l-2.305,1.344c-0.367-0.592-0.826-1.035-1.381-1.331c-0.551-0.298-1.154-0.444-1.811-0.444
			c-1.121,0-2.049,0.364-2.785,1.092c-0.736,0.729-1.104,1.7-1.104,2.916c0,1.217,0.363,2.188,1.094,2.916
			c0.727,0.729,1.658,1.092,2.795,1.092c0.656,0,1.26-0.146,1.813-0.442s1.012-0.74,1.379-1.332l2.307,1.344
			c-0.496,0.96-1.223,1.7-2.172,2.22c-0.953,0.521-2.055,0.78-3.303,0.78C398.438,538.83,397.247,538.551,396.19,537.99z"/>
		<path fill="#FF7B00" d="M419.663,525.846l-6,13.849c-0.561,1.392-1.24,2.372-2.041,2.938c-0.799,0.568-1.768,0.854-2.902,0.854
			c-0.641,0-1.271-0.104-1.896-0.313c-0.623-0.209-1.137-0.496-1.535-0.863l1.199-2.209c0.289,0.271,0.629,0.488,1.02,0.647
			c0.395,0.16,0.789,0.24,1.189,0.24c0.527,0,0.963-0.138,1.307-0.408c0.346-0.272,0.66-0.729,0.949-1.368l0.215-0.504
			l-5.592-12.863h3.121l4.031,9.479l4.057-9.479H419.663z"/>
		<path fill="#FF7B00" d="M437.385,527.057c1,0.904,1.5,2.27,1.5,4.093v7.513h-2.832v-1.561c-0.367,0.561-0.893,0.988-1.57,1.283
			c-0.682,0.297-1.5,0.444-2.461,0.444c-0.959,0-1.801-0.164-2.521-0.491c-0.719-0.328-1.275-0.783-1.668-1.369
			c-0.391-0.582-0.588-1.242-0.588-1.979c0-1.152,0.428-2.076,1.285-2.771c0.854-0.695,2.203-1.043,4.043-1.043h3.313v-0.193
			c0-0.895-0.268-1.584-0.805-2.063c-0.535-0.48-1.332-0.721-2.387-0.721c-0.721,0-1.43,0.111-2.125,0.336s-1.283,0.536-1.764,0.936
			l-1.176-2.184c0.672-0.512,1.479-0.904,2.424-1.176c0.943-0.271,1.943-0.408,3-0.408
			C434.942,525.702,436.385,526.154,437.385,527.057z M434.651,536.129c0.584-0.344,0.996-0.836,1.234-1.476v-1.488h-3.096
			c-1.729,0-2.592,0.568-2.592,1.704c0,0.544,0.215,0.977,0.646,1.296c0.434,0.32,1.033,0.479,1.801,0.479
			C433.399,536.647,434.067,536.475,434.651,536.129z"/>
		<path fill="#FF7B00" d="M453.885,527.118c0.977,0.943,1.465,2.344,1.465,4.199v7.345h-3v-6.96c0-1.119-0.264-1.964-0.793-2.531
			c-0.525-0.568-1.279-0.854-2.256-0.854c-1.104,0-1.977,0.333-2.615,0.996c-0.641,0.664-0.961,1.621-0.961,2.869v6.479h-3v-12.814
			h2.857v1.654c0.494-0.592,1.119-1.039,1.871-1.344s1.6-0.456,2.545-0.456C451.614,525.702,452.911,526.174,453.885,527.118z"/>
		<path fill="#FF7B00" d="M471.838,520.854v17.809h-2.881v-1.656c-0.496,0.608-1.107,1.064-1.836,1.368s-1.531,0.456-2.412,0.456
			c-1.23,0-2.34-0.271-3.322-0.816c-0.984-0.543-1.758-1.314-2.316-2.314c-0.561-1-0.84-2.148-0.84-3.443
			c0-1.297,0.279-2.439,0.84-3.433c0.561-0.992,1.332-1.761,2.316-2.304c0.982-0.545,2.092-0.816,3.322-0.816
			c0.85,0,1.625,0.145,2.328,0.432c0.705,0.289,1.305,0.721,1.801,1.297v-6.576h3V520.854z M467.014,535.77
			c0.576-0.327,1.031-0.795,1.367-1.403c0.336-0.606,0.504-1.313,0.504-2.112s-0.168-1.502-0.504-2.111
			c-0.336-0.607-0.791-1.075-1.367-1.403s-1.225-0.492-1.943-0.492c-0.721,0-1.369,0.164-1.945,0.492
			c-0.574,0.328-1.031,0.796-1.367,1.403c-0.336,0.609-0.504,1.313-0.504,2.111s0.168,1.506,0.504,2.112
			c0.336,0.608,0.793,1.076,1.367,1.403c0.576,0.328,1.225,0.492,1.945,0.492C465.79,536.262,466.438,536.098,467.014,535.77z"/>
		<path fill="#FF7B00" d="M70.347,549.655v17.809h-2.88v-1.656c-0.496,0.607-1.108,1.063-1.836,1.367
			c-0.729,0.305-1.532,0.457-2.412,0.457c-1.232,0-2.34-0.271-3.324-0.816c-0.984-0.543-1.756-1.315-2.316-2.315
			s-0.84-2.147-0.84-3.444c0-1.295,0.28-2.438,0.84-3.432c0.56-0.992,1.332-1.76,2.316-2.304s2.092-0.815,3.324-0.815
			c0.848,0,1.624,0.143,2.328,0.432c0.704,0.287,1.304,0.721,1.8,1.295v-6.574h3V549.655z M65.523,564.571
			c0.576-0.328,1.032-0.796,1.368-1.404c0.336-0.607,0.504-1.313,0.504-2.111c0-0.801-0.168-1.504-0.504-2.111
			s-0.792-1.076-1.368-1.404s-1.224-0.492-1.944-0.492c-0.72,0-1.368,0.164-1.944,0.492c-0.576,0.328-1.032,0.797-1.368,1.404
			s-0.504,1.313-0.504,2.111c0,0.801,0.168,1.504,0.504,2.111s0.792,1.076,1.368,1.404c0.576,0.328,1.224,0.49,1.944,0.49
			C64.299,565.063,64.947,564.899,65.523,564.571z"/>
		<path fill="#FF7B00" d="M83.51,555.859c1,0.903,1.5,2.269,1.5,4.092v7.513h-2.832v-1.561c-0.368,0.561-0.892,0.986-1.571,1.283
			c-0.681,0.295-1.5,0.443-2.461,0.443c-0.959,0-1.799-0.164-2.52-0.492c-0.721-0.326-1.276-0.783-1.668-1.367
			c-0.393-0.584-0.588-1.243-0.588-1.979c0-1.151,0.428-2.075,1.283-2.772c0.856-0.694,2.205-1.043,4.045-1.043h3.312v-0.191
			c0-0.896-0.269-1.584-0.804-2.064c-0.536-0.479-1.332-0.72-2.389-0.72c-0.719,0-1.428,0.112-2.123,0.337
			c-0.696,0.225-1.284,0.535-1.764,0.936l-1.177-2.184c0.672-0.513,1.479-0.904,2.424-1.177c0.945-0.272,1.944-0.407,3-0.407
			C81.066,554.502,82.51,554.955,83.51,555.859z M80.775,564.93c0.584-0.344,0.996-0.836,1.235-1.476v-1.487h-3.096
			c-1.728,0-2.593,0.567-2.593,1.703c0,0.545,0.217,0.977,0.648,1.297c0.432,0.319,1.032,0.479,1.801,0.479
			C79.523,565.447,80.191,565.275,80.775,564.93z"/>
		<path fill="#FF7B00" d="M96.554,566.766c-0.352,0.289-0.779,0.504-1.283,0.648c-0.505,0.145-1.037,0.217-1.597,0.217
			c-1.408,0-2.496-0.369-3.265-1.104c-0.768-0.736-1.151-1.81-1.151-3.218v-6.168h-2.112v-2.398h2.112v-2.93h3v2.93h3.433v2.398
			h-3.433v6.098c0,0.624,0.151,1.1,0.456,1.428c0.304,0.328,0.744,0.492,1.32,0.492c0.672,0,1.231-0.176,1.68-0.527L96.554,566.766z
			"/>
		<path fill="#FF7B00" d="M108.254,555.859c1,0.903,1.5,2.269,1.5,4.092v7.513h-2.832v-1.561c-0.367,0.561-0.892,0.986-1.571,1.283
			c-0.681,0.295-1.5,0.443-2.46,0.443s-1.8-0.164-2.52-0.492c-0.721-0.326-1.277-0.783-1.668-1.367
			c-0.393-0.584-0.588-1.243-0.588-1.979c0-1.151,0.428-2.075,1.283-2.772c0.855-0.694,2.204-1.043,4.044-1.043h3.312v-0.191
			c0-0.896-0.268-1.584-0.803-2.064c-0.537-0.479-1.332-0.72-2.389-0.72c-0.72,0-1.428,0.112-2.124,0.337s-1.284,0.535-1.764,0.936
			l-1.177-2.184c0.672-0.513,1.48-0.904,2.424-1.177c0.945-0.272,1.945-0.407,3-0.407
			C105.81,554.502,107.254,554.955,108.254,555.859z M105.518,564.93c0.584-0.344,0.996-0.836,1.235-1.476v-1.487h-3.096
			c-1.728,0-2.592,0.567-2.592,1.703c0,0.545,0.217,0.977,0.648,1.297c0.432,0.319,1.031,0.479,1.8,0.479
			C104.266,565.447,104.934,565.275,105.518,564.93z"/>
		<path fill="#FF7B00" d="M121.13,567.223c-0.992-0.271-1.784-0.615-2.376-1.032l1.152-2.279c0.576,0.384,1.268,0.692,2.076,0.925
			c0.807,0.231,1.604,0.348,2.388,0.348c1.792,0,2.688-0.473,2.688-1.416c0-0.447-0.229-0.76-0.685-0.937
			c-0.456-0.176-1.188-0.344-2.196-0.504c-1.056-0.159-1.916-0.344-2.58-0.553c-0.664-0.207-1.24-0.571-1.728-1.093
			c-0.488-0.52-0.731-1.242-0.731-2.172c0-1.215,0.507-2.188,1.523-2.916c1.016-0.728,2.388-1.092,4.115-1.092
			c0.881,0,1.761,0.1,2.641,0.301c0.88,0.199,1.6,0.467,2.16,0.804l-1.152,2.28c-1.088-0.641-2.313-0.961-3.672-0.961
			c-0.88,0-1.548,0.133-2.004,0.396s-0.684,0.611-0.684,1.044c0,0.479,0.243,0.819,0.731,1.021c0.487,0.199,1.244,0.389,2.269,0.563
			c1.023,0.16,1.863,0.345,2.52,0.552c0.657,0.209,1.22,0.561,1.691,1.057c0.473,0.496,0.709,1.199,0.709,2.111
			c0,1.2-0.521,2.16-1.561,2.881c-1.04,0.719-2.456,1.08-4.248,1.08C123.137,567.631,122.122,567.495,121.13,567.223z"/>
		<path fill="#FF7B00" d="M144.578,562.014h-10.057c0.176,0.945,0.637,1.692,1.381,2.244c0.744,0.553,1.668,0.828,2.771,0.828
			c1.408,0,2.568-0.464,3.48-1.392l1.607,1.849c-0.576,0.688-1.305,1.207-2.184,1.559c-0.881,0.354-1.872,0.529-2.977,0.529
			c-1.408,0-2.648-0.279-3.72-0.841c-1.072-0.56-1.899-1.34-2.483-2.34c-0.585-1-0.877-2.132-0.877-3.396
			c0-1.248,0.284-2.373,0.853-3.373c0.567-0.998,1.356-1.778,2.364-2.34c1.008-0.56,2.144-0.84,3.408-0.84
			c1.248,0,2.363,0.276,3.348,0.828c0.985,0.553,1.752,1.328,2.304,2.328c0.552,1,0.828,2.156,0.828,3.469
			C144.626,561.334,144.609,561.631,144.578,562.014z M135.71,557.754c-0.664,0.568-1.067,1.324-1.212,2.268h7.271
			c-0.128-0.928-0.52-1.68-1.176-2.256c-0.656-0.575-1.473-0.862-2.447-0.862C137.185,556.903,136.373,557.188,135.71,557.754z"/>
		<path fill="#FF7B00" d="M149.809,566.791c-1.056-0.56-1.88-1.34-2.472-2.34c-0.592-1-0.889-2.132-0.889-3.396
			c0-1.265,0.297-2.393,0.889-3.385c0.592-0.992,1.412-1.768,2.459-2.328c1.049-0.56,2.244-0.84,3.589-0.84
			c1.264,0,2.372,0.256,3.323,0.768c0.952,0.514,1.668,1.248,2.148,2.209l-2.304,1.345c-0.368-0.593-0.828-1.036-1.38-1.332
			c-0.553-0.296-1.156-0.444-1.813-0.444c-1.119,0-2.048,0.364-2.783,1.092c-0.736,0.729-1.104,1.701-1.104,2.916
			c0,1.217,0.364,2.188,1.092,2.916c0.728,0.729,1.66,1.092,2.796,1.092c0.656,0,1.26-0.146,1.813-0.442
			c0.552-0.296,1.012-0.739,1.38-1.332l2.304,1.345c-0.496,0.959-1.221,1.699-2.172,2.219c-0.952,0.521-2.052,0.781-3.3,0.781
			C152.056,567.631,150.865,567.352,149.809,566.791z"/>
		<path fill="#FF7B00" d="M173.857,554.647v12.816h-2.855v-1.633c-0.48,0.576-1.08,1.02-1.801,1.332
			c-0.72,0.313-1.496,0.469-2.328,0.469c-1.712,0-3.06-0.477-4.043-1.429c-0.984-0.952-1.477-2.364-1.477-4.235v-7.32h3v6.912
			c0,1.152,0.26,2.013,0.779,2.58c0.521,0.567,1.261,0.853,2.221,0.853c1.072,0,1.924-0.332,2.557-0.996
			c0.631-0.664,0.947-1.62,0.947-2.868v-6.48H173.857L173.857,554.647z"/>
		<path fill="#FF7B00" d="M185.209,554.502v2.856c-0.256-0.05-0.488-0.072-0.695-0.072c-1.168,0-2.08,0.341-2.736,1.021
			c-0.656,0.681-0.984,1.66-0.984,2.939v6.217h-3v-12.816h2.856v1.871C181.513,555.174,183.033,554.502,185.209,554.502z"/>
		<path fill="#FF7B00" d="M187.897,552.018c-0.368-0.344-0.552-0.771-0.552-1.282c0-0.513,0.184-0.94,0.552-1.284
			s0.824-0.518,1.368-0.518s1,0.166,1.368,0.492c0.368,0.328,0.552,0.74,0.552,1.236c0,0.527-0.18,0.973-0.54,1.332
			s-0.819,0.54-1.38,0.54C188.721,552.535,188.265,552.363,187.897,552.018z M187.754,554.647h3v12.816h-3V554.647z"/>
		<path fill="#FF7B00" d="M202.392,566.766c-0.352,0.289-0.779,0.504-1.283,0.648s-1.036,0.217-1.596,0.217
			c-1.408,0-2.496-0.369-3.265-1.104c-0.769-0.736-1.151-1.81-1.151-3.218v-6.168h-2.112v-2.398h2.112v-2.93h3v2.93h3.432v2.398
			h-3.432v6.098c0,0.624,0.151,1.1,0.455,1.428c0.305,0.328,0.744,0.492,1.32,0.492c0.672,0,1.232-0.176,1.68-0.527L202.392,566.766
			z"/>
		<path fill="#FF7B00" d="M216.625,554.647l-6,13.849c-0.561,1.392-1.24,2.372-2.039,2.938c-0.801,0.568-1.77,0.854-2.904,0.854
			c-0.641,0-1.272-0.104-1.896-0.313s-1.136-0.496-1.536-0.863l1.2-2.208c0.288,0.271,0.628,0.487,1.02,0.647
			c0.393,0.16,0.789,0.239,1.188,0.239c0.528,0,0.964-0.137,1.308-0.407c0.344-0.272,0.66-0.729,0.948-1.369l0.216-0.504
			l-5.592-12.863h3.12l4.032,9.48l4.056-9.48H216.625z"/>
		<path d="M218.172,567.199c-0.248-0.256-0.371-0.567-0.371-0.937s0.123-0.676,0.371-0.924s0.549-0.373,0.9-0.373
			c0.351,0,0.656,0.125,0.912,0.373c0.256,0.248,0.384,0.555,0.384,0.924c0,0.367-0.128,0.681-0.384,0.937
			c-0.256,0.256-0.561,0.384-0.912,0.384C218.721,567.583,218.42,567.455,218.172,567.199z"/>
	</g>
	<g>
		<path d="M58.563,118.092h1.776v16.8h-1.776V118.092z"/>
		<path d="M81.95,123.552c0.937,0.92,1.404,2.26,1.404,4.02v7.32H81.65v-7.152c0-1.312-0.328-2.312-0.984-3
			c-0.656-0.688-1.592-1.032-2.808-1.032c-1.36,0-2.437,0.404-3.228,1.212c-0.793,0.808-1.188,1.924-1.188,3.348v6.624h-1.704
			v-17.808h1.704v7.392c0.464-0.736,1.104-1.304,1.92-1.704c0.815-0.399,1.752-0.6,2.808-0.6
			C79.754,122.172,81.013,122.632,81.95,123.552z"/>
		<path d="M96.193,123.408c0.881,0.824,1.32,2.044,1.32,3.66v7.824h-1.632v-1.968c-0.384,0.656-0.948,1.168-1.692,1.536
			c-0.744,0.368-1.628,0.552-2.651,0.552c-1.408,0-2.528-0.336-3.36-1.008c-0.832-0.672-1.248-1.561-1.248-2.664
			c0-1.072,0.388-1.936,1.164-2.592c0.775-0.656,2.012-0.984,3.708-0.984h4.009v-0.768c0-1.088-0.305-1.916-0.912-2.484
			c-0.609-0.568-1.496-0.852-2.664-0.852c-0.801,0-1.568,0.132-2.305,0.396c-0.737,0.264-1.367,0.628-1.896,1.092l-0.768-1.271
			c0.641-0.543,1.408-0.964,2.305-1.26c0.896-0.296,1.84-0.444,2.832-0.444C94.05,122.172,95.314,122.584,96.193,123.408z
			 M94.273,133.008c0.688-0.44,1.2-1.076,1.537-1.908v-2.064h-3.961c-2.16,0-3.24,0.752-3.24,2.256c0,0.735,0.28,1.314,0.84,1.739
			c0.561,0.425,1.345,0.637,2.353,0.637C92.761,133.669,93.586,133.449,94.273,133.008z"/>
		<path d="M112.513,122.268l-5.615,12.624h-1.752l-5.593-12.624h1.776l4.728,10.752l4.776-10.752H112.513z"/>
		<path d="M125.546,129.107h-10.56c0.096,1.313,0.6,2.372,1.512,3.181c0.912,0.808,2.063,1.212,3.455,1.212
			c0.784,0,1.504-0.141,2.16-0.42c0.656-0.28,1.225-0.692,1.705-1.236l0.959,1.104c-0.561,0.672-1.26,1.185-2.1,1.536
			c-0.84,0.353-1.764,0.528-2.771,0.528c-1.297,0-2.445-0.276-3.444-0.828c-1.001-0.552-1.78-1.315-2.341-2.292
			c-0.56-0.976-0.84-2.08-0.84-3.312s0.268-2.336,0.805-3.312c0.535-0.976,1.271-1.736,2.208-2.28
			c0.936-0.544,1.987-0.816,3.155-0.816s2.217,0.272,3.145,0.816c0.928,0.544,1.656,1.3,2.184,2.268
			c0.528,0.968,0.793,2.076,0.793,3.324L125.546,129.107z M116.389,124.8c-0.824,0.776-1.292,1.788-1.403,3.036h8.951
			c-0.111-1.248-0.58-2.26-1.404-3.036c-0.824-0.776-1.852-1.164-3.084-1.164C118.233,123.636,117.213,124.023,116.389,124.8z"/>
		<path d="M146.857,117.084v17.808h-1.633v-2.496c-0.512,0.849-1.188,1.496-2.027,1.944c-0.839,0.448-1.788,0.672-2.844,0.672
			c-1.186,0-2.256-0.272-3.217-0.816c-0.96-0.544-1.712-1.304-2.256-2.279c-0.544-0.978-0.816-2.088-0.816-3.336
			c0-1.248,0.272-2.36,0.816-3.336s1.296-1.732,2.256-2.268c0.961-0.536,2.031-0.804,3.217-0.804c1.023,0,1.947,0.212,2.771,0.636
			s1.5,1.044,2.027,1.86v-7.584L146.857,117.084L146.857,117.084z M142.885,132.888c0.712-0.408,1.271-0.988,1.68-1.74
			s0.612-1.607,0.612-2.568c0-0.96-0.204-1.816-0.612-2.568c-0.408-0.752-0.968-1.332-1.68-1.74
			c-0.712-0.408-1.508-0.612-2.388-0.612c-0.896,0-1.7,0.204-2.412,0.612c-0.712,0.408-1.272,0.988-1.681,1.74
			c-0.407,0.752-0.611,1.608-0.611,2.568c0,0.96,0.204,1.816,0.611,2.568c0.408,0.752,0.969,1.332,1.681,1.74
			s1.516,0.612,2.412,0.612C141.377,133.501,142.173,133.296,142.885,132.888z"/>
		<path d="M153.48,134.184c-0.977-0.552-1.744-1.315-2.305-2.292c-0.56-0.976-0.84-2.08-0.84-3.312s0.28-2.336,0.84-3.312
			c0.561-0.976,1.328-1.736,2.305-2.28c0.976-0.544,2.072-0.816,3.288-0.816c1.216,0,2.312,0.272,3.288,0.816s1.74,1.304,2.292,2.28
			c0.552,0.976,0.827,2.08,0.827,3.312s-0.275,2.336-0.827,3.312c-0.552,0.977-1.316,1.74-2.292,2.292
			c-0.977,0.552-2.072,0.828-3.288,0.828C155.552,135.012,154.456,134.736,153.48,134.184z M159.18,132.888
			c0.712-0.408,1.268-0.988,1.668-1.74c0.399-0.752,0.6-1.607,0.6-2.568c0-0.96-0.2-1.816-0.6-2.568s-0.956-1.332-1.668-1.74
			c-0.712-0.408-1.517-0.612-2.412-0.612c-0.896,0-1.7,0.204-2.412,0.612c-0.712,0.408-1.272,0.988-1.681,1.74
			c-0.407,0.752-0.611,1.608-0.611,2.568c0,0.96,0.204,1.816,0.611,2.568c0.408,0.752,0.969,1.332,1.681,1.74
			s1.516,0.612,2.412,0.612C157.664,133.501,158.469,133.296,159.18,132.888z"/>
		<path d="M168.54,134.196c-0.983-0.544-1.756-1.308-2.315-2.292c-0.561-0.983-0.84-2.091-0.84-3.324
			c0-1.232,0.279-2.336,0.84-3.312c0.56-0.976,1.332-1.736,2.315-2.28c0.984-0.544,2.101-0.816,3.349-0.816
			c1.088,0,2.06,0.212,2.916,0.636c0.855,0.424,1.531,1.044,2.027,1.86l-1.271,0.864c-0.416-0.624-0.944-1.092-1.584-1.404
			c-0.641-0.313-1.336-0.468-2.088-0.468c-0.912,0-1.732,0.204-2.461,0.612c-0.728,0.408-1.295,0.988-1.703,1.74
			c-0.408,0.752-0.612,1.608-0.612,2.568c0,0.976,0.204,1.836,0.612,2.58c0.408,0.744,0.976,1.32,1.703,1.729
			c0.729,0.408,1.549,0.612,2.461,0.612c0.752,0,1.447-0.152,2.088-0.456c0.64-0.304,1.168-0.77,1.584-1.394l1.271,0.864
			c-0.496,0.816-1.176,1.437-2.039,1.86c-0.865,0.424-1.833,0.636-2.904,0.636C170.64,135.012,169.524,134.74,168.54,134.196z"/>
		<path d="M191.544,122.268v12.624h-1.632v-2.304c-0.448,0.768-1.064,1.364-1.848,1.788c-0.785,0.424-1.681,0.636-2.688,0.636
			c-1.647,0-2.948-0.46-3.899-1.38c-0.953-0.92-1.429-2.269-1.429-4.044v-7.32h1.704v7.152c0,1.329,0.328,2.336,0.984,3.023
			c0.656,0.688,1.592,1.032,2.808,1.032c1.328,0,2.376-0.404,3.144-1.212c0.769-0.808,1.152-1.932,1.152-3.372v-6.624H191.544z"/>
		<path d="M215.797,123.54c0.903,0.912,1.355,2.256,1.355,4.032v7.32h-1.704v-7.152c0-1.312-0.315-2.312-0.948-3
			c-0.632-0.688-1.523-1.032-2.676-1.032c-1.313,0-2.344,0.404-3.096,1.212c-0.752,0.808-1.129,1.924-1.129,3.348v6.624h-1.703
			v-7.152c0-1.312-0.316-2.312-0.948-3c-0.632-0.688-1.532-1.032-2.7-1.032c-1.296,0-2.324,0.404-3.084,1.212
			c-0.76,0.808-1.14,1.924-1.14,3.348v6.624h-1.704v-12.624h1.632v2.304c0.448-0.768,1.071-1.36,1.872-1.776
			c0.8-0.416,1.72-0.624,2.76-0.624c1.057,0,1.973,0.225,2.748,0.672c0.776,0.448,1.356,1.112,1.74,1.992
			c0.464-0.832,1.132-1.484,2.004-1.956c0.872-0.472,1.868-0.708,2.988-0.708C213.648,122.172,214.892,122.628,215.797,123.54z"/>
		<path d="M232.824,129.107h-10.561c0.096,1.313,0.601,2.372,1.512,3.181c0.912,0.808,2.064,1.212,3.457,1.212
			c0.783,0,1.504-0.141,2.16-0.42c0.655-0.28,1.224-0.692,1.703-1.236l0.961,1.104c-0.561,0.672-1.261,1.185-2.101,1.536
			c-0.84,0.353-1.765,0.528-2.772,0.528c-1.295,0-2.443-0.276-3.443-0.828c-1-0.552-1.78-1.315-2.34-2.292
			c-0.561-0.976-0.84-2.08-0.84-3.312s0.268-2.336,0.804-3.312c0.536-0.976,1.272-1.736,2.208-2.28
			c0.936-0.544,1.988-0.816,3.156-0.816s2.215,0.272,3.144,0.816c0.928,0.544,1.655,1.3,2.185,2.268
			c0.527,0.968,0.791,2.076,0.791,3.324L232.824,129.107z M223.668,124.8c-0.824,0.776-1.292,1.788-1.404,3.036h8.952
			c-0.112-1.248-0.58-2.26-1.403-3.036c-0.824-0.776-1.853-1.164-3.084-1.164C225.511,123.636,224.492,124.023,223.668,124.8z"/>
		<path d="M246.539,123.552c0.937,0.92,1.404,2.26,1.404,4.02v7.32h-1.703v-7.152c0-1.312-0.328-2.312-0.984-3
			c-0.656-0.688-1.592-1.032-2.809-1.032c-1.359,0-2.436,0.404-3.228,1.212c-0.792,0.808-1.188,1.924-1.188,3.348v6.624h-1.703
			v-12.624h1.631v2.328c0.465-0.768,1.108-1.364,1.933-1.788c0.823-0.424,1.78-0.636,2.868-0.636
			C244.344,122.172,245.603,122.632,246.539,123.552z"/>
		<path d="M259.222,134.125c-0.32,0.287-0.716,0.508-1.188,0.659c-0.473,0.152-0.964,0.229-1.477,0.229
			c-1.184,0-2.096-0.32-2.735-0.96c-0.639-0.64-0.96-1.544-0.96-2.712v-7.632h-2.256v-1.44h2.256v-2.76h1.704v2.76h3.84v1.44h-3.84
			v7.536c0,0.753,0.188,1.324,0.563,1.717c0.376,0.392,0.916,0.588,1.62,0.588c0.353,0,0.692-0.056,1.021-0.168
			c0.329-0.112,0.611-0.272,0.852-0.48L259.222,134.125z"/>
		<path d="M262.762,134.568c-0.937-0.296-1.668-0.668-2.196-1.116l0.769-1.344c0.528,0.416,1.192,0.756,1.991,1.021
			c0.801,0.264,1.633,0.396,2.496,0.396c1.152,0,2.004-0.18,2.557-0.54c0.552-0.359,0.829-0.867,0.829-1.523
			c0-0.464-0.152-0.828-0.457-1.092c-0.303-0.264-0.688-0.464-1.151-0.6c-0.464-0.136-1.079-0.268-1.848-0.396
			c-1.024-0.192-1.849-0.388-2.472-0.588c-0.625-0.2-1.156-0.54-1.596-1.02c-0.441-0.48-0.66-1.144-0.66-1.992
			c0-1.056,0.439-1.92,1.319-2.592c0.88-0.672,2.104-1.008,3.672-1.008c0.816,0,1.632,0.108,2.448,0.324
			c0.816,0.216,1.488,0.5,2.016,0.852l-0.744,1.368c-1.039-0.72-2.279-1.08-3.72-1.08c-1.088,0-1.907,0.192-2.46,0.576
			c-0.552,0.384-0.828,0.888-0.828,1.512c0,0.48,0.156,0.864,0.469,1.152c0.312,0.288,0.699,0.5,1.164,0.636
			c0.463,0.136,1.104,0.276,1.92,0.42c1.008,0.192,1.815,0.384,2.425,0.576c0.606,0.192,1.127,0.52,1.56,0.984
			s0.647,1.104,0.647,1.919c0,1.104-0.459,1.98-1.379,2.629c-0.921,0.646-2.197,0.972-3.829,0.972
			C264.678,135.012,263.699,134.865,262.762,134.568z"/>
		<path d="M282.85,119.004c-0.376,0.4-0.563,0.993-0.563,1.776v1.488h3.887v1.44h-3.84v11.184h-1.703v-11.184h-2.256v-1.44h2.256
			v-1.56c0-1.152,0.332-2.064,0.996-2.736s1.604-1.008,2.82-1.008c0.479,0,0.942,0.068,1.391,0.204
			c0.449,0.136,0.824,0.333,1.129,0.588l-0.576,1.272c-0.496-0.416-1.12-0.624-1.872-0.624
			C283.784,118.404,283.226,118.604,282.85,119.004z"/>
		<path d="M293.818,122.82c0.791-0.432,1.771-0.648,2.938-0.648v1.656l-0.407-0.024c-1.328,0-2.367,0.408-3.119,1.224
			c-0.753,0.816-1.129,1.96-1.129,3.432v6.432h-1.703v-12.624h1.631v2.472C292.429,123.892,293.025,123.252,293.818,122.82z"/>
		<path d="M301.583,134.184c-0.978-0.552-1.744-1.315-2.306-2.292c-0.56-0.976-0.84-2.08-0.84-3.312s0.28-2.336,0.84-3.312
			c0.562-0.976,1.328-1.736,2.306-2.28c0.976-0.544,2.071-0.816,3.287-0.816c1.217,0,2.313,0.272,3.289,0.816
			c0.975,0.544,1.74,1.304,2.291,2.28c0.553,0.976,0.828,2.08,0.828,3.312s-0.275,2.336-0.828,3.312
			c-0.551,0.977-1.316,1.74-2.291,2.292c-0.979,0.552-2.072,0.828-3.289,0.828C303.654,135.012,302.557,134.736,301.583,134.184z
			 M307.282,132.888c0.713-0.408,1.268-0.988,1.668-1.74c0.398-0.752,0.6-1.607,0.6-2.568c0-0.96-0.199-1.816-0.6-2.568
			s-0.955-1.332-1.668-1.74c-0.711-0.408-1.517-0.612-2.412-0.612s-1.699,0.204-2.412,0.612c-0.711,0.408-1.271,0.988-1.681,1.74
			c-0.407,0.752-0.61,1.608-0.61,2.568c0,0.96,0.203,1.816,0.61,2.568c0.408,0.752,0.97,1.332,1.681,1.74
			c0.713,0.408,1.517,0.612,2.412,0.612C305.765,133.501,306.571,133.296,307.282,132.888z"/>
		<path d="M334.235,123.54c0.902,0.912,1.354,2.256,1.354,4.032v7.32h-1.703v-7.152c0-1.312-0.314-2.312-0.947-3
			s-1.523-1.032-2.678-1.032c-1.313,0-2.344,0.404-3.096,1.212c-0.752,0.808-1.129,1.924-1.129,3.348v6.624h-1.703v-7.152
			c0-1.312-0.316-2.312-0.947-3c-0.633-0.688-1.533-1.032-2.701-1.032c-1.295,0-2.322,0.404-3.084,1.212
			c-0.76,0.808-1.139,1.924-1.139,3.348v6.624h-1.705v-12.624h1.633v2.304c0.447-0.768,1.07-1.36,1.871-1.776
			s1.721-0.624,2.76-0.624c1.059,0,1.975,0.225,2.748,0.672c0.777,0.448,1.357,1.112,1.74,1.992
			c0.465-0.832,1.133-1.484,2.004-1.956c0.873-0.472,1.869-0.708,2.988-0.708C332.086,122.172,333.331,122.628,334.235,123.54z"/>
		<path d="M354.717,123.408c0.881,0.824,1.32,2.044,1.32,3.66v7.824h-1.633v-1.968c-0.383,0.656-0.947,1.168-1.691,1.536
			c-0.744,0.368-1.629,0.552-2.65,0.552c-1.408,0-2.529-0.336-3.361-1.008s-1.248-1.561-1.248-2.664
			c0-1.072,0.389-1.936,1.164-2.592c0.775-0.656,2.012-0.984,3.709-0.984h4.008v-0.768c0-1.088-0.305-1.916-0.912-2.484
			s-1.496-0.852-2.664-0.852c-0.801,0-1.566,0.132-2.305,0.396c-0.736,0.264-1.367,0.628-1.895,1.092l-0.77-1.271
			c0.641-0.543,1.408-0.964,2.305-1.26s1.842-0.444,2.832-0.444C352.573,122.172,353.838,122.584,354.717,123.408z M352.797,133.008
			c0.688-0.44,1.199-1.076,1.537-1.908v-2.064h-3.961c-2.16,0-3.24,0.752-3.24,2.256c0,0.735,0.279,1.314,0.84,1.739
			c0.561,0.425,1.346,0.637,2.354,0.637C351.286,133.669,352.11,133.449,352.797,133.008z"/>
		<path d="M360.67,117.084h1.703v17.808h-1.703V117.084z"/>
		<path d="M367.125,117.084h1.705v17.808h-1.705V117.084z"/>
		<path d="M381.741,134.184c-0.977-0.552-1.742-1.315-2.303-2.292c-0.563-0.976-0.842-2.08-0.842-3.312s0.279-2.336,0.842-3.312
			c0.561-0.976,1.326-1.736,2.303-2.28s2.072-0.816,3.289-0.816c1.215,0,2.311,0.272,3.287,0.816s1.74,1.304,2.293,2.28
			c0.551,0.976,0.828,2.08,0.828,3.312s-0.277,2.336-0.828,3.312c-0.553,0.977-1.316,1.74-2.293,2.292
			c-0.977,0.552-2.072,0.828-3.287,0.828C383.813,135.012,382.717,134.736,381.741,134.184z M387.442,132.888
			c0.711-0.408,1.268-0.988,1.668-1.74c0.398-0.752,0.6-1.607,0.6-2.568c0-0.96-0.201-1.816-0.6-2.568
			c-0.4-0.752-0.957-1.332-1.668-1.74c-0.713-0.408-1.518-0.612-2.412-0.612c-0.896,0-1.701,0.204-2.412,0.612
			c-0.713,0.408-1.271,0.988-1.68,1.74c-0.41,0.752-0.611,1.608-0.611,2.568c0,0.96,0.203,1.816,0.611,2.568
			c0.406,0.752,0.967,1.332,1.68,1.74c0.711,0.408,1.516,0.612,2.412,0.612C385.924,133.501,386.729,133.296,387.442,132.888z"/>
		<path d="M405.167,122.268l-5.617,12.624h-1.752l-5.592-12.624h1.775l4.729,10.752l4.775-10.752H405.167z"/>
		<path d="M418.198,129.107h-10.563c0.098,1.313,0.602,2.372,1.514,3.181c0.912,0.808,2.063,1.212,3.457,1.212
			c0.781,0,1.502-0.141,2.158-0.42c0.656-0.28,1.225-0.692,1.703-1.236l0.961,1.104c-0.561,0.672-1.26,1.185-2.1,1.536
			c-0.84,0.353-1.764,0.528-2.773,0.528c-1.295,0-2.441-0.276-3.441-0.828c-1-0.552-1.781-1.315-2.34-2.292
			c-0.563-0.976-0.842-2.08-0.842-3.312s0.27-2.336,0.805-3.312c0.537-0.976,1.271-1.736,2.209-2.28
			c0.936-0.544,1.986-0.816,3.154-0.816s2.217,0.272,3.145,0.816s1.656,1.3,2.184,2.268c0.529,0.968,0.793,2.076,0.793,3.324
			L418.198,129.107z M409.042,124.8c-0.824,0.776-1.293,1.788-1.404,3.036h8.951c-0.111-1.248-0.58-2.26-1.402-3.036
			c-0.824-0.776-1.854-1.164-3.084-1.164C410.885,123.636,409.866,124.023,409.042,124.8z"/>
		<path d="M425.122,122.82c0.791-0.432,1.771-0.648,2.939-0.648v1.656l-0.408-0.024c-1.328,0-2.367,0.408-3.119,1.224
			s-1.129,1.96-1.129,3.432v6.432h-1.703v-12.624h1.631v2.472C423.733,123.892,424.329,123.252,425.122,122.82z"/>
		<path d="M444.26,134.125c-0.318,0.287-0.717,0.508-1.188,0.659c-0.473,0.152-0.963,0.229-1.477,0.229
			c-1.184,0-2.096-0.32-2.734-0.96c-0.643-0.64-0.961-1.544-0.961-2.712v-7.632h-2.256v-1.44h2.256v-2.76h1.705v2.76h3.84v1.44
			h-3.84v7.536c0,0.753,0.188,1.324,0.563,1.717c0.375,0.392,0.916,0.588,1.619,0.588c0.352,0,0.693-0.056,1.021-0.168
			c0.326-0.112,0.611-0.272,0.852-0.48L444.26,134.125z"/>
		<path d="M457.569,123.552c0.938,0.92,1.404,2.26,1.404,4.02v7.32h-1.705v-7.152c0-1.312-0.326-2.312-0.982-3
			s-1.592-1.032-2.809-1.032c-1.359,0-2.438,0.404-3.229,1.212c-0.793,0.808-1.189,1.924-1.189,3.348v6.624h-1.703v-17.808h1.703
			v7.392c0.465-0.736,1.105-1.304,1.922-1.704c0.814-0.399,1.752-0.6,2.807-0.6C455.374,122.172,456.633,122.632,457.569,123.552z"
			/>
		<path d="M474.645,129.107h-10.561c0.096,1.313,0.6,2.372,1.512,3.181c0.912,0.808,2.064,1.212,3.457,1.212
			c0.783,0,1.502-0.141,2.158-0.42c0.656-0.28,1.225-0.692,1.705-1.236l0.959,1.104c-0.559,0.672-1.26,1.185-2.1,1.536
			c-0.84,0.353-1.764,0.528-2.771,0.528c-1.297,0-2.443-0.276-3.443-0.828c-1-0.552-1.779-1.315-2.34-2.292
			c-0.561-0.976-0.842-2.08-0.842-3.312s0.27-2.336,0.805-3.312c0.537-0.976,1.271-1.736,2.209-2.28
			c0.936-0.544,1.986-0.816,3.156-0.816c1.166,0,2.215,0.272,3.145,0.816c0.928,0.544,1.654,1.3,2.184,2.268
			c0.527,0.968,0.791,2.076,0.791,3.324L474.645,129.107z M465.489,124.8c-0.824,0.776-1.291,1.788-1.404,3.036h8.953
			c-0.113-1.248-0.58-2.26-1.404-3.036c-0.824-0.776-1.852-1.164-3.084-1.164C467.333,123.636,466.313,124.023,465.489,124.8z"/>
		<path d="M67.923,151.777c0.96,0.536,1.712,1.292,2.256,2.268c0.543,0.977,0.816,2.089,0.816,3.337
			c0,1.264-0.272,2.384-0.816,3.359c-0.544,0.977-1.292,1.732-2.244,2.269c-0.952,0.536-2.028,0.804-3.228,0.804
			c-1.024,0-1.948-0.212-2.772-0.636c-0.824-0.424-1.5-1.044-2.028-1.86v7.032h-1.704v-17.28h1.632v2.496
			c0.512-0.832,1.188-1.472,2.028-1.92c0.84-0.448,1.788-0.672,2.844-0.672C65.891,150.973,66.963,151.241,67.923,151.777z
			 M66.987,161.688c0.72-0.408,1.284-0.988,1.692-1.74c0.408-0.752,0.612-1.607,0.612-2.567c0-0.961-0.204-1.813-0.612-2.557
			c-0.408-0.744-0.972-1.323-1.692-1.74c-0.72-0.415-1.521-0.624-2.4-0.624c-0.896,0-1.7,0.209-2.412,0.624
			c-0.712,0.417-1.272,0.996-1.68,1.74c-0.408,0.744-0.612,1.596-0.612,2.557c0,0.96,0.204,1.815,0.612,2.567
			c0.408,0.752,0.968,1.332,1.68,1.74c0.711,0.408,1.516,0.612,2.412,0.612C65.467,162.301,66.267,162.097,66.987,161.688z"/>
		<path d="M74.474,145.885h1.705v17.808h-1.705V145.885z"/>
		<path d="M89.138,152.209c0.881,0.824,1.32,2.045,1.32,3.66v7.824h-1.632v-1.968c-0.384,0.656-0.948,1.168-1.692,1.536
			c-0.744,0.368-1.628,0.552-2.651,0.552c-1.408,0-2.528-0.336-3.36-1.008s-1.248-1.561-1.248-2.664
			c0-1.072,0.388-1.936,1.164-2.592c0.775-0.656,2.012-0.984,3.708-0.984h4.009v-0.769c0-1.087-0.305-1.915-0.912-2.483
			c-0.609-0.567-1.496-0.853-2.664-0.853c-0.801,0-1.568,0.133-2.305,0.396c-0.737,0.263-1.367,0.628-1.896,1.092l-0.768-1.271
			c0.641-0.544,1.408-0.964,2.305-1.261c0.896-0.296,1.84-0.443,2.832-0.443C86.995,150.973,88.26,151.385,89.138,152.209z
			 M87.219,161.809c0.688-0.44,1.2-1.076,1.537-1.908v-2.064h-3.961c-2.16,0-3.24,0.753-3.24,2.257c0,0.735,0.28,1.315,0.84,1.739
			c0.561,0.425,1.345,0.637,2.353,0.637C85.707,162.469,86.531,162.25,87.219,161.809z"/>
		<path d="M97.022,162.997c-0.983-0.544-1.756-1.308-2.315-2.292c-0.561-0.983-0.84-2.092-0.84-3.323
			c0-1.232,0.279-2.336,0.84-3.313c0.56-0.976,1.332-1.736,2.315-2.28c0.984-0.543,2.101-0.815,3.349-0.815
			c1.088,0,2.06,0.212,2.916,0.636c0.855,0.424,1.531,1.044,2.027,1.86l-1.271,0.863c-0.416-0.624-0.944-1.092-1.584-1.403
			c-0.641-0.313-1.336-0.469-2.088-0.469c-0.912,0-1.732,0.204-2.461,0.612c-0.728,0.408-1.295,0.988-1.703,1.74
			s-0.612,1.607-0.612,2.568c0,0.976,0.204,1.836,0.612,2.579c0.408,0.744,0.976,1.32,1.703,1.729
			c0.729,0.408,1.549,0.612,2.461,0.612c0.752,0,1.447-0.152,2.088-0.456c0.64-0.304,1.168-0.769,1.584-1.393l1.271,0.864
			c-0.496,0.816-1.176,1.438-2.039,1.86c-0.865,0.424-1.833,0.636-2.904,0.636C99.123,163.813,98.007,163.541,97.022,162.997z"/>
		<path d="M119.427,157.909h-10.56c0.096,1.313,0.6,2.372,1.512,3.181c0.912,0.808,2.063,1.212,3.455,1.212
			c0.784,0,1.504-0.141,2.16-0.42c0.656-0.28,1.225-0.692,1.705-1.236l0.959,1.104c-0.561,0.672-1.26,1.185-2.1,1.536
			c-0.84,0.353-1.764,0.528-2.771,0.528c-1.297,0-2.445-0.276-3.444-0.828c-1.001-0.552-1.78-1.315-2.341-2.292
			c-0.56-0.976-0.84-2.08-0.84-3.312c0-1.232,0.268-2.336,0.805-3.313c0.535-0.976,1.271-1.736,2.208-2.28
			c0.936-0.543,1.987-0.815,3.155-0.815s2.217,0.272,3.145,0.815c0.928,0.544,1.656,1.301,2.184,2.269
			c0.528,0.968,0.793,2.076,0.793,3.324L119.427,157.909z M110.27,153.601c-0.824,0.776-1.292,1.788-1.403,3.036h8.951
			c-0.111-1.248-0.58-2.26-1.404-3.036c-0.824-0.776-1.852-1.164-3.084-1.164C112.114,152.437,111.094,152.825,110.27,153.601z"/>
		<path d="M124.035,161.569c0.24,0.248,0.359,0.556,0.359,0.924c0,0.192-0.027,0.4-0.084,0.624c-0.057,0.225-0.141,0.48-0.252,0.769
			l-1.008,3.312h-1.152l0.816-3.479c-0.256-0.08-0.465-0.229-0.624-0.444c-0.16-0.216-0.24-0.476-0.24-0.78
			c0-0.368,0.12-0.676,0.36-0.924c0.24-0.248,0.543-0.372,0.912-0.372C123.49,161.197,123.795,161.321,124.035,161.569z"/>
		<path d="M142.513,152.209c0.88,0.824,1.32,2.045,1.32,3.66v7.824H142.2v-1.968c-0.383,0.656-0.947,1.168-1.691,1.536
			c-0.744,0.368-1.629,0.552-2.652,0.552c-1.408,0-2.527-0.336-3.359-1.008s-1.248-1.561-1.248-2.664
			c0-1.072,0.387-1.936,1.164-2.592c0.775-0.656,2.012-0.984,3.707-0.984h4.009v-0.769c0-1.087-0.304-1.915-0.912-2.483
			c-0.608-0.567-1.496-0.853-2.664-0.853c-0.8,0-1.568,0.133-2.304,0.396c-0.736,0.264-1.368,0.628-1.896,1.092l-0.768-1.271
			c0.64-0.544,1.408-0.964,2.304-1.261c0.896-0.296,1.84-0.443,2.832-0.443C140.369,150.973,141.634,151.385,142.513,152.209z
			 M140.594,161.809c0.688-0.44,1.199-1.076,1.536-1.908v-2.064h-3.96c-2.16,0-3.24,0.753-3.24,2.257
			c0,0.735,0.279,1.315,0.84,1.739c0.561,0.425,1.344,0.637,2.352,0.637C139.082,162.469,139.906,162.25,140.594,161.809z"/>
		<path fill="#FF7B00" d="M167.066,150.877v10.872c0,4.513-2.305,6.769-6.912,6.769c-1.232,0-2.4-0.156-3.504-0.468
			c-1.104-0.313-2.017-0.765-2.736-1.356l1.344-2.256c0.561,0.464,1.268,0.836,2.124,1.116c0.856,0.279,1.724,0.42,2.604,0.42
			c1.407,0,2.439-0.32,3.096-0.96c0.656-0.641,0.984-1.616,0.984-2.929v-0.672c-0.513,0.561-1.137,0.984-1.873,1.272
			c-0.735,0.288-1.543,0.432-2.424,0.432c-1.216,0-2.315-0.26-3.3-0.78c-0.983-0.521-1.761-1.251-2.327-2.195
			c-0.568-0.944-0.853-2.024-0.853-3.24c0-1.216,0.284-2.292,0.853-3.228c0.566-0.937,1.344-1.66,2.327-2.173
			c0.984-0.512,2.084-0.769,3.3-0.769c0.928,0,1.772,0.152,2.532,0.456c0.76,0.304,1.396,0.768,1.908,1.392v-1.704H167.066z
			 M163.021,159.553c0.729-0.681,1.092-1.564,1.092-2.652c0-1.071-0.363-1.944-1.092-2.616s-1.66-1.008-2.795-1.008
			c-1.152,0-2.093,0.336-2.82,1.008c-0.729,0.672-1.092,1.545-1.092,2.616c0,1.088,0.363,1.972,1.092,2.652
			c0.728,0.68,1.668,1.02,2.82,1.02C161.361,160.573,162.293,160.232,163.021,159.553z"/>
		<path fill="#FF7B00" d="M173.258,163.021c-1.041-0.56-1.852-1.34-2.436-2.34c-0.585-1-0.877-2.132-0.877-3.396
			s0.292-2.392,0.877-3.384c0.584-0.992,1.395-1.768,2.436-2.328c1.039-0.56,2.208-0.84,3.504-0.84c1.312,0,2.488,0.28,3.527,0.84
			c1.041,0.561,1.853,1.336,2.437,2.328c0.584,0.992,0.876,2.12,0.876,3.384c0,1.265-0.292,2.396-0.876,3.396
			s-1.396,1.78-2.437,2.34c-1.039,0.561-2.216,0.84-3.527,0.84C175.466,163.861,174.297,163.582,173.258,163.021z M179.498,160.188
			c0.72-0.736,1.08-1.704,1.08-2.904c0-1.2-0.36-2.168-1.08-2.903c-0.721-0.736-1.633-1.104-2.736-1.104s-2.012,0.368-2.725,1.104
			c-0.711,0.735-1.067,1.703-1.067,2.903c0,1.2,0.356,2.168,1.067,2.904c0.713,0.736,1.621,1.104,2.725,1.104
			S178.777,160.925,179.498,160.188z"/>
		<path fill="#FF7B00" d="M188.738,163.021c-1.041-0.56-1.853-1.34-2.437-2.34c-0.585-1-0.876-2.132-0.876-3.396
			s0.291-2.392,0.876-3.384c0.584-0.992,1.396-1.768,2.437-2.328c1.039-0.56,2.207-0.84,3.504-0.84c1.311,0,2.487,0.28,3.527,0.84
			c1.04,0.561,1.852,1.336,2.436,2.328c0.584,0.992,0.877,2.12,0.877,3.384c0,1.265-0.293,2.396-0.877,3.396s-1.396,1.78-2.436,2.34
			c-1.04,0.561-2.217,0.84-3.527,0.84C190.945,163.861,189.777,163.582,188.738,163.021z M194.977,160.188
			c0.72-0.736,1.08-1.704,1.08-2.904c0-1.2-0.36-2.168-1.08-2.903c-0.72-0.736-1.632-1.104-2.735-1.104
			c-1.104,0-2.013,0.368-2.725,1.104c-0.712,0.735-1.068,1.703-1.068,2.903c0,1.2,0.356,2.168,1.068,2.904
			c0.712,0.736,1.62,1.104,2.725,1.104C193.345,161.293,194.258,160.925,194.977,160.188z"/>
		<path fill="#FF7B00" d="M214.513,145.885v17.808h-2.881v-1.656c-0.496,0.608-1.107,1.064-1.836,1.368s-1.531,0.456-2.412,0.456
			c-1.232,0-2.34-0.271-3.324-0.816c-0.983-0.543-1.756-1.315-2.315-2.315s-0.84-2.148-0.84-3.444s0.28-2.439,0.84-3.432
			c0.56-0.993,1.332-1.76,2.315-2.304c0.984-0.544,2.092-0.816,3.324-0.816c0.848,0,1.624,0.145,2.328,0.432
			c0.704,0.288,1.305,0.721,1.801,1.296v-6.575h3V145.885z M209.689,160.801c0.576-0.328,1.031-0.796,1.367-1.404
			c0.336-0.608,0.504-1.312,0.504-2.112c0-0.8-0.168-1.504-0.504-2.111c-0.336-0.608-0.791-1.076-1.367-1.404
			s-1.225-0.492-1.944-0.492c-0.719,0-1.368,0.164-1.944,0.492c-0.576,0.328-1.031,0.796-1.367,1.404
			c-0.336,0.607-0.504,1.312-0.504,2.111c0,0.801,0.168,1.504,0.504,2.112c0.336,0.608,0.791,1.076,1.367,1.404
			c0.576,0.328,1.225,0.491,1.944,0.491C208.464,161.292,209.113,161.129,209.689,160.801z"/>
		<path fill="#FF7B00" d="M227.328,163.021c-1.04-0.56-1.852-1.34-2.436-2.34s-0.876-2.132-0.876-3.396s0.292-2.392,0.876-3.384
			c0.584-0.992,1.396-1.768,2.436-2.328s2.209-0.84,3.504-0.84c1.313,0,2.488,0.28,3.528,0.84c1.04,0.561,1.853,1.336,2.437,2.328
			c0.584,0.992,0.875,2.12,0.875,3.384c0,1.265-0.291,2.396-0.875,3.396s-1.396,1.78-2.437,2.34c-1.04,0.561-2.216,0.84-3.528,0.84
			C229.537,163.861,228.368,163.582,227.328,163.021z M233.568,160.188c0.721-0.736,1.08-1.704,1.08-2.904
			c0-1.2-0.359-2.168-1.08-2.903c-0.72-0.736-1.632-1.104-2.736-1.104s-2.012,0.368-2.724,1.104
			c-0.712,0.735-1.067,1.703-1.067,2.903c0,1.2,0.355,2.168,1.067,2.904c0.712,0.736,1.62,1.104,2.724,1.104
			S232.848,160.925,233.568,160.188z"/>
		<path fill="#FF7B00" d="M247.968,150.732v2.856c-0.256-0.049-0.488-0.072-0.696-0.072c-1.168,0-2.08,0.34-2.735,1.02
			c-0.656,0.681-0.984,1.66-0.984,2.94v6.216h-3v-12.816h2.856v1.872C244.271,151.405,245.792,150.732,247.968,150.732z"/>
		<path fill="#FF7B00" d="M263.112,150.877v10.872c0,4.513-2.304,6.769-6.912,6.769c-1.231,0-2.399-0.156-3.504-0.468
			c-1.104-0.313-2.017-0.765-2.735-1.356l1.344-2.256c0.56,0.464,1.268,0.836,2.123,1.116c0.856,0.279,1.725,0.42,2.604,0.42
			c1.407,0,2.44-0.32,3.097-0.96c0.655-0.641,0.983-1.616,0.983-2.929v-0.672c-0.513,0.561-1.136,0.984-1.872,1.272
			c-0.736,0.288-1.544,0.432-2.424,0.432c-1.217,0-2.316-0.26-3.301-0.78c-0.983-0.521-1.76-1.251-2.327-2.195
			c-0.568-0.944-0.853-2.024-0.853-3.24c0-1.216,0.284-2.292,0.853-3.228c0.567-0.937,1.344-1.66,2.327-2.173
			c0.984-0.512,2.084-0.769,3.301-0.769c0.928,0,1.771,0.152,2.531,0.456c0.76,0.304,1.396,0.768,1.908,1.392v-1.704H263.112z
			 M259.068,159.553c0.729-0.681,1.092-1.564,1.092-2.652c0-1.071-0.363-1.944-1.092-2.616s-1.66-1.008-2.796-1.008
			c-1.152,0-2.093,0.336-2.82,1.008s-1.092,1.545-1.092,2.616c0,1.088,0.364,1.972,1.092,2.652c0.728,0.68,1.668,1.02,2.82,1.02
			C257.408,160.573,258.34,160.232,259.068,159.553z"/>
		<path fill="#FF7B00" d="M276.275,152.089c1,0.903,1.5,2.268,1.5,4.092v7.512h-2.832v-1.56c-0.366,0.56-0.892,0.987-1.571,1.283
			c-0.681,0.296-1.5,0.444-2.459,0.444c-0.961,0-1.801-0.164-2.521-0.492c-0.721-0.327-1.277-0.783-1.668-1.368
			c-0.393-0.583-0.588-1.243-0.588-1.979c0-1.152,0.428-2.076,1.283-2.772c0.855-0.695,2.205-1.044,4.044-1.044h3.312v-0.191
			c0-0.896-0.269-1.584-0.803-2.064c-0.537-0.479-1.332-0.72-2.39-0.72c-0.72,0-1.428,0.112-2.123,0.336
			c-0.696,0.226-1.285,0.536-1.765,0.937l-1.177-2.184c0.672-0.512,1.48-0.903,2.424-1.176c0.945-0.272,1.945-0.408,3-0.408
			C273.833,150.732,275.275,151.185,276.275,152.089z M273.54,161.161c0.584-0.344,0.996-0.836,1.235-1.476v-1.488h-3.096
			c-1.728,0-2.593,0.568-2.593,1.704c0,0.544,0.218,0.978,0.648,1.296c0.432,0.32,1.031,0.48,1.801,0.48
			C272.288,161.677,272.956,161.505,273.54,161.161z"/>
		<path fill="#FF7B00" d="M292.775,152.148c0.978,0.944,1.466,2.344,1.466,4.2v7.344h-3v-6.96c0-1.12-0.265-1.964-0.794-2.532
			c-0.526-0.567-1.278-0.852-2.256-0.852c-1.104,0-1.976,0.332-2.614,0.996c-0.642,0.664-0.961,1.62-0.961,2.867v6.479h-3v-12.815
			h2.856v1.656c0.495-0.592,1.118-1.04,1.87-1.344c0.753-0.304,1.601-0.456,2.546-0.456
			C290.504,150.732,291.799,151.205,292.775,152.148z"/>
		<path fill="#FF7B00" d="M298.2,148.249c-0.367-0.344-0.552-0.771-0.552-1.283c0-0.513,0.185-0.94,0.552-1.284
			c0.368-0.344,0.823-0.517,1.368-0.517c0.543,0,1,0.165,1.367,0.492c0.368,0.328,0.553,0.74,0.553,1.236
			c0,0.527-0.18,0.972-0.54,1.332c-0.359,0.359-0.82,0.54-1.38,0.54C299.023,148.765,298.568,148.593,298.2,148.249z
			 M298.055,150.877h3v12.816h-3V150.877z"/>
		<path fill="#FF7B00" d="M315,161.293v2.4h-11.064v-1.896l7.031-8.52h-6.887v-2.4h10.727v1.896l-7.055,8.521H315z"/>
		<path fill="#FF7B00" d="M326.987,152.089c1,0.903,1.5,2.268,1.5,4.092v7.512h-2.832v-1.56c-0.367,0.56-0.893,0.987-1.57,1.283
			c-0.682,0.296-1.5,0.444-2.461,0.444c-0.959,0-1.799-0.164-2.521-0.492c-0.721-0.327-1.275-0.783-1.668-1.368
			c-0.393-0.583-0.588-1.243-0.588-1.979c0-1.152,0.43-2.076,1.283-2.772c0.857-0.695,2.205-1.044,4.045-1.044h3.313v-0.191
			c0-0.896-0.27-1.584-0.805-2.064c-0.535-0.479-1.332-0.72-2.389-0.72c-0.719,0-1.428,0.112-2.123,0.336
			c-0.695,0.226-1.283,0.536-1.764,0.937l-1.176-2.184c0.672-0.512,1.479-0.903,2.424-1.176c0.943-0.273,1.943-0.408,3-0.408
			C324.543,150.732,325.987,151.185,326.987,152.089z M324.252,161.161c0.584-0.344,0.996-0.836,1.234-1.476v-1.488h-3.096
			c-1.729,0-2.594,0.568-2.594,1.704c0,0.544,0.217,0.978,0.648,1.296c0.432,0.32,1.033,0.48,1.801,0.48
			C323,161.677,323.668,161.505,324.252,161.161z"/>
		<path fill="#FF7B00" d="M340.032,162.997c-0.354,0.288-0.779,0.504-1.283,0.648c-0.506,0.144-1.037,0.216-1.598,0.216
			c-1.408,0-2.496-0.368-3.266-1.104c-0.768-0.736-1.15-1.809-1.15-3.217v-6.168h-2.111v-2.399h2.111v-2.929h3v2.929h3.434v2.399
			h-3.434v6.097c0,0.624,0.15,1.1,0.457,1.428c0.303,0.328,0.742,0.492,1.318,0.492c0.672,0,1.232-0.176,1.682-0.528
			L340.032,162.997z"/>
		<path fill="#FF7B00" d="M342.647,148.249c-0.367-0.344-0.553-0.771-0.553-1.283c0-0.513,0.186-0.94,0.553-1.284
			c0.367-0.344,0.822-0.517,1.367-0.517c0.543,0,1,0.165,1.367,0.492c0.369,0.328,0.553,0.74,0.553,1.236
			c0,0.527-0.18,0.972-0.541,1.332c-0.357,0.359-0.818,0.54-1.379,0.54C343.469,148.765,343.014,148.593,342.647,148.249z
			 M342.502,150.877h3v12.816h-3V150.877z"/>
		<path fill="#FF7B00" d="M351.696,163.021c-1.041-0.56-1.854-1.34-2.438-2.34c-0.586-1-0.877-2.132-0.877-3.396
			s0.291-2.392,0.877-3.384c0.584-0.992,1.396-1.768,2.438-2.328c1.039-0.56,2.207-0.84,3.504-0.84c1.311,0,2.486,0.28,3.525,0.84
			c1.041,0.561,1.854,1.336,2.438,2.328c0.584,0.992,0.877,2.12,0.877,3.384c0,1.265-0.293,2.396-0.877,3.396
			s-1.396,1.78-2.438,2.34c-1.039,0.561-2.217,0.84-3.525,0.84C353.903,163.861,352.735,163.582,351.696,163.021z M357.934,160.188
			c0.721-0.736,1.08-1.704,1.08-2.904c0-1.2-0.359-2.168-1.08-2.903c-0.721-0.736-1.633-1.104-2.734-1.104
			c-1.105,0-2.014,0.368-2.727,1.104c-0.711,0.735-1.066,1.703-1.066,2.903c0,1.2,0.355,2.168,1.066,2.904
			c0.713,0.736,1.621,1.104,2.727,1.104C356.301,161.293,357.215,160.925,357.934,160.188z"/>
		<path fill="#FF7B00" d="M376.079,152.148c0.977,0.944,1.465,2.344,1.465,4.2v7.344h-3v-6.96c0-1.12-0.264-1.964-0.793-2.532
			c-0.527-0.567-1.279-0.852-2.256-0.852c-1.105,0-1.977,0.332-2.615,0.996c-0.641,0.664-0.961,1.62-0.961,2.867v6.479h-3v-12.815
			h2.857v1.656c0.494-0.592,1.117-1.04,1.871-1.344c0.752-0.304,1.6-0.456,2.545-0.456
			C373.805,150.732,375.102,151.205,376.079,152.148z"/>
		<path d="M389.938,162.997c-0.982-0.544-1.756-1.308-2.314-2.292c-0.563-0.983-0.842-2.092-0.842-3.323
			c0-1.232,0.279-2.336,0.842-3.313c0.559-0.976,1.332-1.736,2.314-2.28c0.984-0.543,2.102-0.815,3.35-0.815
			c1.088,0,2.059,0.212,2.916,0.636c0.854,0.424,1.531,1.044,2.027,1.86l-1.271,0.863c-0.418-0.624-0.945-1.092-1.584-1.403
			c-0.641-0.313-1.336-0.469-2.088-0.469c-0.912,0-1.732,0.204-2.461,0.612c-0.729,0.408-1.297,0.988-1.703,1.74
			c-0.408,0.752-0.613,1.607-0.613,2.568c0,0.976,0.205,1.836,0.613,2.579c0.406,0.744,0.975,1.32,1.703,1.729
			c0.729,0.408,1.549,0.612,2.461,0.612c0.752,0,1.447-0.152,2.088-0.456c0.639-0.304,1.166-0.769,1.584-1.393l1.271,0.864
			c-0.496,0.816-1.178,1.438-2.041,1.86c-0.863,0.424-1.832,0.636-2.902,0.636C392.04,163.813,390.922,163.541,389.938,162.997z"/>
		<path d="M409.774,152.209c0.881,0.824,1.32,2.045,1.32,3.66v7.824h-1.633v-1.968c-0.385,0.656-0.947,1.168-1.691,1.536
			s-1.629,0.552-2.652,0.552c-1.408,0-2.527-0.336-3.359-1.008s-1.248-1.561-1.248-2.664c0-1.072,0.389-1.936,1.164-2.592
			c0.775-0.656,2.014-0.984,3.709-0.984h4.008v-0.769c0-1.087-0.305-1.915-0.912-2.483c-0.607-0.567-1.496-0.853-2.664-0.853
			c-0.801,0-1.568,0.133-2.305,0.396c-0.734,0.264-1.367,0.628-1.895,1.092l-0.77-1.271c0.641-0.544,1.408-0.964,2.305-1.261
			c0.896-0.296,1.84-0.443,2.832-0.443C407.629,150.973,408.893,151.385,409.774,152.209z M407.854,161.809
			c0.688-0.44,1.199-1.076,1.535-1.908v-2.064h-3.959c-2.16,0-3.24,0.753-3.24,2.257c0,0.735,0.279,1.315,0.84,1.739
			c0.561,0.425,1.344,0.637,2.354,0.637C406.342,162.469,407.167,162.25,407.854,161.809z"/>
		<path d="M425.938,152.353c0.938,0.92,1.404,2.26,1.404,4.02v7.32h-1.705v-7.152c0-1.313-0.328-2.313-0.982-3
			c-0.656-0.688-1.594-1.031-2.809-1.031c-1.359,0-2.438,0.404-3.229,1.212c-0.793,0.808-1.189,1.924-1.189,3.348v6.624h-1.703
			V151.07h1.633v2.328c0.463-0.769,1.107-1.364,1.932-1.788c0.824-0.424,1.779-0.636,2.867-0.636
			C423.743,150.973,425.002,151.433,425.938,152.353z"/>
		<path d="M447.983,151.777c0.959,0.536,1.711,1.292,2.256,2.268c0.543,0.977,0.814,2.089,0.814,3.337
			c0,1.247-0.271,2.359-0.814,3.336c-0.545,0.976-1.297,1.735-2.256,2.279c-0.961,0.544-2.033,0.816-3.217,0.816
			c-1.057,0-2.004-0.224-2.844-0.672c-0.84-0.448-1.518-1.096-2.029-1.944v2.496h-1.631v-17.808h1.703v7.584
			c0.529-0.816,1.205-1.437,2.029-1.86c0.822-0.424,1.746-0.636,2.77-0.636C445.95,150.973,447.022,151.241,447.983,151.777z
			 M447.047,161.688c0.719-0.408,1.283-0.988,1.691-1.74s0.611-1.607,0.611-2.567c0-0.961-0.203-1.816-0.611-2.568
			s-0.973-1.332-1.691-1.74c-0.719-0.408-1.521-0.612-2.4-0.612c-0.896,0-1.699,0.204-2.412,0.612
			c-0.711,0.408-1.271,0.988-1.68,1.74s-0.611,1.607-0.611,2.568c0,0.96,0.203,1.815,0.611,2.567s0.969,1.332,1.68,1.74
			c0.713,0.408,1.516,0.612,2.412,0.612C445.526,162.301,446.327,162.097,447.047,161.688z"/>
		<path d="M465.526,157.909h-10.561c0.096,1.313,0.602,2.372,1.512,3.181c0.912,0.808,2.064,1.212,3.457,1.212
			c0.783,0,1.502-0.141,2.158-0.42c0.656-0.28,1.227-0.692,1.705-1.236l0.959,1.104c-0.559,0.672-1.26,1.185-2.1,1.536
			c-0.84,0.353-1.764,0.528-2.771,0.528c-1.297,0-2.443-0.276-3.443-0.828c-1-0.552-1.779-1.315-2.34-2.292
			c-0.561-0.976-0.842-2.08-0.842-3.312c0-1.232,0.27-2.336,0.807-3.313c0.535-0.976,1.27-1.736,2.207-2.28
			c0.936-0.543,1.986-0.815,3.156-0.815c1.166,0,2.217,0.272,3.145,0.815c0.928,0.544,1.656,1.301,2.184,2.269
			c0.527,0.968,0.791,2.076,0.791,3.324L465.526,157.909z M456.37,153.601c-0.824,0.776-1.291,1.788-1.404,3.036h8.953
			c-0.113-1.248-0.58-2.26-1.404-3.036c-0.822-0.776-1.852-1.164-3.084-1.164C458.213,152.437,457.194,152.825,456.37,153.601z"/>
		<path d="M68.811,179.869l-5.616,12.624h-1.752l-5.592-12.624h1.776l4.728,10.752l4.776-10.752H68.811z"/>
		<path d="M81.844,186.709H71.283c0.096,1.313,0.6,2.372,1.512,3.181c0.912,0.808,2.064,1.212,3.456,1.212
			c0.784,0,1.504-0.141,2.16-0.42c0.655-0.28,1.224-0.692,1.704-1.236l0.96,1.104c-0.561,0.672-1.261,1.185-2.101,1.536
			c-0.84,0.353-1.764,0.528-2.771,0.528c-1.296,0-2.444-0.276-3.443-0.828c-1.001-0.552-1.781-1.315-2.341-2.292
			c-0.56-0.976-0.84-2.08-0.84-3.312s0.268-2.336,0.804-3.313c0.536-0.976,1.272-1.736,2.208-2.28
			c0.936-0.543,1.987-0.815,3.155-0.815s2.216,0.272,3.144,0.815c0.928,0.544,1.656,1.301,2.185,2.269
			c0.529,0.968,0.792,2.076,0.792,3.324L81.844,186.709z M72.687,182.401c-0.824,0.776-1.293,1.788-1.404,3.036h8.951
			c-0.111-1.248-0.58-2.26-1.403-3.036c-0.824-0.776-1.853-1.164-3.084-1.164C74.531,181.237,73.51,181.625,72.687,182.401z"/>
		<path d="M88.766,180.42c0.792-0.432,1.772-0.647,2.94-0.647v1.655l-0.408-0.023c-1.328,0-2.368,0.408-3.12,1.224
			c-0.753,0.816-1.128,1.96-1.128,3.433v6.432h-1.704V179.87h1.632v2.472C87.379,181.493,87.974,180.853,88.766,180.42z"/>
		<path d="M105.937,179.869l-6.311,14.135c-0.513,1.185-1.104,2.024-1.776,2.521c-0.672,0.495-1.479,0.744-2.424,0.744
			c-0.607,0-1.176-0.097-1.703-0.288c-0.528-0.192-0.984-0.479-1.369-0.864l0.793-1.272c0.639,0.641,1.407,0.96,2.304,0.96
			c0.575,0,1.067-0.159,1.476-0.479c0.409-0.32,0.788-0.864,1.141-1.632l0.552-1.225l-5.64-12.6h1.775l4.752,10.728l4.752-10.728
			H105.937z"/>
		<path d="M124.838,181.153c0.936,0.92,1.404,2.26,1.404,4.02v7.32h-1.704v-7.152c0-1.312-0.328-2.312-0.983-3
			c-0.656-0.688-1.593-1.031-2.809-1.031c-1.36,0-2.436,0.404-3.229,1.212c-0.791,0.808-1.188,1.924-1.188,3.348v6.624h-1.704
			v-17.808h1.704v7.392c0.464-0.735,1.104-1.304,1.92-1.704c0.816-0.399,1.752-0.6,2.809-0.6
			C122.642,179.772,123.902,180.233,124.838,181.153z"/>
		<path d="M141.914,186.709h-10.561c0.096,1.313,0.6,2.372,1.512,3.181c0.912,0.808,2.064,1.212,3.456,1.212
			c0.784,0,1.504-0.141,2.16-0.42c0.655-0.28,1.224-0.692,1.704-1.236l0.96,1.104c-0.561,0.672-1.261,1.185-2.101,1.536
			c-0.84,0.353-1.764,0.528-2.771,0.528c-1.296,0-2.444-0.276-3.443-0.828c-1.001-0.552-1.781-1.315-2.341-2.292
			c-0.56-0.976-0.84-2.08-0.84-3.312s0.268-2.336,0.804-3.313c0.536-0.976,1.272-1.736,2.209-2.28
			c0.936-0.543,1.987-0.815,3.155-0.815s2.216,0.272,3.144,0.815c0.928,0.544,1.656,1.301,2.185,2.269
			c0.529,0.968,0.792,2.076,0.792,3.324L141.914,186.709z M132.758,182.401c-0.824,0.776-1.293,1.788-1.404,3.036h8.951
			c-0.111-1.248-0.58-2.26-1.403-3.036c-0.824-0.776-1.853-1.164-3.084-1.164C134.601,181.237,133.581,181.625,132.758,182.401z"/>
		<path d="M145.417,174.685h1.704v17.808h-1.704V174.685z"/>
		<path d="M161.594,180.577c0.959,0.536,1.711,1.292,2.256,2.268c0.543,0.977,0.815,2.089,0.815,3.337
			c0,1.264-0.272,2.384-0.815,3.359c-0.545,0.977-1.293,1.732-2.244,2.269c-0.953,0.536-2.028,0.804-3.229,0.804
			c-1.023,0-1.948-0.212-2.771-0.636c-0.824-0.424-1.5-1.044-2.028-1.86v7.032h-1.704v-17.28h1.632v2.496
			c0.513-0.832,1.188-1.472,2.028-1.92c0.84-0.448,1.788-0.672,2.844-0.672C159.56,179.772,160.633,180.041,161.594,180.577z
			 M160.657,190.489c0.72-0.408,1.284-0.988,1.692-1.74c0.407-0.752,0.611-1.607,0.611-2.567c0-0.961-0.204-1.813-0.611-2.557
			c-0.408-0.744-0.973-1.323-1.692-1.74c-0.72-0.415-1.521-0.624-2.4-0.624c-0.896,0-1.7,0.209-2.411,0.624
			c-0.713,0.417-1.272,0.996-1.681,1.74c-0.409,0.744-0.612,1.596-0.612,2.557c0,0.96,0.204,1.815,0.612,2.567
			c0.408,0.752,0.968,1.332,1.681,1.74c0.711,0.408,1.516,0.612,2.411,0.612C159.136,191.101,159.937,190.896,160.657,190.489z"/>
		<path d="M170.652,176.604c-0.375,0.399-0.563,0.992-0.563,1.775v1.488h3.888v1.44h-3.84v11.184h-1.703v-11.184h-2.256v-1.44h2.256
			v-1.56c0-1.152,0.332-2.064,0.996-2.736c0.663-0.672,1.604-1.008,2.819-1.008c0.479,0,0.944,0.068,1.392,0.204
			c0.448,0.136,0.824,0.332,1.129,0.588l-0.576,1.271c-0.496-0.416-1.121-0.624-1.873-0.624
			C171.585,176.004,171.029,176.205,170.652,176.604z"/>
		<path d="M187.656,179.869v12.624h-1.631v-2.304c-0.449,0.768-1.064,1.364-1.849,1.788c-0.785,0.424-1.681,0.636-2.688,0.636
			c-1.647,0-2.947-0.46-3.899-1.38c-0.952-0.92-1.429-2.269-1.429-4.044v-7.32h1.705v7.152c0,1.328,0.327,2.336,0.983,3.023
			c0.656,0.688,1.592,1.032,2.808,1.032c1.328,0,2.377-0.404,3.145-1.212c0.768-0.808,1.152-1.932,1.152-3.372v-6.624
			L187.656,179.869L187.656,179.869z"/>
		<path d="M192.432,174.685h1.704v17.808h-1.704V174.685z"/>
		<path d="M211.824,191.725c-0.32,0.287-0.716,0.508-1.188,0.659c-0.473,0.152-0.964,0.229-1.477,0.229
			c-1.184,0-2.096-0.32-2.735-0.96c-0.639-0.64-0.96-1.544-0.96-2.712v-7.632h-2.256v-1.44h2.256v-2.76h1.704v2.76h3.84v1.44h-3.84
			v7.535c0,0.753,0.188,1.324,0.563,1.717c0.376,0.392,0.916,0.588,1.62,0.588c0.353,0,0.692-0.056,1.021-0.168
			c0.329-0.112,0.611-0.272,0.852-0.479L211.824,191.725z"/>
		<path d="M216.337,191.785c-0.976-0.552-1.744-1.315-2.304-2.292c-0.561-0.976-0.84-2.08-0.84-3.312s0.279-2.336,0.84-3.313
			c0.56-0.976,1.328-1.736,2.304-2.28c0.976-0.543,2.071-0.815,3.288-0.815c1.216,0,2.312,0.272,3.288,0.815
			c0.976,0.544,1.739,1.305,2.292,2.28c0.552,0.977,0.828,2.08,0.828,3.313c0,1.231-0.276,2.336-0.828,3.312
			c-0.553,0.977-1.316,1.74-2.292,2.292c-0.977,0.552-2.072,0.828-3.288,0.828C218.408,192.613,217.312,192.336,216.337,191.785z
			 M222.037,190.489c0.711-0.408,1.268-0.988,1.668-1.74c0.399-0.752,0.6-1.607,0.6-2.567c0-0.961-0.2-1.816-0.6-2.568
			s-0.957-1.332-1.668-1.74c-0.713-0.408-1.517-0.612-2.412-0.612c-0.896,0-1.7,0.204-2.412,0.612
			c-0.712,0.408-1.271,0.988-1.68,1.74c-0.409,0.752-0.612,1.607-0.612,2.568c0,0.96,0.204,1.815,0.612,2.567
			c0.408,0.752,0.968,1.332,1.68,1.74c0.712,0.408,1.516,0.612,2.412,0.612C220.52,191.101,221.324,190.896,222.037,190.489z"/>
		<path d="M255.275,181.141c0.904,0.911,1.356,2.256,1.356,4.031v7.32h-1.704v-7.152c0-1.312-0.316-2.312-0.947-3
			c-0.633-0.688-1.524-1.031-2.677-1.031c-1.312,0-2.345,0.404-3.096,1.212c-0.753,0.808-1.128,1.924-1.128,3.348v6.624h-1.704
			v-7.152c0-1.312-0.316-2.312-0.948-3c-0.633-0.688-1.532-1.031-2.699-1.031c-1.297,0-2.324,0.404-3.084,1.212
			c-0.761,0.808-1.141,1.924-1.141,3.348v6.624H235.8V179.87h1.632v2.304c0.447-0.768,1.072-1.359,1.872-1.775
			c0.8-0.416,1.72-0.624,2.761-0.624c1.055,0,1.971,0.224,2.748,0.672c0.775,0.448,1.355,1.112,1.739,1.992
			c0.464-0.832,1.132-1.484,2.004-1.956c0.872-0.472,1.868-0.708,2.988-0.708C253.128,179.772,254.371,180.229,255.275,181.141z"/>
		<path d="M272.304,186.709h-10.561c0.096,1.313,0.6,2.372,1.512,3.181c0.912,0.808,2.064,1.212,3.456,1.212
			c0.784,0,1.504-0.141,2.161-0.42c0.654-0.28,1.223-0.692,1.703-1.236l0.961,1.104c-0.562,0.672-1.262,1.185-2.102,1.536
			c-0.84,0.353-1.764,0.528-2.771,0.528c-1.296,0-2.444-0.276-3.443-0.828c-1.001-0.552-1.781-1.315-2.341-2.292
			c-0.56-0.976-0.84-2.08-0.84-3.312s0.268-2.336,0.804-3.313c0.536-0.976,1.272-1.736,2.209-2.28
			c0.936-0.543,1.987-0.815,3.155-0.815s2.216,0.272,3.144,0.815c0.928,0.544,1.655,1.301,2.185,2.269
			c0.529,0.968,0.793,2.076,0.793,3.324L272.304,186.709z M263.148,182.401c-0.824,0.776-1.293,1.788-1.404,3.036h8.951
			c-0.11-1.248-0.579-2.26-1.403-3.036c-0.824-0.776-1.853-1.164-3.083-1.164C264.992,181.237,263.971,181.625,263.148,182.401z"/>
		<path d="M275.077,192.229c-0.25-0.256-0.373-0.568-0.373-0.937c0-0.369,0.123-0.676,0.373-0.924
			c0.248-0.248,0.547-0.372,0.898-0.372s0.654,0.124,0.912,0.372c0.256,0.248,0.384,0.556,0.384,0.924
			c0,0.368-0.128,0.681-0.384,0.937c-0.258,0.256-0.561,0.384-0.912,0.384S275.325,192.485,275.077,192.229z"/>
	</g>
</g>
</svg>
