<?xml version="1.0" encoding="utf-8"?>
<!-- Generator: Adobe Illustrator 16.0.0, SVG Export Plug-In . SVG Version: 6.00 Build 0)  -->
<!DOCTYPE svg PUBLIC "-//W3C//DTD SVG 1.1//EN" "http://www.w3.org/Graphics/SVG/1.1/DTD/svg11.dtd">
<svg version="1.1" id="图层_1" xmlns="http://www.w3.org/2000/svg" xmlns:xlink="http://www.w3.org/1999/xlink" x="0px" y="0px"
	 width="536.032px" height="827.333px" viewBox="0 0 536.032 827.333" enable-background="new 0 0 536.032 827.333"
	 xml:space="preserve">
<g id="图层_1_1_">
	<path fill="#E1E1E1" d="M417.911,666.508c-4.121-0.456-12.734-0.747-21.045-2.496c-13.256-2.783-21.992,1.607-30.857,12.104
		c-49.793,58.98-121.721,59.368-171.823,0.826c-9.305-10.872-17.158-13.082-30.713-8.91
		c-56.647,17.422-100.962,7.758-113.611-49.539c-2.935-13.27-14.269-21.889-25.821-30.131c-26.34-18.794-24.426-61.531-11.86-87.24
		c12.03-24.619,37.38-36.172,67.339-27.115c15.928,4.813,26.058,3.183,38.551-8.461c34.001-31.719,70.325-33.545,109.173-6.185
		c12.357,8.703,19.491,8.231,30.291-2.187c38.662-37.279,77.96-42.204,122.953-15.444c12.902,7.674,25.656,7.146,39.342,7.168
		c62.398,0.089,111.541,49.204,110.883,110.274C530.067,618.379,481.438,666.532,417.911,666.508z"/>
	<path fill="#F8EFEA" d="M440.159,698.12c-0.104-0.027-0.205-0.058-0.309-0.086c0.053,0.09,0.104,0.18,0.152,0.271
		C440.12,698.297,440.17,698.237,440.159,698.12z"/>
	<g>
		<g>
			<path d="M27.561,505.985c0.299,0.652,0.576,1.262,0.873,1.912c-1.886,0.911-3.242,2.205-3.574,4.396
				c0.274,0.088,0.517,0.162,0.757,0.24c3.298,1.094,4.435,5.403,2.026,7.805c-1.386,1.383-3.113,1.783-4.97,1.228
				c-1.964-0.588-3.008-2.075-3.37-4.022c-0.951-5.11,2.523-10.229,7.721-11.435C27.177,506.075,27.328,506.04,27.561,505.985z"/>
			<path d="M40.017,505.98c0.313,0.673,0.598,1.278,0.897,1.921c-1.904,0.887-3.233,2.204-3.602,4.409
				c0.273,0.08,0.54,0.149,0.801,0.237c2.102,0.705,3.359,2.625,3.248,4.955c-0.1,2.049-1.518,3.645-3.699,4.16
				c-2.091,0.492-4.236-0.416-5.23-2.32c-1.305-2.502-1.023-5.041,0.095-7.51C33.98,508.625,36.538,506.756,40.017,505.98z"/>
		</g>
		<g>
			<path d="M505.008,521.805c-0.299-0.653-0.576-1.262-0.873-1.912c1.887-0.91,3.24-2.207,3.574-4.396
				c-0.273-0.088-0.516-0.16-0.756-0.24c-3.299-1.094-4.438-5.403-2.029-7.805c1.387-1.384,3.113-1.783,4.973-1.229
				c1.963,0.588,3.006,2.074,3.369,4.023c0.951,5.11-2.523,10.229-7.721,11.434C505.391,521.717,505.243,521.752,505.008,521.805z"
				/>
			<path d="M492.551,521.808c-0.313-0.672-0.598-1.278-0.896-1.919c1.904-0.887,3.234-2.205,3.602-4.41
				c-0.273-0.079-0.541-0.148-0.801-0.234c-2.104-0.707-3.357-2.627-3.248-4.957c0.1-2.049,1.518-3.646,3.697-4.16
				c2.094-0.491,4.238,0.416,5.232,2.32c1.307,2.502,1.023,5.043-0.094,7.51C498.588,519.167,496.032,521.034,492.551,521.808z"/>
		</g>
	</g>
	<ellipse fill="#E1E1E1" cx="363.442" cy="725.55" rx="20.49" ry="15.305"/>
	<ellipse fill="#E1E1E1" cx="405.938" cy="748.248" rx="11.49" ry="8.991"/>
	<path fill="#E1E1E1" d="M117.668,248.802c4.115-0.456,12.719-0.747,21.017-2.496c13.239-2.783,21.965,1.607,30.821,12.104
		c49.731,58.98,121.571,59.368,171.612,0.826c9.293-10.872,17.137-13.082,30.674-8.91c56.578,17.422,100.838,7.758,113.473-49.54
		c2.932-13.269,14.25-21.888,25.789-30.13c26.309-18.794,24.396-61.532,11.848-87.241c-12.018-24.619-37.334-36.171-67.258-27.115
		c-15.906,4.813-26.025,3.183-38.504-8.46c-33.959-31.719-70.236-33.546-109.037-6.185c-12.344,8.703-19.469,8.23-30.254-2.188
		C239.234,2.189,199.985-2.736,155.047,24.024c-12.888,7.674-25.626,7.146-39.295,7.168C53.43,31.282,4.35,80.397,5.006,141.468
		C5.647,200.672,54.216,248.825,117.668,248.802z"/>
	<ellipse fill="#E1E1E1" cx="172.068" cy="307.844" rx="20.466" ry="15.305"/>
	<ellipse fill="#E1E1E1" cx="129.624" cy="330.54" rx="11.477" ry="8.991"/>
	<g>
		<g>
			<path d="M33.272,89.248c0.299,0.652,0.576,1.262,0.873,1.912c-1.886,0.911-3.242,2.205-3.574,4.396
				c0.274,0.088,0.517,0.162,0.757,0.241c3.298,1.093,4.435,5.403,2.026,7.805c-1.386,1.382-3.113,1.782-4.97,1.227
				c-1.964-0.588-3.008-2.075-3.37-4.023c-0.951-5.11,2.523-10.228,7.721-11.434C32.887,89.337,33.039,89.302,33.272,89.248z"/>
			<path d="M45.728,89.243c0.313,0.673,0.598,1.279,0.897,1.921c-1.904,0.887-3.233,2.204-3.602,4.409
				c0.273,0.08,0.54,0.149,0.801,0.238c2.102,0.704,3.359,2.625,3.248,4.955c-0.1,2.048-1.518,3.644-3.699,4.159
				c-2.091,0.492-4.236-0.415-5.23-2.319c-1.305-2.502-1.023-5.042,0.095-7.51C39.691,91.888,42.249,90.02,45.728,89.243z"/>
		</g>
		<g>
			<path d="M510.719,105.069c-0.299-0.653-0.576-1.262-0.873-1.912c1.887-0.91,3.24-2.207,3.574-4.396
				c-0.273-0.088-0.516-0.161-0.756-0.241c-3.299-1.094-4.438-5.403-2.029-7.805c1.387-1.383,3.113-1.782,4.973-1.228
				c1.963,0.588,3.006,2.075,3.369,4.024c0.951,5.11-2.523,10.228-7.721,11.433C511.102,104.98,510.954,105.015,510.719,105.069z"/>
			<path d="M498.26,105.071c-0.313-0.672-0.596-1.278-0.895-1.919c1.904-0.887,3.232-2.205,3.602-4.41
				c-0.273-0.079-0.541-0.149-0.801-0.235c-2.105-0.707-3.359-2.627-3.248-4.957c0.1-2.048,1.518-3.645,3.697-4.159
				c2.092-0.492,4.236,0.415,5.23,2.319c1.307,2.502,1.025,5.043-0.094,7.51C504.299,102.429,501.743,104.296,498.26,105.071z"/>
		</g>
	</g>
	<g>
		<path fill="#E1E1E1" d="M25.411,412.3c0,0-21.852,3.969-15.227,8.094s25.75,6.625,61,6.625c35.251,0,64.751-5.547,59.501-9.397
			c-5.25-3.852-13.715-4.75-13.715-4.75"/>
		<path fill="#F3BD95" d="M60.778,376.112c0.228-0.185,0.428-0.47,0.686-0.538c2.094-0.555,3.438-1.802,3.816-3.986
			c0.281-0.094,0.656-0.104,0.832-0.295c2.23-2.43,5.092-3.078,8.255-3.48c1.814-0.23,4.139,0.455,5.701-1.815
			c-5.418,0.829-10.267-0.445-14.971-2.512c-2.173-1.265-4.422-2.415-6.503-3.815c-4.885-3.286-7.369-8.068-8.17-13.799
			c-0.122-0.875-0.295-1.513-1.27-1.856c-3.132-1.104-4.313-3.631-4.652-6.709c-0.025-0.466-0.053-0.931-0.08-1.396
			c0.556-1.693,1.954-2.703,3.145-3.882c0.348,0.075,0.695,0.149,1.043,0.224c0.398,0.425,0.901,0.784,0.918,1.451
			c-2.11,0.247-3.816,2.167-3.026,3.642c0.795,1.486,1.944,2.794,3.023,4.111c0.401,0.492,1.102,0.393,1.688,0.223
			c0.306-0.088,0.568-0.457,0.385-0.683c-0.984-1.211-0.419-3.522-2.895-3.73c-1.557-0.132-1.242-1.231-0.41-2.024
			c0.395-0.375,1.07-0.454,1.619-0.668c0.584,0.44,0.163,1.89,1.432,1.577c1.108-0.274,0.694-1.342,0.728-2.067
			c0.081-1.766,0.028-3.539,0.029-5.309c-0.037-1.363-0.074-2.727-0.11-4.09c-0.257-1.988,0.479-3.895,0.479-5.862
			c0.434-0.675,0.867-1.351,1.301-2.026c0.791-0.21,0.66-0.869,0.679-1.435c0.078-2.419,0.831-4.609,2.199-6.595
			c1.492-0.232,2.729,0.742,4.146,0.877c2.053,0.647,4.139,0.779,6.257,0.393c1.233-0.126,2.466-0.251,3.698-0.377
			c0.338,0.023,0.714,0.152,0.879-0.313l-0.007,0.08c1.036-0.121,2.079-0.202,3.107-0.369c4.674-0.76,9.332-1.553,13.773,1.027
			c0.611,0.355,1.471,0.558,2.158,0.457c2.023-0.296,2.594,0.973,3.029,2.496c0.846,2.965,1.24,5.997,1.391,9.071
			c0.23,4.693,0.48,9.386,0.723,14.079c-1.006,4.242-0.988,8.615-1.5,12.916c-0.311,2.615-1.623,4.48-2.938,6.401
			c-1.602,2.338-3.521,4.467-5.391,6.61c-0.773,0.887-1.447,1.896-2.59,2.453c-1.045,0.508-2.529,0.763-2.645,2.183
			c-0.176,2.158-0.434,4.387,0.15,6.493c0.422,1.525,2.482,0.839,3.369,1.932c-0.006,1.051,0.109,2.119-0.043,3.148
			c-0.438,2.968-1.291,5.598-4.318,7.181c-2.678,1.4-5.447,1.182-8.251,1.467C66.479,387.492,59.938,381.738,60.778,376.112z
			 M86.148,321.883c-1.195,0.058-2.395,0.093-3.588,0.182c-0.83,0.061-1.74,0.068-1.365,1.394c0.277,0.974,0.426,1.839,1.857,1.541
			c3.049-0.635,6.109-0.404,9.137,0.25c0.754,0.163,1.449,0.478,1.805-0.592c0.391-1.179-0.475-1.443-1.225-1.73
			C90.64,322.113,88.414,321.878,86.148,321.883z M70.944,323.273c0.148-0.664-0.157-0.975-0.797-1.05
			c-3.67-0.427-7.314-0.487-10.846,0.827c-0.598,0.223-1.332,0.42-1.088,1.393c0.271,1.078,1.018,0.848,1.75,0.713
			c3.033-0.558,6.117-0.94,9.13-0.246C70.889,325.324,70.659,324.182,70.944,323.273z M76.588,354.42
			c1.699,0.24,3.219-0.477,4.73-1.1c0.932-0.385,1.303-1.312,1.043-2.253c-0.338-1.224-1.211-0.408-1.838-0.282
			c-2.736,0.546-5.471,0.759-8.231,0.226c-0.494-0.096-1.105-0.365-1.41,0.239c-0.349,0.692,0.223,1.157,0.699,1.472
			C73.087,353.717,74.642,354.628,76.588,354.42z M88.767,330.721c-0.109-1.29-0.262-3.196-2.307-3.138
			c-1.963,0.056-2.273,1.925-2.229,3.551c0.043,1.526,0.348,3.104,2.232,3.397C87.795,334.739,88.801,333.119,88.767,330.721z
			 M68.042,330.791c-0.128-1.398-0.28-3.294-2.347-3.215c-1.979,0.075-2.215,1.962-2.224,3.576c-0.008,1.579,0.396,3.314,2.25,3.321
			C67.746,334.478,67.993,332.67,68.042,330.791z"/>
		<path fill="#28998E" d="M116.72,411.212c-0.855-6.892-2.279-13.685-3.598-20.496c-0.629-3.25-4.92-7.511-8.217-8.192
			c1.482,1.667,1.865,3.628,1.869,5.822c0.018,7.801,0.158,15.602,0.254,23.401c0.77,5.854,0.77,5.853-4.924,5.854
			c-16.646,0.004-33.293,0.01-49.939,0.013c-1.282,0-2.786,0.233-2.129-1.922c0.474-5.832,0.341-11.649-0.541-17.436
			c-0.853-5.592-2.214-10.998-6.22-15.319c-1.816,0.364-3.711,0.848-5.291,1.597c-5.775,2.739-9.604,7.176-10.631,13.759
			c-0.679,4.354-1.36,8.701-1.817,13.084l-0.853,6.245h93.001L116.72,411.212z"/>
		<path fill="#4E6F97" d="M104.906,382.524c1.482,1.667,1.865,3.628,1.869,5.822c0.018,7.801,0.158,15.602,0.254,23.401
			c-0.943,0.909-1.525-0.877-2.412-0.327c-2.799,1.733-6.146,1.128-9.057,1.359c-6.277,0.499-12.611,0.78-18.918,1.212
			c-3.237,0.222-6.452,0.179-9.729,0.662c-5.541,0.814-11.28-0.027-16.876,1.038c0.474-5.832,0.341-11.649-0.541-17.436
			c-0.853-5.592-2.214-10.998-6.22-15.319c4.498-1.736,8.995-3.474,13.492-5.21c0.614,5.14,2.713,9.368,7.55,11.749
			c3.403,1.676,7.105,1.709,10.803,1.542c8.123-0.367,12.883-4.658,14.055-12.669c0.094-0.645-0.076-1.42,0.902-1.535
			C95.146,378.39,100.531,379.149,104.906,382.524z"/>
		<path fill="#4C2912" stroke="#4C2912" stroke-width="0.5" stroke-miterlimit="10" d="M56.648,308.765
			c-1.368,1.986-2.121,4.176-2.199,6.595c-0.019,0.566,0.112,1.225-0.679,1.435c-0.716-0.651-1.543-1.215-2.125-1.968
			c-1.502-1.943-3.119-2.778-5.273-0.978c-0.148-5.05,0.842-9.812,3.549-14.149c0.228-0.364,0.438-0.815,0.444-1.229
			c0.085-5.381,3.353-8.59,7.579-11.122c3.166-1.897,6.66-2.645,10.314-2.604c2.467,0.027,4.932,0.216,7.396,0.333
			c-0.018,0.674-0.045,1.338,0.4,1.931c2.254,3.011,5.057,5.487,7.805,8.018c0.6,0.552,1.092,0.217,1.561-0.212
			c0.549-0.506,0.846-1.091,0.318-1.766c-0.367-0.469-0.768-0.94-1.242-1.29c-1.488-1.098-1.855-2.353-0.709-3.906
			c4.943,1.226,9.756,1.263,14.389-1.285c1.094-0.601,1.955,0.491,2.73,1.097c5.65,4.407,5.969,13.524,0.498,18.703
			c-1.523,1.442-1.998,2.78-1.895,4.821c0.434,8.562-1.074,16.871-3.707,24.996c-0.242-4.693-0.492-9.386-0.723-14.079
			c-0.15-3.074-0.545-6.106-1.391-9.071c-0.436-1.523-1.006-2.792-3.029-2.496c-0.688,0.101-1.547-0.102-2.158-0.457
			c-4.441-2.58-9.1-1.787-13.773-1.027c-1.028,0.167-2.071,0.249-3.107,0.369c-0.054-0.646,0.231-1.207,0.61-1.654
			c1.51-1.78,1.305-3.667-0.339-4.935c-1.825-1.408-3.433-2.898-4.677-4.823c-0.164-0.255-0.645-0.355-0.999-0.43
			c-2.106-0.441-7.188,2.843-7.667,4.943c-0.151,0.664,0.157,1.209,0.633,1.584c0.64,0.503,1.127,0.067,1.49-0.455
			c0.821-1.183,1.775-2.225,3.021-2.967c0.545-0.324,1.123-0.5,1.643,0.039c0.48,0.5,0.5,1.144,0.168,1.666
			c-0.479,0.75-1.047,1.46-1.676,2.087c-0.563,0.562-1.236,1.041-0.39,1.809c0.683,0.62,1.338,0.382,1.978-0.214
			c0.65-0.608,1.364-1.157,2.092-1.673c0.818-0.581,1.584-0.366,2.168,0.379c0.57,0.723,0.654,1.442-0.063,2.208
			c-0.904,0.968-1.713,2.026-2.563,3.045c-2.118,0.386-4.204,0.254-6.257-0.393c-0.307-2.792-3.054-4.813-5.313-3.729
			c-1.757,0.842-3.012,2.408-4.321,3.834c-0.404,0.44-0.43,0.946,0.111,1.351c0.516,0.388,1.047,0.6,1.598,0.057
			c0.586-0.577,1.133-1.198,1.763-1.722C55.195,308.965,55.634,307.939,56.648,308.765z M73.49,288.519
			c-0.423,0.133-0.915,0.169-1.256,0.416c-1.954,1.413-3.577,3.191-5.241,4.917c-0.76,0.788-0.135,1.342,0.418,1.881
			c2.135,2.082,4.219,4.218,6.425,6.221c0.834,0.757,1.455,2.931,3.078,1.287c1.568-1.589-0.604-2.22-1.273-3.179
			c-0.473-0.677-1.25-1.197-0.486-2.113c0.707-0.848,1.441-1.553,2.674-0.818c0.77,0.459,1.602,0.828,2.428,1.188
			c1.096,0.479,1.982,0.077,2.432-0.933c0.535-1.201-0.607-1.311-1.309-1.607c-1.844-0.779-3.551-1.44-3.922-3.941
			C77.176,289.931,75.285,289.132,73.49,288.519z"/>
		<path fill="#28998E" d="M90.078,376.814c-0.979,0.115-0.809,0.891-0.902,1.535c-1.172,8.011-5.932,12.302-14.055,12.669
			c-3.697,0.167-7.399,0.134-10.803-1.542c-4.837-2.381-6.936-6.609-7.55-11.749c1.218-0.834,2.554-1.375,4.01-1.615
			c-0.84,5.627,5.701,11.381,10.869,10.857c2.804-0.285,5.573-0.066,8.251-1.467c3.027-1.583,3.881-4.213,4.318-7.181
			c0.152-1.029,0.037-2.098,0.043-3.148C86.416,374.949,88.224,375.958,90.078,376.814z"/>
		<path fill="#4C2912" stroke="#4C2912" stroke-width="0.5" stroke-miterlimit="10" d="M83.787,287.853
			c-1.146,1.554-0.779,2.809,0.709,3.906c0.475,0.35,0.875,0.821,1.242,1.29c0.527,0.675,0.23,1.26-0.318,1.766
			c-0.469,0.43-0.961,0.765-1.561,0.212c-2.748-2.531-5.551-5.007-7.805-8.018c-0.445-0.593-0.418-1.256-0.4-1.931
			C78.605,285.299,81.332,286.185,83.787,287.853z"/>
		<path fill="#DE9F5F" d="M65.097,363.485c4.704,2.066,9.553,3.341,14.971,2.512c-1.563,2.271-3.887,1.585-5.701,1.815
			c-3.163,0.402-6.024,1.051-8.255,3.48c-0.176,0.191-0.551,0.201-0.832,0.295C65.219,368.887,65.159,366.186,65.097,363.485z"/>
		<path fill="#4C2912" stroke="#4C2912" stroke-width="0.5" stroke-miterlimit="10" d="M46.46,320.58
			c-0.08-0.296-0.161-0.593-0.241-0.89c0.046-1.507,0.091-3.014,0.136-4.521c1.885,0.347,3.543,1.039,4.594,2.791
			c0.314,0.525,0.926,0.728,1.521,0.86c0,1.967-0.735,3.874-0.479,5.861c-0.896-0.22-1.513-0.854-2.157-1.45
			C48.78,322.258,48.084,320.83,46.46,320.58z"/>
		<path fill="#4C2912" stroke="#4C2912" stroke-width="0.5" stroke-miterlimit="10" d="M52.469,318.821
			c-0.596-0.132-1.207-0.335-1.521-0.86c-1.051-1.752-2.709-2.443-4.594-2.791c0.006-0.441,0.012-0.881,0.018-1.321
			c2.154-1.8,3.771-0.965,5.273,0.978c0.582,0.753,1.409,1.317,2.125,1.968C53.337,317.47,52.903,318.146,52.469,318.821z"/>
		<path fill="#E8D6CE" d="M44.423,335.908c0.027,0.466,0.055,0.931,0.08,1.396c-0.445-0.002-0.891-0.003-1.336-0.004l-0.004-0.005
			C43.177,336.465,43.923,336.298,44.423,335.908z"/>
		<path fill="#4C2912" stroke="#4C2912" stroke-width="0.5" stroke-miterlimit="10" d="M67.051,310.035
			c0.851-1.019,1.659-2.077,2.563-3.045c0.717-0.767,0.633-1.485,0.063-2.208c-0.584-0.745-1.35-0.96-2.168-0.379
			c-0.728,0.516-1.441,1.065-2.092,1.673c-0.64,0.597-1.295,0.834-1.978,0.214c-0.847-0.769-0.173-1.247,0.39-1.809
			c0.629-0.627,1.197-1.338,1.676-2.087c0.332-0.522,0.313-1.167-0.168-1.666c-0.52-0.539-1.098-0.363-1.643-0.039
			c-1.246,0.743-2.2,1.785-3.021,2.967c-0.363,0.522-0.851,0.958-1.49,0.455c-0.476-0.375-0.784-0.92-0.633-1.584
			c0.479-2.1,5.561-5.384,7.667-4.943c0.354,0.074,0.835,0.175,0.999,0.43c1.244,1.925,2.852,3.415,4.677,4.823
			c1.644,1.268,1.849,3.154,0.339,4.935c-0.379,0.447-0.664,1.008-0.61,1.654l0.007-0.08c-0.293,0.104-0.586,0.208-0.879,0.313
			C69.516,309.783,68.284,309.909,67.051,310.035z"/>
		<path fill="#4C2912" stroke="#4C2912" stroke-width="0.5" stroke-miterlimit="10" d="M47.567,332.027
			c-1.15-3.259-0.834-6.711-1.334-10.057c0.075-0.463,0.15-0.926,0.227-1.39c1.624,0.25,2.32,1.678,3.373,2.652
			c0.645,0.595,1.262,1.229,2.157,1.45c0.037,1.364,0.074,2.728,0.111,4.091c-0.584,0.999-0.974,2.165-2.458,2.23
			c-0.668,0.029-0.983,0.584-1.033,1.247C48.262,332.175,47.915,332.101,47.567,332.027z"/>
		<path fill="#7C4427" d="M86.148,321.883c2.266-0.005,4.492,0.231,6.621,1.044c0.75,0.287,1.615,0.551,1.225,1.73
			c-0.355,1.069-1.051,0.755-1.805,0.592c-3.027-0.654-6.088-0.885-9.137-0.25c-1.432,0.298-1.58-0.567-1.857-1.541
			c-0.375-1.326,0.535-1.333,1.365-1.394C83.754,321.975,84.953,321.94,86.148,321.883z"/>
		<path fill="#7C4427" d="M70.943,323.274c-0.284,0.908-0.054,2.051-1.85,1.637c-3.013-0.694-6.097-0.312-9.13,0.246
			c-0.732,0.135-1.479,0.365-1.75-0.713c-0.244-0.972,0.49-1.17,1.088-1.393c3.531-1.313,7.176-1.254,10.846-0.827
			C70.787,322.298,71.093,322.61,70.943,323.274z"/>
		<path fill="#F8EFEA" d="M76.588,354.42c-1.945,0.208-3.501-0.703-5.007-1.698c-0.477-0.314-1.048-0.779-0.699-1.472
			c0.305-0.604,0.916-0.335,1.41-0.239c2.761,0.533,5.495,0.32,8.231-0.226c0.627-0.126,1.5-0.941,1.838,0.282
			c0.26,0.942-0.111,1.868-1.043,2.253C79.806,353.944,78.287,354.66,76.588,354.42z"/>
		<path fill="#7C4427" d="M88.767,330.721c0.033,2.397-0.973,4.018-2.303,3.81c-1.885-0.294-2.189-1.871-2.232-3.397
			c-0.045-1.625,0.266-3.495,2.229-3.551C88.506,327.525,88.658,329.431,88.767,330.721z"/>
		<path fill="#7C4427" d="M68.042,330.791c-0.049,1.879-0.296,3.687-2.32,3.681c-1.854-0.006-2.258-1.742-2.25-3.321
			c0.009-1.614,0.245-3.5,2.224-3.576C67.761,327.496,67.914,329.393,68.042,330.791z"/>
		<path fill="#4C2912" stroke="#4C2912" stroke-width="0.5" stroke-miterlimit="10" d="M56.648,308.765
			c-1.015-0.826-1.453,0.2-2.018,0.669c-0.63,0.523-1.177,1.145-1.763,1.722c-0.551,0.543-1.082,0.331-1.598-0.057
			c-0.541-0.405-0.516-0.911-0.111-1.351c1.31-1.427,2.564-2.992,4.321-3.834c2.26-1.084,5.007,0.937,5.313,3.729
			C59.378,309.507,58.14,308.533,56.648,308.765z"/>
		<path fill="#DE9F5F" d="M49.913,334.572c-0.549,0.214-1.225,0.292-1.619,0.668c-0.832,0.792-1.146,1.892,0.41,2.024
			c2.476,0.208,1.91,2.52,2.895,3.73c0.184,0.226-0.079,0.595-0.385,0.683c-0.587,0.17-1.287,0.27-1.688-0.223
			c-1.079-1.317-2.229-2.625-3.023-4.111c-0.79-1.476,0.916-3.396,3.025-3.643C49.907,333.88,49.931,334.217,49.913,334.572z"/>
		<path fill="#4C2912" stroke="#4C2912" stroke-width="0.5" stroke-miterlimit="10" d="M49.913,334.572
			c0.019-0.355-0.006-0.692-0.386-0.872c-0.016-0.667-0.519-1.025-0.917-1.45c0.05-0.663,0.365-1.217,1.033-1.247
			c1.484-0.065,1.874-1.232,2.458-2.23c-0.001,1.77,0.052,3.542-0.029,5.309c-0.033,0.725,0.381,1.792-0.728,2.067
			C50.076,336.462,50.497,335.012,49.913,334.572z"/>
		<path fill="#4C2912" d="M70.749,309.657c0.293-0.104,0.586-0.208,0.879-0.313C71.463,309.809,71.087,309.681,70.749,309.657z"/>
		<path fill="#2C94B9" d="M50.037,415.692c5.596-1.064,11.335-0.225,16.876-1.037c3.277-0.482,6.492-0.439,9.729-0.663
			c6.307-0.433,12.641-0.714,18.918-1.213c2.91-0.231,6.258,0.374,9.057-1.359c0.887-0.55,1.469,1.236,2.412,0.327
			c0.77,5.854,0.77,5.853-4.924,5.854c-16.646,0.004-33.293,0.01-49.939,0.013C50.884,417.614,49.38,417.847,50.037,415.692z"/>
		<path fill="#4C2912" stroke="#4C2912" stroke-width="0.5" stroke-miterlimit="10" d="M73.49,288.519
			c1.795,0.613,3.686,1.413,3.967,3.319c0.371,2.5,2.078,3.162,3.922,3.941c0.701,0.297,1.844,0.407,1.309,1.607
			c-0.449,1.01-1.336,1.412-2.432,0.933c-0.826-0.36-1.658-0.729-2.428-1.188c-1.232-0.735-1.967-0.03-2.674,0.818
			c-0.764,0.916,0.014,1.436,0.486,2.113c0.67,0.959,2.842,1.59,1.273,3.179c-1.623,1.644-2.244-0.53-3.078-1.287
			c-2.206-2.003-4.29-4.139-6.425-6.221c-0.553-0.539-1.178-1.094-0.418-1.881c1.664-1.726,3.287-3.505,5.241-4.917
			C72.575,288.688,73.067,288.652,73.49,288.519z M72.317,296.498c0.78,0.05,2.882-2.171,2.813-2.949
			c-0.092-1.059-0.832-2.131-1.713-1.972c-1.377,0.249-2.511,1.514-2.903,2.772C70.222,295.287,71.571,295.939,72.317,296.498z"/>
		<path fill="#4C2912" d="M72.317,296.498c-0.746-0.56-2.095-1.211-1.803-2.149c0.393-1.259,1.526-2.523,2.903-2.772
			c0.881-0.159,1.621,0.914,1.713,1.972C75.199,294.327,73.097,296.549,72.317,296.498z"/>
	</g>
	<g>
		<path fill="#4C2912" d="M503.69,720.853c0.375,0.903,0.514,1.862,0.887,2.767c0.035,0.17,0.072,0.338,0.109,0.508
			c2.316,9.17,2.52,18.567,3.047,27.918c1.021,18.05,1.51,36.125,2.824,54.162c-0.572,4.486-0.572,4.486-5.982,4.451
			c-0.447-7.64-0.826-15.285-1.875-22.875c-0.609-4.433-2.93-6.674-7.393-7.402c-3.086-1.574-6.436-2.348-9.813-3.03
			c-0.787-0.296-1.551-0.722-2.367-0.862c-2.404-0.416-3.67-1.607-3.273-4.099c0.211-3.019,0.188-6.037,0.025-9.056
			c1.512-1.771,3.777-2.522,5.582-3.918c3.703-2.859,6.66-6.229,8.348-10.549c0.4-1.022,1.027-1.201,2.023-1.373
			c2.768-0.48,4.209-2.479,4.813-4.914c0.537-2.16,0.945-4.498-1.389-6.135c-1.965-1.388-3.93-2.773-5.895-4.158
			c-1.027-4.465-2.748-8.504-6.439-11.646c-2.398-2.045-3.545-4.637-1.717-7.773c0.424-0.726,0.863-1.594,0.633-3.035
			c-1.051,1.578-1.941,2.808-2.711,4.105c-0.688,1.162-1.365,1.559-2.922,1.242c-5.127-1.043-10.289-1.617-15.598-1.174
			c-8.613,0.721-13.521,5.42-15.979,13.094c-0.25,0.781-0.406,1.592-0.604,2.391c-1.059-0.021-1.938,0.49-2.727,1.047
			c-1.076,0.762-1.637,2.004-0.197,2.67c1.604,0.742,2.027,1.918,2.344,3.332c0.787,11.431,5.855,20.362,16.15,26.254
			c1.057,0.604,2.09,1.244,3.137,1.867c0.029,0.937-0.221,1.885,0.137,2.805c-0.041,2.086-0.189,4.175-0.09,6.254
			c0.064,1.342-0.299,1.863-1.729,1.895c-1.207,0.026-2.408,0.387-3.609,0.598c-3.145,0.027-6.326-0.266-9.303,1.096
			c-4.088,1.508-6.523,4.01-6.684,8.621c-0.287,8.229-0.969,16.443-1.484,24.664c-2.076,0.467-3.215-0.154-3.146-2.41
			c0.021-0.807-0.252-1.622-0.391-2.434c-0.006-0.75-0.012-1.5-0.016-2.25c0.113-0.291,0.02-0.5-0.262-0.637
			c0.002-0.675,0.004-1.349,0.006-2.021c0.053-21.227-1.791-42.475,0.807-63.672c0.994-8.123,2.146-16.209,5.102-23.94
			c3.35-8.767,9.396-14.731,18.896-16.868c5.115-1.15,10.33-1.675,15.445,0.254c0,0,7.049,0.782,14.318,8.471
			C501.999,712.772,503.69,720.853,503.69,720.853z"/>
		<path fill="#E1E1E1" d="M510.557,806.208c-0.572,4.486-0.572,4.486-5.982,4.451c-5-0.002-10.002-0.002-15.004-0.004
			c-12.631,0.01-25.262,0.021-37.893,0.031c-2.568-0.031-5.139-0.063-7.707-0.096c-2.074,0.467-3.213-0.154-3.146-2.41
			c0.023-0.807-0.25-1.622-0.391-2.434c-3.809,0.588-7.557,1.363-10.777,3.601c-2.049,1.421-2.043,2.845,0.01,4.229
			c3.652,2.465,7.914,3.186,12.16,3.877c8.189,1.332,16.408,2.359,24.744,2.342c2.602-0.006,5.197,0.492,7.826,0.402
			c10.9-0.371,21.785-0.76,32.592-2.551c3.832-0.637,7.484-1.592,11.113-2.829c0.971-0.331,1.844-0.798,2.598-1.437
			c1.373-1.163,1.369-3.196-0.162-4.032C517.446,807.665,514.272,806.086,510.557,806.208z"/>
		<path fill="#E8D6CE" d="M440.42,803.499c0.113-0.291,0.02-0.5-0.262-0.638C440.245,803.073,440.333,803.286,440.42,803.499z"/>
		<path fill="#E44846" d="M451.678,810.686c12.631-0.01,25.262-0.021,37.893-0.031c-0.398-4.47-1.877-8.752-2.455-13.188
			c-0.426-3.27-0.5-6.547,0.295-9.799c1.008-4.116,4.172-5.981,7.896-7.289c-3.086-1.573-6.436-2.346-9.813-3.03
			c-3.105,7.901-8.895,12.757-17.387,14.614c-1.131,0.246-1.975,0.043-2.734-0.689c-1.594-1.541-2.975-3.199-3.811-5.302
			c-1.299-3.269-0.594-6.504-0.121-9.763c-3.143,0.027-6.324-0.266-9.303,1.096c-2.375,3.258-3.166,6.904-2.834,10.836
			c0.502,5.973,1.293,11.919,1.637,17.908C451.03,807.581,450.885,809.228,451.678,810.686z"/>
		<path fill="#F3BD95" d="M479.879,763.334c1.512-1.771,3.777-2.522,5.582-3.918c3.703-2.859,6.66-6.229,8.348-10.549
			c0.4-1.022,1.027-1.201,2.023-1.373c2.768-0.48,4.209-2.479,4.813-4.914c0.537-2.16,0.945-4.498-1.387-6.133
			c-0.502,0.106-1.027,0.172-1.342,0.651c1.645,3.717,0.162,6.794-4.361,8.248c1.1-1.808,0.121-4.333,3.268-4.655
			c1.127-0.115,0.889-1.244,0.416-1.966c-0.313-0.472-1.018-0.683-1.057-1.377c-0.182,0.065-0.361,0.132-0.543,0.196
			c-0.561,0.519-1.123,1.035-1.813,1.675c0-1.245,0-2.312,0-3.378c-0.611-0.317-1.209-0.658-1.832-0.948
			c-2.678-1.246-2.6-1.214-3.512,1.414c-1.313,3.778-3.576,6.761-8.039,7.026c-3.783,0.226-7.23-0.782-9.33-4.201
			c-2.988-4.861-2.945-4.887-6.061,0.001c-3.557,5.581-12.313,5.661-15.984,0.188c-0.607-0.902-0.656-2.096-1.619-2.785
			c0.785,11.432,5.854,20.363,16.148,26.254c1.057,0.604,2.092,1.246,3.135,1.869c0.842,0.394,1.73,0.479,2.662,0.543
			C473.065,765.456,476.547,764.815,479.879,763.334z M476.604,750.952c-1.922,4.244-5.389,5.032-9.508,4.803
			c-3.291-0.186-3.215-0.088-3.563-3.264c-0.115-1.068,0.129-1.477,1.125-1.271C468.569,752.022,472.407,750.806,476.604,750.952z"
			/>
		<path fill="#F3BD95" d="M493.362,732.288c-1.027-4.465-2.748-8.504-6.439-11.646c-2.398-2.045-3.545-4.636-1.717-7.772
			c0.424-0.727,0.863-1.595,0.633-3.037c-1.051,1.58-1.941,2.809-2.711,4.106c-0.688,1.162-1.365,1.56-2.922,1.242
			c-5.127-1.043-10.289-1.617-15.598-1.175c-8.613,0.722-13.521,5.421-15.979,13.095c-0.25,0.78-0.406,1.592-0.604,2.39
			c0.988-0.093,1.992-0.148,2.746-0.916c0.021-0.07,0.021-0.175,0.07-0.207c3.637-2.429,7.709-1.777,11.682-1.425
			c1.148,0.103,0.541,1.089,0.121,1.708c1.461,1.02,3.275,1.518,4.328,3.15c0.51,0.787,1.686,0.74,2.193,0.021
			c1.32-1.867,3.256-2.611,5.318-3.23c0.051-0.639-0.666-1.643,0.641-1.727c3.578-0.228,7.188-0.605,10.615,0.879
			c0.521,0.225,1.246,0.381,0.912,1.234C489.008,729.854,490.77,731.866,493.362,732.288z"/>
		<path fill="#F3BD95" d="M495.307,780.381c-3.727,1.307-6.891,3.172-7.896,7.287c-0.795,3.252-0.721,6.529-0.295,9.801
			c0.578,4.435,2.057,8.717,2.455,13.188c5.002,0,10.004,0.002,15.004,0.004c-0.447-7.641-0.826-15.287-1.875-22.877
			C502.09,783.351,499.77,781.11,495.307,780.381z"/>
		<path fill="#F3BD95" d="M461.442,776.211c-0.473,3.258-1.178,6.492,0.121,9.762c0.836,2.104,2.217,3.761,3.811,5.302
			c0.76,0.733,1.604,0.937,2.734,0.688c8.492-1.856,14.279-6.711,17.387-14.613c-0.787-0.295-1.551-0.721-2.367-0.861
			c-2.404-0.416-3.67-1.607-3.273-4.099c-0.396-0.203-0.875-0.326-1.17-0.623c-1.646-1.66-3.561-2.515-5.986-2.71
			c-1.984-0.159-4.084-0.377-5.826-1.592c-0.041,2.086-0.189,4.175-0.09,6.254c0.064,1.342-0.299,1.863-1.729,1.895
			C463.844,775.639,462.645,775.999,461.442,776.211z"/>
		<path fill="#D22728" d="M450.772,728.573c-0.752,0.768-1.756,0.824-2.746,0.918c-1.057-0.021-1.936,0.49-2.725,1.047
			c-1.078,0.762-1.637,2.004-0.199,2.67c1.605,0.742,2.029,1.918,2.346,3.332c0.963,0.688,1.014,1.881,1.621,2.785
			c3.67,5.471,12.428,5.391,15.982-0.189c3.115-4.889,3.072-4.862,6.061-0.001c2.102,3.419,5.547,4.427,9.332,4.2
			c4.461-0.266,6.727-3.246,8.039-7.025c0.91-2.628,0.832-2.66,3.51-1.414c0.625,0.29,1.223,0.631,1.832,0.948
			c1.383-0.216,1.711,0.633,1.814,1.704c0.182-0.065,0.361-0.131,0.541-0.195c0.52-0.466,1.158-0.165,1.736-0.252
			c0.313-0.48,0.838-0.545,1.34-0.65c-1.967-1.391-3.932-2.775-5.895-4.162c-2.592-0.42-4.354-2.433-6.707-3.309
			c-4.039-0.645-8.111-0.309-12.168-0.389c-2.063,0.621-3.998,1.363-5.318,3.23c-0.51,0.721-1.686,0.768-2.193-0.021
			c-1.053-1.633-2.867-2.131-4.326-3.15C458.69,728.624,454.731,728.598,450.772,728.573z M478.969,729.993
			c2.316,0.301,4.424,0.248,6.43,0.883c1.266,0.398,2.104,1.103,2.115,2.584c0.033,4.436-3.301,8.322-7.482,8.605
			c-4.451,0.303-8.479-3.222-8.9-7.748c-0.182-1.938,0.494-3.24,2.586-3.57C475.543,730.461,477.375,730.22,478.969,729.993z
			 M456.807,729.943c1.945,0.282,3.92,0.558,5.891,0.856c1.674,0.254,2.285,1.373,2.344,2.869c0.137,3.414-2.619,7.067-5.975,7.965
			c-5.238,1.4-9.037-1.104-10.303-6.789c-0.545-2.455,0.031-3.542,2.521-4.119C453.071,730.312,454.926,730.2,456.807,729.943z"/>
		<path fill="#F3BD95" d="M451.678,810.686c-0.795-1.458-0.648-3.105-0.736-4.637c-0.344-5.989-1.135-11.936-1.637-17.908
			c-0.332-3.932,0.459-7.578,2.834-10.836c-4.086,1.508-6.521,4.01-6.684,8.621c-0.285,8.229-0.967,16.443-1.484,24.664
			C446.542,810.624,449.11,810.655,451.678,810.686z"/>
		<path fill="#DE9F5F" d="M466.872,767.465c1.74,1.215,3.842,1.433,5.826,1.592c2.426,0.195,4.34,1.05,5.984,2.71
			c0.295,0.297,0.775,0.42,1.17,0.623c0.211-3.019,0.189-6.037,0.027-9.056c-3.334,1.48-6.814,2.121-10.486,1.869
			c-0.93-0.063-1.818-0.148-2.66-0.543C466.762,765.596,466.514,766.545,466.872,767.465z"/>
		<path fill="#F8EFEA" d="M476.604,750.952c-4.197-0.146-8.035,1.07-11.943,0.269c-0.998-0.205-1.242,0.202-1.125,1.271
			c0.346,3.176,0.27,3.08,3.561,3.264C471.217,755.984,474.682,755.196,476.604,750.952z"/>
		<path fill="#DE9F5F" d="M497.917,737.099c-0.576,0.087-1.217-0.214-1.734,0.252c0.039,0.692,0.744,0.903,1.057,1.375
			c0.473,0.722,0.711,1.851-0.416,1.966c-3.146,0.322-2.168,2.85-3.268,4.655C498.079,743.893,499.561,740.816,497.917,737.099z"/>
		<path fill="#4C2912" d="M495.639,737.547c-0.104-1.071-0.434-1.92-1.814-1.704c0,1.065,0,2.133,0,3.378
			C494.516,738.583,495.079,738.064,495.639,737.547z"/>
		<path fill="#4C2912" d="M450.772,728.573c3.959,0.025,7.918,0.051,11.875,0.076c0.42-0.619,1.027-1.605-0.123-1.707
			c-3.973-0.354-8.045-1.004-11.68,1.424C450.795,728.399,450.795,728.502,450.772,728.573z"/>
		<path fill="#4C2912" d="M474.487,728.59c4.057,0.08,8.129-0.256,12.168,0.389c0.334-0.854-0.393-1.011-0.912-1.234
			c-3.428-1.483-7.037-1.105-10.615-0.879C473.821,726.948,474.538,727.954,474.487,728.59z"/>
		<path fill="#F3BD95" d="M478.969,729.993c-1.594,0.229-3.426,0.469-5.252,0.754c-2.092,0.33-2.768,1.635-2.588,3.57
			c0.424,4.526,4.451,8.051,8.902,7.748c4.182-0.283,7.516-4.171,7.48-8.605c-0.012-1.481-0.85-2.186-2.113-2.584
			C483.393,730.241,481.286,730.293,478.969,729.993z M481.307,735.262c0.047,1.82-0.313,3.47-2.064,3.525
			c-1.963,0.063-2.328-1.799-2.326-3.291c0-1.377,0.184-3.148,2.113-3.213C481.2,732.211,481.018,734.133,481.307,735.262z"/>
		<path fill="#F3BD95" d="M456.807,729.943c-1.881,0.257-3.736,0.369-5.521,0.782c-2.49,0.577-3.066,1.664-2.521,4.119
			c1.266,5.686,5.064,8.189,10.303,6.789c3.355-0.896,6.109-4.551,5.975-7.965c-0.059-1.496-0.67-2.615-2.344-2.869
			C460.727,730.5,458.754,730.225,456.807,729.943z M456.01,735.54c0.361-1.379,0.229-3.363,2.357-3.265
			c2.014,0.095,2.092,1.888,2.105,3.435c0.018,1.547-0.414,3.131-2.229,3.084C456.438,738.747,456.239,737.008,456.01,735.54z"/>
		<path fill="#7C4427" d="M481.307,735.262c-0.289-1.128-0.107-3.051-2.277-2.979c-1.93,0.063-2.113,1.836-2.113,3.213
			c-0.002,1.492,0.363,3.354,2.326,3.291C480.997,738.732,481.354,737.084,481.307,735.262z"/>
		<path fill="#7C4427" d="M456.01,735.54c0.229,1.469,0.428,3.207,2.234,3.254c1.814,0.047,2.246-1.537,2.229-3.084
			c-0.016-1.547-0.092-3.34-2.105-3.435C456.239,732.174,456.374,734.161,456.01,735.54z"/>
	</g>
</g>
<g id="图层_2">
	<g>
		<path d="M58.563,536.056h1.776v16.8h-1.776V536.056z"/>
		<path d="M73.622,552.161c-0.983-0.545-1.756-1.309-2.316-2.293c-0.56-0.982-0.84-2.091-0.84-3.322c0-1.232,0.28-2.336,0.84-3.313
			c0.56-0.976,1.333-1.735,2.316-2.278c0.984-0.545,2.101-0.816,3.349-0.816c1.088,0,2.06,0.212,2.916,0.636
			c0.855,0.425,1.531,1.044,2.027,1.86l-1.271,0.863c-0.416-0.623-0.944-1.092-1.584-1.404c-0.641-0.313-1.336-0.467-2.088-0.467
			c-0.912,0-1.732,0.203-2.461,0.61c-0.728,0.408-1.295,0.988-1.703,1.74c-0.408,0.752-0.612,1.606-0.612,2.567
			c0,0.977,0.204,1.836,0.612,2.58c0.408,0.744,0.976,1.319,1.703,1.729c0.729,0.408,1.549,0.611,2.461,0.611
			c0.752,0,1.447-0.151,2.088-0.455c0.64-0.305,1.168-0.77,1.584-1.393l1.271,0.863c-0.496,0.816-1.176,1.438-2.039,1.859
			c-0.865,0.425-1.833,0.637-2.904,0.637C75.722,552.976,74.606,552.704,73.622,552.161z"/>
		<path d="M88.67,540.786c0.792-0.434,1.771-0.648,2.939-0.648v1.656l-0.407-0.024c-1.329,0-2.368,0.407-3.12,1.224
			c-0.752,0.817-1.128,1.961-1.128,3.432v6.434H85.25v-12.624h1.632v2.474C87.281,541.856,87.878,541.217,88.67,540.786z"/>
		<path d="M105.554,547.073h-10.56c0.096,1.313,0.6,2.371,1.512,3.18c0.912,0.809,2.064,1.213,3.456,1.213
			c0.784,0,1.504-0.141,2.16-0.42c0.655-0.28,1.224-0.692,1.704-1.236l0.96,1.104c-0.561,0.672-1.261,1.186-2.101,1.537
			c-0.84,0.353-1.764,0.527-2.771,0.527c-1.296,0-2.444-0.275-3.443-0.828c-1.001-0.552-1.781-1.314-2.341-2.292
			c-0.56-0.976-0.84-2.079-0.84-3.312c0-1.233,0.268-2.336,0.804-3.313c0.536-0.976,1.272-1.735,2.209-2.278
			c0.936-0.545,1.987-0.816,3.155-0.816s2.216,0.271,3.144,0.816c0.928,0.543,1.656,1.299,2.185,2.268
			c0.528,0.968,0.792,2.076,0.792,3.324L105.554,547.073z M96.398,542.764c-0.824,0.775-1.293,1.788-1.404,3.035h8.951
			c-0.111-1.247-0.58-2.26-1.403-3.035c-0.824-0.775-1.853-1.164-3.084-1.164C98.242,541.6,97.221,541.989,96.398,542.764z"/>
		<path d="M116.905,541.374c0.88,0.824,1.319,2.043,1.319,3.658v7.824h-1.631v-1.968c-0.385,0.655-0.948,1.168-1.692,1.536
			c-0.744,0.367-1.628,0.552-2.651,0.552c-1.408,0-2.529-0.336-3.361-1.009c-0.832-0.672-1.248-1.561-1.248-2.663
			c0-1.072,0.389-1.937,1.164-2.593c0.776-0.655,2.013-0.983,3.709-0.983h4.008v-0.769c0-1.088-0.305-1.916-0.912-2.483
			c-0.608-0.567-1.496-0.853-2.664-0.853c-0.801,0-1.568,0.131-2.305,0.396c-0.735,0.266-1.367,0.628-1.896,1.092l-0.769-1.271
			c0.641-0.543,1.408-0.963,2.305-1.26c0.896-0.295,1.84-0.443,2.832-0.443C114.761,540.136,116.025,540.549,116.905,541.374z
			 M114.985,550.972c0.688-0.44,1.2-1.076,1.536-1.908V547h-3.96c-2.16,0-3.24,0.752-3.24,2.256c0,0.736,0.28,1.316,0.84,1.74
			s1.345,0.637,2.353,0.637C113.472,551.633,114.297,551.413,114.985,550.972z"/>
		<path d="M129.506,552.088c-0.32,0.287-0.717,0.509-1.188,0.66c-0.472,0.151-0.964,0.229-1.476,0.229
			c-1.185,0-2.097-0.32-2.736-0.96c-0.641-0.64-0.96-1.544-0.96-2.712v-7.633h-2.256v-1.439h2.256v-2.76h1.704v2.76h3.84v1.439
			h-3.84v7.535c0,0.754,0.188,1.324,0.564,1.717c0.375,0.393,0.915,0.589,1.619,0.589c0.352,0,0.691-0.056,1.02-0.168
			c0.329-0.112,0.613-0.272,0.853-0.479L129.506,552.088z"/>
		<path d="M143.137,547.073h-10.56c0.096,1.313,0.6,2.371,1.512,3.18s2.063,1.213,3.455,1.213c0.784,0,1.504-0.141,2.16-0.42
			c0.656-0.28,1.225-0.692,1.705-1.236l0.959,1.104c-0.561,0.672-1.26,1.186-2.1,1.537c-0.84,0.353-1.764,0.527-2.771,0.527
			c-1.297,0-2.445-0.275-3.444-0.828c-1.001-0.552-1.78-1.314-2.341-2.292c-0.56-0.976-0.84-2.079-0.84-3.312
			c0-1.233,0.268-2.336,0.805-3.313c0.535-0.976,1.271-1.735,2.208-2.278c0.936-0.545,1.987-0.816,3.155-0.816
			s2.217,0.271,3.145,0.816c0.928,0.543,1.656,1.299,2.184,2.268c0.528,0.968,0.793,2.076,0.793,3.324L143.137,547.073z
			 M133.981,542.764c-0.824,0.775-1.292,1.788-1.403,3.035h8.951c-0.111-1.247-0.58-2.26-1.404-3.035s-1.852-1.164-3.084-1.164
			C135.825,541.6,134.804,541.989,133.981,542.764z"/>
		<path d="M158.161,535.049v17.808h-1.632v-2.495c-0.512,0.848-1.188,1.495-2.028,1.943c-0.84,0.447-1.788,0.672-2.844,0.672
			c-1.185,0-2.256-0.271-3.216-0.816c-0.961-0.543-1.713-1.304-2.256-2.279c-0.545-0.977-0.816-2.088-0.816-3.336
			s0.271-2.359,0.816-3.336c0.543-0.977,1.295-1.731,2.256-2.269c0.96-0.536,2.031-0.804,3.216-0.804
			c1.023,0,1.948,0.212,2.772,0.636c0.823,0.425,1.5,1.044,2.027,1.86v-7.584H158.161z M154.189,550.852
			c0.711-0.408,1.271-0.988,1.68-1.74c0.409-0.752,0.611-1.607,0.611-2.566c0-0.961-0.203-1.816-0.611-2.568
			c-0.408-0.752-0.969-1.332-1.68-1.74c-0.713-0.408-1.509-0.611-2.389-0.611c-0.896,0-1.699,0.203-2.412,0.611
			c-0.711,0.408-1.271,0.988-1.68,1.74s-0.611,1.607-0.611,2.568c0,0.959,0.203,1.814,0.611,2.566s0.969,1.332,1.68,1.74
			c0.713,0.408,1.516,0.611,2.412,0.611C152.68,551.465,153.476,551.26,154.189,550.852z"/>
		<path d="M177.408,541.374c0.881,0.824,1.32,2.043,1.32,3.658v7.824h-1.632v-1.968c-0.384,0.655-0.948,1.168-1.692,1.536
			c-0.744,0.367-1.628,0.552-2.651,0.552c-1.408,0-2.528-0.336-3.36-1.009c-0.832-0.672-1.248-1.561-1.248-2.663
			c0-1.072,0.388-1.937,1.164-2.593c0.775-0.655,2.012-0.983,3.708-0.983h4.009v-0.769c0-1.088-0.305-1.916-0.912-2.483
			c-0.609-0.567-1.496-0.853-2.664-0.853c-0.801,0-1.568,0.131-2.305,0.396s-1.367,0.628-1.896,1.092l-0.768-1.271
			c0.641-0.543,1.408-0.963,2.305-1.26c0.896-0.295,1.84-0.443,2.832-0.443C175.264,540.136,176.529,540.549,177.408,541.374z
			 M175.488,550.972c0.688-0.44,1.2-1.076,1.537-1.908V547h-3.961c-2.16,0-3.24,0.752-3.24,2.256c0,0.736,0.28,1.316,0.84,1.74
			c0.561,0.424,1.345,0.637,2.353,0.637C173.976,551.633,174.801,551.413,175.488,550.972z"/>
		<path d="M193.572,541.516c0.937,0.92,1.404,2.26,1.404,4.021v7.318h-1.703v-7.15c0-1.313-0.328-2.313-0.984-3
			c-0.656-0.688-1.592-1.033-2.809-1.033c-1.359,0-2.436,0.404-3.228,1.213c-0.792,0.808-1.188,1.924-1.188,3.348v6.624h-1.703
			v-12.624h1.631v2.328c0.465-0.768,1.108-1.363,1.933-1.788c0.823-0.424,1.78-0.636,2.868-0.636
			C191.377,540.136,192.636,540.596,193.572,541.516z"/>
		<path fill="#FF7B00" d="M217.488,547.409h-10.057c0.176,0.943,0.637,1.691,1.381,2.243s1.668,0.828,2.771,0.828
			c1.408,0,2.568-0.464,3.48-1.392l1.607,1.848c-0.576,0.688-1.305,1.208-2.184,1.561c-0.881,0.353-1.872,0.527-2.977,0.527
			c-1.408,0-2.648-0.279-3.72-0.84c-1.072-0.561-1.899-1.34-2.483-2.34c-0.585-1-0.877-2.133-0.877-3.396
			c0-1.246,0.284-2.371,0.853-3.371c0.567-1,1.356-1.779,2.364-2.34s2.144-0.841,3.408-0.841c1.248,0,2.363,0.274,3.348,0.828
			c0.984,0.552,1.752,1.328,2.304,2.328c0.552,1,0.828,2.155,0.828,3.468C217.536,546.728,217.519,547.024,217.488,547.409z
			 M208.62,543.148c-0.664,0.567-1.067,1.324-1.212,2.269h7.271c-0.128-0.928-0.52-1.681-1.176-2.256
			c-0.656-0.576-1.473-0.863-2.447-0.863C210.095,542.297,209.283,542.581,208.62,543.148z"/>
		<path fill="#FF7B00" d="M240.431,541.299c0.943,0.937,1.416,2.341,1.416,4.212v7.345h-3v-6.96c0-1.119-0.248-1.964-0.744-2.532
			c-0.496-0.566-1.208-0.853-2.136-0.853c-1.008,0-1.815,0.333-2.424,0.995c-0.608,0.664-0.912,1.613-0.912,2.846v6.504h-3v-6.96
			c0-1.119-0.249-1.964-0.744-2.532c-0.496-0.566-1.208-0.853-2.136-0.853c-1.024,0-1.836,0.327-2.436,0.983
			c-0.601,0.656-0.9,1.608-0.9,2.856v6.504h-3V540.04h2.855v1.631c0.48-0.574,1.08-1.016,1.801-1.318
			c0.72-0.305,1.52-0.456,2.399-0.456c0.96,0,1.812,0.181,2.556,0.54c0.744,0.359,1.332,0.893,1.765,1.596
			c0.528-0.672,1.208-1.195,2.04-1.57c0.832-0.377,1.752-0.564,2.76-0.564C238.207,539.896,239.487,540.364,240.431,541.299z"/>
		<path fill="#FF7B00" d="M254.916,541.252c1,0.904,1.5,2.269,1.5,4.092v7.513h-2.832v-1.56c-0.369,0.56-0.893,0.986-1.572,1.283
			c-0.679,0.295-1.5,0.443-2.46,0.443c-0.96,0-1.8-0.164-2.521-0.492c-0.72-0.326-1.275-0.783-1.668-1.367
			c-0.392-0.584-0.588-1.244-0.588-1.979c0-1.151,0.428-2.076,1.284-2.772c0.856-0.695,2.204-1.043,4.044-1.043h3.313v-0.192
			c0-0.896-0.269-1.585-0.805-2.063c-0.535-0.479-1.332-0.72-2.388-0.72c-0.72,0-1.428,0.11-2.124,0.336
			c-0.695,0.226-1.283,0.536-1.764,0.937l-1.176-2.185c0.672-0.512,1.479-0.903,2.424-1.176c0.943-0.271,1.943-0.408,3-0.408
			C252.471,539.896,253.916,540.348,254.916,541.252z M252.179,550.325c0.584-0.345,0.996-0.836,1.236-1.477v-1.488h-3.096
			c-1.729,0-2.593,0.568-2.593,1.704c0,0.544,0.216,0.978,0.647,1.296c0.433,0.32,1.033,0.48,1.801,0.48
			C250.927,550.84,251.595,550.668,252.179,550.325z"/>
		<path fill="#FF7B00" d="M260.399,537.413c-0.368-0.345-0.552-0.771-0.552-1.283s0.184-0.94,0.552-1.285
			c0.368-0.344,0.824-0.516,1.368-0.516s1,0.164,1.368,0.492c0.368,0.327,0.552,0.739,0.552,1.235c0,0.526-0.18,0.972-0.54,1.332
			c-0.36,0.358-0.819,0.539-1.38,0.539C261.223,537.927,260.767,537.756,260.399,537.413z M260.256,540.042h3v12.814h-3V540.042z"/>
		<path fill="#FF7B00" d="M267.191,535.049h3v17.808h-3V535.049z"/>
		<path fill="#FF7B00" d="M284.062,539.37v0.768h3.526v2.4h-3.432v10.318h-3v-10.318h-2.111v-2.4h2.111v-0.816
			c0-1.375,0.4-2.46,1.2-3.252s1.929-1.188,3.384-1.188c1.152,0,2.057,0.232,2.713,0.695l-0.84,2.256
			c-0.514-0.353-1.064-0.527-1.656-0.527C284.694,537.304,284.062,537.993,284.062,539.37z"/>
		<path fill="#FF7B00" d="M291.67,552.184c-1.041-0.561-1.853-1.34-2.437-2.34c-0.585-1-0.877-2.133-0.877-3.396
			s0.292-2.392,0.877-3.384c0.584-0.991,1.396-1.769,2.437-2.327c1.039-0.561,2.207-0.841,3.504-0.841
			c1.312,0,2.488,0.28,3.527,0.841c1.041,0.561,1.853,1.336,2.437,2.327c0.584,0.992,0.876,2.12,0.876,3.384
			c0,1.266-0.292,2.396-0.876,3.396s-1.396,1.779-2.437,2.34c-1.039,0.561-2.217,0.84-3.527,0.84
			C293.877,553.024,292.709,552.745,291.67,552.184z M297.911,549.352c0.719-0.734,1.08-1.704,1.08-2.904
			c0-1.199-0.361-2.166-1.08-2.902c-0.722-0.736-1.634-1.104-2.736-1.104c-1.104,0-2.012,0.368-2.725,1.104
			c-0.712,0.736-1.068,1.703-1.068,2.902c0,1.2,0.356,2.17,1.068,2.904c0.713,0.736,1.62,1.104,2.725,1.104
			C296.278,550.456,297.189,550.088,297.911,549.352z"/>
		<path fill="#FF7B00" d="M304.892,535.049h2.999v17.808h-2.999V535.049z"/>
		<path fill="#FF7B00" d="M324.381,535.049v17.808H321.5v-1.655c-0.496,0.607-1.107,1.063-1.836,1.367
			c-0.729,0.305-1.531,0.456-2.412,0.456c-1.23,0-2.34-0.271-3.324-0.815c-0.982-0.543-1.756-1.315-2.314-2.315
			c-0.561-1-0.84-2.147-0.84-3.444c0-1.295,0.279-2.438,0.84-3.432c0.561-0.992,1.332-1.762,2.314-2.305
			c0.984-0.545,2.094-0.815,3.324-0.815c0.848,0,1.625,0.146,2.328,0.433c0.705,0.287,1.305,0.721,1.801,1.297v-6.576h3V535.049z
			 M319.555,549.965c0.576-0.328,1.033-0.797,1.369-1.404s0.504-1.313,0.504-2.111c0-0.8-0.168-1.504-0.504-2.113
			c-0.336-0.606-0.793-1.074-1.369-1.402c-0.574-0.328-1.223-0.492-1.941-0.492c-0.723,0-1.369,0.164-1.945,0.492
			s-1.031,0.796-1.367,1.402c-0.336,0.609-0.504,1.313-0.504,2.113c0,0.799,0.168,1.504,0.504,2.111s0.791,1.076,1.367,1.404
			s1.225,0.49,1.945,0.49C318.333,550.456,318.981,550.293,319.555,549.965z"/>
		<path fill="#FF7B00" d="M340.317,547.409H330.26c0.176,0.943,0.637,1.691,1.379,2.243c0.744,0.552,1.668,0.828,2.771,0.828
			c1.408,0,2.568-0.464,3.48-1.392l1.607,1.848c-0.576,0.688-1.305,1.208-2.184,1.561c-0.881,0.353-1.871,0.527-2.977,0.527
			c-1.408,0-2.648-0.279-3.721-0.84s-1.9-1.34-2.484-2.34s-0.875-2.133-0.875-3.396c0-1.246,0.283-2.371,0.854-3.371
			c0.564-1,1.354-1.779,2.361-2.34c1.01-0.561,2.146-0.841,3.408-0.841c1.248,0,2.363,0.274,3.35,0.828
			c0.982,0.552,1.752,1.328,2.305,2.328c0.551,1,0.828,2.155,0.828,3.468C340.366,546.728,340.348,547.024,340.317,547.409z
			 M331.45,543.148c-0.664,0.567-1.068,1.324-1.213,2.269h7.271c-0.129-0.928-0.521-1.681-1.178-2.256
			c-0.656-0.576-1.471-0.863-2.447-0.863C332.924,542.297,332.112,542.581,331.45,543.148z"/>
		<path fill="#FF7B00" d="M350.661,539.896v2.854c-0.256-0.047-0.488-0.07-0.695-0.07c-1.168,0-2.08,0.34-2.736,1.021
			c-0.656,0.68-0.984,1.658-0.984,2.938v6.216h-3v-12.814h2.855v1.871C346.965,540.568,348.485,539.896,350.661,539.896z"/>
		<path d="M362.528,536.967c-0.375,0.4-0.563,0.992-0.563,1.775v1.488h3.889v1.439h-3.842v11.185h-1.703V541.67h-2.256v-1.439h2.256
			v-1.561c0-1.151,0.332-2.063,0.996-2.735s1.604-1.009,2.82-1.009c0.479,0,0.943,0.068,1.391,0.205
			c0.449,0.136,0.824,0.332,1.129,0.588l-0.576,1.271c-0.496-0.416-1.119-0.623-1.871-0.623
			C363.461,536.37,362.905,536.568,362.528,536.967z"/>
		<path d="M369.813,552.148c-0.979-0.552-1.744-1.315-2.307-2.292c-0.559-0.977-0.84-2.079-0.84-3.313
			c0-1.232,0.281-2.336,0.84-3.313c0.563-0.977,1.328-1.736,2.307-2.279c0.975-0.545,2.07-0.815,3.287-0.815
			s2.313,0.271,3.287,0.815c0.977,0.543,1.74,1.305,2.293,2.279c0.553,0.977,0.826,2.08,0.826,3.313
			c0,1.233-0.273,2.336-0.826,3.313s-1.316,1.74-2.293,2.292s-2.07,0.828-3.287,0.828S370.788,552.7,369.813,552.148z
			 M375.512,550.852c0.711-0.408,1.268-0.988,1.668-1.74c0.398-0.752,0.6-1.607,0.6-2.566c0-0.961-0.199-1.816-0.6-2.568
			s-0.957-1.332-1.668-1.74c-0.713-0.408-1.518-0.611-2.412-0.611c-0.896,0-1.699,0.203-2.412,0.611s-1.271,0.988-1.682,1.74
			c-0.406,0.752-0.609,1.607-0.609,2.568c0,0.959,0.203,1.814,0.609,2.566c0.408,0.752,0.969,1.332,1.682,1.74
			s1.516,0.611,2.412,0.611C373.997,551.465,374.801,551.26,375.512,550.852z"/>
		<path d="M386.409,540.786c0.791-0.434,1.771-0.648,2.939-0.648v1.656l-0.408-0.024c-1.328,0-2.367,0.407-3.119,1.224
			c-0.752,0.817-1.129,1.961-1.129,3.432v6.434h-1.703v-12.624h1.631v2.474C385.02,541.856,385.616,541.217,386.409,540.786z"/>
		<path d="M418.375,541.504c0.904,0.912,1.357,2.256,1.357,4.033v7.318h-1.705v-7.15c0-1.313-0.316-2.313-0.947-3
			c-0.633-0.688-1.523-1.033-2.676-1.033c-1.313,0-2.346,0.404-3.098,1.213c-0.752,0.808-1.127,1.924-1.127,3.348v6.624h-1.705
			v-7.151c0-1.313-0.314-2.313-0.947-3c-0.631-0.688-1.531-1.033-2.699-1.033c-1.297,0-2.324,0.404-3.084,1.214
			c-0.76,0.808-1.141,1.924-1.141,3.348v6.624h-1.703v-12.624h1.631v2.306c0.449-0.77,1.072-1.36,1.873-1.777
			c0.799-0.415,1.719-0.623,2.76-0.623c1.057,0,1.971,0.225,2.748,0.672c0.775,0.447,1.355,1.111,1.74,1.992
			c0.463-0.832,1.131-1.484,2.004-1.957c0.871-0.471,1.867-0.707,2.986-0.707C416.227,540.136,417.471,540.592,418.375,541.504z"/>
		<path d="M434.733,540.232l-6.313,14.136c-0.512,1.186-1.104,2.024-1.775,2.521c-0.674,0.494-1.48,0.744-2.426,0.744
			c-0.607,0-1.176-0.098-1.703-0.288c-0.527-0.192-0.982-0.479-1.367-0.864l0.793-1.271c0.639,0.641,1.406,0.959,2.303,0.959
			c0.576,0,1.068-0.158,1.477-0.479s0.787-0.863,1.141-1.632l0.553-1.226l-5.641-12.6h1.775l4.752,10.729l4.752-10.729
			L434.733,540.232L434.733,540.232z"/>
		<path d="M68.415,570.317c0.936,0.92,1.404,2.26,1.404,4.02v7.32h-1.704v-7.152c0-1.312-0.328-2.312-0.984-3
			c-0.656-0.688-1.592-1.03-2.808-1.03c-1.36,0-2.436,0.403-3.228,1.212s-1.188,1.924-1.188,3.348v6.625h-1.704V563.85h1.704v7.393
			c0.464-0.736,1.104-1.305,1.92-1.705c0.816-0.398,1.752-0.6,2.808-0.6C66.219,568.937,67.479,569.397,68.415,570.317z"/>
		<path d="M76.371,580.95c-0.977-0.553-1.744-1.316-2.305-2.293c-0.561-0.976-0.84-2.08-0.84-3.312s0.279-2.337,0.84-3.313
			c0.561-0.976,1.328-1.736,2.305-2.279c0.975-0.543,2.071-0.815,3.287-0.815c1.217,0,2.313,0.272,3.289,0.815
			c0.975,0.543,1.739,1.305,2.291,2.279c0.553,0.977,0.828,2.08,0.828,3.313c0,1.231-0.275,2.336-0.828,3.312
			c-0.552,0.977-1.316,1.74-2.291,2.293c-0.977,0.551-2.072,0.827-3.289,0.827C78.442,581.777,77.345,581.5,76.371,580.95z
			 M82.07,579.653c0.712-0.408,1.268-0.988,1.668-1.74c0.4-0.752,0.6-1.606,0.6-2.566c0-0.961-0.199-1.816-0.6-2.568
			c-0.401-0.752-0.956-1.332-1.668-1.74c-0.712-0.408-1.516-0.611-2.412-0.611s-1.699,0.203-2.412,0.611
			c-0.711,0.408-1.271,0.988-1.68,1.74c-0.409,0.752-0.611,1.607-0.611,2.568c0,0.96,0.203,1.814,0.611,2.566
			c0.408,0.752,0.969,1.332,1.68,1.74c0.713,0.408,1.516,0.612,2.412,0.612S81.358,580.061,82.07,579.653z"/>
		<path d="M100.922,569.034v12.623h-1.631v-2.304c-0.449,0.769-1.064,1.364-1.849,1.788c-0.785,0.424-1.681,0.636-2.688,0.636
			c-1.647,0-2.947-0.46-3.899-1.38s-1.429-2.27-1.429-4.044v-7.319h1.705v7.151c0,1.328,0.327,2.336,0.983,3.022
			c0.656,0.688,1.592,1.033,2.808,1.033c1.328,0,2.377-0.404,3.145-1.213s1.152-1.932,1.152-3.371v-6.625h1.703V569.034z"/>
		<path d="M106.142,581.333c-0.937-0.295-1.668-0.668-2.196-1.115l0.769-1.344c0.527,0.416,1.191,0.756,1.991,1.021
			c0.8,0.265,1.632,0.396,2.496,0.396c1.152,0,2.004-0.18,2.556-0.539c0.553-0.359,0.828-0.867,0.828-1.523
			c0-0.464-0.152-0.828-0.455-1.094c-0.305-0.264-0.688-0.463-1.152-0.6c-0.465-0.136-1.08-0.268-1.848-0.396
			c-1.025-0.192-1.849-0.39-2.473-0.589s-1.156-0.541-1.596-1.02c-0.44-0.48-0.66-1.145-0.66-1.992c0-1.057,0.439-1.92,1.32-2.592
			c0.879-0.673,2.104-1.009,3.672-1.009c0.816,0,1.632,0.106,2.447,0.323c0.816,0.217,1.488,0.501,2.017,0.854l-0.744,1.367
			c-1.04-0.721-2.28-1.08-3.72-1.08c-1.088,0-1.908,0.191-2.461,0.576c-0.551,0.385-0.827,0.889-0.827,1.512
			c0,0.479,0.155,0.864,0.468,1.152c0.313,0.288,0.699,0.5,1.164,0.636c0.464,0.136,1.104,0.276,1.92,0.421
			c1.008,0.191,1.816,0.383,2.424,0.575c0.607,0.19,1.129,0.521,1.561,0.983c0.432,0.465,0.647,1.104,0.647,1.92
			c0,1.104-0.46,1.98-1.38,2.629c-0.92,0.646-2.195,0.972-3.828,0.972C108.058,581.777,107.078,581.629,106.142,581.333z"/>
		<path d="M117.41,565.913c-0.24-0.24-0.359-0.527-0.359-0.863c0-0.319,0.119-0.6,0.359-0.84c0.24-0.24,0.535-0.359,0.889-0.359
			c0.352,0,0.647,0.115,0.887,0.348c0.24,0.232,0.36,0.508,0.36,0.828c0,0.352-0.12,0.646-0.36,0.889
			c-0.239,0.24-0.535,0.359-0.887,0.359C117.945,566.273,117.65,566.153,117.41,565.913z M117.433,569.034h1.705v12.623h-1.705
			V569.034z"/>
		<path d="M134.101,570.317c0.937,0.92,1.404,2.26,1.404,4.02v7.32h-1.703v-7.152c0-1.312-0.328-2.312-0.984-3
			c-0.656-0.688-1.592-1.03-2.809-1.03c-1.359,0-2.436,0.403-3.228,1.212c-0.792,0.809-1.188,1.924-1.188,3.348v6.625h-1.703
			v-12.625h1.631v2.328c0.465-0.769,1.108-1.363,1.933-1.787c0.823-0.425,1.78-0.637,2.868-0.637
			C131.906,568.937,133.166,569.397,134.101,570.317z"/>
		<path d="M151.873,569.034v11.088c0,2.144-0.523,3.731-1.571,4.764c-1.048,1.031-2.628,1.549-4.74,1.549
			c-1.168,0-2.276-0.173-3.323-0.518c-1.049-0.344-1.9-0.819-2.557-1.428l0.863-1.296c0.608,0.544,1.349,0.968,2.221,1.271
			c0.871,0.305,1.788,0.457,2.748,0.457c1.6,0,2.775-0.373,3.527-1.115c0.752-0.744,1.129-1.9,1.129-3.469v-1.607
			c-0.528,0.801-1.221,1.408-2.076,1.824c-0.856,0.416-1.805,0.623-2.844,0.623c-1.185,0-2.261-0.26-3.229-0.779
			c-0.969-0.52-1.729-1.248-2.279-2.186c-0.553-0.936-0.828-1.994-0.828-3.18c0-1.184,0.275-2.24,0.828-3.168
			c0.551-0.928,1.308-1.646,2.268-2.16c0.96-0.512,2.04-0.768,3.24-0.768c1.071,0,2.039,0.216,2.904,0.646
			c0.863,0.434,1.559,1.058,2.088,1.873v-2.424h1.631V569.034z M147.889,579.077c0.735-0.392,1.308-0.938,1.716-1.644
			s0.612-1.504,0.612-2.399c0-0.896-0.204-1.693-0.612-2.389s-0.977-1.24-1.704-1.632c-0.728-0.394-1.556-0.589-2.483-0.589
			c-0.912,0-1.732,0.191-2.461,0.576c-0.728,0.383-1.295,0.929-1.703,1.631c-0.408,0.705-0.612,1.506-0.612,2.4
			c0,0.896,0.204,1.696,0.612,2.4c0.408,0.704,0.976,1.252,1.703,1.645c0.729,0.393,1.549,0.588,2.461,0.588
			S147.153,579.469,147.889,579.077z"/>
		<path d="M157.754,579.534c0.24,0.248,0.359,0.555,0.359,0.924c0,0.191-0.027,0.399-0.084,0.623
			c-0.057,0.226-0.141,0.48-0.252,0.77l-1.008,3.313h-1.152l0.816-3.479c-0.256-0.08-0.465-0.229-0.624-0.444
			c-0.16-0.216-0.24-0.476-0.24-0.779c0-0.369,0.12-0.676,0.36-0.924c0.24-0.248,0.543-0.373,0.912-0.373
			C157.209,579.161,157.513,579.286,157.754,579.534z"/>
		<path d="M176.233,570.172c0.88,0.824,1.319,2.045,1.319,3.66v7.824h-1.631v-1.968c-0.385,0.656-0.948,1.168-1.692,1.536
			c-0.744,0.367-1.628,0.552-2.651,0.552c-1.408,0-2.529-0.336-3.361-1.008c-0.832-0.672-1.248-1.562-1.248-2.664
			c0-1.071,0.389-1.937,1.164-2.592c0.776-0.656,2.013-0.983,3.709-0.983h4.008v-0.77c0-1.088-0.305-1.915-0.912-2.482
			c-0.608-0.568-1.496-0.854-2.664-0.854c-0.801,0-1.568,0.133-2.305,0.396c-0.735,0.264-1.367,0.627-1.896,1.092l-0.769-1.271
			c0.641-0.544,1.408-0.964,2.305-1.262c0.896-0.295,1.84-0.442,2.832-0.442C174.09,568.937,175.353,569.349,176.233,570.172z
			 M174.313,579.773c0.688-0.44,1.2-1.075,1.536-1.907v-2.064h-3.96c-2.16,0-3.24,0.753-3.24,2.257c0,0.735,0.28,1.315,0.84,1.739
			c0.56,0.425,1.345,0.637,2.353,0.637C172.801,580.433,173.625,580.213,174.313,579.773z"/>
		<path d="M192.397,570.317c0.937,0.92,1.404,2.26,1.404,4.02v7.32h-1.704v-7.152c0-1.312-0.328-2.312-0.984-3
			c-0.656-0.688-1.592-1.03-2.808-1.03c-1.36,0-2.437,0.403-3.228,1.212c-0.793,0.809-1.188,1.924-1.188,3.348v6.625h-1.704v-12.625
			h1.632v2.328c0.464-0.769,1.108-1.363,1.933-1.787c0.823-0.425,1.779-0.637,2.867-0.637
			C190.201,568.937,191.461,569.397,192.397,570.317z"/>
		<path d="M210.002,563.849v17.808h-1.633v-2.496c-0.512,0.85-1.188,1.496-2.027,1.944c-0.839,0.448-1.788,0.672-2.844,0.672
			c-1.186,0-2.256-0.272-3.217-0.815c-0.96-0.545-1.712-1.305-2.256-2.279c-0.544-0.977-0.816-2.09-0.816-3.336
			c0-1.248,0.272-2.36,0.816-3.338c0.544-0.975,1.296-1.73,2.256-2.268c0.961-0.535,2.031-0.804,3.217-0.804
			c1.023,0,1.947,0.212,2.771,0.636c0.824,0.424,1.5,1.045,2.027,1.86v-7.584H210.002L210.002,563.849z M206.029,579.653
			c0.712-0.408,1.271-0.988,1.68-1.74s0.612-1.606,0.612-2.566c0-0.961-0.204-1.816-0.612-2.568s-0.968-1.332-1.68-1.74
			c-0.712-0.408-1.508-0.611-2.388-0.611c-0.896,0-1.7,0.203-2.412,0.611s-1.272,0.988-1.681,1.74
			c-0.407,0.752-0.611,1.607-0.611,2.568c0,0.96,0.204,1.814,0.611,2.566c0.408,0.752,0.969,1.332,1.681,1.74
			s1.516,0.612,2.412,0.612C204.521,580.265,205.317,580.061,206.029,579.653z"/>
		<path d="M230.761,569.741c0.96,0.536,1.712,1.293,2.256,2.268c0.543,0.979,0.816,2.09,0.816,3.338
			c0,1.264-0.273,2.384-0.816,3.359c-0.544,0.977-1.293,1.731-2.244,2.269c-0.952,0.536-2.027,0.804-3.229,0.804
			c-1.023,0-1.947-0.212-2.771-0.636c-0.824-0.425-1.5-1.044-2.027-1.86v7.032h-1.705v-17.28h1.633v2.496
			c0.512-0.832,1.188-1.472,2.027-1.92c0.839-0.447,1.789-0.672,2.844-0.672C228.729,568.937,229.802,569.206,230.761,569.741z
			 M229.826,579.653c0.719-0.408,1.283-0.988,1.691-1.74c0.408-0.752,0.611-1.606,0.611-2.566c0-0.961-0.203-1.813-0.611-2.557
			c-0.408-0.744-0.973-1.324-1.691-1.74c-0.721-0.416-1.521-0.625-2.4-0.625c-0.896,0-1.701,0.209-2.412,0.625
			c-0.713,0.416-1.271,0.996-1.68,1.74s-0.612,1.596-0.612,2.557c0,0.96,0.204,1.814,0.612,2.566s0.967,1.332,1.68,1.74
			c0.711,0.408,1.516,0.612,2.412,0.612C228.304,580.265,229.105,580.061,229.826,579.653z"/>
		<path d="M248.689,569.034v12.623h-1.632v-2.304c-0.448,0.769-1.064,1.364-1.849,1.788c-0.783,0.424-1.68,0.636-2.688,0.636
			c-1.648,0-2.948-0.46-3.9-1.38c-0.951-0.92-1.428-2.27-1.428-4.044v-7.319h1.704v7.151c0,1.328,0.327,2.336,0.983,3.022
			c0.656,0.688,1.592,1.033,2.809,1.033c1.328,0,2.376-0.404,3.145-1.213c0.768-0.809,1.151-1.932,1.151-3.371v-6.625h1.705V569.034
			z"/>
		<path d="M260.113,580.889c-0.32,0.287-0.717,0.508-1.188,0.658c-0.473,0.152-0.965,0.229-1.477,0.229
			c-1.184,0-2.096-0.319-2.736-0.96c-0.64-0.64-0.959-1.544-0.959-2.712v-7.632h-2.256v-1.439h2.256v-2.761h1.703v2.761h3.84v1.439
			h-3.84v7.535c0,0.753,0.188,1.324,0.564,1.717c0.375,0.393,0.916,0.588,1.619,0.588c0.353,0,0.692-0.057,1.021-0.168
			s0.612-0.271,0.853-0.48L260.113,580.889z"/>
		<path d="M276.144,580.889c-0.319,0.287-0.718,0.508-1.188,0.658c-0.473,0.152-0.965,0.229-1.477,0.229
			c-1.184,0-2.096-0.319-2.736-0.96c-0.64-0.64-0.959-1.544-0.959-2.712v-7.632h-2.256v-1.439h2.256v-2.761h1.703v2.761h3.84v1.439
			h-3.84v7.535c0,0.753,0.188,1.324,0.564,1.717c0.375,0.393,0.916,0.588,1.619,0.588c0.353,0,0.691-0.057,1.021-0.168
			s0.612-0.271,0.853-0.48L276.144,580.889z"/>
		<path d="M289.452,570.317c0.938,0.92,1.404,2.26,1.404,4.02v7.32h-1.704v-7.152c0-1.312-0.327-2.312-0.983-3
			c-0.656-0.688-1.592-1.03-2.809-1.03c-1.359,0-2.438,0.403-3.229,1.212c-0.793,0.809-1.188,1.924-1.188,3.348v6.625h-1.704V563.85
			h1.704v7.393c0.465-0.736,1.104-1.305,1.92-1.705c0.815-0.398,1.752-0.6,2.809-0.6
			C287.256,568.937,288.515,569.397,289.452,570.317z"/>
		<path d="M297.409,580.95c-0.978-0.553-1.744-1.316-2.306-2.293c-0.562-0.976-0.84-2.08-0.84-3.312s0.278-2.337,0.84-3.313
			c0.562-0.976,1.328-1.736,2.306-2.279c0.975-0.543,2.07-0.815,3.286-0.815c1.218,0,2.313,0.272,3.289,0.815
			s1.739,1.305,2.292,2.279c0.553,0.977,0.826,2.08,0.826,3.313c0,1.231-0.273,2.336-0.826,3.312
			c-0.553,0.977-1.316,1.74-2.292,2.293c-0.978,0.551-2.071,0.827-3.289,0.827C299.479,581.777,298.383,581.5,297.409,580.95z
			 M303.107,579.653c0.712-0.408,1.269-0.988,1.668-1.74s0.601-1.606,0.601-2.566c0-0.961-0.199-1.816-0.601-2.568
			s-0.956-1.332-1.668-1.74s-1.517-0.611-2.412-0.611s-1.698,0.203-2.411,0.611c-0.711,0.408-1.271,0.988-1.681,1.74
			s-0.61,1.607-0.61,2.568c0,0.96,0.202,1.814,0.61,2.566s0.97,1.332,1.681,1.74c0.713,0.408,1.516,0.612,2.411,0.612
			S302.395,580.061,303.107,579.653z"/>
		<path d="M311.028,581.333c-0.938-0.295-1.668-0.668-2.195-1.115l0.768-1.344c0.527,0.416,1.191,0.756,1.992,1.021
			c0.799,0.265,1.631,0.396,2.496,0.396c1.152,0,2.004-0.18,2.555-0.539c0.553-0.359,0.828-0.867,0.828-1.523
			c0-0.464-0.15-0.828-0.455-1.094c-0.305-0.264-0.688-0.463-1.152-0.6c-0.463-0.136-1.08-0.268-1.848-0.396
			c-1.023-0.192-1.848-0.39-2.473-0.589c-0.623-0.199-1.156-0.541-1.596-1.02c-0.439-0.48-0.66-1.145-0.66-1.992
			c0-1.057,0.439-1.92,1.32-2.592c0.879-0.673,2.104-1.009,3.672-1.009c0.814,0,1.633,0.106,2.447,0.323s1.486,0.501,2.018,0.854
			L318,571.481c-1.041-0.721-2.281-1.08-3.721-1.08c-1.088,0-1.908,0.191-2.461,0.576s-0.826,0.889-0.826,1.512
			c0,0.479,0.154,0.864,0.467,1.152s0.699,0.5,1.164,0.636s1.104,0.276,1.92,0.421c1.008,0.191,1.816,0.383,2.424,0.575
			c0.607,0.19,1.129,0.521,1.561,0.983c0.432,0.465,0.648,1.104,0.648,1.92c0,1.104-0.461,1.98-1.381,2.629
			c-0.92,0.646-2.195,0.972-3.828,0.972C312.944,581.777,311.963,581.629,311.028,581.333z"/>
		<path d="M333.311,575.874H322.75c0.096,1.313,0.6,2.371,1.512,3.181c0.912,0.808,2.064,1.212,3.455,1.212
			c0.785,0,1.504-0.141,2.16-0.42c0.656-0.28,1.225-0.691,1.705-1.236l0.959,1.104c-0.561,0.673-1.26,1.186-2.1,1.537
			c-0.84,0.353-1.764,0.527-2.771,0.527c-1.297,0-2.445-0.275-3.443-0.828c-1.002-0.552-1.779-1.314-2.342-2.291
			c-0.559-0.977-0.84-2.08-0.84-3.313s0.27-2.336,0.805-3.313s1.271-1.736,2.209-2.281c0.936-0.543,1.986-0.814,3.154-0.814
			s2.217,0.271,3.146,0.814c0.928,0.545,1.654,1.302,2.184,2.27c0.527,0.969,0.793,2.076,0.793,3.324L333.311,575.874z
			 M324.155,571.565c-0.824,0.775-1.291,1.788-1.402,3.036h8.951c-0.111-1.248-0.58-2.261-1.404-3.036s-1.852-1.164-3.084-1.164
			C325.999,570.401,324.977,570.79,324.155,571.565z"/>
		<path d="M343.079,565.913c-0.24-0.24-0.359-0.527-0.359-0.863c0-0.319,0.119-0.6,0.359-0.84s0.537-0.359,0.889-0.359
			s0.648,0.115,0.889,0.348s0.359,0.508,0.359,0.828c0,0.352-0.119,0.646-0.359,0.889c-0.24,0.24-0.537,0.359-0.889,0.359
			S343.319,566.153,343.079,565.913z M343.102,569.034h1.703v12.623h-1.703V569.034z"/>
		<path d="M359.772,570.317c0.936,0.92,1.402,2.26,1.402,4.02v7.32h-1.705v-7.152c0-1.312-0.328-2.312-0.982-3
			c-0.656-0.688-1.594-1.03-2.809-1.03c-1.359,0-2.436,0.403-3.229,1.212c-0.791,0.809-1.188,1.924-1.188,3.348v6.625h-1.705
			v-12.625h1.633v2.328c0.463-0.769,1.107-1.363,1.932-1.787c0.826-0.425,1.779-0.637,2.869-0.637
			C357.575,568.937,358.834,569.397,359.772,570.317z"/>
		<path d="M368.315,565.769c-0.377,0.399-0.564,0.992-0.564,1.774v1.488h3.889v1.44h-3.84v11.185h-1.705v-11.185h-2.256v-1.44h2.256
			v-1.56c0-1.151,0.332-2.063,0.996-2.735c0.664-0.673,1.605-1.009,2.82-1.009c0.479,0,0.943,0.067,1.393,0.204
			c0.447,0.136,0.824,0.332,1.127,0.588l-0.574,1.271c-0.496-0.416-1.121-0.625-1.873-0.625
			C369.247,565.168,368.69,565.37,368.315,565.769z"/>
		<path d="M375.598,580.95c-0.977-0.553-1.744-1.316-2.305-2.293c-0.561-0.976-0.84-2.08-0.84-3.312s0.279-2.337,0.84-3.313
			c0.561-0.976,1.328-1.736,2.305-2.279s2.07-0.815,3.287-0.815s2.313,0.272,3.289,0.815s1.74,1.305,2.291,2.279
			c0.553,0.977,0.828,2.08,0.828,3.313c0,1.231-0.275,2.336-0.828,3.312c-0.551,0.977-1.314,1.74-2.291,2.293
			c-0.977,0.551-2.072,0.827-3.289,0.827C377.67,581.777,376.575,581.5,375.598,580.95z M381.299,579.653
			c0.711-0.408,1.268-0.988,1.668-1.74c0.398-0.752,0.6-1.606,0.6-2.566c0-0.961-0.199-1.816-0.6-2.568s-0.957-1.332-1.668-1.74
			c-0.713-0.408-1.518-0.611-2.412-0.611c-0.896,0-1.699,0.203-2.412,0.611s-1.271,0.988-1.68,1.74
			c-0.41,0.752-0.613,1.607-0.613,2.568c0,0.96,0.205,1.814,0.613,2.566s0.967,1.332,1.68,1.74s1.516,0.612,2.412,0.612
			C379.782,580.265,380.586,580.061,381.299,579.653z"/>
		<path d="M403.272,570.172c0.879,0.824,1.318,2.045,1.318,3.66v7.824h-1.631v-1.968c-0.385,0.656-0.949,1.168-1.693,1.536
			c-0.742,0.367-1.627,0.552-2.65,0.552c-1.408,0-2.529-0.336-3.359-1.008c-0.832-0.672-1.248-1.562-1.248-2.664
			c0-1.071,0.389-1.937,1.164-2.592c0.775-0.656,2.012-0.983,3.707-0.983h4.008v-0.77c0-1.088-0.305-1.915-0.912-2.482
			c-0.607-0.568-1.494-0.854-2.662-0.854c-0.801,0-1.568,0.133-2.305,0.396s-1.369,0.627-1.896,1.092l-0.768-1.271
			c0.641-0.544,1.406-0.964,2.305-1.262c0.895-0.295,1.84-0.442,2.832-0.442C401.127,568.937,402.391,569.349,403.272,570.172z
			 M401.35,579.773c0.689-0.44,1.201-1.075,1.537-1.907v-2.064h-3.961c-2.16,0-3.238,0.753-3.238,2.257
			c0,0.735,0.277,1.315,0.84,1.739c0.559,0.425,1.344,0.637,2.352,0.637C399.84,580.433,400.663,580.213,401.35,579.773z"/>
		<path d="M419.434,570.317c0.938,0.92,1.404,2.26,1.404,4.02v7.32h-1.703v-7.152c0-1.312-0.328-2.312-0.984-3
			c-0.656-0.688-1.592-1.03-2.809-1.03c-1.359,0-2.436,0.403-3.229,1.212c-0.791,0.809-1.188,1.924-1.188,3.348v6.625h-1.705
			v-12.625h1.633v2.328c0.465-0.769,1.107-1.363,1.934-1.787c0.822-0.425,1.779-0.637,2.867-0.637
			C417.239,568.937,418.5,569.397,419.434,570.317z"/>
		<path d="M437.04,563.849v17.808h-1.633v-2.496c-0.512,0.85-1.188,1.496-2.027,1.944c-0.838,0.448-1.787,0.672-2.844,0.672
			c-1.186,0-2.256-0.272-3.217-0.815c-0.959-0.545-1.711-1.305-2.256-2.279c-0.545-0.977-0.816-2.09-0.816-3.336
			c0-1.248,0.271-2.36,0.816-3.338c0.545-0.975,1.297-1.73,2.256-2.268c0.961-0.537,2.031-0.804,3.217-0.804
			c1.023,0,1.947,0.212,2.771,0.636s1.5,1.045,2.027,1.86v-7.584H437.04L437.04,563.849z M433.067,579.653
			c0.713-0.408,1.271-0.988,1.68-1.74s0.613-1.606,0.613-2.566c0-0.961-0.205-1.816-0.613-2.568c-0.406-0.752-0.967-1.332-1.68-1.74
			c-0.711-0.408-1.508-0.611-2.389-0.611c-0.895,0-1.699,0.203-2.412,0.611c-0.711,0.408-1.271,0.988-1.68,1.74
			s-0.611,1.607-0.611,2.568c0,0.96,0.203,1.814,0.611,2.566s0.969,1.332,1.68,1.74c0.713,0.408,1.518,0.612,2.412,0.612
			C431.559,580.265,432.356,580.061,433.067,579.653z"/>
		<path d="M448.079,563.849h1.705v17.808h-1.705V563.849z"/>
		<path d="M454.51,565.913c-0.238-0.24-0.359-0.527-0.359-0.863c0-0.319,0.121-0.6,0.359-0.84c0.24-0.24,0.535-0.359,0.889-0.359
			c0.352,0,0.646,0.115,0.889,0.348c0.24,0.232,0.359,0.508,0.359,0.828c0,0.352-0.119,0.646-0.359,0.889
			c-0.24,0.24-0.537,0.359-0.889,0.359C455.047,566.273,454.75,566.153,454.51,565.913z M454.536,569.034h1.703v12.623h-1.703
			V569.034z"/>
		<path d="M471.204,570.317c0.936,0.92,1.404,2.26,1.404,4.02v7.32h-1.705v-7.152c0-1.312-0.328-2.312-0.984-3
			c-0.656-0.688-1.592-1.03-2.807-1.03c-1.361,0-2.438,0.403-3.23,1.212c-0.791,0.809-1.188,1.924-1.188,3.348v6.625h-1.703v-12.625
			h1.631v2.328c0.465-0.769,1.107-1.363,1.934-1.787c0.822-0.425,1.779-0.637,2.867-0.637
			C469.006,568.937,470.266,569.397,471.204,570.317z"/>
		<path d="M481.918,575.321l-2.975,2.736v3.6h-1.705v-17.808h1.705v12.071l7.535-6.889h2.111l-5.398,5.16l5.902,7.465h-2.088
			L481.918,575.321z"/>
		<path d="M491.723,581.333c-0.938-0.295-1.668-0.668-2.195-1.115l0.768-1.344c0.527,0.416,1.191,0.756,1.992,1.021
			c0.799,0.265,1.631,0.396,2.496,0.396c1.15,0,2.004-0.18,2.555-0.539c0.553-0.359,0.828-0.867,0.828-1.523
			c0-0.464-0.152-0.828-0.455-1.094c-0.305-0.264-0.688-0.463-1.152-0.6c-0.465-0.136-1.078-0.268-1.848-0.396
			c-1.023-0.192-1.848-0.39-2.473-0.589c-0.623-0.199-1.156-0.541-1.596-1.02c-0.439-0.48-0.66-1.145-0.66-1.992
			c0-1.057,0.439-1.92,1.32-2.592c0.879-0.673,2.104-1.009,3.672-1.009c0.814,0,1.633,0.106,2.447,0.323
			c0.816,0.217,1.488,0.501,2.018,0.854l-0.744,1.367c-1.041-0.721-2.281-1.08-3.721-1.08c-1.09,0-1.908,0.191-2.461,0.576
			s-0.826,0.889-0.826,1.512c0,0.479,0.154,0.864,0.467,1.152s0.701,0.5,1.164,0.636c0.465,0.136,1.104,0.276,1.92,0.421
			c1.008,0.191,1.814,0.383,2.424,0.575c0.609,0.19,1.129,0.521,1.561,0.983c0.434,0.465,0.648,1.104,0.648,1.92
			c0,1.104-0.461,1.98-1.381,2.629c-0.92,0.646-2.195,0.972-3.828,0.972C493.639,581.777,492.659,581.629,491.723,581.333z"/>
		<path d="M64.851,609.689c-0.32,0.287-0.716,0.509-1.188,0.659c-0.472,0.152-0.964,0.229-1.476,0.229
			c-1.184,0-2.096-0.32-2.736-0.959c-0.64-0.641-0.96-1.545-0.96-2.713v-7.632h-2.256v-1.44h2.256v-2.76h1.704v2.76h3.84v1.44h-3.84
			v7.535c0,0.753,0.188,1.323,0.564,1.717c0.375,0.392,0.916,0.589,1.62,0.589c0.352,0,0.692-0.057,1.02-0.169
			s0.612-0.272,0.852-0.479L64.851,609.689z"/>
		<path d="M78.158,599.118c0.937,0.92,1.404,2.26,1.404,4.02v7.32h-1.703v-7.152c0-1.313-0.328-2.313-0.984-3
			c-0.656-0.688-1.592-1.031-2.809-1.031c-1.359,0-2.436,0.404-3.228,1.213c-0.792,0.807-1.188,1.924-1.188,3.348v6.623h-1.704
			V592.65h1.704v7.392c0.464-0.734,1.104-1.303,1.919-1.703c0.816-0.399,1.752-0.6,2.809-0.6
			C75.963,597.737,77.222,598.198,78.158,599.118z"/>
		<path d="M95.234,604.672h-10.56c0.096,1.314,0.601,2.373,1.512,3.182c0.912,0.809,2.064,1.212,3.457,1.212
			c0.783,0,1.504-0.142,2.16-0.42c0.655-0.28,1.224-0.692,1.703-1.235l0.961,1.104c-0.561,0.672-1.261,1.186-2.101,1.535
			c-0.84,0.354-1.765,0.529-2.772,0.529c-1.295,0-2.443-0.276-3.443-0.828c-1-0.553-1.78-1.315-2.34-2.293
			c-0.561-0.976-0.84-2.08-0.84-3.312s0.268-2.336,0.804-3.313c0.536-0.976,1.272-1.735,2.208-2.279
			c0.936-0.543,1.988-0.814,3.156-0.814s2.215,0.271,3.144,0.814c0.928,0.544,1.655,1.301,2.185,2.27
			c0.527,0.967,0.791,2.075,0.791,3.323L95.234,604.672z M86.078,600.366c-0.824,0.775-1.292,1.787-1.404,3.035h8.952
			c-0.112-1.248-0.58-2.26-1.403-3.035c-0.824-0.777-1.853-1.164-3.084-1.164C87.922,599.202,86.902,599.588,86.078,600.366z"/>
		<path d="M102.158,598.383c0.791-0.432,1.771-0.646,2.939-0.646v1.655l-0.408-0.022c-1.328,0-2.367,0.407-3.119,1.223
			c-0.753,0.816-1.129,1.961-1.129,3.434v6.432h-1.703v-12.623h1.631v2.472C100.769,599.458,101.365,598.817,102.158,598.383z"/>
		<path d="M119.042,604.672h-10.56c0.096,1.314,0.6,2.373,1.512,3.182s2.063,1.212,3.455,1.212c0.784,0,1.504-0.142,2.16-0.42
			c0.656-0.28,1.225-0.692,1.705-1.235l0.959,1.104c-0.561,0.672-1.26,1.186-2.1,1.535c-0.84,0.354-1.764,0.529-2.771,0.529
			c-1.297,0-2.445-0.276-3.444-0.828c-1.001-0.553-1.78-1.315-2.341-2.293c-0.56-0.976-0.84-2.08-0.84-3.312
			s0.268-2.336,0.805-3.313c0.535-0.976,1.271-1.735,2.208-2.279c0.936-0.543,1.987-0.814,3.155-0.814s2.217,0.271,3.145,0.814
			c0.928,0.544,1.656,1.301,2.184,2.27c0.528,0.967,0.793,2.075,0.793,3.323L119.042,604.672z M109.885,600.366
			c-0.824,0.775-1.292,1.787-1.403,3.035h8.951c-0.111-1.248-0.58-2.26-1.404-3.035c-0.824-0.777-1.852-1.164-3.084-1.164
			C111.729,599.202,110.709,599.588,109.885,600.366z"/>
		<path d="M121.813,610.193c-0.249-0.256-0.372-0.567-0.372-0.937s0.123-0.676,0.372-0.924c0.248-0.248,0.548-0.373,0.899-0.373
			s0.656,0.125,0.912,0.373s0.385,0.556,0.385,0.924c0,0.367-0.129,0.681-0.385,0.937c-0.256,0.257-0.561,0.384-0.912,0.384
			S122.061,610.45,121.813,610.193z"/>
	</g>
	<g>
		<path d="M68.998,123.35h1.776v16.8h-1.776V123.35z"/>
		<path d="M93.55,127.526v12.624h-1.632v-2.304c-0.448,0.768-1.064,1.364-1.848,1.788c-0.785,0.424-1.681,0.636-2.688,0.636
			c-1.647,0-2.948-0.46-3.899-1.38c-0.953-0.92-1.429-2.269-1.429-4.044v-7.32h1.704v7.152c0,1.329,0.328,2.336,0.984,3.024
			c0.656,0.688,1.592,1.032,2.808,1.032c1.328,0,2.376-0.404,3.144-1.212c0.769-0.808,1.152-1.932,1.152-3.372v-6.624L93.55,127.526
			L93.55,127.526z"/>
		<path d="M98.769,139.825c-0.936-0.296-1.668-0.668-2.195-1.116l0.768-1.344c0.527,0.416,1.191,0.756,1.992,1.021
			c0.8,0.264,1.632,0.396,2.496,0.396c1.152,0,2.004-0.18,2.556-0.54c0.552-0.359,0.828-0.867,0.828-1.523
			c0-0.464-0.152-0.828-0.456-1.092c-0.305-0.264-0.688-0.464-1.152-0.6c-0.464-0.136-1.08-0.268-1.848-0.396
			c-1.024-0.192-1.848-0.388-2.473-0.588c-0.623-0.2-1.156-0.54-1.596-1.02s-0.66-1.144-0.66-1.992c0-1.056,0.44-1.92,1.32-2.592
			c0.88-0.672,2.104-1.008,3.672-1.008c0.816,0,1.633,0.108,2.448,0.324c0.815,0.216,1.487,0.5,2.017,0.852l-0.744,1.368
			c-1.041-0.72-2.28-1.08-3.721-1.08c-1.088,0-1.908,0.192-2.46,0.576c-0.552,0.384-0.827,0.888-0.827,1.512
			c0,0.48,0.155,0.864,0.467,1.152c0.313,0.288,0.7,0.5,1.164,0.636c0.465,0.136,1.104,0.276,1.92,0.42
			c1.009,0.192,1.816,0.384,2.424,0.576s1.129,0.52,1.561,0.984s0.648,1.104,0.648,1.919c0,1.104-0.461,1.98-1.381,2.629
			c-0.92,0.647-2.195,0.972-3.828,0.972C100.685,140.27,99.705,140.122,98.769,139.825z"/>
		<path d="M121.053,134.365h-10.56c0.096,1.313,0.6,2.372,1.512,3.181c0.912,0.808,2.063,1.212,3.455,1.212
			c0.784,0,1.504-0.141,2.16-0.42c0.656-0.28,1.225-0.692,1.705-1.236l0.959,1.104c-0.561,0.672-1.26,1.185-2.1,1.536
			c-0.84,0.353-1.764,0.528-2.771,0.528c-1.297,0-2.445-0.276-3.444-0.828c-1.001-0.552-1.78-1.315-2.341-2.292
			c-0.56-0.977-0.84-2.08-0.84-3.313c0-1.232,0.268-2.336,0.805-3.312c0.535-0.977,1.271-1.736,2.208-2.28
			c0.936-0.544,1.987-0.816,3.155-0.816s2.217,0.272,3.145,0.816c0.928,0.544,1.656,1.3,2.184,2.268
			c0.528,0.968,0.793,2.076,0.793,3.324L121.053,134.365z M111.897,130.058c-0.824,0.776-1.292,1.788-1.403,3.036h8.951
			c-0.111-1.248-0.58-2.26-1.404-3.036s-1.852-1.164-3.084-1.164C113.741,128.894,112.72,129.282,111.897,130.058z"/>
		<path fill="#FF7B00" d="M145.652,123.35v16.8h-2.567l-9.265-11.376v11.376h-3.096v-16.8h2.568l9.264,11.376V123.35H145.652z"/>
		<path fill="#FF7B00" d="M152.133,139.478c-1.041-0.56-1.852-1.34-2.436-2.34c-0.585-1-0.877-2.132-0.877-3.396
			c0-1.264,0.292-2.392,0.877-3.384c0.584-0.992,1.395-1.768,2.436-2.328c1.039-0.56,2.208-0.84,3.504-0.84
			c1.312,0,2.488,0.28,3.527,0.84c1.041,0.561,1.853,1.336,2.437,2.328c0.584,0.992,0.876,2.12,0.876,3.384
			c0,1.264-0.292,2.396-0.876,3.396s-1.396,1.78-2.437,2.34c-1.039,0.561-2.216,0.84-3.527,0.84
			C154.341,140.318,153.172,140.038,152.133,139.478z M158.373,136.646c0.72-0.735,1.08-1.704,1.08-2.904
			c0-1.2-0.36-2.167-1.08-2.904c-0.721-0.736-1.633-1.104-2.736-1.104s-2.012,0.368-2.725,1.104
			c-0.711,0.736-1.067,1.704-1.067,2.904s0.356,2.169,1.067,2.904c0.713,0.736,1.621,1.104,2.725,1.104
			S157.652,137.382,158.373,136.646z"/>
		<path fill="#FF7B00" d="M173.06,139.453c-0.352,0.288-0.779,0.504-1.283,0.648c-0.505,0.144-1.037,0.216-1.597,0.216
			c-1.408,0-2.496-0.368-3.265-1.104c-0.768-0.736-1.151-1.809-1.151-3.216v-6.168h-2.112v-2.4h2.112v-2.928h3v2.928h3.433v2.4
			h-3.433v6.096c0,0.624,0.151,1.1,0.456,1.428c0.304,0.328,0.744,0.492,1.32,0.492c0.672,0,1.231-0.176,1.68-0.528L173.06,139.453z
			"/>
		<path fill="#FF7B00" d="M187.1,134.701h-10.056c0.176,0.944,0.636,1.692,1.38,2.244c0.744,0.552,1.668,0.828,2.772,0.828
			c1.407,0,2.567-0.464,3.479-1.392l1.608,1.848c-0.576,0.688-1.305,1.208-2.185,1.56c-0.88,0.353-1.872,0.528-2.976,0.528
			c-1.408,0-2.648-0.279-3.721-0.84c-1.072-0.56-1.899-1.34-2.483-2.34c-0.585-1-0.876-2.132-0.876-3.396
			c0-1.248,0.283-2.372,0.852-3.372s1.356-1.78,2.364-2.34c1.009-0.561,2.144-0.84,3.408-0.84c1.248,0,2.364,0.276,3.348,0.828
			s1.753,1.328,2.304,2.328c0.553,1,0.828,2.156,0.828,3.468C187.148,134.022,187.133,134.318,187.1,134.701z M178.232,130.442
			c-0.664,0.568-1.067,1.324-1.211,2.268h7.271c-0.129-0.928-0.521-1.68-1.176-2.256c-0.656-0.576-1.473-0.864-2.448-0.864
			C179.709,129.59,178.896,129.874,178.232,130.442z"/>
		<path fill="#FF7B00" d="M190.94,139.909c-0.992-0.271-1.784-0.615-2.376-1.032l1.152-2.279c0.576,0.384,1.268,0.692,2.076,0.924
			c0.807,0.232,1.604,0.348,2.388,0.348c1.792,0,2.688-0.472,2.688-1.416c0-0.447-0.229-0.759-0.685-0.936s-1.188-0.344-2.196-0.504
			c-1.056-0.16-1.916-0.344-2.58-0.552c-0.664-0.208-1.24-0.572-1.728-1.092c-0.488-0.52-0.731-1.244-0.731-2.172
			c0-1.216,0.507-2.188,1.523-2.916c1.016-0.728,2.388-1.092,4.115-1.092c0.881,0,1.761,0.1,2.641,0.3
			c0.88,0.2,1.6,0.468,2.16,0.804l-1.152,2.28c-1.088-0.64-2.313-0.96-3.672-0.96c-0.88,0-1.548,0.132-2.004,0.396
			c-0.456,0.264-0.684,0.612-0.684,1.044c0,0.48,0.243,0.82,0.731,1.02c0.487,0.2,1.244,0.388,2.269,0.564
			c1.023,0.16,1.863,0.344,2.52,0.552s1.22,0.56,1.691,1.056c0.473,0.496,0.709,1.2,0.709,2.112c0,1.2-0.521,2.16-1.561,2.88
			c-1.04,0.72-2.456,1.08-4.248,1.08C192.948,140.318,191.932,140.182,190.94,139.909z"/>
		<path fill="#FF7B00" d="M218.24,128.546c1,0.904,1.5,2.268,1.5,4.092v7.512h-2.832v-1.56c-0.369,0.56-0.893,0.987-1.572,1.283
			c-0.679,0.296-1.5,0.444-2.46,0.444s-1.8-0.164-2.521-0.492c-0.72-0.327-1.275-0.783-1.668-1.368
			c-0.392-0.583-0.588-1.243-0.588-1.979c0-1.152,0.428-2.076,1.284-2.772s2.204-1.044,4.044-1.044h3.313v-0.192
			c0-0.896-0.269-1.584-0.805-2.063c-0.535-0.48-1.332-0.72-2.388-0.72c-0.72,0-1.428,0.112-2.124,0.336
			c-0.695,0.224-1.283,0.536-1.764,0.936l-1.176-2.184c0.672-0.512,1.479-0.904,2.424-1.176c0.943-0.272,1.943-0.408,3-0.408
			C215.796,127.19,217.24,127.642,218.24,128.546z M215.504,137.617c0.584-0.344,0.996-0.836,1.236-1.476v-1.488h-3.096
			c-1.729,0-2.593,0.567-2.593,1.704c0,0.544,0.216,0.977,0.647,1.296c0.433,0.32,1.033,0.479,1.801,0.479
			C214.252,138.134,214.92,137.962,215.504,137.617z"/>
		<path fill="#FF7B00" d="M234.031,128.006c0.984,0.544,1.756,1.313,2.316,2.304s0.84,2.136,0.84,3.432s-0.279,2.444-0.84,3.444
			s-1.332,1.772-2.316,2.315c-0.983,0.545-2.1,0.816-3.348,0.816c-1.728,0-3.096-0.576-4.104-1.728v6.216h-3v-17.472h2.855v1.68
			c0.496-0.607,1.107-1.063,1.836-1.368c0.729-0.304,1.532-0.456,2.412-0.456C231.931,127.19,233.048,127.462,234.031,128.006z
			 M233.072,136.646c0.711-0.735,1.067-1.704,1.067-2.904c0-1.2-0.356-2.167-1.067-2.904c-0.713-0.736-1.621-1.104-2.725-1.104
			c-0.72,0-1.367,0.164-1.943,0.492c-0.576,0.328-1.033,0.796-1.369,1.404c-0.336,0.608-0.504,1.313-0.504,2.112
			s0.168,1.504,0.504,2.112s0.793,1.076,1.369,1.404c0.576,0.328,1.224,0.491,1.943,0.491
			C231.451,137.749,232.359,137.382,233.072,136.646z"/>
		<path fill="#FF7B00" d="M250.496,128.006c0.983,0.544,1.756,1.313,2.315,2.304s0.841,2.136,0.841,3.432s-0.281,2.444-0.841,3.444
			s-1.332,1.772-2.315,2.315c-0.984,0.545-2.101,0.816-3.349,0.816c-1.728,0-3.096-0.576-4.104-1.728v6.216h-3v-17.472h2.857v1.68
			c0.495-0.607,1.107-1.063,1.836-1.368c0.727-0.304,1.531-0.456,2.411-0.456C248.395,127.19,249.511,127.462,250.496,128.006z
			 M249.535,136.646c0.713-0.735,1.068-1.704,1.068-2.904c0-1.2-0.355-2.167-1.068-2.904c-0.711-0.736-1.619-1.104-2.724-1.104
			c-0.72,0-1.368,0.164-1.944,0.492c-0.576,0.328-1.031,0.796-1.367,1.404c-0.336,0.608-0.504,1.313-0.504,2.112
			s0.168,1.504,0.504,2.112s0.791,1.076,1.367,1.404c0.576,0.328,1.225,0.491,1.944,0.491
			C247.916,137.749,248.824,137.382,249.535,136.646z"/>
		<path d="M265.411,139.442c-0.976-0.552-1.744-1.315-2.304-2.292c-0.561-0.976-0.84-2.08-0.84-3.312
			c0-1.232,0.279-2.336,0.84-3.312c0.56-0.976,1.328-1.736,2.304-2.28s2.071-0.816,3.289-0.816c1.215,0,2.312,0.272,3.287,0.816
			c0.977,0.544,1.739,1.304,2.292,2.28c0.552,0.976,0.828,2.08,0.828,3.312c0,1.232-0.276,2.336-0.828,3.312
			c-0.553,0.977-1.315,1.74-2.292,2.292c-0.977,0.552-2.072,0.828-3.287,0.828C267.482,140.27,266.386,139.993,265.411,139.442z
			 M271.111,138.146c0.711-0.408,1.269-0.988,1.668-1.74s0.601-1.608,0.601-2.568s-0.2-1.816-0.601-2.568
			c-0.399-0.752-0.957-1.332-1.668-1.74c-0.713-0.408-1.517-0.612-2.411-0.612c-0.896,0-1.701,0.204-2.413,0.612
			c-0.712,0.408-1.271,0.988-1.68,1.74c-0.409,0.752-0.612,1.608-0.612,2.568s0.204,1.816,0.612,2.568
			c0.408,0.752,0.968,1.332,1.68,1.74c0.712,0.408,1.516,0.612,2.413,0.612C269.594,138.758,270.398,138.554,271.111,138.146z"/>
		<path d="M288.799,128.81c0.936,0.92,1.404,2.26,1.404,4.02v7.32h-1.705v-7.152c0-1.312-0.328-2.312-0.982-3
			c-0.656-0.688-1.594-1.032-2.809-1.032c-1.36,0-2.437,0.404-3.229,1.212c-0.791,0.809-1.188,1.924-1.188,3.348v6.624h-1.703
			v-12.624h1.631v2.328c0.465-0.768,1.107-1.364,1.933-1.788c0.824-0.424,1.78-0.636,2.869-0.636
			C286.603,127.429,287.863,127.89,288.799,128.81z"/>
		<path d="M320.596,128.798c0.904,0.912,1.357,2.256,1.357,4.032v7.32h-1.705v-7.152c0-1.312-0.316-2.312-0.947-3
			c-0.633-0.688-1.523-1.032-2.676-1.032c-1.313,0-2.346,0.404-3.096,1.212c-0.754,0.809-1.129,1.924-1.129,3.348v6.624h-1.703
			v-7.152c0-1.312-0.316-2.312-0.949-3s-1.531-1.032-2.699-1.032c-1.297,0-2.323,0.404-3.084,1.212
			c-0.76,0.809-1.141,1.924-1.141,3.348v6.624h-1.703v-12.624h1.631v2.304c0.447-0.768,1.072-1.36,1.873-1.776
			c0.799-0.416,1.719-0.624,2.76-0.624c1.057,0,1.973,0.226,2.748,0.672c0.775,0.448,1.355,1.112,1.74,1.992
			c0.463-0.832,1.131-1.484,2.004-1.956c0.871-0.472,1.867-0.708,2.988-0.708C318.45,127.429,319.694,127.885,320.596,128.798z"/>
		<path d="M336.954,127.526l-6.313,14.136c-0.512,1.185-1.104,2.024-1.775,2.521c-0.672,0.495-1.479,0.744-2.424,0.744
			c-0.607,0-1.178-0.097-1.703-0.288c-0.527-0.192-0.984-0.48-1.369-0.864l0.793-1.272c0.639,0.641,1.408,0.96,2.305,0.96
			c0.574,0,1.066-0.159,1.477-0.479c0.406-0.32,0.787-0.864,1.139-1.632l0.553-1.225l-5.641-12.6h1.775l4.752,10.728l4.754-10.728
			L336.954,127.526L336.954,127.526z"/>
		<path d="M345.618,124.405c-0.24-0.24-0.359-0.528-0.359-0.864c0-0.32,0.119-0.6,0.359-0.84c0.24-0.24,0.537-0.36,0.889-0.36
			s0.648,0.116,0.889,0.348s0.359,0.508,0.359,0.828c0,0.352-0.119,0.648-0.359,0.888c-0.24,0.24-0.537,0.36-0.889,0.36
			S345.858,124.646,345.618,124.405z M345.641,127.526h1.703v12.624h-1.703V127.526z"/>
		<path d="M361.819,128.234c0.959,0.536,1.711,1.292,2.256,2.268c0.543,0.976,0.814,2.088,0.814,3.336
			c0,1.264-0.271,2.384-0.814,3.36c-0.545,0.977-1.293,1.732-2.244,2.269c-0.953,0.536-2.027,0.804-3.23,0.804
			c-1.021,0-1.945-0.212-2.77-0.636c-0.824-0.424-1.5-1.044-2.027-1.86v7.032h-1.705v-17.28h1.633v2.496
			c0.512-0.832,1.188-1.472,2.027-1.92c0.838-0.448,1.789-0.672,2.844-0.672C359.786,127.429,360.858,127.698,361.819,128.234z
			 M360.883,138.146c0.719-0.408,1.283-0.988,1.691-1.74s0.609-1.608,0.609-2.568s-0.201-1.812-0.609-2.556s-0.975-1.324-1.691-1.74
			c-0.721-0.416-1.521-0.624-2.4-0.624c-0.896,0-1.701,0.208-2.412,0.624c-0.713,0.416-1.271,0.996-1.68,1.74
			s-0.611,1.596-0.611,2.556s0.203,1.816,0.611,2.568s0.967,1.332,1.68,1.74c0.711,0.408,1.516,0.612,2.412,0.612
			C359.362,138.758,360.163,138.554,360.883,138.146z"/>
		<path d="M378.583,128.81c0.936,0.92,1.404,2.26,1.404,4.02v7.32h-1.705v-7.152c0-1.312-0.328-2.312-0.982-3
			c-0.656-0.688-1.594-1.032-2.809-1.032c-1.361,0-2.438,0.404-3.23,1.212c-0.791,0.809-1.188,1.924-1.188,3.348v6.624h-1.703
			v-17.808h1.703v7.392c0.465-0.736,1.104-1.304,1.92-1.704c0.816-0.399,1.752-0.601,2.809-0.601
			C376.385,127.429,377.647,127.89,378.583,128.81z"/>
		<path d="M386.538,139.442c-0.977-0.552-1.744-1.315-2.305-2.292c-0.561-0.976-0.84-2.08-0.84-3.312
			c0-1.232,0.279-2.336,0.84-3.312s1.328-1.736,2.305-2.28s2.072-0.816,3.289-0.816c1.215,0,2.311,0.272,3.287,0.816
			c0.975,0.544,1.74,1.304,2.291,2.28c0.553,0.976,0.828,2.08,0.828,3.312c0,1.232-0.275,2.336-0.828,3.312
			c-0.551,0.977-1.316,1.74-2.291,2.292c-0.977,0.552-2.072,0.828-3.287,0.828C388.61,140.27,387.512,139.993,386.538,139.442z
			 M392.237,138.146c0.713-0.408,1.268-0.988,1.668-1.74s0.6-1.608,0.6-2.568s-0.199-1.816-0.6-2.568s-0.955-1.332-1.668-1.74
			c-0.711-0.408-1.518-0.612-2.41-0.612c-0.896,0-1.701,0.204-2.412,0.612c-0.713,0.408-1.273,0.988-1.682,1.74
			c-0.406,0.752-0.611,1.608-0.611,2.568s0.205,1.816,0.611,2.568c0.408,0.752,0.969,1.332,1.682,1.74
			c0.711,0.408,1.516,0.612,2.412,0.612C390.719,138.758,391.526,138.554,392.237,138.146z"/>
		<path d="M409.924,128.81c0.938,0.92,1.404,2.26,1.404,4.02v7.32h-1.703v-7.152c0-1.312-0.328-2.312-0.984-3
			s-1.592-1.032-2.809-1.032c-1.359,0-2.438,0.404-3.229,1.212c-0.793,0.809-1.188,1.924-1.188,3.348v6.624h-1.705v-12.624h1.633
			v2.328c0.463-0.768,1.107-1.364,1.934-1.788c0.822-0.424,1.777-0.636,2.865-0.636C407.727,127.429,408.989,127.89,409.924,128.81z
			"/>
		<path d="M427.002,134.365h-10.561c0.096,1.313,0.6,2.372,1.512,3.181c0.912,0.808,2.063,1.212,3.457,1.212
			c0.783,0,1.502-0.141,2.158-0.42c0.656-0.28,1.225-0.692,1.705-1.236l0.959,1.104c-0.561,0.672-1.26,1.185-2.1,1.536
			c-0.84,0.353-1.764,0.528-2.771,0.528c-1.297,0-2.443-0.276-3.443-0.828c-1-0.552-1.781-1.315-2.34-2.292
			c-0.563-0.977-0.842-2.08-0.842-3.313c0-1.232,0.27-2.336,0.805-3.312c0.537-0.977,1.271-1.736,2.209-2.28
			c0.936-0.544,1.986-0.816,3.156-0.816c1.166,0,2.215,0.272,3.143,0.816c0.93,0.544,1.656,1.3,2.186,2.268
			c0.527,0.968,0.791,2.076,0.791,3.324L427.002,134.365z M417.844,130.058c-0.822,0.776-1.291,1.788-1.402,3.036h8.951
			c-0.111-1.248-0.58-2.26-1.402-3.036c-0.824-0.776-1.854-1.164-3.084-1.164C419.69,128.894,418.67,129.282,417.844,130.058z"/>
		<path d="M443.442,139.382c-0.32,0.287-0.717,0.508-1.188,0.659c-0.473,0.152-0.965,0.229-1.477,0.229
			c-1.186,0-2.098-0.32-2.736-0.96c-0.641-0.64-0.959-1.544-0.959-2.712v-7.632h-2.256v-1.439h2.256v-2.76h1.703v2.76h3.84v1.439
			h-3.84v7.536c0,0.753,0.188,1.324,0.563,1.717c0.377,0.392,0.916,0.588,1.621,0.588c0.352,0,0.691-0.056,1.021-0.168
			c0.326-0.112,0.609-0.272,0.852-0.48L443.442,139.382z"/>
		<path d="M447.954,139.442c-0.977-0.552-1.744-1.315-2.303-2.292c-0.563-0.976-0.842-2.08-0.842-3.312
			c0-1.232,0.279-2.336,0.842-3.312c0.559-0.976,1.326-1.736,2.303-2.28s2.072-0.816,3.289-0.816c1.215,0,2.311,0.272,3.287,0.816
			s1.74,1.304,2.293,2.28c0.551,0.976,0.828,2.08,0.828,3.312c0,1.232-0.277,2.336-0.828,3.312c-0.553,0.977-1.316,1.74-2.293,2.292
			c-0.977,0.552-2.072,0.828-3.287,0.828C450.026,140.27,448.928,139.993,447.954,139.442z M453.655,138.146
			c0.711-0.408,1.268-0.988,1.668-1.74c0.398-0.752,0.6-1.608,0.6-2.568s-0.201-1.816-0.6-2.568c-0.4-0.752-0.957-1.332-1.668-1.74
			c-0.713-0.408-1.518-0.612-2.412-0.612c-0.896,0-1.701,0.204-2.412,0.612c-0.713,0.408-1.273,0.988-1.68,1.74
			c-0.408,0.752-0.613,1.608-0.613,2.568s0.205,1.816,0.613,2.568c0.406,0.752,0.967,1.332,1.68,1.74
			c0.711,0.408,1.516,0.612,2.412,0.612C452.137,138.758,452.942,138.554,453.655,138.146z"/>
		<path d="M80.158,151.143v17.808h-1.631v-2.496c-0.513,0.849-1.188,1.496-2.029,1.944c-0.84,0.448-1.787,0.672-2.844,0.672
			c-1.184,0-2.256-0.272-3.216-0.816s-1.712-1.304-2.256-2.279c-0.544-0.977-0.816-2.089-0.816-3.336
			c0-1.248,0.272-2.36,0.816-3.337c0.544-0.976,1.296-1.73,2.256-2.268s2.032-0.804,3.216-0.804c1.023,0,1.948,0.212,2.772,0.636
			c0.823,0.424,1.5,1.044,2.028,1.86v-7.584H80.158L80.158,151.143z M76.186,166.946c0.712-0.408,1.272-0.988,1.681-1.74
			c0.409-0.752,0.611-1.607,0.611-2.567c0-0.961-0.203-1.816-0.611-2.568c-0.408-0.752-0.969-1.332-1.681-1.74
			s-1.509-0.612-2.388-0.612c-0.896,0-1.7,0.204-2.412,0.612c-0.712,0.408-1.272,0.988-1.68,1.74
			c-0.408,0.752-0.612,1.606-0.612,2.568c0,0.96,0.204,1.815,0.612,2.567c0.408,0.752,0.968,1.332,1.68,1.74
			c0.712,0.408,1.516,0.612,2.412,0.612C74.677,167.559,75.474,167.355,76.186,166.946z"/>
		<path d="M86.783,168.242c-0.977-0.552-1.744-1.315-2.305-2.292c-0.561-0.976-0.84-2.08-0.84-3.312s0.279-2.336,0.84-3.313
			c0.561-0.976,1.328-1.736,2.305-2.28c0.975-0.543,2.071-0.815,3.287-0.815c1.217,0,2.313,0.272,3.289,0.815
			c0.975,0.544,1.739,1.305,2.291,2.28c0.553,0.977,0.828,2.08,0.828,3.313c0,1.231-0.275,2.336-0.828,3.312
			c-0.552,0.977-1.316,1.74-2.291,2.292c-0.977,0.552-2.072,0.828-3.289,0.828C88.854,169.071,87.758,168.794,86.783,168.242z
			 M92.482,166.946c0.712-0.408,1.268-0.988,1.668-1.74s0.6-1.607,0.6-2.567c0-0.961-0.199-1.816-0.6-2.568s-0.956-1.332-1.668-1.74
			s-1.516-0.612-2.412-0.612s-1.699,0.204-2.412,0.612c-0.711,0.408-1.271,0.988-1.68,1.74s-0.611,1.606-0.611,2.568
			c0,0.96,0.203,1.815,0.611,2.567s0.969,1.332,1.68,1.74c0.713,0.408,1.516,0.612,2.412,0.612S91.77,167.355,92.482,166.946z"/>
		<path d="M101.842,168.254c-0.983-0.544-1.756-1.308-2.315-2.292c-0.56-0.983-0.84-2.092-0.84-3.323c0-1.232,0.28-2.336,0.84-3.313
			c0.56-0.976,1.332-1.736,2.315-2.28c0.984-0.543,2.101-0.815,3.349-0.815c1.088,0,2.06,0.212,2.916,0.636s1.532,1.044,2.028,1.86
			l-1.272,0.863c-0.416-0.624-0.944-1.092-1.584-1.403c-0.64-0.313-1.336-0.469-2.088-0.469c-0.912,0-1.731,0.204-2.46,0.612
			s-1.296,0.988-1.704,1.74c-0.407,0.752-0.612,1.606-0.612,2.567c0,0.977,0.205,1.836,0.612,2.579
			c0.408,0.744,0.976,1.32,1.704,1.729c0.728,0.409,1.548,0.612,2.46,0.612c0.752,0,1.448-0.152,2.088-0.456
			c0.64-0.304,1.168-0.769,1.584-1.393l1.272,0.864c-0.496,0.816-1.176,1.437-2.04,1.86c-0.864,0.423-1.833,0.636-2.904,0.636
			C103.942,169.071,102.826,168.798,101.842,168.254z"/>
		<path d="M124.845,156.326v12.624h-1.631v-2.304c-0.449,0.768-1.064,1.364-1.849,1.788c-0.785,0.424-1.681,0.636-2.688,0.636
			c-1.647,0-2.947-0.46-3.899-1.38c-0.952-0.92-1.429-2.269-1.429-4.044v-7.32h1.705v7.152c0,1.328,0.327,2.336,0.983,3.023
			c0.656,0.688,1.592,1.032,2.808,1.032c1.328,0,2.377-0.404,3.145-1.212c0.768-0.808,1.152-1.932,1.152-3.372v-6.624
			L124.845,156.326L124.845,156.326z"/>
		<path d="M149.097,157.599c0.904,0.911,1.356,2.256,1.356,4.031v7.32h-1.704v-7.152c0-1.312-0.316-2.312-0.947-3
			c-0.633-0.688-1.524-1.031-2.677-1.031c-1.312,0-2.345,0.404-3.096,1.212c-0.753,0.808-1.128,1.924-1.128,3.348v6.624h-1.704
			v-7.152c0-1.312-0.316-2.312-0.948-3c-0.633-0.688-1.532-1.031-2.699-1.031c-1.297,0-2.324,0.404-3.084,1.212
			c-0.761,0.808-1.141,1.924-1.141,3.348v6.624h-1.704v-12.624h1.632v2.304c0.447-0.768,1.072-1.359,1.872-1.775
			s1.72-0.624,2.761-0.624c1.055,0,1.971,0.224,2.748,0.672c0.775,0.448,1.355,1.112,1.739,1.992
			c0.464-0.832,1.132-1.484,2.004-1.956s1.868-0.708,2.988-0.708C146.95,156.231,148.193,156.687,149.097,157.599z"/>
		<path d="M166.126,163.166h-10.56c0.096,1.313,0.6,2.372,1.512,3.181c0.912,0.808,2.063,1.212,3.455,1.212
			c0.784,0,1.504-0.141,2.16-0.42c0.656-0.28,1.225-0.692,1.705-1.236l0.959,1.104c-0.561,0.672-1.26,1.185-2.1,1.536
			c-0.84,0.353-1.764,0.528-2.771,0.528c-1.297,0-2.445-0.276-3.444-0.828c-1.001-0.552-1.78-1.315-2.341-2.292
			c-0.56-0.976-0.84-2.08-0.84-3.312s0.268-2.336,0.805-3.313c0.535-0.976,1.271-1.736,2.208-2.28
			c0.936-0.543,1.987-0.815,3.155-0.815s2.217,0.272,3.145,0.815c0.928,0.544,1.656,1.301,2.184,2.269
			c0.528,0.968,0.793,2.076,0.793,3.324L166.126,163.166z M156.969,158.859c-0.824,0.776-1.292,1.788-1.403,3.036h8.951
			c-0.111-1.248-0.58-2.26-1.404-3.036c-0.824-0.776-1.852-1.164-3.084-1.164C158.813,157.695,157.793,158.082,156.969,158.859z"/>
		<path d="M179.842,157.611c0.936,0.92,1.404,2.26,1.404,4.02v7.32h-1.705v-7.152c0-1.312-0.328-2.312-0.983-3
			c-0.656-0.688-1.593-1.031-2.808-1.031c-1.361,0-2.437,0.404-3.229,1.212s-1.188,1.924-1.188,3.348v6.624h-1.705v-12.624h1.633
			v2.328c0.463-0.77,1.107-1.364,1.932-1.788c0.825-0.424,1.779-0.636,2.868-0.636C177.645,156.231,178.905,156.691,179.842,157.611
			z"/>
		<path d="M192.525,168.183c-0.32,0.287-0.717,0.508-1.188,0.659c-0.472,0.152-0.964,0.229-1.476,0.229
			c-1.185,0-2.097-0.32-2.736-0.96c-0.641-0.64-0.96-1.544-0.96-2.712v-7.632h-2.256v-1.44h2.256v-2.76h1.704v2.76h3.84v1.44h-3.84
			v7.535c0,0.753,0.188,1.324,0.564,1.717c0.375,0.392,0.915,0.588,1.619,0.588c0.352,0,0.691-0.056,1.02-0.168
			c0.329-0.112,0.613-0.272,0.853-0.48L192.525,168.183z"/>
		<path d="M208.556,168.183c-0.32,0.287-0.717,0.508-1.188,0.659c-0.472,0.152-0.964,0.229-1.476,0.229
			c-1.185,0-2.097-0.32-2.736-0.96c-0.641-0.64-0.96-1.544-0.96-2.712v-7.632h-2.256v-1.44h2.256v-2.76h1.704v2.76h3.84v1.44h-3.84
			v7.535c0,0.753,0.188,1.324,0.564,1.717c0.375,0.392,0.915,0.588,1.619,0.588c0.352,0,0.691-0.056,1.02-0.168
			s0.613-0.272,0.853-0.48L208.556,168.183z"/>
		<path d="M221.863,157.611c0.937,0.92,1.404,2.26,1.404,4.02v7.32h-1.703v-7.152c0-1.312-0.328-2.312-0.984-3
			c-0.656-0.688-1.592-1.031-2.809-1.031c-1.359,0-2.436,0.404-3.228,1.212s-1.188,1.924-1.188,3.348v6.624h-1.703v-17.808h1.703
			v7.392c0.465-0.735,1.104-1.304,1.92-1.704c0.816-0.399,1.752-0.6,2.809-0.6C219.668,156.231,220.927,156.691,221.863,157.611z"/>
		<path d="M238.939,163.166h-10.561c0.096,1.313,0.601,2.372,1.512,3.181c0.912,0.808,2.064,1.212,3.457,1.212
			c0.783,0,1.504-0.141,2.16-0.42c0.655-0.28,1.224-0.692,1.703-1.236l0.961,1.104c-0.561,0.672-1.261,1.185-2.101,1.536
			c-0.84,0.353-1.765,0.528-2.772,0.528c-1.295,0-2.443-0.276-3.443-0.828c-1-0.552-1.78-1.315-2.34-2.292
			c-0.561-0.976-0.84-2.08-0.84-3.312s0.268-2.336,0.804-3.313c0.536-0.976,1.272-1.736,2.208-2.28
			c0.936-0.543,1.988-0.815,3.156-0.815c1.168,0,2.215,0.272,3.144,0.815c0.928,0.544,1.655,1.301,2.185,2.269
			c0.527,0.968,0.791,2.076,0.791,3.324L238.939,163.166z M229.783,158.859c-0.824,0.776-1.292,1.788-1.404,3.036h8.952
			c-0.112-1.248-0.58-2.26-1.403-3.036c-0.824-0.776-1.853-1.164-3.084-1.164C231.627,157.695,230.607,158.082,229.783,158.859z"/>
		<path d="M248.707,153.206c-0.24-0.24-0.36-0.528-0.36-0.864c0-0.319,0.12-0.6,0.36-0.84c0.239-0.24,0.535-0.359,0.888-0.359
			c0.352,0,0.647,0.116,0.888,0.348c0.24,0.232,0.359,0.508,0.359,0.828c0,0.352-0.119,0.646-0.359,0.888
			c-0.24,0.241-0.536,0.36-0.888,0.36C249.242,153.567,248.946,153.446,248.707,153.206z M248.73,156.326h1.704v12.624h-1.704
			V156.326z"/>
		<path d="M265.398,157.611c0.936,0.92,1.404,2.26,1.404,4.02v7.32h-1.704v-7.152c0-1.312-0.328-2.312-0.983-3
			c-0.656-0.688-1.593-1.031-2.809-1.031c-1.36,0-2.436,0.404-3.229,1.212c-0.791,0.808-1.188,1.924-1.188,3.348v6.624h-1.704
			v-12.624h1.632v2.328c0.464-0.77,1.107-1.364,1.932-1.788s1.78-0.636,2.869-0.636
			C263.203,156.231,264.463,156.691,265.398,157.611z"/>
		<path d="M273.942,153.063c-0.376,0.399-0.563,0.992-0.563,1.775v1.488h3.888v1.44h-3.841v11.184h-1.703v-11.184h-2.256v-1.44
			h2.256v-1.56c0-1.152,0.332-2.064,0.996-2.736c0.664-0.672,1.604-1.008,2.82-1.008c0.479,0,0.942,0.068,1.392,0.204
			c0.448,0.136,0.823,0.332,1.128,0.588l-0.576,1.271c-0.496-0.416-1.12-0.624-1.872-0.624
			C274.875,152.462,274.318,152.662,273.942,153.063z"/>
		<path d="M281.226,168.242c-0.978-0.552-1.744-1.315-2.306-2.292c-0.56-0.976-0.84-2.08-0.84-3.312s0.28-2.336,0.84-3.313
			c0.562-0.976,1.328-1.736,2.306-2.28c0.976-0.543,2.071-0.815,3.288-0.815c1.216,0,2.313,0.272,3.287,0.815
			c0.977,0.544,1.74,1.305,2.293,2.28c0.552,0.977,0.826,2.08,0.826,3.313c0,1.231-0.274,2.336-0.826,3.312
			c-0.553,0.977-1.316,1.74-2.293,2.292c-0.977,0.552-2.071,0.828-3.287,0.828C283.297,169.07,282.202,168.794,281.226,168.242z
			 M286.926,166.946c0.713-0.408,1.269-0.988,1.669-1.74c0.399-0.752,0.6-1.607,0.6-2.567c0-0.961-0.2-1.816-0.6-2.568
			c-0.4-0.752-0.956-1.332-1.669-1.74c-0.711-0.408-1.516-0.612-2.411-0.612s-1.7,0.204-2.412,0.612s-1.272,0.988-1.681,1.74
			c-0.407,0.752-0.611,1.606-0.611,2.568c0,0.96,0.204,1.815,0.611,2.567c0.408,0.752,0.969,1.332,1.681,1.74
			c0.712,0.408,1.517,0.612,2.412,0.612C285.411,167.559,286.215,167.355,286.926,166.946z"/>
		<path d="M308.899,157.466c0.879,0.824,1.318,2.045,1.318,3.66v7.824h-1.633v-1.968c-0.383,0.656-0.947,1.168-1.691,1.536
			c-0.742,0.368-1.628,0.552-2.65,0.552c-1.408,0-2.529-0.336-3.361-1.008s-1.248-1.561-1.248-2.664
			c0-1.072,0.389-1.936,1.164-2.592c0.777-0.656,2.014-0.984,3.709-0.984h4.008v-0.77c0-1.087-0.305-1.915-0.912-2.482
			s-1.496-0.854-2.664-0.854c-0.8,0-1.568,0.133-2.304,0.396c-0.736,0.263-1.368,0.628-1.896,1.092l-0.77-1.271
			c0.64-0.544,1.408-0.964,2.304-1.261c0.896-0.296,1.841-0.443,2.832-0.443C306.754,156.231,308.016,156.643,308.899,157.466z
			 M306.977,167.067c0.689-0.44,1.199-1.076,1.535-1.908v-2.064h-3.958c-2.16,0-3.24,0.753-3.24,2.257
			c0,0.735,0.278,1.315,0.84,1.739c0.56,0.425,1.345,0.637,2.353,0.637C305.465,167.727,306.29,167.507,306.977,167.067z"/>
		<path d="M325.063,157.611c0.936,0.92,1.402,2.26,1.402,4.02v7.32h-1.705v-7.152c0-1.312-0.328-2.312-0.982-3
			c-0.656-0.688-1.594-1.031-2.809-1.031c-1.359,0-2.436,0.404-3.229,1.212c-0.791,0.808-1.188,1.924-1.188,3.348v6.624h-1.705
			v-12.624h1.633v2.328c0.463-0.77,1.107-1.364,1.932-1.788c0.826-0.424,1.779-0.636,2.869-0.636
			C322.866,156.231,324.125,156.691,325.063,157.611z"/>
		<path d="M342.667,151.143v17.808h-1.633v-2.496c-0.512,0.849-1.189,1.496-2.027,1.944c-0.84,0.448-1.789,0.672-2.844,0.672
			c-1.188,0-2.256-0.272-3.217-0.816s-1.713-1.304-2.256-2.279c-0.545-0.977-0.816-2.089-0.816-3.336
			c0-1.248,0.271-2.36,0.816-3.337c0.543-0.976,1.295-1.73,2.256-2.268c0.961-0.536,2.029-0.804,3.217-0.804
			c1.021,0,1.947,0.212,2.77,0.636c0.824,0.424,1.5,1.044,2.027,1.86v-7.584H342.667L342.667,151.143z M338.694,166.946
			c0.711-0.408,1.27-0.988,1.68-1.74c0.408-0.752,0.611-1.607,0.611-2.567c0-0.961-0.203-1.816-0.611-2.568s-0.969-1.332-1.68-1.74
			c-0.713-0.408-1.51-0.612-2.389-0.612c-0.896,0-1.699,0.204-2.412,0.612s-1.271,0.988-1.682,1.74
			c-0.406,0.752-0.611,1.606-0.611,2.568c0,0.96,0.205,1.815,0.611,2.567c0.408,0.752,0.969,1.332,1.682,1.74
			c0.713,0.408,1.516,0.612,2.412,0.612C337.184,167.559,337.981,167.355,338.694,166.946z"/>
		<path d="M353.706,151.143h1.705v17.808h-1.705V151.143z"/>
		<path d="M360.137,153.206c-0.24-0.24-0.359-0.528-0.359-0.864c0-0.319,0.119-0.6,0.359-0.84c0.238-0.24,0.535-0.359,0.889-0.359
			c0.352,0,0.646,0.116,0.889,0.348c0.24,0.232,0.359,0.508,0.359,0.828c0,0.352-0.119,0.646-0.359,0.888s-0.537,0.36-0.889,0.36
			C360.672,153.567,360.377,153.446,360.137,153.206z M360.163,156.326h1.703v12.624h-1.703V156.326z"/>
		<path d="M376.831,157.611c0.936,0.92,1.404,2.26,1.404,4.02v7.32h-1.705v-7.152c0-1.312-0.328-2.312-0.984-3
			c-0.656-0.688-1.592-1.031-2.807-1.031c-1.361,0-2.438,0.404-3.23,1.212c-0.791,0.808-1.188,1.924-1.188,3.348v6.624h-1.705
			v-12.624h1.633v2.328c0.463-0.77,1.107-1.364,1.932-1.788c0.826-0.424,1.779-0.636,2.869-0.636
			C374.633,156.231,375.893,156.691,376.831,157.611z"/>
		<path d="M387.545,162.614l-2.977,2.736v3.6h-1.703v-17.808h1.703v12.071l7.537-6.888h2.109l-5.398,5.16l5.904,7.464h-2.09
			L387.545,162.614z"/>
		<path d="M397.35,168.626c-0.938-0.296-1.668-0.668-2.195-1.116l0.768-1.344c0.527,0.416,1.191,0.756,1.992,1.021
			c0.799,0.264,1.631,0.396,2.496,0.396c1.152,0,2.004-0.18,2.555-0.54c0.553-0.359,0.828-0.867,0.828-1.523
			c0-0.464-0.152-0.828-0.455-1.093c-0.305-0.264-0.688-0.464-1.15-0.6c-0.467-0.136-1.08-0.268-1.85-0.396
			c-1.023-0.192-1.848-0.389-2.473-0.589c-0.623-0.199-1.156-0.54-1.596-1.02c-0.439-0.48-0.66-1.144-0.66-1.992
			c0-1.056,0.439-1.92,1.32-2.592c0.879-0.672,2.104-1.008,3.672-1.008c0.814,0,1.633,0.107,2.447,0.323
			c0.816,0.217,1.488,0.501,2.018,0.853l-0.744,1.368c-1.041-0.721-2.281-1.08-3.721-1.08c-1.09,0-1.908,0.191-2.461,0.576
			c-0.553,0.384-0.826,0.888-0.826,1.512c0,0.479,0.154,0.864,0.467,1.152s0.701,0.5,1.164,0.636c0.465,0.136,1.104,0.276,1.92,0.42
			c1.008,0.192,1.814,0.384,2.424,0.576c0.609,0.191,1.129,0.52,1.561,0.983c0.434,0.465,0.648,1.104,0.648,1.92
			c0,1.104-0.461,1.98-1.381,2.629c-0.92,0.647-2.195,0.972-3.828,0.972C399.266,169.071,398.286,168.923,397.35,168.626z"/>
		<path d="M407.911,168.687c-0.248-0.256-0.371-0.568-0.371-0.937s0.123-0.676,0.371-0.924s0.547-0.372,0.898-0.372
			c0.354,0,0.656,0.124,0.912,0.372s0.385,0.556,0.385,0.924s-0.129,0.681-0.385,0.937s-0.561,0.384-0.912,0.384
			S408.159,168.943,407.911,168.687z"/>
	</g>
</g>
</svg>
