<?xml version="1.0" encoding="utf-8"?>
<!-- Generator: Adobe Illustrator 16.0.0, SVG Export Plug-In . SVG Version: 6.00 Build 0)  -->
<!DOCTYPE svg PUBLIC "-//W3C//DTD SVG 1.1//EN" "http://www.w3.org/Graphics/SVG/1.1/DTD/svg11.dtd">
<svg version="1.1" id="图层_1" xmlns="http://www.w3.org/2000/svg" xmlns:xlink="http://www.w3.org/1999/xlink" x="0px" y="0px"
	 width="3434.36px" height="1008.101px" viewBox="0 0 3434.36 1008.101" enable-background="new 0 0 3434.36 1008.101"
	 xml:space="preserve">
<g id="图层_2">
	<g>
		<path fill="none" stroke="#9E9E9F" stroke-width="40" stroke-miterlimit="10" d="M3401.528,391.426
			c0,124.725-102.049,226.771-226.771,226.771H268.776c-124.725,0-226.772-102.047-226.772-226.771v-122.65
			c0-124.724,102.047-226.771,226.772-226.771h2905.979c124.725,0,226.771,102.047,226.771,226.771v122.65H3401.528z"/>
	</g>
	<rect x="162.016" y="249.025" fill="#FFFFFF" width="3121.24" height="759.076"/>
</g>
<circle fill="#FF8D3B" stroke="#B4B4B5" stroke-width="30" stroke-miterlimit="10" cx="552.861" cy="628.828" r="345"/>
<g>
	<path fill="#FFFFFF" d="M317.963,661.297v10.9h-52.5v-70h51.101v10.899h-38.101v18.199h33.8v10.7h-33.8v19.3L317.963,661.297
		L317.963,661.297z"/>
	<path fill="#FFFFFF" d="M364.264,672.197l-13.699-18.5l-13.801,18.5h-13.8l20.8-27.101l-19.899-26.301h13.899l13.101,17.5
		l13.1-17.5h13.5l-20,26.102l20.9,27.3H364.264z"/>
	<path fill="#FFFFFF" d="M431.114,621.598c4.1,2.268,7.314,5.468,9.649,9.601c2.333,4.135,3.5,8.899,3.5,14.3
		s-1.167,10.185-3.5,14.351c-2.334,4.167-5.55,7.385-9.649,9.649c-4.101,2.268-8.75,3.4-13.95,3.4c-7.2,0-12.9-2.4-17.1-7.2v25.899
		h-12.5v-72.801h11.899v7c2.065-2.532,4.616-4.433,7.65-5.699c3.032-1.266,6.383-1.899,10.05-1.899
		C422.364,618.197,427.014,619.332,431.114,621.598z M427.114,657.598c2.966-3.065,4.45-7.101,4.45-12.101s-1.484-9.032-4.45-12.1
		c-2.967-3.065-6.75-4.602-11.351-4.602c-3,0-5.699,0.686-8.1,2.051c-2.4,1.367-4.3,3.316-5.7,5.851c-1.399,2.534-2.1,5.467-2.1,8.8
		c0,3.335,0.7,6.268,2.1,8.8c1.4,2.535,3.3,4.484,5.7,5.852c2.4,1.366,5.1,2.05,8.1,2.05
		C420.364,662.197,424.146,660.664,427.114,657.598z"/>
	<path fill="#FFFFFF" d="M456.163,597.997h12.5v74.2h-12.5V597.997z"/>
	<path fill="#FFFFFF" d="M494.461,669.396c-4.334-2.332-7.717-5.582-10.15-9.75c-2.435-4.166-3.649-8.883-3.649-14.149
		s1.216-9.966,3.649-14.101c2.434-4.133,5.815-7.365,10.15-9.699c4.333-2.333,9.2-3.5,14.6-3.5c5.466,0,10.365,1.167,14.7,3.5
		c4.333,2.334,7.716,5.566,10.15,9.699c2.433,4.135,3.649,8.834,3.649,14.101c0,5.268-1.217,9.983-3.649,14.149
		c-2.435,4.168-5.817,7.418-10.15,9.75c-4.334,2.334-9.233,3.5-14.7,3.5C503.661,672.896,498.794,671.731,494.461,669.396z
		 M520.461,657.598c3-3.065,4.5-7.101,4.5-12.101s-1.5-9.032-4.5-12.1c-3-3.065-6.8-4.602-11.4-4.602
		c-4.6,0-8.385,1.535-11.35,4.602c-2.967,3.066-4.45,7.1-4.45,12.1s1.483,9.034,4.45,12.101c2.965,3.066,6.75,4.601,11.35,4.601
		C513.661,662.197,517.461,660.664,520.461,657.598z"/>
	<path fill="#FFFFFF" d="M580.46,618.197v11.899c-1.067-0.199-2.035-0.301-2.9-0.301c-4.866,0-8.667,1.418-11.399,4.25
		c-2.734,2.835-4.101,6.918-4.101,12.25v25.9h-12.5v-53.4h11.9v7.801C565.061,620.997,571.393,618.197,580.46,618.197z"/>
	<path fill="#FFFFFF" d="M629.211,623.848c4.166,3.768,6.25,9.449,6.25,17.051v31.3h-11.8v-6.5c-1.535,2.334-3.717,4.117-6.55,5.35
		c-2.834,1.233-6.25,1.852-10.25,1.852s-7.5-0.686-10.5-2.051s-5.317-3.266-6.95-5.699c-1.634-2.434-2.45-5.184-2.45-8.25
		c0-4.801,1.783-8.65,5.35-11.551c3.565-2.899,9.184-4.351,16.851-4.351h13.8v-0.8c0-3.732-1.117-6.601-3.35-8.601
		c-2.234-2-5.551-3-9.95-3c-3,0-5.95,0.468-8.851,1.399c-2.899,0.935-5.35,2.234-7.35,3.9l-4.9-9.102
		c2.801-2.133,6.166-3.766,10.101-4.898c3.933-1.134,8.1-1.7,12.5-1.7C619.027,618.197,625.044,620.082,629.211,623.848z
		 M617.811,661.646c2.434-1.433,4.15-3.482,5.15-6.149v-6.2h-12.9c-7.199,0-10.8,2.367-10.8,7.102c0,2.267,0.9,4.066,2.7,5.398
		c1.8,1.335,4.3,2,7.5,2C612.594,663.797,615.376,663.082,617.811,661.646z"/>
	<path fill="#FFFFFF" d="M683.56,669.297c-1.467,1.2-3.25,2.102-5.35,2.7c-2.1,0.601-4.317,0.9-6.65,0.9
		c-5.866,0-10.399-1.533-13.6-4.602c-3.2-3.064-4.8-7.532-4.8-13.398v-25.7h-8.8v-10h8.8v-12.2h12.5v12.2h14.3v10h-14.3v25.399
		c0,2.601,0.633,4.584,1.9,5.949c1.266,1.367,3.1,2.051,5.5,2.051c2.8,0,5.133-0.732,7-2.199L683.56,669.297z"/>
	<path fill="#FFFFFF" d="M701.46,669.396c-4.334-2.332-7.717-5.582-10.15-9.75c-2.435-4.166-3.649-8.883-3.649-14.149
		s1.216-9.966,3.649-14.101c2.434-4.133,5.815-7.365,10.15-9.699c4.333-2.333,9.2-3.5,14.6-3.5c5.466,0,10.365,1.167,14.7,3.5
		c4.333,2.334,7.716,5.566,10.15,9.699c2.433,4.135,3.65,8.834,3.65,14.101c0,5.268-1.218,9.983-3.65,14.149
		c-2.435,4.168-5.817,7.418-10.15,9.75c-4.334,2.334-9.233,3.5-14.7,3.5C710.66,672.896,705.793,671.731,701.46,669.396z
		 M727.46,657.598c3-3.065,4.5-7.101,4.5-12.101s-1.5-9.032-4.5-12.1c-3-3.065-6.8-4.602-11.4-4.602c-4.6,0-8.385,1.535-11.35,4.602
		c-2.967,3.066-4.45,7.1-4.45,12.1s1.483,9.034,4.45,12.101c2.965,3.066,6.75,4.601,11.35,4.601
		C720.66,662.197,724.46,660.664,727.46,657.598z"/>
	<path fill="#FFFFFF" d="M787.459,618.197v11.899c-1.067-0.199-2.035-0.301-2.9-0.301c-4.866,0-8.667,1.418-11.399,4.25
		c-2.734,2.835-4.101,6.918-4.101,12.25v25.9h-12.5v-53.4h11.9v7.801C772.06,620.997,778.392,618.197,787.459,618.197z"/>
	<path fill="#FFFFFF" d="M850.06,618.797l-25,57.7c-2.334,5.8-5.167,9.883-8.5,12.25c-3.334,2.366-7.366,3.55-12.1,3.55
		c-2.667,0-5.3-0.434-7.9-1.3c-2.6-0.867-4.732-2.067-6.399-3.6l5-9.2c1.2,1.133,2.616,2.033,4.25,2.7c1.633,0.665,3.283,1,4.95,1
		c2.199,0,4.016-0.567,5.449-1.7c1.434-1.135,2.75-3.034,3.95-5.7l0.9-2.1l-23.3-53.602h13l16.8,39.5l16.9-39.5L850.06,618.797
		L850.06,618.797z"/>
</g>
<circle fill="#3BB0FF" stroke="#B4B4B5" stroke-width="30" stroke-miterlimit="10" cx="1710.65" cy="629.828" r="345"/>
<g>
	<path fill="#FFFFFF" d="M1486.704,636.396h12.3v27.899c-3.6,2.867-7.8,5.067-12.6,6.601c-4.801,1.532-9.734,2.301-14.801,2.301
		c-7.134,0-13.566-1.551-19.3-4.65s-10.233-7.383-13.5-12.85s-4.899-11.633-4.899-18.5c0-6.865,1.633-13.033,4.899-18.5
		s7.783-9.75,13.55-12.851s12.25-4.649,19.45-4.649c5.866,0,11.2,0.967,16,2.899c4.8,1.935,8.833,4.768,12.101,8.5l-8.2,8
		c-5.334-5.333-11.769-8-19.3-8c-4.935,0-9.317,1.034-13.15,3.101c-3.834,2.066-6.834,4.967-9,8.699
		c-2.167,3.734-3.25,8-3.25,12.801c0,4.667,1.083,8.867,3.25,12.6c2.166,3.734,5.166,6.668,9,8.801
		c3.833,2.135,8.183,3.199,13.05,3.199c5.466,0,10.267-1.199,14.4-3.6V636.396z"/>
	<path fill="#FFFFFF" d="M1564.902,649.497h-41.9c0.733,3.935,2.65,7.05,5.75,9.351s6.95,3.449,11.55,3.449
		c5.866,0,10.7-1.933,14.5-5.8l6.7,7.7c-2.4,2.867-5.434,5.034-9.1,6.5c-3.667,1.467-7.801,2.2-12.4,2.2
		c-5.867,0-11.034-1.166-15.5-3.5c-4.467-2.333-7.917-5.583-10.35-9.75c-2.436-4.166-3.65-8.884-3.65-14.15
		c0-5.2,1.183-9.883,3.55-14.05c2.366-4.166,5.65-7.416,9.851-9.75c4.199-2.333,8.933-3.5,14.199-3.5c5.2,0,9.851,1.149,13.95,3.45
		c4.101,2.3,7.3,5.533,9.601,9.699c2.3,4.167,3.449,8.984,3.449,14.449C1565.102,646.664,1565.035,647.896,1564.902,649.497z
		 M1527.952,631.747c-2.767,2.367-4.45,5.518-5.05,9.45h30.3c-0.534-3.865-2.167-7-4.9-9.4c-2.733-2.398-6.134-3.6-10.2-3.6
		C1534.102,628.197,1530.718,629.382,1527.952,631.747z"/>
	<path fill="#FFFFFF" d="M1623.602,624.098c4.065,3.935,6.101,9.768,6.101,17.5v30.601h-12.5v-29c0-4.666-1.101-8.184-3.3-10.55
		c-2.2-2.366-5.334-3.551-9.4-3.551c-4.6,0-8.234,1.385-10.9,4.149c-2.667,2.768-4,6.75-4,11.95v27h-12.5v-53.4h11.9v6.9
		c2.064-2.466,4.666-4.333,7.8-5.601c3.134-1.266,6.666-1.899,10.601-1.899C1614.134,618.197,1619.534,620.164,1623.602,624.098z"/>
	<path fill="#FFFFFF" d="M1696.1,649.497H1654.2c0.732,3.935,2.649,7.05,5.75,9.351c3.1,2.301,6.95,3.449,11.55,3.449
		c5.866,0,10.7-1.933,14.5-5.8l6.7,7.7c-2.4,2.867-5.435,5.034-9.101,6.5c-3.667,1.467-7.8,2.2-12.399,2.2
		c-5.867,0-11.034-1.166-15.5-3.5c-4.468-2.333-7.917-5.583-10.351-9.75c-2.435-4.166-3.649-8.884-3.649-14.15
		c0-5.2,1.183-9.883,3.55-14.05c2.366-4.166,5.65-7.416,9.85-9.75c4.2-2.333,8.934-3.5,14.2-3.5c5.2,0,9.851,1.149,13.95,3.45
		c4.1,2.3,7.3,5.533,9.6,9.699c2.301,4.167,3.45,8.984,3.45,14.449C1696.3,646.664,1696.233,647.896,1696.1,649.497z
		 M1659.15,631.747c-2.768,2.367-4.45,5.518-5.051,9.45h30.301c-0.534-3.865-2.167-7-4.9-9.4c-2.734-2.398-6.134-3.6-10.2-3.6
		C1665.3,628.197,1661.916,629.382,1659.15,631.747z"/>
	<path fill="#FFFFFF" d="M1739.2,618.197v11.899c-1.068-0.199-2.035-0.301-2.9-0.301c-4.867,0-8.668,1.418-11.4,4.25
		c-2.734,2.835-4.1,6.918-4.1,12.25v25.9h-12.5v-53.4h11.901v7.801C1723.799,620.997,1730.131,618.197,1739.2,618.197z"/>
	<path fill="#FFFFFF" d="M1787.95,623.848c4.166,3.768,6.25,9.449,6.25,17.051v31.3h-11.801v-6.5
		c-1.535,2.334-3.717,4.117-6.551,5.35c-2.834,1.233-6.25,1.852-10.25,1.852s-7.5-0.686-10.5-2.051s-5.316-3.266-6.949-5.699
		c-1.635-2.434-2.449-5.184-2.449-8.25c0-4.801,1.783-8.65,5.35-11.551c3.564-2.899,9.184-4.351,16.85-4.351h13.801v-0.8
		c0-3.732-1.117-6.601-3.352-8.601c-2.232-2-5.549-3-9.949-3c-3,0-5.949,0.468-8.85,1.399c-2.9,0.935-5.35,2.234-7.35,3.9
		l-4.9-9.102c2.801-2.133,6.166-3.766,10.1-4.898c3.934-1.134,8.1-1.7,12.5-1.7C1777.764,618.197,1783.782,620.082,1787.95,623.848z
		 M1776.549,661.646c2.434-1.433,4.15-3.482,5.15-6.149v-6.2h-12.9c-7.201,0-10.801,2.367-10.801,7.102
		c0,2.267,0.9,4.066,2.701,5.398c1.799,1.335,4.299,2,7.5,2C1771.333,663.797,1774.116,663.082,1776.549,661.646z"/>
	<path fill="#FFFFFF" d="M1842.297,669.297c-1.467,1.2-3.25,2.102-5.35,2.7c-2.1,0.601-4.316,0.9-6.65,0.9
		c-5.867,0-10.398-1.533-13.6-4.602c-3.199-3.064-4.799-7.532-4.799-13.398v-25.7h-8.801v-10h8.801v-12.2h12.5v12.2h14.299v10
		h-14.299v25.399c0,2.601,0.633,4.584,1.898,5.949c1.266,1.367,3.102,2.051,5.5,2.051c2.801,0,5.133-0.732,7-2.199L1842.297,669.297
		z"/>
	<path fill="#FFFFFF" d="M1853.198,607.848c-1.535-1.434-2.301-3.216-2.301-5.351c0-2.133,0.766-3.915,2.301-5.35
		c1.533-1.434,3.434-2.15,5.699-2.15s4.166,0.685,5.701,2.05c1.531,1.367,2.299,3.085,2.299,5.15c0,2.2-0.75,4.05-2.25,5.55
		s-3.416,2.25-5.75,2.25C1856.631,609.997,1854.731,609.281,1853.198,607.848z M1852.598,618.797h12.5v53.4h-12.5V618.797z"/>
	<path fill="#FFFFFF" d="M1931.497,618.797l-22.9,53.4h-12.898l-22.9-53.4h13l16.6,39.602l17.102-39.602H1931.497z"/>
	<path fill="#FFFFFF" d="M1987.795,649.497h-41.898c0.73,3.935,2.648,7.05,5.75,9.351c3.1,2.301,6.947,3.449,11.549,3.449
		c5.867,0,10.701-1.933,14.5-5.8l6.701,7.7c-2.4,2.867-5.436,5.034-9.102,6.5c-3.668,1.467-7.801,2.2-12.398,2.2
		c-5.867,0-11.035-1.166-15.5-3.5c-4.469-2.333-7.918-5.583-10.352-9.75c-2.436-4.166-3.648-8.884-3.648-14.15
		c0-5.2,1.182-9.883,3.549-14.05c2.367-4.166,5.648-7.416,9.852-9.75c4.199-2.333,8.932-3.5,14.199-3.5
		c5.199,0,9.85,1.149,13.949,3.45c4.1,2.3,7.301,5.533,9.602,9.699c2.299,4.167,3.449,8.984,3.449,14.449
		C1987.995,646.664,1987.928,647.896,1987.795,649.497z M1950.844,631.747c-2.766,2.367-4.447,5.518-5.049,9.45h30.299
		c-0.531-3.865-2.166-7-4.898-9.4c-2.734-2.398-6.135-3.6-10.199-3.6C1956.995,628.197,1953.61,629.382,1950.844,631.747z"/>
</g>
<circle fill="#FF47A8" stroke="#B4B4B5" stroke-width="30" stroke-miterlimit="10" cx="2898.471" cy="629.828" r="345"/>
<g>
	<path fill="#FFFFFF" d="M2695.075,661.297v10.9h-52.5v-70h51.1v10.899h-38.1v18.199h33.801v10.7h-33.801v19.3L2695.075,661.297
		L2695.075,661.297z"/>
	<path fill="#FFFFFF" d="M2757.676,618.797l-22.898,53.4h-12.9l-22.9-53.4h13l16.602,39.602l17.102-39.602H2757.676z"/>
	<path fill="#FFFFFF" d="M2802.227,623.848c4.164,3.768,6.25,9.449,6.25,17.051v31.3h-11.803v-6.5
		c-1.533,2.334-3.717,4.117-6.549,5.35c-2.834,1.233-6.25,1.852-10.25,1.852s-7.5-0.686-10.5-2.051s-5.316-3.266-6.951-5.699
		c-1.633-2.434-2.447-5.184-2.447-8.25c0-4.801,1.781-8.65,5.35-11.551c3.564-2.899,9.184-4.351,16.85-4.351h13.801v-0.8
		c0-3.732-1.117-6.601-3.352-8.601c-2.232-2-5.549-3-9.949-3c-3,0-5.949,0.468-8.85,1.399c-2.9,0.935-5.35,2.234-7.35,3.9
		l-4.9-9.102c2.799-2.133,6.166-3.766,10.1-4.898c3.934-1.134,8.102-1.7,12.5-1.7
		C2792.042,618.197,2798.059,620.082,2802.227,623.848z M2790.825,661.646c2.434-1.433,4.15-3.482,5.15-6.149v-6.2h-12.9
		c-7.199,0-10.799,2.367-10.799,7.102c0,2.267,0.898,4.066,2.699,5.398c1.801,1.335,4.301,2,7.5,2
		C2785.608,663.797,2788.391,663.082,2790.825,661.646z"/>
	<path fill="#FFFFFF" d="M2824.475,597.997h12.5v74.2h-12.5V597.997z"/>
	<path fill="#FFFFFF" d="M2905.073,618.797v53.4h-11.9v-6.8c-2,2.398-4.5,4.25-7.5,5.55s-6.232,1.95-9.699,1.95
		c-7.135,0-12.75-1.983-16.85-5.95c-4.102-3.966-6.15-9.851-6.15-17.65v-30.5h12.5v28.801c0,4.801,1.084,8.385,3.25,10.75
		c2.166,2.367,5.25,3.551,9.25,3.551c4.467,0,8.016-1.384,10.65-4.15c2.633-2.766,3.949-6.75,3.949-11.95v-27L2905.073,618.797
		L2905.073,618.797z"/>
	<path fill="#FFFFFF" d="M2959.922,623.848c4.166,3.768,6.25,9.449,6.25,17.051v31.3h-11.801v-6.5
		c-1.533,2.334-3.717,4.117-6.549,5.35c-2.834,1.233-6.25,1.852-10.25,1.852s-7.5-0.686-10.5-2.051s-5.318-3.266-6.951-5.699
		s-2.449-5.184-2.449-8.25c0-4.801,1.783-8.65,5.352-11.551c3.564-2.899,9.182-4.351,16.85-4.351h13.801v-0.8
		c0-3.732-1.117-6.601-3.352-8.601c-2.232-2-5.549-3-9.949-3c-3,0-5.949,0.468-8.85,1.399c-2.9,0.935-5.352,2.234-7.352,3.9
		l-4.898-9.102c2.799-2.133,6.166-3.766,10.1-4.898c3.934-1.134,8.102-1.7,12.5-1.7
		C2949.739,618.197,2955.754,620.082,2959.922,623.848z M2948.522,661.646c2.434-1.433,4.15-3.482,5.15-6.149v-6.2h-12.9
		c-7.199,0-10.801,2.367-10.801,7.102c0,2.267,0.9,4.066,2.701,5.398c1.799,1.335,4.299,2,7.5,2
		C2943.305,663.797,2946.088,663.082,2948.522,661.646z"/>
	<path fill="#FFFFFF" d="M3014.272,669.297c-1.467,1.2-3.25,2.102-5.35,2.7c-2.1,0.601-4.316,0.9-6.65,0.9
		c-5.867,0-10.4-1.533-13.6-4.602c-3.201-3.064-4.801-7.532-4.801-13.398v-25.7h-8.799v-10h8.799v-12.2h12.5v12.2h14.301v10h-14.301
		v25.399c0,2.601,0.633,4.584,1.898,5.949c1.268,1.367,3.102,2.051,5.5,2.051c2.803,0,5.135-0.732,7-2.199L3014.272,669.297z"/>
	<path fill="#FFFFFF" d="M3025.172,607.848c-1.533-1.434-2.301-3.216-2.301-5.351c0-2.133,0.768-3.915,2.301-5.35
		c1.533-1.434,3.434-2.15,5.699-2.15c2.268,0,4.166,0.685,5.701,2.05c1.531,1.367,2.299,3.085,2.299,5.15c0,2.2-0.75,4.05-2.25,5.55
		s-3.416,2.25-5.75,2.25C3028.604,609.997,3026.706,609.281,3025.172,607.848z M3024.573,618.797h12.5v53.4h-12.5V618.797z"/>
	<path fill="#FFFFFF" d="M3103.471,618.797l-22.9,53.4h-12.898l-22.9-53.4h13l16.6,39.602l17.102-39.602H3103.471z"/>
	<path fill="#FFFFFF" d="M3159.77,649.497h-41.9c0.734,3.935,2.65,7.05,5.75,9.351c3.102,2.301,6.951,3.449,11.551,3.449
		c5.865,0,10.699-1.933,14.5-5.8l6.699,7.7c-2.398,2.867-5.434,5.034-9.1,6.5c-3.666,1.467-7.801,2.2-12.4,2.2
		c-5.867,0-11.033-1.166-15.5-3.5c-4.467-2.333-7.916-5.583-10.35-9.75c-2.436-4.166-3.65-8.884-3.65-14.15
		c0-5.2,1.184-9.883,3.551-14.05c2.365-4.166,5.65-7.416,9.852-9.75c4.199-2.333,8.932-3.5,14.199-3.5
		c5.199,0,9.85,1.149,13.949,3.45c4.102,2.3,7.301,5.533,9.602,9.699c2.299,4.167,3.449,8.984,3.449,14.449
		C3159.969,646.664,3159.903,647.896,3159.77,649.497z M3122.819,631.747c-2.768,2.367-4.449,5.518-5.049,9.45h30.299
		c-0.533-3.865-2.166-7-4.9-9.4c-2.732-2.398-6.133-3.6-10.197-3.6C3128.969,628.197,3125.584,629.382,3122.819,631.747z"/>
</g>
<g>
	<g>
		
			<line fill="none" stroke="#9E9E9F" stroke-width="40" stroke-miterlimit="10" x1="939.994" y1="613.828" x2="1264.757" y2="613.828"/>
		<g>
			<polygon fill="#9E9E9F" points="1185.085,681.641 1252.938,613.828 1185.085,546.016 1242.663,546.016 1310.476,613.828 
				1242.663,681.641 			"/>
		</g>
	</g>
</g>
<g>
	<g>
		
			<line fill="none" stroke="#9E9E9F" stroke-width="40" stroke-miterlimit="10" x1="2124.301" y1="613.828" x2="2449.065" y2="613.828"/>
		<g>
			<polygon fill="#9E9E9F" points="2369.393,681.641 2437.245,613.828 2369.393,546.016 2426.971,546.016 2494.784,613.828 
				2426.971,681.641 			"/>
		</g>
	</g>
</g>
<g>
	<path fill="none" stroke="#9E9E9F" stroke-width="40" stroke-miterlimit="10" d="M183.019,610.828"/>
</g>
</svg>
