<?xml version="1.0" encoding="utf-8"?>
<!-- Generator: Adobe Illustrator 16.0.0, SVG Export Plug-In . SVG Version: 6.00 Build 0)  -->
<!DOCTYPE svg PUBLIC "-//W3C//DTD SVG 1.1//EN" "http://www.w3.org/Graphics/SVG/1.1/DTD/svg11.dtd">
<svg version="1.1" id="图层_1" xmlns="http://www.w3.org/2000/svg" xmlns:xlink="http://www.w3.org/1999/xlink" x="0px" y="0px"
	 width="141.73px" height="141.73px" viewBox="0 0 141.73 141.73" enable-background="new 0 0 141.73 141.73" xml:space="preserve">
<circle fill="none" stroke="#69CE28" stroke-width="20" stroke-linecap="round" stroke-miterlimit="10" cx="70.865" cy="71.121" r="59.625"/>
<g>
	<path fill="#69CE28" d="M41.015,48.825v21h-3.9v-17.73h-4.44v-3.27H41.015z"/>
	<path fill="#69CE28" d="M49.445,68.849c-1.32-0.851-2.36-2.091-3.12-3.721s-1.14-3.564-1.14-5.806c0-2.239,0.38-4.174,1.14-5.805
		s1.8-2.87,3.12-3.721c1.32-0.85,2.82-1.274,4.5-1.274s3.185,0.425,4.515,1.274c1.33,0.851,2.375,2.09,3.136,3.721
		c0.76,1.63,1.141,3.564,1.141,5.805s-0.381,4.176-1.141,5.806c-0.761,1.63-1.806,2.87-3.136,3.721
		c-1.331,0.851-2.835,1.274-4.515,1.274C52.265,70.125,50.765,69.7,49.445,68.849z M57.5,64.875c0.87-1.24,1.306-3.09,1.306-5.551
		c0-2.459-0.436-4.309-1.306-5.549s-2.055-1.86-3.555-1.86c-1.48,0-2.655,0.62-3.525,1.86s-1.305,3.09-1.305,5.549
		c0,2.461,0.435,4.311,1.305,5.551s2.044,1.859,3.525,1.859C55.445,66.734,56.63,66.115,57.5,64.875z"/>
	<path fill="#69CE28" d="M69.635,68.849c-1.319-0.851-2.359-2.091-3.119-3.721c-0.762-1.63-1.141-3.564-1.141-5.806
		c0-2.239,0.379-4.174,1.141-5.805c0.76-1.631,1.8-2.87,3.119-3.721c1.32-0.85,2.82-1.274,4.5-1.274
		c1.681,0,3.187,0.425,4.517,1.274c1.33,0.851,2.375,2.09,3.135,3.721c0.76,1.63,1.141,3.564,1.141,5.805s-0.381,4.176-1.141,5.806
		s-1.805,2.87-3.135,3.721s-2.836,1.274-4.517,1.274C72.455,70.124,70.955,69.7,69.635,68.849z M77.689,64.875
		c0.871-1.24,1.307-3.09,1.307-5.551c0-2.459-0.436-4.309-1.307-5.549c-0.869-1.24-2.056-1.86-3.556-1.86
		c-1.479,0-2.654,0.62-3.524,1.86s-1.305,3.09-1.305,5.549c0,2.461,0.435,4.311,1.305,5.551s2.044,1.859,3.524,1.859
		C75.635,66.734,76.82,66.115,77.689,64.875z"/>
	<path fill="#69CE28" d="M86.615,58.545c-0.92-1.06-1.381-2.45-1.381-4.17s0.461-3.108,1.381-4.17c0.92-1.06,2.129-1.59,3.629-1.59
		s2.715,0.525,3.646,1.575c0.932,1.05,1.396,2.444,1.396,4.185s-0.465,3.135-1.396,4.186c-0.931,1.05-2.146,1.574-3.646,1.574
		S87.535,59.605,86.615,58.545z M92.15,57.075c0.449-0.64,0.674-1.54,0.674-2.7s-0.225-2.06-0.674-2.7
		c-0.451-0.64-1.086-0.96-1.906-0.96c-0.779,0-1.404,0.325-1.875,0.976c-0.469,0.649-0.705,1.545-0.705,2.685
		c0,1.141,0.236,2.036,0.705,2.686c0.471,0.649,1.096,0.975,1.875,0.975C91.064,58.034,91.699,57.715,92.15,57.075z M102.844,48.825
		h2.94l-14.34,21h-2.941L102.844,48.825z M100.385,68.445c-0.92-1.062-1.381-2.45-1.381-4.17c0-1.722,0.461-3.11,1.381-4.171
		c0.921-1.061,2.13-1.591,3.63-1.591s2.717,0.53,3.646,1.591c0.93,1.061,1.396,2.449,1.396,4.171c0,1.72-0.466,3.108-1.396,4.17
		c-0.93,1.06-2.146,1.59-3.646,1.59S101.304,69.505,100.385,68.445z M105.904,66.959c0.461-0.647,0.688-1.545,0.688-2.684
		c0-1.142-0.229-2.035-0.688-2.687c-0.46-0.65-1.09-0.975-1.891-0.975c-0.8,0-1.431,0.32-1.89,0.959
		c-0.461,0.641-0.688,1.541-0.688,2.701s0.229,2.06,0.688,2.699c0.459,0.641,1.09,0.96,1.89,0.96
		C104.814,67.934,105.443,67.609,105.904,66.959z"/>
</g>
<g>
	<path fill="#69CE28" d="M30.566,92.347c-0.906-0.275-1.623-0.642-2.151-1.098l0.81-1.818c0.516,0.408,1.149,0.741,1.899,0.999
		c0.75,0.259,1.503,0.388,2.259,0.388c0.936,0,1.635-0.15,2.097-0.45s0.693-0.696,0.693-1.188c0-0.359-0.129-0.656-0.387-0.891
		c-0.258-0.234-0.585-0.417-0.981-0.549s-0.936-0.282-1.62-0.45c-0.96-0.228-1.737-0.456-2.331-0.684
		c-0.594-0.229-1.104-0.585-1.53-1.071c-0.426-0.486-0.639-1.144-0.639-1.971c0-0.696,0.189-1.329,0.567-1.899
		c0.378-0.569,0.948-1.022,1.71-1.359c0.762-0.335,1.695-0.504,2.799-0.504c0.768,0,1.524,0.097,2.268,0.288
		c0.744,0.192,1.386,0.468,1.926,0.828l-0.738,1.818c-0.552-0.324-1.128-0.57-1.728-0.738c-0.6-0.168-1.182-0.252-1.746-0.252
		c-0.924,0-1.611,0.156-2.061,0.468c-0.45,0.313-0.675,0.727-0.675,1.242c0,0.36,0.128,0.654,0.387,0.882
		c0.258,0.229,0.585,0.408,0.981,0.54s0.936,0.282,1.62,0.45c0.936,0.216,1.704,0.44,2.304,0.675c0.6,0.234,1.113,0.591,1.539,1.071
		c0.426,0.479,0.639,1.128,0.639,1.943c0,0.696-0.189,1.326-0.567,1.891s-0.951,1.014-1.719,1.35s-1.704,0.504-2.808,0.504
		C32.411,92.761,31.472,92.624,30.566,92.347z"/>
	<path fill="#69CE28" d="M42.149,91.295c-0.972-0.978-1.458-2.379-1.458-4.203v-7.109h2.34v7.02c0,2.473,1.068,3.708,3.204,3.708
		c2.124,0,3.186-1.235,3.186-3.708v-7.02h2.304v7.109c0,1.824-0.483,3.226-1.449,4.203c-0.966,0.979-2.319,1.467-4.059,1.467
		S43.121,92.273,42.149,91.295z"/>
	<path fill="#69CE28" d="M57.386,91.925c-1.026-0.558-1.83-1.329-2.412-2.313c-0.582-0.984-0.873-2.094-0.873-3.33
		s0.294-2.346,0.882-3.33s1.395-1.755,2.421-2.313c1.026-0.558,2.175-0.837,3.447-0.837c1.032,0,1.974,0.181,2.826,0.54
		c0.852,0.36,1.571,0.882,2.16,1.566l-1.513,1.422c-0.912-0.983-2.033-1.476-3.366-1.476c-0.864,0-1.638,0.188-2.322,0.566
		s-1.218,0.903-1.602,1.575c-0.384,0.672-0.576,1.434-0.576,2.286c0,0.852,0.192,1.614,0.576,2.286
		c0.384,0.672,0.918,1.196,1.602,1.574c0.684,0.379,1.458,0.567,2.322,0.567c1.333,0,2.454-0.498,3.366-1.494l1.513,1.44
		c-0.589,0.684-1.312,1.206-2.169,1.565c-0.858,0.36-1.804,0.54-2.835,0.54C59.561,92.761,58.412,92.483,57.386,91.925z"/>
	<path fill="#69CE28" d="M70.202,91.925c-1.026-0.558-1.83-1.329-2.412-2.313c-0.582-0.984-0.873-2.094-0.873-3.33
		s0.294-2.346,0.882-3.33s1.396-1.755,2.421-2.313c1.026-0.558,2.174-0.837,3.448-0.837c1.031,0,1.973,0.181,2.826,0.54
		c0.852,0.36,1.57,0.882,2.16,1.566L77.14,83.33c-0.912-0.983-2.033-1.476-3.365-1.476c-0.863,0-1.639,0.188-2.322,0.566
		c-0.684,0.378-1.217,0.903-1.602,1.575c-0.384,0.672-0.575,1.434-0.575,2.286c0,0.852,0.191,1.614,0.575,2.286
		c0.385,0.672,0.918,1.196,1.602,1.574c0.684,0.379,1.459,0.567,2.322,0.567c1.332,0,2.453-0.498,3.365-1.494l1.514,1.44
		c-0.59,0.684-1.313,1.206-2.17,1.565c-0.857,0.36-1.803,0.54-2.834,0.54C72.377,92.761,71.228,92.483,70.202,91.925z"/>
	<path fill="#69CE28" d="M90.353,90.62v1.962h-9.449v-12.6h9.197v1.962h-6.857v3.275h6.084v1.927h-6.084v3.474H90.353z"/>
	<path fill="#69CE28" d="M94.052,92.347c-0.906-0.275-1.623-0.642-2.152-1.098l0.811-1.818c0.516,0.408,1.148,0.741,1.898,0.999
		c0.75,0.259,1.504,0.388,2.26,0.388c0.936,0,1.635-0.15,2.098-0.45c0.461-0.3,0.691-0.696,0.691-1.188
		c0-0.359-0.129-0.656-0.387-0.891s-0.584-0.417-0.98-0.549s-0.936-0.282-1.619-0.45c-0.961-0.228-1.738-0.456-2.332-0.684
		c-0.594-0.229-1.104-0.585-1.529-1.071s-0.639-1.144-0.639-1.971c0-0.696,0.188-1.329,0.566-1.899
		c0.377-0.569,0.947-1.022,1.709-1.359c0.762-0.335,1.695-0.504,2.799-0.504c0.77,0,1.525,0.097,2.27,0.288
		c0.744,0.192,1.385,0.468,1.926,0.828l-0.738,1.818c-0.553-0.324-1.129-0.57-1.729-0.738s-1.182-0.252-1.746-0.252
		c-0.924,0-1.611,0.156-2.061,0.468c-0.449,0.313-0.676,0.727-0.676,1.242c0,0.36,0.129,0.654,0.389,0.882
		c0.258,0.229,0.584,0.408,0.98,0.54s0.936,0.282,1.619,0.45c0.938,0.216,1.705,0.44,2.305,0.675s1.113,0.591,1.539,1.071
		c0.426,0.479,0.639,1.128,0.639,1.943c0,0.696-0.189,1.326-0.566,1.891c-0.379,0.564-0.951,1.014-1.719,1.35
		c-0.77,0.336-1.705,0.504-2.809,0.504C95.896,92.761,94.957,92.624,94.052,92.347z"/>
	<path fill="#69CE28" d="M105.375,92.347c-0.906-0.275-1.623-0.642-2.152-1.098l0.811-1.818c0.516,0.408,1.148,0.741,1.898,0.999
		c0.75,0.259,1.504,0.388,2.26,0.388c0.936,0,1.635-0.15,2.098-0.45c0.461-0.3,0.691-0.696,0.691-1.188
		c0-0.359-0.129-0.656-0.387-0.891s-0.584-0.417-0.98-0.549s-0.936-0.282-1.619-0.45c-0.961-0.228-1.738-0.456-2.332-0.684
		c-0.594-0.229-1.104-0.585-1.529-1.071s-0.639-1.144-0.639-1.971c0-0.696,0.188-1.329,0.566-1.899
		c0.377-0.569,0.947-1.022,1.709-1.359c0.762-0.335,1.695-0.504,2.799-0.504c0.77,0,1.525,0.097,2.27,0.288
		c0.744,0.192,1.385,0.468,1.926,0.828l-0.738,1.818c-0.553-0.324-1.129-0.57-1.729-0.738s-1.182-0.252-1.746-0.252
		c-0.924,0-1.611,0.156-2.061,0.468c-0.449,0.313-0.676,0.727-0.676,1.242c0,0.36,0.129,0.654,0.389,0.882
		c0.258,0.229,0.584,0.408,0.98,0.54s0.936,0.282,1.619,0.45c0.938,0.216,1.705,0.44,2.305,0.675s1.113,0.591,1.539,1.071
		c0.426,0.479,0.639,1.128,0.639,1.943c0,0.696-0.189,1.326-0.566,1.891c-0.379,0.564-0.951,1.014-1.719,1.35
		c-0.77,0.336-1.705,0.504-2.809,0.504C107.219,92.761,106.279,92.624,105.375,92.347z"/>
</g>
<path fill="none" stroke="#FFFFFF" stroke-width="2" stroke-linecap="round" stroke-miterlimit="10" d="M67.055,0.552L67.055,0.552
	c6.113,0,11.07,4.956,11.07,11.07l0,0c0,6.114-4.957,11.07-11.07,11.07"/>
</svg>
