<?xml version="1.0" encoding="utf-8"?>
<!-- Generator: Adobe Illustrator 16.0.0, SVG Export Plug-In . SVG Version: 6.00 Build 0)  -->
<!DOCTYPE svg PUBLIC "-//W3C//DTD SVG 1.1//EN" "http://www.w3.org/Graphics/SVG/1.1/DTD/svg11.dtd">
<svg version="1.1" xmlns="http://www.w3.org/2000/svg" xmlns:xlink="http://www.w3.org/1999/xlink" x="0px" y="0px"
	 width="536.032px" height="407.698px" viewBox="0 0 536.032 407.698" enable-background="new 0 0 536.032 407.698"
	 xml:space="preserve">
<g id="图层_1">
	<path fill="#E1E1E1" d="M417.91,247.01c-4.121-0.456-12.734-0.747-21.044-2.496c-13.256-2.783-21.992,1.607-30.858,12.104
		c-49.793,58.98-121.721,59.368-171.823,0.826c-9.305-10.872-17.158-13.082-30.713-8.91c-56.647,17.422-100.962,7.758-113.611-49.54
		c-2.935-13.269-14.269-21.888-25.821-30.13c-26.34-18.794-24.426-61.532-11.86-87.241c12.03-24.619,37.38-36.171,67.339-27.115
		c15.928,4.813,26.058,3.183,38.551-8.46c34.001-31.719,70.325-33.546,109.173-6.185c12.357,8.703,19.491,8.231,30.291-2.187
		c38.662-37.279,77.96-42.204,122.952-15.444c12.903,7.674,25.658,7.146,39.343,7.168c62.398,0.089,111.54,49.204,110.883,110.275
		C530.067,198.881,481.438,247.034,417.91,247.01z"/>
	<g>
		<path fill-rule="evenodd" clip-rule="evenodd" fill="#5B7582" d="M511.642,389.058c-0.161-4.046-0.612-8.107-0.417-12.136
			c0.286-5.908-4.299-12.729-10.778-14.679c-6.009-1.808-11.659-4.547-17.513-6.754c-0.688-0.259-1.318-0.761-2.126-0.601
			c0.037,4.493-1.777,7.545-5.431,8.971c-2.999,1.174-6.149,1.279-9.238,0.662c-4.916-0.981-6.955-3.688-7.035-8.813
			c-0.009-0.548-0.041-1.096-0.061-1.642c-4.551,1.355-9.116,2.668-13.652,4.074c-8.332,2.586-12.534,8.245-12.904,17.089
			c-0.193,4.63-1.076,9.231-1.646,13.845c-0.033,0.683-0.005,1.375-0.11,2.047c-0.394,2.501-0.41,2.501,2.077,2.501
			c24.663-0.001,49.325-0.001,73.988-0.006C511.459,393.617,511.459,393.608,511.642,389.058z"/>
		<path fill-rule="evenodd" clip-rule="evenodd" fill="#F3BD95" d="M459.044,354.067c0.02,0.546,0.052,1.094,0.061,1.642
			c0.08,5.125,2.119,7.832,7.035,8.813c3.089,0.617,6.239,0.512,9.238-0.662c3.653-1.426,5.468-4.478,5.431-8.971
			c-0.354-0.831-1.159-1.104-1.881-1.346c-1.421-0.478-1.962-1.424-1.854-2.854c-0.388-0.089-0.946-0.042-1.139-0.287
			c-2.039-2.591-4.911-2.78-7.856-3.093c-1.427-0.151-3.103-0.116-4.718-1.754c3.877,0.588,7.137,0.115,10.38-0.912
			c1.17-0.369,2.038-1.428,3.353-1.342c3.092-1.916,6.503-3.349,8.939-6.24c2.221-2.637,3.803-5.553,4.195-9.027
			c0.121-1.074,0.354-1.973,1.398-2.554c3.58-1.994,4.678-4.563,3.797-8.726c-0.114-0.535-0.254-1.064-0.383-1.598
			c-0.487,0.688-1.013,0.284-1.56,0.085c-0.812-0.292-1.642-0.595-2.461,0.004c0.068,0.19,0.076,0.466,0.208,0.56
			c3.27,2.296,3.283,4.914-0.025,7.157c-0.643,0.437-2.01,0.886-1.874-0.188c0.144-1.143,0.147-3.028,2.027-3.343
			c0.688-0.115,1.451-0.068,1.308-1.089c-0.117-0.839-0.672-1.33-1.496-1.423c-0.534-0.061-1.08,0.002-1.62,0.01
			c-0.376,0.766-0.139,2.121-1.684,1.753c-1.565-0.375-0.736-1.534-0.674-2.329c0.278-3.558,0.753-7.101,0.978-10.66
			c0.522-8.277-3.227-13.395-11.272-15.066c-5.457-1.132-11.001-1.085-16.436,0.269c-7.407,1.845-10.063,5.274-10.382,12.931
			c-0.11,2.676-0.302,5.35-0.441,8.024c-0.034,0.631-0.054,1.246-0.637,1.653c0.327,6.398,0.777,12.789,2.099,19.066
			c0.353,1.67,1.615,2.971,2.81,4.192c2.729,2.793,4.392,6.646,8.22,8.358c0.51,0.229,0.633,0.877,0.656,1.438
			c0.033,0.753,0.022,1.507,0.024,2.262C462.817,352.8,462.816,352.8,459.044,354.067z M471.846,306.815
			c-0.142-0.629-0.193-1.271,0.704-1.324c3.31-0.198,6.624-0.466,9.827,0.783c0.764,0.298,1.061,0.768,0.864,1.569
			c-0.237,0.964-0.887,0.579-1.454,0.467c-2.811-0.556-5.642-0.794-8.466-0.218C472.147,308.333,471.852,307.83,471.846,306.815z
			 M458.107,305.45c1.087,0,2.174-0.006,3.261,0.001c0.891,0.006,1.219,0.459,1.012,1.325c-0.176,0.729-0.221,1.535-1.358,1.318
			c-2.843-0.541-5.675-0.354-8.501,0.188c-0.595,0.115-1.348,0.611-1.602-0.527c-0.229-1.039,0.446-1.295,1.172-1.579
			C454.032,305.415,456.057,305.294,458.107,305.45z M466.505,335.027c-1.916,0.132-3.533-0.286-4.697-1.718
			c-0.453-0.553-1.122-1.394-0.754-1.998c0.525-0.861,1.108,0.274,1.709,0.35c0.269,0.035,0.544,0.037,0.805,0.102
			c2.415,0.6,4.828,0.405,7.249,0.045c0.412-0.061,1.072-0.266,1.172,0.393c0.043,0.281-0.358,0.707-0.653,0.951
			C469.896,334.336,468.365,335.325,466.505,335.027z M455.455,313.782c0.182-1.49,0.296-3.05,2.066-3.419
			c1.157-0.241,2.258,1.353,2.218,3.171c-0.033,1.501-0.386,3.164-2.135,3.223C455.886,316.813,455.696,315.117,455.455,313.782z
			 M474.305,313.819c0.007-1.965,1.085-3.674,2.177-3.451c1.768,0.357,1.991,1.834,1.981,3.346c-0.009,1.457-0.343,3.05-1.997,3.058
			C474.673,316.781,474.501,315.028,474.305,313.819z"/>
		<path fill-rule="evenodd" clip-rule="evenodd" fill="#7C4427" d="M491.02,315.246c0.819-0.599,1.649-0.296,2.461-0.004
			c0.547,0.199,1.072,0.603,1.56-0.085c0.927-7.484,1.859-14.97,2.772-22.456c0.233-1.903,0.463-3.802-0.015-5.722
			c-0.702-2.834-2.472-4.553-5.269-5.072c-0.987-0.183-1.5-0.668-2.085-1.391c-4.448-5.484-10.587-6.814-17.182-6.965
			c-3.151,1.9-6.479-0.796-9.698,0.381c-0.908,0.334-1.967,0.32-2.937,0.701c0.182,1.281,1.618,1.495,2.05,2.768
			c-3.88-1.425-7.646-1.179-11.622,0.176c1.387,0.988,3.264,1.004,4.085,2.887c-3.016,0.021-5.713,0.707-8.064,2.448
			c0-0.001-0.04-0.004-0.04-0.004c0.012,0.116-0.039,0.177-0.154,0.185c-0.399,0.439-0.801,0.881-1.202,1.321
			c-0.115,0.313-0.23,0.627-0.377,1.027c0.979-0.175,1.646-1.178,2.78-0.683c-2.282,8.184,0.111,16.295,0.573,24.459
			c0.08,1.432,0.228,2.857,0.343,4.287c0.583-0.407,0.603-1.022,0.637-1.653c0.14-2.675,0.331-5.349,0.441-8.024
			c0.318-7.656,2.975-11.086,10.382-12.931c5.435-1.354,10.979-1.4,16.436-0.269c8.046,1.672,11.795,6.789,11.272,15.066
			c-0.225,3.56-0.699,7.103-0.978,10.66c-0.063,0.795-0.892,1.954,0.674,2.329c1.545,0.368,1.308-0.987,1.684-1.753
			C489.815,316.171,490.134,315.455,491.02,315.246z"/>
		<path fill-rule="evenodd" clip-rule="evenodd" fill="#E1E1E1" d="M511.642,389.058c-0.184,4.55-0.184,4.559-4.847,4.559
			c-24.663,0.005-49.325,0.005-73.988,0.006c-2.487,0-2.471,0-2.077-2.501c0.105-0.672,0.077-1.364,0.11-2.047
			c-4.729,0.122-9.246,1.203-13.389,3.474c-1.86,1.019-1.682,2.35,0.248,3.479c2.388,1.397,5.09,1.937,7.742,2.497
			c7.242,1.531,14.596,2.06,21.973,2.6c11.49,0.841,22.986,0.94,34.476,0.674c9.545-0.223,19.109-0.578,28.565-2.289
			c2.593-0.469,5.211-0.884,7.821-1.261c2.353-0.34,4.373-1.444,6.485-2.319c1.831-0.757,1.884-2.041,0.3-3.251
			c-2.829-2.159-6.34-2.271-9.592-3.14C514.238,389.21,512.921,389.208,511.642,389.058z"/>
		<path fill-rule="evenodd" clip-rule="evenodd" fill="#DE9F5F" d="M477.094,343.302c-1.314-0.086-2.183,0.973-3.353,1.342
			c-3.243,1.027-6.503,1.5-10.38,0.912c1.615,1.638,3.291,1.603,4.718,1.754c2.945,0.313,5.817,0.502,7.856,3.093
			c0.192,0.245,0.751,0.198,1.139,0.287C477.081,348.227,477.087,345.764,477.094,343.302z"/>
		<path fill-rule="evenodd" clip-rule="evenodd" fill="#7C4427" d="M471.846,306.815c0.006,1.015,0.301,1.518,1.476,1.277
			c2.824-0.576,5.655-0.338,8.466,0.218c0.567,0.112,1.217,0.497,1.454-0.467c0.196-0.802-0.101-1.271-0.864-1.569
			c-3.203-1.249-6.518-0.981-9.827-0.783C471.653,305.545,471.705,306.186,471.846,306.815z"/>
		<path fill-rule="evenodd" clip-rule="evenodd" fill="#7C4427" d="M458.107,305.45c-2.05-0.156-4.075-0.035-6.017,0.726
			c-0.726,0.284-1.401,0.54-1.172,1.579c0.254,1.139,1.007,0.643,1.602,0.527c2.826-0.541,5.658-0.729,8.501-0.188
			c1.138,0.217,1.183-0.589,1.358-1.318c0.207-0.866-0.121-1.319-1.012-1.325C460.281,305.444,459.194,305.45,458.107,305.45z"/>
		<path fill-rule="evenodd" clip-rule="evenodd" fill="#F8EFEA" d="M466.505,335.027c1.86,0.298,3.392-0.691,4.83-1.876
			c0.295-0.244,0.696-0.67,0.653-0.951c-0.1-0.658-0.76-0.453-1.172-0.393c-2.421,0.36-4.834,0.555-7.249-0.045
			c-0.261-0.064-0.536-0.066-0.805-0.102c-0.601-0.075-1.184-1.211-1.709-0.35c-0.368,0.604,0.301,1.445,0.754,1.998
			C462.971,334.741,464.589,335.159,466.505,335.027z"/>
		<path fill-rule="evenodd" clip-rule="evenodd" fill="#7C4427" d="M455.455,313.782c0.241,1.335,0.432,3.031,2.149,2.975
			c1.749-0.059,2.102-1.722,2.135-3.223c0.04-1.818-1.061-3.412-2.218-3.171C455.751,310.732,455.636,312.292,455.455,313.782z"/>
		<path fill-rule="evenodd" clip-rule="evenodd" fill="#7C4427" d="M474.305,313.819c0.195,1.209,0.367,2.962,2.161,2.952
			c1.654-0.008,1.988-1.601,1.997-3.058c0.01-1.512-0.214-2.988-1.981-3.346C475.39,310.145,474.312,311.854,474.305,313.819z"/>
		<path fill-rule="evenodd" clip-rule="evenodd" fill="#DE9F5F" d="M491.02,315.246c-0.887,0.209-1.205,0.925-1.473,1.685
			c0.54-0.008,1.086-0.07,1.62-0.01c0.824,0.093,1.379,0.584,1.496,1.423c0.144,1.021-0.62,0.974-1.308,1.089
			c-1.88,0.314-1.884,2.2-2.027,3.343c-0.136,1.073,1.231,0.624,1.874,0.188c3.309-2.243,3.295-4.861,0.025-7.157
			C491.096,315.712,491.089,315.436,491.02,315.246z"/>
	</g>
	<path fill-rule="evenodd" clip-rule="evenodd" fill="#F8EFEA" d="M440.158,278.622c-0.103-0.028-0.205-0.058-0.307-0.087
		c0.052,0.09,0.102,0.181,0.152,0.271C440.119,278.799,440.17,278.738,440.158,278.622z"/>
	<g>
		<path fill-rule="evenodd" clip-rule="evenodd" d="M27.561,86.487c0.299,0.652,0.576,1.262,0.873,1.912
			c-1.886,0.911-3.242,2.205-3.574,4.396c0.274,0.088,0.517,0.162,0.757,0.241c3.298,1.093,4.435,5.403,2.026,7.805
			c-1.386,1.382-3.113,1.782-4.97,1.227c-1.964-0.588-3.008-2.075-3.37-4.023c-0.951-5.11,2.523-10.228,7.721-11.434
			C27.177,86.576,27.328,86.541,27.561,86.487z"/>
		<path fill-rule="evenodd" clip-rule="evenodd" d="M40.017,86.482c0.313,0.673,0.598,1.279,0.897,1.921
			c-1.904,0.887-3.233,2.204-3.602,4.409c0.273,0.08,0.54,0.149,0.801,0.238c2.102,0.704,3.359,2.625,3.248,4.955
			c-0.1,2.048-1.518,3.644-3.699,4.159c-2.091,0.492-4.236-0.415-5.23-2.319c-1.305-2.502-1.023-5.042,0.095-7.51
			C33.98,89.127,36.538,87.259,40.017,86.482z"/>
	</g>
	<g>
		<path fill-rule="evenodd" clip-rule="evenodd" d="M505.008,102.307c-0.298-0.653-0.576-1.262-0.873-1.912
			c1.886-0.91,3.241-2.207,3.575-4.396c-0.274-0.088-0.517-0.161-0.757-0.241c-3.298-1.094-4.437-5.403-2.028-7.805
			c1.386-1.383,3.113-1.782,4.971-1.228c1.964,0.588,3.007,2.075,3.37,4.024c0.951,5.11-2.523,10.228-7.721,11.433
			C505.392,102.219,505.242,102.254,505.008,102.307z"/>
		<path fill-rule="evenodd" clip-rule="evenodd" d="M492.551,102.31c-0.313-0.672-0.597-1.278-0.896-1.919
			c1.905-0.887,3.234-2.205,3.602-4.41c-0.274-0.079-0.541-0.149-0.801-0.235c-2.104-0.707-3.358-2.627-3.248-4.957
			c0.1-2.048,1.518-3.645,3.697-4.159c2.093-0.492,4.238,0.415,5.232,2.319c1.306,2.502,1.024,5.043-0.094,7.51
			C498.588,99.668,496.031,101.535,492.551,102.31z"/>
	</g>
	<ellipse fill="#E1E1E1" cx="363.442" cy="306.052" rx="20.491" ry="15.305"/>
	<ellipse fill="#E1E1E1" cx="405.938" cy="328.749" rx="11.491" ry="8.991"/>
</g>
<g id="图层_2">
	<g>
		<path d="M69.748,132.906c-1.144-0.399-2.028-0.928-2.652-1.584l0.696-1.368c0.607,0.608,1.416,1.101,2.424,1.477
			s2.048,0.563,3.12,0.563c1.503,0,2.632-0.275,3.384-0.828c0.752-0.552,1.128-1.268,1.128-2.148c0-0.672-0.204-1.207-0.612-1.607
			c-0.408-0.399-0.908-0.708-1.5-0.924s-1.416-0.451-2.472-0.708c-1.265-0.319-2.272-0.628-3.024-0.924
			c-0.752-0.296-1.396-0.748-1.932-1.356c-0.536-0.607-0.804-1.432-0.804-2.472c0-0.849,0.224-1.62,0.672-2.315
			c0.448-0.697,1.136-1.252,2.064-1.668c0.928-0.416,2.08-0.625,3.457-0.625c0.959,0,1.899,0.133,2.819,0.396
			s1.716,0.628,2.388,1.092l-0.6,1.416c-0.704-0.464-1.456-0.813-2.256-1.044c-0.801-0.231-1.584-0.349-2.352-0.349
			c-1.473,0-2.581,0.285-3.325,0.853c-0.744,0.568-1.116,1.3-1.116,2.196c0,0.672,0.204,1.212,0.612,1.619
			c0.408,0.408,0.92,0.721,1.536,0.937c0.616,0.216,1.444,0.452,2.484,0.708c1.232,0.305,2.229,0.604,2.988,0.9
			c0.76,0.296,1.404,0.744,1.932,1.344c0.528,0.6,0.792,1.412,0.792,2.436c0,0.849-0.228,1.62-0.684,2.316s-1.156,1.248-2.101,1.656
			c-0.943,0.408-2.104,0.611-3.479,0.611C72.089,133.506,70.892,133.306,69.748,132.906z"/>
		<path d="M83.08,117.618c-0.24-0.239-0.359-0.528-0.359-0.864c0-0.319,0.119-0.6,0.359-0.84s0.536-0.359,0.889-0.359
			c0.352,0,0.648,0.115,0.888,0.348c0.24,0.232,0.36,0.508,0.36,0.828c0,0.352-0.12,0.648-0.36,0.888
			c-0.239,0.24-0.536,0.36-0.888,0.36C83.616,117.978,83.32,117.858,83.08,117.618z M83.104,120.738h1.704v12.624h-1.704V120.738z"
			/>
		<path d="M101.248,120.738v11.088c0,2.144-0.523,3.732-1.571,4.764c-1.048,1.032-2.628,1.549-4.74,1.549
			c-1.168,0-2.276-0.173-3.323-0.517c-1.049-0.344-1.9-0.82-2.557-1.428l0.863-1.296c0.608,0.544,1.349,0.968,2.221,1.271
			c0.871,0.304,1.788,0.456,2.748,0.456c1.6,0,2.775-0.372,3.527-1.115c0.752-0.744,1.129-1.9,1.129-3.469v-1.607
			c-0.528,0.8-1.221,1.408-2.076,1.824c-0.856,0.416-1.805,0.623-2.844,0.623c-1.185,0-2.261-0.26-3.229-0.779
			c-0.969-0.52-1.729-1.248-2.279-2.185c-0.553-0.936-0.828-1.996-0.828-3.18s0.275-2.24,0.828-3.168
			c0.551-0.928,1.308-1.648,2.268-2.16s2.04-0.768,3.24-0.768c1.071,0,2.039,0.216,2.904,0.648c0.863,0.432,1.559,1.055,2.088,1.871
			v-2.424H101.248z M97.264,130.782c0.735-0.392,1.308-0.939,1.716-1.644s0.612-1.504,0.612-2.4s-0.204-1.691-0.612-2.389
			c-0.408-0.695-0.977-1.239-1.704-1.631c-0.728-0.393-1.556-0.588-2.483-0.588c-0.912,0-1.732,0.191-2.461,0.576
			c-0.728,0.383-1.295,0.928-1.703,1.631c-0.408,0.705-0.612,1.504-0.612,2.4s0.204,1.696,0.612,2.4s0.976,1.252,1.703,1.644
			c0.729,0.393,1.549,0.588,2.461,0.588S96.528,131.175,97.264,130.782z"/>
		<path d="M116.236,122.022c0.936,0.92,1.404,2.26,1.404,4.021v7.319h-1.704v-7.151c0-1.313-0.328-2.313-0.983-3
			c-0.656-0.688-1.593-1.033-2.809-1.033c-1.36,0-2.436,0.404-3.229,1.213c-0.791,0.808-1.188,1.924-1.188,3.348v6.624h-1.704
			v-12.624h1.632v2.328c0.464-0.768,1.107-1.363,1.932-1.788c0.824-0.424,1.78-0.636,2.869-0.636
			C114.041,120.642,115.301,121.102,116.236,122.022z"/>
		<path d="M121.336,126.114h6.288v1.488h-6.288V126.114z"/>
		<path d="M131.416,117.618c-0.24-0.239-0.36-0.528-0.36-0.864c0-0.319,0.12-0.6,0.36-0.84c0.239-0.24,0.535-0.359,0.888-0.359
			c0.352,0,0.647,0.115,0.888,0.348s0.359,0.508,0.359,0.828c0,0.352-0.119,0.648-0.359,0.888c-0.24,0.24-0.536,0.36-0.888,0.36
			C131.951,117.978,131.655,117.858,131.416,117.618z M131.439,120.738h1.704v12.624h-1.704V120.738z"/>
		<path d="M148.107,122.022c0.936,0.92,1.404,2.26,1.404,4.021v7.319h-1.704v-7.151c0-1.313-0.328-2.313-0.983-3
			c-0.656-0.688-1.593-1.033-2.809-1.033c-1.36,0-2.436,0.404-3.229,1.213c-0.791,0.808-1.188,1.924-1.188,3.348v6.624h-1.704
			v-12.624h1.632v2.328c0.464-0.768,1.107-1.363,1.932-1.788c0.824-0.424,1.78-0.636,2.869-0.636
			C145.912,120.642,147.172,121.102,148.107,122.022z"/>
		<path d="M160.406,117.618c-0.24-0.239-0.359-0.528-0.359-0.864c0-0.319,0.119-0.6,0.359-0.84s0.536-0.359,0.889-0.359
			c0.352,0,0.648,0.115,0.888,0.348c0.24,0.232,0.36,0.508,0.36,0.828c0,0.352-0.12,0.648-0.36,0.888
			c-0.239,0.24-0.536,0.36-0.888,0.36C160.942,117.978,160.646,117.858,160.406,117.618z M160.43,120.738h1.704v12.624h-1.704
			V120.738z"/>
		<path d="M167.33,133.038c-0.936-0.296-1.668-0.668-2.195-1.116l0.768-1.344c0.528,0.416,1.192,0.756,1.992,1.021
			c0.801,0.264,1.633,0.396,2.496,0.396c1.152,0,2.004-0.18,2.557-0.54c0.551-0.359,0.828-0.867,0.828-1.523
			c0-0.464-0.152-0.828-0.457-1.093c-0.304-0.264-0.688-0.463-1.152-0.6c-0.463-0.136-1.079-0.268-1.848-0.396
			c-1.023-0.191-1.848-0.387-2.472-0.588c-0.624-0.199-1.156-0.539-1.596-1.02c-0.44-0.48-0.66-1.145-0.66-1.992
			c0-1.056,0.44-1.92,1.319-2.592c0.881-0.672,2.104-1.008,3.672-1.008c0.816,0,1.633,0.107,2.449,0.324
			c0.815,0.215,1.487,0.5,2.016,0.852l-0.744,1.368c-1.04-0.72-2.279-1.08-3.721-1.08c-1.088,0-1.907,0.192-2.459,0.575
			c-0.553,0.385-0.828,0.889-0.828,1.513c0,0.479,0.156,0.864,0.468,1.151c0.312,0.289,0.7,0.501,1.164,0.637
			c0.464,0.137,1.104,0.275,1.92,0.42c1.009,0.191,1.815,0.384,2.424,0.576c0.608,0.191,1.128,0.52,1.56,0.984
			c0.433,0.464,0.648,1.104,0.648,1.919c0,1.104-0.46,1.98-1.38,2.629c-0.92,0.647-2.196,0.972-3.828,0.972
			C169.246,133.482,168.266,133.335,167.33,133.038z"/>
		<path d="M195.517,120.738l-5.615,12.624h-1.752l-5.592-12.624h1.775l4.729,10.752l4.775-10.752H195.517z"/>
		<path d="M208.551,127.578H197.99c0.096,1.313,0.6,2.372,1.512,3.181c0.912,0.808,2.064,1.212,3.456,1.212
			c0.784,0,1.504-0.141,2.16-0.42c0.655-0.28,1.224-0.692,1.704-1.236l0.96,1.104c-0.561,0.672-1.261,1.185-2.101,1.536
			c-0.84,0.353-1.764,0.528-2.771,0.528c-1.296,0-2.444-0.276-3.443-0.828c-1.001-0.552-1.781-1.315-2.341-2.292
			c-0.56-0.976-0.84-2.079-0.84-3.312s0.268-2.336,0.804-3.313c0.536-0.976,1.272-1.736,2.209-2.279
			c0.936-0.545,1.987-0.816,3.155-0.816s2.216,0.271,3.144,0.816c0.928,0.543,1.656,1.299,2.185,2.268
			c0.528,0.968,0.792,2.076,0.792,3.324L208.551,127.578z M199.394,123.27c-0.824,0.776-1.293,1.788-1.404,3.036h8.951
			c-0.111-1.248-0.58-2.26-1.403-3.036c-0.824-0.776-1.853-1.164-3.084-1.164C201.238,122.106,200.218,122.494,199.394,123.27z"/>
		<path d="M215.473,121.291c0.792-0.433,1.772-0.648,2.94-0.648v1.656l-0.408-0.024c-1.328,0-2.368,0.407-3.12,1.224
			c-0.753,0.816-1.128,1.961-1.128,3.432v6.433h-1.704v-12.624h1.632v2.473C214.086,122.362,214.681,121.722,215.473,121.291z"/>
		<path d="M232.644,120.738l-6.312,14.136c-0.513,1.185-1.104,2.024-1.776,2.521c-0.672,0.495-1.479,0.744-2.424,0.744
			c-0.607,0-1.176-0.097-1.703-0.288c-0.528-0.192-0.984-0.48-1.369-0.864l0.793-1.272c0.639,0.641,1.407,0.96,2.304,0.96
			c0.575,0,1.067-0.159,1.476-0.479s0.788-0.864,1.141-1.632l0.552-1.225l-5.64-12.6h1.775l4.752,10.728l4.752-10.728H232.644z"/>
		<path fill="#69CE28" d="M241.885,133.158c-1.023-0.264-1.84-0.596-2.447-0.996l1.248-2.688c0.576,0.368,1.271,0.668,2.088,0.899
			c0.815,0.232,1.615,0.349,2.399,0.349c1.584,0,2.376-0.393,2.376-1.177c0-0.368-0.216-0.632-0.648-0.792
			c-0.432-0.159-1.096-0.295-1.991-0.408c-1.056-0.159-1.929-0.344-2.616-0.551c-0.688-0.209-1.284-0.576-1.788-1.104
			s-0.756-1.28-0.756-2.257c0-0.815,0.235-1.539,0.708-2.172c0.472-0.631,1.16-1.123,2.064-1.476
			c0.903-0.352,1.971-0.528,3.203-0.528c0.912,0,1.82,0.101,2.725,0.301c0.903,0.2,1.652,0.477,2.244,0.828l-1.248,2.664
			c-1.137-0.641-2.377-0.961-3.721-0.961c-0.8,0-1.4,0.113-1.8,0.336c-0.399,0.225-0.6,0.513-0.6,0.865
			c0,0.399,0.216,0.68,0.647,0.84c0.433,0.16,1.12,0.312,2.064,0.455c1.057,0.177,1.92,0.364,2.592,0.564s1.256,0.564,1.752,1.092
			c0.496,0.528,0.744,1.264,0.744,2.208c0,0.801-0.24,1.512-0.72,2.136c-0.48,0.624-1.181,1.108-2.101,1.452
			s-2.012,0.517-3.275,0.517C243.957,133.554,242.908,133.422,241.885,133.158z"/>
		<path fill="#69CE28" d="M261.757,132.738c-0.368,0.272-0.82,0.477-1.356,0.612s-1.1,0.204-1.691,0.204
			c-1.536,0-2.725-0.393-3.564-1.177c-0.84-0.783-1.26-1.936-1.26-3.456v-5.304h-1.992v-2.88h1.992v-3.145h3.744v3.145h3.216v2.88
			h-3.216v5.257c0,0.543,0.14,0.964,0.42,1.26c0.279,0.296,0.676,0.443,1.188,0.443c0.592,0,1.096-0.159,1.512-0.479
			L261.757,132.738z"/>
		<path fill="#69CE28" d="M269.257,120.738c0.76-0.32,1.636-0.48,2.628-0.48v3.457c-0.416-0.032-0.696-0.049-0.84-0.049
			c-1.072,0-1.912,0.301-2.521,0.9s-0.911,1.5-0.911,2.699v6.097h-3.744V120.45h3.576v1.704
			C267.892,121.53,268.496,121.058,269.257,120.738z"/>
		<path fill="#69CE28" d="M283.86,121.686c1.071,0.952,1.608,2.388,1.608,4.308v7.368h-3.504v-1.608
			c-0.705,1.2-2.017,1.801-3.937,1.801c-0.992,0-1.853-0.168-2.58-0.504c-0.728-0.337-1.284-0.801-1.668-1.393
			s-0.575-1.264-0.575-2.016c0-1.2,0.451-2.145,1.355-2.832s2.3-1.032,4.188-1.032h2.977c0-0.815-0.248-1.444-0.744-1.884
			s-1.24-0.66-2.232-0.66c-0.688,0-1.363,0.107-2.027,0.324c-0.664,0.216-1.229,0.508-1.692,0.875l-1.344-2.615
			c0.704-0.496,1.548-0.88,2.532-1.152c0.983-0.271,1.995-0.408,3.035-0.408C281.252,120.258,282.788,120.734,283.86,121.686z
			 M280.668,130.59c0.496-0.296,0.848-0.731,1.057-1.308v-1.319h-2.568c-1.535,0-2.304,0.504-2.304,1.512
			c0,0.479,0.188,0.86,0.563,1.14c0.376,0.28,0.893,0.42,1.549,0.42C279.603,131.034,280.172,130.886,280.668,130.59z"/>
		<path fill="#69CE28" d="M289.044,118.051c-0.433-0.4-0.647-0.896-0.647-1.488s0.215-1.088,0.647-1.488s0.992-0.6,1.681-0.6
			c0.688,0,1.248,0.191,1.68,0.576c0.432,0.383,0.648,0.863,0.648,1.439c0,0.624-0.217,1.141-0.648,1.548
			c-0.432,0.408-0.992,0.612-1.68,0.612C290.036,118.65,289.476,118.45,289.044,118.051z M288.851,120.45h3.744v12.912h-3.744
			V120.45z"/>
		<path fill="#69CE28" d="M309.395,120.45v10.752c0,2.368-0.616,4.128-1.848,5.28c-1.232,1.152-3.032,1.728-5.4,1.728
			c-1.248,0-2.433-0.152-3.552-0.456c-1.12-0.304-2.049-0.743-2.784-1.319l1.488-2.688c0.544,0.448,1.231,0.805,2.063,1.068
			s1.664,0.396,2.496,0.396c1.297,0,2.252-0.292,2.868-0.876s0.925-1.468,0.925-2.651v-0.553c-0.977,1.072-2.337,1.608-4.08,1.608
			c-1.186,0-2.269-0.26-3.252-0.78c-0.984-0.52-1.765-1.251-2.341-2.195c-0.575-0.944-0.864-2.032-0.864-3.265
			c0-1.231,0.289-2.319,0.864-3.264c0.576-0.943,1.356-1.676,2.341-2.196c0.983-0.52,2.066-0.78,3.252-0.78
			c1.871,0,3.295,0.617,4.271,1.849v-1.656H309.395z M304.752,128.791c0.631-0.584,0.947-1.349,0.947-2.293
			c0-0.943-0.316-1.707-0.947-2.291c-0.633-0.584-1.444-0.877-2.437-0.877s-1.808,0.293-2.448,0.877
			c-0.64,0.584-0.959,1.348-0.959,2.291c0,0.944,0.319,1.709,0.959,2.293c0.641,0.584,1.456,0.875,2.448,0.875
			S304.119,129.375,304.752,128.791z"/>
		<path fill="#69CE28" d="M324.599,121.698c0.984,0.96,1.477,2.384,1.477,4.272v7.392h-3.744v-6.815
			c0-1.024-0.225-1.789-0.672-2.293c-0.449-0.504-1.097-0.756-1.945-0.756c-0.943,0-1.695,0.293-2.256,0.877
			c-0.56,0.584-0.84,1.451-0.84,2.604v6.384h-3.744v-17.808h3.744v6.24c0.496-0.496,1.096-0.877,1.801-1.141
			c0.703-0.264,1.471-0.396,2.304-0.396C322.323,120.258,323.615,120.738,324.599,121.698z"/>
		<path fill="#69CE28" d="M337.787,132.738c-0.367,0.272-0.82,0.477-1.355,0.612c-0.537,0.136-1.101,0.204-1.692,0.204
			c-1.536,0-2.724-0.393-3.563-1.177c-0.84-0.783-1.26-1.936-1.26-3.456v-5.304h-1.992v-2.88h1.992v-3.145h3.744v3.145h3.215v2.88
			h-3.215v5.257c0,0.543,0.139,0.964,0.42,1.26c0.279,0.296,0.676,0.443,1.188,0.443c0.592,0,1.096-0.159,1.512-0.479
			L337.787,132.738z"/>
		<path fill="#69CE28" d="M344.004,120.738h3.313v2.88h-3.217v9.744h-3.744v-9.744h-1.992v-2.88h1.992v-0.576
			c0-1.472,0.436-2.64,1.309-3.504c0.871-0.863,2.1-1.296,3.684-1.296c0.561,0,1.092,0.06,1.596,0.181
			c0.504,0.119,0.924,0.291,1.261,0.516l-0.984,2.712c-0.432-0.304-0.937-0.456-1.512-0.456c-1.136,0-1.704,0.624-1.704,1.872
			V120.738z"/>
		<path fill="#69CE28" d="M351.504,132.702c-1.08-0.567-1.924-1.355-2.532-2.364c-0.608-1.008-0.912-2.151-0.912-3.432
			c0-1.279,0.304-2.424,0.912-3.432s1.452-1.797,2.532-2.364s2.299-0.853,3.66-0.853c1.359,0,2.575,0.285,3.647,0.853
			c1.071,0.567,1.911,1.356,2.521,2.364c0.607,1.008,0.912,2.152,0.912,3.432c0,1.28-0.305,2.424-0.912,3.432
			c-0.609,1.009-1.449,1.797-2.521,2.364c-1.072,0.568-2.288,0.853-3.647,0.853C353.802,133.554,352.584,133.27,351.504,132.702z
			 M357.527,129.51c0.615-0.648,0.924-1.517,0.924-2.604s-0.309-1.956-0.924-2.604c-0.615-0.648-1.404-0.973-2.363-0.973
			c-0.961,0-1.752,0.324-2.377,0.973c-0.623,0.647-0.936,1.516-0.936,2.604s0.313,1.956,0.936,2.604
			c0.625,0.647,1.416,0.972,2.377,0.972C356.123,130.482,356.912,130.158,357.527,129.51z"/>
		<path fill="#69CE28" d="M370.127,120.738c0.76-0.32,1.637-0.48,2.629-0.48v3.457c-0.417-0.032-0.697-0.049-0.841-0.049
			c-1.071,0-1.912,0.301-2.521,0.9c-0.607,0.6-0.911,1.5-0.911,2.699v6.097h-3.744V120.45h3.576v1.704
			C368.763,121.53,369.367,121.058,370.127,120.738z"/>
		<path fill="#69CE28" d="M396.178,120.45l-4.68,12.912h-3.601l-2.904-8.017l-3,8.017h-3.6l-4.656-12.912h3.528l3.048,8.736
			l3.168-8.736h3.168l3.072,8.736l3.145-8.736H396.178z"/>
		<path fill="#69CE28" d="M407.315,121.686c1.072,0.952,1.608,2.388,1.608,4.308v7.368h-3.504v-1.608
			c-0.705,1.2-2.017,1.801-3.937,1.801c-0.992,0-1.852-0.168-2.58-0.504c-0.729-0.337-1.284-0.801-1.668-1.393
			s-0.576-1.264-0.576-2.016c0-1.2,0.452-2.145,1.356-2.832c0.903-0.688,2.3-1.032,4.188-1.032h2.977
			c0-0.815-0.248-1.444-0.744-1.884s-1.24-0.66-2.232-0.66c-0.688,0-1.364,0.107-2.027,0.324c-0.664,0.216-1.229,0.508-1.692,0.875
			l-1.344-2.615c0.704-0.496,1.548-0.88,2.532-1.152c0.983-0.271,1.995-0.408,3.035-0.408
			C404.707,120.258,406.243,120.734,407.315,121.686z M404.123,130.59c0.496-0.296,0.849-0.731,1.057-1.308v-1.319h-2.568
			c-1.536,0-2.304,0.504-2.304,1.512c0,0.479,0.188,0.86,0.563,1.14c0.376,0.28,0.893,0.42,1.549,0.42
			C403.059,131.034,403.627,130.886,404.123,130.59z"/>
		<path fill="#69CE28" d="M417.695,120.738c0.76-0.32,1.636-0.48,2.628-0.48v3.457c-0.416-0.032-0.696-0.049-0.84-0.049
			c-1.072,0-1.912,0.301-2.521,0.9s-0.912,1.5-0.912,2.699v6.097h-3.744V120.45h3.576v1.704
			C416.331,121.53,416.934,121.058,417.695,120.738z"/>
		<path fill="#69CE28" d="M435.587,115.554v17.808h-3.576v-1.488c-0.928,1.12-2.271,1.681-4.031,1.681
			c-1.217,0-2.316-0.272-3.301-0.816c-0.983-0.544-1.756-1.32-2.315-2.328c-0.561-1.008-0.84-2.176-0.84-3.504
			s0.279-2.496,0.84-3.504c0.56-1.008,1.332-1.783,2.315-2.328c0.984-0.543,2.084-0.816,3.301-0.816
			c1.647,0,2.936,0.521,3.863,1.561v-6.264H435.587z M430.979,129.51c0.624-0.648,0.936-1.517,0.936-2.604s-0.312-1.956-0.936-2.604
			c-0.624-0.648-1.408-0.973-2.353-0.973c-0.96,0-1.752,0.324-2.376,0.973c-0.624,0.647-0.936,1.516-0.936,2.604
			s0.312,1.956,0.936,2.604c0.624,0.647,1.416,0.972,2.376,0.972C429.571,130.482,430.355,130.158,430.979,129.51z"/>
		<path d="M440.795,131.238c0.239,0.248,0.359,0.556,0.359,0.924c0,0.192-0.028,0.4-0.084,0.624c-0.056,0.225-0.14,0.48-0.252,0.769
			l-1.008,3.312h-1.152l0.816-3.479c-0.256-0.08-0.465-0.229-0.624-0.444c-0.16-0.216-0.24-0.476-0.24-0.78
			c0-0.368,0.12-0.676,0.36-0.924s0.544-0.372,0.912-0.372C440.25,130.866,440.554,130.99,440.795,131.238z"/>
		<path d="M68.704,145.363h1.776v16.8h-1.776V145.363z"/>
		<path d="M81.88,144.355h1.704v17.808H81.88V144.355z"/>
		<path d="M88.312,146.419c-0.24-0.24-0.36-0.528-0.36-0.864c0-0.319,0.12-0.6,0.36-0.84c0.239-0.24,0.535-0.359,0.888-0.359
			c0.352,0,0.647,0.116,0.888,0.348c0.24,0.232,0.359,0.508,0.359,0.828c0,0.352-0.119,0.647-0.359,0.888s-0.536,0.36-0.888,0.36
			C88.847,146.779,88.552,146.659,88.312,146.419z M88.336,149.539h1.704v12.624h-1.704V149.539z"/>
		<path d="M99.472,155.827l-2.977,2.736v3.6h-1.704v-17.808h1.704v12.071l7.536-6.888h2.112l-5.4,5.16l5.904,7.464h-2.088
			L99.472,155.827z"/>
		<path d="M119.704,156.379h-10.56c0.096,1.313,0.6,2.372,1.512,3.181c0.912,0.808,2.063,1.212,3.455,1.212
			c0.784,0,1.504-0.141,2.16-0.42c0.656-0.28,1.225-0.692,1.705-1.236l0.959,1.104c-0.561,0.672-1.26,1.185-2.1,1.536
			c-0.84,0.353-1.764,0.528-2.771,0.528c-1.297,0-2.445-0.276-3.444-0.828c-1.001-0.552-1.78-1.315-2.341-2.292
			c-0.56-0.976-0.84-2.08-0.84-3.312c0-1.232,0.268-2.336,0.805-3.313c0.535-0.976,1.271-1.736,2.208-2.28
			c0.936-0.543,1.987-0.815,3.155-0.815s2.217,0.272,3.145,0.815c0.928,0.544,1.656,1.301,2.184,2.269
			c0.528,0.968,0.793,2.076,0.793,3.324L119.704,156.379z M110.548,152.071c-0.824,0.776-1.292,1.788-1.403,3.036h8.951
			c-0.111-1.248-0.58-2.26-1.404-3.036s-1.852-1.164-3.084-1.164C112.391,150.907,111.371,151.295,110.548,152.071z"/>
		<path d="M139.707,150.823c0.936,0.92,1.404,2.26,1.404,4.02v7.32h-1.704v-7.152c0-1.312-0.328-2.312-0.983-3
			c-0.656-0.688-1.593-1.031-2.809-1.031c-1.36,0-2.436,0.404-3.229,1.212c-0.791,0.808-1.188,1.924-1.188,3.348v6.624h-1.704
			v-17.808h1.704v7.392c0.464-0.735,1.104-1.304,1.92-1.704c0.816-0.399,1.752-0.6,2.809-0.6
			C137.511,149.443,138.771,149.903,139.707,150.823z"/>
		<path d="M147.662,161.455c-0.976-0.552-1.744-1.315-2.304-2.292c-0.56-0.976-0.84-2.08-0.84-3.312c0-1.232,0.28-2.336,0.84-3.313
			c0.56-0.976,1.328-1.736,2.304-2.28c0.977-0.543,2.072-0.815,3.289-0.815c1.215,0,2.311,0.272,3.287,0.815
			c0.977,0.544,1.74,1.305,2.293,2.28c0.551,0.977,0.827,2.08,0.827,3.313c0,1.231-0.276,2.336-0.827,3.312
			c-0.553,0.977-1.316,1.74-2.293,2.292s-2.072,0.828-3.287,0.828C149.734,162.283,148.638,162.007,147.662,161.455z
			 M153.363,160.159c0.711-0.408,1.268-0.988,1.668-1.74c0.398-0.752,0.6-1.607,0.6-2.567c0-0.961-0.201-1.816-0.6-2.568
			c-0.4-0.752-0.957-1.332-1.668-1.74c-0.713-0.408-1.518-0.612-2.412-0.612c-0.896,0-1.701,0.204-2.412,0.612
			c-0.713,0.408-1.272,0.988-1.681,1.74c-0.407,0.752-0.612,1.607-0.612,2.568c0,0.96,0.205,1.815,0.612,2.567
			c0.408,0.752,0.968,1.332,1.681,1.74c0.711,0.408,1.516,0.612,2.412,0.612C151.845,160.771,152.65,160.567,153.363,160.159z"/>
		<path d="M179.006,149.539l-4.775,12.624h-1.607l-3.984-10.344l-3.984,10.344h-1.607l-4.752-12.624h1.632l3.96,10.728l4.056-10.728
			h1.464l4.032,10.728l4.009-10.728H179.006z"/>
		<path d="M188.306,161.839c-0.936-0.296-1.668-0.668-2.195-1.116l0.768-1.344c0.527,0.416,1.191,0.756,1.992,1.021
			c0.8,0.264,1.632,0.396,2.496,0.396c1.152,0,2.004-0.18,2.556-0.54c0.552-0.359,0.828-0.867,0.828-1.523
			c0-0.464-0.152-0.828-0.456-1.093c-0.305-0.264-0.688-0.464-1.152-0.6c-0.464-0.136-1.08-0.268-1.848-0.396
			c-1.024-0.192-1.848-0.389-2.473-0.589c-0.623-0.199-1.156-0.54-1.596-1.02c-0.439-0.48-0.66-1.144-0.66-1.992
			c0-1.056,0.44-1.92,1.32-2.592s2.104-1.008,3.672-1.008c0.816,0,1.633,0.107,2.448,0.323c0.815,0.217,1.487,0.501,2.017,0.853
			l-0.744,1.368c-1.041-0.721-2.28-1.08-3.721-1.08c-1.088,0-1.908,0.191-2.46,0.576c-0.552,0.384-0.827,0.888-0.827,1.512
			c0,0.479,0.155,0.864,0.467,1.152c0.313,0.288,0.7,0.5,1.164,0.636c0.465,0.136,1.104,0.276,1.92,0.42
			c1.009,0.192,1.816,0.384,2.424,0.576c0.608,0.191,1.129,0.52,1.561,0.983c0.432,0.465,0.648,1.104,0.648,1.92
			c0,1.104-0.461,1.98-1.381,2.629c-0.92,0.647-2.195,0.972-3.828,0.972C190.222,162.283,189.242,162.135,188.306,161.839z"/>
		<path d="M219.074,150.811c0.904,0.911,1.356,2.256,1.356,4.031v7.32h-1.704v-7.152c0-1.312-0.316-2.312-0.947-3
			c-0.633-0.688-1.524-1.031-2.677-1.031c-1.312,0-2.345,0.404-3.096,1.212c-0.753,0.808-1.128,1.924-1.128,3.348v6.624h-1.704
			v-7.152c0-1.312-0.316-2.312-0.948-3c-0.633-0.688-1.532-1.031-2.699-1.031c-1.297,0-2.324,0.404-3.084,1.212
			c-0.761,0.808-1.141,1.924-1.141,3.348v6.624h-1.704v-12.624h1.632v2.304c0.447-0.768,1.072-1.359,1.872-1.775
			s1.72-0.624,2.761-0.624c1.055,0,1.971,0.224,2.748,0.672c0.775,0.448,1.355,1.112,1.739,1.992
			c0.464-0.832,1.132-1.484,2.004-1.956s1.868-0.708,2.988-0.708C216.927,149.443,218.17,149.899,219.074,150.811z"/>
		<path d="M226.982,161.455c-0.977-0.552-1.744-1.315-2.305-2.292c-0.56-0.976-0.84-2.08-0.84-3.312c0-1.232,0.28-2.336,0.84-3.313
			c0.561-0.976,1.328-1.736,2.305-2.28c0.976-0.543,2.072-0.815,3.288-0.815s2.312,0.272,3.288,0.815
			c0.976,0.544,1.74,1.305,2.292,2.28c0.552,0.977,0.827,2.08,0.827,3.313c0,1.231-0.275,2.336-0.827,3.312
			c-0.552,0.977-1.316,1.74-2.292,2.292c-0.977,0.552-2.072,0.828-3.288,0.828S227.958,162.007,226.982,161.455z M232.682,160.159
			c0.712-0.408,1.268-0.988,1.668-1.74c0.399-0.752,0.6-1.607,0.6-2.567c0-0.961-0.2-1.816-0.6-2.568
			c-0.4-0.752-0.956-1.332-1.668-1.74s-1.517-0.612-2.412-0.612c-0.896,0-1.7,0.204-2.412,0.612s-1.272,0.988-1.681,1.74
			c-0.407,0.752-0.611,1.607-0.611,2.568c0,0.96,0.204,1.815,0.611,2.567c0.408,0.752,0.969,1.332,1.681,1.74
			s1.516,0.612,2.412,0.612C231.166,160.771,231.97,160.567,232.682,160.159z"/>
		<path d="M242.03,161.455c-0.976-0.552-1.744-1.315-2.304-2.292c-0.561-0.976-0.84-2.08-0.84-3.312c0-1.232,0.279-2.336,0.84-3.313
			c0.56-0.976,1.328-1.736,2.304-2.28c0.976-0.543,2.071-0.815,3.288-0.815c1.216,0,2.312,0.272,3.288,0.815
			c0.976,0.544,1.739,1.305,2.292,2.28c0.552,0.977,0.828,2.08,0.828,3.313c0,1.231-0.276,2.336-0.828,3.312
			c-0.553,0.977-1.316,1.74-2.292,2.292c-0.977,0.552-2.072,0.828-3.288,0.828C244.101,162.283,243.006,162.007,242.03,161.455z
			 M247.73,160.159c0.711-0.408,1.268-0.988,1.668-1.74c0.399-0.752,0.6-1.607,0.6-2.567c0-0.961-0.2-1.816-0.6-2.568
			c-0.4-0.752-0.957-1.332-1.668-1.74c-0.713-0.408-1.517-0.612-2.412-0.612c-0.896,0-1.7,0.204-2.412,0.612s-1.271,0.988-1.68,1.74
			s-0.612,1.607-0.612,2.568c0,0.96,0.204,1.815,0.612,2.567s0.968,1.332,1.68,1.74s1.516,0.612,2.412,0.612
			C246.214,160.771,247.017,160.567,247.73,160.159z"/>
		<path d="M261.853,161.395c-0.32,0.287-0.716,0.508-1.188,0.659c-0.473,0.152-0.964,0.229-1.477,0.229
			c-1.184,0-2.096-0.32-2.735-0.96s-0.96-1.544-0.96-2.712v-7.632h-2.256v-1.44h2.256v-2.76h1.704v2.76h3.84v1.44h-3.84v7.535
			c0,0.753,0.188,1.324,0.563,1.717c0.376,0.392,0.916,0.588,1.62,0.588c0.353,0,0.692-0.056,1.021-0.168s0.611-0.272,0.852-0.48
			L261.853,161.395z"/>
		<path d="M275.162,150.823c0.936,0.92,1.404,2.26,1.404,4.02v7.32h-1.705v-7.152c0-1.312-0.328-2.312-0.983-3
			c-0.656-0.688-1.593-1.031-2.808-1.031c-1.361,0-2.437,0.404-3.229,1.212s-1.188,1.924-1.188,3.348v6.624h-1.705v-17.808h1.705
			v7.392c0.463-0.735,1.104-1.304,1.92-1.704c0.815-0.399,1.752-0.6,2.808-0.6C272.966,149.443,274.225,149.903,275.162,150.823z"/>
		<path d="M294.133,161.395c-0.32,0.287-0.717,0.508-1.188,0.659c-0.473,0.152-0.965,0.229-1.477,0.229
			c-1.184,0-2.096-0.32-2.736-0.96c-0.64-0.64-0.959-1.544-0.959-2.712v-7.632h-2.256v-1.44h2.256v-2.76h1.703v2.76h3.84v1.44h-3.84
			v7.535c0,0.753,0.188,1.324,0.564,1.717c0.375,0.392,0.916,0.588,1.619,0.588c0.353,0,0.692-0.056,1.021-0.168
			s0.612-0.272,0.853-0.48L294.133,161.395z"/>
		<path d="M307.44,150.823c0.937,0.92,1.404,2.26,1.404,4.02v7.32h-1.704v-7.152c0-1.312-0.328-2.312-0.984-3
			c-0.656-0.688-1.592-1.031-2.808-1.031c-1.36,0-2.437,0.404-3.228,1.212c-0.793,0.808-1.188,1.924-1.188,3.348v6.624h-1.704
			v-17.808h1.704v7.392c0.464-0.735,1.104-1.304,1.92-1.704c0.815-0.399,1.752-0.6,2.808-0.6
			C305.244,149.443,306.504,149.903,307.44,150.823z"/>
		<path d="M324.516,156.379h-10.56c0.096,1.313,0.6,2.372,1.512,3.181c0.912,0.808,2.063,1.212,3.455,1.212
			c0.784,0,1.504-0.141,2.16-0.42c0.656-0.28,1.225-0.692,1.705-1.236l0.959,1.104c-0.561,0.672-1.26,1.185-2.1,1.536
			c-0.84,0.353-1.764,0.528-2.771,0.528c-1.297,0-2.445-0.276-3.444-0.828c-1.001-0.552-1.78-1.315-2.341-2.292
			c-0.56-0.976-0.84-2.08-0.84-3.312c0-1.232,0.268-2.336,0.805-3.313c0.535-0.976,1.271-1.736,2.208-2.28
			c0.936-0.543,1.987-0.815,3.155-0.815s2.217,0.272,3.145,0.815c0.928,0.544,1.656,1.301,2.184,2.269
			c0.528,0.968,0.793,2.076,0.793,3.324L324.516,156.379z M315.36,152.071c-0.824,0.776-1.292,1.788-1.403,3.036h8.951
			c-0.111-1.248-0.58-2.26-1.404-3.036s-1.852-1.164-3.084-1.164C317.204,150.907,316.183,151.295,315.36,152.071z"/>
		<path d="M344.027,150.247c0.961,0.536,1.713,1.292,2.256,2.268c0.544,0.977,0.816,2.089,0.816,3.337
			c0,1.264-0.272,2.384-0.816,3.359c-0.543,0.977-1.292,1.732-2.244,2.269c-0.951,0.536-2.027,0.804-3.228,0.804
			c-1.024,0-1.948-0.212-2.772-0.636s-1.5-1.044-2.027-1.86v7.032h-1.704v-17.28h1.632v2.496c0.512-0.832,1.188-1.472,2.028-1.92
			c0.84-0.448,1.788-0.672,2.844-0.672C341.996,149.443,343.068,149.711,344.027,150.247z M343.092,160.159
			c0.72-0.408,1.283-0.988,1.691-1.74s0.612-1.607,0.612-2.567c0-0.961-0.204-1.813-0.612-2.557s-0.972-1.323-1.691-1.74
			c-0.721-0.415-1.521-0.624-2.4-0.624c-0.896,0-1.7,0.209-2.412,0.624c-0.712,0.417-1.271,0.996-1.68,1.74
			s-0.611,1.596-0.611,2.557c0,0.96,0.203,1.815,0.611,2.567s0.968,1.332,1.68,1.74s1.516,0.612,2.412,0.612
			C341.571,160.771,342.371,160.567,343.092,160.159z"/>
		<path d="M353.999,150.091c0.792-0.432,1.772-0.647,2.94-0.647v1.655l-0.408-0.023c-1.328,0-2.368,0.408-3.12,1.224
			c-0.753,0.816-1.128,1.96-1.128,3.433v6.432h-1.704v-12.624h1.632v2.472C352.611,151.163,353.207,150.523,353.999,150.091z"/>
		<path d="M361.763,161.455c-0.977-0.552-1.744-1.315-2.305-2.292c-0.561-0.976-0.84-2.08-0.84-3.312
			c0-1.232,0.279-2.336,0.84-3.313c0.561-0.976,1.328-1.736,2.305-2.28c0.975-0.543,2.071-0.815,3.287-0.815
			c1.217,0,2.313,0.272,3.289,0.815c0.975,0.544,1.739,1.305,2.291,2.28c0.553,0.977,0.828,2.08,0.828,3.313
			c0,1.231-0.275,2.336-0.828,3.312c-0.552,0.977-1.316,1.74-2.291,2.292c-0.977,0.552-2.072,0.828-3.289,0.828
			C363.835,162.283,362.738,162.007,361.763,161.455z M367.463,160.159c0.712-0.408,1.268-0.988,1.668-1.74s0.6-1.607,0.6-2.567
			c0-0.961-0.199-1.816-0.6-2.568s-0.956-1.332-1.668-1.74s-1.516-0.612-2.412-0.612s-1.699,0.204-2.412,0.612
			c-0.711,0.408-1.271,0.988-1.68,1.74s-0.611,1.607-0.611,2.568c0,0.96,0.203,1.815,0.611,2.567s0.969,1.332,1.68,1.74
			c0.713,0.408,1.516,0.612,2.412,0.612S366.751,160.567,367.463,160.159z"/>
		<path d="M376.822,161.467c-0.983-0.544-1.756-1.308-2.315-2.292c-0.56-0.983-0.84-2.092-0.84-3.323c0-1.232,0.28-2.336,0.84-3.313
			c0.56-0.976,1.332-1.736,2.315-2.28c0.984-0.543,2.101-0.815,3.349-0.815c1.088,0,2.06,0.212,2.916,0.636s1.532,1.044,2.028,1.86
			l-1.272,0.863c-0.416-0.624-0.944-1.092-1.584-1.403c-0.64-0.313-1.336-0.469-2.088-0.469c-0.912,0-1.731,0.204-2.46,0.612
			s-1.296,0.988-1.704,1.74c-0.407,0.752-0.612,1.607-0.612,2.568c0,0.976,0.205,1.836,0.612,2.579
			c0.408,0.744,0.976,1.32,1.704,1.729s1.548,0.612,2.46,0.612c0.752,0,1.448-0.152,2.088-0.456s1.168-0.769,1.584-1.393
			l1.272,0.864c-0.496,0.816-1.176,1.437-2.04,1.86s-1.833,0.636-2.904,0.636C378.923,162.283,377.806,162.01,376.822,161.467z"/>
		<path d="M399.227,156.379h-10.56c0.096,1.313,0.6,2.372,1.512,3.181c0.912,0.808,2.063,1.212,3.456,1.212
			c0.783,0,1.503-0.141,2.159-0.42c0.656-0.28,1.225-0.692,1.704-1.236l0.96,1.104c-0.56,0.672-1.26,1.185-2.1,1.536
			c-0.84,0.353-1.764,0.528-2.772,0.528c-1.296,0-2.443-0.276-3.443-0.828c-1.001-0.552-1.78-1.315-2.341-2.292
			c-0.56-0.976-0.84-2.08-0.84-3.312c0-1.232,0.268-2.336,0.805-3.313c0.535-0.976,1.271-1.736,2.208-2.28
			c0.936-0.543,1.987-0.815,3.156-0.815c1.167,0,2.216,0.272,3.144,0.815c0.928,0.544,1.656,1.301,2.184,2.269
			c0.528,0.968,0.792,2.076,0.792,3.324L399.227,156.379z M390.071,152.071c-0.824,0.776-1.292,1.788-1.403,3.036h8.951
			c-0.112-1.248-0.58-2.26-1.403-3.036c-0.824-0.776-1.853-1.164-3.084-1.164C391.915,150.907,390.895,151.295,390.071,152.071z"/>
		<path d="M403.176,161.839c-0.937-0.296-1.668-0.668-2.196-1.116l0.768-1.344c0.528,0.416,1.192,0.756,1.992,1.021
			c0.8,0.264,1.632,0.396,2.496,0.396c1.152,0,2.004-0.18,2.556-0.54c0.553-0.359,0.828-0.867,0.828-1.523
			c0-0.464-0.152-0.828-0.456-1.093c-0.304-0.264-0.688-0.464-1.151-0.6c-0.465-0.136-1.08-0.268-1.849-0.396
			c-1.023-0.192-1.848-0.389-2.472-0.589c-0.624-0.199-1.156-0.54-1.596-1.02c-0.44-0.48-0.66-1.144-0.66-1.992
			c0-1.056,0.439-1.92,1.32-2.592c0.879-0.672,2.104-1.008,3.672-1.008c0.815,0,1.632,0.107,2.447,0.323
			c0.816,0.217,1.488,0.501,2.017,0.853l-0.744,1.368c-1.04-0.721-2.28-1.08-3.72-1.08c-1.089,0-1.908,0.191-2.46,0.576
			c-0.553,0.384-0.828,0.888-0.828,1.512c0,0.479,0.156,0.864,0.468,1.152c0.313,0.288,0.7,0.5,1.164,0.636s1.104,0.276,1.92,0.42
			c1.008,0.192,1.815,0.384,2.424,0.576c0.608,0.191,1.128,0.52,1.561,0.983c0.432,0.465,0.647,1.104,0.647,1.92
			c0,1.104-0.46,1.98-1.38,2.629c-0.92,0.647-2.196,0.972-3.828,0.972C405.092,162.283,404.111,162.135,403.176,161.839z"/>
		<path d="M414.912,161.839c-0.937-0.296-1.668-0.668-2.196-1.116l0.768-1.344c0.528,0.416,1.192,0.756,1.992,1.021
			c0.8,0.264,1.632,0.396,2.496,0.396c1.152,0,2.004-0.18,2.556-0.54c0.553-0.359,0.828-0.867,0.828-1.523
			c0-0.464-0.152-0.828-0.456-1.093c-0.304-0.264-0.688-0.464-1.151-0.6c-0.465-0.136-1.08-0.268-1.849-0.396
			c-1.023-0.192-1.848-0.389-2.472-0.589c-0.624-0.199-1.156-0.54-1.596-1.02c-0.44-0.48-0.66-1.144-0.66-1.992
			c0-1.056,0.439-1.92,1.32-2.592c0.879-0.672,2.104-1.008,3.672-1.008c0.815,0,1.632,0.107,2.447,0.323
			c0.816,0.217,1.488,0.501,2.017,0.853l-0.744,1.368c-1.04-0.721-2.28-1.08-3.72-1.08c-1.089,0-1.908,0.191-2.46,0.576
			c-0.553,0.384-0.828,0.888-0.828,1.512c0,0.479,0.156,0.864,0.468,1.152c0.313,0.288,0.7,0.5,1.164,0.636s1.104,0.276,1.92,0.42
			c1.008,0.192,1.815,0.384,2.424,0.576c0.608,0.191,1.128,0.52,1.561,0.983c0.432,0.465,0.647,1.104,0.647,1.92
			c0,1.104-0.46,1.98-1.38,2.629c-0.92,0.647-2.196,0.972-3.828,0.972C416.828,162.283,415.847,162.135,414.912,161.839z"/>
		<path d="M432.468,146.419c-0.239-0.24-0.359-0.528-0.359-0.864c0-0.319,0.12-0.6,0.359-0.84c0.24-0.24,0.536-0.359,0.889-0.359
			c0.352,0,0.647,0.116,0.888,0.348c0.24,0.232,0.36,0.508,0.36,0.828c0,0.352-0.12,0.647-0.36,0.888s-0.536,0.36-0.888,0.36
			C433.004,146.779,432.708,146.659,432.468,146.419z M432.492,149.539h1.704v12.624h-1.704V149.539z"/>
		<path d="M439.392,161.839c-0.937-0.296-1.668-0.668-2.196-1.116l0.768-1.344c0.528,0.416,1.192,0.756,1.992,1.021
			c0.8,0.264,1.632,0.396,2.496,0.396c1.152,0,2.004-0.18,2.556-0.54c0.553-0.359,0.828-0.867,0.828-1.523
			c0-0.464-0.152-0.828-0.456-1.093c-0.304-0.264-0.688-0.464-1.151-0.6c-0.465-0.136-1.08-0.268-1.849-0.396
			c-1.023-0.192-1.848-0.389-2.472-0.589c-0.624-0.199-1.156-0.54-1.596-1.02c-0.44-0.48-0.66-1.144-0.66-1.992
			c0-1.056,0.439-1.92,1.32-2.592c0.879-0.672,2.104-1.008,3.672-1.008c0.815,0,1.632,0.107,2.447,0.323
			c0.816,0.217,1.488,0.501,2.017,0.853l-0.744,1.368c-1.04-0.721-2.28-1.08-3.72-1.08c-1.089,0-1.908,0.191-2.46,0.576
			c-0.553,0.384-0.828,0.888-0.828,1.512c0,0.479,0.156,0.864,0.468,1.152c0.313,0.288,0.7,0.5,1.164,0.636s1.104,0.276,1.92,0.42
			c1.008,0.192,1.815,0.384,2.424,0.576c0.608,0.191,1.128,0.52,1.561,0.983c0.432,0.465,0.647,1.104,0.647,1.92
			c0,1.104-0.46,1.98-1.38,2.629c-0.92,0.647-2.196,0.972-3.828,0.972C441.308,162.283,440.328,162.135,439.392,161.839z"/>
		<path d="M449.952,161.899c-0.248-0.256-0.371-0.568-0.371-0.937s0.123-0.676,0.371-0.924s0.548-0.372,0.9-0.372
			c0.352,0,0.656,0.124,0.912,0.372s0.384,0.556,0.384,0.924s-0.128,0.681-0.384,0.937s-0.561,0.384-0.912,0.384
			C450.5,162.283,450.2,162.155,449.952,161.899z"/>
	</g>
	<g>
		<path d="M187.486,214.925h5.502v1.302h-5.502V214.925z"/>
		<path d="M212.056,207.91c1.063,0.896,1.596,2.129,1.596,3.696c0,1.568-0.533,2.797-1.596,3.686
			c-1.064,0.89-2.535,1.333-4.41,1.333h-3.948v4.642h-1.554v-14.7h5.502C209.521,206.566,210.992,207.014,212.056,207.91z
			 M210.943,214.304c0.77-0.637,1.154-1.535,1.154-2.698c0-1.189-0.385-2.103-1.154-2.74c-0.771-0.638-1.883-0.956-3.34-0.956
			h-3.905v7.351h3.905C209.06,215.26,210.173,214.942,210.943,214.304z"/>
		<path d="M223.773,211.219c0.77,0.721,1.155,1.788,1.155,3.201v6.847H223.5v-1.723c-0.336,0.574-0.828,1.022-1.48,1.345
			c-0.65,0.322-1.424,0.483-2.32,0.483c-1.231,0-2.212-0.295-2.939-0.883c-0.729-0.588-1.092-1.364-1.092-2.331
			c0-0.938,0.339-1.693,1.018-2.268c0.68-0.574,1.762-0.861,3.245-0.861h3.507v-0.672c0-0.951-0.266-1.676-0.798-2.174
			c-0.532-0.496-1.31-0.745-2.331-0.745c-0.7,0-1.372,0.116-2.016,0.347c-0.645,0.23-1.197,0.549-1.659,0.955l-0.672-1.113
			c0.56-0.475,1.231-0.843,2.016-1.102c0.784-0.26,1.61-0.389,2.478-0.389C221.897,210.136,223.004,210.497,223.773,211.219z
			 M222.094,219.618c0.602-0.385,1.05-0.941,1.344-1.669v-1.807h-3.465c-1.891,0-2.835,0.658-2.835,1.975
			c0,0.644,0.245,1.151,0.735,1.522s1.176,0.557,2.058,0.557C220.77,220.196,221.492,220.003,222.094,219.618z"/>
		<path d="M231.974,210.703c0.693-0.377,1.551-0.566,2.572-0.566v1.449l-0.357-0.021c-1.162,0-2.072,0.357-2.729,1.071
			c-0.658,0.714-0.987,1.715-0.987,3.003v5.628h-1.49V210.22h1.428v2.163C230.76,211.641,231.281,211.082,231.974,210.703z"/>
		<path d="M243.535,220.594c-0.281,0.252-0.627,0.444-1.04,0.577s-0.844,0.2-1.292,0.2c-1.035,0-1.834-0.28-2.394-0.841
			c-0.56-0.56-0.84-1.351-0.84-2.373v-6.678h-1.974v-1.26h1.974v-2.415h1.491v2.415h3.359v1.26h-3.359v6.594
			c0,0.658,0.164,1.159,0.493,1.502s0.802,0.515,1.417,0.515c0.309,0,0.605-0.049,0.893-0.147c0.287-0.098,0.536-0.237,0.746-0.42
			L243.535,220.594z"/>
		<path d="M246.222,207.49c-0.21-0.209-0.314-0.461-0.314-0.756c0-0.279,0.104-0.525,0.314-0.734
			c0.21-0.211,0.469-0.315,0.777-0.315c0.307,0,0.566,0.102,0.776,0.305s0.315,0.444,0.315,0.724c0,0.309-0.105,0.568-0.315,0.777
			c-0.21,0.211-0.47,0.315-0.776,0.315C246.691,207.805,246.432,207.701,246.222,207.49z M246.244,210.22h1.49v11.046h-1.49V210.22z
			"/>
		<path d="M253.541,220.657c-0.861-0.476-1.537-1.145-2.026-2.005c-0.49-0.861-0.735-1.83-0.735-2.908s0.245-2.045,0.735-2.898
			c0.489-0.854,1.165-1.52,2.026-1.995s1.838-0.714,2.93-0.714c0.951,0,1.803,0.186,2.551,0.557c0.75,0.371,1.341,0.913,1.775,1.627
			l-1.113,0.756c-0.364-0.545-0.826-0.955-1.387-1.229c-0.56-0.272-1.168-0.409-1.826-0.409c-0.799,0-1.516,0.179-2.152,0.536
			c-0.638,0.356-1.135,0.864-1.491,1.521c-0.356,0.658-0.536,1.408-0.536,2.248c0,0.854,0.18,1.605,0.536,2.257
			s0.854,1.155,1.491,1.512c0.637,0.357,1.354,0.536,2.152,0.536c0.658,0,1.267-0.134,1.826-0.399
			c0.561-0.266,1.022-0.672,1.387-1.218l1.113,0.756c-0.435,0.714-1.029,1.257-1.785,1.628s-1.604,0.557-2.541,0.557
			C255.379,221.372,254.402,221.134,253.541,220.657z"/>
		<path d="M263.694,207.49c-0.21-0.209-0.315-0.461-0.315-0.756c0-0.279,0.105-0.525,0.315-0.734
			c0.21-0.211,0.469-0.315,0.776-0.315c0.309,0,0.567,0.102,0.777,0.305s0.314,0.444,0.314,0.724c0,0.309-0.104,0.568-0.314,0.777
			c-0.21,0.211-0.469,0.315-0.777,0.315C264.163,207.805,263.904,207.701,263.694,207.49z M263.715,210.22h1.491v11.046h-1.491
			V210.22z"/>
		<path d="M277.869,210.84c0.84,0.469,1.498,1.131,1.975,1.984c0.475,0.854,0.713,1.827,0.713,2.92c0,1.105-0.238,2.086-0.713,2.939
			c-0.477,0.854-1.131,1.516-1.964,1.984c-0.833,0.47-1.774,0.704-2.825,0.704c-0.896,0-1.704-0.186-2.425-0.557
			c-0.722-0.371-1.313-0.914-1.774-1.628v6.153h-1.491v-15.12h1.428v2.184c0.448-0.728,1.04-1.287,1.774-1.68
			c0.735-0.392,1.564-0.588,2.488-0.588C276.091,210.136,277.029,210.371,277.869,210.84z M277.051,219.512
			c0.629-0.356,1.123-0.864,1.48-1.522c0.356-0.658,0.535-1.406,0.535-2.246s-0.179-1.586-0.535-2.236
			c-0.357-0.652-0.852-1.159-1.48-1.523c-0.631-0.363-1.331-0.546-2.101-0.546c-0.784,0-1.487,0.183-2.11,0.546
			c-0.623,0.364-1.113,0.871-1.471,1.523c-0.356,0.65-0.535,1.396-0.535,2.236s0.179,1.588,0.535,2.246
			c0.357,0.658,0.848,1.166,1.471,1.522c0.623,0.357,1.326,0.536,2.11,0.536C275.719,220.049,276.42,219.87,277.051,219.512z"/>
		<path d="M290.72,211.219c0.77,0.721,1.155,1.788,1.155,3.201v6.847h-1.429v-1.723c-0.336,0.574-0.828,1.022-1.48,1.345
			c-0.65,0.322-1.424,0.483-2.32,0.483c-1.231,0-2.212-0.295-2.939-0.883c-0.729-0.588-1.092-1.364-1.092-2.331
			c0-0.938,0.339-1.693,1.018-2.268c0.68-0.574,1.762-0.861,3.245-0.861h3.507v-0.672c0-0.951-0.266-1.676-0.798-2.174
			c-0.532-0.496-1.31-0.745-2.331-0.745c-0.7,0-1.372,0.116-2.016,0.347c-0.645,0.23-1.197,0.549-1.659,0.955l-0.672-1.113
			c0.56-0.475,1.231-0.843,2.016-1.102c0.784-0.26,1.61-0.389,2.478-0.389C288.844,210.136,289.951,210.497,290.72,211.219z
			 M289.041,219.618c0.602-0.385,1.05-0.941,1.344-1.669v-1.807h-3.465c-1.891,0-2.835,0.658-2.835,1.975
			c0,0.644,0.245,1.151,0.735,1.522s1.176,0.557,2.058,0.557C287.718,220.196,288.439,220.003,289.041,219.618z"/>
		<path d="M304.865,211.344c0.818,0.806,1.229,1.979,1.229,3.518v6.405h-1.492v-6.258c0-1.147-0.287-2.022-0.86-2.625
			c-0.574-0.603-1.394-0.903-2.457-0.903c-1.19,0-2.132,0.354-2.825,1.061c-0.692,0.707-1.039,1.684-1.039,2.93v5.796h-1.49V210.22
			h1.428v2.037c0.406-0.672,0.969-1.193,1.689-1.564c0.722-0.371,1.559-0.557,2.51-0.557
			C302.943,210.136,304.045,210.539,304.865,211.344z"/>
		<path d="M315.963,220.594c-0.28,0.252-0.627,0.444-1.039,0.577c-0.414,0.133-0.844,0.2-1.292,0.2c-1.036,0-1.834-0.28-2.394-0.841
			c-0.561-0.56-0.84-1.351-0.84-2.373v-6.678h-1.975v-1.26h1.975v-2.415h1.49v2.415h3.36v1.26h-3.36v6.594
			c0,0.658,0.164,1.159,0.494,1.502c0.328,0.343,0.801,0.515,1.417,0.515c0.308,0,0.605-0.049,0.893-0.147
			c0.286-0.098,0.536-0.237,0.745-0.42L315.963,220.594z"/>
		<path d="M334.4,207.91c1.064,0.896,1.596,2.129,1.596,3.696c0,1.568-0.531,2.797-1.596,3.686c-1.064,0.89-2.533,1.333-4.41,1.333
			h-3.947v4.642h-1.555v-14.7h5.502C331.867,206.566,333.336,207.014,334.4,207.91z M333.287,214.304
			c0.771-0.637,1.156-1.535,1.156-2.698c0-1.189-0.386-2.103-1.156-2.74c-0.77-0.638-1.883-0.956-3.338-0.956h-3.906v7.351h3.906
			C331.404,215.26,332.517,214.942,333.287,214.304z"/>
		<path d="M342.338,206.566v14.7h-1.512V207.91h-3.465v-1.344H342.338z"/>
	</g>
</g>
</svg>
