<?xml version="1.0" encoding="utf-8"?>
<!-- Generator: Adobe Illustrator 16.0.0, SVG Export Plug-In . SVG Version: 6.00 Build 0)  -->
<!DOCTYPE svg PUBLIC "-//W3C//DTD SVG 1.1//EN" "http://www.w3.org/Graphics/SVG/1.1/DTD/svg11.dtd">
<svg version="1.1" xmlns="http://www.w3.org/2000/svg" xmlns:xlink="http://www.w3.org/1999/xlink" x="0px" y="0px"
	 width="536.032px" height="407.698px" viewBox="0 0 536.032 407.698" enable-background="new 0 0 536.032 407.698"
	 xml:space="preserve">
<g id="图层_1">
	<path fill="#E1E1E1" d="M417.91,247.01c-4.121-0.456-12.734-0.747-21.044-2.496c-13.256-2.783-21.992,1.607-30.858,12.104
		c-49.793,58.98-121.721,59.368-171.823,0.826c-9.305-10.872-17.158-13.082-30.713-8.91c-56.647,17.422-100.962,7.758-113.611-49.54
		c-2.935-13.269-14.269-21.888-25.821-30.13c-26.34-18.794-24.426-61.532-11.86-87.241c12.03-24.619,37.38-36.171,67.339-27.115
		c15.928,4.813,26.058,3.183,38.551-8.46c34.001-31.719,70.325-33.546,109.173-6.185c12.357,8.703,19.491,8.231,30.291-2.187
		c38.662-37.279,77.96-42.204,122.952-15.444c12.903,7.674,25.658,7.146,39.343,7.168c62.398,0.089,111.54,49.204,110.883,110.275
		C530.067,198.881,481.438,247.034,417.91,247.01z"/>
	<path fill-rule="evenodd" clip-rule="evenodd" fill="#F8EFEA" d="M440.158,278.622c-0.103-0.028-0.205-0.058-0.307-0.087
		c0.052,0.09,0.102,0.181,0.152,0.271C440.119,278.799,440.17,278.738,440.158,278.622z"/>
	<g>
		<path fill-rule="evenodd" clip-rule="evenodd" d="M27.561,86.487c0.299,0.652,0.576,1.262,0.873,1.912
			c-1.886,0.911-3.242,2.205-3.574,4.396c0.274,0.088,0.517,0.162,0.757,0.241c3.298,1.093,4.435,5.403,2.026,7.805
			c-1.386,1.382-3.113,1.782-4.97,1.227c-1.964-0.588-3.008-2.075-3.37-4.023c-0.951-5.11,2.523-10.228,7.721-11.434
			C27.177,86.576,27.328,86.541,27.561,86.487z"/>
		<path fill-rule="evenodd" clip-rule="evenodd" d="M40.017,86.482c0.313,0.673,0.598,1.279,0.897,1.921
			c-1.904,0.887-3.233,2.204-3.602,4.409c0.273,0.08,0.54,0.149,0.801,0.238c2.102,0.704,3.359,2.625,3.248,4.955
			c-0.1,2.048-1.518,3.644-3.699,4.159c-2.091,0.492-4.236-0.415-5.23-2.319c-1.305-2.502-1.023-5.042,0.095-7.51
			C33.98,89.127,36.538,87.259,40.017,86.482z"/>
	</g>
	<g>
		<path fill-rule="evenodd" clip-rule="evenodd" d="M505.008,102.307c-0.298-0.653-0.576-1.262-0.873-1.912
			c1.886-0.91,3.241-2.207,3.575-4.396c-0.274-0.088-0.517-0.161-0.757-0.241c-3.298-1.094-4.437-5.403-2.028-7.805
			c1.386-1.383,3.113-1.782,4.971-1.228c1.964,0.588,3.007,2.075,3.37,4.024c0.951,5.11-2.523,10.228-7.721,11.433
			C505.392,102.219,505.242,102.254,505.008,102.307z"/>
		<path fill-rule="evenodd" clip-rule="evenodd" d="M492.551,102.31c-0.313-0.672-0.597-1.278-0.896-1.919
			c1.905-0.887,3.234-2.205,3.602-4.41c-0.274-0.079-0.541-0.149-0.801-0.235c-2.104-0.707-3.358-2.627-3.248-4.957
			c0.1-2.048,1.518-3.645,3.697-4.159c2.093-0.492,4.238,0.415,5.232,2.319c1.306,2.502,1.024,5.043-0.094,7.51
			C498.588,99.668,496.031,101.535,492.551,102.31z"/>
	</g>
	<ellipse fill="#E1E1E1" cx="363.442" cy="306.052" rx="20.491" ry="15.305"/>
	<ellipse fill="#E1E1E1" cx="405.938" cy="328.749" rx="11.491" ry="8.991"/>
</g>
<g id="图层_2">
	<g>
		<path fill-rule="evenodd" clip-rule="evenodd" fill="#425E0B" d="M516.728,389.994c-0.319-5.75-1.03-11.511-0.86-17.246
			c0.21-7.021-3.495-10.905-9.324-13.302c-4.631-1.904-9.432-3.387-14.16-5.047c-1.269-0.445-2.736-1.44-3.771-1.111
			c-0.979,0.311-0.596,2.263-0.975,3.463c-1.592,5.017-4.945,8.123-10.005,9.361c-3.322,0.813-6.735,0.87-10.059,0.236
			c-5.979-1.141-11.381-4.436-11.841-14.234c-7.762,2.581-16.273,3.32-21.549,10.772c-1.46,2.061-2.314,4.303-2.673,6.831
			c-0.878,6.161-1.433,12.371-2.687,18.478c-0.068,0.818-0.08,1.646-0.213,2.455c-0.559,3.397-0.572,3.397,2.738,3.397
			c27.003-0.005,54.006-0.021,81.01-0.004C516.51,394.047,516.51,394.112,516.728,389.994z"/>
		<path fill-rule="evenodd" clip-rule="evenodd" fill="#F3BD95" d="M479.96,346.218c0.434-1.701,0.199-3.436,0.197-5.15
			c-0.002-1.496,0.42-2.351,1.882-3.136c4.782-2.57,9.204-5.63,11.193-11.087c0.103-0.28,0.276-0.543,0.337-0.831
			c0.673-3.214,1.336-6.101,4.619-8.197c3.158-2.016,3.119-6.518,0.67-9.474c-0.864-1.042-0.512-2.116-0.648-3.189
			c-0.823,0.569,0.125,2.331-1.578,2.321c-2.002-0.012-3.135,1.192-3.906,2.874c-0.324,0.707-0.678,1.414-1.647,1.097
			c-0.944-0.309-0.572-1.139-0.513-1.726c0.327-3.206,0.627-6.422,1.141-9.601c0.274-1.694-0.223-2.726-1.676-3.501
			c-2.635-1.405-2.621-1.431-0.873-3.719c1.648-2.156,1.666-3.465-0.01-5.643c-2.327-3.024-4.635-5.318-9.244-4.858
			c-5.777,0.576-11.699,0.156-17.518-0.309c-3.942-0.314-6.473,1.096-8.682,4.202c-2.672,3.756-2.86,3.668,0.193,7.102
			c0.973,1.092,1.306,1.893-0.453,2.291c-3.205,0.728-3.887,2.968-3.902,5.892c-0.014,2.524,0.331,5.086-0.344,7.586
			c0.591,5.647,1.156,11.298,1.777,16.942c0.293,2.648,2.381,4.248,3.871,6.154c2.559,3.281,4.811,6.894,8.724,8.869
			c0.72,0.363,0.862,1.165,0.847,1.968c-0.025,1.353-0.045,2.708,0.006,4.06c0.059,1.521-0.354,2.465-2.043,2.929
			c-2.968,0.814-2.613,2.562-1.68,5.899c1.424,5.088,5.375,6.445,10.152,6.5c4.146,0.048,8.133-0.209,11.042-3.752
			c1.419-1.728,1.995-3.778,2.3-5.933c0.16-1.142-0.631-1.623-1.51-1.94c-1.627-0.588-2.662-1.619-2.789-3.413
			c-3.911-4.461-9.698-3.812-15.101-5.098c1.592-1.205,2.837-0.304,4.062-0.433c3.213-0.34,6.33-0.881,9.269-2.272
			c1.325-0.627,1.605-0.062,1.605,1.237C479.73,342.657,479.393,344.462,479.96,346.218z M460.347,300.211
			c-0.912-0.041-1.825-0.082-2.737-0.123c-1.546,0.233-3.094,0.467-4.64,0.701c-0.675,0.104-1.509,0.726-1.86-0.403
			c-0.302-0.979,0.279-1.695,1.137-1.873c2.254-0.468,4.455-1.35,6.828-1.052c0.891,0.141,1.887-0.308,2.658,0.48
			c0.68,0.396,2.026-0.767,2.121,0.743c0.045,0.709,0.041,1.967-1.315,1.901C461.803,300.55,461.079,300.342,460.347,300.211z
			 M478.315,300.309c-0.475,0-1.594-0.018-2.71,0.005c-0.974,0.02-1.219-0.67-1.466-1.4c-0.285-0.843,0.291-1.149,0.889-1.213
			c3.726-0.397,7.438-0.517,11.008,0.951c0.726,0.298,1.08,0.803,0.807,1.587c-0.253,0.728-0.795,0.701-1.457,0.588
			C483.26,300.464,481.137,300.02,478.315,300.309z M474.991,326.361c-2.367,3.038-4.975,3.978-8.053,3.544
			c-2.177-0.307-4.216-0.986-4.488-3.978C466.421,327.176,470.391,326.975,474.991,326.361z M481.53,307.186
			c-0.021,0.096-0.114,0.84-0.348,1.536c-0.502,1.491-2.215,1.839-3.285,0.707c-1.186-1.25-1.164-4.313,0.014-5.624
			c1.084-1.205,2.09-0.96,2.976,0.182C481.45,304.714,481.606,305.615,481.53,307.186z M456.279,306.638
			c-0.018-1.956,1.049-3.742,2.31-3.582c1.89,0.241,2.24,1.791,2.26,3.352c0.023,1.619-0.199,3.282-2.164,3.681
			C457.402,310.348,456.295,308.651,456.279,306.638z M494.265,309.746c0.817-1.063,1.646-0.915,2.411-0.323
			c1.059,0.819,2.255,1.629,1.902,3.272c-0.273,1.273-3.388,4.462-4.336,4.527c-0.416,0.028-0.969-0.151-0.756-0.482
			c0.829-1.283,0.189-3.532,2.46-3.862c0.589-0.086,1.241-0.006,1.339-0.854c0.088-0.758-0.472-1.072-0.978-1.362
			C495.737,310.335,495.106,310.116,494.265,309.746z"/>
		<path fill-rule="evenodd" clip-rule="evenodd" fill="#C45E3F" d="M449.198,309.162c0.675-2.5,0.33-5.062,0.344-7.586
			c0.016-2.924,0.697-5.164,3.902-5.892c1.759-0.398,1.426-1.199,0.453-2.291c-3.054-3.434-2.865-3.346-0.193-7.102
			c2.209-3.106,4.739-4.517,8.682-4.202c5.818,0.465,11.74,0.885,17.518,0.309c4.609-0.46,6.917,1.834,9.244,4.858
			c1.676,2.178,1.658,3.486,0.01,5.643c-1.748,2.288-1.762,2.313,0.873,3.719c1.453,0.775,1.95,1.807,1.676,3.501
			c-0.514,3.179-0.813,6.395-1.141,9.601c-0.06,0.587-0.432,1.417,0.513,1.726c0.97,0.317,1.323-0.39,1.647-1.097
			c0.771-1.682,1.904-2.886,3.906-2.874c1.703,0.01,0.755-1.752,1.578-2.321c0.676-4.288,1.338-8.578,2.034-12.863
			c0.741-4.559-0.292-8.47-4.032-11.439c-0.979-0.776-1.107-1.889-1.127-3.045c-0.07-4.155-1.693-6.44-5.675-7.826
			c-1.525-0.531-2.821-1.355-3.944-2.483c-3.703-3.723-8.257-4.586-13.105-2.475c-3.233,1.408-5.422,0.308-5.709-3.201
			c-0.189-2.322-1.094-1.754-2.301-0.975c-2.389,1.54-2.941,3.319-2.172,6.868c0.045,0.033,0.1,0.06,0.135,0.103
			c0.014,0.02-0.012,0.072-0.018,0.109c-0.031-0.078-0.059-0.156-0.088-0.234c-1.839,0.147-2.541-1.29-3.334-2.498
			c-0.758-1.15-1.354-1.364-2.687-0.572c-2.554,1.517-2.61,3.898-2.677,6.448c-1.575-0.867-1.102-2.41-1.515-3.778
			c-2.019,0.694-3.009,2.251-3.761,4.04c-0.041,0.305-0.084,0.61-0.127,0.915c0.01,0.288,0.02,0.576,0.029,0.864
			c0.24,1.36-0.234,2.793,0.418,4.112c0.67,1.271,1.099,2.784-0.018,3.782c-2.9,2.587-2.822,5.771-2.258,9.118
			c0.77,4.564,0.744,9.233,1.854,13.754C448.562,305.62,448.846,307.399,449.198,309.162z"/>
		<path fill-rule="evenodd" clip-rule="evenodd" fill="#E1E1E1" d="M516.728,389.994c-0.218,4.118-0.218,4.053-4.368,4.05
			c-27.004-0.017-54.007-0.001-81.01,0.004c-3.311,0-3.297,0-2.738-3.397c0.133-0.809,0.145-1.637,0.213-2.455
			c-4.99,0.02-9.805,0.936-14.378,2.955c-1.166,0.515-2.446,1.251-2.487,2.625c-0.037,1.254,1.257,1.727,2.291,2.206
			c5.162,2.396,10.723,3.179,16.271,3.906c8.666,1.137,17.378,1.572,26.116,1.969c10.797,0.49,21.582,0.345,32.362,0.199
			c7.14-0.097,14.287-0.932,21.397-1.74c6.276-0.714,12.615-1.297,18.607-3.558c1.648-0.622,3.914-1.132,3.738-3.273
			c-0.158-1.937-2.264-2.58-4.016-3.043c-2.523-0.668-5.021-1.425-7.609-1.864C519.325,388.272,517.559,387.527,516.728,389.994z"/>
		<path fill-rule="evenodd" clip-rule="evenodd" fill="#DE9F5F" d="M479.96,346.218c-0.566-1.756-0.229-3.561-0.229-5.338
			c0-1.299-0.28-1.864-1.605-1.237c-2.938,1.392-6.056,1.933-9.269,2.272c-1.225,0.129-2.47-0.772-4.062,0.433
			c5.402,1.286,11.189,0.637,15.101,5.098C479.915,347.035,479.938,346.627,479.96,346.218z"/>
		<path fill-rule="evenodd" clip-rule="evenodd" fill="#C45E3F" d="M478.315,300.309c2.822-0.289,4.945,0.154,7.07,0.518
			c0.662,0.113,1.204,0.14,1.457-0.588c0.273-0.784-0.081-1.289-0.807-1.587c-3.569-1.468-7.282-1.349-11.008-0.951
			c-0.598,0.063-1.174,0.37-0.889,1.213c0.247,0.73,0.492,1.42,1.466,1.4C476.721,300.292,477.841,300.309,478.315,300.309z"/>
		<path fill-rule="evenodd" clip-rule="evenodd" fill="#F8EFEA" d="M474.991,326.361c-4.6,0.614-8.57,0.814-12.541-0.434
			c0.272,2.991,2.312,3.671,4.488,3.978C470.016,330.339,472.624,329.399,474.991,326.361z"/>
		<path fill-rule="evenodd" clip-rule="evenodd" fill="#7C4427" d="M481.53,307.186c0.076-1.571-0.08-2.473-0.644-3.199
			c-0.886-1.142-1.892-1.387-2.976-0.182c-1.178,1.311-1.199,4.374-0.014,5.624c1.07,1.132,2.783,0.784,3.285-0.707
			C481.416,308.026,481.509,307.282,481.53,307.186z"/>
		<path fill-rule="evenodd" clip-rule="evenodd" fill="#7C4427" d="M456.279,306.638c0.016,2.013,1.123,3.71,2.405,3.45
			c1.965-0.398,2.188-2.062,2.164-3.681c-0.02-1.561-0.37-3.11-2.26-3.352C457.328,302.896,456.261,304.682,456.279,306.638z"/>
		<path fill-rule="evenodd" clip-rule="evenodd" fill="#DE9F5F" d="M494.265,309.746c0.841,0.37,1.472,0.589,2.043,0.915
			c0.506,0.29,1.065,0.604,0.978,1.362c-0.098,0.849-0.75,0.769-1.339,0.854c-2.271,0.33-1.631,2.579-2.46,3.862
			c-0.213,0.331,0.34,0.511,0.756,0.482c0.948-0.065,4.063-3.254,4.336-4.527c0.353-1.644-0.844-2.453-1.902-3.272
			C495.911,308.831,495.083,308.683,494.265,309.746z"/>
		<path fill-rule="evenodd" clip-rule="evenodd" fill="#C45E3F" d="M459.075,297.461c-2.373-0.298-4.574,0.584-6.828,1.052
			c-0.857,0.178-1.438,0.895-1.137,1.873c0.352,1.129,1.186,0.507,1.86,0.403c1.546-0.234,3.094-0.468,4.64-0.7
			C457.999,299.157,459.155,298.654,459.075,297.461z"/>
		<path fill-rule="evenodd" clip-rule="evenodd" fill="#C45E3F" d="M459.075,297.461c0.08,1.193-1.076,1.696-1.465,2.628
			c0.912,0.04,1.825,0.081,2.737,0.122c0.298-0.857,1.394-1.225,1.386-2.27C460.962,297.153,459.966,297.601,459.075,297.461z"/>
		<path fill-rule="evenodd" clip-rule="evenodd" fill="#C45E3F" d="M461.733,297.941c0.008,1.045-1.088,1.412-1.386,2.27
			c0.731,0.131,1.456,0.339,2.191,0.375c1.356,0.065,1.36-1.192,1.315-1.901C463.76,297.175,462.413,298.338,461.733,297.941z"/>
		<path fill-rule="evenodd" clip-rule="evenodd" fill="#F8EFEA" d="M462.208,267.691c0.029,0.078,0.057,0.156,0.088,0.234
			c0.006-0.037,0.031-0.09,0.018-0.109c-0.035-0.043-0.09-0.069-0.135-0.103C462.178,267.713,462.208,267.691,462.208,267.691z"/>
	</g>
	<g>
		<path d="M52.815,118.094v6.601h8.688v1.536h-8.688v7.128h-1.776v-16.8h11.52v1.535H52.815z"/>
		<path d="M65.607,117.614c-0.24-0.239-0.36-0.528-0.36-0.864c0-0.319,0.12-0.6,0.36-0.84c0.24-0.24,0.536-0.359,0.888-0.359
			c0.352,0,0.648,0.115,0.888,0.348c0.24,0.232,0.36,0.508,0.36,0.828c0,0.352-0.12,0.648-0.36,0.888
			c-0.24,0.24-0.536,0.36-0.888,0.36C66.142,117.974,65.846,117.854,65.607,117.614z M65.631,120.734h1.704v12.624h-1.704V120.734z"
			/>
		<path d="M82.299,122.018c0.936,0.92,1.404,2.26,1.404,4.021v7.319h-1.704v-7.151c0-1.313-0.328-2.313-0.983-3
			c-0.656-0.688-1.593-1.033-2.809-1.033c-1.36,0-2.436,0.404-3.229,1.213c-0.791,0.808-1.188,1.924-1.188,3.348v6.624h-1.704
			v-12.624h1.632v2.328c0.464-0.768,1.107-1.363,1.932-1.788c0.824-0.424,1.78-0.636,2.869-0.636
			C80.103,120.638,81.363,121.098,82.299,122.018z"/>
		<path d="M99.902,115.551v17.808H98.27v-2.496c-0.513,0.849-1.188,1.496-2.028,1.944s-1.787,0.672-2.844,0.672
			c-1.185,0-2.256-0.272-3.217-0.816c-0.959-0.544-1.711-1.304-2.256-2.279c-0.543-0.977-0.815-2.088-0.815-3.336
			s0.272-2.36,0.815-3.336c0.545-0.977,1.297-1.732,2.256-2.269c0.961-0.536,2.032-0.804,3.217-0.804
			c1.023,0,1.947,0.212,2.771,0.636c0.824,0.425,1.5,1.044,2.028,1.86v-7.584H99.902z M95.929,131.354
			c0.713-0.408,1.272-0.988,1.681-1.74s0.612-1.608,0.612-2.567c0-0.961-0.204-1.816-0.612-2.568s-0.968-1.332-1.681-1.74
			c-0.711-0.408-1.508-0.611-2.387-0.611c-0.896,0-1.701,0.203-2.412,0.611c-0.713,0.408-1.272,0.988-1.681,1.74
			c-0.407,0.752-0.612,1.607-0.612,2.568c0,0.959,0.205,1.815,0.612,2.567c0.408,0.752,0.968,1.332,1.681,1.74
			c0.711,0.408,1.516,0.612,2.412,0.612C94.422,131.967,95.219,131.762,95.929,131.354z"/>
		<path d="M104.631,117.614c-0.24-0.239-0.36-0.528-0.36-0.864c0-0.319,0.12-0.6,0.36-0.84c0.239-0.24,0.535-0.359,0.888-0.359
			c0.352,0,0.647,0.115,0.888,0.348s0.359,0.508,0.359,0.828c0,0.352-0.119,0.648-0.359,0.888c-0.24,0.24-0.536,0.36-0.888,0.36
			C105.166,117.974,104.87,117.854,104.631,117.614z M104.654,120.734h1.704v12.624h-1.704V120.734z"/>
		<path d="M121.322,122.018c0.936,0.92,1.404,2.26,1.404,4.021v7.319h-1.704v-7.151c0-1.313-0.328-2.313-0.983-3
			c-0.656-0.688-1.593-1.033-2.809-1.033c-1.36,0-2.436,0.404-3.229,1.213c-0.791,0.808-1.188,1.924-1.188,3.348v6.624h-1.704
			v-12.624h1.632v2.328c0.464-0.768,1.107-1.363,1.932-1.788c0.824-0.424,1.78-0.636,2.869-0.636
			C119.127,120.638,120.386,121.098,121.322,122.018z"/>
		<path d="M139.094,120.734v11.088c0,2.144-0.524,3.732-1.572,4.764c-1.048,1.032-2.628,1.549-4.74,1.549
			c-1.168,0-2.275-0.173-3.323-0.517s-1.9-0.82-2.556-1.428l0.863-1.296c0.607,0.544,1.348,0.968,2.221,1.271
			c0.871,0.304,1.787,0.456,2.748,0.456c1.6,0,2.775-0.372,3.527-1.115c0.752-0.744,1.128-1.9,1.128-3.469v-1.607
			c-0.528,0.8-1.22,1.408-2.075,1.824c-0.857,0.416-1.805,0.623-2.845,0.623c-1.185,0-2.261-0.26-3.228-0.779
			c-0.969-0.52-1.729-1.248-2.28-2.185c-0.552-0.936-0.828-1.996-0.828-3.18s0.276-2.24,0.828-3.168s1.308-1.648,2.269-2.16
			c0.959-0.512,2.039-0.768,3.239-0.768c1.071,0,2.04,0.216,2.904,0.648c0.864,0.432,1.56,1.055,2.088,1.871v-2.424H139.094z
			 M135.109,130.778c0.736-0.392,1.309-0.939,1.717-1.644s0.611-1.504,0.611-2.4s-0.203-1.691-0.611-2.389
			c-0.408-0.695-0.977-1.239-1.705-1.631c-0.728-0.393-1.556-0.588-2.483-0.588c-0.912,0-1.731,0.191-2.46,0.576
			c-0.729,0.383-1.296,0.928-1.704,1.631c-0.407,0.705-0.612,1.504-0.612,2.4s0.205,1.696,0.612,2.4
			c0.408,0.704,0.976,1.252,1.704,1.644c0.729,0.393,1.548,0.588,2.46,0.588S134.373,131.171,135.109,130.778z"/>
		<path d="M153.578,121.287c0.791-0.433,1.771-0.648,2.939-0.648v1.656l-0.408-0.024c-1.328,0-2.367,0.407-3.119,1.224
			c-0.753,0.816-1.129,1.961-1.129,3.432v6.433h-1.703v-12.624h1.631v2.473C152.189,122.358,152.785,121.719,153.578,121.287z"/>
		<path d="M170.462,127.574h-10.56c0.096,1.313,0.6,2.372,1.512,3.181c0.912,0.808,2.063,1.212,3.455,1.212
			c0.784,0,1.504-0.141,2.16-0.42c0.656-0.28,1.225-0.692,1.705-1.236l0.959,1.104c-0.561,0.672-1.26,1.185-2.1,1.536
			c-0.84,0.353-1.764,0.528-2.771,0.528c-1.297,0-2.445-0.276-3.444-0.828c-1.001-0.552-1.78-1.315-2.341-2.292
			c-0.56-0.976-0.84-2.079-0.84-3.312s0.268-2.336,0.805-3.313c0.535-0.976,1.271-1.736,2.208-2.279
			c0.936-0.545,1.987-0.816,3.155-0.816s2.217,0.271,3.145,0.816c0.928,0.543,1.656,1.299,2.184,2.268
			c0.528,0.968,0.793,2.076,0.793,3.324L170.462,127.574z M161.305,123.266c-0.824,0.776-1.292,1.788-1.403,3.036h8.951
			c-0.111-1.248-0.58-2.26-1.404-3.036s-1.852-1.164-3.084-1.164C163.149,122.102,162.129,122.49,161.305,123.266z"/>
		<path d="M180.613,132.591c-0.32,0.287-0.717,0.508-1.188,0.659c-0.473,0.152-0.965,0.229-1.477,0.229
			c-1.184,0-2.096-0.32-2.736-0.96c-0.64-0.64-0.959-1.544-0.959-2.712v-7.633h-2.256v-1.439h2.256v-2.76h1.703v2.76h3.84v1.439
			h-3.84v7.536c0,0.753,0.188,1.324,0.564,1.717c0.375,0.392,0.916,0.588,1.619,0.588c0.353,0,0.692-0.056,1.021-0.168
			s0.612-0.272,0.853-0.48L180.613,132.591z"/>
		<path d="M195.085,120.734v12.624h-1.632v-2.304c-0.448,0.768-1.064,1.364-1.848,1.788c-0.785,0.424-1.681,0.636-2.688,0.636
			c-1.647,0-2.948-0.46-3.899-1.38c-0.953-0.92-1.429-2.269-1.429-4.044v-7.32h1.704v7.152c0,1.328,0.328,2.336,0.984,3.023
			c0.656,0.688,1.592,1.032,2.808,1.032c1.328,0,2.376-0.404,3.144-1.212c0.769-0.808,1.152-1.932,1.152-3.372v-6.624H195.085z"/>
		<path d="M203.281,121.287c0.791-0.433,1.771-0.648,2.939-0.648v1.656l-0.408-0.024c-1.328,0-2.367,0.407-3.119,1.224
			c-0.753,0.816-1.129,1.961-1.129,3.432v6.433h-1.703v-12.624h1.631v2.473C201.892,122.358,202.488,121.719,203.281,121.287z"/>
		<path d="M219.504,122.018c0.937,0.92,1.404,2.26,1.404,4.021v7.319h-1.703v-7.151c0-1.313-0.328-2.313-0.984-3
			c-0.656-0.688-1.592-1.033-2.809-1.033c-1.359,0-2.436,0.404-3.228,1.213c-0.792,0.808-1.188,1.924-1.188,3.348v6.624h-1.703
			v-12.624h1.631v2.328c0.465-0.768,1.108-1.363,1.933-1.788c0.823-0.424,1.78-0.636,2.868-0.636
			C217.308,120.638,218.568,121.098,219.504,122.018z"/>
		<path d="M241.549,121.442c0.959,0.536,1.711,1.292,2.256,2.269c0.543,0.976,0.815,2.088,0.815,3.336
			c0,1.264-0.272,2.384-0.815,3.359c-0.545,0.977-1.293,1.732-2.244,2.269c-0.953,0.536-2.028,0.804-3.229,0.804
			c-1.023,0-1.948-0.212-2.771-0.636c-0.824-0.424-1.5-1.044-2.028-1.86v7.032h-1.704v-17.28h1.632v2.496
			c0.513-0.832,1.188-1.473,2.028-1.92s1.788-0.672,2.844-0.672C239.515,120.638,240.588,120.906,241.549,121.442z M240.612,131.354
			c0.72-0.408,1.284-0.988,1.692-1.74c0.407-0.752,0.611-1.608,0.611-2.567c0-0.961-0.204-1.813-0.611-2.557
			c-0.408-0.744-0.973-1.324-1.692-1.74s-1.521-0.623-2.4-0.623c-0.896,0-1.7,0.207-2.411,0.623
			c-0.713,0.416-1.272,0.996-1.681,1.74s-0.612,1.596-0.612,2.557c0,0.959,0.204,1.815,0.612,2.567s0.968,1.332,1.681,1.74
			c0.711,0.408,1.516,0.612,2.411,0.612C239.092,131.967,239.892,131.762,240.612,131.354z"/>
		<path d="M249.972,132.65c-0.977-0.552-1.744-1.315-2.305-2.292c-0.561-0.976-0.84-2.079-0.84-3.312s0.279-2.336,0.84-3.313
			c0.561-0.976,1.328-1.736,2.305-2.279c0.975-0.545,2.071-0.816,3.287-0.816c1.217,0,2.313,0.271,3.289,0.816
			c0.975,0.543,1.739,1.304,2.291,2.279c0.553,0.977,0.828,2.08,0.828,3.313s-0.275,2.336-0.828,3.312
			c-0.552,0.977-1.316,1.74-2.291,2.292c-0.977,0.552-2.072,0.828-3.289,0.828C252.044,133.478,250.947,133.202,249.972,132.65z
			 M255.672,131.354c0.712-0.408,1.268-0.988,1.668-1.74s0.6-1.608,0.6-2.567c0-0.961-0.199-1.816-0.6-2.568
			s-0.956-1.332-1.668-1.74s-1.516-0.611-2.412-0.611s-1.699,0.203-2.412,0.611c-0.711,0.408-1.271,0.988-1.68,1.74
			s-0.611,1.607-0.611,2.568c0,0.959,0.203,1.815,0.611,2.567s0.969,1.332,1.68,1.74c0.713,0.408,1.516,0.612,2.412,0.612
			S254.96,131.762,255.672,131.354z"/>
		<path d="M263.148,115.551h1.703v17.808h-1.703V115.551z"/>
		<path d="M269.58,117.614c-0.24-0.239-0.359-0.528-0.359-0.864c0-0.319,0.119-0.6,0.359-0.84s0.535-0.359,0.889-0.359
			c0.352,0,0.647,0.115,0.887,0.348c0.24,0.232,0.36,0.508,0.36,0.828c0,0.352-0.12,0.648-0.36,0.888
			c-0.239,0.24-0.535,0.36-0.887,0.36C270.115,117.974,269.82,117.854,269.58,117.614z M269.603,120.734h1.705v12.624h-1.705
			V120.734z"/>
		<path d="M277.943,132.662c-0.983-0.544-1.756-1.308-2.315-2.292c-0.56-0.983-0.84-2.091-0.84-3.323s0.28-2.336,0.84-3.313
			c0.56-0.976,1.332-1.736,2.315-2.279c0.984-0.545,2.101-0.816,3.349-0.816c1.088,0,2.06,0.212,2.916,0.636
			c0.856,0.425,1.532,1.044,2.028,1.86l-1.272,0.863c-0.416-0.623-0.944-1.092-1.584-1.404c-0.64-0.312-1.336-0.467-2.088-0.467
			c-0.912,0-1.731,0.203-2.46,0.611s-1.296,0.988-1.704,1.74c-0.407,0.752-0.612,1.607-0.612,2.568c0,0.976,0.205,1.836,0.612,2.579
			c0.408,0.744,0.976,1.32,1.704,1.729s1.548,0.612,2.46,0.612c0.752,0,1.448-0.152,2.088-0.456s1.168-0.769,1.584-1.393
			l1.272,0.864c-0.496,0.816-1.176,1.437-2.04,1.86s-1.833,0.636-2.904,0.636C280.044,133.478,278.927,133.206,277.943,132.662z"/>
		<path d="M299.988,120.734l-6.313,14.136c-0.512,1.185-1.104,2.024-1.775,2.521c-0.672,0.495-1.48,0.744-2.424,0.744
			c-0.609,0-1.177-0.097-1.705-0.288c-0.527-0.192-0.983-0.48-1.367-0.864l0.791-1.272c0.641,0.641,1.408,0.96,2.305,0.96
			c0.576,0,1.068-0.159,1.477-0.479c0.407-0.32,0.787-0.864,1.139-1.632l0.553-1.225l-5.641-12.6h1.776l4.752,10.728l4.753-10.728
			H299.988z"/>
		<path d="M311.183,117.47c-0.377,0.4-0.564,0.992-0.564,1.775v1.488h3.889v1.439h-3.84v11.185h-1.705v-11.185h-2.256v-1.439h2.256
			v-1.561c0-1.151,0.332-2.063,0.996-2.735s1.604-1.009,2.82-1.009c0.48,0,0.943,0.068,1.393,0.205
			c0.447,0.136,0.823,0.332,1.127,0.588l-0.576,1.271c-0.496-0.416-1.119-0.623-1.871-0.623
			C312.115,116.871,311.558,117.07,311.183,117.47z"/>
		<path d="M322.15,121.287c0.792-0.433,1.771-0.648,2.939-0.648v1.656l-0.407-0.024c-1.329,0-2.368,0.407-3.12,1.224
			s-1.128,1.961-1.128,3.432v6.433h-1.704v-12.624h1.632v2.473C320.761,122.358,321.358,121.719,322.15,121.287z"/>
		<path d="M329.914,132.65c-0.976-0.552-1.744-1.315-2.304-2.292c-0.56-0.976-0.84-2.079-0.84-3.312s0.28-2.336,0.84-3.313
			c0.56-0.976,1.328-1.736,2.304-2.279c0.977-0.545,2.072-0.816,3.289-0.816c1.215,0,2.311,0.271,3.287,0.816
			c0.977,0.543,1.74,1.304,2.293,2.279c0.551,0.977,0.827,2.08,0.827,3.313s-0.276,2.336-0.827,3.312
			c-0.553,0.977-1.316,1.74-2.293,2.292s-2.072,0.828-3.287,0.828C331.986,133.478,330.89,133.202,329.914,132.65z M335.615,131.354
			c0.711-0.408,1.268-0.988,1.668-1.74c0.398-0.752,0.6-1.608,0.6-2.567c0-0.961-0.201-1.816-0.6-2.568
			c-0.4-0.752-0.957-1.332-1.668-1.74c-0.713-0.408-1.518-0.611-2.412-0.611c-0.896,0-1.701,0.203-2.412,0.611
			c-0.713,0.408-1.272,0.988-1.681,1.74c-0.407,0.752-0.612,1.607-0.612,2.568c0,0.959,0.205,1.815,0.612,2.567
			c0.408,0.752,0.968,1.332,1.681,1.74c0.711,0.408,1.516,0.612,2.412,0.612C334.097,131.967,334.902,131.762,335.615,131.354z"/>
		<path d="M362.566,122.006c0.904,0.912,1.355,2.256,1.355,4.033v7.319h-1.703v-7.151c0-1.313-0.316-2.313-0.948-3
			c-0.632-0.688-1.524-1.033-2.677-1.033c-1.312,0-2.344,0.404-3.096,1.213c-0.752,0.808-1.128,1.924-1.128,3.348v6.624h-1.704
			v-7.151c0-1.313-0.316-2.313-0.947-3c-0.633-0.688-1.533-1.033-2.7-1.033c-1.296,0-2.324,0.404-3.084,1.213
			c-0.761,0.808-1.14,1.924-1.14,3.348v6.624h-1.705v-12.624h1.633v2.305c0.447-0.769,1.071-1.36,1.871-1.777
			c0.801-0.415,1.721-0.623,2.761-0.623c1.056,0,1.972,0.225,2.748,0.672s1.356,1.112,1.739,1.992
			c0.465-0.832,1.133-1.484,2.004-1.957c0.873-0.471,1.869-0.707,2.988-0.707C360.418,120.638,361.662,121.094,362.566,122.006z"/>
		<path d="M389.242,116.558v16.8h-1.752v-7.752h-10.513v7.752h-1.775v-16.8h1.775v7.488h10.513v-7.488H389.242z"/>
		<path d="M405.345,127.574h-10.561c0.097,1.313,0.601,2.372,1.513,3.181c0.912,0.808,2.063,1.212,3.456,1.212
			c0.783,0,1.503-0.141,2.159-0.42c0.656-0.28,1.225-0.692,1.704-1.236l0.96,1.104c-0.56,0.672-1.26,1.185-2.1,1.536
			c-0.84,0.353-1.764,0.528-2.772,0.528c-1.296,0-2.443-0.276-3.443-0.828s-1.78-1.315-2.34-2.292
			c-0.561-0.976-0.841-2.079-0.841-3.312s0.269-2.336,0.805-3.313c0.536-0.976,1.271-1.736,2.208-2.279
			c0.936-0.545,1.987-0.816,3.156-0.816c1.167,0,2.216,0.271,3.144,0.816c0.928,0.543,1.656,1.299,2.184,2.268
			c0.528,0.968,0.792,2.076,0.792,3.324L405.345,127.574z M396.189,123.266c-0.824,0.776-1.292,1.788-1.404,3.036h8.952
			c-0.112-1.248-0.58-2.26-1.403-3.036c-0.824-0.776-1.853-1.164-3.084-1.164C398.033,122.102,397.013,122.49,396.189,123.266z"/>
		<path d="M408.849,115.551h1.704v17.808h-1.704V115.551z"/>
		<path d="M425.025,121.442c0.96,0.536,1.712,1.292,2.256,2.269c0.544,0.976,0.816,2.088,0.816,3.336
			c0,1.264-0.272,2.384-0.816,3.359c-0.544,0.977-1.292,1.732-2.243,2.269c-0.952,0.536-2.028,0.804-3.229,0.804
			c-1.024,0-1.948-0.212-2.771-0.636c-0.824-0.424-1.5-1.044-2.028-1.86v7.032h-1.704v-17.28h1.632v2.496
			c0.512-0.832,1.188-1.473,2.028-1.92s1.788-0.672,2.844-0.672C422.993,120.638,424.065,120.906,425.025,121.442z M424.09,131.354
			c0.72-0.408,1.284-0.988,1.691-1.74c0.408-0.752,0.612-1.608,0.612-2.567c0-0.961-0.204-1.813-0.612-2.557
			c-0.407-0.744-0.972-1.324-1.691-1.74s-1.521-0.623-2.4-0.623c-0.896,0-1.7,0.207-2.412,0.623s-1.271,0.996-1.68,1.74
			s-0.612,1.596-0.612,2.557c0,0.959,0.204,1.815,0.612,2.567s0.968,1.332,1.68,1.74s1.516,0.612,2.412,0.612
			C422.569,131.967,423.37,131.762,424.09,131.354z"/>
		<path d="M450.249,133.622l-2.328-2.399c-1.424,1.52-3.296,2.279-5.615,2.279c-1.089,0-2.061-0.18-2.916-0.54
			c-0.856-0.359-1.524-0.863-2.004-1.512c-0.48-0.647-0.721-1.388-0.721-2.22c0-1.008,0.32-1.912,0.96-2.712s1.729-1.64,3.265-2.521
			c-0.801-0.832-1.353-1.539-1.656-2.123c-0.305-0.584-0.456-1.205-0.456-1.861c0-1.07,0.384-1.936,1.152-2.592
			c0.768-0.655,1.8-0.983,3.096-0.983c1.2,0,2.151,0.296,2.855,0.888s1.057,1.408,1.057,2.448c0,0.832-0.28,1.58-0.84,2.244
			c-0.561,0.664-1.528,1.396-2.904,2.196l4.607,4.752c0.513-0.912,0.889-1.992,1.129-3.24l1.392,0.432
			c-0.304,1.504-0.8,2.793-1.488,3.864l2.4,2.472L450.249,133.622z M446.913,130.19l-5.063-5.208
			c-1.328,0.752-2.244,1.432-2.748,2.04s-0.756,1.288-0.756,2.04c0,0.912,0.371,1.644,1.115,2.196
			c0.744,0.552,1.725,0.827,2.94,0.827C444.257,132.086,445.761,131.454,446.913,130.19z M441.069,118.334
			c-0.473,0.416-0.708,0.969-0.708,1.656c0,0.496,0.128,0.969,0.384,1.416c0.256,0.448,0.76,1.057,1.512,1.824
			c1.216-0.704,2.057-1.304,2.521-1.801c0.464-0.495,0.696-1.039,0.696-1.631c0-0.641-0.217-1.148-0.648-1.524
			s-1.032-0.563-1.8-0.563C442.193,117.711,441.541,117.918,441.069,118.334z"/>
		<path d="M53.835,161.199c-1.336-0.735-2.384-1.756-3.144-3.06c-0.76-1.305-1.14-2.765-1.14-4.381c0-1.615,0.38-3.075,1.14-4.38
			c0.76-1.304,1.812-2.323,3.156-3.06c1.344-0.736,2.848-1.104,4.512-1.104c1.248,0,2.4,0.208,3.456,0.624
			c1.056,0.417,1.952,1.024,2.688,1.824l-1.128,1.128c-1.312-1.328-2.968-1.992-4.968-1.992c-1.328,0-2.536,0.305-3.624,0.912
			c-1.088,0.608-1.94,1.44-2.556,2.496s-0.924,2.24-0.924,3.552c0,1.313,0.308,2.496,0.924,3.553
			c0.616,1.056,1.468,1.888,2.556,2.496c1.088,0.607,2.296,0.911,3.624,0.911c2.016,0,3.672-0.672,4.968-2.016l1.128,1.128
			c-0.736,0.801-1.636,1.412-2.7,1.836c-1.064,0.424-2.22,0.636-3.468,0.636C56.67,162.302,55.17,161.935,53.835,161.199z"/>
		<path d="M69.255,161.451c-0.976-0.552-1.744-1.315-2.304-2.292c-0.56-0.976-0.84-2.08-0.84-3.312c0-1.232,0.28-2.336,0.84-3.313
			c0.56-0.976,1.328-1.736,2.304-2.28c0.976-0.543,2.072-0.815,3.288-0.815c1.216,0,2.312,0.272,3.288,0.815
			c0.976,0.544,1.739,1.305,2.292,2.28c0.552,0.977,0.828,2.08,0.828,3.313c0,1.231-0.276,2.336-0.828,3.312
			c-0.553,0.977-1.316,1.74-2.292,2.292c-0.977,0.552-2.072,0.828-3.288,0.828C71.326,162.279,70.23,162.003,69.255,161.451z
			 M74.955,160.155c0.711-0.408,1.268-0.988,1.668-1.74c0.399-0.752,0.6-1.607,0.6-2.567c0-0.961-0.2-1.816-0.6-2.568
			c-0.4-0.752-0.957-1.332-1.668-1.74c-0.713-0.408-1.517-0.612-2.412-0.612c-0.896,0-1.7,0.204-2.412,0.612s-1.272,0.988-1.68,1.74
			c-0.408,0.752-0.612,1.607-0.612,2.568c0,0.96,0.204,1.815,0.612,2.567c0.408,0.752,0.968,1.332,1.68,1.74
			s1.516,0.612,2.412,0.612C73.438,160.767,74.242,160.563,74.955,160.155z"/>
		<path d="M92.642,150.819c0.936,0.92,1.404,2.26,1.404,4.02v7.32h-1.704v-7.152c0-1.312-0.328-2.312-0.983-3
			c-0.656-0.688-1.593-1.031-2.809-1.031c-1.36,0-2.436,0.404-3.229,1.212c-0.791,0.808-1.188,1.924-1.188,3.348v6.624H82.43
			v-12.624h1.632v2.328c0.464-0.769,1.107-1.364,1.932-1.788s1.78-0.636,2.869-0.636C90.447,149.439,91.707,149.899,92.642,150.819z
			"/>
		<path d="M105.326,161.391c-0.32,0.287-0.717,0.508-1.188,0.659c-0.473,0.152-0.965,0.229-1.477,0.229
			c-1.184,0-2.096-0.32-2.736-0.96c-0.64-0.64-0.959-1.544-0.959-2.712v-7.632h-2.256v-1.44h2.256v-2.76h1.703v2.76h3.84v1.44h-3.84
			v7.535c0,0.753,0.188,1.324,0.564,1.717c0.375,0.392,0.916,0.588,1.619,0.588c0.353,0,0.692-0.056,1.021-0.168
			s0.612-0.272,0.853-0.48L105.326,161.391z"/>
		<path d="M116.63,150.675c0.88,0.824,1.319,2.045,1.319,3.66v7.824h-1.631v-1.968c-0.385,0.656-0.948,1.168-1.692,1.536
			s-1.628,0.552-2.651,0.552c-1.408,0-2.529-0.336-3.361-1.008s-1.248-1.561-1.248-2.664c0-1.072,0.389-1.936,1.164-2.592
			c0.776-0.656,2.013-0.984,3.709-0.984h4.008v-0.769c0-1.087-0.305-1.915-0.912-2.483c-0.608-0.567-1.496-0.853-2.664-0.853
			c-0.801,0-1.568,0.133-2.305,0.396c-0.735,0.264-1.367,0.628-1.896,1.092l-0.769-1.271c0.641-0.544,1.408-0.964,2.305-1.261
			c0.896-0.296,1.84-0.443,2.832-0.443C114.486,149.439,115.75,149.851,116.63,150.675z M114.71,160.275
			c0.688-0.44,1.2-1.076,1.536-1.908v-2.064h-3.96c-2.16,0-3.24,0.753-3.24,2.257c0,0.735,0.28,1.315,0.84,1.739
			c0.56,0.425,1.345,0.637,2.353,0.637C113.197,160.935,114.021,160.716,114.71,160.275z"/>
		<path d="M124.513,161.463c-0.984-0.544-1.756-1.308-2.316-2.292c-0.56-0.983-0.84-2.092-0.84-3.323c0-1.232,0.28-2.336,0.84-3.313
			c0.561-0.976,1.332-1.736,2.316-2.28c0.984-0.543,2.1-0.815,3.348-0.815c1.088,0,2.061,0.212,2.916,0.636
			c0.856,0.424,1.532,1.044,2.028,1.86l-1.272,0.863c-0.416-0.624-0.943-1.092-1.584-1.403c-0.64-0.313-1.336-0.469-2.088-0.469
			c-0.912,0-1.731,0.204-2.459,0.612c-0.729,0.408-1.297,0.988-1.705,1.74c-0.407,0.752-0.611,1.607-0.611,2.568
			c0,0.976,0.204,1.836,0.611,2.579c0.408,0.744,0.977,1.32,1.705,1.729c0.728,0.408,1.547,0.612,2.459,0.612
			c0.752,0,1.448-0.152,2.088-0.456c0.641-0.304,1.168-0.769,1.584-1.393l1.272,0.864c-0.496,0.816-1.176,1.437-2.04,1.86
			c-0.863,0.424-1.832,0.636-2.904,0.636C126.613,162.279,125.498,162.007,124.513,161.463z"/>
		<path d="M142.933,161.391c-0.32,0.287-0.717,0.508-1.188,0.659c-0.473,0.152-0.965,0.229-1.477,0.229
			c-1.184,0-2.096-0.32-2.736-0.96c-0.64-0.64-0.959-1.544-0.959-2.712v-7.632h-2.256v-1.44h2.256v-2.76h1.703v2.76h3.84v1.44h-3.84
			v7.535c0,0.753,0.188,1.324,0.564,1.717c0.375,0.392,0.916,0.588,1.619,0.588c0.353,0,0.692-0.056,1.021-0.168
			s0.612-0.272,0.853-0.48L142.933,161.391z"/>
		<path d="M152.76,161.835c-0.937-0.296-1.668-0.668-2.196-1.116l0.769-1.344c0.528,0.416,1.192,0.756,1.991,1.021
			c0.801,0.264,1.633,0.396,2.496,0.396c1.152,0,2.004-0.18,2.557-0.54c0.552-0.359,0.828-0.867,0.828-1.523
			c0-0.464-0.152-0.828-0.456-1.093c-0.304-0.264-0.688-0.464-1.152-0.6s-1.079-0.268-1.848-0.396
			c-1.024-0.192-1.849-0.389-2.472-0.589c-0.625-0.199-1.156-0.54-1.596-1.02c-0.441-0.48-0.66-1.144-0.66-1.992
			c0-1.056,0.439-1.92,1.319-2.592s2.104-1.008,3.672-1.008c0.816,0,1.632,0.107,2.448,0.323c0.816,0.217,1.488,0.501,2.016,0.853
			l-0.744,1.368c-1.039-0.721-2.279-1.08-3.72-1.08c-1.088,0-1.907,0.191-2.46,0.576c-0.552,0.384-0.828,0.888-0.828,1.512
			c0,0.479,0.156,0.864,0.469,1.152c0.312,0.288,0.699,0.5,1.164,0.636c0.463,0.136,1.104,0.276,1.92,0.42
			c1.008,0.192,1.815,0.384,2.424,0.576c0.607,0.191,1.128,0.52,1.56,0.983c0.433,0.465,0.647,1.104,0.647,1.92
			c0,1.104-0.459,1.98-1.379,2.629c-0.92,0.647-2.196,0.972-3.828,0.972C154.677,162.279,153.697,162.132,152.76,161.835z"/>
		<path d="M175.045,156.375h-10.561c0.096,1.313,0.601,2.372,1.512,3.181c0.912,0.808,2.064,1.212,3.457,1.212
			c0.783,0,1.504-0.141,2.16-0.42c0.655-0.28,1.224-0.692,1.703-1.236l0.961,1.104c-0.561,0.672-1.261,1.185-2.101,1.536
			c-0.84,0.353-1.765,0.528-2.772,0.528c-1.295,0-2.443-0.276-3.443-0.828s-1.78-1.315-2.34-2.292
			c-0.561-0.976-0.84-2.08-0.84-3.312c0-1.232,0.268-2.336,0.804-3.313c0.536-0.976,1.272-1.736,2.208-2.28
			c0.936-0.543,1.988-0.815,3.156-0.815s2.215,0.272,3.144,0.815c0.928,0.544,1.655,1.301,2.185,2.269
			c0.527,0.968,0.791,2.076,0.791,3.324L175.045,156.375z M165.888,152.067c-0.824,0.776-1.292,1.788-1.404,3.036h8.952
			c-0.112-1.248-0.58-2.26-1.403-3.036c-0.824-0.776-1.853-1.164-3.084-1.164C167.732,150.903,166.713,151.291,165.888,152.067z"/>
		<path d="M180.431,161.463c-0.983-0.544-1.756-1.308-2.315-2.292c-0.56-0.983-0.84-2.092-0.84-3.323c0-1.232,0.28-2.336,0.84-3.313
			c0.56-0.976,1.332-1.736,2.315-2.28c0.984-0.543,2.101-0.815,3.349-0.815c1.088,0,2.06,0.212,2.916,0.636s1.532,1.044,2.028,1.86
			l-1.272,0.863c-0.416-0.624-0.944-1.092-1.584-1.403c-0.64-0.313-1.336-0.469-2.088-0.469c-0.912,0-1.731,0.204-2.46,0.612
			s-1.296,0.988-1.704,1.74c-0.407,0.752-0.612,1.607-0.612,2.568c0,0.976,0.205,1.836,0.612,2.579
			c0.408,0.744,0.976,1.32,1.704,1.729s1.548,0.612,2.46,0.612c0.752,0,1.448-0.152,2.088-0.456s1.168-0.769,1.584-1.393
			l1.272,0.864c-0.496,0.816-1.176,1.437-2.04,1.86s-1.833,0.636-2.904,0.636C182.532,162.279,181.416,162.007,180.431,161.463z"/>
		<path d="M198.851,161.391c-0.32,0.287-0.716,0.508-1.188,0.659c-0.473,0.152-0.964,0.229-1.477,0.229
			c-1.184,0-2.096-0.32-2.735-0.96s-0.96-1.544-0.96-2.712v-7.632h-2.256v-1.44h2.256v-2.76h1.704v2.76h3.84v1.44h-3.84v7.535
			c0,0.753,0.188,1.324,0.563,1.717c0.376,0.392,0.916,0.588,1.62,0.588c0.353,0,0.692-0.056,1.021-0.168s0.611-0.272,0.852-0.48
			L198.851,161.391z"/>
		<path d="M201.924,146.415c-0.24-0.24-0.36-0.528-0.36-0.864c0-0.319,0.12-0.6,0.36-0.84c0.239-0.24,0.535-0.359,0.888-0.359
			c0.352,0,0.647,0.116,0.888,0.348c0.24,0.232,0.359,0.508,0.359,0.828c0,0.352-0.119,0.647-0.359,0.888s-0.536,0.36-0.888,0.36
			C202.459,146.775,202.163,146.655,201.924,146.415z M201.947,149.535h1.704v12.624h-1.704V149.535z"/>
		<path d="M210.275,161.451c-0.977-0.552-1.744-1.315-2.305-2.292c-0.56-0.976-0.84-2.08-0.84-3.312c0-1.232,0.28-2.336,0.84-3.313
			c0.561-0.976,1.328-1.736,2.305-2.28c0.976-0.543,2.072-0.815,3.288-0.815s2.312,0.272,3.288,0.815
			c0.976,0.544,1.74,1.305,2.292,2.28c0.552,0.977,0.827,2.08,0.827,3.313c0,1.231-0.275,2.336-0.827,3.312
			c-0.552,0.977-1.316,1.74-2.292,2.292c-0.977,0.552-2.072,0.828-3.288,0.828S211.251,162.003,210.275,161.451z M215.975,160.155
			c0.712-0.408,1.268-0.988,1.668-1.74c0.399-0.752,0.6-1.607,0.6-2.567c0-0.961-0.2-1.816-0.6-2.568
			c-0.4-0.752-0.956-1.332-1.668-1.74s-1.517-0.612-2.412-0.612c-0.896,0-1.7,0.204-2.412,0.612s-1.272,0.988-1.681,1.74
			c-0.407,0.752-0.611,1.607-0.611,2.568c0,0.96,0.204,1.815,0.611,2.567c0.408,0.752,0.969,1.332,1.681,1.74
			s1.516,0.612,2.412,0.612C214.459,160.767,215.263,160.563,215.975,160.155z"/>
		<path d="M233.663,150.819c0.937,0.92,1.404,2.26,1.404,4.02v7.32h-1.704v-7.152c0-1.312-0.328-2.312-0.984-3
			c-0.656-0.688-1.592-1.031-2.808-1.031c-1.36,0-2.437,0.404-3.228,1.212c-0.793,0.808-1.188,1.924-1.188,3.348v6.624h-1.704
			v-12.624h1.632v2.328c0.464-0.769,1.108-1.364,1.933-1.788c0.823-0.424,1.779-0.636,2.867-0.636
			C231.467,149.439,232.726,149.899,233.663,150.819z"/>
		<path d="M245.963,146.415c-0.24-0.24-0.359-0.528-0.359-0.864c0-0.319,0.119-0.6,0.359-0.84s0.536-0.359,0.889-0.359
			c0.352,0,0.648,0.116,0.888,0.348c0.24,0.232,0.36,0.508,0.36,0.828c0,0.352-0.12,0.647-0.36,0.888
			c-0.239,0.24-0.536,0.36-0.888,0.36C246.499,146.775,246.203,146.655,245.963,146.415z M245.987,149.535h1.704v12.624h-1.704
			V149.535z"/>
		<path d="M252.886,161.835c-0.936-0.296-1.668-0.668-2.195-1.116l0.768-1.344c0.528,0.416,1.192,0.756,1.992,1.021
			c0.801,0.264,1.633,0.396,2.496,0.396c1.152,0,2.004-0.18,2.557-0.54c0.551-0.359,0.828-0.867,0.828-1.523
			c0-0.464-0.152-0.828-0.457-1.093c-0.304-0.264-0.688-0.464-1.152-0.6c-0.463-0.136-1.079-0.268-1.848-0.396
			c-1.023-0.192-1.848-0.389-2.472-0.589c-0.624-0.199-1.156-0.54-1.596-1.02c-0.44-0.48-0.66-1.144-0.66-1.992
			c0-1.056,0.44-1.92,1.319-2.592c0.881-0.672,2.104-1.008,3.672-1.008c0.816,0,1.633,0.107,2.449,0.323
			c0.815,0.217,1.487,0.501,2.016,0.853l-0.744,1.368c-1.04-0.721-2.279-1.08-3.721-1.08c-1.088,0-1.907,0.191-2.459,0.576
			c-0.553,0.384-0.828,0.888-0.828,1.512c0,0.479,0.156,0.864,0.468,1.152s0.7,0.5,1.164,0.636s1.104,0.276,1.92,0.42
			c1.009,0.192,1.815,0.384,2.424,0.576c0.608,0.191,1.128,0.52,1.56,0.983c0.433,0.465,0.648,1.104,0.648,1.92
			c0,1.104-0.46,1.98-1.38,2.629c-0.92,0.647-2.196,0.972-3.828,0.972C254.802,162.279,253.823,162.132,252.886,161.835z"/>
		<path fill="#69CE28" d="M270.01,146.847c-0.433-0.4-0.647-0.896-0.647-1.488s0.215-1.088,0.647-1.488
			c0.433-0.399,0.992-0.6,1.681-0.6c0.688,0,1.248,0.191,1.68,0.576c0.432,0.384,0.648,0.863,0.648,1.439
			c0,0.624-0.217,1.14-0.648,1.548s-0.992,0.612-1.68,0.612C271.003,147.447,270.443,147.247,270.01,146.847z M269.818,149.247
			h3.744v12.912h-3.744V149.247z"/>
		<path fill="#69CE28" d="M288.766,150.495c0.983,0.96,1.476,2.385,1.476,4.272v7.392h-3.744v-6.816
			c0-1.023-0.224-1.787-0.672-2.292c-0.447-0.504-1.096-0.756-1.943-0.756c-0.945,0-1.696,0.292-2.256,0.876
			c-0.561,0.585-0.84,1.452-0.84,2.604v6.384h-3.744v-12.912h3.576v1.512c0.495-0.543,1.111-0.963,1.848-1.26
			c0.735-0.296,1.543-0.443,2.424-0.443C286.49,149.055,287.782,149.535,288.766,150.495z"/>
		<path fill="#69CE28" d="M301.955,161.535c-0.369,0.272-0.82,0.477-1.356,0.612s-1.101,0.204-1.692,0.204
			c-1.535,0-2.724-0.393-3.564-1.177c-0.84-0.783-1.26-1.936-1.26-3.456v-5.304h-1.992v-2.88h1.992v-3.144h3.744v3.144h3.217v2.88
			h-3.217v5.256c0,0.544,0.141,0.965,0.42,1.261c0.28,0.296,0.676,0.443,1.188,0.443c0.592,0,1.096-0.159,1.512-0.479
			L301.955,161.535z"/>
		<path fill="#69CE28" d="M317.074,149.247v12.912h-3.552v-1.536c-0.496,0.561-1.089,0.988-1.776,1.284s-1.432,0.444-2.232,0.444
			c-1.695,0-3.039-0.488-4.031-1.465c-0.992-0.976-1.488-2.424-1.488-4.344v-7.296h3.744v6.744c0,2.08,0.872,3.12,2.616,3.12
			c0.896,0,1.616-0.292,2.159-0.876c0.545-0.584,0.816-1.452,0.816-2.604v-6.384H317.074z"/>
		<path fill="#69CE28" d="M320.746,146.847c-0.432-0.4-0.648-0.896-0.648-1.488s0.217-1.088,0.648-1.488
			c0.432-0.399,0.992-0.6,1.68-0.6s1.248,0.191,1.68,0.576c0.433,0.384,0.648,0.863,0.648,1.439c0,0.624-0.216,1.14-0.648,1.548
			c-0.432,0.408-0.992,0.612-1.68,0.612S321.177,147.247,320.746,146.847z M320.554,149.247h3.744v12.912h-3.744V149.247z"/>
		<path fill="#69CE28" d="M336.105,161.535c-0.367,0.272-0.82,0.477-1.355,0.612c-0.537,0.136-1.101,0.204-1.692,0.204
			c-1.536,0-2.724-0.393-3.563-1.177c-0.84-0.783-1.26-1.936-1.26-3.456v-5.304h-1.992v-2.88h1.992v-3.144h3.744v3.144h3.215v2.88
			h-3.215v5.256c0,0.544,0.139,0.965,0.42,1.261c0.279,0.296,0.676,0.443,1.188,0.443c0.592,0,1.096-0.159,1.512-0.479
			L336.105,161.535z"/>
		<path fill="#69CE28" d="M338.41,146.847c-0.433-0.4-0.648-0.896-0.648-1.488s0.216-1.088,0.648-1.488
			c0.432-0.399,0.992-0.6,1.68-0.6s1.248,0.191,1.68,0.576c0.432,0.384,0.648,0.863,0.648,1.439c0,0.624-0.217,1.14-0.648,1.548
			s-0.992,0.612-1.68,0.612S338.842,147.247,338.41,146.847z M338.218,149.247h3.744v12.912h-3.744V149.247z"/>
		<path fill="#69CE28" d="M358.258,149.247l-5.447,12.912h-3.865l-5.424-12.912h3.864l3.576,8.784l3.696-8.784H358.258z"/>
		<path fill="#69CE28" d="M372.01,156.759h-9.768c0.176,0.801,0.592,1.433,1.248,1.896c0.655,0.464,1.471,0.696,2.447,0.696
			c0.672,0,1.268-0.101,1.788-0.301c0.52-0.199,1.004-0.516,1.452-0.947l1.992,2.159c-1.217,1.393-2.992,2.089-5.328,2.089
			c-1.457,0-2.744-0.284-3.864-0.853c-1.12-0.567-1.983-1.355-2.592-2.364c-0.608-1.008-0.912-2.151-0.912-3.432
			c0-1.264,0.3-2.403,0.899-3.42c0.601-1.016,1.424-1.808,2.473-2.376c1.048-0.567,2.22-0.852,3.516-0.852
			c1.264,0,2.408,0.271,3.432,0.815c1.024,0.544,1.828,1.324,2.412,2.34c0.584,1.017,0.877,2.196,0.877,3.54
			C372.082,155.799,372.057,156.135,372.01,156.759z M363.25,152.607c-0.576,0.479-0.929,1.136-1.057,1.968h6.36
			c-0.128-0.816-0.479-1.468-1.056-1.956s-1.281-0.732-2.112-0.732C364.537,151.886,363.826,152.127,363.25,152.607z"/>
		<path d="M376.33,160.035c0.238,0.248,0.359,0.556,0.359,0.924c0,0.192-0.029,0.4-0.084,0.624c-0.057,0.225-0.141,0.48-0.252,0.769
			l-1.008,3.312h-1.152l0.816-3.479c-0.256-0.08-0.465-0.229-0.625-0.444s-0.24-0.476-0.24-0.78c0-0.368,0.121-0.676,0.361-0.924
			s0.543-0.372,0.912-0.372C375.785,159.663,376.09,159.787,376.33,160.035z"/>
		<path d="M394.808,150.675c0.88,0.824,1.32,2.045,1.32,3.66v7.824h-1.632v-1.968c-0.385,0.656-0.948,1.168-1.692,1.536
			s-1.628,0.552-2.652,0.552c-1.408,0-2.528-0.336-3.359-1.008c-0.832-0.672-1.248-1.561-1.248-2.664
			c0-1.072,0.388-1.936,1.164-2.592c0.775-0.656,2.012-0.984,3.708-0.984h4.008v-0.769c0-1.087-0.305-1.915-0.912-2.483
			c-0.608-0.567-1.496-0.853-2.664-0.853c-0.8,0-1.568,0.133-2.304,0.396c-0.736,0.264-1.368,0.628-1.896,1.092l-0.768-1.271
			c0.64-0.544,1.407-0.964,2.304-1.261c0.896-0.296,1.84-0.443,2.832-0.443C392.664,149.439,393.928,149.851,394.808,150.675z
			 M392.888,160.275c0.688-0.44,1.2-1.076,1.536-1.908v-2.064h-3.96c-2.16,0-3.24,0.753-3.24,2.257c0,0.735,0.279,1.315,0.84,1.739
			c0.56,0.425,1.344,0.637,2.353,0.637C391.377,160.935,392.2,160.716,392.888,160.275z"/>
		<path d="M410.972,150.819c0.937,0.92,1.404,2.26,1.404,4.02v7.32h-1.704v-7.152c0-1.312-0.328-2.312-0.984-3
			c-0.656-0.688-1.592-1.031-2.808-1.031c-1.36,0-2.437,0.404-3.229,1.212s-1.188,1.924-1.188,3.348v6.624h-1.704v-12.624h1.632
			v2.328c0.464-0.769,1.108-1.364,1.933-1.788c0.823-0.424,1.779-0.636,2.867-0.636
			C408.776,149.439,410.037,149.899,410.972,150.819z"/>
		<path d="M428.577,144.351v17.808h-1.633v-2.496c-0.512,0.849-1.188,1.496-2.027,1.944s-1.788,0.672-2.845,0.672
			c-1.184,0-2.256-0.272-3.216-0.816s-1.712-1.304-2.256-2.279c-0.544-0.977-0.816-2.089-0.816-3.336
			c0-1.248,0.272-2.36,0.816-3.337c0.544-0.976,1.296-1.731,2.256-2.268s2.032-0.804,3.216-0.804c1.024,0,1.948,0.212,2.772,0.636
			s1.5,1.044,2.028,1.86v-7.584H428.577z M424.604,160.155c0.712-0.408,1.272-0.988,1.68-1.74c0.408-0.752,0.612-1.607,0.612-2.567
			c0-0.961-0.204-1.816-0.612-2.568c-0.407-0.752-0.968-1.332-1.68-1.74s-1.508-0.612-2.388-0.612c-0.896,0-1.7,0.204-2.412,0.612
			s-1.272,0.988-1.68,1.74c-0.408,0.752-0.612,1.607-0.612,2.568c0,0.96,0.204,1.815,0.612,2.567c0.407,0.752,0.968,1.332,1.68,1.74
			s1.516,0.612,2.412,0.612C423.096,160.767,423.892,160.563,424.604,160.155z"/>
		<path d="M439.976,145.359h1.775v16.8h-1.775V145.359z"/>
		<path d="M453.152,144.351h1.704v17.808h-1.704V144.351z"/>
		<path d="M459.584,146.415c-0.239-0.24-0.359-0.528-0.359-0.864c0-0.319,0.12-0.6,0.359-0.84c0.24-0.24,0.536-0.359,0.889-0.359
			c0.352,0,0.647,0.116,0.888,0.348c0.24,0.232,0.36,0.508,0.36,0.828c0,0.352-0.12,0.647-0.36,0.888s-0.536,0.36-0.888,0.36
			C460.12,146.775,459.824,146.655,459.584,146.415z M459.608,149.535h1.704v12.624h-1.704V149.535z"/>
		<path d="M470.744,155.823l-2.976,2.736v3.6h-1.704v-17.808h1.704v12.071l7.536-6.888h2.111l-5.399,5.16l5.904,7.464h-2.089
			L470.744,155.823z"/>
		<path d="M490.976,156.375h-10.561c0.097,1.313,0.601,2.372,1.513,3.181c0.912,0.808,2.063,1.212,3.456,1.212
			c0.783,0,1.503-0.141,2.159-0.42c0.656-0.28,1.225-0.692,1.704-1.236l0.96,1.104c-0.56,0.672-1.26,1.185-2.1,1.536
			c-0.84,0.353-1.764,0.528-2.772,0.528c-1.296,0-2.443-0.276-3.443-0.828s-1.78-1.315-2.34-2.292
			c-0.561-0.976-0.841-2.08-0.841-3.312c0-1.232,0.269-2.336,0.805-3.313c0.536-0.976,1.271-1.736,2.208-2.28
			c0.936-0.543,1.987-0.815,3.156-0.815c1.167,0,2.216,0.272,3.144,0.815c0.928,0.544,1.656,1.301,2.184,2.269
			c0.528,0.968,0.792,2.076,0.792,3.324L490.976,156.375z M481.82,152.067c-0.824,0.776-1.292,1.788-1.404,3.036h8.952
			c-0.112-1.248-0.58-2.26-1.403-3.036c-0.824-0.776-1.853-1.164-3.084-1.164C483.664,150.903,482.644,151.291,481.82,152.067z"/>
		<path d="M57.326,190.191c-0.32,0.287-0.716,0.508-1.188,0.659c-0.472,0.152-0.964,0.229-1.476,0.229
			c-1.184,0-2.096-0.32-2.736-0.96c-0.64-0.64-0.96-1.544-0.96-2.712v-7.632h-2.256v-1.44h2.256v-2.76h1.704v2.76h3.84v1.44h-3.84
			v7.535c0,0.753,0.188,1.324,0.564,1.717c0.375,0.392,0.916,0.588,1.62,0.588c0.352,0,0.692-0.056,1.02-0.168
			s0.612-0.272,0.852-0.48L57.326,190.191z"/>
		<path d="M70.634,179.619c0.936,0.92,1.405,2.26,1.405,4.02v7.32h-1.705v-7.152c0-1.312-0.328-2.312-0.984-3
			c-0.656-0.688-1.592-1.031-2.808-1.031c-1.36,0-2.436,0.404-3.228,1.212s-1.188,1.924-1.188,3.348v6.624h-1.704v-17.808h1.704
			v7.392c0.464-0.735,1.104-1.304,1.92-1.704c0.816-0.399,1.752-0.6,2.808-0.6C68.438,178.239,69.698,178.699,70.634,179.619z"/>
		<path d="M87.71,185.175H77.15c0.096,1.313,0.6,2.372,1.512,3.181c0.912,0.808,2.063,1.212,3.455,1.212
			c0.784,0,1.504-0.141,2.16-0.42c0.656-0.28,1.225-0.692,1.705-1.236l0.959,1.104c-0.561,0.672-1.26,1.185-2.1,1.536
			c-0.84,0.353-1.764,0.528-2.771,0.528c-1.297,0-2.445-0.276-3.444-0.828c-1.001-0.552-1.78-1.315-2.341-2.292
			c-0.56-0.976-0.84-2.08-0.84-3.312c0-1.232,0.268-2.336,0.805-3.313c0.535-0.976,1.271-1.736,2.208-2.28
			c0.936-0.543,1.987-0.815,3.155-0.815s2.217,0.272,3.145,0.815c0.928,0.544,1.656,1.301,2.184,2.269
			c0.528,0.968,0.793,2.076,0.793,3.324L87.71,185.175z M78.553,180.867c-0.824,0.776-1.292,1.788-1.403,3.036h8.951
			c-0.111-1.248-0.58-2.26-1.404-3.036s-1.852-1.164-3.084-1.164C80.397,179.703,79.377,180.091,78.553,180.867z"/>
		<path fill="#69CE28" d="M98.052,190.755c-1.023-0.264-1.84-0.596-2.447-0.996l1.248-2.688c0.576,0.368,1.271,0.668,2.088,0.899
			c0.815,0.232,1.615,0.349,2.399,0.349c1.584,0,2.376-0.393,2.376-1.177c0-0.367-0.216-0.632-0.648-0.792
			c-0.432-0.159-1.096-0.296-1.991-0.407c-1.056-0.16-1.929-0.345-2.616-0.553c-0.688-0.207-1.284-0.575-1.788-1.104
			s-0.756-1.28-0.756-2.256c0-0.816,0.235-1.54,0.708-2.172c0.472-0.632,1.16-1.124,2.064-1.477
			c0.903-0.352,1.971-0.527,3.203-0.527c0.912,0,1.82,0.1,2.725,0.3c0.903,0.2,1.652,0.476,2.244,0.828l-1.248,2.664
			c-1.137-0.641-2.377-0.961-3.721-0.961c-0.8,0-1.4,0.112-1.8,0.337c-0.399,0.224-0.6,0.512-0.6,0.863
			c0,0.4,0.216,0.681,0.647,0.84c0.433,0.16,1.12,0.313,2.064,0.456c1.057,0.177,1.92,0.364,2.592,0.564s1.256,0.563,1.752,1.092
			s0.744,1.265,0.744,2.208c0,0.801-0.24,1.512-0.72,2.136c-0.48,0.624-1.181,1.108-2.101,1.452s-2.012,0.517-3.275,0.517
			C100.125,191.151,99.076,191.018,98.052,190.755z"/>
		<path fill="#69CE28" d="M122.173,185.558h-9.769c0.176,0.801,0.592,1.433,1.248,1.896s1.473,0.696,2.448,0.696
			c0.672,0,1.269-0.101,1.788-0.301c0.52-0.199,1.004-0.516,1.452-0.947l1.991,2.159c-1.215,1.393-2.992,2.089-5.327,2.089
			c-1.456,0-2.745-0.284-3.864-0.853c-1.12-0.567-1.984-1.355-2.592-2.364c-0.608-1.008-0.912-2.151-0.912-3.432
			c0-1.264,0.3-2.403,0.9-3.42c0.6-1.016,1.424-1.808,2.472-2.376c1.048-0.567,2.22-0.852,3.516-0.852
			c1.265,0,2.408,0.271,3.433,0.815c1.023,0.544,1.827,1.324,2.412,2.34c0.584,1.017,0.875,2.196,0.875,3.54
			C122.244,184.598,122.22,184.934,122.173,185.558z M113.412,181.407c-0.576,0.479-0.928,1.136-1.056,1.968h6.36
			c-0.129-0.816-0.48-1.468-1.057-1.956s-1.279-0.732-2.111-0.732C114.7,180.686,113.988,180.927,113.412,181.407z"/>
		<path fill="#69CE28" d="M134.197,179.283c1.071,0.952,1.607,2.388,1.607,4.308v7.368h-3.504v-1.608
			c-0.704,1.2-2.016,1.801-3.936,1.801c-0.992,0-1.853-0.168-2.58-0.504c-0.729-0.337-1.284-0.801-1.668-1.393
			c-0.385-0.592-0.576-1.264-0.576-2.016c0-1.2,0.451-2.145,1.355-2.832c0.904-0.688,2.301-1.032,4.188-1.032h2.976
			c0-0.816-0.248-1.443-0.744-1.884s-1.24-0.66-2.231-0.66c-0.688,0-1.364,0.108-2.028,0.324s-1.229,0.508-1.691,0.876l-1.344-2.616
			c0.703-0.496,1.547-0.88,2.531-1.152c0.984-0.271,1.996-0.407,3.036-0.407C131.589,177.855,133.125,178.331,134.197,179.283z
			 M131.005,188.186c0.495-0.296,0.848-0.731,1.056-1.308v-1.32h-2.568c-1.535,0-2.303,0.504-2.303,1.513
			c0,0.479,0.188,0.86,0.563,1.14c0.376,0.28,0.892,0.42,1.548,0.42C129.94,188.631,130.509,188.483,131.005,188.186z"/>
		<path fill="#69CE28" d="M144.576,178.335c0.76-0.32,1.637-0.479,2.629-0.479v3.455c-0.417-0.031-0.697-0.048-0.841-0.048
			c-1.071,0-1.912,0.3-2.521,0.9c-0.607,0.6-0.911,1.5-0.911,2.7v6.096h-3.744v-12.912h3.576v1.704
			C143.213,179.127,143.816,178.655,144.576,178.335z"/>
		<path fill="#69CE28" d="M151.847,190.299c-1.096-0.567-1.951-1.355-2.567-2.364c-0.616-1.008-0.924-2.151-0.924-3.432
			s0.308-2.424,0.924-3.432c0.616-1.009,1.472-1.796,2.567-2.364c1.097-0.567,2.332-0.852,3.709-0.852
			c1.359,0,2.547,0.284,3.564,0.852c1.016,0.568,1.755,1.38,2.219,2.436l-2.903,1.561c-0.673-1.184-1.641-1.776-2.904-1.776
			c-0.976,0-1.784,0.32-2.424,0.96c-0.64,0.641-0.96,1.513-0.96,2.616c0,1.104,0.32,1.977,0.96,2.616s1.448,0.96,2.424,0.96
			c1.28,0,2.248-0.592,2.904-1.776l2.903,1.584c-0.464,1.024-1.203,1.824-2.219,2.4c-1.018,0.576-2.205,0.864-3.564,0.864
			C154.179,191.151,152.944,190.867,151.847,190.299z"/>
		<path fill="#69CE28" d="M175.128,179.295c0.983,0.96,1.476,2.385,1.476,4.272v7.392h-3.744v-6.816
			c0-1.023-0.224-1.787-0.672-2.292c-0.447-0.504-1.096-0.756-1.943-0.756c-0.945,0-1.696,0.292-2.256,0.876
			c-0.561,0.585-0.84,1.452-0.84,2.604v6.384h-3.744v-17.808h3.744v6.239c0.495-0.495,1.096-0.876,1.799-1.14
			c0.705-0.264,1.473-0.396,2.305-0.396C172.851,177.855,174.143,178.335,175.128,179.295z"/>
		<path fill="#69CE28" d="M197.687,178.682c0.984,0.553,1.756,1.329,2.316,2.328c0.56,1,0.84,2.164,0.84,3.492
			s-0.28,2.492-0.84,3.492c-0.561,1-1.332,1.775-2.316,2.328c-0.984,0.552-2.076,0.828-3.275,0.828
			c-1.776,0-3.129-0.561-4.057-1.681v1.488h-3.576v-17.808h3.744v6.264c0.944-1.04,2.24-1.56,3.889-1.56
			C195.611,177.855,196.703,178.131,197.687,178.682z M196.128,187.107c0.616-0.648,0.924-1.517,0.924-2.604
			s-0.308-1.956-0.924-2.604c-0.616-0.648-1.404-0.973-2.364-0.973s-1.748,0.324-2.363,0.973c-0.617,0.647-0.925,1.516-0.925,2.604
			s0.308,1.956,0.925,2.604c0.615,0.647,1.403,0.972,2.363,0.972S195.511,187.755,196.128,187.107z"/>
		<path fill="#69CE28" d="M212.939,179.283c1.072,0.952,1.608,2.388,1.608,4.308v7.368h-3.504v-1.608
			c-0.704,1.2-2.017,1.801-3.937,1.801c-0.992,0-1.852-0.168-2.58-0.504c-0.728-0.337-1.283-0.801-1.668-1.393
			c-0.383-0.592-0.575-1.264-0.575-2.016c0-1.2,0.452-2.145,1.356-2.832c0.903-0.688,2.299-1.032,4.188-1.032h2.977
			c0-0.816-0.249-1.443-0.744-1.884c-0.496-0.44-1.24-0.66-2.232-0.66c-0.688,0-1.364,0.108-2.028,0.324s-1.228,0.508-1.692,0.876
			l-1.344-2.616c0.704-0.496,1.549-0.88,2.532-1.152c0.983-0.271,1.995-0.407,3.036-0.407
			C210.332,177.855,211.867,178.331,212.939,179.283z M209.748,188.186c0.496-0.296,0.848-0.731,1.057-1.308v-1.32h-2.568
			c-1.536,0-2.305,0.504-2.305,1.513c0,0.479,0.188,0.86,0.564,1.14c0.375,0.28,0.892,0.42,1.548,0.42
			C208.683,188.631,209.252,188.483,209.748,188.186z"/>
		<path fill="#69CE28" d="M223.32,178.335c0.76-0.32,1.635-0.479,2.627-0.479v3.455c-0.416-0.031-0.695-0.048-0.84-0.048
			c-1.072,0-1.912,0.3-2.52,0.9c-0.608,0.6-0.912,1.5-0.912,2.7v6.096h-3.744v-12.912h3.576v1.704
			C221.955,179.127,222.559,178.655,223.32,178.335z"/>
		<path d="M235.187,175.215c-0.24-0.24-0.36-0.528-0.36-0.864c0-0.319,0.12-0.6,0.36-0.84c0.239-0.24,0.535-0.359,0.888-0.359
			c0.352,0,0.647,0.116,0.888,0.348c0.24,0.232,0.359,0.508,0.359,0.828c0,0.352-0.119,0.647-0.359,0.888s-0.536,0.36-0.888,0.36
			C235.722,175.575,235.427,175.455,235.187,175.215z M235.211,178.335h1.704v12.624h-1.704V178.335z"/>
		<path d="M251.879,179.619c0.936,0.92,1.404,2.26,1.404,4.02v7.32h-1.704v-7.152c0-1.312-0.328-2.312-0.983-3
			c-0.656-0.688-1.593-1.031-2.809-1.031c-1.36,0-2.436,0.404-3.229,1.212c-0.791,0.808-1.188,1.924-1.188,3.348v6.624h-1.704
			v-12.624h1.632v2.328c0.464-0.769,1.107-1.364,1.932-1.788s1.78-0.636,2.869-0.636
			C249.683,178.239,250.943,178.699,251.879,179.619z"/>
		<path d="M270.849,190.191c-0.32,0.287-0.716,0.508-1.188,0.659c-0.473,0.152-0.964,0.229-1.477,0.229
			c-1.184,0-2.096-0.32-2.735-0.96s-0.96-1.544-0.96-2.712v-7.632h-2.256v-1.44h2.256v-2.76h1.704v2.76h3.84v1.44h-3.84v7.535
			c0,0.753,0.188,1.324,0.563,1.717c0.376,0.392,0.916,0.588,1.62,0.588c0.353,0,0.692-0.056,1.021-0.168s0.611-0.272,0.852-0.48
			L270.849,190.191z"/>
		<path d="M284.158,179.619c0.936,0.92,1.404,2.26,1.404,4.02v7.32h-1.705v-7.152c0-1.312-0.328-2.312-0.983-3
			c-0.656-0.688-1.593-1.031-2.808-1.031c-1.361,0-2.437,0.404-3.229,1.212s-1.188,1.924-1.188,3.348v6.624h-1.705v-17.808h1.705
			v7.392c0.463-0.735,1.104-1.304,1.92-1.704c0.815-0.399,1.752-0.6,2.808-0.6C281.962,178.239,283.221,178.699,284.158,179.619z"/>
		<path d="M298.401,179.474c0.88,0.824,1.319,2.045,1.319,3.66v7.824h-1.631v-1.968c-0.385,0.656-0.948,1.168-1.692,1.536
			s-1.628,0.552-2.651,0.552c-1.408,0-2.529-0.336-3.361-1.008s-1.248-1.561-1.248-2.664c0-1.072,0.389-1.936,1.164-2.592
			c0.776-0.656,2.013-0.984,3.709-0.984h4.008v-0.769c0-1.087-0.305-1.915-0.912-2.483c-0.608-0.567-1.496-0.853-2.664-0.853
			c-0.801,0-1.568,0.133-2.305,0.396c-0.735,0.264-1.367,0.628-1.896,1.092l-0.769-1.271c0.641-0.544,1.408-0.964,2.305-1.261
			c0.896-0.296,1.84-0.443,2.832-0.443C296.258,178.239,297.521,178.651,298.401,179.474z M296.481,189.075
			c0.688-0.44,1.2-1.076,1.536-1.908v-2.064h-3.96c-2.16,0-3.24,0.753-3.24,2.257c0,0.735,0.28,1.315,0.84,1.739
			c0.56,0.425,1.345,0.637,2.353,0.637C294.969,189.735,295.793,189.515,296.481,189.075z"/>
		<path d="M311.002,190.191c-0.32,0.287-0.717,0.508-1.188,0.659c-0.472,0.152-0.964,0.229-1.476,0.229
			c-1.185,0-2.097-0.32-2.736-0.96c-0.641-0.64-0.96-1.544-0.96-2.712v-7.632h-2.256v-1.44h2.256v-2.76h1.704v2.76h3.84v1.44h-3.84
			v7.535c0,0.753,0.188,1.324,0.564,1.717c0.375,0.392,0.915,0.588,1.619,0.588c0.352,0,0.691-0.056,1.02-0.168
			s0.613-0.272,0.853-0.48L311.002,190.191z"/>
		<path d="M320.828,190.635c-0.936-0.296-1.668-0.668-2.195-1.116l0.768-1.344c0.528,0.416,1.192,0.756,1.992,1.021
			c0.801,0.264,1.633,0.396,2.496,0.396c1.152,0,2.004-0.18,2.557-0.54c0.551-0.359,0.828-0.867,0.828-1.523
			c0-0.464-0.152-0.828-0.457-1.093c-0.304-0.264-0.688-0.464-1.152-0.6c-0.463-0.136-1.079-0.268-1.848-0.396
			c-1.023-0.192-1.848-0.389-2.472-0.589c-0.624-0.199-1.156-0.54-1.596-1.02c-0.44-0.48-0.66-1.144-0.66-1.992
			c0-1.056,0.44-1.92,1.319-2.592c0.881-0.672,2.104-1.008,3.672-1.008c0.816,0,1.633,0.107,2.449,0.323
			c0.815,0.217,1.487,0.501,2.016,0.853l-0.744,1.368c-1.04-0.721-2.279-1.08-3.721-1.08c-1.088,0-1.907,0.191-2.459,0.576
			c-0.553,0.384-0.828,0.888-0.828,1.512c0,0.479,0.156,0.864,0.468,1.152s0.7,0.5,1.164,0.636s1.104,0.276,1.92,0.42
			c1.009,0.192,1.815,0.384,2.424,0.576c0.608,0.191,1.128,0.52,1.56,0.983c0.433,0.465,0.648,1.104,0.648,1.92
			c0,1.104-0.46,1.98-1.38,2.629c-0.92,0.647-2.196,0.972-3.828,0.972C322.744,191.079,321.764,190.931,320.828,190.635z"/>
		<path d="M343.113,185.175h-10.561c0.096,1.313,0.6,2.372,1.512,3.181c0.912,0.808,2.064,1.212,3.456,1.212
			c0.784,0,1.504-0.141,2.16-0.42c0.655-0.28,1.224-0.692,1.704-1.236l0.96,1.104c-0.561,0.672-1.261,1.185-2.101,1.536
			c-0.84,0.353-1.764,0.528-2.771,0.528c-1.296,0-2.444-0.276-3.443-0.828c-1.001-0.552-1.781-1.315-2.341-2.292
			c-0.56-0.976-0.84-2.08-0.84-3.312c0-1.232,0.268-2.336,0.804-3.313c0.536-0.976,1.272-1.736,2.209-2.28
			c0.936-0.543,1.987-0.815,3.155-0.815s2.216,0.272,3.144,0.815c0.928,0.544,1.656,1.301,2.185,2.269s0.792,2.076,0.792,3.324
			L343.113,185.175z M333.957,180.867c-0.824,0.776-1.293,1.788-1.404,3.036h8.951c-0.111-1.248-0.58-2.26-1.403-3.036
			c-0.824-0.776-1.853-1.164-3.084-1.164C335.801,179.703,334.78,180.091,333.957,180.867z"/>
		<path d="M348.5,190.262c-0.984-0.544-1.756-1.308-2.316-2.292c-0.56-0.983-0.84-2.092-0.84-3.323c0-1.232,0.28-2.336,0.84-3.313
			c0.561-0.976,1.332-1.736,2.316-2.28c0.984-0.543,2.1-0.815,3.348-0.815c1.088,0,2.061,0.212,2.916,0.636
			c0.856,0.424,1.532,1.044,2.028,1.86l-1.272,0.863c-0.416-0.624-0.943-1.092-1.584-1.403c-0.64-0.313-1.336-0.469-2.088-0.469
			c-0.912,0-1.731,0.204-2.459,0.612c-0.729,0.408-1.297,0.988-1.705,1.74c-0.407,0.752-0.611,1.607-0.611,2.568
			c0,0.976,0.204,1.836,0.611,2.579c0.408,0.744,0.977,1.32,1.705,1.729c0.728,0.408,1.547,0.612,2.459,0.612
			c0.752,0,1.448-0.152,2.088-0.456c0.641-0.304,1.168-0.769,1.584-1.393l1.272,0.864c-0.496,0.816-1.176,1.437-2.04,1.86
			c-0.863,0.424-1.832,0.636-2.904,0.636C350.599,191.079,349.484,190.806,348.5,190.262z"/>
		<path d="M366.92,190.191c-0.32,0.287-0.717,0.508-1.188,0.659c-0.473,0.152-0.965,0.229-1.477,0.229
			c-1.184,0-2.096-0.32-2.736-0.96c-0.64-0.64-0.959-1.544-0.959-2.712v-7.632h-2.256v-1.44h2.256v-2.76h1.703v2.76h3.84v1.44h-3.84
			v7.535c0,0.753,0.188,1.324,0.564,1.717c0.375,0.392,0.916,0.588,1.619,0.588c0.353,0,0.692-0.056,1.021-0.168
			s0.612-0.272,0.853-0.48L366.92,190.191z"/>
		<path d="M369.992,175.215c-0.24-0.24-0.36-0.528-0.36-0.864c0-0.319,0.12-0.6,0.36-0.84c0.239-0.24,0.535-0.359,0.888-0.359
			c0.352,0,0.647,0.116,0.888,0.348c0.24,0.232,0.359,0.508,0.359,0.828c0,0.352-0.119,0.647-0.359,0.888s-0.536,0.36-0.888,0.36
			C370.527,175.575,370.231,175.455,369.992,175.215z M370.015,178.335h1.704v12.624h-1.704V178.335z"/>
		<path d="M378.343,190.251c-0.977-0.552-1.744-1.315-2.304-2.292c-0.561-0.976-0.841-2.08-0.841-3.312
			c0-1.232,0.28-2.336,0.841-3.313c0.56-0.976,1.327-1.736,2.304-2.28c0.976-0.543,2.072-0.815,3.288-0.815s2.312,0.272,3.288,0.815
			c0.976,0.544,1.74,1.305,2.292,2.28c0.552,0.977,0.828,2.08,0.828,3.313c0,1.231-0.276,2.336-0.828,3.312
			c-0.552,0.977-1.316,1.74-2.292,2.292c-0.977,0.552-2.072,0.828-3.288,0.828S379.318,190.802,378.343,190.251z M384.043,188.955
			c0.712-0.408,1.268-0.988,1.668-1.74c0.399-0.752,0.6-1.607,0.6-2.567c0-0.961-0.2-1.816-0.6-2.568
			c-0.4-0.752-0.956-1.332-1.668-1.74s-1.517-0.612-2.412-0.612c-0.896,0-1.7,0.204-2.412,0.612s-1.272,0.988-1.68,1.74
			c-0.408,0.752-0.612,1.607-0.612,2.568c0,0.96,0.204,1.815,0.612,2.567c0.407,0.752,0.968,1.332,1.68,1.74
			s1.516,0.612,2.412,0.612C382.526,189.567,383.331,189.363,384.043,188.955z"/>
		<path d="M401.73,179.619c0.937,0.92,1.404,2.26,1.404,4.02v7.32h-1.704v-7.152c0-1.312-0.328-2.312-0.984-3
			c-0.656-0.688-1.592-1.031-2.808-1.031c-1.36,0-2.437,0.404-3.229,1.212s-1.188,1.924-1.188,3.348v6.624h-1.704v-12.624h1.632
			v2.328c0.464-0.769,1.108-1.364,1.933-1.788c0.823-0.424,1.779-0.636,2.867-0.636C399.534,178.239,400.795,178.699,401.73,179.619
			z"/>
		<path d="M420.703,190.191c-0.32,0.287-0.717,0.508-1.188,0.659c-0.472,0.152-0.964,0.229-1.476,0.229
			c-1.185,0-2.097-0.32-2.736-0.96c-0.641-0.64-0.96-1.544-0.96-2.712v-7.632h-2.256v-1.44h2.256v-2.76h1.704v2.76h3.84v1.44h-3.84
			v7.535c0,0.753,0.188,1.324,0.563,1.717c0.376,0.392,0.916,0.588,1.62,0.588c0.352,0,0.692-0.056,1.021-0.168
			c0.327-0.112,0.611-0.272,0.852-0.48L420.703,190.191z"/>
		<path d="M425.215,190.251c-0.977-0.552-1.744-1.315-2.304-2.292c-0.561-0.976-0.841-2.08-0.841-3.312
			c0-1.232,0.28-2.336,0.841-3.313c0.56-0.976,1.327-1.736,2.304-2.28c0.976-0.543,2.072-0.815,3.288-0.815s2.312,0.272,3.288,0.815
			c0.976,0.544,1.74,1.305,2.292,2.28c0.552,0.977,0.828,2.08,0.828,3.313c0,1.231-0.276,2.336-0.828,3.312
			c-0.552,0.977-1.316,1.74-2.292,2.292c-0.977,0.552-2.072,0.828-3.288,0.828S426.19,190.802,425.215,190.251z M430.915,188.955
			c0.712-0.408,1.268-0.988,1.668-1.74c0.399-0.752,0.6-1.607,0.6-2.567c0-0.961-0.2-1.816-0.6-2.568
			c-0.4-0.752-0.956-1.332-1.668-1.74s-1.517-0.612-2.412-0.612c-0.896,0-1.7,0.204-2.412,0.612s-1.272,0.988-1.68,1.74
			c-0.408,0.752-0.612,1.607-0.612,2.568c0,0.96,0.204,1.815,0.612,2.567c0.407,0.752,0.968,1.332,1.68,1.74
			s1.516,0.612,2.412,0.612C429.398,189.567,430.203,189.363,430.915,188.955z"/>
		<path d="M440.263,190.251c-0.977-0.552-1.744-1.315-2.304-2.292c-0.561-0.976-0.841-2.08-0.841-3.312
			c0-1.232,0.28-2.336,0.841-3.313c0.56-0.976,1.327-1.736,2.304-2.28c0.976-0.543,2.072-0.815,3.288-0.815s2.312,0.272,3.288,0.815
			c0.976,0.544,1.74,1.305,2.292,2.28c0.552,0.977,0.828,2.08,0.828,3.313c0,1.231-0.276,2.336-0.828,3.312
			c-0.552,0.977-1.316,1.74-2.292,2.292c-0.977,0.552-2.072,0.828-3.288,0.828S441.239,190.802,440.263,190.251z M445.964,188.955
			c0.712-0.408,1.268-0.988,1.668-1.74c0.399-0.752,0.6-1.607,0.6-2.567c0-0.961-0.2-1.816-0.6-2.568
			c-0.4-0.752-0.956-1.332-1.668-1.74s-1.517-0.612-2.412-0.612c-0.896,0-1.7,0.204-2.412,0.612s-1.272,0.988-1.68,1.74
			c-0.408,0.752-0.612,1.607-0.612,2.568c0,0.96,0.204,1.815,0.612,2.567c0.407,0.752,0.968,1.332,1.68,1.74
			s1.516,0.612,2.412,0.612C444.447,189.567,445.252,189.363,445.964,188.955z"/>
		<path d="M452.346,190.695c-0.248-0.256-0.371-0.568-0.371-0.937s0.123-0.676,0.371-0.924s0.548-0.372,0.9-0.372
			c0.352,0,0.656,0.124,0.912,0.372s0.384,0.556,0.384,0.924s-0.128,0.681-0.384,0.937s-0.561,0.384-0.912,0.384
			C452.894,191.079,452.594,190.951,452.346,190.695z"/>
	</g>
	<g>
		<path d="M187.484,231.755h5.502v1.302h-5.502V231.755z"/>
		<path d="M212.054,224.74c1.063,0.896,1.596,2.129,1.596,3.696c0,1.568-0.533,2.797-1.596,3.686
			c-1.064,0.89-2.535,1.333-4.41,1.333h-3.948v4.642h-1.554v-14.7h5.502C209.519,223.396,210.99,223.844,212.054,224.74z
			 M210.941,231.135c0.77-0.637,1.154-1.535,1.154-2.698c0-1.189-0.385-2.103-1.154-2.74c-0.771-0.638-1.883-0.956-3.34-0.956
			h-3.905v7.351h3.905C209.058,232.091,210.171,231.772,210.941,231.135z"/>
		<path d="M223.771,228.049c0.77,0.721,1.155,1.788,1.155,3.201v6.847h-1.429v-1.723c-0.336,0.574-0.828,1.022-1.48,1.345
			c-0.65,0.322-1.424,0.483-2.32,0.483c-1.231,0-2.212-0.295-2.939-0.883c-0.729-0.588-1.092-1.364-1.092-2.331
			c0-0.938,0.339-1.693,1.018-2.268c0.68-0.574,1.762-0.861,3.245-0.861h3.507v-0.672c0-0.951-0.266-1.676-0.798-2.174
			c-0.532-0.496-1.31-0.745-2.331-0.745c-0.7,0-1.372,0.116-2.016,0.347c-0.645,0.23-1.197,0.549-1.659,0.955l-0.672-1.113
			c0.56-0.475,1.231-0.843,2.016-1.102c0.784-0.26,1.61-0.389,2.478-0.389C221.895,226.967,223.002,227.327,223.771,228.049z
			 M222.092,236.448c0.602-0.385,1.05-0.941,1.344-1.669v-1.807h-3.465c-1.891,0-2.835,0.658-2.835,1.975
			c0,0.644,0.245,1.151,0.735,1.522s1.176,0.557,2.058,0.557C220.768,237.026,221.49,236.833,222.092,236.448z"/>
		<path d="M231.972,227.533c0.693-0.377,1.551-0.566,2.572-0.566v1.449l-0.357-0.021c-1.162,0-2.072,0.357-2.729,1.071
			c-0.658,0.714-0.987,1.715-0.987,3.003v5.628h-1.49v-11.046h1.428v2.163C230.758,228.471,231.279,227.912,231.972,227.533z"/>
		<path d="M243.533,237.425c-0.281,0.252-0.627,0.444-1.04,0.577s-0.844,0.2-1.292,0.2c-1.035,0-1.834-0.28-2.394-0.841
			c-0.56-0.56-0.84-1.351-0.84-2.373v-6.678h-1.974v-1.26h1.974v-2.415h1.491v2.415h3.359v1.26h-3.359v6.594
			c0,0.658,0.164,1.159,0.493,1.502s0.802,0.515,1.417,0.515c0.309,0,0.605-0.049,0.893-0.147c0.287-0.098,0.536-0.237,0.746-0.42
			L243.533,237.425z"/>
		<path d="M246.22,224.32c-0.21-0.209-0.314-0.461-0.314-0.756c0-0.279,0.104-0.525,0.314-0.734c0.21-0.211,0.469-0.315,0.777-0.315
			c0.307,0,0.566,0.102,0.776,0.305s0.315,0.444,0.315,0.724c0,0.309-0.105,0.568-0.315,0.777c-0.21,0.211-0.47,0.315-0.776,0.315
			C246.689,224.635,246.43,224.531,246.22,224.32z M246.242,227.051h1.49v11.046h-1.49V227.051z"/>
		<path d="M253.539,237.487c-0.861-0.476-1.537-1.145-2.026-2.005c-0.49-0.861-0.735-1.83-0.735-2.908s0.245-2.045,0.735-2.898
			c0.489-0.854,1.165-1.52,2.026-1.995s1.838-0.714,2.93-0.714c0.951,0,1.803,0.186,2.551,0.557c0.75,0.371,1.341,0.913,1.775,1.627
			l-1.113,0.756c-0.364-0.545-0.826-0.955-1.387-1.229c-0.56-0.272-1.168-0.409-1.826-0.409c-0.799,0-1.516,0.179-2.152,0.536
			c-0.638,0.356-1.135,0.864-1.491,1.521c-0.356,0.658-0.536,1.408-0.536,2.248c0,0.854,0.18,1.605,0.536,2.257
			s0.854,1.155,1.491,1.512c0.637,0.357,1.354,0.536,2.152,0.536c0.658,0,1.267-0.134,1.826-0.399
			c0.561-0.266,1.022-0.672,1.387-1.218l1.113,0.756c-0.435,0.714-1.029,1.257-1.785,1.628s-1.604,0.557-2.541,0.557
			C255.377,238.202,254.4,237.964,253.539,237.487z"/>
		<path d="M263.692,224.32c-0.21-0.209-0.315-0.461-0.315-0.756c0-0.279,0.105-0.525,0.315-0.734
			c0.21-0.211,0.469-0.315,0.776-0.315c0.309,0,0.567,0.102,0.777,0.305s0.314,0.444,0.314,0.724c0,0.309-0.104,0.568-0.314,0.777
			c-0.21,0.211-0.469,0.315-0.777,0.315C264.161,224.635,263.902,224.531,263.692,224.32z M263.713,227.051h1.491v11.046h-1.491
			V227.051z"/>
		<path d="M277.867,227.67c0.84,0.469,1.498,1.131,1.975,1.984c0.475,0.854,0.713,1.827,0.713,2.92c0,1.105-0.238,2.086-0.713,2.939
			c-0.477,0.854-1.131,1.516-1.964,1.984c-0.833,0.47-1.774,0.704-2.825,0.704c-0.896,0-1.704-0.186-2.425-0.557
			c-0.722-0.371-1.313-0.914-1.774-1.628v6.153h-1.491v-15.12h1.428v2.184c0.448-0.728,1.04-1.287,1.774-1.68
			c0.735-0.392,1.564-0.588,2.488-0.588C276.089,226.967,277.027,227.201,277.867,227.67z M277.049,236.343
			c0.629-0.356,1.123-0.864,1.48-1.522c0.356-0.658,0.535-1.406,0.535-2.246s-0.179-1.586-0.535-2.236
			c-0.357-0.652-0.852-1.159-1.48-1.523c-0.631-0.363-1.331-0.546-2.101-0.546c-0.784,0-1.487,0.183-2.11,0.546
			c-0.623,0.364-1.113,0.871-1.471,1.523c-0.356,0.65-0.535,1.396-0.535,2.236s0.179,1.588,0.535,2.246
			c0.357,0.658,0.848,1.166,1.471,1.522c0.623,0.357,1.326,0.536,2.11,0.536C275.718,236.879,276.418,236.7,277.049,236.343z"/>
		<path d="M290.719,228.049c0.77,0.721,1.155,1.788,1.155,3.201v6.847h-1.429v-1.723c-0.336,0.574-0.828,1.022-1.48,1.345
			c-0.65,0.322-1.424,0.483-2.32,0.483c-1.231,0-2.212-0.295-2.939-0.883c-0.729-0.588-1.092-1.364-1.092-2.331
			c0-0.938,0.339-1.693,1.018-2.268c0.68-0.574,1.762-0.861,3.245-0.861h3.507v-0.672c0-0.951-0.266-1.676-0.798-2.174
			c-0.532-0.496-1.31-0.745-2.331-0.745c-0.7,0-1.372,0.116-2.016,0.347c-0.645,0.23-1.197,0.549-1.659,0.955l-0.672-1.113
			c0.56-0.475,1.231-0.843,2.016-1.102c0.784-0.26,1.61-0.389,2.478-0.389C288.843,226.967,289.949,227.327,290.719,228.049z
			 M289.039,236.448c0.602-0.385,1.05-0.941,1.344-1.669v-1.807h-3.465c-1.891,0-2.835,0.658-2.835,1.975
			c0,0.644,0.245,1.151,0.735,1.522s1.176,0.557,2.058,0.557C287.716,237.026,288.437,236.833,289.039,236.448z"/>
		<path d="M304.863,228.174c0.818,0.806,1.229,1.979,1.229,3.518v6.405h-1.492v-6.258c0-1.147-0.287-2.022-0.86-2.625
			c-0.574-0.603-1.394-0.903-2.457-0.903c-1.19,0-2.132,0.354-2.825,1.061c-0.692,0.707-1.039,1.684-1.039,2.93v5.796h-1.49v-11.046
			h1.428v2.037c0.406-0.672,0.969-1.193,1.689-1.564c0.722-0.371,1.559-0.557,2.51-0.557
			C302.941,226.967,304.043,227.369,304.863,228.174z"/>
		<path d="M315.961,237.425c-0.28,0.252-0.627,0.444-1.039,0.577c-0.414,0.133-0.844,0.2-1.292,0.2c-1.036,0-1.834-0.28-2.394-0.841
			c-0.561-0.56-0.84-1.351-0.84-2.373v-6.678h-1.975v-1.26h1.975v-2.415h1.49v2.415h3.36v1.26h-3.36v6.594
			c0,0.658,0.164,1.159,0.494,1.502c0.328,0.343,0.801,0.515,1.417,0.515c0.308,0,0.605-0.049,0.893-0.147
			c0.286-0.098,0.536-0.237,0.745-0.42L315.961,237.425z"/>
		<path d="M334.398,224.74c1.064,0.896,1.596,2.129,1.596,3.696c0,1.568-0.531,2.797-1.596,3.686
			c-1.064,0.89-2.533,1.333-4.41,1.333h-3.947v4.642h-1.555v-14.7h5.502C331.865,223.396,333.334,223.844,334.398,224.74z
			 M333.285,231.135c0.771-0.637,1.156-1.535,1.156-2.698c0-1.189-0.386-2.103-1.156-2.74c-0.77-0.638-1.883-0.956-3.338-0.956
			h-3.906v7.351h3.906C331.402,232.091,332.515,231.772,333.285,231.135z"/>
		<path d="M346.463,230.946c0.805,0.749,1.207,1.726,1.207,2.929c0,0.841-0.203,1.586-0.608,2.237
			c-0.406,0.65-1.008,1.165-1.806,1.543c-0.799,0.378-1.771,0.567-2.92,0.567c-1.063,0-2.068-0.171-3.014-0.515
			c-0.944-0.343-1.704-0.801-2.277-1.375l0.734-1.197c0.49,0.504,1.141,0.913,1.953,1.229c0.813,0.314,1.68,0.473,2.604,0.473
			c1.205,0,2.135-0.263,2.793-0.788c0.658-0.524,0.988-1.249,0.988-2.174c0-0.909-0.33-1.623-0.988-2.141
			c-0.658-0.519-1.651-0.777-2.981-0.777h-1.05v-1.113l4.074-5.104h-7.519v-1.344h9.45v1.071l-4.158,5.229
			C344.485,229.781,345.658,230.197,346.463,230.946z"/>
	</g>
</g>
</svg>
