<?xml version="1.0" encoding="utf-8"?>
<!-- Generator: Adobe Illustrator 16.0.0, SVG Export Plug-In . SVG Version: 6.00 Build 0)  -->
<!DOCTYPE svg PUBLIC "-//W3C//DTD SVG 1.1//EN" "http://www.w3.org/Graphics/SVG/1.1/DTD/svg11.dtd">
<svg version="1.1" id="图层_1" xmlns="http://www.w3.org/2000/svg" xmlns:xlink="http://www.w3.org/1999/xlink" x="0px" y="0px"
	 width="141.73px" height="141.73px" viewBox="0 0 141.73 141.73" enable-background="new 0 0 141.73 141.73" xml:space="preserve">
<circle fill="none" stroke="#E1E1E1" stroke-width="20" stroke-linecap="round" stroke-miterlimit="10" cx="70.865" cy="71.121" r="59.625"/>
<path fill="none" stroke="#A4D728" stroke-width="20" stroke-linecap="round" stroke-miterlimit="10" d="M70.865,11.496
	c32.93,0,59.625,26.695,59.625,59.625c0,32.93-26.695,59.625-59.625,59.625S11.24,104.052,11.24,71.121
	c0-14.705,5.323-28.167,14.147-38.564"/>
<path fill="none" stroke="#FFFFFF" stroke-width="2" stroke-linecap="round" stroke-miterlimit="10" d="M16.849,25.52L16.849,25.52
	c4.222-4.42,11.229-4.582,15.651-0.358l0,0c4.42,4.223,4.581,11.231,0.358,15.651"/>
<g>
	<path fill="#A4D728" d="M68.4,74.447c0.589,0.85,0.885,1.844,0.885,2.984c0,1.279-0.355,2.4-1.065,3.359
		c-0.71,0.961-1.715,1.695-3.015,2.205s-2.81,0.766-4.53,0.766c-1.72,0-3.225-0.256-4.515-0.766s-2.285-1.244-2.985-2.205
		c-0.7-0.959-1.05-2.08-1.05-3.359c0-1.141,0.29-2.135,0.87-2.984c0.58-0.852,1.41-1.525,2.49-2.025
		c-0.84-0.461-1.485-1.066-1.935-1.816s-0.675-1.614-0.675-2.595c0-1.18,0.325-2.21,0.975-3.09s1.565-1.56,2.745-2.04
		c1.18-0.479,2.54-0.72,4.08-0.72c1.56,0,2.93,0.24,4.11,0.72c1.18,0.48,2.1,1.16,2.76,2.04c0.66,0.88,0.99,1.91,0.99,3.09
		c0,0.98-0.23,1.841-0.69,2.58c-0.46,0.74-1.12,1.35-1.98,1.831C66.964,72.922,67.809,73.595,68.4,74.447z M64.094,79.801
		c0.84-0.6,1.26-1.43,1.26-2.49c0-1.039-0.42-1.859-1.26-2.459s-1.98-0.9-3.42-0.9s-2.57,0.301-3.39,0.9
		c-0.82,0.6-1.23,1.42-1.23,2.459c0,1.061,0.41,1.891,1.23,2.49c0.82,0.602,1.95,0.9,3.39,0.9S63.255,80.402,64.094,79.801z
		 M57.78,66.001c-0.71,0.521-1.065,1.25-1.065,2.19c0,0.899,0.355,1.615,1.065,2.145c0.709,0.53,1.675,0.795,2.895,0.795
		c1.24,0,2.22-0.265,2.94-0.795c0.72-0.529,1.08-1.245,1.08-2.145c0-0.94-0.365-1.67-1.095-2.19c-0.73-0.52-1.705-0.78-2.925-0.78
		C59.454,65.221,58.489,65.482,57.78,66.001z"/>
	<path fill="#A4D728" d="M87.959,74.447c0.59,0.85,0.885,1.844,0.885,2.984c0,1.279-0.355,2.4-1.064,3.359
		c-0.711,0.961-1.715,1.695-3.016,2.205c-1.3,0.51-2.81,0.766-4.529,0.766c-1.721,0-3.225-0.256-4.516-0.766
		c-1.289-0.51-2.285-1.244-2.984-2.205c-0.7-0.959-1.05-2.08-1.05-3.359c0-1.141,0.29-2.135,0.87-2.984
		c0.58-0.852,1.41-1.525,2.49-2.025c-0.84-0.461-1.485-1.066-1.936-1.816s-0.675-1.614-0.675-2.595c0-1.18,0.325-2.21,0.975-3.09
		s1.565-1.56,2.745-2.04c1.18-0.479,2.539-0.72,4.08-0.72c1.561,0,2.93,0.24,4.109,0.72c1.18,0.48,2.1,1.16,2.76,2.04
		s0.99,1.91,0.99,3.09c0,0.98-0.23,1.841-0.689,2.58c-0.461,0.74-1.121,1.35-1.98,1.831C86.523,72.922,87.369,73.595,87.959,74.447z
		 M83.654,79.801c0.84-0.6,1.26-1.43,1.26-2.49c0-1.039-0.42-1.859-1.26-2.459s-1.98-0.9-3.42-0.9s-2.57,0.301-3.391,0.9
		s-1.229,1.42-1.229,2.459c0,1.061,0.409,1.891,1.229,2.49c0.82,0.602,1.951,0.9,3.391,0.9S82.814,80.402,83.654,79.801z
		 M77.34,66.001c-0.711,0.521-1.065,1.25-1.065,2.19c0,0.899,0.354,1.615,1.065,2.145c0.709,0.53,1.674,0.795,2.895,0.795
		c1.24,0,2.221-0.265,2.939-0.795c0.721-0.529,1.08-1.245,1.08-2.145c0-0.94-0.365-1.67-1.095-2.19
		c-0.729-0.52-1.705-0.78-2.925-0.78C79.013,65.221,78.049,65.482,77.34,66.001z"/>
</g>
</svg>
