<?xml version="1.0" encoding="utf-8"?>
<!-- Generator: Adobe Illustrator 16.0.0, SVG Export Plug-In . SVG Version: 6.00 Build 0)  -->
<!DOCTYPE svg PUBLIC "-//W3C//DTD SVG 1.1//EN" "http://www.w3.org/Graphics/SVG/1.1/DTD/svg11.dtd">
<svg version="1.1" xmlns="http://www.w3.org/2000/svg" xmlns:xlink="http://www.w3.org/1999/xlink" x="0px" y="0px"
	 width="536.032px" height="407.698px" viewBox="0 0 536.032 407.698" enable-background="new 0 0 536.032 407.698"
	 xml:space="preserve">
<g id="图层_1">
	<path fill="#E1E1E1" d="M417.91,247.01c-4.121-0.456-12.734-0.747-21.044-2.496c-13.256-2.783-21.992,1.607-30.858,12.104
		c-49.793,58.98-121.721,59.368-171.823,0.826c-9.305-10.872-17.158-13.082-30.713-8.91c-56.647,17.422-100.962,7.758-113.611-49.54
		c-2.935-13.269-14.269-21.888-25.821-30.13c-26.34-18.794-24.426-61.532-11.86-87.241c12.03-24.619,37.38-36.171,67.339-27.115
		c15.928,4.813,26.058,3.183,38.551-8.46c34.001-31.719,70.325-33.546,109.173-6.185c12.357,8.703,19.491,8.231,30.291-2.187
		c38.662-37.279,77.96-42.204,122.952-15.444c12.903,7.674,25.658,7.146,39.343,7.168c62.398,0.089,111.54,49.204,110.883,110.275
		C530.067,198.881,481.438,247.034,417.91,247.01z"/>
	<path fill-rule="evenodd" clip-rule="evenodd" fill="#F8EFEA" d="M440.158,278.622c-0.103-0.028-0.205-0.058-0.307-0.087
		c0.052,0.09,0.102,0.181,0.152,0.271C440.119,278.799,440.17,278.738,440.158,278.622z"/>
	<g>
		<path fill-rule="evenodd" clip-rule="evenodd" d="M27.561,86.487c0.299,0.652,0.576,1.262,0.873,1.912
			c-1.886,0.911-3.242,2.205-3.574,4.396c0.274,0.088,0.517,0.162,0.757,0.241c3.298,1.093,4.435,5.403,2.026,7.805
			c-1.386,1.382-3.113,1.782-4.97,1.227c-1.964-0.588-3.008-2.075-3.37-4.023c-0.951-5.11,2.523-10.228,7.721-11.434
			C27.177,86.576,27.328,86.541,27.561,86.487z"/>
		<path fill-rule="evenodd" clip-rule="evenodd" d="M40.017,86.482c0.313,0.673,0.598,1.279,0.897,1.921
			c-1.904,0.887-3.233,2.204-3.602,4.409c0.273,0.08,0.54,0.149,0.801,0.238c2.102,0.704,3.359,2.625,3.248,4.955
			c-0.1,2.048-1.518,3.644-3.699,4.159c-2.091,0.492-4.236-0.415-5.23-2.319c-1.305-2.502-1.023-5.042,0.095-7.51
			C33.98,89.127,36.538,87.259,40.017,86.482z"/>
	</g>
	<g>
		<path fill-rule="evenodd" clip-rule="evenodd" d="M505.008,102.307c-0.298-0.653-0.576-1.262-0.873-1.912
			c1.886-0.91,3.241-2.207,3.575-4.396c-0.274-0.088-0.517-0.161-0.757-0.241c-3.298-1.094-4.437-5.403-2.028-7.805
			c1.386-1.383,3.113-1.782,4.971-1.228c1.964,0.588,3.007,2.075,3.37,4.024c0.951,5.11-2.523,10.228-7.721,11.433
			C505.392,102.219,505.242,102.254,505.008,102.307z"/>
		<path fill-rule="evenodd" clip-rule="evenodd" d="M492.551,102.31c-0.313-0.672-0.597-1.278-0.896-1.919
			c1.905-0.887,3.234-2.205,3.602-4.41c-0.274-0.079-0.541-0.149-0.801-0.235c-2.104-0.707-3.358-2.627-3.248-4.957
			c0.1-2.048,1.518-3.645,3.697-4.159c2.093-0.492,4.238,0.415,5.232,2.319c1.306,2.502,1.024,5.043-0.094,7.51
			C498.588,99.668,496.031,101.535,492.551,102.31z"/>
	</g>
	<ellipse fill="#E1E1E1" cx="363.442" cy="306.052" rx="20.491" ry="15.305"/>
	<ellipse fill="#E1E1E1" cx="405.938" cy="328.749" rx="11.491" ry="8.991"/>
	<g>
		<path fill-rule="evenodd" clip-rule="evenodd" fill="#86191B" d="M504.632,365.501c5.74-4.08,5.75-12.973,1.716-18.91
			c-1.431-2.107-2.915-4.18-4.276-6.33c-1.925-3.045-1.93-6.23-0.396-9.441c0.613-1.285,1.146-2.642,1.954-3.795
			c5.14-7.34,5.422-15.375,3.465-23.733c-2.03-8.67-5.95-16.296-12.412-22.515c-1.638-1.576-3.402-2.92-5.468-3.865
			c-0.472-0.216-1.043-0.379-1.361-0.746c-4.764-5.501-11.022-6.48-17.753-5.92c-4.264,0.355-8.374,1.509-12.377,2.963
			c-5.783,2.103-9.343,6.564-11.846,11.963c-1.257,2.715-2.258,5.551-3.339,8.346c-1.383,3.574-2.918,7.035-5.179,10.188
			c-4.22,5.883-4.423,12.726-4.318,19.627c0.076,4.998,1.491,9.332,4.943,13.115c3.934,4.313,4.675,9.391,2.445,14.865
			c-0.849,2.08-1.476,4.256-2.396,6.299c-3.22,7.152-1.716,13.596,2.751,19.629c1.068,1.443,2.202,2.836,3.307,4.252
			c0.353,0.066,0.582,0.273,0.694,0.615l0.07,0.045c0.93-1.26,0.537-2.707,0.563-4.094c-2.65-1.564-2.66-1.59-1.407-3.645
			c-0.414-2.947,0.515-5.795,1.203-8.52c0.591-2.336,0.059-4.961,1.604-7.041c0.754-1.016,0.852-2.168,0.877-3.357
			c1.493-2.844,3.688-4.598,7.03-4.572c0.897-0.02,1.797-0.037,2.696-0.057c-0.026-0.943-0.087-1.807-0.421-2.777
			c-1.794-5.219-2.507-10.506,0.08-15.734c-3.366-3.799-5.811-8.12-7.378-12.961c-1.551-4.797-1.905-9.563,0.278-14.258
			c0.32-0.689,0.46-1.383,1.909-1.449c3.557-0.166,7.083-0.891,10.665-0.23c0.604,0.111,0.748-0.299,0.807-0.793
			c0.057-0.484,0.021-0.928-0.54-1.057c-0.507-0.117-1.026-0.193-1.545-0.244c-2.966-0.287-5.892,0.016-8.849,0.654
			c2.535-2.97,5.597-4.877,9.465-5.264c3.268-0.326,6.549-0.539,9.737-1.389c5.425-1.445,10.269-3.711,12.846-9.211
			c0.22-0.469,0.344-1.274,1.362-1.291c-0.367,1.14-0.552,2.285-1.078,3.238c-1.398,2.538-0.626,4.584,1.151,6.505
			c0.406,0.439,0.72,0.979,1.169,1.363c3.972,3.4,5.281,8.028,5.921,12.952c0.203,1.57,0.259,3.159,0.391,4.857
			c0.924-0.594,1.083-1.764,2.194-1.703l-0.003,0.008c1.843-1.631,3.512-1.324,4.258,0.78c1.371,3.87-0.923,8.378-4.837,9.415
			c-0.731,0.195-1.39,0.234-1.695,1.143c-0.895,2.65-2.504,4.906-4.112,7.154c1.855,1.625,2.547,3.951,3.556,6.066
			c1.866,3.92,1.849,8.182,1.353,12.301c-0.234,1.951-1.219,3.725,0.158,5.57c0.919,0.34,1.661,1.086,2.786,0.982
			c0.783-0.074,0.841,0.623,0.773,1.252c1.789,0.668,2.936,2.066,4.114,3.486C503.239,361.803,503.345,363.95,504.632,365.501z
			 M451.795,302.423l0.148-0.094l0.021,0.139L451.795,302.423z"/>
		<path fill-rule="evenodd" clip-rule="evenodd" fill="#E1E1E1" d="M483.64,391.227c-9.248-0.025-18.496-0.049-27.744-0.08
			c-1.118-0.004-2.235-0.047-3.353-0.072c-2.385,0.855-4.848,0.314-7.273,0.385c-0.78,0.023-1.323-0.541-1.175-1.311
			c0.4-2.078-0.235-4.291,0.817-6.277c-5.395,0.676-10.718,1.645-15.693,3.98c-1.388,0.65-3.038,1.076-3.166,3.047
			c-0.126,1.924,1.29,2.781,2.644,3.553c3.955,2.254,8.419,3.061,12.779,3.744c11.55,1.816,23.203,2.76,34.907,2.309
			c6.449-0.25,12.88-0.863,19.301-1.621c4.366-0.516,8.664-1.254,12.875-2.443c2.189-0.619,4.406-1.316,6.27-2.77
			c1.893-1.477,1.97-3.055,0.168-4.613c-2.866-2.479-6.439-2.873-9.968-3.395c-0.008,1.428-0.019,2.854-0.023,4.277
			c-0.004,1.006-0.489,1.576-1.499,1.539c-4.088-0.146-8.197,0.43-12.268-0.355c-0.217,0.035-0.434,0.07-0.646,0.105
			C488.274,391.657,485.957,391.669,483.64,391.227z"/>
		<path fill-rule="evenodd" clip-rule="evenodd" fill="#F3BD95" d="M444.913,383.872c-1.053,1.986-0.417,4.199-0.817,6.277
			c-0.148,0.77,0.395,1.334,1.175,1.311c2.426-0.07,4.889,0.471,7.273-0.385c-0.404-3.154-0.119-6.381-0.963-9.49
			c-0.372-0.586-0.996-0.789-1.557-1.125c-1.49-0.895-3.313-1.137-4.604-2.402c-0.026,1.387,0.366,2.834-0.563,4.094
			C444.875,382.725,444.893,383.3,444.913,383.872z"/>
		<path fill-rule="evenodd" clip-rule="evenodd" fill="#F3BD95" d="M491.239,391.124c4.07,0.785,8.18,0.209,12.268,0.355
			c1.01,0.037,1.495-0.533,1.499-1.539c0.005-1.424,0.016-2.85,0.023-4.277c-0.403-1.063-0.932-1.609-2.169-0.928
			c-3.788,2.088-7.922,2.488-12.15,2.33C490.886,388.419,491.062,389.77,491.239,391.124z"/>
		<path fill-rule="evenodd" clip-rule="evenodd" fill="#F3BD95" d="M444.786,382.106c-0.112-0.342-0.342-0.549-0.694-0.615
			C444.155,381.887,444.396,382.083,444.786,382.106z"/>
		<path fill-rule="evenodd" clip-rule="evenodd" fill="#F3BD95" d="M489.197,330.575c1.608-2.248,3.218-4.504,4.112-7.154
			c0.306-0.908,0.964-0.947,1.695-1.143c3.914-1.037,6.208-5.545,4.837-9.415c-0.746-2.104-2.415-2.411-4.258-0.78
			c2.274,0.561,3.438,2.611,2.274,4.184c-0.744,1.008-1.714,1.836-2.305,2.986c-0.38,0.739-1.161,0.491-1.808,0.479
			c-0.313-0.006-0.729-0.327-0.571-0.496c1.008-1.078,0.104-3.506,2.634-3.55c1.723-0.03,1.31-1.265,0.802-2.239
			c-0.254-0.49-1.007-0.658-1.023-1.371c-1.111-0.061-1.271,1.109-2.194,1.703c-0.132-1.698-0.188-3.287-0.391-4.857
			c-0.64-4.924-1.949-9.552-5.921-12.952c-0.449-0.384-0.763-0.924-1.169-1.363c-1.777-1.921-2.55-3.967-1.151-6.505
			c0.526-0.953,0.711-2.099,1.078-3.238c-1.019,0.017-1.143,0.822-1.362,1.291c-2.577,5.5-7.421,7.766-12.846,9.211
			c-3.188,0.85-6.47,1.063-9.737,1.389c-3.868,0.387-6.93,2.294-9.465,5.264c2.957-0.639,5.883-0.941,8.849-0.654
			c0.519,0.051,1.038,0.127,1.545,0.244c0.562,0.129,0.597,0.572,0.54,1.057c-0.059,0.494-0.202,0.904-0.807,0.793
			c-3.582-0.66-7.108,0.064-10.665,0.23c-1.449,0.066-1.589,0.76-1.909,1.449c-2.184,4.694-1.829,9.461-0.278,14.258
			c1.567,4.841,4.012,9.162,7.377,12.961c2.873,2.855,6.315,4.887,9.81,6.844c3.758,1.586,7.441,1.201,11.037-0.5
			c0.637-0.301,1.249-0.387,1.907-0.428c0.02-0.717,0.567-1.01,1.077-1.301C483.969,335.225,486.633,332.966,489.197,330.575z
			 M461.106,309.895c0.014,2.262-0.913,3.824-2.18,3.733c-2.003-0.145-2.205-1.793-2.317-3.298
			c-0.146-1.948,1.042-3.764,2.297-3.557C460.791,307.088,460.978,308.67,461.106,309.895z M481.302,310.218
			c-0.149,1.572-0.344,3.355-2.254,3.361c-1.892,0.005-2.191-1.763-2.255-3.312c-0.082-2.017,1.051-3.743,2.325-3.507
			C480.997,307.11,481.134,308.716,481.302,310.218z"/>
		<path fill-rule="evenodd" clip-rule="evenodd" fill="#491212" d="M489.197,330.575c-2.564,2.391-5.228,4.65-8.286,6.395
			c-0.51,0.291-1.058,0.584-1.077,1.301c-0.004,3.018-0.008,6.033-0.012,9.051c0.334,0.975-0.42,2.197,0.679,2.998
			c0.811,0.217,1.62,0.434,2.43,0.65c0.96,1.176,2.459,1,3.674,1.221c2.663,0.48,5.047,1.766,7.659,2.322
			c-1.377-1.846-0.393-3.619-0.158-5.57c0.496-4.119,0.514-8.381-1.353-12.301C491.744,334.526,491.052,332.2,489.197,330.575z"/>
		<path fill-rule="evenodd" clip-rule="evenodd" fill="#491212" d="M466.889,339.198c-3.494-1.957-6.937-3.988-9.81-6.844
			c-2.586,5.229-1.873,10.516-0.079,15.734c0.334,0.971,0.395,1.834,0.421,2.777c2.419,0.809,4.59-1.041,6.97-0.662
			c0.851-0.074,1.699-0.148,2.547-0.223c0.035-0.426,0.07-0.854,0.104-1.279c0.037-2.018,0.073-4.035,0.11-6.051
			C467.065,341.501,466.977,340.348,466.889,339.198z"/>
		<path fill-rule="evenodd" clip-rule="evenodd" fill="#F8EFEA" d="M451.143,378.01c-2.674-0.604-5.011-1.885-7.132-3.598
			c-1.253,2.055-1.243,2.08,1.407,3.645c1.293,1.266,3.115,1.508,4.605,2.402c0.561,0.336,1.185,0.539,1.557,1.125
			C451.59,380.374,451.959,379.12,451.143,378.01z"/>
		<g>
			<path fill-rule="evenodd" clip-rule="evenodd" fill="#442D40" d="M497.823,356.747c0.067-0.629,0.01-1.326-0.773-1.252
				c-1.125,0.104-1.867-0.643-2.786-0.982c-2.612-0.557-4.996-1.842-7.659-2.322c-1.215-0.221-2.714-0.045-3.674-1.221
				c-1.01,6.869-9.775,10.264-15.44,5.887c-2.088-1.613-3.71-3.664-3.099-6.652c-2.38-0.379-4.551,1.471-6.971,0.662
				c-0.898,0.02-1.798,0.037-2.695,0.057c-0.17,1.297-1.887,0.686-2.202,1.803c-1.438,3.121-2.638,6.209-2.346,9.84
				c0.413,5.139,1.422,10.25,0.966,15.445c0.815,1.109,0.446,2.363,0.438,3.574c0.844,3.109,0.559,6.336,0.963,9.49
				c1.117,0.025,2.234,0.068,3.353,0.072c9.248,0.031,18.496,0.055,27.744,0.08c2.316,0,4.633,0.002,6.95,0.002
				c0.215-0.035,0.432-0.07,0.648-0.105c-0.177-1.354-0.353-2.705-0.528-4.059c-0.709-0.172-1.41-0.4-2.129-0.508
				c-1.622-0.242-2.234-1.16-1.959-2.746c-0.33-1.234-0.361-2.492-0.401-3.766c-0.076-2.379,0.04-4.746-0.316-7.141
				C484.867,365.942,489.693,356.927,497.823,356.747z"/>
			<path fill-rule="evenodd" clip-rule="evenodd" fill="#442D40" d="M497.823,356.747c-8.13,0.18-12.956,9.195-11.918,16.158
				c0.356,2.395,0.24,4.762,0.316,7.141c0.04,1.273,0.071,2.531,0.401,3.766c6.408,2.078,12.317,0.592,18.065-2.434
				c1.534-0.807,1.872-1.789,1.591-3.424c-0.707-4.127-1.542-8.244-1.646-12.453c-1.287-1.551-1.394-3.697-2.695-5.268
				C500.759,358.813,499.612,357.415,497.823,356.747z"/>
			<path fill-rule="evenodd" clip-rule="evenodd" fill="#442D40" d="M451.143,378.01c0.456-5.195-0.553-10.307-0.966-15.445
				c-0.292-3.631,0.908-6.719,2.346-9.84c-1.208-0.127-1.759,0.828-2.45,1.527c-0.667,0.678-1.308,1.361-2.378,1.242
				c-0.025,1.189-0.123,2.342-0.877,3.357c-1.545,2.08-1.013,4.705-1.604,7.041c-0.688,2.725-1.617,5.572-1.203,8.52
				C446.133,376.126,448.469,377.407,451.143,378.01z"/>
			<path fill-rule="evenodd" clip-rule="evenodd" fill="#442D40" d="M447.695,355.495c1.07,0.119,1.711-0.564,2.378-1.242
				c0.691-0.699,1.242-1.654,2.45-1.527c0.315-1.117,2.032-0.506,2.202-1.803C451.384,350.897,449.188,352.651,447.695,355.495z"/>
		</g>
		<polygon fill-rule="evenodd" clip-rule="evenodd" fill="#F3BD95" points="451.795,302.423 451.965,302.468 451.943,302.329 		"/>
		<path fill-rule="evenodd" clip-rule="evenodd" fill="#F8EFEA" d="M466.939,349.981c-0.849,0.074-1.697,0.148-2.548,0.223
			c-0.611,2.988,1.011,5.039,3.099,6.652c5.665,4.377,14.431,0.982,15.44-5.887c-0.81-0.217-1.619-0.434-2.43-0.65
			c-1.527,3.492-3.58,5.809-7.992,5.275c-3.816-0.461-5.16-1.475-5.176-5.508C467.191,350.094,467.059,350.059,466.939,349.981z"/>
		<path fill-rule="evenodd" clip-rule="evenodd" fill="#F3BD95" d="M483.64,391.227c2.316,0.441,4.634,0.43,6.952,0.002
			C488.273,391.229,485.957,391.227,483.64,391.227z"/>
		<path fill-rule="evenodd" clip-rule="evenodd" fill="#DE9F5F" d="M466.889,339.198c0.088,1.15,0.176,2.303,0.265,3.453
			c4.208,1.172,9.164,0.309,12.248,4.551c0.068,0.094,0.277,0.082,0.42,0.119c0.004-3.018,0.008-6.033,0.012-9.051
			c-0.658,0.041-1.271,0.127-1.907,0.428C474.331,340.399,470.647,340.784,466.889,339.198z"/>
		<path fill-rule="evenodd" clip-rule="evenodd" fill="#7C4427" d="M461.106,309.895c-0.128-1.226-0.315-2.808-2.2-3.121
			c-1.255-0.207-2.442,1.608-2.297,3.557c0.112,1.505,0.314,3.153,2.317,3.298C460.193,313.719,461.12,312.157,461.106,309.895z"/>
		<path fill-rule="evenodd" clip-rule="evenodd" fill="#7C4427" d="M481.302,310.218c-0.169-1.502-0.306-3.107-2.184-3.457
			c-1.274-0.236-2.407,1.49-2.325,3.507c0.063,1.549,0.363,3.316,2.255,3.312C480.959,313.573,481.153,311.79,481.302,310.218z"/>
		<path fill-rule="evenodd" clip-rule="evenodd" fill="#86191B" d="M487.937,304.901c0.091-1.29-0.736-1.549-1.475-1.874
			c-2.873-1.271-5.911-1.478-8.99-1.409c-0.725,0.016-1.328,0.119-1.29,1.101c0.028,0.706,0.365,0.942,0.981,0.873
			C480.828,303.181,484.364,304.013,487.937,304.901z"/>
		<path fill-rule="evenodd" clip-rule="evenodd" fill="#DE9F5F" d="M495.587,312.075c0.017,0.713,0.77,0.881,1.023,1.371
			c0.508,0.975,0.921,2.209-0.802,2.239c-2.53,0.044-1.626,2.472-2.634,3.55c-0.157,0.169,0.258,0.49,0.571,0.496
			c0.646,0.013,1.428,0.261,1.808-0.479c0.591-1.15,1.561-1.979,2.305-2.986c1.163-1.572,0-3.623-2.274-4.184L495.587,312.075z"/>
		<path fill-rule="evenodd" clip-rule="evenodd" fill="#F3BD95" d="M479.822,347.321c-0.143-0.037-0.352-0.025-0.42-0.119
			c-3.084-4.242-8.04-3.379-12.248-4.551c-0.038,2.016-0.074,4.033-0.111,6.049c0.381,0.402,0.28,0.906,0.29,1.387
			c0.016,4.033,1.359,5.047,5.176,5.508c4.412,0.533,6.465-1.783,7.992-5.275C479.402,349.518,480.156,348.296,479.822,347.321z"/>
		<path fill-rule="evenodd" clip-rule="evenodd" fill="#DE9F5F" d="M467.333,350.087c-0.01-0.48,0.091-0.984-0.29-1.387
			c-0.034,0.428-0.069,0.855-0.104,1.281C467.059,350.059,467.191,350.094,467.333,350.087z"/>
		<path fill-rule="evenodd" clip-rule="evenodd" fill="#F8EFEA" d="M469.857,326.703c-1.943-0.083-3.431,0.926-4.862,2.015
			c-0.453,0.345-0.99,0.846-0.6,1.514c0.341,0.584,0.931,0.275,1.415,0.149c2.707-0.71,5.435-0.672,8.184-0.303
			c0.63,0.087,1.549,0.845,1.807-0.398c0.198-0.957-0.229-1.856-1.18-2.182C473.083,326.972,471.529,326.354,469.857,326.703z"/>
	</g>
</g>
<g id="图层_2">
	<g>
		<path d="M51.257,116.995h6.84c1.776,0,3.344,0.356,4.704,1.067c1.36,0.713,2.416,1.705,3.168,2.977
			c0.751,1.271,1.128,2.724,1.128,4.355c0,1.633-0.376,3.084-1.128,4.356c-0.752,1.271-1.809,2.265-3.168,2.976
			c-1.36,0.713-2.928,1.068-4.704,1.068h-6.84V116.995z M58.001,132.259c1.472,0,2.76-0.292,3.864-0.876s1.959-1.392,2.568-2.424
			c0.608-1.032,0.912-2.221,0.912-3.564s-0.304-2.531-0.912-3.563c-0.608-1.032-1.464-1.84-2.568-2.425
			c-1.104-0.583-2.393-0.875-3.864-0.875h-4.968v13.728H58.001z"/>
		<path d="M72.594,133.087c-0.977-0.552-1.745-1.315-2.305-2.292c-0.56-0.976-0.84-2.08-0.84-3.313c0-1.231,0.28-2.336,0.84-3.312
			s1.328-1.735,2.305-2.28c0.975-0.543,2.071-0.816,3.287-0.816c1.217,0,2.313,0.273,3.289,0.816
			c0.975,0.545,1.739,1.305,2.291,2.28c0.553,0.976,0.828,2.08,0.828,3.312c0,1.232-0.275,2.337-0.828,3.313
			c-0.552,0.977-1.316,1.74-2.291,2.292c-0.977,0.552-2.072,0.828-3.289,0.828C74.665,133.915,73.568,133.638,72.594,133.087z
			 M78.293,131.791c0.712-0.408,1.268-0.988,1.668-1.74s0.6-1.607,0.6-2.568c0-0.959-0.199-1.815-0.6-2.567s-0.956-1.332-1.668-1.74
			c-0.712-0.407-1.516-0.612-2.412-0.612s-1.699,0.205-2.412,0.612c-0.711,0.408-1.271,0.988-1.68,1.74s-0.612,1.608-0.612,2.567
			c0,0.961,0.204,1.816,0.612,2.568s0.969,1.332,1.68,1.74c0.713,0.408,1.516,0.612,2.412,0.612S77.581,132.199,78.293,131.791z"/>
		<path d="M92.416,116.995h1.777v16.8h-1.777V116.995z"/>
		<path d="M115.803,122.455c0.937,0.92,1.404,2.26,1.404,4.02v7.32h-1.704v-7.152c0-1.312-0.328-2.312-0.984-3
			c-0.656-0.688-1.592-1.031-2.808-1.031c-1.36,0-2.437,0.404-3.228,1.211c-0.793,0.809-1.188,1.925-1.188,3.349v6.624h-1.704
			v-17.809h1.704v7.393c0.464-0.736,1.104-1.304,1.92-1.704c0.815-0.399,1.752-0.601,2.808-0.601
			C113.607,121.074,114.867,121.535,115.803,122.455z"/>
		<path d="M130.047,122.31c0.881,0.824,1.32,2.045,1.32,3.66v7.824h-1.632v-1.968c-0.384,0.656-0.948,1.168-1.692,1.536
			s-1.628,0.552-2.651,0.552c-1.408,0-2.528-0.336-3.36-1.008s-1.248-1.561-1.248-2.664c0-1.071,0.388-1.937,1.164-2.593
			c0.775-0.655,2.012-0.983,3.708-0.983h4.009v-0.769c0-1.088-0.305-1.916-0.912-2.483c-0.609-0.567-1.496-0.853-2.664-0.853
			c-0.801,0-1.568,0.133-2.305,0.396s-1.367,0.628-1.896,1.092l-0.768-1.271c0.641-0.544,1.408-0.965,2.305-1.26
			c0.896-0.297,1.84-0.445,2.832-0.445C127.903,121.074,129.168,121.486,130.047,122.31z M128.127,131.911
			c0.688-0.44,1.2-1.076,1.537-1.908v-2.063h-3.961c-2.16,0-3.24,0.752-3.24,2.256c0,0.735,0.28,1.315,0.84,1.739
			c0.561,0.425,1.345,0.637,2.353,0.637C126.615,132.571,127.439,132.351,128.127,131.911z"/>
		<path d="M146.367,121.171l-5.615,12.624H139l-5.593-12.624h1.776l4.728,10.752l4.776-10.752H146.367z"/>
		<path d="M159.399,128.01h-10.56c0.096,1.313,0.6,2.372,1.512,3.181c0.912,0.808,2.063,1.212,3.455,1.212
			c0.784,0,1.504-0.141,2.16-0.42c0.656-0.28,1.225-0.692,1.705-1.236l0.959,1.104c-0.561,0.672-1.26,1.185-2.1,1.536
			c-0.84,0.353-1.764,0.528-2.771,0.528c-1.297,0-2.445-0.276-3.444-0.828c-1.001-0.552-1.78-1.315-2.341-2.292
			c-0.56-0.976-0.84-2.08-0.84-3.313c0-1.231,0.268-2.336,0.805-3.312c0.535-0.976,1.271-1.735,2.208-2.28
			c0.936-0.543,1.987-0.816,3.155-0.816s2.217,0.273,3.145,0.816c0.928,0.545,1.656,1.301,2.184,2.268
			c0.528,0.969,0.793,2.076,0.793,3.324L159.399,128.01z M150.243,123.703c-0.824,0.775-1.292,1.787-1.403,3.035h8.951
			c-0.111-1.248-0.58-2.26-1.404-3.035s-1.852-1.164-3.084-1.164C152.087,122.539,151.066,122.927,150.243,123.703z"/>
		<path d="M175.838,133.027c-0.32,0.287-0.716,0.508-1.188,0.659c-0.473,0.152-0.964,0.229-1.477,0.229
			c-1.184,0-2.096-0.32-2.735-0.96s-0.96-1.544-0.96-2.712v-7.632h-2.256v-1.44h2.256v-2.76h1.704v2.76h3.84v1.44h-3.84v7.535
			c0,0.753,0.188,1.324,0.563,1.717c0.376,0.392,0.916,0.588,1.62,0.588c0.353,0,0.692-0.056,1.021-0.168s0.611-0.272,0.852-0.48
			L175.838,133.027z"/>
		<path d="M180.349,133.087c-0.976-0.552-1.744-1.315-2.304-2.292c-0.56-0.976-0.84-2.08-0.84-3.313c0-1.231,0.28-2.336,0.84-3.312
			s1.328-1.735,2.304-2.28c0.977-0.543,2.072-0.816,3.289-0.816c1.215,0,2.311,0.273,3.287,0.816c0.977,0.545,1.74,1.305,2.293,2.28
			c0.551,0.976,0.827,2.08,0.827,3.312c0,1.232-0.276,2.337-0.827,3.313c-0.553,0.977-1.316,1.74-2.293,2.292
			s-2.072,0.828-3.287,0.828C182.422,133.915,181.326,133.638,180.349,133.087z M186.051,131.791
			c0.711-0.408,1.268-0.988,1.668-1.74c0.398-0.752,0.6-1.607,0.6-2.568c0-0.959-0.201-1.815-0.6-2.567
			c-0.4-0.752-0.957-1.332-1.668-1.74c-0.713-0.407-1.518-0.612-2.412-0.612c-0.896,0-1.701,0.205-2.412,0.612
			c-0.713,0.408-1.272,0.988-1.681,1.74c-0.407,0.752-0.612,1.608-0.612,2.567c0,0.961,0.205,1.816,0.612,2.568
			c0.408,0.752,0.968,1.332,1.681,1.74c0.711,0.408,1.516,0.612,2.412,0.612C184.533,132.403,185.338,132.199,186.051,131.791z"/>
		<path d="M206.461,133.027c-0.32,0.287-0.716,0.508-1.188,0.659c-0.473,0.152-0.964,0.229-1.477,0.229
			c-1.184,0-2.096-0.32-2.735-0.96s-0.96-1.544-0.96-2.712v-7.632h-2.256v-1.44h2.256v-2.76h1.704v2.76h3.84v1.44h-3.84v7.535
			c0,0.753,0.188,1.324,0.563,1.717c0.376,0.392,0.916,0.588,1.62,0.588c0.353,0,0.692-0.056,1.021-0.168s0.611-0.272,0.852-0.48
			L206.461,133.027z"/>
		<path d="M212.976,121.722c0.793-0.432,1.772-0.648,2.94-0.648v1.656l-0.407-0.023c-1.329,0-2.369,0.408-3.121,1.225
			c-0.752,0.815-1.127,1.959-1.127,3.432v6.432h-1.705v-12.624h1.633v2.472C211.589,122.795,212.185,122.154,212.976,121.722z"/>
		<path d="M227.173,122.31c0.88,0.824,1.319,2.045,1.319,3.66v7.824h-1.631v-1.968c-0.385,0.656-0.948,1.168-1.692,1.536
			s-1.628,0.552-2.651,0.552c-1.408,0-2.529-0.336-3.361-1.008s-1.248-1.561-1.248-2.664c0-1.071,0.389-1.937,1.164-2.593
			c0.776-0.655,2.013-0.983,3.709-0.983h4.008v-0.769c0-1.088-0.305-1.916-0.912-2.483c-0.608-0.567-1.496-0.853-2.664-0.853
			c-0.801,0-1.568,0.133-2.305,0.396c-0.735,0.264-1.367,0.628-1.896,1.092l-0.769-1.271c0.641-0.544,1.408-0.965,2.305-1.26
			c0.896-0.297,1.84-0.445,2.832-0.445C225.029,121.074,226.293,121.486,227.173,122.31z M225.253,131.911
			c0.688-0.44,1.2-1.076,1.536-1.908v-2.063h-3.96c-2.16,0-3.24,0.752-3.24,2.256c0,0.735,0.28,1.315,0.84,1.739
			c0.56,0.425,1.345,0.637,2.353,0.637C223.74,132.571,224.564,132.351,225.253,131.911z"/>
		<path d="M235.056,133.098c-0.984-0.544-1.756-1.308-2.316-2.292c-0.56-0.983-0.84-2.092-0.84-3.324c0-1.231,0.28-2.336,0.84-3.312
			c0.561-0.976,1.332-1.735,2.316-2.28c0.984-0.543,2.1-0.816,3.348-0.816c1.088,0,2.061,0.213,2.916,0.637
			c0.856,0.424,1.532,1.044,2.028,1.859l-1.272,0.865c-0.416-0.625-0.943-1.093-1.584-1.404c-0.64-0.313-1.336-0.469-2.088-0.469
			c-0.912,0-1.731,0.205-2.459,0.612c-0.729,0.408-1.297,0.988-1.705,1.74c-0.407,0.752-0.611,1.608-0.611,2.567
			c0,0.977,0.204,1.836,0.611,2.58c0.408,0.744,0.977,1.32,1.705,1.729c0.728,0.408,1.547,0.612,2.459,0.612
			c0.752,0,1.448-0.152,2.088-0.456c0.641-0.304,1.168-0.769,1.584-1.393l1.272,0.864c-0.496,0.816-1.176,1.437-2.04,1.86
			c-0.863,0.424-1.832,0.636-2.904,0.636C237.156,133.915,236.041,133.642,235.056,133.098z"/>
		<path d="M251.173,127.459l-2.976,2.736v3.6h-1.705v-17.809h1.705v12.072l7.535-6.888h2.112l-5.399,5.16l5.903,7.464h-2.088
			L251.173,127.459z"/>
		<path d="M267.18,118.051c-0.24-0.24-0.36-0.527-0.36-0.863c0-0.32,0.12-0.601,0.36-0.841c0.239-0.239,0.536-0.36,0.888-0.36
			s0.648,0.117,0.889,0.349s0.359,0.509,0.359,0.828c0,0.353-0.119,0.647-0.359,0.888s-0.537,0.36-0.889,0.36
			S267.42,118.291,267.18,118.051z M267.205,121.171h1.703v12.624h-1.703V121.171z"/>
		<path d="M280.308,133.027c-0.32,0.287-0.717,0.508-1.188,0.659c-0.473,0.152-0.965,0.229-1.477,0.229
			c-1.184,0-2.096-0.32-2.736-0.96c-0.64-0.64-0.959-1.544-0.959-2.712v-7.632h-2.256v-1.44h2.256v-2.76h1.703v2.76h3.84v1.44h-3.84
			v7.535c0,0.753,0.188,1.324,0.564,1.717c0.375,0.392,0.916,0.588,1.619,0.588c0.353,0,0.692-0.056,1.021-0.168
			s0.612-0.272,0.853-0.48L280.308,133.027z"/>
		<path fill="#FF922D" d="M309.431,122.119c0.952,0.952,1.428,2.38,1.428,4.283v7.393h-3.744v-6.816
			c0-1.023-0.211-1.787-0.635-2.291c-0.425-0.504-1.029-0.756-1.813-0.756c-0.881,0-1.576,0.283-2.088,0.852
			s-0.768,1.412-0.768,2.531v6.48h-3.744v-6.816c0-2.031-0.816-3.047-2.448-3.047c-0.864,0-1.552,0.283-2.063,0.852
			c-0.514,0.568-0.769,1.412-0.769,2.531v6.48h-3.744v-12.912h3.576v1.488c0.479-0.544,1.067-0.96,1.764-1.248
			s1.46-0.432,2.292-0.432c0.912,0,1.736,0.18,2.473,0.539c0.735,0.36,1.327,0.885,1.775,1.572c0.528-0.672,1.195-1.191,2.004-1.56
			s1.692-0.552,2.652-0.552C307.195,120.691,308.48,121.167,309.431,122.119z"/>
		<path fill="#FF922D" d="M324.035,122.119c1.072,0.952,1.608,2.388,1.608,4.308v7.368h-3.504v-1.608
			c-0.704,1.2-2.017,1.801-3.937,1.801c-0.992,0-1.852-0.168-2.58-0.504c-0.728-0.337-1.283-0.801-1.668-1.393
			c-0.383-0.592-0.575-1.264-0.575-2.016c0-1.2,0.452-2.144,1.356-2.832c0.903-0.688,2.299-1.032,4.188-1.032h2.977
			c0-0.816-0.249-1.443-0.744-1.884c-0.496-0.44-1.24-0.66-2.232-0.66c-0.688,0-1.364,0.108-2.028,0.323
			c-0.664,0.217-1.228,0.509-1.692,0.877l-1.344-2.616c0.704-0.495,1.549-0.88,2.532-1.151c0.983-0.272,1.995-0.408,3.036-0.408
			C321.427,120.691,322.963,121.167,324.035,122.119z M320.844,131.022c0.496-0.296,0.848-0.731,1.057-1.308v-1.32h-2.568
			c-1.536,0-2.305,0.504-2.305,1.513c0,0.479,0.188,0.86,0.564,1.14c0.375,0.28,0.892,0.42,1.548,0.42
			C319.779,131.467,320.347,131.319,320.844,131.022z"/>
		<path fill="#FF922D" d="M340.752,122.131c0.983,0.96,1.476,2.385,1.476,4.271v7.393h-3.744v-6.816
			c0-1.023-0.224-1.787-0.672-2.291s-1.097-0.756-1.944-0.756c-0.944,0-1.695,0.291-2.256,0.875s-0.84,1.452-0.84,2.604v6.384
			h-3.744v-12.912h3.576v1.512c0.496-0.543,1.111-0.963,1.848-1.26c0.736-0.296,1.544-0.443,2.424-0.443
			C338.474,120.691,339.767,121.171,340.752,122.131z"/>
		<path fill="#FF922D" d="M358.619,120.883v12.912h-3.552v-1.536c-0.496,0.561-1.089,0.988-1.776,1.284s-1.432,0.444-2.232,0.444
			c-1.695,0-3.039-0.488-4.031-1.465c-0.992-0.976-1.488-2.424-1.488-4.344v-7.296h3.744v6.744c0,2.08,0.872,3.12,2.616,3.12
			c0.896,0,1.616-0.292,2.159-0.876c0.545-0.584,0.816-1.452,0.816-2.604v-6.385H358.619z"/>
		<path fill="#FF922D" d="M371.915,122.119c1.071,0.952,1.608,2.388,1.608,4.308v7.368h-3.504v-1.608
			c-0.705,1.2-2.017,1.801-3.937,1.801c-0.992,0-1.853-0.168-2.58-0.504c-0.728-0.337-1.284-0.801-1.668-1.393
			s-0.575-1.264-0.575-2.016c0-1.2,0.451-2.144,1.355-2.832s2.3-1.032,4.188-1.032h2.977c0-0.816-0.248-1.443-0.744-1.884
			s-1.24-0.66-2.232-0.66c-0.688,0-1.363,0.108-2.027,0.323c-0.664,0.217-1.229,0.509-1.692,0.877l-1.344-2.616
			c0.704-0.495,1.548-0.88,2.532-1.151c0.983-0.272,1.995-0.408,3.035-0.408C369.306,120.691,370.843,121.167,371.915,122.119z
			 M368.722,131.022c0.496-0.296,0.848-0.731,1.057-1.308v-1.32h-2.568c-1.535,0-2.304,0.504-2.304,1.513
			c0,0.479,0.188,0.86,0.563,1.14c0.376,0.28,0.893,0.42,1.549,0.42C367.658,131.467,368.226,131.319,368.722,131.022z"/>
		<path fill="#FF922D" d="M376.906,115.986h3.744v17.809h-3.744V115.986z"/>
		<path fill="#FF922D" d="M384.13,115.986h3.744v17.809h-3.744V115.986z"/>
		<path fill="#FF922D" d="M404.17,120.883l-5.832,13.704c-0.592,1.488-1.324,2.536-2.196,3.144
			c-0.872,0.608-1.924,0.912-3.155,0.912c-0.672,0-1.337-0.104-1.992-0.312c-0.656-0.208-1.192-0.496-1.608-0.864l1.368-2.664
			c0.288,0.256,0.62,0.456,0.996,0.601c0.376,0.144,0.748,0.216,1.116,0.216c0.512,0,0.928-0.124,1.248-0.372
			c0.319-0.248,0.607-0.66,0.863-1.236l0.049-0.12l-5.593-13.008h3.864l3.624,8.761l3.648-8.761H404.17z"/>
		<path d="M409.941,127.027c0.216-0.496,0.483-0.92,0.804-1.272c0.32-0.352,0.736-0.752,1.248-1.2
			c0.688-0.607,1.196-1.14,1.524-1.596s0.492-1.012,0.492-1.668c0-0.88-0.345-1.588-1.032-2.124
			c-0.688-0.536-1.632-0.804-2.832-0.804c-1.984,0-3.513,0.647-4.584,1.943l-1.272-0.96c1.36-1.663,3.353-2.495,5.977-2.495
			c1.68,0,3.02,0.375,4.02,1.127s1.5,1.769,1.5,3.049c0,0.656-0.107,1.235-0.323,1.74c-0.217,0.504-0.48,0.932-0.792,1.283
			c-0.313,0.352-0.725,0.76-1.236,1.225c-0.688,0.623-1.2,1.18-1.536,1.668s-0.504,1.092-0.504,1.812h-1.776
			C409.617,128.099,409.725,127.523,409.941,127.027z M409.617,133.543c-0.239-0.248-0.359-0.54-0.359-0.876
			c0-0.352,0.12-0.644,0.359-0.876c0.24-0.231,0.536-0.348,0.889-0.348c0.367,0,0.672,0.116,0.912,0.348
			c0.239,0.232,0.359,0.524,0.359,0.876c0,0.336-0.124,0.628-0.372,0.876s-0.548,0.372-0.899,0.372
			C410.153,133.915,409.857,133.791,409.617,133.543z"/>
		<path d="M426.609,116.995h1.775v16.8h-1.775V116.995z"/>
		<path d="M436.413,138.367c-0.472-0.137-0.859-0.341-1.164-0.612l0.601-1.296c0.496,0.432,1.151,0.647,1.968,0.647
			c0.672,0,1.188-0.2,1.548-0.6c0.36-0.4,0.54-0.992,0.54-1.776v-13.56h1.704v13.56c0,1.185-0.32,2.12-0.96,2.809
			c-0.641,0.688-1.553,1.032-2.736,1.032C437.385,138.571,436.885,138.503,436.413,138.367z M439.881,118.027
			c-0.239-0.24-0.359-0.528-0.359-0.864c0-0.319,0.12-0.601,0.359-0.841c0.24-0.239,0.536-0.359,0.889-0.359
			c0.352,0,0.647,0.116,0.888,0.348c0.24,0.232,0.36,0.508,0.36,0.828c0,0.353-0.12,0.648-0.36,0.889s-0.536,0.359-0.888,0.359
			C440.417,118.386,440.121,118.267,439.881,118.027z"/>
		<path d="M457.736,121.171v12.624h-1.632v-2.304c-0.448,0.768-1.064,1.364-1.848,1.788c-0.784,0.424-1.681,0.636-2.688,0.636
			c-1.648,0-2.948-0.46-3.9-1.38s-1.428-2.269-1.428-4.045v-7.319h1.704v7.151c0,1.329,0.328,2.337,0.984,3.024
			c0.655,0.688,1.592,1.032,2.808,1.032c1.328,0,2.376-0.404,3.145-1.212c0.768-0.808,1.151-1.933,1.151-3.372v-6.624H457.736z"/>
		<path d="M462.956,133.47c-0.937-0.296-1.668-0.668-2.196-1.116l0.768-1.344c0.528,0.416,1.192,0.756,1.992,1.021
			c0.8,0.264,1.632,0.396,2.496,0.396c1.152,0,2.004-0.18,2.556-0.54c0.553-0.359,0.828-0.867,0.828-1.523
			c0-0.464-0.152-0.828-0.456-1.092c-0.304-0.265-0.688-0.465-1.151-0.601c-0.465-0.136-1.08-0.268-1.849-0.396
			c-1.023-0.192-1.848-0.389-2.472-0.588c-0.624-0.201-1.156-0.541-1.596-1.021c-0.44-0.479-0.66-1.144-0.66-1.992
			c0-1.056,0.439-1.92,1.32-2.592c0.879-0.672,2.104-1.009,3.672-1.009c0.815,0,1.632,0.109,2.447,0.324
			c0.816,0.217,1.488,0.501,2.017,0.853l-0.744,1.368c-1.04-0.721-2.28-1.08-3.72-1.08c-1.089,0-1.908,0.191-2.46,0.576
			c-0.553,0.384-0.828,0.888-0.828,1.512c0,0.48,0.156,0.863,0.468,1.152c0.313,0.287,0.7,0.5,1.164,0.636s1.104,0.276,1.92,0.42
			c1.008,0.192,1.815,0.384,2.424,0.576s1.128,0.521,1.561,0.983c0.432,0.465,0.647,1.104,0.647,1.92c0,1.104-0.46,1.98-1.38,2.629
			c-0.92,0.647-2.196,0.972-3.828,0.972C464.872,133.915,463.891,133.767,462.956,133.47z"/>
		<path d="M480.896,133.027c-0.32,0.287-0.717,0.508-1.188,0.659c-0.472,0.152-0.964,0.229-1.476,0.229
			c-1.185,0-2.097-0.32-2.736-0.96c-0.641-0.64-0.96-1.544-0.96-2.712v-7.632h-2.256v-1.44h2.256v-2.76h1.704v2.76h3.84v1.44h-3.84
			v7.535c0,0.753,0.188,1.324,0.563,1.717c0.376,0.392,0.916,0.588,1.62,0.588c0.352,0,0.692-0.056,1.021-0.168
			c0.327-0.112,0.611-0.272,0.852-0.48L480.896,133.027z"/>
		<path d="M69.425,149.971l-4.776,12.624h-1.608l-3.984-10.344l-3.984,10.344h-1.608l-4.752-12.624h1.632l3.96,10.728l4.056-10.728
			h1.464l4.032,10.728l4.008-10.728H69.425z"/>
		<path d="M79.817,151.111c0.88,0.824,1.319,2.045,1.319,3.66v7.824h-1.631v-1.968c-0.385,0.656-0.948,1.168-1.692,1.536
			s-1.628,0.552-2.651,0.552c-1.408,0-2.529-0.336-3.361-1.008c-0.832-0.672-1.248-1.561-1.248-2.664
			c0-1.072,0.388-1.936,1.164-2.592c0.776-0.656,2.013-0.984,3.709-0.984h4.008v-0.769c0-1.087-0.305-1.915-0.912-2.483
			c-0.608-0.567-1.496-0.853-2.664-0.853c-0.801,0-1.568,0.133-2.305,0.396c-0.735,0.264-1.367,0.628-1.896,1.092l-0.768-1.271
			c0.64-0.544,1.408-0.964,2.304-1.261c0.896-0.296,1.84-0.443,2.832-0.443C77.674,149.876,78.937,150.288,79.817,151.111z
			 M77.897,160.712c0.688-0.44,1.2-1.076,1.536-1.908v-2.064h-3.96c-2.16,0-3.24,0.753-3.24,2.257c0,0.735,0.28,1.315,0.84,1.739
			c0.56,0.425,1.345,0.637,2.353,0.637C76.385,161.372,77.209,161.152,77.897,160.712z"/>
		<path d="M95.981,151.256c0.937,0.92,1.404,2.26,1.404,4.02v7.32h-1.704v-7.152c0-1.312-0.328-2.312-0.984-3
			c-0.656-0.688-1.592-1.031-2.808-1.031c-1.36,0-2.437,0.404-3.228,1.212c-0.793,0.808-1.188,1.924-1.188,3.348v6.624h-1.704
			v-12.624h1.632v2.328c0.464-0.769,1.108-1.364,1.933-1.788c0.823-0.424,1.779-0.636,2.867-0.636
			C93.785,149.876,95.045,150.336,95.981,151.256z"/>
		<path d="M108.665,161.828c-0.32,0.287-0.716,0.508-1.188,0.659c-0.472,0.152-0.963,0.229-1.476,0.229
			c-1.185,0-2.097-0.32-2.735-0.96c-0.641-0.64-0.961-1.544-0.961-2.712v-7.632h-2.256v-1.44h2.256v-2.76h1.705v2.76h3.84v1.44
			h-3.84v7.535c0,0.753,0.188,1.324,0.563,1.717c0.376,0.392,0.915,0.588,1.62,0.588c0.352,0,0.691-0.056,1.02-0.168
			s0.612-0.272,0.852-0.48L108.665,161.828z"/>
		<path d="M124.697,161.828c-0.32,0.287-0.717,0.508-1.188,0.659c-0.472,0.152-0.964,0.229-1.476,0.229
			c-1.185,0-2.097-0.32-2.736-0.96c-0.641-0.64-0.96-1.544-0.96-2.712v-7.632h-2.256v-1.44h2.256v-2.76h1.704v2.76h3.84v1.44h-3.84
			v7.535c0,0.753,0.188,1.324,0.564,1.717c0.375,0.392,0.915,0.588,1.619,0.588c0.352,0,0.691-0.056,1.02-0.168
			s0.613-0.272,0.853-0.48L124.697,161.828z"/>
		<path d="M129.209,161.887c-0.977-0.552-1.744-1.315-2.305-2.292c-0.561-0.976-0.84-2.08-0.84-3.312
			c0-1.232,0.279-2.336,0.84-3.313c0.561-0.976,1.328-1.736,2.305-2.28c0.975-0.543,2.071-0.815,3.287-0.815
			c1.217,0,2.313,0.272,3.289,0.815c0.975,0.544,1.739,1.305,2.291,2.28c0.553,0.977,0.828,2.08,0.828,3.313
			c0,1.231-0.275,2.336-0.828,3.312c-0.552,0.977-1.316,1.74-2.291,2.292c-0.977,0.552-2.072,0.828-3.289,0.828
			C131.28,162.716,130.183,162.439,129.209,161.887z M134.908,160.592c0.712-0.408,1.268-0.988,1.668-1.74s0.6-1.607,0.6-2.567
			c0-0.961-0.199-1.816-0.6-2.568s-0.956-1.332-1.668-1.74s-1.516-0.612-2.412-0.612s-1.699,0.204-2.412,0.612
			c-0.711,0.408-1.271,0.988-1.68,1.74s-0.611,1.607-0.611,2.568c0,0.96,0.203,1.815,0.611,2.567s0.969,1.332,1.68,1.74
			c0.713,0.408,1.516,0.612,2.412,0.612S134.196,161,134.908,160.592z"/>
		<path d="M168.148,151.244c0.903,0.911,1.355,2.256,1.355,4.031v7.32H167.8v-7.152c0-1.312-0.315-2.312-0.948-3
			c-0.632-0.688-1.523-1.031-2.676-1.031c-1.313,0-2.344,0.404-3.096,1.212s-1.129,1.924-1.129,3.348v6.624h-1.703v-7.152
			c0-1.312-0.316-2.312-0.948-3c-0.632-0.688-1.532-1.031-2.7-1.031c-1.296,0-2.324,0.404-3.084,1.212s-1.14,1.924-1.14,3.348v6.624
			h-1.704v-12.624h1.632v2.304c0.448-0.768,1.071-1.359,1.872-1.775c0.8-0.416,1.72-0.624,2.76-0.624
			c1.057,0,1.973,0.224,2.748,0.672c0.776,0.448,1.356,1.112,1.74,1.992c0.464-0.832,1.132-1.484,2.004-1.956
			s1.868-0.708,2.988-0.708C166,149.876,167.244,150.332,168.148,151.244z"/>
		<path d="M182.344,151.111c0.88,0.824,1.32,2.045,1.32,3.66v7.824h-1.633v-1.968c-0.383,0.656-0.947,1.168-1.691,1.536
			s-1.629,0.552-2.652,0.552c-1.408,0-2.527-0.336-3.359-1.008s-1.248-1.561-1.248-2.664c0-1.072,0.387-1.936,1.164-2.592
			c0.775-0.656,2.012-0.984,3.707-0.984h4.009v-0.769c0-1.087-0.304-1.915-0.912-2.483c-0.608-0.567-1.496-0.853-2.664-0.853
			c-0.8,0-1.568,0.133-2.304,0.396c-0.736,0.264-1.368,0.628-1.896,1.092l-0.768-1.271c0.64-0.544,1.408-0.964,2.304-1.261
			c0.896-0.296,1.84-0.443,2.832-0.443C180.199,149.876,181.464,150.288,182.344,151.111z M180.424,160.712
			c0.688-0.44,1.199-1.076,1.536-1.908v-2.064H178c-2.16,0-3.24,0.753-3.24,2.257c0,0.735,0.279,1.315,0.84,1.739
			c0.561,0.425,1.344,0.637,2.352,0.637C178.912,161.372,179.736,161.152,180.424,160.712z"/>
		<path d="M192.976,156.26L190,158.996v3.6h-1.704v-17.808H190v12.071l7.536-6.888h2.112l-5.4,5.16l5.904,7.464h-2.088
			L192.976,156.26z"/>
		<path d="M213.208,156.811h-10.56c0.096,1.313,0.6,2.372,1.512,3.181c0.912,0.808,2.063,1.212,3.455,1.212
			c0.784,0,1.504-0.141,2.16-0.42c0.656-0.28,1.225-0.692,1.705-1.236l0.959,1.104c-0.561,0.672-1.26,1.185-2.1,1.536
			c-0.84,0.353-1.764,0.528-2.771,0.528c-1.297,0-2.445-0.276-3.444-0.828c-1.001-0.552-1.78-1.315-2.341-2.292
			c-0.56-0.976-0.84-2.08-0.84-3.312c0-1.232,0.268-2.336,0.805-3.313c0.535-0.976,1.271-1.736,2.208-2.28
			c0.936-0.543,1.987-0.815,3.155-0.815s2.217,0.272,3.145,0.815c0.928,0.544,1.656,1.301,2.184,2.269
			c0.528,0.968,0.793,2.076,0.793,3.324L213.208,156.811z M204.052,152.504c-0.824,0.776-1.292,1.788-1.403,3.036h8.951
			c-0.111-1.248-0.58-2.26-1.404-3.036s-1.852-1.164-3.084-1.164C205.895,151.34,204.875,151.727,204.052,152.504z"/>
		<path d="M232.719,150.679c0.961,0.536,1.713,1.292,2.256,2.268c0.544,0.977,0.816,2.089,0.816,3.337
			c0,1.264-0.272,2.384-0.816,3.359c-0.543,0.977-1.292,1.732-2.244,2.269c-0.951,0.536-2.027,0.804-3.228,0.804
			c-1.024,0-1.948-0.212-2.772-0.636s-1.5-1.044-2.027-1.86v7.032h-1.704v-17.28h1.632v2.496c0.512-0.832,1.188-1.472,2.028-1.92
			c0.84-0.448,1.788-0.672,2.844-0.672C230.687,149.876,231.76,150.143,232.719,150.679z M231.783,160.592
			c0.72-0.408,1.283-0.988,1.691-1.74s0.612-1.607,0.612-2.567c0-0.961-0.204-1.813-0.612-2.557s-0.972-1.323-1.691-1.74
			c-0.721-0.415-1.521-0.624-2.4-0.624c-0.896,0-1.7,0.209-2.412,0.624c-0.712,0.417-1.271,0.996-1.68,1.74
			s-0.611,1.596-0.611,2.557c0,0.96,0.203,1.815,0.611,2.567s0.968,1.332,1.68,1.74s1.516,0.612,2.412,0.612
			C230.262,161.204,231.062,161,231.783,160.592z"/>
		<path d="M247.407,151.111c0.88,0.824,1.319,2.045,1.319,3.66v7.824h-1.631v-1.968c-0.385,0.656-0.948,1.168-1.692,1.536
			s-1.628,0.552-2.651,0.552c-1.408,0-2.529-0.336-3.361-1.008s-1.248-1.561-1.248-2.664c0-1.072,0.389-1.936,1.164-2.592
			c0.776-0.656,2.013-0.984,3.709-0.984h4.008v-0.769c0-1.087-0.305-1.915-0.912-2.483c-0.608-0.567-1.496-0.853-2.664-0.853
			c-0.801,0-1.568,0.133-2.305,0.396c-0.735,0.264-1.367,0.628-1.896,1.092l-0.769-1.271c0.641-0.544,1.408-0.964,2.305-1.261
			c0.896-0.296,1.84-0.443,2.832-0.443C245.263,149.876,246.527,150.288,247.407,151.111z M245.487,160.712
			c0.688-0.44,1.2-1.076,1.536-1.908v-2.064h-3.96c-2.16,0-3.24,0.753-3.24,2.257c0,0.735,0.28,1.315,0.84,1.739
			c0.56,0.425,1.345,0.637,2.353,0.637C243.974,161.372,244.799,161.152,245.487,160.712z"/>
		<path d="M263.726,149.971l-6.312,14.136c-0.513,1.185-1.104,2.024-1.776,2.521c-0.672,0.495-1.479,0.744-2.424,0.744
			c-0.607,0-1.176-0.097-1.703-0.288c-0.528-0.192-0.984-0.48-1.369-0.864l0.793-1.272c0.639,0.641,1.407,0.96,2.304,0.96
			c0.575,0,1.067-0.159,1.476-0.479s0.788-0.864,1.141-1.632l0.552-1.225l-5.64-12.6h1.775l4.752,10.728l4.752-10.728H263.726z"/>
		<path d="M285.603,151.244c0.903,0.911,1.355,2.256,1.355,4.031v7.32h-1.704v-7.152c0-1.312-0.315-2.312-0.948-3
			c-0.632-0.688-1.523-1.031-2.676-1.031c-1.313,0-2.344,0.404-3.096,1.212s-1.129,1.924-1.129,3.348v6.624h-1.703v-7.152
			c0-1.312-0.316-2.312-0.948-3c-0.632-0.688-1.532-1.031-2.7-1.031c-1.296,0-2.324,0.404-3.084,1.212s-1.14,1.924-1.14,3.348v6.624
			h-1.704v-12.624h1.632v2.304c0.448-0.768,1.071-1.359,1.872-1.775c0.8-0.416,1.72-0.624,2.76-0.624
			c1.057,0,1.973,0.224,2.748,0.672c0.776,0.448,1.356,1.112,1.74,1.992c0.464-0.832,1.132-1.484,2.004-1.956
			s1.868-0.708,2.988-0.708C283.455,149.876,284.699,150.332,285.603,151.244z"/>
		<path d="M302.631,156.811H292.07c0.096,1.313,0.601,2.372,1.512,3.181c0.912,0.808,2.064,1.212,3.457,1.212
			c0.783,0,1.504-0.141,2.16-0.42c0.655-0.28,1.224-0.692,1.703-1.236l0.961,1.104c-0.561,0.672-1.261,1.185-2.101,1.536
			c-0.84,0.353-1.765,0.528-2.772,0.528c-1.295,0-2.443-0.276-3.443-0.828s-1.78-1.315-2.34-2.292
			c-0.561-0.976-0.84-2.08-0.84-3.312c0-1.232,0.268-2.336,0.804-3.313c0.536-0.976,1.272-1.736,2.208-2.28
			c0.936-0.543,1.988-0.815,3.156-0.815s2.215,0.272,3.144,0.815c0.928,0.544,1.655,1.301,2.185,2.269
			c0.527,0.968,0.791,2.076,0.791,3.324L302.631,156.811z M293.474,152.504c-0.824,0.776-1.292,1.788-1.404,3.036h8.952
			c-0.112-1.248-0.58-2.26-1.403-3.036c-0.824-0.776-1.853-1.164-3.084-1.164C295.318,151.34,294.299,151.727,293.474,152.504z"/>
		<path d="M316.345,151.256c0.937,0.92,1.404,2.26,1.404,4.02v7.32h-1.703v-7.152c0-1.312-0.328-2.312-0.984-3
			c-0.656-0.688-1.592-1.031-2.809-1.031c-1.359,0-2.436,0.404-3.228,1.212s-1.188,1.924-1.188,3.348v6.624h-1.703v-12.624h1.631
			v2.328c0.465-0.769,1.108-1.364,1.933-1.788c0.823-0.424,1.78-0.636,2.868-0.636C314.15,149.876,315.41,150.336,316.345,151.256z"
			/>
		<path d="M329.029,161.828c-0.32,0.287-0.716,0.508-1.188,0.659c-0.473,0.152-0.964,0.229-1.477,0.229
			c-1.184,0-2.096-0.32-2.735-0.96s-0.96-1.544-0.96-2.712v-7.632h-2.256v-1.44h2.256v-2.76h1.704v2.76h3.84v1.44h-3.84v7.535
			c0,0.753,0.188,1.324,0.563,1.717c0.376,0.392,0.916,0.588,1.62,0.588c0.353,0,0.692-0.056,1.021-0.168s0.611-0.272,0.852-0.48
			L329.029,161.828z"/>
		<path d="M346.621,151.111c0.88,0.824,1.32,2.045,1.32,3.66v7.824h-1.633v-1.968c-0.383,0.656-0.947,1.168-1.691,1.536
			s-1.629,0.552-2.652,0.552c-1.408,0-2.527-0.336-3.359-1.008s-1.248-1.561-1.248-2.664c0-1.072,0.387-1.936,1.164-2.592
			c0.775-0.656,2.012-0.984,3.707-0.984h4.009v-0.769c0-1.087-0.304-1.915-0.912-2.483c-0.608-0.567-1.496-0.853-2.664-0.853
			c-0.8,0-1.568,0.133-2.304,0.396c-0.736,0.264-1.368,0.628-1.896,1.092l-0.768-1.271c0.64-0.544,1.408-0.964,2.304-1.261
			c0.896-0.296,1.84-0.443,2.832-0.443C344.476,149.876,345.741,150.288,346.621,151.111z M344.701,160.712
			c0.688-0.44,1.199-1.076,1.536-1.908v-2.064h-3.96c-2.16,0-3.24,0.753-3.24,2.257c0,0.735,0.279,1.315,0.84,1.739
			c0.561,0.425,1.344,0.637,2.352,0.637C343.189,161.372,344.013,161.152,344.701,160.712z"/>
		<path d="M362.785,151.256c0.936,0.92,1.404,2.26,1.404,4.02v7.32h-1.704v-7.152c0-1.312-0.328-2.312-0.983-3
			c-0.656-0.688-1.593-1.031-2.809-1.031c-1.36,0-2.436,0.404-3.229,1.212c-0.791,0.808-1.188,1.924-1.188,3.348v6.624h-1.704
			v-12.624h1.632v2.328c0.464-0.769,1.107-1.364,1.932-1.788s1.78-0.636,2.869-0.636
			C360.59,149.876,361.849,150.336,362.785,151.256z"/>
		<path d="M380.389,144.788v17.808h-1.633v-2.496c-0.512,0.849-1.188,1.496-2.027,1.944s-1.788,0.672-2.845,0.672
			c-1.184,0-2.256-0.272-3.216-0.816s-1.712-1.304-2.256-2.279c-0.544-0.977-0.815-2.089-0.815-3.336
			c0-1.248,0.271-2.36,0.815-3.337c0.544-0.976,1.296-1.731,2.256-2.268s2.032-0.804,3.216-0.804c1.024,0,1.948,0.212,2.772,0.636
			s1.5,1.044,2.028,1.86v-7.584H380.389z M376.417,160.592c0.712-0.408,1.272-0.988,1.68-1.74c0.408-0.752,0.612-1.607,0.612-2.567
			c0-0.961-0.204-1.816-0.612-2.568c-0.407-0.752-0.968-1.332-1.68-1.74s-1.508-0.612-2.388-0.612c-0.896,0-1.7,0.204-2.412,0.612
			s-1.271,0.988-1.68,1.74s-0.612,1.607-0.612,2.568c0,0.96,0.204,1.815,0.612,2.567s0.968,1.332,1.68,1.74s1.516,0.612,2.412,0.612
			C374.909,161.204,375.705,161,376.417,160.592z"/>
		<path fill="#FF922D" d="M411.169,150.92c0.951,0.952,1.428,2.38,1.428,4.284v7.392h-3.744v-6.816c0-1.023-0.212-1.787-0.636-2.292
			c-0.424-0.504-1.028-0.756-1.813-0.756c-0.88,0-1.576,0.284-2.088,0.853c-0.512,0.567-0.768,1.412-0.768,2.531v6.48h-3.744v-6.816
			c0-2.031-0.816-3.048-2.448-3.048c-0.863,0-1.552,0.284-2.063,0.853c-0.513,0.567-0.769,1.412-0.769,2.531v6.48h-3.744v-12.912
			h3.576v1.488c0.48-0.544,1.068-0.96,1.765-1.248c0.695-0.288,1.46-0.432,2.292-0.432c0.912,0,1.735,0.18,2.472,0.539
			c0.735,0.36,1.328,0.885,1.776,1.572c0.527-0.672,1.195-1.191,2.004-1.56c0.808-0.368,1.691-0.552,2.651-0.552
			C408.932,149.492,410.217,149.968,411.169,150.92z"/>
		<path fill="#FF922D" d="M418.584,161.935c-1.08-0.567-1.924-1.355-2.532-2.364c-0.608-1.008-0.912-2.151-0.912-3.432
			s0.304-2.424,0.912-3.432c0.608-1.009,1.452-1.796,2.532-2.364c1.08-0.567,2.3-0.852,3.66-0.852c1.359,0,2.576,0.284,3.647,0.852
			c1.072,0.568,1.912,1.355,2.521,2.364c0.607,1.008,0.912,2.151,0.912,3.432s-0.305,2.424-0.912,3.432
			c-0.608,1.009-1.448,1.797-2.521,2.364c-1.071,0.568-2.288,0.853-3.647,0.853C420.884,162.788,419.664,162.504,418.584,161.935z
			 M424.608,158.744c0.615-0.648,0.924-1.517,0.924-2.604s-0.309-1.956-0.924-2.604c-0.616-0.648-1.404-0.973-2.364-0.973
			s-1.752,0.324-2.376,0.973c-0.624,0.647-0.937,1.516-0.937,2.604s0.313,1.956,0.937,2.604c0.624,0.647,1.416,0.972,2.376,0.972
			S423.992,159.391,424.608,158.744z"/>
		<path fill="#FF922D" d="M444.276,149.683l-5.448,12.912h-3.863l-5.425-12.912h3.864l3.576,8.784l3.696-8.784H444.276z"/>
		<path fill="#FF922D" d="M458.027,157.195h-9.768c0.176,0.801,0.592,1.433,1.248,1.896c0.655,0.464,1.472,0.696,2.448,0.696
			c0.672,0,1.268-0.101,1.787-0.301c0.521-0.199,1.004-0.516,1.452-0.947l1.992,2.159c-1.216,1.393-2.992,2.089-5.328,2.089
			c-1.456,0-2.744-0.284-3.863-0.853c-1.12-0.567-1.984-1.355-2.593-2.364c-0.608-1.008-0.912-2.151-0.912-3.432
			c0-1.264,0.301-2.403,0.9-3.42c0.6-1.016,1.424-1.808,2.472-2.376c1.048-0.567,2.221-0.852,3.517-0.852
			c1.264,0,2.407,0.271,3.432,0.815c1.023,0.544,1.828,1.324,2.412,2.34c0.584,1.017,0.876,2.196,0.876,3.54
			C458.099,156.235,458.075,156.571,458.027,157.195z M449.267,153.044c-0.576,0.479-0.928,1.136-1.056,1.968h6.359
			c-0.128-0.816-0.479-1.468-1.056-1.956s-1.28-0.732-2.112-0.732C450.555,152.323,449.844,152.563,449.267,153.044z"/>
		<path fill="#FF922D" d="M469.871,161.935c-1.08-0.567-1.924-1.355-2.532-2.364c-0.608-1.008-0.912-2.151-0.912-3.432
			s0.304-2.424,0.912-3.432c0.608-1.009,1.452-1.796,2.532-2.364c1.08-0.567,2.3-0.852,3.66-0.852c1.359,0,2.576,0.284,3.647,0.852
			c1.072,0.568,1.912,1.355,2.521,2.364c0.607,1.008,0.912,2.151,0.912,3.432s-0.305,2.424-0.912,3.432
			c-0.608,1.009-1.448,1.797-2.521,2.364c-1.071,0.568-2.288,0.853-3.647,0.853C472.171,162.788,470.951,162.504,469.871,161.935z
			 M475.895,158.744c0.615-0.648,0.924-1.517,0.924-2.604s-0.309-1.956-0.924-2.604c-0.616-0.648-1.404-0.973-2.364-0.973
			s-1.752,0.324-2.376,0.973c-0.624,0.647-0.937,1.516-0.937,2.604s0.313,1.956,0.937,2.604c0.624,0.647,1.416,0.972,2.376,0.972
			S475.279,159.391,475.895,158.744z"/>
		<path fill="#FF922D" d="M494.831,150.931c0.983,0.96,1.476,2.385,1.476,4.272v7.392h-3.744v-6.816
			c0-1.023-0.224-1.787-0.672-2.292c-0.448-0.504-1.096-0.756-1.943-0.756c-0.944,0-1.696,0.292-2.257,0.876
			c-0.56,0.585-0.84,1.452-0.84,2.604v6.384h-3.744v-12.912h3.576v1.512c0.496-0.543,1.112-0.963,1.849-1.26
			c0.735-0.296,1.544-0.443,2.424-0.443C492.554,149.492,493.846,149.971,494.831,150.931z"/>
		<path d="M499.606,162.332c-0.248-0.256-0.371-0.568-0.371-0.937s0.123-0.676,0.371-0.924s0.548-0.372,0.9-0.372
			c0.352,0,0.656,0.124,0.912,0.372s0.384,0.556,0.384,0.924s-0.128,0.681-0.384,0.937s-0.561,0.384-0.912,0.384
			C500.154,162.716,499.854,162.588,499.606,162.332z"/>
	</g>
	<g>
		<path d="M187.703,215.357h5.502v1.302h-5.502V215.357z"/>
		<path d="M212.273,208.344c1.063,0.896,1.596,2.128,1.596,3.695c0,1.568-0.533,2.797-1.596,3.686
			c-1.064,0.889-2.535,1.334-4.41,1.334h-3.948v4.641h-1.554v-14.7h5.502C209.738,206.999,211.209,207.447,212.273,208.344z
			 M211.16,214.738c0.77-0.638,1.154-1.537,1.154-2.699c0-1.189-0.385-2.104-1.154-2.74c-0.771-0.637-1.883-0.955-3.34-0.955h-3.905
			v7.35h3.905C209.277,215.693,210.389,215.375,211.16,214.738z"/>
		<path d="M223.99,211.65c0.77,0.722,1.155,1.789,1.155,3.203v6.846h-1.429v-1.723c-0.336,0.574-0.828,1.022-1.48,1.345
			c-0.65,0.322-1.424,0.483-2.32,0.483c-1.231,0-2.212-0.295-2.939-0.883c-0.729-0.588-1.092-1.365-1.092-2.33
			c0-0.938,0.339-1.694,1.018-2.269c0.68-0.573,1.762-0.86,3.245-0.86h3.507v-0.673c0-0.952-0.266-1.677-0.798-2.173
			c-0.532-0.497-1.31-0.746-2.331-0.746c-0.7,0-1.372,0.115-2.016,0.347c-0.645,0.231-1.197,0.55-1.659,0.956l-0.672-1.113
			c0.56-0.477,1.231-0.844,2.016-1.104c0.784-0.258,1.61-0.388,2.478-0.388C222.114,210.569,223.22,210.929,223.99,211.65z
			 M222.31,220.051c0.602-0.385,1.05-0.941,1.344-1.67v-1.806h-3.465c-1.891,0-2.835,0.658-2.835,1.974
			c0,0.645,0.245,1.152,0.735,1.523s1.176,0.557,2.058,0.557C220.987,220.629,221.709,220.435,222.31,220.051z"/>
		<path d="M232.191,211.136c0.693-0.379,1.551-0.567,2.572-0.567v1.448l-0.357-0.021c-1.162,0-2.072,0.356-2.729,1.071
			c-0.658,0.714-0.987,1.715-0.987,3.003v5.628h-1.49v-11.046h1.428v2.163C230.976,212.074,231.498,211.513,232.191,211.136z"/>
		<path d="M243.752,221.027c-0.281,0.252-0.627,0.444-1.04,0.577s-0.844,0.2-1.292,0.2c-1.035,0-1.834-0.28-2.394-0.841
			c-0.56-0.56-0.84-1.351-0.84-2.372v-6.679h-1.974v-1.26h1.974v-2.415h1.491v2.415h3.359v1.26h-3.359v6.595
			c0,0.658,0.164,1.158,0.493,1.501s0.802,0.515,1.417,0.515c0.309,0,0.605-0.049,0.893-0.147c0.287-0.098,0.536-0.237,0.746-0.42
			L243.752,221.027z"/>
		<path d="M246.439,207.924c-0.21-0.211-0.314-0.463-0.314-0.757c0-0.28,0.104-0.524,0.314-0.735
			c0.21-0.209,0.469-0.314,0.777-0.314c0.307,0,0.566,0.102,0.776,0.305s0.315,0.444,0.315,0.725c0,0.308-0.105,0.566-0.315,0.777
			c-0.21,0.209-0.47,0.314-0.776,0.314C246.908,208.238,246.649,208.133,246.439,207.924z M246.461,210.653h1.49v11.046h-1.49
			V210.653z"/>
		<path d="M253.758,221.09c-0.861-0.476-1.537-1.145-2.026-2.005c-0.49-0.861-0.735-1.831-0.735-2.909s0.245-2.043,0.735-2.897
			c0.489-0.854,1.165-1.519,2.026-1.995c0.861-0.476,1.838-0.714,2.93-0.714c0.951,0,1.803,0.186,2.551,0.556
			c0.75,0.372,1.341,0.914,1.775,1.629l-1.113,0.756c-0.364-0.547-0.826-0.956-1.387-1.229c-0.56-0.273-1.168-0.41-1.826-0.41
			c-0.799,0-1.516,0.179-2.152,0.535c-0.638,0.357-1.135,0.865-1.491,1.523s-0.536,1.406-0.536,2.246
			c0,0.854,0.18,1.607,0.536,2.258c0.356,0.651,0.854,1.155,1.491,1.512c0.637,0.357,1.354,0.536,2.152,0.536
			c0.658,0,1.267-0.134,1.826-0.399c0.561-0.266,1.022-0.672,1.387-1.218l1.113,0.756c-0.435,0.714-1.029,1.257-1.785,1.628
			s-1.604,0.557-2.541,0.557C255.595,221.804,254.619,221.566,253.758,221.09z"/>
		<path d="M263.911,207.924c-0.21-0.211-0.315-0.463-0.315-0.757c0-0.28,0.105-0.524,0.315-0.735
			c0.21-0.209,0.469-0.314,0.776-0.314c0.309,0,0.567,0.102,0.777,0.305s0.314,0.444,0.314,0.725c0,0.308-0.104,0.566-0.314,0.777
			c-0.21,0.209-0.469,0.314-0.777,0.314C264.38,208.238,264.121,208.133,263.911,207.924z M263.931,210.653h1.491v11.046h-1.491
			V210.653z"/>
		<path d="M278.086,211.273c0.84,0.469,1.498,1.13,1.975,1.984c0.475,0.854,0.713,1.826,0.713,2.918c0,1.106-0.238,2.086-0.713,2.94
			c-0.477,0.854-1.131,1.516-1.964,1.984c-0.833,0.47-1.774,0.704-2.825,0.704c-0.896,0-1.704-0.186-2.425-0.557
			c-0.722-0.371-1.313-0.914-1.774-1.628v6.153h-1.491v-15.12h1.428v2.185c0.448-0.729,1.04-1.289,1.774-1.681
			c0.735-0.392,1.564-0.588,2.488-0.588C276.307,210.569,277.246,210.803,278.086,211.273z M277.267,219.945
			c0.629-0.356,1.123-0.863,1.48-1.521c0.356-0.658,0.535-1.408,0.535-2.248s-0.179-1.585-0.535-2.236
			c-0.357-0.65-0.852-1.158-1.48-1.522c-0.631-0.364-1.331-0.546-2.101-0.546c-0.784,0-1.487,0.182-2.11,0.546
			s-1.113,0.872-1.471,1.522c-0.356,0.651-0.535,1.396-0.535,2.236s0.179,1.59,0.535,2.248c0.357,0.658,0.848,1.165,1.471,1.521
			c0.623,0.357,1.326,0.536,2.11,0.536C275.936,220.481,276.636,220.302,277.267,219.945z"/>
		<path d="M290.937,211.65c0.77,0.722,1.155,1.789,1.155,3.203v6.846h-1.429v-1.723c-0.336,0.574-0.828,1.022-1.48,1.345
			c-0.65,0.322-1.424,0.483-2.32,0.483c-1.231,0-2.212-0.295-2.939-0.883c-0.729-0.588-1.092-1.365-1.092-2.33
			c0-0.938,0.339-1.694,1.018-2.269c0.68-0.573,1.762-0.86,3.245-0.86h3.507v-0.673c0-0.952-0.266-1.677-0.798-2.173
			c-0.532-0.497-1.31-0.746-2.331-0.746c-0.7,0-1.372,0.115-2.016,0.347c-0.645,0.231-1.197,0.55-1.659,0.956l-0.672-1.113
			c0.56-0.477,1.231-0.844,2.016-1.104c0.784-0.258,1.61-0.388,2.478-0.388C289.061,210.569,290.168,210.929,290.937,211.65z
			 M289.258,220.051c0.602-0.385,1.05-0.941,1.344-1.67v-1.806h-3.465c-1.891,0-2.835,0.658-2.835,1.974
			c0,0.645,0.245,1.152,0.735,1.523s1.176,0.557,2.058,0.557C287.934,220.629,288.656,220.435,289.258,220.051z"/>
		<path d="M305.082,211.777c0.818,0.805,1.229,1.977,1.229,3.518v6.404h-1.492v-6.258c0-1.148-0.287-2.023-0.86-2.625
			c-0.574-0.602-1.394-0.903-2.457-0.903c-1.19,0-2.132,0.354-2.825,1.061c-0.692,0.707-1.039,1.684-1.039,2.93v5.796h-1.49v-11.046
			h1.428v2.037c0.406-0.673,0.969-1.193,1.689-1.565c0.722-0.37,1.559-0.556,2.51-0.556
			C303.16,210.569,304.261,210.971,305.082,211.777z"/>
		<path d="M316.179,221.027c-0.28,0.252-0.627,0.444-1.039,0.577c-0.414,0.133-0.844,0.2-1.292,0.2c-1.036,0-1.834-0.28-2.394-0.841
			c-0.561-0.56-0.84-1.351-0.84-2.372v-6.679h-1.975v-1.26h1.975v-2.415h1.49v2.415h3.36v1.26h-3.36v6.595
			c0,0.658,0.164,1.158,0.494,1.501c0.328,0.343,0.801,0.515,1.417,0.515c0.308,0,0.605-0.049,0.893-0.147
			c0.286-0.098,0.536-0.237,0.745-0.42L316.179,221.027z"/>
		<path d="M334.617,208.344c1.064,0.896,1.596,2.128,1.596,3.695c0,1.568-0.531,2.797-1.596,3.686s-2.533,1.334-4.41,1.334h-3.947
			v4.641h-1.555v-14.7h5.502C332.084,206.999,333.552,207.447,334.617,208.344z M333.504,214.738
			c0.771-0.638,1.156-1.537,1.156-2.699c0-1.189-0.386-2.104-1.156-2.74c-0.77-0.637-1.883-0.955-3.338-0.955h-3.906v7.35h3.906
			C331.621,215.693,332.734,215.375,333.504,214.738z"/>
		<path d="M348.414,220.355v1.344h-10.311v-1.07l6.111-5.986c0.77-0.756,1.291-1.41,1.564-1.963s0.409-1.109,0.409-1.67
			c0-0.867-0.298-1.543-0.892-2.025c-0.596-0.484-1.446-0.725-2.553-0.725c-1.722,0-3.059,0.545-4.01,1.638l-1.072-0.925
			c0.574-0.672,1.306-1.189,2.195-1.553c0.889-0.365,1.893-0.547,3.014-0.547c1.498,0,2.684,0.354,3.559,1.061
			s1.313,1.677,1.313,2.908c0,0.756-0.168,1.484-0.504,2.185s-0.973,1.505-1.91,2.415l-4.998,4.914H348.414z"/>
	</g>
</g>
</svg>
