<?xml version="1.0" encoding="utf-8"?>
<!-- Generator: Adobe Illustrator 16.0.0, SVG Export Plug-In . SVG Version: 6.00 Build 0)  -->
<!DOCTYPE svg PUBLIC "-//W3C//DTD SVG 1.1//EN" "http://www.w3.org/Graphics/SVG/1.1/DTD/svg11.dtd">
<svg version="1.1" xmlns="http://www.w3.org/2000/svg" xmlns:xlink="http://www.w3.org/1999/xlink" x="0px" y="0px"
	 width="536.032px" height="407.698px" viewBox="0 0 536.032 407.698" enable-background="new 0 0 536.032 407.698"
	 xml:space="preserve">
<g id="图层_1">
	<path fill="#E1E1E1" d="M417.91,247.01c-4.121-0.456-12.734-0.747-21.044-2.496c-13.256-2.783-21.992,1.607-30.858,12.104
		c-49.793,58.98-121.721,59.368-171.823,0.826c-9.305-10.872-17.158-13.082-30.713-8.91c-56.647,17.422-100.962,7.758-113.611-49.54
		c-2.935-13.269-14.269-21.888-25.821-30.13c-26.34-18.794-24.426-61.532-11.86-87.241c12.03-24.619,37.38-36.171,67.339-27.115
		c15.928,4.813,26.058,3.183,38.551-8.46c34.001-31.719,70.325-33.546,109.173-6.185c12.357,8.703,19.491,8.231,30.291-2.187
		c38.662-37.279,77.96-42.204,122.952-15.444c12.903,7.674,25.658,7.146,39.343,7.168c62.398,0.089,111.54,49.204,110.883,110.275
		C530.067,198.881,481.438,247.034,417.91,247.01z"/>
	<path fill-rule="evenodd" clip-rule="evenodd" fill="#F8EFEA" d="M440.158,278.622c-0.103-0.028-0.205-0.058-0.307-0.087
		c0.052,0.09,0.102,0.181,0.152,0.271C440.119,278.799,440.17,278.738,440.158,278.622z"/>
	<g>
		<path fill-rule="evenodd" clip-rule="evenodd" d="M27.561,86.487c0.299,0.652,0.576,1.262,0.873,1.912
			c-1.886,0.911-3.242,2.205-3.574,4.396c0.274,0.088,0.517,0.162,0.757,0.241c3.298,1.093,4.435,5.403,2.026,7.805
			c-1.386,1.382-3.113,1.782-4.97,1.227c-1.964-0.588-3.008-2.075-3.37-4.023c-0.951-5.11,2.523-10.228,7.721-11.434
			C27.177,86.576,27.328,86.541,27.561,86.487z"/>
		<path fill-rule="evenodd" clip-rule="evenodd" d="M40.017,86.482c0.313,0.673,0.598,1.279,0.897,1.921
			c-1.904,0.887-3.233,2.204-3.602,4.409c0.273,0.08,0.54,0.149,0.801,0.238c2.102,0.704,3.359,2.625,3.248,4.955
			c-0.1,2.048-1.518,3.644-3.699,4.159c-2.091,0.492-4.236-0.415-5.23-2.319c-1.305-2.502-1.023-5.042,0.095-7.51
			C33.98,89.127,36.538,87.259,40.017,86.482z"/>
	</g>
	<g>
		<path fill-rule="evenodd" clip-rule="evenodd" d="M505.008,102.307c-0.298-0.653-0.576-1.262-0.873-1.912
			c1.886-0.91,3.241-2.207,3.575-4.396c-0.274-0.088-0.517-0.161-0.757-0.241c-3.298-1.094-4.437-5.403-2.028-7.805
			c1.386-1.383,3.113-1.782,4.971-1.228c1.964,0.588,3.007,2.075,3.37,4.024c0.951,5.11-2.523,10.228-7.721,11.433
			C505.392,102.219,505.242,102.254,505.008,102.307z"/>
		<path fill-rule="evenodd" clip-rule="evenodd" d="M492.551,102.31c-0.313-0.672-0.597-1.278-0.896-1.919
			c1.905-0.887,3.234-2.205,3.602-4.41c-0.274-0.079-0.541-0.149-0.801-0.235c-2.104-0.707-3.358-2.627-3.248-4.957
			c0.1-2.048,1.518-3.645,3.697-4.159c2.093-0.492,4.238,0.415,5.232,2.319c1.306,2.502,1.024,5.043-0.094,7.51
			C498.588,99.668,496.031,101.535,492.551,102.31z"/>
	</g>
	<ellipse fill="#E1E1E1" cx="363.442" cy="306.052" rx="20.491" ry="15.305"/>
	<ellipse fill="#E1E1E1" cx="405.938" cy="328.749" rx="11.491" ry="8.991"/>
	<g>
		<path fill-rule="evenodd" clip-rule="evenodd" fill="#86191B" d="M505.815,365.501c5.74-4.08,5.75-12.973,1.716-18.91
			c-1.431-2.107-2.915-4.18-4.276-6.33c-1.925-3.045-1.93-6.23-0.396-9.441c0.613-1.285,1.146-2.642,1.954-3.795
			c5.14-7.34,5.422-15.375,3.465-23.733c-2.03-8.67-5.95-16.296-12.412-22.515c-1.638-1.576-3.402-2.92-5.468-3.865
			c-0.472-0.216-1.043-0.379-1.361-0.746c-4.764-5.501-11.022-6.48-17.753-5.92c-4.264,0.355-8.374,1.509-12.377,2.963
			c-5.783,2.103-9.343,6.564-11.846,11.963c-1.257,2.715-2.258,5.551-3.339,8.346c-1.383,3.574-2.918,7.035-5.179,10.188
			c-4.22,5.883-4.423,12.726-4.318,19.627c0.076,4.998,1.491,9.332,4.943,13.115c3.934,4.313,4.675,9.391,2.445,14.865
			c-0.849,2.08-1.476,4.256-2.396,6.299c-3.22,7.152-1.716,13.596,2.751,19.629c1.068,1.443,2.202,2.836,3.307,4.252
			c0.353,0.066,0.582,0.273,0.694,0.615l0.07,0.045c0.93-1.26,0.537-2.707,0.563-4.094c-2.65-1.564-2.66-1.59-1.407-3.645
			c-0.414-2.947,0.515-5.795,1.203-8.52c0.591-2.336,0.059-4.961,1.604-7.041c0.754-1.016,0.852-2.168,0.877-3.357
			c1.493-2.844,3.688-4.598,7.03-4.572c0.897-0.02,1.797-0.037,2.696-0.057c-0.026-0.943-0.087-1.807-0.421-2.777
			c-1.794-5.219-2.507-10.506,0.08-15.734c-3.366-3.799-5.811-8.12-7.378-12.961c-1.551-4.797-1.905-9.563,0.278-14.258
			c0.32-0.689,0.46-1.383,1.909-1.449c3.557-0.166,7.083-0.891,10.665-0.23c0.604,0.111,0.748-0.299,0.807-0.793
			c0.057-0.484,0.021-0.928-0.54-1.057c-0.507-0.117-1.026-0.193-1.545-0.244c-2.966-0.287-5.892,0.016-8.849,0.654
			c2.535-2.97,5.597-4.877,9.465-5.264c3.268-0.326,6.549-0.539,9.737-1.389c5.425-1.445,10.269-3.711,12.846-9.211
			c0.22-0.469,0.344-1.274,1.362-1.291c-0.367,1.14-0.552,2.285-1.078,3.238c-1.398,2.538-0.626,4.584,1.151,6.505
			c0.406,0.439,0.72,0.979,1.169,1.363c3.972,3.4,5.281,8.028,5.921,12.952c0.203,1.57,0.259,3.159,0.391,4.857
			c0.924-0.594,1.083-1.764,2.194-1.703l-0.003,0.008c1.843-1.631,3.512-1.324,4.258,0.78c1.371,3.87-0.923,8.378-4.837,9.415
			c-0.731,0.195-1.39,0.234-1.695,1.143c-0.895,2.65-2.504,4.906-4.112,7.154c1.855,1.625,2.547,3.951,3.556,6.066
			c1.866,3.92,1.849,8.182,1.353,12.301c-0.234,1.951-1.219,3.725,0.158,5.57c0.919,0.34,1.661,1.086,2.786,0.982
			c0.783-0.074,0.841,0.623,0.773,1.252c1.789,0.668,2.936,2.066,4.114,3.486C504.423,361.803,504.529,363.95,505.815,365.501z
			 M452.978,302.423l0.148-0.094l0.021,0.139L452.978,302.423z"/>
		<path fill-rule="evenodd" clip-rule="evenodd" fill="#E1E1E1" d="M484.824,391.227c-9.248-0.025-18.496-0.049-27.744-0.08
			c-1.118-0.004-2.235-0.047-3.353-0.072c-2.385,0.855-4.848,0.314-7.273,0.385c-0.78,0.023-1.323-0.541-1.175-1.311
			c0.4-2.078-0.235-4.291,0.817-6.277c-5.395,0.676-10.718,1.645-15.693,3.98c-1.388,0.65-3.038,1.076-3.166,3.047
			c-0.126,1.924,1.29,2.781,2.644,3.553c3.955,2.254,8.419,3.061,12.779,3.744c11.55,1.816,23.203,2.76,34.907,2.309
			c6.449-0.25,12.88-0.863,19.301-1.621c4.366-0.516,8.664-1.254,12.875-2.443c2.189-0.619,4.406-1.316,6.27-2.77
			c1.893-1.477,1.97-3.055,0.168-4.613c-2.866-2.479-6.439-2.873-9.968-3.395c-0.008,1.428-0.019,2.854-0.023,4.277
			c-0.004,1.006-0.489,1.576-1.499,1.539c-4.088-0.146-8.197,0.43-12.268-0.355c-0.217,0.035-0.434,0.07-0.646,0.105
			C489.458,391.657,487.14,391.669,484.824,391.227z"/>
		<path fill-rule="evenodd" clip-rule="evenodd" fill="#F3BD95" d="M446.096,383.872c-1.053,1.986-0.417,4.199-0.817,6.277
			c-0.148,0.77,0.395,1.334,1.175,1.311c2.426-0.07,4.889,0.471,7.273-0.385c-0.404-3.154-0.119-6.381-0.963-9.49
			c-0.372-0.586-0.996-0.789-1.557-1.125c-1.49-0.895-3.313-1.137-4.604-2.402c-0.026,1.387,0.366,2.834-0.563,4.094
			C446.058,382.725,446.077,383.3,446.096,383.872z"/>
		<path fill-rule="evenodd" clip-rule="evenodd" fill="#F3BD95" d="M492.423,391.124c4.07,0.785,8.18,0.209,12.268,0.355
			c1.01,0.037,1.495-0.533,1.499-1.539c0.005-1.424,0.016-2.85,0.023-4.277c-0.403-1.063-0.932-1.609-2.169-0.928
			c-3.788,2.088-7.922,2.488-12.15,2.33C492.07,388.419,492.246,389.77,492.423,391.124z"/>
		<path fill-rule="evenodd" clip-rule="evenodd" fill="#F3BD95" d="M445.969,382.106c-0.112-0.342-0.342-0.549-0.694-0.615
			C445.339,381.887,445.58,382.083,445.969,382.106z"/>
		<path fill-rule="evenodd" clip-rule="evenodd" fill="#F3BD95" d="M490.381,330.575c1.608-2.248,3.218-4.504,4.112-7.154
			c0.306-0.908,0.964-0.947,1.695-1.143c3.914-1.037,6.208-5.545,4.837-9.415c-0.746-2.104-2.415-2.411-4.258-0.78
			c2.274,0.561,3.438,2.611,2.274,4.184c-0.744,1.008-1.714,1.836-2.305,2.986c-0.38,0.739-1.161,0.491-1.808,0.479
			c-0.313-0.006-0.729-0.327-0.571-0.496c1.008-1.078,0.104-3.506,2.634-3.55c1.723-0.03,1.31-1.265,0.802-2.239
			c-0.254-0.49-1.007-0.658-1.023-1.371c-1.111-0.061-1.271,1.109-2.194,1.703c-0.132-1.698-0.188-3.287-0.391-4.857
			c-0.64-4.924-1.949-9.552-5.921-12.952c-0.449-0.384-0.763-0.924-1.169-1.363c-1.777-1.921-2.55-3.967-1.151-6.505
			c0.526-0.953,0.711-2.099,1.078-3.238c-1.019,0.017-1.143,0.822-1.362,1.291c-2.577,5.5-7.421,7.766-12.846,9.211
			c-3.188,0.85-6.47,1.063-9.737,1.389c-3.868,0.387-6.93,2.294-9.465,5.264c2.957-0.639,5.883-0.941,8.849-0.654
			c0.519,0.051,1.038,0.127,1.545,0.244c0.562,0.129,0.597,0.572,0.54,1.057c-0.059,0.494-0.202,0.904-0.807,0.793
			c-3.582-0.66-7.108,0.064-10.665,0.23c-1.449,0.066-1.589,0.76-1.909,1.449c-2.184,4.694-1.829,9.461-0.278,14.258
			c1.567,4.841,4.012,9.162,7.377,12.961c2.873,2.855,6.315,4.887,9.81,6.844c3.758,1.586,7.441,1.201,11.037-0.5
			c0.637-0.301,1.249-0.387,1.907-0.428c0.02-0.717,0.567-1.01,1.077-1.301C485.153,335.225,487.816,332.966,490.381,330.575z
			 M462.29,309.895c0.014,2.262-0.913,3.824-2.18,3.733c-2.003-0.145-2.205-1.793-2.317-3.298c-0.146-1.948,1.042-3.764,2.297-3.557
			C461.974,307.088,462.162,308.67,462.29,309.895z M482.486,310.218c-0.149,1.572-0.344,3.355-2.254,3.361
			c-1.892,0.005-2.191-1.763-2.255-3.312c-0.082-2.017,1.051-3.743,2.325-3.507C482.18,307.11,482.317,308.716,482.486,310.218z"/>
		<path fill-rule="evenodd" clip-rule="evenodd" fill="#491212" d="M490.381,330.575c-2.564,2.391-5.228,4.65-8.286,6.395
			c-0.51,0.291-1.058,0.584-1.077,1.301c-0.004,3.018-0.008,6.033-0.012,9.051c0.334,0.975-0.42,2.197,0.679,2.998
			c0.811,0.217,1.62,0.434,2.43,0.65c0.96,1.176,2.459,1,3.674,1.221c2.663,0.48,5.047,1.766,7.659,2.322
			c-1.377-1.846-0.393-3.619-0.158-5.57c0.496-4.119,0.514-8.381-1.353-12.301C492.927,334.526,492.236,332.2,490.381,330.575z"/>
		<path fill-rule="evenodd" clip-rule="evenodd" fill="#491212" d="M468.073,339.198c-3.494-1.957-6.937-3.988-9.81-6.844
			c-2.586,5.229-1.873,10.516-0.079,15.734c0.334,0.971,0.395,1.834,0.421,2.777c2.419,0.809,4.59-1.041,6.97-0.662
			c0.851-0.074,1.699-0.148,2.547-0.223c0.035-0.426,0.07-0.854,0.104-1.279c0.037-2.018,0.073-4.035,0.11-6.051
			C468.249,341.501,468.161,340.348,468.073,339.198z"/>
		<path fill-rule="evenodd" clip-rule="evenodd" fill="#F8EFEA" d="M452.327,378.01c-2.674-0.604-5.011-1.885-7.132-3.598
			c-1.253,2.055-1.243,2.08,1.407,3.645c1.293,1.266,3.115,1.508,4.605,2.402c0.561,0.336,1.185,0.539,1.557,1.125
			C452.773,380.374,453.142,379.12,452.327,378.01z"/>
		<g>
			<path fill-rule="evenodd" clip-rule="evenodd" fill="#442D40" d="M499.007,356.747c0.067-0.629,0.01-1.326-0.773-1.252
				c-1.125,0.104-1.867-0.643-2.786-0.982c-2.612-0.557-4.996-1.842-7.659-2.322c-1.215-0.221-2.714-0.045-3.674-1.221
				c-1.01,6.869-9.775,10.264-15.44,5.887c-2.088-1.613-3.71-3.664-3.099-6.652c-2.38-0.379-4.551,1.471-6.971,0.662
				c-0.898,0.02-1.798,0.037-2.695,0.057c-0.17,1.297-1.887,0.686-2.202,1.803c-1.438,3.121-2.638,6.209-2.346,9.84
				c0.413,5.139,1.422,10.25,0.966,15.445c0.815,1.109,0.446,2.363,0.438,3.574c0.844,3.109,0.559,6.336,0.963,9.49
				c1.117,0.025,2.234,0.068,3.353,0.072c9.248,0.031,18.496,0.055,27.744,0.08c2.316,0,4.633,0.002,6.95,0.002
				c0.215-0.035,0.432-0.07,0.648-0.105c-0.177-1.354-0.353-2.705-0.528-4.059c-0.709-0.172-1.41-0.4-2.129-0.508
				c-1.622-0.242-2.234-1.16-1.959-2.746c-0.33-1.234-0.361-2.492-0.401-3.766c-0.076-2.379,0.04-4.746-0.316-7.141
				C486.051,365.942,490.877,356.927,499.007,356.747z"/>
			<path fill-rule="evenodd" clip-rule="evenodd" fill="#442D40" d="M499.007,356.747c-8.13,0.18-12.956,9.195-11.918,16.158
				c0.356,2.395,0.24,4.762,0.316,7.141c0.04,1.273,0.071,2.531,0.401,3.766c6.408,2.078,12.317,0.592,18.065-2.434
				c1.534-0.807,1.872-1.789,1.591-3.424c-0.707-4.127-1.542-8.244-1.646-12.453c-1.287-1.551-1.394-3.697-2.695-5.268
				C501.942,358.813,500.796,357.415,499.007,356.747z"/>
			<path fill-rule="evenodd" clip-rule="evenodd" fill="#442D40" d="M452.327,378.01c0.456-5.195-0.553-10.307-0.966-15.445
				c-0.292-3.631,0.908-6.719,2.346-9.84c-1.208-0.127-1.759,0.828-2.45,1.527c-0.667,0.678-1.308,1.361-2.378,1.242
				c-0.025,1.189-0.123,2.342-0.877,3.357c-1.545,2.08-1.013,4.705-1.604,7.041c-0.688,2.725-1.617,5.572-1.203,8.52
				C447.316,376.126,449.653,377.407,452.327,378.01z"/>
			<path fill-rule="evenodd" clip-rule="evenodd" fill="#442D40" d="M448.879,355.495c1.07,0.119,1.711-0.564,2.378-1.242
				c0.691-0.699,1.242-1.654,2.45-1.527c0.315-1.117,2.032-0.506,2.202-1.803C452.567,350.897,450.372,352.651,448.879,355.495z"/>
		</g>
		<polygon fill-rule="evenodd" clip-rule="evenodd" fill="#F3BD95" points="452.978,302.423 453.148,302.468 453.127,302.329 		"/>
		<path fill-rule="evenodd" clip-rule="evenodd" fill="#F8EFEA" d="M468.123,349.981c-0.849,0.074-1.697,0.148-2.548,0.223
			c-0.611,2.988,1.011,5.039,3.099,6.652c5.665,4.377,14.431,0.982,15.44-5.887c-0.81-0.217-1.619-0.434-2.43-0.65
			c-1.527,3.492-3.58,5.809-7.992,5.275c-3.816-0.461-5.16-1.475-5.176-5.508C468.375,350.094,468.243,350.059,468.123,349.981z"/>
		<path fill-rule="evenodd" clip-rule="evenodd" fill="#F3BD95" d="M484.824,391.227c2.316,0.441,4.634,0.43,6.952,0.002
			C489.457,391.229,487.14,391.227,484.824,391.227z"/>
		<path fill-rule="evenodd" clip-rule="evenodd" fill="#DE9F5F" d="M468.073,339.198c0.088,1.15,0.176,2.303,0.265,3.453
			c4.208,1.172,9.164,0.309,12.248,4.551c0.068,0.094,0.277,0.082,0.42,0.119c0.004-3.018,0.008-6.033,0.012-9.051
			c-0.658,0.041-1.271,0.127-1.907,0.428C475.514,340.399,471.831,340.784,468.073,339.198z"/>
		<path fill-rule="evenodd" clip-rule="evenodd" fill="#7C4427" d="M462.29,309.895c-0.128-1.226-0.315-2.808-2.2-3.121
			c-1.255-0.207-2.442,1.608-2.297,3.557c0.112,1.505,0.314,3.153,2.317,3.298C461.377,313.719,462.303,312.157,462.29,309.895z"/>
		<path fill-rule="evenodd" clip-rule="evenodd" fill="#7C4427" d="M482.486,310.218c-0.169-1.502-0.306-3.107-2.184-3.457
			c-1.274-0.236-2.407,1.49-2.325,3.507c0.063,1.549,0.363,3.316,2.255,3.312C482.142,313.573,482.337,311.79,482.486,310.218z"/>
		<path fill-rule="evenodd" clip-rule="evenodd" fill="#86191B" d="M489.121,304.901c0.091-1.29-0.736-1.549-1.475-1.874
			c-2.873-1.271-5.911-1.478-8.99-1.409c-0.725,0.016-1.328,0.119-1.29,1.101c0.028,0.706,0.365,0.942,0.981,0.873
			C482.011,303.181,485.548,304.013,489.121,304.901z"/>
		<path fill-rule="evenodd" clip-rule="evenodd" fill="#DE9F5F" d="M496.77,312.075c0.017,0.713,0.77,0.881,1.023,1.371
			c0.508,0.975,0.921,2.209-0.802,2.239c-2.53,0.044-1.626,2.472-2.634,3.55c-0.157,0.169,0.258,0.49,0.571,0.496
			c0.646,0.013,1.428,0.261,1.808-0.479c0.591-1.15,1.561-1.979,2.305-2.986c1.163-1.572,0-3.623-2.274-4.184L496.77,312.075z"/>
		<path fill-rule="evenodd" clip-rule="evenodd" fill="#F3BD95" d="M481.006,347.321c-0.143-0.037-0.352-0.025-0.42-0.119
			c-3.084-4.242-8.04-3.379-12.248-4.551c-0.038,2.016-0.074,4.033-0.111,6.049c0.381,0.402,0.28,0.906,0.29,1.387
			c0.016,4.033,1.359,5.047,5.176,5.508c4.412,0.533,6.465-1.783,7.992-5.275C480.586,349.518,481.34,348.296,481.006,347.321z"/>
		<path fill-rule="evenodd" clip-rule="evenodd" fill="#DE9F5F" d="M468.516,350.087c-0.01-0.48,0.091-0.984-0.29-1.387
			c-0.034,0.428-0.069,0.855-0.104,1.281C468.243,350.059,468.375,350.094,468.516,350.087z"/>
		<path fill-rule="evenodd" clip-rule="evenodd" fill="#F8EFEA" d="M471.537,330.745c1.943,0.083,3.431-0.926,4.862-2.015
			c0.453-0.345,0.99-0.846,0.6-1.514c-0.341-0.584-0.931-0.275-1.415-0.149c-2.707,0.71-5.435,0.672-8.184,0.303
			c-0.63-0.087-1.549-0.845-1.807,0.398c-0.198,0.957,0.229,1.856,1.18,2.182C468.311,330.475,469.865,331.094,471.537,330.745z"/>
	</g>
</g>
<g id="图层_2">
	<g>
		<path d="M53.859,132.386c-1.353-0.744-2.408-1.765-3.168-3.061c-0.76-1.296-1.14-2.752-1.14-4.367c0-1.617,0.38-3.072,1.14-4.369
			c0.76-1.295,1.815-2.315,3.168-3.06c1.352-0.743,2.859-1.116,4.524-1.116c1.664,0,3.164,0.369,4.5,1.104
			c1.335,0.735,2.388,1.756,3.156,3.06c0.768,1.305,1.152,2.764,1.152,4.381c0,1.615-0.384,3.076-1.152,4.379
			c-0.768,1.305-1.82,2.325-3.156,3.061c-1.336,0.736-2.836,1.104-4.5,1.104C56.718,133.502,55.21,133.131,53.859,132.386z
			 M61.983,131.018c1.072-0.601,1.912-1.432,2.52-2.496c0.608-1.063,0.912-2.252,0.912-3.563c0-1.313-0.304-2.5-0.912-3.564
			c-0.608-1.064-1.448-1.896-2.52-2.496c-1.072-0.6-2.272-0.9-3.6-0.9c-1.328,0-2.532,0.301-3.612,0.9
			c-1.08,0.6-1.928,1.432-2.544,2.496s-0.924,2.252-0.924,3.564c0,1.312,0.308,2.5,0.924,3.563c0.616,1.064,1.464,1.896,2.544,2.496
			c1.08,0.6,2.284,0.899,3.612,0.899C59.71,131.918,60.91,131.618,61.983,131.018z"/>
		<path d="M74.234,121.287c0.792-0.433,1.771-0.648,2.939-0.648v1.656l-0.407-0.024c-1.329,0-2.368,0.407-3.12,1.224
			s-1.128,1.961-1.128,3.432v6.433h-1.704v-12.624h1.632v2.473C72.845,122.358,73.442,121.719,74.234,121.287z"/>
		<path d="M91.646,115.551v17.808h-1.632v-2.496c-0.513,0.849-1.188,1.496-2.028,1.944s-1.787,0.672-2.844,0.672
			c-1.185,0-2.256-0.272-3.217-0.816c-0.959-0.544-1.711-1.304-2.256-2.279c-0.543-0.977-0.815-2.088-0.815-3.336
			s0.272-2.36,0.815-3.336c0.545-0.977,1.297-1.732,2.256-2.269c0.961-0.536,2.032-0.804,3.217-0.804
			c1.023,0,1.947,0.212,2.771,0.636c0.824,0.425,1.5,1.044,2.028,1.86v-7.584H91.646z M87.674,131.354
			c0.713-0.408,1.272-0.988,1.681-1.74s0.612-1.608,0.612-2.567c0-0.961-0.204-1.816-0.612-2.568s-0.968-1.332-1.681-1.74
			c-0.711-0.408-1.508-0.611-2.387-0.611c-0.896,0-1.701,0.203-2.412,0.611c-0.713,0.408-1.272,0.988-1.681,1.74
			c-0.407,0.752-0.612,1.607-0.612,2.568c0,0.959,0.205,1.815,0.612,2.567c0.408,0.752,0.968,1.332,1.681,1.74
			c0.711,0.408,1.516,0.612,2.412,0.612C86.166,131.967,86.963,131.762,87.674,131.354z"/>
		<path d="M107.39,127.574H96.83c0.096,1.313,0.601,2.372,1.512,3.181c0.912,0.808,2.064,1.212,3.457,1.212
			c0.783,0,1.504-0.141,2.16-0.42c0.655-0.28,1.224-0.692,1.703-1.236l0.961,1.104c-0.561,0.672-1.261,1.185-2.101,1.536
			c-0.84,0.353-1.765,0.528-2.772,0.528c-1.295,0-2.443-0.276-3.443-0.828s-1.78-1.315-2.34-2.292
			c-0.561-0.976-0.84-2.079-0.84-3.312s0.268-2.336,0.804-3.313c0.536-0.976,1.272-1.736,2.208-2.279
			c0.936-0.545,1.988-0.816,3.156-0.816s2.215,0.271,3.144,0.816c0.928,0.543,1.655,1.299,2.185,2.268
			c0.527,0.968,0.791,2.076,0.791,3.324L107.39,127.574z M98.234,123.266c-0.824,0.776-1.292,1.788-1.404,3.036h8.952
			c-0.112-1.248-0.58-2.26-1.403-3.036c-0.824-0.776-1.853-1.164-3.084-1.164C100.078,122.102,99.058,122.49,98.234,123.266z"/>
		<path d="M114.314,121.287c0.791-0.433,1.771-0.648,2.939-0.648v1.656l-0.408-0.024c-1.328,0-2.367,0.407-3.119,1.224
			c-0.753,0.816-1.129,1.961-1.129,3.432v6.433h-1.703v-12.624h1.631v2.473C112.926,122.358,113.521,121.719,114.314,121.287z"/>
		<path d="M120.302,117.614c-0.24-0.239-0.36-0.528-0.36-0.864c0-0.319,0.12-0.6,0.36-0.84c0.239-0.24,0.536-0.359,0.888-0.359
			s0.648,0.115,0.889,0.348s0.359,0.508,0.359,0.828c0,0.352-0.119,0.648-0.359,0.888c-0.24,0.24-0.537,0.36-0.889,0.36
			S120.541,117.854,120.302,117.614z M120.326,120.734h1.703v12.624h-1.703V120.734z"/>
		<path d="M136.994,122.018c0.936,0.92,1.404,2.26,1.404,4.021v7.319h-1.705v-7.151c0-1.313-0.328-2.313-0.983-3
			c-0.656-0.688-1.593-1.033-2.808-1.033c-1.361,0-2.437,0.404-3.229,1.213c-0.792,0.808-1.188,1.924-1.188,3.348v6.624h-1.705
			v-12.624h1.633v2.328c0.463-0.768,1.107-1.363,1.932-1.788c0.824-0.424,1.779-0.636,2.868-0.636
			C134.798,120.638,136.057,121.098,136.994,122.018z"/>
		<path d="M154.765,120.734v11.088c0,2.144-0.525,3.732-1.572,4.764c-1.049,1.032-2.629,1.549-4.74,1.549
			c-1.168,0-2.276-0.173-3.324-0.517s-1.9-0.82-2.556-1.428l0.864-1.296c0.607,0.544,1.348,0.968,2.22,1.271
			s1.788,0.456,2.748,0.456c1.6,0,2.776-0.372,3.528-1.115c0.752-0.744,1.127-1.9,1.127-3.469v-1.607
			c-0.527,0.8-1.22,1.408-2.075,1.824c-0.856,0.416-1.804,0.623-2.845,0.623c-1.184,0-2.26-0.26-3.228-0.779
			s-1.728-1.248-2.28-2.185c-0.552-0.936-0.828-1.996-0.828-3.18s0.276-2.24,0.828-3.168c0.553-0.928,1.309-1.648,2.269-2.16
			s2.04-0.768,3.239-0.768c1.072,0,2.041,0.216,2.904,0.648c0.864,0.432,1.561,1.055,2.088,1.871v-2.424H154.765z M150.781,130.778
			c0.736-0.392,1.309-0.939,1.716-1.644c0.408-0.704,0.612-1.504,0.612-2.4s-0.204-1.691-0.612-2.389
			c-0.407-0.695-0.976-1.239-1.704-1.631c-0.729-0.393-1.557-0.588-2.484-0.588c-0.912,0-1.731,0.191-2.459,0.576
			c-0.729,0.383-1.297,0.928-1.705,1.631c-0.407,0.705-0.611,1.504-0.611,2.4s0.204,1.696,0.611,2.4
			c0.408,0.704,0.977,1.252,1.705,1.644c0.728,0.393,1.547,0.588,2.459,0.588S150.045,131.171,150.781,130.778z"/>
		<path d="M185.304,122.006c0.904,0.912,1.355,2.256,1.355,4.033v7.319h-1.703v-7.151c0-1.313-0.316-2.313-0.948-3
			c-0.632-0.688-1.524-1.033-2.677-1.033c-1.312,0-2.344,0.404-3.096,1.213c-0.752,0.808-1.128,1.924-1.128,3.348v6.624h-1.704
			v-7.151c0-1.313-0.316-2.313-0.947-3c-0.633-0.688-1.533-1.033-2.7-1.033c-1.296,0-2.324,0.404-3.084,1.213
			c-0.761,0.808-1.14,1.924-1.14,3.348v6.624h-1.705v-12.624h1.633v2.305c0.447-0.769,1.071-1.36,1.871-1.777
			c0.801-0.415,1.721-0.623,2.761-0.623c1.056,0,1.972,0.225,2.748,0.672s1.356,1.112,1.739,1.992
			c0.465-0.832,1.133-1.484,2.004-1.957c0.873-0.471,1.869-0.707,2.988-0.707C183.156,120.638,184.4,121.094,185.304,122.006z"/>
		<path d="M199.5,121.875c0.881,0.824,1.32,2.043,1.32,3.659v7.824h-1.632v-1.968c-0.384,0.656-0.948,1.168-1.692,1.536
			s-1.628,0.552-2.651,0.552c-1.408,0-2.528-0.336-3.36-1.008s-1.248-1.561-1.248-2.664c0-1.072,0.388-1.936,1.164-2.592
			c0.775-0.656,2.012-0.984,3.708-0.984h4.009v-0.768c0-1.088-0.305-1.916-0.912-2.484c-0.609-0.568-1.496-0.852-2.664-0.852
			c-0.801,0-1.568,0.131-2.305,0.396s-1.367,0.628-1.896,1.092l-0.768-1.272c0.641-0.543,1.408-0.963,2.305-1.26
			c0.896-0.295,1.84-0.443,2.832-0.443C197.356,120.638,198.621,121.051,199.5,121.875z M197.58,131.474
			c0.688-0.44,1.2-1.076,1.537-1.908v-2.064h-3.961c-2.16,0-3.24,0.753-3.24,2.257c0,0.735,0.28,1.315,0.84,1.739
			c0.561,0.425,1.345,0.637,2.353,0.637C196.068,132.135,196.892,131.915,197.58,131.474z"/>
		<path d="M205.428,117.614c-0.24-0.239-0.36-0.528-0.36-0.864c0-0.319,0.12-0.6,0.36-0.84c0.239-0.24,0.536-0.359,0.888-0.359
			s0.648,0.115,0.889,0.348s0.359,0.508,0.359,0.828c0,0.352-0.119,0.648-0.359,0.888c-0.24,0.24-0.537,0.36-0.889,0.36
			S205.668,117.854,205.428,117.614z M205.453,120.734h1.703v12.624h-1.703V120.734z"/>
		<path d="M222.121,122.018c0.936,0.92,1.404,2.26,1.404,4.021v7.319h-1.705v-7.151c0-1.313-0.328-2.313-0.983-3
			c-0.656-0.688-1.593-1.033-2.808-1.033c-1.361,0-2.437,0.404-3.229,1.213c-0.792,0.808-1.188,1.924-1.188,3.348v6.624h-1.705
			v-12.624h1.633v2.328c0.463-0.768,1.107-1.363,1.932-1.788c0.824-0.424,1.779-0.636,2.868-0.636
			C219.925,120.638,221.184,121.098,222.121,122.018z"/>
		<path d="M234.804,132.591c-0.32,0.287-0.717,0.508-1.188,0.659c-0.472,0.152-0.964,0.229-1.476,0.229
			c-1.185,0-2.097-0.32-2.736-0.96c-0.641-0.64-0.96-1.544-0.96-2.712v-7.633h-2.256v-1.439h2.256v-2.76h1.704v2.76h3.84v1.439
			h-3.84v7.536c0,0.753,0.188,1.324,0.564,1.717c0.375,0.392,0.915,0.588,1.619,0.588c0.352,0,0.691-0.056,1.02-0.168
			s0.613-0.272,0.853-0.48L234.804,132.591z"/>
		<path d="M248.435,127.574h-10.56c0.096,1.313,0.601,2.372,1.512,3.181c0.912,0.808,2.063,1.212,3.456,1.212
			c0.783,0,1.504-0.141,2.16-0.42c0.656-0.28,1.225-0.692,1.704-1.236l0.96,1.104c-0.561,0.672-1.26,1.185-2.1,1.536
			c-0.84,0.353-1.765,0.528-2.772,0.528c-1.296,0-2.444-0.276-3.444-0.828s-1.779-1.315-2.34-2.292
			c-0.561-0.976-0.84-2.079-0.84-3.312s0.268-2.336,0.805-3.313c0.535-0.976,1.271-1.736,2.207-2.279
			c0.936-0.545,1.988-0.816,3.156-0.816s2.216,0.271,3.145,0.816c0.928,0.543,1.655,1.299,2.184,2.268
			c0.527,0.968,0.792,2.076,0.792,3.324L248.435,127.574z M239.279,123.266c-0.824,0.776-1.291,1.788-1.403,3.036h8.952
			c-0.112-1.248-0.58-2.26-1.404-3.036s-1.852-1.164-3.084-1.164C241.123,122.102,240.103,122.49,239.279,123.266z"/>
		<path d="M262.151,122.018c0.937,0.92,1.404,2.26,1.404,4.021v7.319h-1.704v-7.151c0-1.313-0.328-2.313-0.984-3
			c-0.656-0.688-1.592-1.033-2.808-1.033c-1.36,0-2.437,0.404-3.228,1.213c-0.793,0.808-1.188,1.924-1.188,3.348v6.624h-1.704
			v-12.624h1.632v2.328c0.464-0.768,1.108-1.363,1.933-1.788c0.823-0.424,1.779-0.636,2.867-0.636
			C259.955,120.638,261.215,121.098,262.151,122.018z"/>
		<path d="M276.394,121.875c0.881,0.824,1.32,2.043,1.32,3.659v7.824h-1.632v-1.968c-0.384,0.656-0.948,1.168-1.692,1.536
			s-1.628,0.552-2.651,0.552c-1.408,0-2.528-0.336-3.36-1.008s-1.248-1.561-1.248-2.664c0-1.072,0.388-1.936,1.164-2.592
			c0.775-0.656,2.012-0.984,3.708-0.984h4.009v-0.768c0-1.088-0.305-1.916-0.912-2.484c-0.609-0.568-1.496-0.852-2.664-0.852
			c-0.801,0-1.568,0.131-2.305,0.396s-1.367,0.628-1.896,1.092l-0.768-1.272c0.641-0.543,1.408-0.963,2.305-1.26
			c0.896-0.295,1.84-0.443,2.832-0.443C274.251,120.638,275.515,121.051,276.394,121.875z M274.474,131.474
			c0.688-0.44,1.2-1.076,1.537-1.908v-2.064h-3.961c-2.16,0-3.24,0.753-3.24,2.257c0,0.735,0.28,1.315,0.84,1.739
			c0.561,0.425,1.345,0.637,2.353,0.637C272.963,132.135,273.787,131.915,274.474,131.474z"/>
		<path d="M292.558,122.018c0.937,0.92,1.404,2.26,1.404,4.021v7.319h-1.703v-7.151c0-1.313-0.328-2.313-0.984-3
			c-0.656-0.688-1.592-1.033-2.809-1.033c-1.359,0-2.436,0.404-3.228,1.213c-0.792,0.808-1.188,1.924-1.188,3.348v6.624h-1.703
			v-12.624h1.631v2.328c0.465-0.768,1.108-1.363,1.933-1.788c0.823-0.424,1.78-0.636,2.868-0.636
			C290.363,120.638,291.623,121.098,292.558,122.018z"/>
		<path d="M300.526,132.662c-0.983-0.544-1.756-1.308-2.315-2.292c-0.561-0.983-0.84-2.091-0.84-3.323s0.279-2.336,0.84-3.313
			c0.56-0.976,1.332-1.736,2.315-2.279c0.984-0.545,2.101-0.816,3.349-0.816c1.088,0,2.06,0.212,2.916,0.636
			c0.855,0.425,1.531,1.044,2.027,1.86l-1.271,0.863c-0.416-0.623-0.944-1.092-1.584-1.404c-0.641-0.312-1.336-0.467-2.088-0.467
			c-0.912,0-1.732,0.203-2.461,0.611c-0.728,0.408-1.295,0.988-1.703,1.74s-0.612,1.607-0.612,2.568
			c0,0.976,0.204,1.836,0.612,2.579c0.408,0.744,0.976,1.32,1.703,1.729c0.729,0.408,1.549,0.612,2.461,0.612
			c0.752,0,1.447-0.152,2.088-0.456c0.64-0.304,1.168-0.769,1.584-1.393l1.271,0.864c-0.496,0.816-1.176,1.437-2.039,1.86
			c-0.865,0.424-1.833,0.636-2.904,0.636C302.627,133.478,301.51,133.206,300.526,132.662z"/>
		<path d="M322.931,127.574h-10.561c0.096,1.313,0.6,2.372,1.512,3.181c0.912,0.808,2.064,1.212,3.456,1.212
			c0.784,0,1.504-0.141,2.16-0.42c0.655-0.28,1.224-0.692,1.704-1.236l0.96,1.104c-0.561,0.672-1.261,1.185-2.101,1.536
			c-0.84,0.353-1.764,0.528-2.771,0.528c-1.296,0-2.444-0.276-3.443-0.828c-1.001-0.552-1.781-1.315-2.341-2.292
			c-0.56-0.976-0.84-2.079-0.84-3.312s0.268-2.336,0.804-3.313c0.536-0.976,1.272-1.736,2.209-2.279
			c0.936-0.545,1.987-0.816,3.155-0.816s2.216,0.271,3.144,0.816c0.928,0.543,1.656,1.299,2.185,2.268
			c0.528,0.968,0.792,2.076,0.792,3.324L322.931,127.574z M313.775,123.266c-0.824,0.776-1.293,1.788-1.404,3.036h8.951
			c-0.111-1.248-0.58-2.26-1.403-3.036c-0.824-0.776-1.853-1.164-3.084-1.164C315.619,122.102,314.598,122.49,313.775,123.266z"/>
		<path d="M332.699,117.614c-0.24-0.239-0.36-0.528-0.36-0.864c0-0.319,0.12-0.6,0.36-0.84c0.239-0.24,0.535-0.359,0.888-0.359
			c0.352,0,0.647,0.115,0.888,0.348s0.359,0.508,0.359,0.828c0,0.352-0.119,0.648-0.359,0.888c-0.24,0.24-0.536,0.36-0.888,0.36
			C333.234,117.974,332.938,117.854,332.699,117.614z M332.722,120.734h1.704v12.624h-1.704V120.734z"/>
		<path d="M339.623,133.034c-0.937-0.296-1.668-0.668-2.196-1.116l0.769-1.344c0.527,0.416,1.191,0.756,1.991,1.021
			c0.8,0.264,1.632,0.396,2.496,0.396c1.152,0,2.004-0.18,2.556-0.54c0.553-0.359,0.828-0.867,0.828-1.523
			c0-0.464-0.152-0.828-0.455-1.093c-0.305-0.264-0.688-0.463-1.152-0.6c-0.465-0.136-1.08-0.268-1.848-0.396
			c-1.025-0.191-1.849-0.387-2.473-0.588c-0.624-0.199-1.156-0.539-1.596-1.02c-0.44-0.48-0.66-1.145-0.66-1.992
			c0-1.056,0.439-1.92,1.32-2.592c0.879-0.672,2.104-1.008,3.672-1.008c0.816,0,1.632,0.107,2.447,0.324
			c0.816,0.215,1.488,0.5,2.017,0.852l-0.744,1.368c-1.04-0.72-2.28-1.08-3.72-1.08c-1.088,0-1.908,0.192-2.461,0.575
			c-0.551,0.385-0.827,0.889-0.827,1.513c0,0.479,0.155,0.864,0.468,1.151c0.313,0.289,0.699,0.501,1.164,0.637
			c0.464,0.137,1.104,0.275,1.92,0.42c1.008,0.191,1.816,0.384,2.424,0.576c0.607,0.191,1.129,0.52,1.561,0.984
			c0.432,0.464,0.647,1.104,0.647,1.919c0,1.104-0.46,1.98-1.38,2.629c-0.92,0.647-2.195,0.972-3.828,0.972
			C341.539,133.478,340.558,133.331,339.623,133.034z"/>
		<path fill="#69CE28" d="M357.754,133.154c-1.023-0.264-1.84-0.596-2.447-0.996l1.248-2.688c0.576,0.368,1.271,0.668,2.088,0.899
			c0.815,0.232,1.615,0.349,2.399,0.349c1.584,0,2.376-0.393,2.376-1.177c0-0.368-0.216-0.632-0.648-0.792
			c-0.432-0.159-1.096-0.295-1.991-0.408c-1.056-0.159-1.929-0.344-2.616-0.551c-0.688-0.209-1.284-0.576-1.788-1.104
			s-0.756-1.28-0.756-2.257c0-0.815,0.235-1.539,0.708-2.172c0.472-0.631,1.16-1.123,2.064-1.476
			c0.903-0.352,1.971-0.528,3.203-0.528c0.912,0,1.82,0.101,2.725,0.301c0.903,0.2,1.652,0.477,2.244,0.828l-1.248,2.664
			c-1.137-0.641-2.377-0.961-3.721-0.961c-0.8,0-1.4,0.113-1.8,0.336c-0.399,0.225-0.6,0.513-0.6,0.865
			c0,0.399,0.216,0.68,0.647,0.84c0.433,0.16,1.12,0.312,2.064,0.455c1.057,0.177,1.92,0.364,2.592,0.564s1.256,0.564,1.752,1.092
			c0.496,0.528,0.744,1.264,0.744,2.208c0,0.801-0.24,1.512-0.72,2.136c-0.48,0.624-1.181,1.108-2.101,1.452
			s-2.012,0.517-3.275,0.517C359.826,133.551,358.777,133.418,357.754,133.154z"/>
		<path fill="#69CE28" d="M369.49,118.047c-0.433-0.4-0.648-0.896-0.648-1.488s0.216-1.088,0.648-1.488
			c0.432-0.4,0.992-0.6,1.68-0.6s1.248,0.191,1.68,0.576c0.432,0.383,0.648,0.863,0.648,1.439c0,0.624-0.217,1.141-0.648,1.548
			c-0.432,0.408-0.992,0.612-1.68,0.612S369.922,118.446,369.49,118.047z M369.298,120.446h3.744v12.912h-3.744V120.446z"/>
		<path fill="#69CE28" d="M396.91,121.682c0.951,0.952,1.428,2.38,1.428,4.284v7.392h-3.744v-6.815c0-1.024-0.212-1.789-0.636-2.293
			s-1.028-0.756-1.813-0.756c-0.88,0-1.576,0.285-2.088,0.852c-0.512,0.568-0.768,1.413-0.768,2.533v6.479h-3.744v-6.815
			c0-2.032-0.816-3.049-2.448-3.049c-0.863,0-1.552,0.285-2.063,0.852c-0.513,0.568-0.769,1.413-0.769,2.533v6.479h-3.744v-12.912
			h3.576v1.488c0.48-0.544,1.068-0.96,1.765-1.248c0.695-0.288,1.46-0.433,2.292-0.433c0.912,0,1.735,0.181,2.472,0.541
			c0.735,0.359,1.328,0.884,1.776,1.571c0.527-0.672,1.195-1.191,2.004-1.56c0.808-0.368,1.691-0.553,2.651-0.553
			C394.674,120.254,395.958,120.73,396.91,121.682z"/>
		<path fill="#69CE28" d="M412.605,121.082c0.984,0.553,1.756,1.328,2.316,2.328c0.56,1,0.84,2.164,0.84,3.492
			s-0.28,2.492-0.84,3.492c-0.561,1-1.332,1.775-2.316,2.328c-0.983,0.552-2.076,0.828-3.275,0.828
			c-1.648,0-2.944-0.521-3.889-1.561v6.024h-3.744v-17.568h3.576v1.488c0.928-1.12,2.28-1.681,4.057-1.681
			C410.529,120.254,411.622,120.53,412.605,121.082z M411.046,129.507c0.615-0.648,0.924-1.517,0.924-2.604
			s-0.309-1.956-0.924-2.604c-0.616-0.648-1.404-0.973-2.364-0.973s-1.748,0.324-2.364,0.973c-0.616,0.647-0.924,1.516-0.924,2.604
			s0.308,1.956,0.924,2.604c0.616,0.647,1.404,0.972,2.364,0.972S410.429,130.154,411.046,129.507z"/>
		<path fill="#69CE28" d="M418.257,115.551h3.744v17.808h-3.744V115.551z"/>
		<path fill="#69CE28" d="M438.056,127.959h-9.768c0.176,0.8,0.592,1.432,1.248,1.896c0.655,0.464,1.472,0.696,2.448,0.696
			c0.672,0,1.268-0.101,1.787-0.301c0.521-0.199,1.004-0.516,1.452-0.947l1.992,2.159c-1.216,1.393-2.992,2.089-5.328,2.089
			c-1.456,0-2.744-0.284-3.863-0.853c-1.12-0.567-1.984-1.355-2.593-2.364c-0.608-1.008-0.912-2.151-0.912-3.432
			c0-1.264,0.301-2.404,0.9-3.42s1.424-1.809,2.472-2.376s2.221-0.853,3.517-0.853c1.264,0,2.407,0.273,3.432,0.816
			c1.023,0.545,1.828,1.324,2.412,2.34c0.584,1.017,0.876,2.196,0.876,3.54C438.129,126.998,438.104,127.334,438.056,127.959z
			 M429.297,123.806c-0.576,0.48-0.928,1.137-1.056,1.968h6.359c-0.128-0.815-0.479-1.468-1.056-1.956s-1.28-0.732-2.112-0.732
			C430.585,123.086,429.873,123.326,429.297,123.806z"/>
		<path fill="#69CE28" d="M446.012,120.734c0.76-0.32,1.636-0.48,2.628-0.48v3.457c-0.416-0.032-0.696-0.049-0.84-0.049
			c-1.072,0-1.912,0.301-2.521,0.9s-0.912,1.5-0.912,2.699v6.097h-3.744v-12.912h3.576v1.704
			C444.648,121.526,445.252,121.054,446.012,120.734z"/>
		<path d="M465.056,132.591c-0.32,0.287-0.717,0.508-1.188,0.659c-0.472,0.152-0.964,0.229-1.476,0.229
			c-1.185,0-2.097-0.32-2.736-0.96c-0.641-0.64-0.96-1.544-0.96-2.712v-7.633h-2.256v-1.439h2.256v-2.76h1.704v2.76h3.84v1.439
			h-3.84v7.536c0,0.753,0.188,1.324,0.563,1.717c0.376,0.392,0.916,0.588,1.62,0.588c0.352,0,0.692-0.056,1.021-0.168
			c0.327-0.112,0.611-0.272,0.852-0.48L465.056,132.591z"/>
		<path d="M478.364,122.018c0.937,0.92,1.404,2.26,1.404,4.021v7.319h-1.704v-7.151c0-1.313-0.328-2.313-0.984-3
			c-0.656-0.688-1.592-1.033-2.808-1.033c-1.36,0-2.437,0.404-3.229,1.213c-0.792,0.808-1.188,1.924-1.188,3.348v6.624h-1.704
			v-17.808h1.704v7.392c0.464-0.735,1.104-1.304,1.92-1.704c0.816-0.399,1.752-0.6,2.808-0.6
			C476.168,120.638,477.428,121.098,478.364,122.018z"/>
		<path d="M492.608,121.875c0.88,0.824,1.32,2.043,1.32,3.659v7.824h-1.632v-1.968c-0.385,0.656-0.948,1.168-1.692,1.536
			s-1.628,0.552-2.652,0.552c-1.408,0-2.528-0.336-3.359-1.008c-0.832-0.672-1.248-1.561-1.248-2.664
			c0-1.072,0.388-1.936,1.164-2.592c0.775-0.656,2.012-0.984,3.708-0.984h4.008v-0.768c0-1.088-0.305-1.916-0.912-2.484
			c-0.608-0.568-1.496-0.852-2.664-0.852c-0.8,0-1.568,0.131-2.304,0.396c-0.736,0.265-1.368,0.628-1.896,1.092l-0.768-1.272
			c0.64-0.543,1.407-0.963,2.304-1.26c0.896-0.295,1.84-0.443,2.832-0.443C490.464,120.638,491.728,121.051,492.608,121.875z
			 M490.688,131.474c0.688-0.44,1.2-1.076,1.536-1.908v-2.064h-3.96c-2.16,0-3.24,0.753-3.24,2.257c0,0.735,0.279,1.315,0.84,1.739
			c0.56,0.425,1.344,0.637,2.353,0.637C489.177,132.135,490,131.915,490.688,131.474z"/>
		<path d="M508.772,122.018c0.937,0.92,1.404,2.26,1.404,4.021v7.319h-1.704v-7.151c0-1.313-0.328-2.313-0.984-3
			c-0.656-0.688-1.592-1.033-2.808-1.033c-1.36,0-2.437,0.404-3.229,1.213c-0.792,0.808-1.188,1.924-1.188,3.348v6.624h-1.704
			v-12.624h1.632v2.328c0.464-0.768,1.108-1.363,1.933-1.788c0.823-0.424,1.779-0.636,2.867-0.636
			C506.576,120.638,507.837,121.098,508.772,122.018z"/>
		<path d="M51.038,145.359h1.776v16.8h-1.776V145.359z"/>
		<path d="M70.862,161.391c-0.32,0.287-0.716,0.508-1.188,0.659c-0.472,0.152-0.964,0.229-1.476,0.229
			c-1.184,0-2.096-0.32-2.736-0.96c-0.64-0.64-0.96-1.544-0.96-2.712v-7.632h-2.256v-1.44h2.256v-2.76h1.704v2.76h3.84v1.44h-3.84
			v7.535c0,0.753,0.188,1.324,0.564,1.717c0.375,0.392,0.916,0.588,1.62,0.588c0.352,0,0.692-0.056,1.02-0.168
			s0.612-0.272,0.852-0.48L70.862,161.391z"/>
		<path d="M84.17,150.819c0.936,0.92,1.404,2.26,1.404,4.02v7.32h-1.705v-7.152c0-1.312-0.328-2.312-0.983-3
			c-0.656-0.688-1.593-1.031-2.808-1.031c-1.361,0-2.437,0.404-3.229,1.212s-1.188,1.924-1.188,3.348v6.624h-1.705v-17.808h1.705
			v7.392c0.463-0.735,1.104-1.304,1.92-1.704c0.815-0.399,1.752-0.6,2.808-0.6C81.973,149.439,83.233,149.899,84.17,150.819z"/>
		<path d="M92.125,161.451c-0.977-0.552-1.744-1.315-2.305-2.292c-0.56-0.976-0.84-2.08-0.84-3.312c0-1.232,0.28-2.336,0.84-3.313
			c0.561-0.976,1.328-1.736,2.305-2.28c0.976-0.543,2.072-0.815,3.288-0.815s2.312,0.272,3.288,0.815
			c0.976,0.544,1.74,1.305,2.292,2.28c0.552,0.977,0.827,2.08,0.827,3.313c0,1.231-0.275,2.336-0.827,3.312
			c-0.552,0.977-1.316,1.74-2.292,2.292c-0.977,0.552-2.072,0.828-3.288,0.828S93.1,162.003,92.125,161.451z M97.825,160.155
			c0.712-0.408,1.268-0.988,1.668-1.74c0.399-0.752,0.6-1.607,0.6-2.567c0-0.961-0.2-1.816-0.6-2.568
			c-0.4-0.752-0.956-1.332-1.668-1.74s-1.517-0.612-2.412-0.612c-0.896,0-1.7,0.204-2.412,0.612s-1.272,0.988-1.681,1.74
			c-0.407,0.752-0.611,1.607-0.611,2.568c0,0.96,0.204,1.815,0.611,2.567c0.408,0.752,0.969,1.332,1.681,1.74
			s1.516,0.612,2.412,0.612C96.308,160.767,97.113,160.563,97.825,160.155z"/>
		<path d="M116.677,149.535v12.624h-1.632v-2.304c-0.448,0.768-1.064,1.364-1.848,1.788c-0.785,0.424-1.681,0.636-2.688,0.636
			c-1.647,0-2.948-0.46-3.899-1.38c-0.953-0.92-1.429-2.269-1.429-4.044v-7.32h1.704v7.152c0,1.328,0.328,2.336,0.984,3.023
			c0.656,0.688,1.592,1.032,2.808,1.032c1.328,0,2.376-0.404,3.144-1.212c0.769-0.808,1.152-1.932,1.152-3.372v-6.624H116.677z"/>
		<path d="M133.14,149.535v11.088c0,2.144-0.524,3.732-1.572,4.764c-1.048,1.032-2.628,1.549-4.74,1.549
			c-1.168,0-2.275-0.173-3.323-0.517s-1.9-0.82-2.556-1.428l0.863-1.296c0.607,0.544,1.348,0.968,2.221,1.271
			c0.871,0.304,1.787,0.456,2.748,0.456c1.6,0,2.775-0.372,3.527-1.115c0.752-0.744,1.128-1.9,1.128-3.469v-1.607
			c-0.528,0.8-1.22,1.408-2.075,1.824c-0.857,0.416-1.805,0.623-2.845,0.623c-1.185,0-2.261-0.26-3.228-0.779
			c-0.969-0.52-1.729-1.248-2.28-2.185c-0.552-0.936-0.828-1.995-0.828-3.18c0-1.184,0.276-2.24,0.828-3.168s1.308-1.647,2.269-2.16
			c0.959-0.512,2.039-0.768,3.239-0.768c1.071,0,2.04,0.216,2.904,0.647c0.864,0.433,1.56,1.057,2.088,1.872v-2.424H133.14z
			 M129.156,159.579c0.736-0.392,1.309-0.939,1.717-1.644s0.611-1.504,0.611-2.4c0-0.896-0.203-1.692-0.611-2.388
			c-0.408-0.696-0.977-1.24-1.705-1.632c-0.728-0.393-1.556-0.589-2.483-0.589c-0.912,0-1.731,0.192-2.46,0.576
			s-1.296,0.929-1.704,1.632c-0.407,0.705-0.612,1.505-0.612,2.4c0,0.896,0.205,1.696,0.612,2.4
			c0.408,0.704,0.976,1.252,1.704,1.644c0.729,0.393,1.548,0.588,2.46,0.588S128.42,159.971,129.156,159.579z"/>
		<path d="M148.129,150.819c0.936,0.92,1.404,2.26,1.404,4.02v7.32h-1.705v-7.152c0-1.312-0.328-2.312-0.983-3
			c-0.656-0.688-1.593-1.031-2.808-1.031c-1.361,0-2.437,0.404-3.229,1.212s-1.188,1.924-1.188,3.348v6.624h-1.705v-17.808h1.705
			v7.392c0.463-0.735,1.104-1.304,1.92-1.704c0.815-0.399,1.752-0.6,2.808-0.6C145.932,149.439,147.192,149.899,148.129,150.819z"/>
		<path d="M160.812,161.391c-0.32,0.287-0.717,0.508-1.188,0.659c-0.472,0.152-0.964,0.229-1.476,0.229
			c-1.185,0-2.097-0.32-2.736-0.96c-0.641-0.64-0.96-1.544-0.96-2.712v-7.632h-2.256v-1.44h2.256v-2.76h1.704v2.76h3.84v1.44h-3.84
			v7.535c0,0.753,0.188,1.324,0.564,1.717c0.375,0.392,0.915,0.588,1.619,0.588c0.352,0,0.691-0.056,1.02-0.168
			s0.613-0.272,0.853-0.48L160.812,161.391z"/>
		<path d="M165.252,160.035c0.24,0.248,0.359,0.556,0.359,0.924c0,0.192-0.027,0.4-0.084,0.624c-0.057,0.225-0.141,0.48-0.252,0.769
			l-1.008,3.312h-1.152l0.816-3.479c-0.256-0.08-0.465-0.229-0.624-0.444c-0.16-0.216-0.24-0.476-0.24-0.78
			c0-0.368,0.12-0.676,0.36-0.924s0.543-0.372,0.912-0.372C164.707,159.663,165.011,159.787,165.252,160.035z"/>
		<path d="M175.5,146.415c-0.24-0.24-0.36-0.528-0.36-0.864c0-0.319,0.12-0.6,0.36-0.84c0.239-0.24,0.535-0.359,0.888-0.359
			c0.352,0,0.647,0.116,0.888,0.348c0.24,0.232,0.359,0.508,0.359,0.828c0,0.352-0.119,0.647-0.359,0.888s-0.536,0.36-0.888,0.36
			C176.035,146.775,175.739,146.655,175.5,146.415z M175.523,149.535h1.704v12.624h-1.704V149.535z"/>
		<path d="M188.627,161.391c-0.32,0.287-0.716,0.508-1.188,0.659c-0.473,0.152-0.964,0.229-1.477,0.229
			c-1.184,0-2.096-0.32-2.735-0.96s-0.96-1.544-0.96-2.712v-7.632h-2.256v-1.44h2.256v-2.76h1.704v2.76h3.84v1.44h-3.84v7.535
			c0,0.753,0.188,1.324,0.563,1.717c0.376,0.392,0.916,0.588,1.62,0.588c0.353,0,0.692-0.056,1.021-0.168s0.611-0.272,0.852-0.48
			L188.627,161.391z"/>
		<path d="M200.518,146.271c-0.376,0.399-0.563,0.992-0.563,1.775v1.488h3.888v1.44h-3.84v11.184h-1.704v-11.184h-2.256v-1.44h2.256
			v-1.56c0-1.152,0.332-2.064,0.996-2.736s1.604-1.008,2.82-1.008c0.479,0,0.943,0.068,1.392,0.204s0.823,0.332,1.128,0.588
			l-0.576,1.271c-0.496-0.416-1.12-0.624-1.872-0.624C201.451,145.671,200.894,145.871,200.518,146.271z"/>
		<path d="M216.923,156.375h-10.56c0.096,1.313,0.6,2.372,1.512,3.181c0.912,0.808,2.063,1.212,3.455,1.212
			c0.784,0,1.504-0.141,2.16-0.42c0.656-0.28,1.225-0.692,1.705-1.236l0.959,1.104c-0.561,0.672-1.26,1.185-2.1,1.536
			c-0.84,0.353-1.764,0.528-2.771,0.528c-1.297,0-2.445-0.276-3.444-0.828c-1.001-0.552-1.78-1.315-2.341-2.292
			c-0.56-0.976-0.84-2.08-0.84-3.312c0-1.232,0.268-2.336,0.805-3.313c0.535-0.976,1.271-1.736,2.208-2.28
			c0.936-0.543,1.987-0.815,3.155-0.815s2.217,0.272,3.145,0.815c0.928,0.544,1.656,1.301,2.184,2.269
			c0.528,0.968,0.793,2.076,0.793,3.324L216.923,156.375z M207.766,152.067c-0.824,0.776-1.292,1.788-1.403,3.036h8.951
			c-0.111-1.248-0.58-2.26-1.404-3.036s-1.852-1.164-3.084-1.164C209.61,150.903,208.59,151.291,207.766,152.067z"/>
		<path d="M231.418,156.375h-10.56c0.096,1.313,0.601,2.372,1.512,3.181c0.912,0.808,2.063,1.212,3.456,1.212
			c0.783,0,1.504-0.141,2.16-0.42c0.656-0.28,1.225-0.692,1.704-1.236l0.96,1.104c-0.561,0.672-1.26,1.185-2.1,1.536
			c-0.84,0.353-1.765,0.528-2.772,0.528c-1.296,0-2.444-0.276-3.444-0.828s-1.779-1.315-2.34-2.292
			c-0.561-0.976-0.84-2.08-0.84-3.312c0-1.232,0.268-2.336,0.805-3.313c0.535-0.976,1.271-1.736,2.207-2.28
			c0.936-0.543,1.988-0.815,3.156-0.815s2.216,0.272,3.145,0.815c0.928,0.544,1.655,1.301,2.184,2.269
			c0.527,0.968,0.792,2.076,0.792,3.324L231.418,156.375z M222.261,152.067c-0.824,0.776-1.291,1.788-1.403,3.036h8.952
			c-0.112-1.248-0.58-2.26-1.404-3.036s-1.852-1.164-3.084-1.164C224.105,150.903,223.086,151.291,222.261,152.067z"/>
		<path d="M234.922,144.351h1.704v17.808h-1.704V144.351z"/>
		<path d="M241.822,161.835c-0.937-0.296-1.668-0.668-2.196-1.116l0.769-1.344c0.527,0.416,1.191,0.756,1.991,1.021
			c0.8,0.264,1.632,0.396,2.496,0.396c1.152,0,2.004-0.18,2.556-0.54c0.553-0.359,0.828-0.867,0.828-1.523
			c0-0.464-0.152-0.828-0.455-1.093c-0.305-0.264-0.688-0.464-1.152-0.6c-0.465-0.136-1.08-0.268-1.848-0.396
			c-1.025-0.192-1.849-0.389-2.473-0.589c-0.624-0.199-1.156-0.54-1.596-1.02c-0.44-0.48-0.66-1.144-0.66-1.992
			c0-1.056,0.439-1.92,1.32-2.592c0.879-0.672,2.104-1.008,3.672-1.008c0.816,0,1.632,0.107,2.447,0.323
			c0.816,0.217,1.488,0.501,2.017,0.853l-0.744,1.368c-1.04-0.721-2.28-1.08-3.72-1.08c-1.088,0-1.908,0.191-2.461,0.576
			c-0.551,0.384-0.827,0.888-0.827,1.512c0,0.479,0.155,0.864,0.468,1.152s0.699,0.5,1.164,0.636c0.464,0.136,1.104,0.276,1.92,0.42
			c1.008,0.192,1.816,0.384,2.424,0.576c0.607,0.191,1.129,0.52,1.561,0.983c0.432,0.465,0.647,1.104,0.647,1.92
			c0,1.104-0.46,1.98-1.38,2.629c-0.92,0.647-2.195,0.972-3.828,0.972C243.738,162.279,242.758,162.132,241.822,161.835z"/>
		<path d="M259.401,144.351h1.704v17.808h-1.704V144.351z"/>
		<path d="M265.834,146.415c-0.24-0.24-0.36-0.528-0.36-0.864c0-0.319,0.12-0.6,0.36-0.84c0.239-0.24,0.535-0.359,0.888-0.359
			c0.352,0,0.647,0.116,0.888,0.348c0.24,0.232,0.359,0.508,0.359,0.828c0,0.352-0.119,0.647-0.359,0.888s-0.536,0.36-0.888,0.36
			C266.369,146.775,266.073,146.655,265.834,146.415z M265.857,149.535h1.704v12.624h-1.704V149.535z"/>
		<path d="M276.994,155.823l-2.977,2.736v3.6h-1.704v-17.808h1.704v12.071l7.536-6.888h2.112l-5.4,5.16l5.904,7.464h-2.088
			L276.994,155.823z"/>
		<path d="M297.225,156.375h-10.56c0.096,1.313,0.6,2.372,1.512,3.181c0.912,0.808,2.063,1.212,3.455,1.212
			c0.784,0,1.504-0.141,2.16-0.42c0.656-0.28,1.225-0.692,1.705-1.236l0.959,1.104c-0.561,0.672-1.26,1.185-2.1,1.536
			c-0.84,0.353-1.764,0.528-2.771,0.528c-1.297,0-2.445-0.276-3.444-0.828c-1.001-0.552-1.78-1.315-2.341-2.292
			c-0.56-0.976-0.84-2.08-0.84-3.312c0-1.232,0.268-2.336,0.805-3.313c0.535-0.976,1.271-1.736,2.208-2.28
			c0.936-0.543,1.987-0.815,3.155-0.815s2.217,0.272,3.145,0.815c0.928,0.544,1.656,1.301,2.184,2.269
			c0.528,0.968,0.793,2.076,0.793,3.324L297.225,156.375z M288.069,152.067c-0.824,0.776-1.292,1.788-1.403,3.036h8.951
			c-0.111-1.248-0.58-2.26-1.404-3.036s-1.852-1.164-3.084-1.164C289.913,150.903,288.892,151.291,288.069,152.067z"/>
		<path d="M308.888,161.451c-0.977-0.552-1.744-1.315-2.305-2.292c-0.56-0.976-0.84-2.08-0.84-3.312c0-1.232,0.28-2.336,0.84-3.313
			c0.561-0.976,1.328-1.736,2.305-2.28c0.976-0.543,2.072-0.815,3.288-0.815s2.312,0.272,3.288,0.815
			c0.976,0.544,1.74,1.305,2.292,2.28c0.552,0.977,0.827,2.08,0.827,3.313c0,1.231-0.275,2.336-0.827,3.312
			c-0.552,0.977-1.316,1.74-2.292,2.292c-0.977,0.552-2.072,0.828-3.288,0.828S309.864,162.003,308.888,161.451z M314.589,160.155
			c0.712-0.408,1.268-0.988,1.668-1.74c0.399-0.752,0.6-1.607,0.6-2.567c0-0.961-0.2-1.816-0.6-2.568
			c-0.4-0.752-0.956-1.332-1.668-1.74s-1.517-0.612-2.412-0.612c-0.896,0-1.7,0.204-2.412,0.612s-1.272,0.988-1.681,1.74
			c-0.407,0.752-0.611,1.607-0.611,2.568c0,0.96,0.204,1.815,0.611,2.567c0.408,0.752,0.969,1.332,1.681,1.74
			s1.516,0.612,2.412,0.612C313.072,160.767,313.877,160.563,314.589,160.155z"/>
		<path d="M332.276,150.819c0.937,0.92,1.404,2.26,1.404,4.02v7.32h-1.704v-7.152c0-1.312-0.328-2.312-0.984-3
			c-0.656-0.688-1.592-1.031-2.808-1.031c-1.36,0-2.437,0.404-3.228,1.212c-0.793,0.808-1.188,1.924-1.188,3.348v6.624h-1.704
			v-12.624h1.632v2.328c0.464-0.769,1.108-1.364,1.933-1.788c0.823-0.424,1.779-0.636,2.867-0.636
			C330.08,149.439,331.34,149.899,332.276,150.819z"/>
		<path d="M338.312,144.351h1.703v17.808h-1.703V144.351z"/>
		<path d="M344.744,146.415c-0.24-0.24-0.359-0.528-0.359-0.864c0-0.319,0.119-0.6,0.359-0.84s0.535-0.359,0.889-0.359
			c0.352,0,0.647,0.116,0.887,0.348c0.24,0.232,0.36,0.508,0.36,0.828c0,0.352-0.12,0.647-0.36,0.888
			c-0.239,0.24-0.535,0.36-0.887,0.36C345.279,146.775,344.984,146.655,344.744,146.415z M344.767,149.535h1.705v12.624h-1.705
			V149.535z"/>
		<path d="M361.435,150.819c0.937,0.92,1.404,2.26,1.404,4.02v7.32h-1.703v-7.152c0-1.312-0.328-2.312-0.984-3
			c-0.656-0.688-1.592-1.031-2.809-1.031c-1.359,0-2.436,0.404-3.228,1.212s-1.188,1.924-1.188,3.348v6.624h-1.703v-12.624h1.631
			v2.328c0.465-0.769,1.108-1.364,1.933-1.788c0.823-0.424,1.78-0.636,2.868-0.636C359.24,149.439,360.5,149.899,361.435,150.819z"
			/>
		<path d="M378.511,156.375h-10.561c0.096,1.313,0.601,2.372,1.512,3.181c0.912,0.808,2.064,1.212,3.457,1.212
			c0.783,0,1.503-0.141,2.159-0.42c0.656-0.28,1.225-0.692,1.704-1.236l0.96,1.104c-0.56,0.672-1.26,1.185-2.1,1.536
			c-0.84,0.353-1.764,0.528-2.772,0.528c-1.295,0-2.443-0.276-3.443-0.828s-1.78-1.315-2.34-2.292
			c-0.561-0.976-0.84-2.08-0.84-3.312c0-1.232,0.268-2.336,0.804-3.313c0.536-0.976,1.272-1.736,2.208-2.28
			c0.936-0.543,1.988-0.815,3.156-0.815c1.167,0,2.216,0.272,3.144,0.815c0.928,0.544,1.656,1.301,2.184,2.269
			c0.528,0.968,0.792,2.076,0.792,3.324L378.511,156.375z M369.355,152.067c-0.824,0.776-1.292,1.788-1.404,3.036h8.952
			c-0.112-1.248-0.58-2.26-1.403-3.036c-0.824-0.776-1.853-1.164-3.084-1.164C371.199,150.903,370.179,151.291,369.355,152.067z"/>
		<path d="M388.748,161.835c-0.937-0.296-1.668-0.668-2.196-1.116l0.768-1.344c0.528,0.416,1.192,0.756,1.992,1.021
			c0.8,0.264,1.632,0.396,2.496,0.396c1.152,0,2.004-0.18,2.556-0.54c0.553-0.359,0.828-0.867,0.828-1.523
			c0-0.464-0.152-0.828-0.456-1.093c-0.304-0.264-0.688-0.464-1.151-0.6c-0.465-0.136-1.08-0.268-1.849-0.396
			c-1.023-0.192-1.848-0.389-2.472-0.589c-0.624-0.199-1.156-0.54-1.596-1.02c-0.44-0.48-0.66-1.144-0.66-1.992
			c0-1.056,0.439-1.92,1.32-2.592c0.879-0.672,2.104-1.008,3.672-1.008c0.815,0,1.632,0.107,2.447,0.323
			c0.816,0.217,1.488,0.501,2.017,0.853l-0.744,1.368c-1.04-0.721-2.28-1.08-3.72-1.08c-1.089,0-1.908,0.191-2.46,0.576
			c-0.553,0.384-0.828,0.888-0.828,1.512c0,0.479,0.156,0.864,0.468,1.152c0.313,0.288,0.7,0.5,1.164,0.636s1.104,0.276,1.92,0.42
			c1.008,0.192,1.815,0.384,2.424,0.576c0.608,0.191,1.128,0.52,1.561,0.983c0.432,0.465,0.647,1.104,0.647,1.92
			c0,1.104-0.46,1.98-1.38,2.629c-0.92,0.647-2.196,0.972-3.828,0.972C390.664,162.279,389.683,162.132,388.748,161.835z"/>
		<path d="M410.252,150.819c0.937,0.92,1.404,2.26,1.404,4.02v7.32h-1.704v-7.152c0-1.312-0.328-2.312-0.984-3
			c-0.656-0.688-1.592-1.031-2.808-1.031c-1.36,0-2.437,0.404-3.229,1.212s-1.188,1.924-1.188,3.348v6.624h-1.704v-17.808h1.704
			v7.392c0.464-0.735,1.104-1.304,1.92-1.704c0.816-0.399,1.752-0.6,2.808-0.6C408.055,149.439,409.316,149.899,410.252,150.819z"/>
		<path d="M418.208,161.451c-0.977-0.552-1.744-1.315-2.304-2.292c-0.561-0.976-0.841-2.08-0.841-3.312
			c0-1.232,0.28-2.336,0.841-3.313c0.56-0.976,1.327-1.736,2.304-2.28c0.976-0.543,2.072-0.815,3.288-0.815s2.312,0.272,3.288,0.815
			c0.976,0.544,1.74,1.305,2.292,2.28c0.552,0.977,0.828,2.08,0.828,3.313c0,1.231-0.276,2.336-0.828,3.312
			c-0.552,0.977-1.316,1.74-2.292,2.292c-0.977,0.552-2.072,0.828-3.288,0.828S419.183,162.003,418.208,161.451z M423.908,160.155
			c0.712-0.408,1.268-0.988,1.668-1.74c0.399-0.752,0.6-1.607,0.6-2.567c0-0.961-0.2-1.816-0.6-2.568
			c-0.4-0.752-0.956-1.332-1.668-1.74s-1.517-0.612-2.412-0.612c-0.896,0-1.7,0.204-2.412,0.612s-1.272,0.988-1.68,1.74
			c-0.408,0.752-0.612,1.607-0.612,2.568c0,0.96,0.204,1.815,0.612,2.567c0.407,0.752,0.968,1.332,1.68,1.74
			s1.516,0.612,2.412,0.612C422.391,160.767,423.196,160.563,423.908,160.155z"/>
		<path d="M441.103,150.243c0.96,0.536,1.712,1.292,2.256,2.268c0.544,0.977,0.816,2.089,0.816,3.337
			c0,1.264-0.272,2.384-0.816,3.359c-0.544,0.977-1.292,1.732-2.243,2.269c-0.952,0.536-2.028,0.804-3.229,0.804
			c-1.024,0-1.948-0.212-2.771-0.636c-0.824-0.424-1.5-1.044-2.028-1.86v7.032h-1.704v-17.28h1.632v2.496
			c0.512-0.832,1.188-1.472,2.028-1.92s1.788-0.672,2.844-0.672C439.071,149.439,440.143,149.707,441.103,150.243z M440.168,160.155
			c0.72-0.408,1.284-0.988,1.691-1.74c0.408-0.752,0.612-1.607,0.612-2.567c0-0.961-0.204-1.813-0.612-2.557
			c-0.407-0.744-0.972-1.323-1.691-1.74c-0.72-0.415-1.521-0.624-2.4-0.624c-0.896,0-1.7,0.209-2.412,0.624
			c-0.712,0.417-1.271,0.996-1.68,1.74s-0.612,1.596-0.612,2.557c0,0.96,0.204,1.815,0.612,2.567s0.968,1.332,1.68,1.74
			s1.516,0.612,2.412,0.612C438.647,160.767,439.448,160.563,440.168,160.155z"/>
		<path d="M457.375,150.243c0.96,0.536,1.712,1.292,2.256,2.268c0.544,0.977,0.816,2.089,0.816,3.337
			c0,1.264-0.272,2.384-0.816,3.359c-0.544,0.977-1.292,1.732-2.243,2.269c-0.952,0.536-2.028,0.804-3.229,0.804
			c-1.024,0-1.948-0.212-2.771-0.636c-0.824-0.424-1.5-1.044-2.028-1.86v7.032h-1.704v-17.28h1.632v2.496
			c0.512-0.832,1.188-1.472,2.028-1.92s1.788-0.672,2.844-0.672C455.343,149.439,456.415,149.707,457.375,150.243z M456.439,160.155
			c0.72-0.408,1.284-0.988,1.691-1.74c0.408-0.752,0.612-1.607,0.612-2.567c0-0.961-0.204-1.813-0.612-2.557
			c-0.407-0.744-0.972-1.323-1.691-1.74c-0.72-0.415-1.521-0.624-2.4-0.624c-0.896,0-1.7,0.209-2.412,0.624
			c-0.712,0.417-1.271,0.996-1.68,1.74s-0.612,1.596-0.612,2.557c0,0.96,0.204,1.815,0.612,2.567s0.968,1.332,1.68,1.74
			s1.516,0.612,2.412,0.612C454.919,160.767,455.719,160.563,456.439,160.155z"/>
		<path d="M463.902,146.415c-0.239-0.24-0.359-0.528-0.359-0.864c0-0.319,0.12-0.6,0.359-0.84c0.24-0.24,0.536-0.359,0.889-0.359
			c0.352,0,0.647,0.116,0.888,0.348c0.24,0.232,0.36,0.508,0.36,0.828c0,0.352-0.12,0.647-0.36,0.888s-0.536,0.36-0.888,0.36
			C464.438,146.775,464.142,146.655,463.902,146.415z M463.927,149.535h1.704v12.624h-1.704V149.535z"/>
		<path d="M480.594,150.819c0.937,0.92,1.404,2.26,1.404,4.02v7.32h-1.704v-7.152c0-1.312-0.328-2.312-0.984-3
			c-0.656-0.688-1.592-1.031-2.808-1.031c-1.36,0-2.437,0.404-3.229,1.212s-1.188,1.924-1.188,3.348v6.624h-1.704v-12.624h1.632
			v2.328c0.464-0.769,1.108-1.364,1.933-1.788c0.823-0.424,1.779-0.636,2.867-0.636
			C478.398,149.439,479.659,149.899,480.594,150.819z"/>
		<path d="M498.367,149.535v11.088c0,2.144-0.524,3.732-1.572,4.764c-1.048,1.032-2.628,1.549-4.74,1.549
			c-1.168,0-2.276-0.173-3.324-0.517s-1.899-0.82-2.556-1.428l0.864-1.296c0.607,0.544,1.348,0.968,2.22,1.271
			s1.788,0.456,2.748,0.456c1.6,0,2.775-0.372,3.528-1.115c0.751-0.744,1.128-1.9,1.128-3.469v-1.607
			c-0.528,0.8-1.221,1.408-2.076,1.824c-0.856,0.416-1.805,0.623-2.844,0.623c-1.185,0-2.261-0.26-3.229-0.779
			s-1.728-1.248-2.28-2.185c-0.552-0.936-0.828-1.995-0.828-3.18c0-1.184,0.276-2.24,0.828-3.168
			c0.553-0.928,1.309-1.647,2.269-2.16c0.96-0.512,2.04-0.768,3.24-0.768c1.071,0,2.04,0.216,2.903,0.647
			c0.864,0.433,1.561,1.057,2.088,1.872v-2.424H498.367z M494.383,159.579c0.735-0.392,1.308-0.939,1.716-1.644
			s0.612-1.504,0.612-2.4c0-0.896-0.204-1.692-0.612-2.388c-0.408-0.696-0.976-1.24-1.704-1.632
			c-0.729-0.393-1.556-0.589-2.483-0.589c-0.912,0-1.732,0.192-2.46,0.576c-0.729,0.384-1.297,0.929-1.704,1.632
			c-0.408,0.705-0.612,1.505-0.612,2.4c0,0.896,0.204,1.696,0.612,2.4c0.407,0.704,0.976,1.252,1.704,1.644
			c0.728,0.393,1.548,0.588,2.46,0.588C492.822,160.167,493.646,159.971,494.383,159.579z"/>
		<path d="M52.551,190.251c-0.976-0.552-1.744-1.315-2.304-2.292c-0.56-0.976-0.84-2.08-0.84-3.312c0-1.232,0.28-2.336,0.84-3.313
			c0.56-0.976,1.328-1.736,2.304-2.28c0.976-0.543,2.072-0.815,3.288-0.815c1.216,0,2.312,0.272,3.288,0.815
			c0.976,0.544,1.74,1.305,2.292,2.28c0.552,0.977,0.828,2.08,0.828,3.313c0,1.231-0.276,2.336-0.828,3.312
			c-0.552,0.977-1.316,1.74-2.292,2.292c-0.977,0.552-2.072,0.828-3.288,0.828C54.622,191.079,53.526,190.802,52.551,190.251z
			 M58.251,188.955c0.711-0.408,1.268-0.988,1.668-1.74c0.399-0.752,0.6-1.607,0.6-2.567c0-0.961-0.2-1.816-0.6-2.568
			c-0.4-0.752-0.957-1.332-1.668-1.74c-0.712-0.408-1.517-0.612-2.412-0.612c-0.896,0-1.7,0.204-2.412,0.612s-1.272,0.988-1.68,1.74
			c-0.408,0.752-0.612,1.607-0.612,2.568c0,0.96,0.204,1.815,0.612,2.567c0.408,0.752,0.968,1.332,1.68,1.74
			s1.516,0.612,2.412,0.612C56.734,189.567,57.538,189.363,58.251,188.955z"/>
		<path d="M75.938,179.619c0.937,0.92,1.404,2.26,1.404,4.02v7.32h-1.704v-7.152c0-1.312-0.328-2.312-0.984-3
			c-0.656-0.688-1.592-1.031-2.808-1.031c-1.36,0-2.436,0.404-3.228,1.212s-1.188,1.924-1.188,3.348v6.624h-1.704v-12.624h1.632
			v2.328c0.464-0.769,1.108-1.364,1.932-1.788c0.824-0.424,1.78-0.636,2.868-0.636C73.742,178.239,75.002,178.699,75.938,179.619z"
			/>
		<path d="M99.158,186.47h-9.36l-2.017,4.488h-1.848l7.68-16.8h1.752l7.681,16.8h-1.872L99.158,186.47z M98.51,185.031l-4.032-9.024
			l-4.032,9.024H98.51z"/>
		<path d="M124.945,179.607c0.904,0.911,1.356,2.256,1.356,4.031v7.32h-1.704v-7.152c0-1.312-0.316-2.312-0.947-3
			c-0.633-0.688-1.524-1.031-2.677-1.031c-1.312,0-2.345,0.404-3.096,1.212c-0.753,0.808-1.128,1.924-1.128,3.348v6.624h-1.704
			v-7.152c0-1.312-0.316-2.312-0.948-3c-0.633-0.688-1.532-1.031-2.699-1.031c-1.297,0-2.324,0.404-3.084,1.212
			c-0.761,0.808-1.141,1.924-1.141,3.348v6.624h-1.704v-12.624h1.632v2.304c0.447-0.768,1.072-1.359,1.872-1.775
			s1.72-0.624,2.761-0.624c1.055,0,1.971,0.224,2.748,0.672c0.775,0.448,1.355,1.112,1.739,1.992
			c0.464-0.832,1.132-1.484,2.004-1.956s1.868-0.708,2.988-0.708C122.798,178.239,124.041,178.695,124.945,179.607z"/>
		<path d="M139.141,179.474c0.88,0.824,1.319,2.045,1.319,3.66v7.824h-1.631v-1.968c-0.385,0.656-0.948,1.168-1.692,1.536
			s-1.628,0.552-2.651,0.552c-1.408,0-2.529-0.336-3.361-1.008s-1.248-1.561-1.248-2.664c0-1.072,0.389-1.936,1.164-2.592
			c0.776-0.656,2.013-0.984,3.709-0.984h4.008v-0.769c0-1.087-0.305-1.915-0.912-2.483c-0.608-0.567-1.496-0.853-2.664-0.853
			c-0.801,0-1.568,0.133-2.305,0.396c-0.735,0.264-1.367,0.628-1.896,1.092l-0.769-1.271c0.641-0.544,1.408-0.964,2.305-1.261
			c0.896-0.296,1.84-0.443,2.832-0.443C136.998,178.239,138.261,178.651,139.141,179.474z M137.221,189.075
			c0.688-0.44,1.2-1.076,1.536-1.908v-2.064h-3.96c-2.16,0-3.24,0.753-3.24,2.257c0,0.735,0.28,1.315,0.84,1.739
			c0.56,0.425,1.345,0.637,2.353,0.637C135.709,189.735,136.533,189.515,137.221,189.075z"/>
		<path d="M153.998,189.543v1.416h-10.272v-1.128l7.944-10.056h-7.801v-1.44h9.984v1.128l-7.943,10.08H153.998z"/>
		<path d="M159.013,190.251c-0.977-0.552-1.744-1.315-2.305-2.292c-0.56-0.976-0.84-2.08-0.84-3.312c0-1.232,0.28-2.336,0.84-3.313
			c0.561-0.976,1.328-1.736,2.305-2.28c0.976-0.543,2.072-0.815,3.288-0.815s2.312,0.272,3.288,0.815
			c0.976,0.544,1.74,1.305,2.292,2.28c0.552,0.977,0.827,2.08,0.827,3.313c0,1.231-0.275,2.336-0.827,3.312
			c-0.552,0.977-1.316,1.74-2.292,2.292c-0.977,0.552-2.072,0.828-3.288,0.828S159.989,190.802,159.013,190.251z M164.714,188.955
			c0.712-0.408,1.268-0.988,1.668-1.74c0.399-0.752,0.6-1.607,0.6-2.567c0-0.961-0.2-1.816-0.6-2.568
			c-0.4-0.752-0.956-1.332-1.668-1.74s-1.517-0.612-2.412-0.612c-0.896,0-1.7,0.204-2.412,0.612s-1.272,0.988-1.681,1.74
			c-0.407,0.752-0.611,1.607-0.611,2.568c0,0.96,0.204,1.815,0.611,2.567c0.408,0.752,0.969,1.332,1.681,1.74
			s1.516,0.612,2.412,0.612C163.197,189.567,164.002,189.363,164.714,188.955z"/>
		<path d="M182.401,179.619c0.937,0.92,1.404,2.26,1.404,4.02v7.32h-1.704v-7.152c0-1.312-0.328-2.312-0.984-3
			c-0.656-0.688-1.592-1.031-2.808-1.031c-1.36,0-2.437,0.404-3.228,1.212c-0.793,0.808-1.188,1.924-1.188,3.348v6.624h-1.704
			v-12.624h1.632v2.328c0.464-0.769,1.108-1.364,1.933-1.788c0.823-0.424,1.779-0.636,2.867-0.636
			C180.205,178.239,181.465,178.699,182.401,179.619z"/>
		<path d="M187.705,190.695c-0.248-0.256-0.372-0.568-0.372-0.937s0.124-0.676,0.372-0.924s0.548-0.372,0.9-0.372
			c0.352,0,0.655,0.124,0.912,0.372c0.256,0.248,0.383,0.556,0.383,0.924s-0.127,0.681-0.383,0.937
			c-0.257,0.256-0.561,0.384-0.912,0.384C188.253,191.079,187.953,190.951,187.705,190.695z"/>
	</g>
	<g>
		<path d="M187.484,214.921h5.502v1.302h-5.502V214.921z"/>
		<path d="M212.054,207.906c1.063,0.896,1.596,2.129,1.596,3.696c0,1.568-0.533,2.797-1.596,3.686
			c-1.064,0.89-2.535,1.333-4.41,1.333h-3.948v4.642h-1.554v-14.7h5.502C209.519,206.562,210.99,207.01,212.054,207.906z
			 M210.941,214.301c0.77-0.637,1.154-1.535,1.154-2.698c0-1.189-0.385-2.103-1.154-2.74c-0.771-0.638-1.883-0.956-3.34-0.956
			h-3.905v7.351h3.905C209.058,215.257,210.171,214.938,210.941,214.301z"/>
		<path d="M223.771,211.215c0.77,0.721,1.155,1.788,1.155,3.201v6.847h-1.429v-1.723c-0.336,0.574-0.828,1.022-1.48,1.345
			c-0.65,0.322-1.424,0.483-2.32,0.483c-1.231,0-2.212-0.295-2.939-0.883c-0.729-0.588-1.092-1.364-1.092-2.331
			c0-0.938,0.339-1.693,1.018-2.268c0.68-0.574,1.762-0.861,3.245-0.861h3.507v-0.672c0-0.951-0.266-1.676-0.798-2.174
			c-0.532-0.496-1.31-0.745-2.331-0.745c-0.7,0-1.372,0.116-2.016,0.347c-0.645,0.23-1.197,0.549-1.659,0.955l-0.672-1.113
			c0.56-0.475,1.231-0.843,2.016-1.102c0.784-0.26,1.61-0.389,2.478-0.389C221.895,210.133,223.002,210.493,223.771,211.215z
			 M222.092,219.614c0.602-0.385,1.05-0.941,1.344-1.669v-1.807h-3.465c-1.891,0-2.835,0.658-2.835,1.975
			c0,0.644,0.245,1.151,0.735,1.522s1.176,0.557,2.058,0.557C220.768,220.192,221.49,219.999,222.092,219.614z"/>
		<path d="M231.972,210.699c0.693-0.377,1.551-0.566,2.572-0.566v1.449l-0.357-0.021c-1.162,0-2.072,0.357-2.729,1.071
			c-0.658,0.714-0.987,1.715-0.987,3.003v5.628h-1.49v-11.046h1.428v2.163C230.758,211.637,231.279,211.078,231.972,210.699z"/>
		<path d="M243.533,220.591c-0.281,0.252-0.627,0.444-1.04,0.577s-0.844,0.2-1.292,0.2c-1.035,0-1.834-0.28-2.394-0.841
			c-0.56-0.56-0.84-1.351-0.84-2.373v-6.678h-1.974v-1.26h1.974v-2.415h1.491v2.415h3.359v1.26h-3.359v6.594
			c0,0.658,0.164,1.159,0.493,1.502s0.802,0.515,1.417,0.515c0.309,0,0.605-0.049,0.893-0.147c0.287-0.098,0.536-0.237,0.746-0.42
			L243.533,220.591z"/>
		<path d="M246.22,207.486c-0.21-0.209-0.314-0.461-0.314-0.756c0-0.279,0.104-0.525,0.314-0.734
			c0.21-0.211,0.469-0.315,0.777-0.315c0.307,0,0.566,0.102,0.776,0.305s0.315,0.444,0.315,0.724c0,0.309-0.105,0.568-0.315,0.777
			c-0.21,0.211-0.47,0.315-0.776,0.315C246.689,207.802,246.43,207.697,246.22,207.486z M246.242,210.217h1.49v11.046h-1.49V210.217
			z"/>
		<path d="M253.539,220.653c-0.861-0.476-1.537-1.145-2.026-2.005c-0.49-0.861-0.735-1.83-0.735-2.908s0.245-2.045,0.735-2.898
			c0.489-0.854,1.165-1.52,2.026-1.995s1.838-0.714,2.93-0.714c0.951,0,1.803,0.186,2.551,0.557c0.75,0.371,1.341,0.913,1.775,1.627
			l-1.113,0.756c-0.364-0.545-0.826-0.955-1.387-1.229c-0.56-0.272-1.168-0.409-1.826-0.409c-0.799,0-1.516,0.179-2.152,0.536
			c-0.638,0.356-1.135,0.864-1.491,1.521c-0.356,0.658-0.536,1.408-0.536,2.248c0,0.854,0.18,1.605,0.536,2.257
			s0.854,1.155,1.491,1.512c0.637,0.357,1.354,0.536,2.152,0.536c0.658,0,1.267-0.134,1.826-0.399
			c0.561-0.266,1.022-0.672,1.387-1.218l1.113,0.756c-0.435,0.714-1.029,1.257-1.785,1.628s-1.604,0.557-2.541,0.557
			C255.377,221.368,254.4,221.13,253.539,220.653z"/>
		<path d="M263.692,207.486c-0.21-0.209-0.315-0.461-0.315-0.756c0-0.279,0.105-0.525,0.315-0.734
			c0.21-0.211,0.469-0.315,0.776-0.315c0.309,0,0.567,0.102,0.777,0.305s0.314,0.444,0.314,0.724c0,0.309-0.104,0.568-0.314,0.777
			c-0.21,0.211-0.469,0.315-0.777,0.315C264.161,207.802,263.902,207.697,263.692,207.486z M263.713,210.217h1.491v11.046h-1.491
			V210.217z"/>
		<path d="M277.867,210.836c0.84,0.469,1.498,1.131,1.975,1.984c0.475,0.854,0.713,1.827,0.713,2.92
			c0,1.105-0.238,2.086-0.713,2.939c-0.477,0.854-1.131,1.516-1.964,1.984c-0.833,0.47-1.774,0.704-2.825,0.704
			c-0.896,0-1.704-0.186-2.425-0.557c-0.722-0.371-1.313-0.914-1.774-1.628v6.153h-1.491v-15.12h1.428v2.184
			c0.448-0.728,1.04-1.287,1.774-1.68c0.735-0.392,1.564-0.588,2.488-0.588C276.089,210.133,277.027,210.367,277.867,210.836z
			 M277.049,219.509c0.629-0.356,1.123-0.864,1.48-1.522c0.356-0.658,0.535-1.406,0.535-2.246s-0.179-1.586-0.535-2.236
			c-0.357-0.652-0.852-1.159-1.48-1.523c-0.631-0.363-1.331-0.546-2.101-0.546c-0.784,0-1.487,0.183-2.11,0.546
			c-0.623,0.364-1.113,0.871-1.471,1.523c-0.356,0.65-0.535,1.396-0.535,2.236s0.179,1.588,0.535,2.246
			c0.357,0.658,0.848,1.166,1.471,1.522c0.623,0.357,1.326,0.536,2.11,0.536C275.718,220.045,276.418,219.866,277.049,219.509z"/>
		<path d="M290.719,211.215c0.77,0.721,1.155,1.788,1.155,3.201v6.847h-1.429v-1.723c-0.336,0.574-0.828,1.022-1.48,1.345
			c-0.65,0.322-1.424,0.483-2.32,0.483c-1.231,0-2.212-0.295-2.939-0.883c-0.729-0.588-1.092-1.364-1.092-2.331
			c0-0.938,0.339-1.693,1.018-2.268c0.68-0.574,1.762-0.861,3.245-0.861h3.507v-0.672c0-0.951-0.266-1.676-0.798-2.174
			c-0.532-0.496-1.31-0.745-2.331-0.745c-0.7,0-1.372,0.116-2.016,0.347c-0.645,0.23-1.197,0.549-1.659,0.955l-0.672-1.113
			c0.56-0.475,1.231-0.843,2.016-1.102c0.784-0.26,1.61-0.389,2.478-0.389C288.843,210.133,289.949,210.493,290.719,211.215z
			 M289.039,219.614c0.602-0.385,1.05-0.941,1.344-1.669v-1.807h-3.465c-1.891,0-2.835,0.658-2.835,1.975
			c0,0.644,0.245,1.151,0.735,1.522s1.176,0.557,2.058,0.557C287.716,220.192,288.437,219.999,289.039,219.614z"/>
		<path d="M304.863,211.34c0.818,0.806,1.229,1.979,1.229,3.518v6.405h-1.492v-6.258c0-1.147-0.287-2.022-0.86-2.625
			c-0.574-0.603-1.394-0.903-2.457-0.903c-1.19,0-2.132,0.354-2.825,1.061c-0.692,0.707-1.039,1.684-1.039,2.93v5.796h-1.49v-11.046
			h1.428v2.037c0.406-0.672,0.969-1.193,1.689-1.564c0.722-0.371,1.559-0.557,2.51-0.557
			C302.941,210.133,304.043,210.535,304.863,211.34z"/>
		<path d="M315.961,220.591c-0.28,0.252-0.627,0.444-1.039,0.577c-0.414,0.133-0.844,0.2-1.292,0.2c-1.036,0-1.834-0.28-2.394-0.841
			c-0.561-0.56-0.84-1.351-0.84-2.373v-6.678h-1.975v-1.26h1.975v-2.415h1.49v2.415h3.36v1.26h-3.36v6.594
			c0,0.658,0.164,1.159,0.494,1.502c0.328,0.343,0.801,0.515,1.417,0.515c0.308,0,0.605-0.049,0.893-0.147
			c0.286-0.098,0.536-0.237,0.745-0.42L315.961,220.591z"/>
		<path d="M334.398,207.906c1.064,0.896,1.596,2.129,1.596,3.696c0,1.568-0.531,2.797-1.596,3.686
			c-1.064,0.89-2.533,1.333-4.41,1.333h-3.947v4.642h-1.555v-14.7h5.502C331.865,206.562,333.334,207.01,334.398,207.906z
			 M333.285,214.301c0.771-0.637,1.156-1.535,1.156-2.698c0-1.189-0.386-2.103-1.156-2.74c-0.77-0.638-1.883-0.956-3.338-0.956
			h-3.906v7.351h3.906C331.402,215.257,332.515,214.938,333.285,214.301z"/>
		<path d="M348.195,219.919v1.344h-10.311v-1.07l6.111-5.985c0.77-0.756,1.291-1.41,1.564-1.964
			c0.273-0.553,0.409-1.109,0.409-1.669c0-0.869-0.298-1.544-0.892-2.027c-0.596-0.482-1.446-0.725-2.553-0.725
			c-1.722,0-3.059,0.547-4.01,1.639l-1.072-0.924c0.574-0.672,1.306-1.19,2.195-1.555c0.889-0.363,1.893-0.546,3.014-0.546
			c1.498,0,2.684,0.354,3.559,1.061c0.875,0.707,1.313,1.677,1.313,2.909c0,0.756-0.168,1.483-0.504,2.184s-0.973,1.505-1.91,2.415
			l-4.998,4.914H348.195z"/>
	</g>
</g>
</svg>
