<?xml version="1.0" encoding="utf-8"?>
<!-- Generator: Adobe Illustrator 16.0.0, SVG Export Plug-In . SVG Version: 6.00 Build 0)  -->
<!DOCTYPE svg PUBLIC "-//W3C//DTD SVG 1.1//EN" "http://www.w3.org/Graphics/SVG/1.1/DTD/svg11.dtd">
<svg version="1.1" id="图层_1" xmlns="http://www.w3.org/2000/svg" xmlns:xlink="http://www.w3.org/1999/xlink" x="0px" y="0px"
	 width="141.73px" height="141.73px" viewBox="0 0 141.73 141.73" enable-background="new 0 0 141.73 141.73" xml:space="preserve">
<circle fill="none" stroke="#E1E1E1" stroke-width="20" stroke-linecap="round" stroke-miterlimit="10" cx="70.865" cy="71.121" r="59.625"/>
<g>
	<path fill="#FFAD28" d="M30.566,92.347c-0.906-0.275-1.623-0.642-2.151-1.098l0.81-1.818c0.516,0.408,1.149,0.741,1.899,0.999
		c0.75,0.259,1.503,0.388,2.259,0.388c0.936,0,1.635-0.15,2.097-0.45s0.693-0.696,0.693-1.188c0-0.359-0.129-0.656-0.387-0.891
		c-0.258-0.234-0.585-0.417-0.981-0.549s-0.936-0.282-1.62-0.45c-0.96-0.228-1.737-0.456-2.331-0.684
		c-0.594-0.229-1.104-0.585-1.53-1.071c-0.426-0.486-0.639-1.144-0.639-1.971c0-0.696,0.189-1.329,0.567-1.899
		c0.378-0.569,0.948-1.022,1.71-1.359c0.762-0.335,1.695-0.504,2.799-0.504c0.768,0,1.524,0.097,2.268,0.288
		c0.744,0.192,1.386,0.468,1.926,0.828l-0.738,1.818c-0.552-0.324-1.128-0.57-1.728-0.738c-0.6-0.168-1.182-0.252-1.746-0.252
		c-0.924,0-1.611,0.156-2.061,0.468c-0.45,0.313-0.675,0.727-0.675,1.242c0,0.36,0.128,0.654,0.387,0.882
		c0.258,0.229,0.585,0.408,0.981,0.54s0.936,0.282,1.62,0.45c0.936,0.216,1.704,0.44,2.304,0.675c0.6,0.234,1.113,0.591,1.539,1.071
		c0.426,0.479,0.639,1.128,0.639,1.943c0,0.696-0.189,1.326-0.567,1.891s-0.951,1.014-1.719,1.35s-1.704,0.504-2.808,0.504
		C32.411,92.761,31.472,92.624,30.566,92.347z"/>
	<path fill="#FFAD28" d="M42.149,91.295c-0.972-0.978-1.458-2.379-1.458-4.203v-7.109h2.34v7.02c0,2.473,1.068,3.708,3.204,3.708
		c2.124,0,3.186-1.235,3.186-3.708v-7.02h2.304v7.109c0,1.824-0.483,3.226-1.449,4.203c-0.966,0.979-2.319,1.467-4.059,1.467
		S43.121,92.273,42.149,91.295z"/>
	<path fill="#FFAD28" d="M57.386,91.925c-1.026-0.558-1.83-1.329-2.412-2.313c-0.582-0.984-0.873-2.094-0.873-3.33
		s0.294-2.346,0.882-3.33s1.395-1.755,2.421-2.313c1.026-0.558,2.175-0.837,3.447-0.837c1.032,0,1.974,0.181,2.826,0.54
		c0.852,0.36,1.571,0.882,2.16,1.566l-1.513,1.422c-0.912-0.983-2.033-1.476-3.366-1.476c-0.864,0-1.638,0.188-2.322,0.566
		s-1.218,0.903-1.602,1.575c-0.384,0.672-0.576,1.434-0.576,2.286c0,0.852,0.192,1.614,0.576,2.286
		c0.384,0.672,0.918,1.196,1.602,1.574c0.684,0.379,1.458,0.567,2.322,0.567c1.333,0,2.454-0.498,3.366-1.494l1.513,1.44
		c-0.589,0.684-1.312,1.206-2.169,1.565c-0.858,0.36-1.804,0.54-2.835,0.54C59.561,92.761,58.412,92.483,57.386,91.925z"/>
	<path fill="#FFAD28" d="M70.202,91.925c-1.026-0.558-1.83-1.329-2.412-2.313c-0.582-0.984-0.873-2.094-0.873-3.33
		s0.294-2.346,0.882-3.33s1.396-1.755,2.421-2.313c1.026-0.558,2.174-0.837,3.448-0.837c1.031,0,1.973,0.181,2.826,0.54
		c0.852,0.36,1.57,0.882,2.16,1.566L77.14,83.33c-0.912-0.983-2.033-1.476-3.365-1.476c-0.863,0-1.639,0.188-2.322,0.566
		c-0.684,0.378-1.217,0.903-1.602,1.575c-0.384,0.672-0.575,1.434-0.575,2.286c0,0.852,0.191,1.614,0.575,2.286
		c0.385,0.672,0.918,1.196,1.602,1.574c0.684,0.379,1.459,0.567,2.322,0.567c1.332,0,2.453-0.498,3.365-1.494l1.514,1.44
		c-0.59,0.684-1.313,1.206-2.17,1.565c-0.857,0.36-1.803,0.54-2.834,0.54C72.377,92.761,71.228,92.483,70.202,91.925z"/>
	<path fill="#FFAD28" d="M90.353,90.62v1.962h-9.449v-12.6h9.197v1.962h-6.857v3.275h6.084v1.927h-6.084v3.474H90.353z"/>
	<path fill="#FFAD28" d="M94.052,92.347c-0.906-0.275-1.623-0.642-2.152-1.098l0.811-1.818c0.516,0.408,1.148,0.741,1.898,0.999
		c0.75,0.259,1.504,0.388,2.26,0.388c0.936,0,1.635-0.15,2.098-0.45c0.461-0.3,0.691-0.696,0.691-1.188
		c0-0.359-0.129-0.656-0.387-0.891s-0.584-0.417-0.98-0.549s-0.936-0.282-1.619-0.45c-0.961-0.228-1.738-0.456-2.332-0.684
		c-0.594-0.229-1.104-0.585-1.529-1.071s-0.639-1.144-0.639-1.971c0-0.696,0.188-1.329,0.566-1.899
		c0.377-0.569,0.947-1.022,1.709-1.359c0.762-0.335,1.695-0.504,2.799-0.504c0.77,0,1.525,0.097,2.27,0.288
		c0.744,0.192,1.385,0.468,1.926,0.828l-0.738,1.818c-0.553-0.324-1.129-0.57-1.729-0.738s-1.182-0.252-1.746-0.252
		c-0.924,0-1.611,0.156-2.061,0.468c-0.449,0.313-0.676,0.727-0.676,1.242c0,0.36,0.129,0.654,0.389,0.882
		c0.258,0.229,0.584,0.408,0.98,0.54s0.936,0.282,1.619,0.45c0.938,0.216,1.705,0.44,2.305,0.675s1.113,0.591,1.539,1.071
		c0.426,0.479,0.639,1.128,0.639,1.943c0,0.696-0.189,1.326-0.566,1.891c-0.379,0.564-0.951,1.014-1.719,1.35
		c-0.77,0.336-1.705,0.504-2.809,0.504C95.896,92.761,94.957,92.624,94.052,92.347z"/>
	<path fill="#FFAD28" d="M105.375,92.347c-0.906-0.275-1.623-0.642-2.152-1.098l0.811-1.818c0.516,0.408,1.148,0.741,1.898,0.999
		c0.75,0.259,1.504,0.388,2.26,0.388c0.936,0,1.635-0.15,2.098-0.45c0.461-0.3,0.691-0.696,0.691-1.188
		c0-0.359-0.129-0.656-0.387-0.891s-0.584-0.417-0.98-0.549s-0.936-0.282-1.619-0.45c-0.961-0.228-1.738-0.456-2.332-0.684
		c-0.594-0.229-1.104-0.585-1.529-1.071s-0.639-1.144-0.639-1.971c0-0.696,0.188-1.329,0.566-1.899
		c0.377-0.569,0.947-1.022,1.709-1.359c0.762-0.335,1.695-0.504,2.799-0.504c0.77,0,1.525,0.097,2.27,0.288
		c0.744,0.192,1.385,0.468,1.926,0.828l-0.738,1.818c-0.553-0.324-1.129-0.57-1.729-0.738s-1.182-0.252-1.746-0.252
		c-0.924,0-1.611,0.156-2.061,0.468c-0.449,0.313-0.676,0.727-0.676,1.242c0,0.36,0.129,0.654,0.389,0.882
		c0.258,0.229,0.584,0.408,0.98,0.54s0.936,0.282,1.619,0.45c0.938,0.216,1.705,0.44,2.305,0.675s1.113,0.591,1.539,1.071
		c0.426,0.479,0.639,1.128,0.639,1.943c0,0.696-0.189,1.326-0.566,1.891c-0.379,0.564-0.951,1.014-1.719,1.35
		c-0.77,0.336-1.705,0.504-2.809,0.504C107.219,92.761,106.279,92.624,105.375,92.347z"/>
</g>
<g>
	<path fill="#FFAD28" d="M42.725,57.853c1.1,0.53,1.96,1.285,2.58,2.265c0.62,0.98,0.93,2.11,0.93,3.391
		c0,1.36-0.34,2.555-1.02,3.585c-0.68,1.03-1.6,1.825-2.76,2.385c-1.16,0.56-2.46,0.84-3.9,0.84c-2.88,0-5.115-0.899-6.705-2.7
		c-1.59-1.8-2.385-4.38-2.385-7.739c0-2.36,0.43-4.375,1.29-6.045s2.065-2.94,3.615-3.811c1.55-0.87,3.345-1.305,5.385-1.305
		c1.08,0,2.095,0.115,3.045,0.345c0.95,0.23,1.775,0.565,2.475,1.005l-1.44,2.94c-1.04-0.68-2.37-1.021-3.99-1.021
		c-2.021,0-3.6,0.62-4.74,1.86s-1.71,3.03-1.71,5.37v0.03c0.62-0.721,1.41-1.266,2.37-1.636c0.96-0.369,2.04-0.555,3.24-0.555
		C40.385,57.058,41.625,57.323,42.725,57.853z M41.315,66.282c0.76-0.649,1.14-1.515,1.14-2.595c0-1.1-0.38-1.97-1.14-2.61
		c-0.76-0.64-1.78-0.96-3.06-0.96c-1.26,0-2.285,0.341-3.075,1.021c-0.791,0.68-1.185,1.54-1.185,2.58
		c0,1.02,0.385,1.865,1.155,2.535s1.835,1.005,3.195,1.005C39.565,67.258,40.554,66.933,41.315,66.282z"/>
	<path fill="#FFAD28" d="M61.534,57.853c1.1,0.53,1.961,1.285,2.58,2.265c0.619,0.98,0.93,2.11,0.93,3.391
		c0,1.36-0.34,2.555-1.02,3.585s-1.6,1.825-2.76,2.385s-2.461,0.84-3.9,0.84c-2.879,0-5.115-0.899-6.705-2.7
		c-1.59-1.8-2.385-4.38-2.385-7.739c0-2.36,0.43-4.375,1.291-6.045c0.859-1.67,2.064-2.94,3.613-3.811
		c1.551-0.87,3.346-1.305,5.387-1.305c1.08,0,2.094,0.115,3.045,0.345c0.949,0.23,1.773,0.565,2.475,1.005l-1.439,2.94
		c-1.041-0.68-2.371-1.021-3.99-1.021c-2.021,0-3.602,0.62-4.74,1.86c-1.141,1.24-1.711,3.03-1.711,5.37v0.03
		c0.621-0.721,1.41-1.266,2.371-1.636c0.959-0.369,2.039-0.555,3.24-0.555C59.195,57.058,60.435,57.323,61.534,57.853z
		 M60.124,66.282c0.76-0.649,1.141-1.515,1.141-2.595c0-1.1-0.381-1.97-1.141-2.61c-0.76-0.64-1.779-0.96-3.059-0.96
		c-1.262,0-2.285,0.341-3.076,1.021c-0.789,0.68-1.186,1.54-1.186,2.58c0,1.02,0.385,1.865,1.156,2.535
		c0.77,0.67,1.834,1.005,3.195,1.005C58.374,67.258,59.365,66.933,60.124,66.282z"/>
	<path fill="#FFAD28" d="M67.985,69.523c-0.479-0.47-0.72-1.064-0.72-1.785c0-0.739,0.234-1.34,0.705-1.8
		c0.47-0.46,1.055-0.689,1.755-0.689c0.699,0,1.285,0.229,1.755,0.689c0.469,0.46,0.705,1.061,0.705,1.8
		c0,0.721-0.24,1.315-0.721,1.785c-0.48,0.471-1.06,0.705-1.74,0.705C69.044,70.228,68.465,69.993,67.985,69.523z"/>
	<path fill="#FFAD28" d="M87.605,57.853c1.1,0.53,1.959,1.285,2.58,2.265c0.619,0.98,0.93,2.11,0.93,3.391
		c0,1.36-0.34,2.555-1.02,3.585c-0.682,1.03-1.602,1.825-2.762,2.385s-2.459,0.84-3.898,0.84c-2.881,0-5.115-0.899-6.705-2.7
		c-1.59-1.8-2.385-4.38-2.385-7.739c0-2.36,0.43-4.375,1.289-6.045s2.064-2.94,3.615-3.811c1.549-0.87,3.346-1.305,5.385-1.305
		c1.08,0,2.096,0.115,3.045,0.345c0.949,0.23,1.775,0.565,2.475,1.005l-1.439,2.94c-1.041-0.68-2.369-1.021-3.99-1.021
		c-2.02,0-3.6,0.62-4.74,1.86c-1.139,1.24-1.709,3.03-1.709,5.37v0.03c0.619-0.721,1.41-1.266,2.369-1.636
		c0.961-0.369,2.041-0.555,3.24-0.555C85.265,57.058,86.504,57.323,87.605,57.853z M86.195,66.282
		c0.76-0.649,1.139-1.515,1.139-2.595c0-1.1-0.379-1.97-1.139-2.61c-0.76-0.64-1.781-0.96-3.061-0.96
		c-1.26,0-2.285,0.341-3.074,1.021c-0.791,0.68-1.186,1.54-1.186,2.58c0,1.02,0.385,1.865,1.154,2.535s1.836,1.005,3.195,1.005
		C84.445,67.258,85.435,66.933,86.195,66.282z"/>
	<path fill="#FFAD28" d="M93.605,58.738c-0.92-1.06-1.381-2.449-1.381-4.17c0-1.72,0.461-3.109,1.381-4.17
		c0.92-1.06,2.129-1.59,3.629-1.59s2.715,0.525,3.645,1.575c0.932,1.05,1.396,2.444,1.396,4.185s-0.465,3.135-1.396,4.186
		c-0.93,1.05-2.145,1.574-3.645,1.574S94.525,59.798,93.605,58.738z M99.14,57.268c0.449-0.64,0.674-1.54,0.674-2.7
		c0-1.159-0.225-2.06-0.674-2.7c-0.451-0.64-1.086-0.96-1.906-0.96c-0.779,0-1.404,0.325-1.875,0.976
		c-0.469,0.65-0.705,1.545-0.705,2.685c0,1.141,0.236,2.035,0.705,2.686c0.471,0.649,1.096,0.975,1.875,0.975
		C98.054,58.228,98.689,57.908,99.14,57.268z M109.834,49.018h2.941l-14.34,21h-2.941L109.834,49.018z M107.375,68.638
		c-0.92-1.06-1.381-2.45-1.381-4.17s0.461-3.11,1.381-4.17c0.92-1.061,2.129-1.59,3.629-1.59s2.717,0.529,3.646,1.59
		c0.93,1.06,1.395,2.45,1.395,4.17s-0.465,3.11-1.395,4.17c-0.93,1.061-2.146,1.59-3.646,1.59S108.295,69.698,107.375,68.638z
		 M112.894,67.153c0.461-0.649,0.689-1.545,0.689-2.685c0-1.141-0.229-2.035-0.689-2.686c-0.461-0.649-1.09-0.975-1.891-0.975
		c-0.799,0-1.43,0.32-1.889,0.96c-0.461,0.641-0.689,1.54-0.689,2.7s0.229,2.06,0.689,2.7c0.459,0.64,1.09,0.96,1.889,0.96
		C111.804,68.128,112.433,67.803,112.894,67.153z"/>
</g>
<path fill="none" stroke="#FFAD28" stroke-width="20" stroke-linecap="round" stroke-miterlimit="10" d="M70.865,11.496
	c32.93,0,59.625,26.695,59.625,59.625c0,32.929-26.695,59.624-59.625,59.624c-19.979,0-37.665-9.828-48.484-24.913"/>
<path fill="none" stroke="#FFFFFF" stroke-width="2" stroke-linecap="round" stroke-miterlimit="10" d="M14.244,113.138
	L14.244,113.138c-3.73-4.843-2.829-11.795,2.015-15.525l0,0c4.844-3.73,11.795-2.828,15.526,2.015"/>
</svg>
