<?xml version="1.0" encoding="utf-8"?>
<!-- Generator: Adobe Illustrator 16.0.0, SVG Export Plug-In . SVG Version: 6.00 Build 0)  -->
<!DOCTYPE svg PUBLIC "-//W3C//DTD SVG 1.1//EN" "http://www.w3.org/Graphics/SVG/1.1/DTD/svg11.dtd">
<svg version="1.1" xmlns="http://www.w3.org/2000/svg" xmlns:xlink="http://www.w3.org/1999/xlink" x="0px" y="0px"
	 width="536.032px" height="407.698px" viewBox="0 0 536.032 407.698" enable-background="new 0 0 536.032 407.698"
	 xml:space="preserve">
<g id="图层_1">
	<path fill="#E1E1E1" d="M417.91,247.01c-4.121-0.456-12.734-0.747-21.044-2.496c-13.256-2.783-21.992,1.607-30.858,12.104
		c-49.793,58.98-121.721,59.368-171.823,0.826c-9.305-10.872-17.158-13.082-30.713-8.91c-56.647,17.422-100.962,7.758-113.611-49.54
		c-2.935-13.269-14.269-21.888-25.821-30.13c-26.34-18.794-24.426-61.532-11.86-87.241c12.03-24.619,37.38-36.171,67.339-27.115
		c15.928,4.813,26.058,3.183,38.551-8.46c34.001-31.719,70.325-33.546,109.173-6.185c12.357,8.703,19.491,8.231,30.291-2.187
		c38.662-37.279,77.96-42.204,122.952-15.444c12.903,7.674,25.658,7.146,39.343,7.168c62.398,0.089,111.54,49.204,110.883,110.275
		C530.067,198.881,481.438,247.034,417.91,247.01z"/>
	<path fill-rule="evenodd" clip-rule="evenodd" fill="#F8EFEA" d="M440.158,278.622c-0.103-0.028-0.205-0.058-0.307-0.087
		c0.052,0.09,0.102,0.181,0.152,0.271C440.119,278.799,440.17,278.738,440.158,278.622z"/>
	<g>
		<path fill-rule="evenodd" clip-rule="evenodd" d="M27.561,86.487c0.299,0.652,0.576,1.262,0.873,1.912
			c-1.886,0.911-3.242,2.205-3.574,4.396c0.274,0.088,0.517,0.162,0.757,0.241c3.298,1.093,4.435,5.403,2.026,7.805
			c-1.386,1.382-3.113,1.782-4.97,1.227c-1.964-0.588-3.008-2.075-3.37-4.023c-0.951-5.11,2.523-10.228,7.721-11.434
			C27.177,86.576,27.328,86.541,27.561,86.487z"/>
		<path fill-rule="evenodd" clip-rule="evenodd" d="M40.017,86.482c0.313,0.673,0.598,1.279,0.897,1.921
			c-1.904,0.887-3.233,2.204-3.602,4.409c0.273,0.08,0.54,0.149,0.801,0.238c2.102,0.704,3.359,2.625,3.248,4.955
			c-0.1,2.048-1.518,3.644-3.699,4.159c-2.091,0.492-4.236-0.415-5.23-2.319c-1.305-2.502-1.023-5.042,0.095-7.51
			C33.98,89.127,36.538,87.259,40.017,86.482z"/>
	</g>
	<g>
		<path fill-rule="evenodd" clip-rule="evenodd" d="M505.008,102.307c-0.298-0.653-0.576-1.262-0.873-1.912
			c1.886-0.91,3.241-2.207,3.575-4.396c-0.274-0.088-0.517-0.161-0.757-0.241c-3.298-1.094-4.437-5.403-2.028-7.805
			c1.386-1.383,3.113-1.782,4.971-1.228c1.964,0.588,3.007,2.075,3.37,4.024c0.951,5.11-2.523,10.228-7.721,11.433
			C505.392,102.219,505.242,102.254,505.008,102.307z"/>
		<path fill-rule="evenodd" clip-rule="evenodd" d="M492.551,102.31c-0.313-0.672-0.597-1.278-0.896-1.919
			c1.905-0.887,3.234-2.205,3.602-4.41c-0.274-0.079-0.541-0.149-0.801-0.235c-2.104-0.707-3.358-2.627-3.248-4.957
			c0.1-2.048,1.518-3.645,3.697-4.159c2.093-0.492,4.238,0.415,5.232,2.319c1.306,2.502,1.024,5.043-0.094,7.51
			C498.588,99.668,496.031,101.535,492.551,102.31z"/>
	</g>
	<ellipse fill="#E1E1E1" cx="363.442" cy="306.052" rx="20.491" ry="15.305"/>
	<ellipse fill="#E1E1E1" cx="405.938" cy="328.749" rx="11.491" ry="8.991"/>
</g>
<g id="图层_2">
	<g>
		<path fill-rule="evenodd" clip-rule="evenodd" fill="#425E0B" d="M516.728,389.994c-0.319-5.75-1.03-11.511-0.86-17.246
			c0.21-7.021-3.495-10.905-9.324-13.302c-4.631-1.904-9.432-3.387-14.16-5.047c-1.269-0.445-2.736-1.44-3.771-1.111
			c-0.979,0.311-0.596,2.263-0.975,3.463c-1.592,5.017-4.945,8.123-10.005,9.361c-3.322,0.813-6.735,0.87-10.059,0.236
			c-5.979-1.141-11.381-4.436-11.841-14.234c-7.762,2.581-16.273,3.32-21.549,10.772c-1.46,2.061-2.314,4.303-2.673,6.831
			c-0.878,6.161-1.433,12.371-2.687,18.478c-0.068,0.818-0.08,1.646-0.213,2.455c-0.559,3.397-0.572,3.397,2.738,3.397
			c27.003-0.005,54.006-0.021,81.01-0.004C516.51,394.047,516.51,394.112,516.728,389.994z"/>
		<path fill-rule="evenodd" clip-rule="evenodd" fill="#F3BD95" d="M479.96,346.218c0.434-1.701,0.199-3.436,0.197-5.15
			c-0.002-1.496,0.42-2.351,1.882-3.136c4.782-2.57,9.204-5.63,11.193-11.087c0.103-0.28,0.276-0.543,0.337-0.831
			c0.673-3.214,1.336-6.101,4.619-8.197c3.158-2.016,3.119-6.518,0.67-9.474c-0.864-1.042-0.512-2.116-0.648-3.189
			c-0.823,0.569,0.125,2.331-1.578,2.321c-2.002-0.012-3.135,1.192-3.906,2.874c-0.324,0.707-0.678,1.414-1.647,1.097
			c-0.944-0.309-0.572-1.139-0.513-1.726c0.327-3.206,0.627-6.422,1.141-9.601c0.274-1.694-0.223-2.726-1.676-3.501
			c-2.635-1.405-2.621-1.431-0.873-3.719c1.648-2.156,1.666-3.465-0.01-5.643c-2.327-3.024-4.635-5.318-9.244-4.858
			c-5.777,0.576-11.699,0.156-17.518-0.309c-3.942-0.314-6.473,1.096-8.682,4.202c-2.672,3.756-2.86,3.668,0.193,7.102
			c0.973,1.092,1.306,1.893-0.453,2.291c-3.205,0.728-3.887,2.968-3.902,5.892c-0.014,2.524,0.331,5.086-0.344,7.586
			c0.591,5.647,1.156,11.298,1.777,16.942c0.293,2.648,2.381,4.248,3.871,6.154c2.559,3.281,4.811,6.894,8.724,8.869
			c0.72,0.363,0.862,1.165,0.847,1.968c-0.025,1.353-0.045,2.708,0.006,4.06c0.059,1.521-0.354,2.465-2.043,2.929
			c-2.968,0.814-2.613,2.562-1.68,5.899c1.424,5.088,5.375,6.445,10.152,6.5c4.146,0.048,8.133-0.209,11.042-3.752
			c1.419-1.728,1.995-3.778,2.3-5.933c0.16-1.142-0.631-1.623-1.51-1.94c-1.627-0.588-2.662-1.619-2.789-3.413
			c-3.911-4.461-9.698-3.812-15.101-5.098c1.592-1.205,2.837-0.304,4.062-0.433c3.213-0.34,6.33-0.881,9.269-2.272
			c1.325-0.627,1.605-0.062,1.605,1.237C479.73,342.657,479.393,344.462,479.96,346.218z M460.347,300.211
			c-0.912-0.041-1.825-0.082-2.737-0.123c-1.546,0.233-3.094,0.467-4.64,0.701c-0.675,0.104-1.509,0.726-1.86-0.403
			c-0.302-0.979,0.279-1.695,1.137-1.873c2.254-0.468,4.455-1.35,6.828-1.052c0.891,0.141,1.887-0.308,2.658,0.48
			c0.68,0.396,2.026-0.767,2.121,0.743c0.045,0.709,0.041,1.967-1.315,1.901C461.803,300.55,461.079,300.342,460.347,300.211z
			 M478.315,300.309c-0.475,0-1.594-0.018-2.71,0.005c-0.974,0.02-1.219-0.67-1.466-1.4c-0.285-0.843,0.291-1.149,0.889-1.213
			c3.726-0.397,7.438-0.517,11.008,0.951c0.726,0.298,1.08,0.803,0.807,1.587c-0.253,0.728-0.795,0.701-1.457,0.588
			C483.26,300.464,481.137,300.02,478.315,300.309z M474.991,326.361c-2.367,3.038-4.975,3.978-8.053,3.544
			c-2.177-0.307-4.216-0.986-4.488-3.978C466.421,327.176,470.391,326.975,474.991,326.361z M481.53,307.186
			c-0.021,0.096-0.114,0.84-0.348,1.536c-0.502,1.491-2.215,1.839-3.285,0.707c-1.186-1.25-1.164-4.313,0.014-5.624
			c1.084-1.205,2.09-0.96,2.976,0.182C481.45,304.714,481.606,305.615,481.53,307.186z M456.279,306.638
			c-0.018-1.956,1.049-3.742,2.31-3.582c1.89,0.241,2.24,1.791,2.26,3.352c0.023,1.619-0.199,3.282-2.164,3.681
			C457.402,310.348,456.295,308.651,456.279,306.638z M494.265,309.746c0.817-1.063,1.646-0.915,2.411-0.323
			c1.059,0.819,2.255,1.629,1.902,3.272c-0.273,1.273-3.388,4.462-4.336,4.527c-0.416,0.028-0.969-0.151-0.756-0.482
			c0.829-1.283,0.189-3.532,2.46-3.862c0.589-0.086,1.241-0.006,1.339-0.854c0.088-0.758-0.472-1.072-0.978-1.362
			C495.737,310.335,495.106,310.116,494.265,309.746z"/>
		<path fill-rule="evenodd" clip-rule="evenodd" fill="#C45E3F" d="M449.198,309.162c0.675-2.5,0.33-5.062,0.344-7.586
			c0.016-2.924,0.697-5.164,3.902-5.892c1.759-0.398,1.426-1.199,0.453-2.291c-3.054-3.434-2.865-3.346-0.193-7.102
			c2.209-3.106,4.739-4.517,8.682-4.202c5.818,0.465,11.74,0.885,17.518,0.309c4.609-0.46,6.917,1.834,9.244,4.858
			c1.676,2.178,1.658,3.486,0.01,5.643c-1.748,2.288-1.762,2.313,0.873,3.719c1.453,0.775,1.95,1.807,1.676,3.501
			c-0.514,3.179-0.813,6.395-1.141,9.601c-0.06,0.587-0.432,1.417,0.513,1.726c0.97,0.317,1.323-0.39,1.647-1.097
			c0.771-1.682,1.904-2.886,3.906-2.874c1.703,0.01,0.755-1.752,1.578-2.321c0.676-4.288,1.338-8.578,2.034-12.863
			c0.741-4.559-0.292-8.47-4.032-11.439c-0.979-0.776-1.107-1.889-1.127-3.045c-0.07-4.155-1.693-6.44-5.675-7.826
			c-1.525-0.531-2.821-1.355-3.944-2.483c-3.703-3.723-8.257-4.586-13.105-2.475c-3.233,1.408-5.422,0.308-5.709-3.201
			c-0.189-2.322-1.094-1.754-2.301-0.975c-2.389,1.54-2.941,3.319-2.172,6.868c0.045,0.033,0.1,0.06,0.135,0.103
			c0.014,0.02-0.012,0.072-0.018,0.109c-0.031-0.078-0.059-0.156-0.088-0.234c-1.839,0.147-2.541-1.29-3.334-2.498
			c-0.758-1.15-1.354-1.364-2.687-0.572c-2.554,1.517-2.61,3.898-2.677,6.448c-1.575-0.867-1.102-2.41-1.515-3.778
			c-2.019,0.694-3.009,2.251-3.761,4.04c-0.041,0.305-0.084,0.61-0.127,0.915c0.01,0.288,0.02,0.576,0.029,0.864
			c0.24,1.36-0.234,2.793,0.418,4.112c0.67,1.271,1.099,2.784-0.018,3.782c-2.9,2.587-2.822,5.771-2.258,9.118
			c0.77,4.564,0.744,9.233,1.854,13.754C448.562,305.62,448.846,307.399,449.198,309.162z"/>
		<path fill-rule="evenodd" clip-rule="evenodd" fill="#E1E1E1" d="M516.728,389.994c-0.218,4.118-0.218,4.053-4.368,4.05
			c-27.004-0.017-54.007-0.001-81.01,0.004c-3.311,0-3.297,0-2.738-3.397c0.133-0.809,0.145-1.637,0.213-2.455
			c-4.99,0.02-9.805,0.936-14.378,2.955c-1.166,0.515-2.446,1.251-2.487,2.625c-0.037,1.254,1.257,1.727,2.291,2.206
			c5.162,2.396,10.723,3.179,16.271,3.906c8.666,1.137,17.378,1.572,26.116,1.969c10.797,0.49,21.582,0.345,32.362,0.199
			c7.14-0.097,14.287-0.932,21.397-1.74c6.276-0.714,12.615-1.297,18.607-3.558c1.648-0.622,3.914-1.132,3.738-3.273
			c-0.158-1.937-2.264-2.58-4.016-3.043c-2.523-0.668-5.021-1.425-7.609-1.864C519.325,388.272,517.559,387.527,516.728,389.994z"/>
		<path fill-rule="evenodd" clip-rule="evenodd" fill="#DE9F5F" d="M479.96,346.218c-0.566-1.756-0.229-3.561-0.229-5.338
			c0-1.299-0.28-1.864-1.605-1.237c-2.938,1.392-6.056,1.933-9.269,2.272c-1.225,0.129-2.47-0.772-4.062,0.433
			c5.402,1.286,11.189,0.637,15.101,5.098C479.915,347.035,479.938,346.627,479.96,346.218z"/>
		<path fill-rule="evenodd" clip-rule="evenodd" fill="#C45E3F" d="M478.315,300.309c2.822-0.289,4.945,0.154,7.07,0.518
			c0.662,0.113,1.204,0.14,1.457-0.588c0.273-0.784-0.081-1.289-0.807-1.587c-3.569-1.468-7.282-1.349-11.008-0.951
			c-0.598,0.063-1.174,0.37-0.889,1.213c0.247,0.73,0.492,1.42,1.466,1.4C476.721,300.292,477.841,300.309,478.315,300.309z"/>
		<path fill-rule="evenodd" clip-rule="evenodd" fill="#F8EFEA" d="M474.991,326.361c-4.6,0.614-8.57,0.814-12.541-0.434
			c0.272,2.991,2.312,3.671,4.488,3.978C470.016,330.339,472.624,329.399,474.991,326.361z"/>
		<path fill-rule="evenodd" clip-rule="evenodd" fill="#7C4427" d="M481.53,307.186c0.076-1.571-0.08-2.473-0.644-3.199
			c-0.886-1.142-1.892-1.387-2.976-0.182c-1.178,1.311-1.199,4.374-0.014,5.624c1.07,1.132,2.783,0.784,3.285-0.707
			C481.416,308.026,481.509,307.282,481.53,307.186z"/>
		<path fill-rule="evenodd" clip-rule="evenodd" fill="#7C4427" d="M456.279,306.638c0.016,2.013,1.123,3.71,2.405,3.45
			c1.965-0.398,2.188-2.062,2.164-3.681c-0.02-1.561-0.37-3.11-2.26-3.352C457.328,302.896,456.261,304.682,456.279,306.638z"/>
		<path fill-rule="evenodd" clip-rule="evenodd" fill="#DE9F5F" d="M494.265,309.746c0.841,0.37,1.472,0.589,2.043,0.915
			c0.506,0.29,1.065,0.604,0.978,1.362c-0.098,0.849-0.75,0.769-1.339,0.854c-2.271,0.33-1.631,2.579-2.46,3.862
			c-0.213,0.331,0.34,0.511,0.756,0.482c0.948-0.065,4.063-3.254,4.336-4.527c0.353-1.644-0.844-2.453-1.902-3.272
			C495.911,308.831,495.083,308.683,494.265,309.746z"/>
		<path fill-rule="evenodd" clip-rule="evenodd" fill="#C45E3F" d="M459.075,297.461c-2.373-0.298-4.574,0.584-6.828,1.052
			c-0.857,0.178-1.438,0.895-1.137,1.873c0.352,1.129,1.186,0.507,1.86,0.403c1.546-0.234,3.094-0.468,4.64-0.7
			C457.999,299.157,459.155,298.654,459.075,297.461z"/>
		<path fill-rule="evenodd" clip-rule="evenodd" fill="#C45E3F" d="M459.075,297.461c0.08,1.193-1.076,1.696-1.465,2.628
			c0.912,0.04,1.825,0.081,2.737,0.122c0.298-0.857,1.394-1.225,1.386-2.27C460.962,297.153,459.966,297.601,459.075,297.461z"/>
		<path fill-rule="evenodd" clip-rule="evenodd" fill="#C45E3F" d="M461.733,297.941c0.008,1.045-1.088,1.412-1.386,2.27
			c0.731,0.131,1.456,0.339,2.191,0.375c1.356,0.065,1.36-1.192,1.315-1.901C463.76,297.175,462.413,298.338,461.733,297.941z"/>
		<path fill-rule="evenodd" clip-rule="evenodd" fill="#F8EFEA" d="M462.208,267.691c0.029,0.078,0.057,0.156,0.088,0.234
			c0.006-0.037,0.031-0.09,0.018-0.109c-0.035-0.043-0.09-0.069-0.135-0.103C462.178,267.713,462.208,267.691,462.208,267.691z"/>
	</g>
	<g>
		<path d="M51.038,116.558h1.776v16.8h-1.776V116.558z"/>
		<path d="M64.574,132.591c-0.32,0.287-0.716,0.508-1.188,0.659c-0.472,0.152-0.964,0.229-1.476,0.229
			c-1.184,0-2.096-0.32-2.736-0.96c-0.64-0.64-0.96-1.544-0.96-2.712v-7.633h-2.256v-1.439h2.256v-2.76h1.704v2.76h3.84v1.439h-3.84
			v7.536c0,0.753,0.188,1.324,0.564,1.717c0.375,0.392,0.916,0.588,1.62,0.588c0.352,0,0.692-0.056,1.02-0.168
			s0.612-0.272,0.852-0.48L64.574,132.591z"/>
		<path d="M68.774,115.802c0.24,0.248,0.36,0.556,0.36,0.924c0,0.191-0.028,0.396-0.084,0.611c-0.056,0.217-0.132,0.469-0.228,0.756
			l-1.032,3.313h-1.152l0.84-3.456c-0.272-0.079-0.488-0.228-0.648-0.444c-0.16-0.215-0.24-0.475-0.24-0.779
			c0-0.385,0.12-0.696,0.36-0.936c0.24-0.24,0.544-0.361,0.912-0.361S68.534,115.554,68.774,115.802z"/>
		<path d="M72.818,133.034c-0.937-0.296-1.668-0.668-2.196-1.116l0.769-1.344c0.527,0.416,1.191,0.756,1.991,1.021
			c0.8,0.264,1.632,0.396,2.496,0.396c1.152,0,2.004-0.18,2.556-0.54c0.553-0.359,0.828-0.867,0.828-1.523
			c0-0.464-0.152-0.828-0.455-1.093c-0.305-0.264-0.688-0.463-1.152-0.6c-0.465-0.136-1.08-0.268-1.848-0.396
			c-1.025-0.191-1.849-0.387-2.473-0.588c-0.624-0.199-1.156-0.539-1.596-1.02c-0.44-0.48-0.66-1.145-0.66-1.992
			c0-1.056,0.439-1.92,1.32-2.592c0.879-0.672,2.104-1.008,3.672-1.008c0.816,0,1.632,0.107,2.447,0.324
			c0.816,0.215,1.488,0.5,2.017,0.852l-0.744,1.368c-1.04-0.72-2.28-1.08-3.72-1.08c-1.088,0-1.908,0.192-2.461,0.575
			c-0.551,0.385-0.827,0.889-0.827,1.513c0,0.479,0.155,0.864,0.468,1.151c0.313,0.289,0.699,0.501,1.164,0.637
			c0.464,0.137,1.104,0.275,1.92,0.42c1.008,0.191,1.816,0.384,2.424,0.576c0.607,0.191,1.129,0.52,1.561,0.984
			c0.432,0.464,0.647,1.104,0.647,1.919c0,1.104-0.46,1.98-1.38,2.629c-0.92,0.647-2.195,0.972-3.828,0.972
			C74.734,133.478,73.754,133.331,72.818,133.034z"/>
		<path d="M101.918,120.734v17.28h-1.705v-7.032c-0.527,0.816-1.203,1.437-2.027,1.86s-1.748,0.636-2.771,0.636
			c-1.201,0-2.277-0.268-3.229-0.804c-0.952-0.536-1.7-1.292-2.244-2.269c-0.544-0.976-0.816-2.096-0.816-3.359
			c0-1.248,0.272-2.36,0.816-3.336c0.544-0.977,1.296-1.732,2.256-2.269c0.961-0.536,2.031-0.804,3.217-0.804
			c1.056,0,2.004,0.225,2.844,0.672s1.516,1.088,2.027,1.92v-2.496H101.918z M97.945,131.354c0.712-0.408,1.271-0.988,1.68-1.74
			s0.612-1.608,0.612-2.567c0-0.961-0.204-1.813-0.612-2.557s-0.968-1.324-1.68-1.74s-1.508-0.623-2.388-0.623
			c-0.896,0-1.7,0.207-2.412,0.623s-1.272,0.996-1.681,1.74c-0.407,0.744-0.611,1.596-0.611,2.557c0,0.959,0.204,1.815,0.611,2.567
			c0.408,0.752,0.969,1.332,1.681,1.74s1.516,0.612,2.412,0.612C96.437,131.967,97.233,131.762,97.945,131.354z"/>
		<path d="M118.045,120.734v12.624h-1.631v-2.304c-0.449,0.768-1.064,1.364-1.849,1.788s-1.681,0.636-2.688,0.636
			c-1.647,0-2.947-0.46-3.899-1.38s-1.429-2.269-1.429-4.044v-7.32h1.705v7.152c0,1.328,0.327,2.336,0.983,3.023
			c0.656,0.688,1.592,1.032,2.808,1.032c1.328,0,2.377-0.404,3.145-1.212s1.152-1.932,1.152-3.372v-6.624H118.045z"/>
		<path d="M122.797,117.614c-0.24-0.239-0.359-0.528-0.359-0.864c0-0.319,0.119-0.6,0.359-0.84s0.536-0.359,0.889-0.359
			c0.352,0,0.648,0.115,0.888,0.348c0.24,0.232,0.36,0.508,0.36,0.828c0,0.352-0.12,0.648-0.36,0.888
			c-0.239,0.24-0.536,0.36-0.888,0.36C123.333,117.974,123.037,117.854,122.797,117.614z M122.821,120.734h1.704v12.624h-1.704
			V120.734z"/>
		<path d="M135.926,132.591c-0.32,0.287-0.717,0.508-1.188,0.659c-0.472,0.152-0.964,0.229-1.476,0.229
			c-1.185,0-2.097-0.32-2.736-0.96c-0.641-0.64-0.96-1.544-0.96-2.712v-7.633h-2.256v-1.439h2.256v-2.76h1.704v2.76h3.84v1.439
			h-3.84v7.536c0,0.753,0.188,1.324,0.564,1.717c0.375,0.392,0.915,0.588,1.619,0.588c0.352,0,0.691-0.056,1.02-0.168
			s0.613-0.272,0.853-0.48L135.926,132.591z"/>
		<path d="M149.556,127.574h-10.56c0.096,1.313,0.601,2.372,1.512,3.181c0.912,0.808,2.063,1.212,3.456,1.212
			c0.783,0,1.504-0.141,2.16-0.42c0.656-0.28,1.225-0.692,1.704-1.236l0.96,1.104c-0.561,0.672-1.26,1.185-2.1,1.536
			c-0.84,0.353-1.765,0.528-2.772,0.528c-1.296,0-2.444-0.276-3.444-0.828s-1.779-1.315-2.34-2.292
			c-0.561-0.976-0.84-2.079-0.84-3.312s0.268-2.336,0.805-3.313c0.535-0.976,1.271-1.736,2.207-2.279
			c0.936-0.545,1.988-0.816,3.156-0.816s2.216,0.271,3.145,0.816c0.928,0.543,1.655,1.299,2.184,2.268
			c0.527,0.968,0.792,2.076,0.792,3.324L149.556,127.574z M140.4,123.266c-0.824,0.776-1.291,1.788-1.403,3.036h8.952
			c-0.112-1.248-0.58-2.26-1.404-3.036s-1.852-1.164-3.084-1.164C142.244,122.102,141.224,122.49,140.4,123.266z"/>
		<path fill="#69CE28" d="M171.277,127.959h-9.769c0.176,0.8,0.592,1.432,1.248,1.896c0.655,0.464,1.472,0.696,2.448,0.696
			c0.672,0,1.268-0.101,1.787-0.301c0.52-0.199,1.004-0.516,1.453-0.947l1.991,2.159c-1.216,1.393-2.992,2.089-5.327,2.089
			c-1.457,0-2.745-0.284-3.865-0.853c-1.119-0.567-1.983-1.355-2.592-2.364c-0.607-1.008-0.912-2.151-0.912-3.432
			c0-1.264,0.301-2.404,0.9-3.42s1.424-1.809,2.473-2.376c1.047-0.567,2.219-0.853,3.516-0.853c1.264,0,2.408,0.273,3.432,0.816
			c1.023,0.545,1.828,1.324,2.412,2.34c0.584,1.017,0.876,2.196,0.876,3.54C171.348,126.998,171.324,127.334,171.277,127.959z
			 M162.516,123.806c-0.576,0.48-0.929,1.137-1.056,1.968h6.359c-0.128-0.815-0.479-1.468-1.056-1.956s-1.28-0.732-2.112-0.732
			C163.804,123.086,163.093,123.326,162.516,123.806z"/>
		<path fill="#69CE28" d="M183.301,121.682c1.072,0.952,1.607,2.388,1.607,4.308v7.368h-3.504v-1.608
			c-0.703,1.2-2.016,1.801-3.936,1.801c-0.992,0-1.852-0.168-2.58-0.504c-0.729-0.337-1.283-0.801-1.668-1.393
			c-0.384-0.592-0.576-1.264-0.576-2.016c0-1.2,0.452-2.145,1.356-2.832c0.903-0.688,2.3-1.032,4.188-1.032h2.976
			c0-0.815-0.249-1.444-0.744-1.884c-0.496-0.439-1.24-0.66-2.231-0.66c-0.689,0-1.365,0.107-2.029,0.324
			c-0.664,0.216-1.228,0.508-1.691,0.875l-1.344-2.615c0.703-0.496,1.548-0.88,2.531-1.152c0.984-0.271,1.996-0.408,3.037-0.408
			C180.693,120.254,182.228,120.73,183.301,121.682z M180.109,130.586c0.495-0.296,0.848-0.731,1.056-1.308v-1.319h-2.568
			c-1.536,0-2.304,0.504-2.304,1.512c0,0.479,0.188,0.86,0.564,1.14c0.375,0.28,0.891,0.42,1.547,0.42
			C179.045,131.03,179.613,130.883,180.109,130.586z"/>
		<path fill="#69CE28" d="M189.492,133.154c-1.023-0.264-1.84-0.596-2.447-0.996l1.248-2.688c0.576,0.368,1.271,0.668,2.088,0.899
			c0.815,0.232,1.615,0.349,2.399,0.349c1.584,0,2.376-0.393,2.376-1.177c0-0.368-0.216-0.632-0.648-0.792
			c-0.432-0.159-1.096-0.295-1.991-0.408c-1.056-0.159-1.929-0.344-2.616-0.551c-0.688-0.209-1.284-0.576-1.788-1.104
			s-0.756-1.28-0.756-2.257c0-0.815,0.235-1.539,0.708-2.172c0.472-0.631,1.16-1.123,2.064-1.476
			c0.903-0.352,1.971-0.528,3.203-0.528c0.912,0,1.82,0.101,2.725,0.301c0.903,0.2,1.652,0.477,2.244,0.828l-1.248,2.664
			c-1.137-0.641-2.377-0.961-3.721-0.961c-0.8,0-1.4,0.113-1.8,0.336c-0.399,0.225-0.6,0.513-0.6,0.865
			c0,0.399,0.216,0.68,0.647,0.84c0.433,0.16,1.12,0.312,2.064,0.455c1.057,0.177,1.92,0.364,2.592,0.564s1.256,0.564,1.752,1.092
			c0.496,0.528,0.744,1.264,0.744,2.208c0,0.801-0.24,1.512-0.72,2.136c-0.48,0.624-1.181,1.108-2.101,1.452
			s-2.012,0.517-3.275,0.517C191.564,133.551,190.515,133.418,189.492,133.154z"/>
		<path fill="#69CE28" d="M213.612,120.446l-5.832,13.704c-0.592,1.488-1.324,2.536-2.196,3.144
			c-0.872,0.608-1.924,0.912-3.156,0.912c-0.672,0-1.336-0.104-1.991-0.312c-0.656-0.208-1.192-0.496-1.608-0.864l1.368-2.664
			c0.288,0.256,0.62,0.456,0.996,0.601c0.376,0.144,0.747,0.216,1.116,0.216c0.512,0,0.928-0.124,1.248-0.372
			s0.607-0.66,0.863-1.236l0.049-0.12l-5.592-13.008h3.863l3.624,8.761l3.647-8.761H213.612z"/>
		<path d="M228.732,132.591c-0.32,0.287-0.717,0.508-1.188,0.659c-0.472,0.152-0.964,0.229-1.476,0.229
			c-1.185,0-2.097-0.32-2.736-0.96c-0.641-0.64-0.96-1.544-0.96-2.712v-7.633h-2.256v-1.439h2.256v-2.76h1.704v2.76h3.84v1.439
			h-3.84v7.536c0,0.753,0.188,1.324,0.564,1.717c0.375,0.392,0.915,0.588,1.619,0.588c0.352,0,0.691-0.056,1.02-0.168
			s0.613-0.272,0.853-0.48L228.732,132.591z"/>
		<path d="M233.244,132.65c-0.977-0.552-1.744-1.315-2.305-2.292c-0.561-0.976-0.84-2.079-0.84-3.312s0.279-2.336,0.84-3.313
			c0.561-0.976,1.328-1.736,2.305-2.279c0.975-0.545,2.071-0.816,3.287-0.816c1.217,0,2.313,0.271,3.289,0.816
			c0.975,0.543,1.739,1.304,2.291,2.279c0.553,0.977,0.828,2.08,0.828,3.313s-0.275,2.336-0.828,3.312
			c-0.552,0.977-1.316,1.74-2.291,2.292c-0.977,0.552-2.072,0.828-3.289,0.828C235.315,133.478,234.219,133.202,233.244,132.65z
			 M238.943,131.354c0.712-0.408,1.268-0.988,1.668-1.74s0.6-1.608,0.6-2.567c0-0.961-0.199-1.816-0.6-2.568
			s-0.956-1.332-1.668-1.74s-1.516-0.611-2.412-0.611s-1.699,0.203-2.412,0.611c-0.711,0.408-1.271,0.988-1.68,1.74
			s-0.611,1.607-0.611,2.568c0,0.959,0.203,1.815,0.611,2.567s0.969,1.332,1.68,1.74c0.713,0.408,1.516,0.612,2.412,0.612
			S238.231,131.762,238.943,131.354z"/>
		<path d="M260.915,121.875c0.88,0.824,1.319,2.043,1.319,3.659v7.824h-1.631v-1.968c-0.385,0.656-0.948,1.168-1.692,1.536
			s-1.628,0.552-2.651,0.552c-1.408,0-2.529-0.336-3.361-1.008s-1.248-1.561-1.248-2.664c0-1.072,0.389-1.936,1.164-2.592
			c0.776-0.656,2.013-0.984,3.709-0.984h4.008v-0.768c0-1.088-0.305-1.916-0.912-2.484c-0.608-0.568-1.496-0.852-2.664-0.852
			c-0.801,0-1.568,0.131-2.305,0.396c-0.735,0.265-1.367,0.628-1.896,1.092l-0.769-1.272c0.641-0.543,1.408-0.963,2.305-1.26
			c0.896-0.295,1.84-0.443,2.832-0.443C258.771,120.638,260.035,121.051,260.915,121.875z M258.995,131.474
			c0.688-0.44,1.2-1.076,1.536-1.908v-2.064h-3.96c-2.16,0-3.24,0.753-3.24,2.257c0,0.735,0.28,1.315,0.84,1.739
			c0.56,0.425,1.345,0.637,2.353,0.637C257.482,132.135,258.306,131.915,258.995,131.474z"/>
		<path d="M268.799,132.662c-0.984-0.544-1.756-1.308-2.316-2.292c-0.56-0.983-0.84-2.091-0.84-3.323s0.28-2.336,0.84-3.313
			c0.561-0.976,1.332-1.736,2.316-2.279c0.984-0.545,2.1-0.816,3.348-0.816c1.088,0,2.061,0.212,2.916,0.636
			c0.856,0.425,1.532,1.044,2.028,1.86l-1.272,0.863c-0.416-0.623-0.943-1.092-1.584-1.404c-0.64-0.312-1.336-0.467-2.088-0.467
			c-0.912,0-1.731,0.203-2.459,0.611c-0.729,0.408-1.297,0.988-1.705,1.74c-0.407,0.752-0.611,1.607-0.611,2.568
			c0,0.976,0.204,1.836,0.611,2.579c0.408,0.744,0.977,1.32,1.705,1.729c0.728,0.408,1.547,0.612,2.459,0.612
			c0.752,0,1.448-0.152,2.088-0.456c0.641-0.304,1.168-0.769,1.584-1.393l1.272,0.864c-0.496,0.816-1.176,1.437-2.04,1.86
			c-0.863,0.424-1.832,0.636-2.904,0.636C270.898,133.478,269.783,133.206,268.799,132.662z"/>
		<path d="M282.095,132.662c-0.984-0.544-1.756-1.308-2.316-2.292c-0.561-0.983-0.84-2.091-0.84-3.323s0.279-2.336,0.84-3.313
			c0.561-0.976,1.332-1.736,2.316-2.279c0.984-0.545,2.1-0.816,3.348-0.816c1.088,0,2.061,0.212,2.916,0.636
			c0.855,0.425,1.531,1.044,2.027,1.86l-1.271,0.863c-0.416-0.623-0.943-1.092-1.584-1.404c-0.641-0.312-1.336-0.467-2.088-0.467
			c-0.912,0-1.732,0.203-2.46,0.611s-1.296,0.988-1.704,1.74s-0.611,1.607-0.611,2.568c0,0.976,0.203,1.836,0.611,2.579
			c0.408,0.744,0.977,1.32,1.704,1.729s1.548,0.612,2.46,0.612c0.752,0,1.447-0.152,2.088-0.456s1.168-0.769,1.584-1.393
			l1.271,0.864c-0.496,0.816-1.176,1.437-2.039,1.86c-0.864,0.424-1.832,0.636-2.904,0.636
			C284.195,133.478,283.08,133.206,282.095,132.662z"/>
		<path d="M304.5,127.574h-10.561c0.096,1.313,0.6,2.372,1.512,3.181c0.912,0.808,2.064,1.212,3.456,1.212
			c0.784,0,1.504-0.141,2.16-0.42c0.655-0.28,1.224-0.692,1.704-1.236l0.96,1.104c-0.561,0.672-1.261,1.185-2.101,1.536
			c-0.84,0.353-1.764,0.528-2.771,0.528c-1.296,0-2.444-0.276-3.443-0.828c-1.001-0.552-1.781-1.315-2.341-2.292
			c-0.56-0.976-0.84-2.079-0.84-3.312s0.268-2.336,0.804-3.313c0.536-0.976,1.272-1.736,2.209-2.279
			c0.936-0.545,1.987-0.816,3.155-0.816s2.216,0.271,3.144,0.816c0.928,0.543,1.656,1.299,2.185,2.268
			c0.528,0.968,0.792,2.076,0.792,3.324L304.5,127.574z M295.344,123.266c-0.824,0.776-1.293,1.788-1.404,3.036h8.951
			c-0.111-1.248-0.58-2.26-1.403-3.036c-0.824-0.776-1.853-1.164-3.084-1.164C297.187,122.102,296.167,122.49,295.344,123.266z"/>
		<path d="M308.447,133.034c-0.937-0.296-1.668-0.668-2.196-1.116l0.769-1.344c0.527,0.416,1.191,0.756,1.991,1.021
			c0.8,0.264,1.632,0.396,2.496,0.396c1.152,0,2.004-0.18,2.556-0.54c0.553-0.359,0.828-0.867,0.828-1.523
			c0-0.464-0.152-0.828-0.455-1.093c-0.305-0.264-0.688-0.463-1.152-0.6c-0.465-0.136-1.08-0.268-1.848-0.396
			c-1.025-0.191-1.849-0.387-2.473-0.588c-0.624-0.199-1.156-0.539-1.596-1.02c-0.44-0.48-0.66-1.145-0.66-1.992
			c0-1.056,0.439-1.92,1.32-2.592c0.879-0.672,2.104-1.008,3.672-1.008c0.816,0,1.632,0.107,2.447,0.324
			c0.816,0.215,1.488,0.5,2.017,0.852l-0.744,1.368c-1.04-0.72-2.28-1.08-3.72-1.08c-1.088,0-1.908,0.192-2.461,0.575
			c-0.551,0.385-0.827,0.889-0.827,1.513c0,0.479,0.155,0.864,0.468,1.151c0.313,0.289,0.699,0.501,1.164,0.637
			c0.464,0.137,1.104,0.275,1.92,0.42c1.008,0.191,1.816,0.384,2.424,0.576c0.607,0.191,1.129,0.52,1.561,0.984
			c0.432,0.464,0.647,1.104,0.647,1.919c0,1.104-0.46,1.98-1.38,2.629c-0.92,0.647-2.195,0.972-3.828,0.972
			C310.363,133.478,309.383,133.331,308.447,133.034z"/>
		<path d="M320.182,133.034c-0.937-0.296-1.668-0.668-2.196-1.116l0.769-1.344c0.528,0.416,1.192,0.756,1.991,1.021
			c0.801,0.264,1.633,0.396,2.496,0.396c1.152,0,2.004-0.18,2.557-0.54c0.552-0.359,0.828-0.867,0.828-1.523
			c0-0.464-0.152-0.828-0.456-1.093c-0.304-0.264-0.688-0.463-1.152-0.6c-0.464-0.136-1.079-0.268-1.848-0.396
			c-1.024-0.191-1.849-0.387-2.472-0.588c-0.625-0.199-1.156-0.539-1.596-1.02c-0.441-0.48-0.66-1.145-0.66-1.992
			c0-1.056,0.439-1.92,1.319-2.592s2.104-1.008,3.672-1.008c0.816,0,1.632,0.107,2.448,0.324c0.816,0.215,1.488,0.5,2.016,0.852
			l-0.744,1.368c-1.039-0.72-2.279-1.08-3.72-1.08c-1.088,0-1.907,0.192-2.46,0.575c-0.552,0.385-0.828,0.889-0.828,1.513
			c0,0.479,0.156,0.864,0.469,1.151c0.312,0.289,0.699,0.501,1.164,0.637c0.463,0.137,1.104,0.275,1.92,0.42
			c1.008,0.191,1.815,0.384,2.424,0.576c0.607,0.191,1.128,0.52,1.56,0.984c0.433,0.464,0.647,1.104,0.647,1.919
			c0,1.104-0.459,1.98-1.379,2.629c-0.92,0.647-2.196,0.972-3.828,0.972C322.098,133.478,321.119,133.331,320.182,133.034z"/>
		<path d="M347.974,122.018c0.936,0.92,1.404,2.26,1.404,4.021v7.319h-1.705v-7.151c0-1.313-0.328-2.313-0.983-3
			c-0.656-0.688-1.593-1.033-2.808-1.033c-1.361,0-2.437,0.404-3.229,1.213c-0.792,0.808-1.188,1.924-1.188,3.348v6.624h-1.705
			v-17.808h1.705v7.392c0.463-0.735,1.104-1.304,1.92-1.704c0.815-0.399,1.752-0.6,2.808-0.6
			C345.778,120.638,347.038,121.098,347.974,122.018z"/>
		<path d="M355.929,132.65c-0.977-0.552-1.744-1.315-2.305-2.292c-0.56-0.976-0.84-2.079-0.84-3.312s0.28-2.336,0.84-3.313
			c0.561-0.976,1.328-1.736,2.305-2.279c0.976-0.545,2.072-0.816,3.288-0.816s2.312,0.271,3.288,0.816
			c0.976,0.543,1.74,1.304,2.292,2.279c0.552,0.977,0.827,2.08,0.827,3.313s-0.275,2.336-0.827,3.312
			c-0.552,0.977-1.316,1.74-2.292,2.292c-0.977,0.552-2.072,0.828-3.288,0.828S356.905,133.202,355.929,132.65z M361.63,131.354
			c0.712-0.408,1.268-0.988,1.668-1.74c0.399-0.752,0.6-1.608,0.6-2.567c0-0.961-0.2-1.816-0.6-2.568
			c-0.4-0.752-0.956-1.332-1.668-1.74s-1.517-0.611-2.412-0.611c-0.896,0-1.7,0.203-2.412,0.611s-1.272,0.988-1.681,1.74
			c-0.407,0.752-0.611,1.607-0.611,2.568c0,0.959,0.204,1.815,0.611,2.567c0.408,0.752,0.969,1.332,1.681,1.74
			s1.516,0.612,2.412,0.612C360.113,131.967,360.918,131.762,361.63,131.354z"/>
		<path d="M380.481,120.734v12.624h-1.632v-2.304c-0.448,0.768-1.064,1.364-1.848,1.788c-0.784,0.424-1.681,0.636-2.688,0.636
			c-1.647,0-2.948-0.46-3.899-1.38c-0.953-0.92-1.429-2.269-1.429-4.044v-7.32h1.704v7.152c0,1.328,0.328,2.336,0.984,3.023
			c0.656,0.688,1.592,1.032,2.808,1.032c1.328,0,2.376-0.404,3.145-1.212c0.768-0.808,1.151-1.932,1.151-3.372v-6.624H380.481z"/>
		<path d="M385.702,133.034c-0.937-0.296-1.668-0.668-2.196-1.116l0.768-1.344c0.528,0.416,1.192,0.756,1.992,1.021
			c0.8,0.264,1.632,0.396,2.496,0.396c1.152,0,2.004-0.18,2.556-0.54c0.553-0.359,0.828-0.867,0.828-1.523
			c0-0.464-0.152-0.828-0.456-1.093c-0.304-0.264-0.688-0.463-1.151-0.6c-0.465-0.136-1.08-0.268-1.849-0.396
			c-1.023-0.191-1.848-0.387-2.472-0.588c-0.624-0.199-1.156-0.539-1.596-1.02c-0.44-0.48-0.66-1.145-0.66-1.992
			c0-1.056,0.439-1.92,1.32-2.592c0.879-0.672,2.104-1.008,3.672-1.008c0.815,0,1.632,0.107,2.447,0.324
			c0.816,0.215,1.488,0.5,2.017,0.852l-0.744,1.368c-1.04-0.72-2.28-1.08-3.72-1.08c-1.089,0-1.908,0.192-2.46,0.575
			c-0.553,0.385-0.828,0.889-0.828,1.513c0,0.479,0.156,0.864,0.468,1.151c0.313,0.289,0.7,0.501,1.164,0.637
			c0.464,0.137,1.104,0.275,1.92,0.42c1.008,0.191,1.815,0.384,2.424,0.576c0.608,0.191,1.128,0.52,1.561,0.984
			c0.432,0.464,0.647,1.104,0.647,1.919c0,1.104-0.46,1.98-1.38,2.629c-0.92,0.647-2.196,0.972-3.828,0.972
			C387.618,133.478,386.637,133.331,385.702,133.034z"/>
		<path d="M407.986,127.574h-10.561c0.097,1.313,0.601,2.372,1.513,3.181c0.912,0.808,2.063,1.212,3.456,1.212
			c0.783,0,1.503-0.141,2.159-0.42c0.656-0.28,1.225-0.692,1.704-1.236l0.96,1.104c-0.56,0.672-1.26,1.185-2.1,1.536
			c-0.84,0.353-1.764,0.528-2.772,0.528c-1.296,0-2.443-0.276-3.443-0.828s-1.78-1.315-2.34-2.292
			c-0.561-0.976-0.841-2.079-0.841-3.312s0.269-2.336,0.805-3.313c0.536-0.976,1.271-1.736,2.208-2.279
			c0.936-0.545,1.987-0.816,3.156-0.816c1.167,0,2.216,0.271,3.144,0.816c0.928,0.543,1.656,1.299,2.184,2.268
			c0.528,0.968,0.792,2.076,0.792,3.324L407.986,127.574z M398.83,123.266c-0.824,0.776-1.292,1.788-1.404,3.036h8.952
			c-0.112-1.248-0.58-2.26-1.403-3.036c-0.824-0.776-1.853-1.164-3.084-1.164C400.674,122.102,399.654,122.49,398.83,123.266z"/>
		<path d="M421.198,121.287c0.792-0.433,1.772-0.648,2.94-0.648v1.656l-0.408-0.024c-1.328,0-2.368,0.407-3.12,1.224
			s-1.128,1.961-1.128,3.432v6.433h-1.704v-12.624h1.632v2.473C419.81,122.358,420.406,121.719,421.198,121.287z"/>
		<path d="M438.778,120.734v12.624h-1.632v-2.304c-0.448,0.768-1.064,1.364-1.848,1.788c-0.784,0.424-1.681,0.636-2.688,0.636
			c-1.648,0-2.948-0.46-3.9-1.38s-1.428-2.269-1.428-4.044v-7.32h1.704v7.152c0,1.328,0.328,2.336,0.984,3.023
			c0.655,0.688,1.592,1.032,2.808,1.032c1.328,0,2.376-0.404,3.145-1.212c0.768-0.808,1.151-1.932,1.151-3.372v-6.624H438.778z"/>
		<path d="M443.553,115.551h1.704v17.808h-1.704V115.551z"/>
		<path d="M461.002,127.574h-10.561c0.097,1.313,0.601,2.372,1.513,3.181c0.912,0.808,2.063,1.212,3.456,1.212
			c0.783,0,1.503-0.141,2.159-0.42c0.656-0.28,1.225-0.692,1.704-1.236l0.96,1.104c-0.56,0.672-1.26,1.185-2.1,1.536
			c-0.84,0.353-1.764,0.528-2.772,0.528c-1.296,0-2.443-0.276-3.443-0.828s-1.78-1.315-2.34-2.292
			c-0.561-0.976-0.841-2.079-0.841-3.312s0.269-2.336,0.805-3.313c0.536-0.976,1.271-1.736,2.208-2.279
			c0.936-0.545,1.987-0.816,3.156-0.816c1.167,0,2.216,0.271,3.144,0.816c0.928,0.543,1.656,1.299,2.184,2.268
			c0.528,0.968,0.792,2.076,0.792,3.324L461.002,127.574z M451.845,123.266c-0.824,0.776-1.292,1.788-1.404,3.036h8.952
			c-0.112-1.248-0.58-2.26-1.403-3.036c-0.824-0.776-1.853-1.164-3.084-1.164C453.689,122.102,452.67,122.49,451.845,123.266z"/>
		<path d="M50.655,146.415c-0.24-0.24-0.36-0.528-0.36-0.864c0-0.319,0.12-0.6,0.36-0.84c0.24-0.24,0.536-0.359,0.888-0.359
			c0.352,0,0.648,0.116,0.888,0.348c0.24,0.232,0.36,0.508,0.36,0.828c0,0.352-0.12,0.647-0.36,0.888
			c-0.24,0.24-0.536,0.36-0.888,0.36C51.19,146.775,50.894,146.655,50.655,146.415z M50.678,149.535h1.704v12.624h-1.704V149.535z"
			/>
		<path d="M67.346,150.819c0.936,0.92,1.404,2.26,1.404,4.02v7.32h-1.704v-7.152c0-1.312-0.328-2.312-0.984-3
			c-0.656-0.688-1.592-1.031-2.808-1.031c-1.36,0-2.436,0.404-3.228,1.212s-1.188,1.924-1.188,3.348v6.624h-1.704v-12.624h1.632
			v2.328c0.464-0.769,1.108-1.364,1.932-1.788c0.824-0.424,1.78-0.636,2.868-0.636C65.151,149.439,66.41,149.899,67.346,150.819z"/>
		<path d="M75.89,146.271c-0.377,0.399-0.564,0.992-0.564,1.775v1.488h3.889v1.44h-3.84v11.184H73.67v-11.184h-2.256v-1.44h2.256
			v-1.56c0-1.152,0.332-2.064,0.996-2.736s1.604-1.008,2.82-1.008c0.48,0,0.943,0.068,1.393,0.204
			c0.447,0.136,0.823,0.332,1.127,0.588l-0.576,1.271c-0.496-0.416-1.119-0.624-1.871-0.624
			C76.822,145.671,76.265,145.871,75.89,146.271z"/>
		<path d="M83.174,161.451c-0.976-0.552-1.744-1.315-2.304-2.292c-0.56-0.976-0.84-2.08-0.84-3.312c0-1.232,0.28-2.336,0.84-3.313
			c0.56-0.976,1.328-1.736,2.304-2.28c0.977-0.543,2.072-0.815,3.289-0.815c1.215,0,2.311,0.272,3.287,0.815
			c0.977,0.544,1.74,1.305,2.293,2.28c0.551,0.977,0.827,2.08,0.827,3.313c0,1.231-0.276,2.336-0.827,3.312
			c-0.553,0.977-1.316,1.74-2.293,2.292s-2.072,0.828-3.287,0.828C85.246,162.279,84.15,162.003,83.174,161.451z M88.875,160.155
			c0.711-0.408,1.268-0.988,1.668-1.74c0.398-0.752,0.6-1.607,0.6-2.567c0-0.961-0.201-1.816-0.6-2.568
			c-0.4-0.752-0.957-1.332-1.668-1.74c-0.713-0.408-1.518-0.612-2.412-0.612c-0.896,0-1.701,0.204-2.412,0.612
			c-0.713,0.408-1.272,0.988-1.681,1.74c-0.407,0.752-0.612,1.607-0.612,2.568c0,0.96,0.205,1.815,0.612,2.567
			c0.408,0.752,0.968,1.332,1.681,1.74c0.711,0.408,1.516,0.612,2.412,0.612C87.357,160.767,88.162,160.563,88.875,160.155z"/>
		<path d="M99.769,150.087c0.793-0.432,1.772-0.647,2.94-0.647v1.655l-0.407-0.023c-1.329,0-2.369,0.408-3.121,1.224
			c-0.752,0.816-1.127,1.96-1.127,3.433v6.432h-1.705v-12.624h1.633v2.472C98.382,151.159,98.978,150.519,99.769,150.087z"/>
		<path d="M125.258,150.807c0.904,0.911,1.355,2.256,1.355,4.031v7.32h-1.703v-7.152c0-1.312-0.316-2.312-0.948-3
			c-0.632-0.688-1.524-1.031-2.677-1.031c-1.312,0-2.344,0.404-3.096,1.212s-1.128,1.924-1.128,3.348v6.624h-1.704v-7.152
			c0-1.312-0.316-2.312-0.947-3c-0.633-0.688-1.533-1.031-2.7-1.031c-1.296,0-2.324,0.404-3.084,1.212
			c-0.761,0.808-1.14,1.924-1.14,3.348v6.624h-1.705v-12.624h1.633v2.304c0.447-0.768,1.071-1.359,1.871-1.775
			c0.801-0.416,1.721-0.624,2.761-0.624c1.056,0,1.972,0.224,2.748,0.672s1.356,1.112,1.739,1.992
			c0.465-0.832,1.133-1.484,2.004-1.956c0.873-0.472,1.869-0.708,2.988-0.708C123.109,149.439,124.353,149.895,125.258,150.807z"/>
		<path d="M139.453,150.675c0.881,0.824,1.32,2.045,1.32,3.66v7.824h-1.632v-1.968c-0.384,0.656-0.948,1.168-1.692,1.536
			s-1.628,0.552-2.651,0.552c-1.408,0-2.528-0.336-3.36-1.008s-1.248-1.561-1.248-2.664c0-1.072,0.388-1.936,1.164-2.592
			c0.775-0.656,2.012-0.984,3.708-0.984h4.009v-0.769c0-1.087-0.305-1.915-0.912-2.483c-0.609-0.567-1.496-0.853-2.664-0.853
			c-0.801,0-1.568,0.133-2.305,0.396s-1.367,0.628-1.896,1.092l-0.768-1.271c0.641-0.544,1.408-0.964,2.305-1.261
			c0.896-0.296,1.84-0.443,2.832-0.443C137.309,149.439,138.574,149.851,139.453,150.675z M137.533,160.275
			c0.688-0.44,1.2-1.076,1.537-1.908v-2.064h-3.961c-2.16,0-3.24,0.753-3.24,2.257c0,0.735,0.28,1.315,0.84,1.739
			c0.561,0.425,1.345,0.637,2.353,0.637C136.021,160.935,136.845,160.716,137.533,160.275z"/>
		<path d="M152.053,161.391c-0.32,0.287-0.716,0.508-1.188,0.659c-0.472,0.152-0.963,0.229-1.476,0.229
			c-1.185,0-2.097-0.32-2.735-0.96c-0.641-0.64-0.961-1.544-0.961-2.712v-7.632h-2.256v-1.44h2.256v-2.76h1.705v2.76h3.84v1.44
			h-3.84v7.535c0,0.753,0.188,1.324,0.563,1.717c0.376,0.392,0.915,0.588,1.62,0.588c0.352,0,0.691-0.056,1.02-0.168
			s0.612-0.272,0.852-0.48L152.053,161.391z"/>
		<path d="M155.125,146.415c-0.24-0.24-0.359-0.528-0.359-0.864c0-0.319,0.119-0.6,0.359-0.84s0.536-0.359,0.889-0.359
			c0.352,0,0.648,0.116,0.888,0.348c0.24,0.232,0.36,0.508,0.36,0.828c0,0.352-0.12,0.647-0.36,0.888
			c-0.239,0.24-0.536,0.36-0.888,0.36C155.661,146.775,155.365,146.655,155.125,146.415z M155.149,149.535h1.704v12.624h-1.704
			V149.535z"/>
		<path d="M163.477,161.451c-0.976-0.552-1.744-1.315-2.304-2.292c-0.561-0.976-0.84-2.08-0.84-3.312
			c0-1.232,0.279-2.336,0.84-3.313c0.56-0.976,1.328-1.736,2.304-2.28c0.976-0.543,2.071-0.815,3.288-0.815
			c1.216,0,2.312,0.272,3.288,0.815c0.976,0.544,1.739,1.305,2.292,2.28c0.552,0.977,0.828,2.08,0.828,3.313
			c0,1.231-0.276,2.336-0.828,3.312c-0.553,0.977-1.316,1.74-2.292,2.292c-0.977,0.552-2.072,0.828-3.288,0.828
			C165.549,162.279,164.453,162.003,163.477,161.451z M169.177,160.155c0.711-0.408,1.268-0.988,1.668-1.74
			c0.399-0.752,0.6-1.607,0.6-2.567c0-0.961-0.2-1.816-0.6-2.568c-0.4-0.752-0.957-1.332-1.668-1.74
			c-0.713-0.408-1.517-0.612-2.412-0.612c-0.896,0-1.7,0.204-2.412,0.612s-1.271,0.988-1.68,1.74s-0.612,1.607-0.612,2.568
			c0,0.96,0.204,1.815,0.612,2.567s0.968,1.332,1.68,1.74s1.516,0.612,2.412,0.612C167.661,160.767,168.465,160.563,169.177,160.155
			z"/>
		<path d="M186.865,150.819c0.936,0.92,1.404,2.26,1.404,4.02v7.32h-1.704v-7.152c0-1.312-0.328-2.312-0.983-3
			c-0.656-0.688-1.593-1.031-2.809-1.031c-1.36,0-2.436,0.404-3.229,1.212c-0.791,0.808-1.188,1.924-1.188,3.348v6.624h-1.704
			v-12.624h1.632v2.328c0.464-0.769,1.107-1.364,1.932-1.788s1.78-0.636,2.869-0.636
			C184.67,149.439,185.929,149.899,186.865,150.819z"/>
		<path d="M201.697,146.271c-0.377,0.399-0.564,0.992-0.564,1.775v1.488h3.889v1.44h-3.84v11.184h-1.705v-11.184h-2.256v-1.44h2.256
			v-1.56c0-1.152,0.332-2.064,0.996-2.736s1.604-1.008,2.82-1.008c0.48,0,0.943,0.068,1.393,0.204
			c0.447,0.136,0.823,0.332,1.127,0.588l-0.576,1.271c-0.496-0.416-1.119-0.624-1.871-0.624
			C202.629,145.671,202.072,145.871,201.697,146.271z"/>
		<path d="M212.664,150.087c0.793-0.432,1.772-0.647,2.94-0.647v1.655l-0.407-0.023c-1.329,0-2.369,0.408-3.121,1.224
			c-0.752,0.816-1.127,1.96-1.127,3.433v6.432h-1.705v-12.624h1.633v2.472C211.276,151.159,211.873,150.519,212.664,150.087z"/>
		<path d="M220.428,161.451c-0.976-0.552-1.744-1.315-2.304-2.292c-0.561-0.976-0.84-2.08-0.84-3.312
			c0-1.232,0.279-2.336,0.84-3.313c0.56-0.976,1.328-1.736,2.304-2.28c0.976-0.543,2.071-0.815,3.288-0.815
			c1.216,0,2.312,0.272,3.288,0.815c0.976,0.544,1.739,1.305,2.292,2.28c0.552,0.977,0.828,2.08,0.828,3.313
			c0,1.231-0.276,2.336-0.828,3.312c-0.553,0.977-1.316,1.74-2.292,2.292c-0.977,0.552-2.072,0.828-3.288,0.828
			C222.5,162.279,221.404,162.003,220.428,161.451z M226.129,160.155c0.711-0.408,1.268-0.988,1.668-1.74
			c0.399-0.752,0.6-1.607,0.6-2.567c0-0.961-0.2-1.816-0.6-2.568c-0.4-0.752-0.957-1.332-1.668-1.74
			c-0.713-0.408-1.517-0.612-2.412-0.612c-0.896,0-1.7,0.204-2.412,0.612s-1.271,0.988-1.68,1.74s-0.612,1.607-0.612,2.568
			c0,0.96,0.204,1.815,0.612,2.567s0.968,1.332,1.68,1.74s1.516,0.612,2.412,0.612C224.612,160.767,225.416,160.563,226.129,160.155
			z"/>
		<path d="M253.08,150.807c0.904,0.911,1.356,2.256,1.356,4.031v7.32h-1.704v-7.152c0-1.312-0.316-2.312-0.947-3
			c-0.633-0.688-1.524-1.031-2.677-1.031c-1.312,0-2.345,0.404-3.096,1.212c-0.753,0.808-1.128,1.924-1.128,3.348v6.624h-1.704
			v-7.152c0-1.312-0.316-2.312-0.948-3c-0.633-0.688-1.532-1.031-2.699-1.031c-1.297,0-2.324,0.404-3.084,1.212
			c-0.761,0.808-1.141,1.924-1.141,3.348v6.624h-1.704v-12.624h1.632v2.304c0.447-0.768,1.072-1.359,1.872-1.775
			s1.72-0.624,2.761-0.624c1.055,0,1.971,0.224,2.748,0.672c0.775,0.448,1.355,1.112,1.739,1.992
			c0.464-0.832,1.132-1.484,2.004-1.956s1.868-0.708,2.988-0.708C250.932,149.439,252.176,149.895,253.08,150.807z"/>
		<path d="M272.004,161.391c-0.32,0.287-0.717,0.508-1.188,0.659c-0.472,0.152-0.964,0.229-1.476,0.229
			c-1.185,0-2.097-0.32-2.736-0.96c-0.641-0.64-0.96-1.544-0.96-2.712v-7.632h-2.256v-1.44h2.256v-2.76h1.704v2.76h3.84v1.44h-3.84
			v7.535c0,0.753,0.188,1.324,0.564,1.717c0.375,0.392,0.915,0.588,1.619,0.588c0.352,0,0.691-0.056,1.02-0.168
			s0.613-0.272,0.853-0.48L272.004,161.391z"/>
		<path d="M285.311,150.819c0.937,0.92,1.404,2.26,1.404,4.02v7.32h-1.704v-7.152c0-1.312-0.328-2.312-0.984-3
			c-0.656-0.688-1.592-1.031-2.808-1.031c-1.36,0-2.437,0.404-3.228,1.212c-0.793,0.808-1.188,1.924-1.188,3.348v6.624h-1.704
			v-17.808h1.704v7.392c0.464-0.735,1.104-1.304,1.92-1.704c0.815-0.399,1.752-0.6,2.808-0.6
			C283.115,149.439,284.375,149.899,285.311,150.819z"/>
		<path d="M302.386,156.375h-10.56c0.096,1.313,0.601,2.372,1.512,3.181c0.912,0.808,2.063,1.212,3.456,1.212
			c0.783,0,1.504-0.141,2.16-0.42c0.656-0.28,1.225-0.692,1.704-1.236l0.96,1.104c-0.561,0.672-1.26,1.185-2.1,1.536
			c-0.84,0.353-1.765,0.528-2.772,0.528c-1.296,0-2.444-0.276-3.444-0.828s-1.779-1.315-2.34-2.292
			c-0.561-0.976-0.84-2.08-0.84-3.312c0-1.232,0.268-2.336,0.805-3.313c0.535-0.976,1.271-1.736,2.207-2.28
			c0.936-0.543,1.988-0.815,3.156-0.815s2.216,0.272,3.145,0.815c0.928,0.544,1.655,1.301,2.184,2.269
			c0.527,0.968,0.792,2.076,0.792,3.324L302.386,156.375z M293.23,152.067c-0.824,0.776-1.291,1.788-1.403,3.036h8.952
			c-0.112-1.248-0.58-2.26-1.404-3.036s-1.852-1.164-3.084-1.164C295.074,150.903,294.054,151.291,293.23,152.067z"/>
		<path d="M322.39,150.819c0.936,0.92,1.404,2.26,1.404,4.02v7.32h-1.705v-7.152c0-1.312-0.328-2.312-0.983-3
			c-0.656-0.688-1.593-1.031-2.808-1.031c-1.361,0-2.437,0.404-3.229,1.212s-1.188,1.924-1.188,3.348v6.624h-1.705v-17.808h1.705
			v7.392c0.463-0.735,1.104-1.304,1.92-1.704c0.815-0.399,1.752-0.6,2.808-0.6C320.194,149.439,321.454,149.899,322.39,150.819z"/>
		<path d="M330.345,161.451c-0.977-0.552-1.744-1.315-2.305-2.292c-0.56-0.976-0.84-2.08-0.84-3.312c0-1.232,0.28-2.336,0.84-3.313
			c0.561-0.976,1.328-1.736,2.305-2.28c0.976-0.543,2.072-0.815,3.288-0.815s2.312,0.272,3.288,0.815
			c0.976,0.544,1.74,1.305,2.292,2.28c0.552,0.977,0.827,2.08,0.827,3.313c0,1.231-0.275,2.336-0.827,3.312
			c-0.552,0.977-1.316,1.74-2.292,2.292c-0.977,0.552-2.072,0.828-3.288,0.828S331.321,162.003,330.345,161.451z M336.046,160.155
			c0.712-0.408,1.268-0.988,1.668-1.74c0.399-0.752,0.6-1.607,0.6-2.567c0-0.961-0.2-1.816-0.6-2.568
			c-0.4-0.752-0.956-1.332-1.668-1.74s-1.517-0.612-2.412-0.612c-0.896,0-1.7,0.204-2.412,0.612s-1.272,0.988-1.681,1.74
			c-0.407,0.752-0.611,1.607-0.611,2.568c0,0.96,0.204,1.815,0.611,2.567c0.408,0.752,0.969,1.332,1.681,1.74
			s1.516,0.612,2.412,0.612C334.529,160.767,335.334,160.563,336.046,160.155z"/>
		<path d="M362.998,150.807c0.903,0.911,1.355,2.256,1.355,4.031v7.32h-1.704v-7.152c0-1.312-0.315-2.312-0.948-3
			c-0.632-0.688-1.523-1.031-2.676-1.031c-1.313,0-2.344,0.404-3.096,1.212s-1.129,1.924-1.129,3.348v6.624h-1.703v-7.152
			c0-1.312-0.316-2.312-0.948-3c-0.632-0.688-1.532-1.031-2.7-1.031c-1.296,0-2.324,0.404-3.084,1.212s-1.14,1.924-1.14,3.348v6.624
			h-1.704v-12.624h1.632v2.304c0.448-0.768,1.071-1.359,1.872-1.775c0.8-0.416,1.72-0.624,2.76-0.624
			c1.057,0,1.973,0.224,2.748,0.672c0.776,0.448,1.356,1.112,1.74,1.992c0.464-0.832,1.132-1.484,2.004-1.956
			s1.868-0.708,2.988-0.708C360.849,149.439,362.094,149.895,362.998,150.807z"/>
		<path d="M380.025,156.375h-10.561c0.096,1.313,0.601,2.372,1.512,3.181c0.912,0.808,2.064,1.212,3.457,1.212
			c0.783,0,1.503-0.141,2.159-0.42c0.656-0.28,1.225-0.692,1.704-1.236l0.96,1.104c-0.56,0.672-1.26,1.185-2.1,1.536
			c-0.84,0.353-1.764,0.528-2.772,0.528c-1.295,0-2.443-0.276-3.443-0.828s-1.78-1.315-2.34-2.292
			c-0.561-0.976-0.84-2.08-0.84-3.312c0-1.232,0.268-2.336,0.804-3.313c0.536-0.976,1.272-1.736,2.208-2.28
			c0.936-0.543,1.988-0.815,3.156-0.815c1.167,0,2.216,0.272,3.144,0.815c0.928,0.544,1.656,1.301,2.184,2.269
			c0.528,0.968,0.792,2.076,0.792,3.324L380.025,156.375z M370.869,152.067c-0.824,0.776-1.292,1.788-1.404,3.036h8.952
			c-0.112-1.248-0.58-2.26-1.403-3.036c-0.824-0.776-1.853-1.164-3.084-1.164C372.713,150.903,371.693,151.291,370.869,152.067z"/>
		<path d="M390.261,161.835c-0.937-0.296-1.668-0.668-2.196-1.116l0.768-1.344c0.528,0.416,1.192,0.756,1.992,1.021
			c0.8,0.264,1.632,0.396,2.496,0.396c1.152,0,2.004-0.18,2.556-0.54c0.553-0.359,0.828-0.867,0.828-1.523
			c0-0.464-0.152-0.828-0.456-1.093c-0.304-0.264-0.688-0.464-1.151-0.6c-0.465-0.136-1.08-0.268-1.849-0.396
			c-1.023-0.192-1.848-0.389-2.472-0.589c-0.624-0.199-1.156-0.54-1.596-1.02c-0.44-0.48-0.66-1.144-0.66-1.992
			c0-1.056,0.439-1.92,1.32-2.592c0.879-0.672,2.104-1.008,3.672-1.008c0.815,0,1.632,0.107,2.447,0.323
			c0.816,0.217,1.488,0.501,2.017,0.853l-0.744,1.368c-1.04-0.721-2.28-1.08-3.72-1.08c-1.089,0-1.908,0.191-2.46,0.576
			c-0.553,0.384-0.828,0.888-0.828,1.512c0,0.479,0.156,0.864,0.468,1.152c0.313,0.288,0.7,0.5,1.164,0.636s1.104,0.276,1.92,0.42
			c1.008,0.192,1.815,0.384,2.424,0.576c0.608,0.191,1.128,0.52,1.561,0.983c0.432,0.465,0.647,1.104,0.647,1.92
			c0,1.104-0.46,1.98-1.38,2.629c-0.92,0.647-2.196,0.972-3.828,0.972C392.177,162.279,391.197,162.132,390.261,161.835z"/>
		<path d="M403.437,161.463c-0.983-0.544-1.756-1.308-2.315-2.292c-0.561-0.983-0.841-2.092-0.841-3.323
			c0-1.232,0.28-2.336,0.841-3.313c0.56-0.976,1.332-1.736,2.315-2.28c0.984-0.543,2.101-0.815,3.349-0.815
			c1.088,0,2.06,0.212,2.916,0.636c0.855,0.424,1.531,1.044,2.027,1.86l-1.271,0.863c-0.417-0.624-0.944-1.092-1.584-1.403
			c-0.641-0.313-1.336-0.469-2.088-0.469c-0.912,0-1.732,0.204-2.46,0.612c-0.729,0.408-1.297,0.988-1.704,1.74
			c-0.408,0.752-0.612,1.607-0.612,2.568c0,0.976,0.204,1.836,0.612,2.579c0.407,0.744,0.976,1.32,1.704,1.729
			c0.728,0.408,1.548,0.612,2.46,0.612c0.752,0,1.447-0.152,2.088-0.456c0.64-0.304,1.167-0.769,1.584-1.393l1.271,0.864
			c-0.496,0.816-1.176,1.437-2.04,1.86c-0.863,0.424-1.832,0.636-2.903,0.636C405.538,162.279,404.422,162.007,403.437,161.463z"/>
		<path d="M418.485,150.087c0.792-0.432,1.772-0.647,2.94-0.647v1.655l-0.408-0.023c-1.328,0-2.368,0.408-3.12,1.224
			c-0.752,0.816-1.128,1.96-1.128,3.433v6.432h-1.704v-12.624h1.632v2.472C417.097,151.159,417.693,150.519,418.485,150.087z"/>
		<path d="M435.37,156.375h-10.561c0.097,1.313,0.601,2.372,1.513,3.181c0.912,0.808,2.063,1.212,3.456,1.212
			c0.783,0,1.503-0.141,2.159-0.42c0.656-0.28,1.225-0.692,1.704-1.236l0.96,1.104c-0.56,0.672-1.26,1.185-2.1,1.536
			c-0.84,0.353-1.764,0.528-2.772,0.528c-1.296,0-2.443-0.276-3.443-0.828s-1.78-1.315-2.34-2.292
			c-0.561-0.976-0.841-2.08-0.841-3.312c0-1.232,0.269-2.336,0.805-3.313c0.536-0.976,1.271-1.736,2.208-2.28
			c0.936-0.543,1.987-0.815,3.156-0.815c1.167,0,2.216,0.272,3.144,0.815c0.928,0.544,1.656,1.301,2.184,2.269
			c0.528,0.968,0.792,2.076,0.792,3.324L435.37,156.375z M426.214,152.067c-0.824,0.776-1.292,1.788-1.404,3.036h8.952
			c-0.112-1.248-0.58-2.26-1.403-3.036c-0.824-0.776-1.853-1.164-3.084-1.164C428.057,150.903,427.038,151.291,426.214,152.067z"/>
		<path d="M449.866,156.375h-10.561c0.097,1.313,0.601,2.372,1.513,3.181c0.912,0.808,2.063,1.212,3.456,1.212
			c0.783,0,1.503-0.141,2.159-0.42c0.656-0.28,1.225-0.692,1.704-1.236l0.96,1.104c-0.56,0.672-1.26,1.185-2.1,1.536
			c-0.84,0.353-1.764,0.528-2.772,0.528c-1.296,0-2.443-0.276-3.443-0.828s-1.78-1.315-2.34-2.292
			c-0.561-0.976-0.841-2.08-0.841-3.312c0-1.232,0.269-2.336,0.805-3.313c0.536-0.976,1.271-1.736,2.208-2.28
			c0.936-0.543,1.987-0.815,3.156-0.815c1.167,0,2.216,0.272,3.144,0.815c0.928,0.544,1.656,1.301,2.184,2.269
			c0.528,0.968,0.792,2.076,0.792,3.324L449.866,156.375z M440.71,152.067c-0.824,0.776-1.292,1.788-1.404,3.036h8.952
			c-0.112-1.248-0.58-2.26-1.403-3.036c-0.824-0.776-1.853-1.164-3.084-1.164C442.553,150.903,441.534,151.291,440.71,152.067z"/>
		<path d="M463.582,150.819c0.937,0.92,1.404,2.26,1.404,4.02v7.32h-1.704v-7.152c0-1.312-0.328-2.312-0.984-3
			c-0.656-0.688-1.592-1.031-2.808-1.031c-1.36,0-2.437,0.404-3.229,1.212s-1.188,1.924-1.188,3.348v6.624h-1.704v-12.624h1.632
			v2.328c0.464-0.769,1.108-1.364,1.933-1.788c0.823-0.424,1.779-0.636,2.867-0.636
			C461.385,149.439,462.646,149.899,463.582,150.819z"/>
		<path d="M468.885,161.895c-0.248-0.256-0.371-0.568-0.371-0.937s0.123-0.676,0.371-0.924s0.548-0.372,0.9-0.372
			c0.352,0,0.656,0.124,0.912,0.372s0.384,0.556,0.384,0.924s-0.128,0.681-0.384,0.937s-0.561,0.384-0.912,0.384
			C469.433,162.279,469.134,162.151,468.885,161.895z"/>
	</g>
	<g>
		<path d="M187.484,214.921h5.502v1.302h-5.502V214.921z"/>
		<path d="M212.054,207.906c1.063,0.896,1.596,2.129,1.596,3.696c0,1.568-0.533,2.797-1.596,3.686
			c-1.064,0.89-2.535,1.333-4.41,1.333h-3.948v4.642h-1.554v-14.7h5.502C209.519,206.562,210.99,207.01,212.054,207.906z
			 M210.941,214.301c0.77-0.637,1.154-1.535,1.154-2.698c0-1.189-0.385-2.103-1.154-2.74c-0.771-0.638-1.883-0.956-3.34-0.956
			h-3.905v7.351h3.905C209.058,215.257,210.171,214.938,210.941,214.301z"/>
		<path d="M223.771,211.215c0.77,0.721,1.155,1.788,1.155,3.201v6.847h-1.429v-1.723c-0.336,0.574-0.828,1.022-1.48,1.345
			c-0.65,0.322-1.424,0.483-2.32,0.483c-1.231,0-2.212-0.295-2.939-0.883c-0.729-0.588-1.092-1.364-1.092-2.331
			c0-0.938,0.339-1.693,1.018-2.268c0.68-0.574,1.762-0.861,3.245-0.861h3.507v-0.672c0-0.951-0.266-1.676-0.798-2.174
			c-0.532-0.496-1.31-0.745-2.331-0.745c-0.7,0-1.372,0.116-2.016,0.347c-0.645,0.23-1.197,0.549-1.659,0.955l-0.672-1.113
			c0.56-0.475,1.231-0.843,2.016-1.102c0.784-0.26,1.61-0.389,2.478-0.389C221.895,210.133,223.002,210.493,223.771,211.215z
			 M222.092,219.614c0.602-0.385,1.05-0.941,1.344-1.669v-1.807h-3.465c-1.891,0-2.835,0.658-2.835,1.975
			c0,0.644,0.245,1.151,0.735,1.522s1.176,0.557,2.058,0.557C220.768,220.192,221.49,219.999,222.092,219.614z"/>
		<path d="M231.972,210.699c0.693-0.377,1.551-0.566,2.572-0.566v1.449l-0.357-0.021c-1.162,0-2.072,0.357-2.729,1.071
			c-0.658,0.714-0.987,1.715-0.987,3.003v5.628h-1.49v-11.046h1.428v2.163C230.758,211.637,231.279,211.078,231.972,210.699z"/>
		<path d="M243.533,220.591c-0.281,0.252-0.627,0.444-1.04,0.577s-0.844,0.2-1.292,0.2c-1.035,0-1.834-0.28-2.394-0.841
			c-0.56-0.56-0.84-1.351-0.84-2.373v-6.678h-1.974v-1.26h1.974v-2.415h1.491v2.415h3.359v1.26h-3.359v6.594
			c0,0.658,0.164,1.159,0.493,1.502s0.802,0.515,1.417,0.515c0.309,0,0.605-0.049,0.893-0.147c0.287-0.098,0.536-0.237,0.746-0.42
			L243.533,220.591z"/>
		<path d="M246.22,207.486c-0.21-0.209-0.314-0.461-0.314-0.756c0-0.279,0.104-0.525,0.314-0.734
			c0.21-0.211,0.469-0.315,0.777-0.315c0.307,0,0.566,0.102,0.776,0.305s0.315,0.444,0.315,0.724c0,0.309-0.105,0.568-0.315,0.777
			c-0.21,0.211-0.47,0.315-0.776,0.315C246.689,207.802,246.43,207.697,246.22,207.486z M246.242,210.217h1.49v11.046h-1.49V210.217
			z"/>
		<path d="M253.539,220.653c-0.861-0.476-1.537-1.145-2.026-2.005c-0.49-0.861-0.735-1.83-0.735-2.908s0.245-2.045,0.735-2.898
			c0.489-0.854,1.165-1.52,2.026-1.995s1.838-0.714,2.93-0.714c0.951,0,1.803,0.186,2.551,0.557c0.75,0.371,1.341,0.913,1.775,1.627
			l-1.113,0.756c-0.364-0.545-0.826-0.955-1.387-1.229c-0.56-0.272-1.168-0.409-1.826-0.409c-0.799,0-1.516,0.179-2.152,0.536
			c-0.638,0.356-1.135,0.864-1.491,1.521c-0.356,0.658-0.536,1.408-0.536,2.248c0,0.854,0.18,1.605,0.536,2.257
			s0.854,1.155,1.491,1.512c0.637,0.357,1.354,0.536,2.152,0.536c0.658,0,1.267-0.134,1.826-0.399
			c0.561-0.266,1.022-0.672,1.387-1.218l1.113,0.756c-0.435,0.714-1.029,1.257-1.785,1.628s-1.604,0.557-2.541,0.557
			C255.377,221.368,254.4,221.13,253.539,220.653z"/>
		<path d="M263.692,207.486c-0.21-0.209-0.315-0.461-0.315-0.756c0-0.279,0.105-0.525,0.315-0.734
			c0.21-0.211,0.469-0.315,0.776-0.315c0.309,0,0.567,0.102,0.777,0.305s0.314,0.444,0.314,0.724c0,0.309-0.104,0.568-0.314,0.777
			c-0.21,0.211-0.469,0.315-0.777,0.315C264.161,207.802,263.902,207.697,263.692,207.486z M263.713,210.217h1.491v11.046h-1.491
			V210.217z"/>
		<path d="M277.867,210.836c0.84,0.469,1.498,1.131,1.975,1.984c0.475,0.854,0.713,1.827,0.713,2.92
			c0,1.105-0.238,2.086-0.713,2.939c-0.477,0.854-1.131,1.516-1.964,1.984c-0.833,0.47-1.774,0.704-2.825,0.704
			c-0.896,0-1.704-0.186-2.425-0.557c-0.722-0.371-1.313-0.914-1.774-1.628v6.153h-1.491v-15.12h1.428v2.184
			c0.448-0.728,1.04-1.287,1.774-1.68c0.735-0.392,1.564-0.588,2.488-0.588C276.089,210.133,277.027,210.367,277.867,210.836z
			 M277.049,219.509c0.629-0.356,1.123-0.864,1.48-1.522c0.356-0.658,0.535-1.406,0.535-2.246s-0.179-1.586-0.535-2.236
			c-0.357-0.652-0.852-1.159-1.48-1.523c-0.631-0.363-1.331-0.546-2.101-0.546c-0.784,0-1.487,0.183-2.11,0.546
			c-0.623,0.364-1.113,0.871-1.471,1.523c-0.356,0.65-0.535,1.396-0.535,2.236s0.179,1.588,0.535,2.246
			c0.357,0.658,0.848,1.166,1.471,1.522c0.623,0.357,1.326,0.536,2.11,0.536C275.718,220.045,276.418,219.866,277.049,219.509z"/>
		<path d="M290.719,211.215c0.77,0.721,1.155,1.788,1.155,3.201v6.847h-1.429v-1.723c-0.336,0.574-0.828,1.022-1.48,1.345
			c-0.65,0.322-1.424,0.483-2.32,0.483c-1.231,0-2.212-0.295-2.939-0.883c-0.729-0.588-1.092-1.364-1.092-2.331
			c0-0.938,0.339-1.693,1.018-2.268c0.68-0.574,1.762-0.861,3.245-0.861h3.507v-0.672c0-0.951-0.266-1.676-0.798-2.174
			c-0.532-0.496-1.31-0.745-2.331-0.745c-0.7,0-1.372,0.116-2.016,0.347c-0.645,0.23-1.197,0.549-1.659,0.955l-0.672-1.113
			c0.56-0.475,1.231-0.843,2.016-1.102c0.784-0.26,1.61-0.389,2.478-0.389C288.843,210.133,289.949,210.493,290.719,211.215z
			 M289.039,219.614c0.602-0.385,1.05-0.941,1.344-1.669v-1.807h-3.465c-1.891,0-2.835,0.658-2.835,1.975
			c0,0.644,0.245,1.151,0.735,1.522s1.176,0.557,2.058,0.557C287.716,220.192,288.437,219.999,289.039,219.614z"/>
		<path d="M304.863,211.34c0.818,0.806,1.229,1.979,1.229,3.518v6.405h-1.492v-6.258c0-1.147-0.287-2.022-0.86-2.625
			c-0.574-0.603-1.394-0.903-2.457-0.903c-1.19,0-2.132,0.354-2.825,1.061c-0.692,0.707-1.039,1.684-1.039,2.93v5.796h-1.49v-11.046
			h1.428v2.037c0.406-0.672,0.969-1.193,1.689-1.564c0.722-0.371,1.559-0.557,2.51-0.557
			C302.941,210.133,304.043,210.535,304.863,211.34z"/>
		<path d="M315.961,220.591c-0.28,0.252-0.627,0.444-1.039,0.577c-0.414,0.133-0.844,0.2-1.292,0.2c-1.036,0-1.834-0.28-2.394-0.841
			c-0.561-0.56-0.84-1.351-0.84-2.373v-6.678h-1.975v-1.26h1.975v-2.415h1.49v2.415h3.36v1.26h-3.36v6.594
			c0,0.658,0.164,1.159,0.494,1.502c0.328,0.343,0.801,0.515,1.417,0.515c0.308,0,0.605-0.049,0.893-0.147
			c0.286-0.098,0.536-0.237,0.745-0.42L315.961,220.591z"/>
		<path d="M334.398,207.906c1.064,0.896,1.596,2.129,1.596,3.696c0,1.568-0.531,2.797-1.596,3.686
			c-1.064,0.89-2.533,1.333-4.41,1.333h-3.947v4.642h-1.555v-14.7h5.502C331.865,206.562,333.334,207.01,334.398,207.906z
			 M333.285,214.301c0.771-0.637,1.156-1.535,1.156-2.698c0-1.189-0.386-2.103-1.156-2.74c-0.77-0.638-1.883-0.956-3.338-0.956
			h-3.906v7.351h3.906C331.402,215.257,332.515,214.938,333.285,214.301z"/>
		<path d="M346.463,214.112c0.805,0.749,1.207,1.726,1.207,2.929c0,0.841-0.203,1.586-0.608,2.237
			c-0.406,0.65-1.008,1.165-1.806,1.543c-0.799,0.378-1.771,0.567-2.92,0.567c-1.063,0-2.068-0.171-3.014-0.515
			c-0.944-0.343-1.704-0.801-2.277-1.375l0.734-1.197c0.49,0.504,1.141,0.913,1.953,1.229c0.813,0.314,1.68,0.473,2.604,0.473
			c1.205,0,2.135-0.263,2.793-0.788c0.658-0.524,0.988-1.249,0.988-2.174c0-0.909-0.33-1.623-0.988-2.141
			c-0.658-0.519-1.651-0.777-2.981-0.777h-1.05v-1.113l4.074-5.104h-7.519v-1.344h9.45v1.071l-4.158,5.229
			C344.485,212.947,345.658,213.363,346.463,214.112z"/>
	</g>
</g>
</svg>
