<svg width="1003" height="917" viewBox="0 0 1003 917" fill="none" xmlns="http://www.w3.org/2000/svg">
<path d="M284.174 770.633C284.906 767.407 285.572 764.165 286.382 760.961C294.925 727.198 323.37 704.626 358.187 704.18C374.787 703.974 391.392 704.149 407.993 704.149C409.52 704.149 411.049 704.149 413.052 704.149C414.076 723.487 421.226 739.956 434.805 753.536C387.487 771.765 368.659 807.04 372.441 856.38C341.858 854.747 312.768 848.395 284.174 839.388C284.174 816.47 284.174 793.549 284.174 770.633Z" fill="black"/>
<path d="M679.734 838.616C663.982 846.226 647.315 850.951 630.099 853.583C619.572 855.198 608.918 856.019 597.669 857.272C597.669 854.631 597.645 852.626 597.669 850.626C597.826 837.731 597.73 824.848 593.632 812.415C584.467 784.601 566.068 765.633 538.717 755.28C537.56 754.84 536.397 754.425 534.698 753.797C548.492 739.901 555.741 723.457 556.633 704.156C573.391 704.156 589.734 703.957 606.068 704.258C611.927 704.365 617.904 705.133 623.597 706.53C652.852 713.749 674.563 737.967 678.933 767.753C679.078 768.728 679.463 769.674 679.733 770.634C679.734 793.289 679.734 815.952 679.734 838.616Z" fill="black"/>
<path d="M583.809 863.472C583.809 873.771 583.657 884.063 583.9 894.355C583.971 897.472 582.85 898.9 580.182 900.124C565.339 906.937 549.71 910.982 533.662 913.53C485.955 921.106 439.354 915.446 393.453 901.631C386.054 899.407 386.041 899.432 386.047 891.754C386.068 873.226 385.781 854.683 386.183 836.167C387.017 797.746 417.367 766.116 455.691 764.428C475.971 763.537 496.356 763.682 516.645 764.549C545.492 765.778 573.276 789.527 580.886 817.806C584.123 829.817 583.78 841.999 583.809 854.208C583.815 857.296 583.809 860.38 583.809 863.472Z" fill="black"/>
<path d="M484.672 759.919C452.557 759.766 426.893 733.972 426.956 701.913C427.021 669.754 453.211 643.726 485.256 643.979C517.145 644.239 543.193 670.578 542.911 702.297C542.628 734.332 516.614 760.068 484.672 759.919Z" fill="black"/>
<path d="M325.11 642.09C325.119 612.671 347.593 587.471 376.465 584.492C406.802 581.373 434.042 601.245 439.984 630.862C440.362 632.75 440.586 634.67 440.848 636.582C441.574 641.895 440.559 645.928 435.97 649.953C424.56 659.962 417.664 672.924 414.519 687.88C414.139 689.676 412.539 691.778 410.915 692.67C372.263 714.073 325.098 686.217 325.11 642.09Z" fill="black"/>
<path d="M580.88 584.181C611.54 584.218 637.403 608.543 638.723 638.594C640.115 670.386 617.511 696.78 586.359 699.78C576.958 700.685 567.937 699.274 559.17 695.815C557.182 695.033 556.197 694.039 555.844 691.773C552.584 671.006 542.231 654.598 524.89 642.741C522.612 641.186 522.919 639.415 523.076 637.414C525.443 607.41 550.702 584.156 580.88 584.181Z" fill="black"/>
<path d="M7.88218 317.56C-20.6238 410.51 30.6212 508.633 122.358 536.763C214.042 564.88 311.494 512.351 339.995 419.389C368.494 326.458 317.242 228.3 225.557 200.187C133.818 172.06 36.3892 224.62 7.88218 317.56Z" fill="#FE912D"/>
<path d="M94.6411 511.888C94.6411 511.888 104.2 543.56 121.255 566.152C138.35 588.769 179.228 595.714 179.228 595.714C179.228 595.714 168.89 592.989 153.747 573.694C138.547 554.4 171.64 524.042 171.64 524.042L94.6411 511.888Z" fill="#FE912D"/>
<path d="M1000.41 525.768C986.07 605.828 909.586 659.107 829.539 644.788C749.538 630.479 696.281 553.989 710.621 473.922C724.954 393.875 801.46 340.576 881.459 354.888C961.505 369.209 1014.74 445.713 1000.41 525.768Z" fill="#FE912D"/>
<path d="M860.037 636.938C860.037 636.938 840.615 656.813 819.039 667.064C797.425 677.314 763.911 666.777 763.911 666.777C763.911 666.777 772.761 668.72 791.623 660.191C810.526 651.682 797.269 616.399 797.269 616.399L860.037 636.938Z" fill="#FE912D"/>
<path d="M84.1792 459.561C84.1792 458.223 84.1772 457.176 84.1792 456.131C84.1822 425.233 84.1562 394.335 84.2432 363.435C84.2502 360.905 83.6112 360.085 81.0202 360.166C75.5522 360.332 70.0762 360.172 64.6042 360.126C63.8492 360.12 63.0952 360.021 61.6492 359.914C65.2742 356.764 68.4182 354.007 71.5842 351.284C79.1422 344.776 86.6802 338.247 94.3052 331.818C95.6642 330.671 96.1592 329.49 96.1522 327.754C96.0972 313.718 96.1242 299.679 96.1272 285.644C96.1272 284.599 96.1272 283.555 96.1272 282.271C105.119 282.271 113.869 282.271 122.962 282.271C122.962 290.311 122.962 298.28 122.962 307.133C140.681 291.919 157.766 277.249 175.017 262.436C212.015 295.282 248.876 328.003 286.226 361.159C278.442 361.159 271.281 361.159 263.691 361.159C263.691 394.096 263.691 426.767 263.691 459.562C203.7 459.561 144.141 459.561 84.1792 459.561Z" fill="white"/>
<path d="M755.464 503.797C755.479 449.976 799.294 406.172 853.117 406.172C906.99 406.172 950.761 450.092 950.708 504.093C950.656 557.88 906.752 601.666 852.934 601.607C799.153 601.547 755.451 557.692 755.464 503.797ZM769.69 503.862C769.675 549.885 807.027 587.285 853.057 587.337C899.017 587.39 936.448 549.948 936.465 503.913C936.48 457.923 899.134 420.472 853.223 420.441C807.139 420.407 769.703 457.793 769.69 503.862Z" fill="white"/>
<path d="M859.351 471.602C859.351 481.016 859.366 490.432 859.329 499.847C859.324 500.88 859.617 501.596 860.349 502.323C869.203 511.134 878.028 519.972 886.849 528.814C889.391 531.362 889.602 535.003 887.396 537.547C884.957 540.36 880.833 540.497 878.111 537.793C872.458 532.173 866.836 526.52 861.201 520.881C857.096 516.773 853.017 512.636 848.867 508.572C847.441 507.175 846.801 505.615 846.804 503.616C846.839 483.457 846.823 463.298 846.829 443.137C846.829 440.324 848.267 438.113 850.695 437.112C853.044 436.143 855.738 436.678 857.53 438.493C858.861 439.839 859.365 441.483 859.362 443.356C859.339 452.771 859.351 462.187 859.351 471.602Z" fill="white"/>
<path d="M732.045 132.048C737.765 211.186 678.149 280.572 598.863 287.049C519.621 293.527 450.726 234.641 445.01 155.494C439.29 76.3697 498.923 6.95971 578.161 0.48671C657.449 -5.98929 726.323 52.9167 732.045 132.048Z" fill="#FE912D"/>
<path d="M625.864 272.023C625.864 272.023 612.258 295.633 594.285 310.693C576.279 325.765 541.989 324.191 541.989 324.191C541.989 324.191 550.842 323.814 566.654 311.055C582.511 298.303 561.446 268.315 561.446 268.315L625.864 272.023Z" fill="#FE912D"/>
<path d="M578.093 245.556C577.091 239.158 576.105 232.755 575.059 226.366C574.964 225.799 574.57 225.219 574.173 224.773C565.446 215 557.214 204.843 550.04 193.862C548.499 191.505 547.109 189.049 545.653 186.635C545.571 186.5 545.53 186.34 545.409 186.031C547.235 186.546 548.88 186.799 550.32 188.156C553.198 190.871 556.792 192.266 560.766 192.279C577.644 192.326 594.523 192.397 611.398 192.265C620.566 192.195 627.93 184.584 627.982 175.291C628.068 160.096 628.001 144.904 627.973 129.71C627.969 129.104 627.762 128.475 627.546 127.895C624.415 119.464 621.197 111.065 618.155 102.602C616.952 99.2557 617.251 95.7977 618.376 92.4347C619.771 88.2517 623.021 86.1187 627.021 84.6257C627.28 85.2047 627.527 85.7247 627.748 86.2577C633.884 101.055 640.141 115.804 646.105 130.671C649.392 138.866 651.936 147.322 653.727 156.001C654.799 161.209 654.188 166.225 653.134 171.355C648.868 192.166 646.812 213.181 647.779 234.446C647.946 238.145 647.961 241.85 648.047 245.555C624.731 245.556 601.411 245.556 578.093 245.556Z" fill="white"/>
<path d="M556.146 118.669C554.35 116.683 552.537 114.713 550.785 112.69C550.523 112.389 550.468 111.834 550.467 111.396C550.453 90.6908 550.442 69.9848 550.463 49.2778C550.471 42.5918 555.184 37.9458 561.858 37.9448C578.017 37.9408 594.178 37.9398 610.34 37.9448C617.066 37.9468 621.753 42.6568 621.758 49.4028C621.765 59.2088 621.745 69.0138 621.782 78.8198C621.785 79.7418 621.476 80.2028 620.712 80.6918C619.06 81.7528 617.514 82.9838 615.765 84.2608C615.765 79.4648 615.765 74.6708 615.765 69.8768C615.765 65.0468 615.765 60.2168 615.765 55.3338C595.923 55.3338 576.211 55.3338 556.426 55.3338C556.426 76.4658 556.426 97.5008 556.426 118.537C556.331 118.582 556.237 118.626 556.146 118.669ZM586.183 46.7938C583.539 46.7938 580.894 46.7828 578.25 46.7988C577.074 46.8058 576.357 47.4218 576.361 48.3578C576.363 49.3108 577.027 49.8788 578.258 49.8828C583.464 49.8988 588.671 49.9038 593.877 49.8878C595.192 49.8848 595.873 49.2958 595.801 48.2728C595.719 47.0748 594.899 46.7898 593.864 46.7918C591.305 46.7968 588.744 46.7938 586.183 46.7938Z" fill="white"/>
<path d="M557.193 185.425C563.803 180.227 563.597 171.041 557.877 163.937C558.475 163.254 559.014 162.497 559.702 161.906C560.054 161.604 560.667 161.482 561.163 161.481C578.756 161.46 596.349 161.465 613.94 161.465C614.483 161.465 615.024 161.465 615.682 161.465C615.682 146.211 615.682 131.041 615.682 115.871C615.758 115.848 615.836 115.824 615.911 115.799C616.032 116.009 616.179 116.208 616.268 116.431C617.978 120.727 619.694 125.022 621.372 129.329C621.595 129.9 621.742 130.541 621.742 131.15C621.763 145.753 621.772 160.357 621.749 174.96C621.738 181.238 617.013 186.041 610.745 186.057C594.332 186.097 577.918 186.086 561.503 186.043C560.066 186.039 558.628 185.641 557.193 185.425ZM579.085 174.11C579.075 177.943 582.204 181.092 586.058 181.127C589.927 181.161 593.162 177.935 593.133 174.071C593.105 170.215 589.967 167.067 586.142 167.054C582.232 167.044 579.095 170.178 579.085 174.11Z" fill="white"/>
<path d="M555.696 131.682C555.524 135.985 552.355 138.547 548.018 137.884C545.932 137.567 544.034 136.77 542.461 135.368C538.848 132.151 535.222 128.944 531.72 125.607C529.328 123.327 528.448 120.406 529.286 117.172C530.894 110.976 538.612 109.132 543.305 113.901C546.727 117.375 549.951 121.048 553.157 124.727C554.853 126.678 555.769 129.03 555.696 131.682Z" fill="white"/>
<path d="M533.9 136.11C535.093 137.186 536.162 138.123 537.201 139.092C540.693 142.347 544.754 144.213 549.591 144.223C549.865 144.223 550.233 144.266 550.401 144.439C552.795 146.934 555.177 149.418 555.739 153.079C556.427 157.576 553.589 160.682 549.056 160.264C546.621 160.04 544.517 159.031 542.713 157.432C539.659 154.727 536.62 152.004 533.644 149.215C530.332 146.118 529.606 141.473 531.883 138.252C532.427 137.482 533.181 136.863 533.9 136.11Z" fill="white"/>
<path d="M534.176 158.167C535.861 159.678 537.21 160.936 538.613 162.132C542.144 165.145 546.182 166.764 550.887 166.53C551.231 166.514 551.702 166.561 551.911 166.775C554.237 169.154 555.941 171.847 555.895 175.335C555.852 178.494 553.838 180.553 550.67 180.61C547.934 180.661 545.54 179.63 543.516 177.883C540.618 175.382 537.754 172.833 535.012 170.166C532.608 167.825 531.468 164.923 532.407 161.557C532.722 160.43 533.496 159.436 534.176 158.167Z" fill="white"/>
<path d="M544.212 105.966C540.554 104.197 537.114 102.649 533.792 100.878C531.859 99.8478 530.563 98.0848 529.757 96.0248C528.344 92.4238 529.745 88.9008 533.257 87.2958C536 86.0418 538.792 86.1218 541.603 87.1118C544.21 88.0278 544.214 88.0178 544.214 90.7678C544.212 95.7248 544.212 100.68 544.212 105.966Z" fill="white"/>
</svg>
