<svg width="156" height="156" viewBox="0 0 156 156" fill="none" xmlns="http://www.w3.org/2000/svg">
<rect width="156" height="156" fill="white"/>
<path d="M43.7891 48.8281L65 105H53.9844L47.5781 87.7344H29.0625L22.6562 105H11.6406L32.8516 48.8281H43.7891ZM38.3203 60.4297L31.9531 79.8828H44.6875L38.3203 60.4297ZM80.1172 94.7656C80.9505 94.7656 81.7057 94.9089 82.3828 95.1953C83.0599 95.4818 83.6328 95.8854 84.1016 96.4062C84.5964 96.901 84.974 97.487 85.2344 98.1641C85.4948 98.8151 85.625 99.5182 85.625 100.273C85.625 101.029 85.4818 101.745 85.1953 102.422C84.9089 103.073 84.5052 103.659 83.9844 104.18C83.4896 104.674 82.9036 105.065 82.2266 105.352C81.5755 105.638 80.8724 105.781 80.1172 105.781C79.362 105.781 78.6458 105.638 77.9688 105.352C77.3177 105.065 76.7318 104.674 76.2109 104.18C75.7161 103.659 75.3255 103.073 75.0391 102.422C74.7526 101.745 74.6094 101.029 74.6094 100.273C74.6094 99.4661 74.7526 98.724 75.0391 98.0469C75.3516 97.3698 75.7552 96.7969 76.25 96.3281C76.7708 95.8333 77.3568 95.4557 78.0078 95.1953C78.6849 94.9089 79.388 94.7656 80.1172 94.7656ZM112.305 48.8281V105H101.406V48.8281H112.305ZM133.633 94.7656C134.466 94.7656 135.221 94.9089 135.898 95.1953C136.576 95.4818 137.148 95.8854 137.617 96.4062C138.112 96.901 138.49 97.487 138.75 98.1641C139.01 98.8151 139.141 99.5182 139.141 100.273C139.141 101.029 138.997 101.745 138.711 102.422C138.424 103.073 138.021 103.659 137.5 104.18C137.005 104.674 136.419 105.065 135.742 105.352C135.091 105.638 134.388 105.781 133.633 105.781C132.878 105.781 132.161 105.638 131.484 105.352C130.833 105.065 130.247 104.674 129.727 104.18C129.232 103.659 128.841 103.073 128.555 102.422C128.268 101.745 128.125 101.029 128.125 100.273C128.125 99.4661 128.268 98.724 128.555 98.0469C128.867 97.3698 129.271 96.7969 129.766 96.3281C130.286 95.8333 130.872 95.4557 131.523 95.1953C132.201 94.9089 132.904 94.7656 133.633 94.7656Z" fill="black"/>
</svg>
