<svg width="1080" height="1080" viewBox="0 0 1080 1080" fill="none" xmlns="http://www.w3.org/2000/svg">
<rect width="1080" height="1080" fill="white"/>
<path opacity="0.15" d="M89.3267 719.421C86.8415 669.86 102.326 617.447 135.398 587.074C171.146 554.289 219.893 551.548 265.008 553.631C310.123 555.715 357.15 560.868 398.729 539.925C447.954 515.035 479.783 458.456 506.546 403.522C533.405 348.587 559.977 289.925 604.71 255.276C640.362 227.644 686.242 219.75 728.49 224.135C771.502 228.631 810.595 238.828 842.233 275.232C866.894 303.522 884.385 338.719 904.649 371.285C927.015 407.25 952.918 440.254 975.189 476.329C1020.02 548.588 1033.11 622.381 1015.62 708.566C1003.96 766.241 981.593 826.548 926.824 838.061C904.362 842.776 881.231 839.048 858.674 835.101C732.313 812.513 604.136 778.303 478.062 803.522C445.947 809.882 414.404 820.189 382.479 828.741C340.041 840.145 297.028 848.588 253.729 853.961C219.511 858.127 183.858 860.211 151.933 845.189C106.532 823.697 92.003 773.039 89.3267 719.421Z" fill="#C2DCFE"/>
<path d="M803.879 713.228H765.883V719.688H803.879V713.228Z" fill="white" stroke="black" stroke-miterlimit="10" stroke-linecap="round" stroke-linejoin="round"/>
<path d="M810.011 719.688H759.86V728.886H810.011V719.688Z" fill="white" stroke="black" stroke-miterlimit="10" stroke-linecap="round" stroke-linejoin="round"/>
<path d="M801.908 785.716H771.029L761.831 728.776H807.931L801.908 785.716Z" fill="#DDDBEE" stroke="black" stroke-miterlimit="10" stroke-linecap="round" stroke-linejoin="round"/>
<path d="M803.879 774.876L766.868 775.204L763.912 750.238H806.617L803.879 774.876Z" fill="white" stroke="black" stroke-miterlimit="10" stroke-linecap="round" stroke-linejoin="round"/>
<path d="M799.937 758.341C799.937 758.341 799.499 766.554 798.733 769.401Z" fill="#DDDBEE"/>
<path d="M799.937 758.341C799.937 758.341 799.499 766.554 798.733 769.401" stroke="black" stroke-miterlimit="10" stroke-linecap="round" stroke-linejoin="round"/>
<path d="M780.884 705.782C776.395 699.869 776.176 690.999 780.556 684.977C782.308 682.568 784.607 680.706 786.25 678.188C789.973 672.603 789.316 664.61 784.826 659.573" stroke="#DDDBEE" stroke-width="2" stroke-miterlimit="10" stroke-linecap="round" stroke-linejoin="round"/>
<path d="M796.871 698.774C793.258 695.16 793.258 688.7 796.762 684.977C798.404 683.225 800.594 682.13 801.908 680.159C803.879 677.312 803.441 673.589 803.003 670.194" stroke="#DDDBEE" stroke-width="2" stroke-miterlimit="10" stroke-linecap="round" stroke-linejoin="round"/>
<path d="M667.772 420.974C660.764 401.484 663.83 378.16 671.933 359.326C674.342 353.851 677.079 348.595 680.583 343.668C692.08 327.572 711.243 316.731 731.391 314.651C754.933 312.132 779.899 321.002 794.462 339.507C805.96 354.07 810.23 373.342 808.369 391.519C805.631 419.66 792.053 443.093 764.459 454.7C748.363 461.489 730.624 464.227 713.433 460.613C710.476 459.956 707.629 459.19 704.563 459.08C692.847 458.752 683.54 472.11 671.604 471.453C676.532 468.935 680.693 463.241 683.649 458.752C688.029 451.853 688.138 448.349 682.007 442.655C675.327 436.633 670.728 429.077 667.772 420.974Z" fill="white" stroke="black" stroke-width="2" stroke-miterlimit="10" stroke-linecap="round" stroke-linejoin="round"/>
<path d="M628.9 682.458H62.132C58.7375 682.458 56 679.721 56 676.326V326.805C56 323.411 58.7375 320.673 62.132 320.673H628.9C632.294 320.673 635.031 323.411 635.031 326.805V676.326C634.922 679.721 632.185 682.458 628.9 682.458Z" fill="#E5E5E5" stroke="black" stroke-miterlimit="10" stroke-linecap="round" stroke-linejoin="round"/>
<path d="M615.431 674.246H75.6003C70.0159 674.246 65.4169 669.647 65.4169 664.062V339.069C65.4169 333.485 70.0159 328.886 75.6003 328.886H615.431C621.016 328.886 625.614 333.485 625.614 339.069V664.062C625.614 669.647 621.016 674.246 615.431 674.246Z" fill="white" stroke="black" stroke-miterlimit="10" stroke-linecap="round" stroke-linejoin="round"/>
<path d="M322.63 372.138H102.099V635.702H322.63V372.138Z" fill="#F4F4F5" stroke="black" stroke-miterlimit="10" stroke-linecap="round" stroke-linejoin="round"/>
<path d="M111.954 386.263C114.615 386.263 116.772 384.106 116.772 381.445C116.772 378.784 114.615 376.627 111.954 376.627C109.293 376.627 107.136 378.784 107.136 381.445C107.136 384.106 109.293 386.263 111.954 386.263Z" fill="#8CD6FF" stroke="black" stroke-miterlimit="10" stroke-linecap="round" stroke-linejoin="round"/>
<path d="M313.323 386.263C315.984 386.263 318.141 384.106 318.141 381.445C318.141 378.784 315.984 376.627 313.323 376.627C310.662 376.627 308.505 378.784 308.505 381.445C308.505 384.106 310.662 386.263 313.323 386.263Z" fill="#8CD6FF" stroke="black" stroke-miterlimit="10" stroke-linecap="round" stroke-linejoin="round"/>
<path d="M111.954 631.432C114.615 631.432 116.772 629.275 116.772 626.614C116.772 623.953 114.615 621.796 111.954 621.796C109.293 621.796 107.136 623.953 107.136 626.614C107.136 629.275 109.293 631.432 111.954 631.432Z" fill="#91D7FF" stroke="black" stroke-miterlimit="10" stroke-linecap="round" stroke-linejoin="round"/>
<path d="M313.323 631.432C315.984 631.432 318.141 629.275 318.141 626.614C318.141 623.953 315.984 621.796 313.323 621.796C310.662 621.796 308.505 623.953 308.505 626.614C308.505 629.275 310.662 631.432 313.323 631.432Z" fill="#91D7FF" stroke="black" stroke-miterlimit="10" stroke-linecap="round" stroke-linejoin="round"/>
<path d="M217.949 466.745C223.096 466.636 228.352 466.745 233.498 467.074C233.936 461.818 233.936 456.452 233.279 451.196C233.279 450.977 233.17 450.758 233.06 450.539C232.841 450.32 232.513 450.32 232.184 450.32C229.556 450.539 227.038 450.649 224.41 450.758C223.096 450.758 221.672 450.758 220.358 450.758C219.263 450.758 218.278 450.32 217.84 451.306C217.511 452.401 218.497 466.745 217.949 466.745Z" fill="white" stroke="black" stroke-width="0.5" stroke-miterlimit="10" stroke-linecap="round" stroke-linejoin="round"/>
<path d="M244.448 457.109C243.462 455.686 244.886 453.386 246.638 453.715C248.39 454.043 248.828 456.89 247.295 457.766C247.733 455.905 250.58 455.686 251.784 457.109C252.989 458.533 252.879 460.613 252.441 462.475C252.222 463.132 252.003 463.789 251.456 464.227C250.58 464.993 249.047 464.555 248.28 463.57C247.623 462.584 247.514 461.38 247.733 460.175C248.28 457.438 250.251 455.029 252.879 454.043C253.208 455.138 253.317 456.343 253.208 457.438C253.098 456.452 254.522 455.905 255.288 456.452C256.055 457 256.164 458.204 256.055 459.08C255.617 458.095 256.931 457.219 257.916 457.438C258.902 457.657 259.559 458.533 260.106 459.409C260.654 458.423 261.53 457.547 262.625 457.109C262.625 458.642 264.267 460.066 265.8 459.737C267.333 459.409 268.319 457.547 267.662 456.014C266.348 456.781 265.8 458.642 266.457 460.066C268.428 459.299 269.633 457.109 269.195 455.029C268.866 456.671 269.414 458.423 270.509 459.628C271.494 458.971 272.151 457.657 272.042 456.452C271.932 457 272.042 457.547 272.37 458.095C273.465 456.562 273.794 454.591 273.356 452.839C272.151 457.766 272.699 463.022 274.779 467.621C275.984 466.855 276.641 465.431 276.531 464.008C276.422 462.584 275.327 461.38 274.013 460.832C275.655 459.737 276.422 457.547 275.874 455.576C275.327 456.781 275.436 458.314 276.203 459.409C277.517 459.299 278.721 458.204 278.94 456.89C279.378 457.766 279.816 458.642 280.254 459.409C280.364 458.533 281.568 458.204 282.444 458.533C283.32 458.861 283.977 459.409 284.963 459.518C285.839 459.628 286.934 458.642 286.386 457.985" stroke="black" stroke-width="0.5" stroke-miterlimit="10" stroke-linecap="round" stroke-linejoin="round"/>
<path d="M293.394 456.89C294.27 456.343 294.927 455.467 295.037 454.481C295.146 453.496 294.27 452.401 293.285 452.51C292.19 452.62 291.752 453.824 291.423 454.81C291.095 456.124 290.657 457.547 291.314 458.861C291.971 460.175 293.942 460.613 294.599 459.518C295.037 458.861 295.146 457.766 295.803 457.876C296.46 458.533 297.008 459.409 297.336 460.285C298.541 460.066 298.541 457.766 299.745 457.876C300.402 457.985 300.731 458.752 301.388 458.971C301.935 459.19 302.592 458.642 302.592 457.985C303.14 459.08 304.563 459.737 305.767 459.409C306.972 459.08 307.848 457.876 307.848 456.671C307.41 456.89 306.972 457.219 306.644 457.657" stroke="black" stroke-width="0.5" stroke-miterlimit="10" stroke-linecap="round" stroke-linejoin="round"/>
<path d="M217.949 496.31C223.096 496.2 228.352 496.31 233.498 496.638C233.936 491.382 233.936 486.017 233.279 480.761C233.279 480.542 233.17 480.323 233.06 480.104C232.841 479.885 232.513 479.885 232.184 479.885C229.556 480.104 227.038 480.213 224.41 480.323C223.096 480.323 221.672 480.323 220.358 480.323C219.263 480.323 218.278 479.885 217.84 480.87C217.511 481.965 218.497 496.31 217.949 496.31Z" fill="white" stroke="black" stroke-width="0.5" stroke-miterlimit="10" stroke-linecap="round" stroke-linejoin="round"/>
<path d="M246.09 482.075C246.747 481.527 245.762 480.432 244.995 480.761C244.229 481.089 244.01 481.965 244.01 482.841C244.01 483.717 244.229 484.484 243.9 485.25C245.105 485.031 246.309 484.155 246.966 483.06C247.185 483.936 247.404 484.703 247.842 485.579C248.171 484.703 248.828 483.936 249.704 483.389C249.594 484.155 250.142 484.922 250.908 485.031C251.675 485.141 252.441 484.374 252.441 483.608C252.551 484.484 253.865 484.812 254.522 484.265C255.179 483.717 255.398 482.732 255.617 481.856C255.617 481.637 255.726 481.527 255.617 481.308C255.507 480.98 255.069 480.98 254.741 480.98C253.536 481.199 252.77 482.732 253.317 483.827C253.865 484.922 255.617 485.25 256.493 484.374C256.712 484.155 256.931 483.827 257.259 483.608C258.026 483.17 258.902 484.046 259.449 484.812C260.325 484.703 260.544 483.389 261.42 483.389C262.077 483.389 262.406 484.046 263.063 484.265C264.048 484.593 264.924 483.498 266.019 483.389C266.786 483.389 267.443 483.936 268.1 484.046C268.647 484.155 269.304 483.827 269.633 483.389" stroke="black" stroke-width="0.5" stroke-miterlimit="10" stroke-linecap="round" stroke-linejoin="round"/>
<path d="M278.721 481.746C278.831 481.308 278.94 480.761 278.831 480.323C278.721 479.885 278.283 479.447 277.736 479.556C277.407 479.666 277.188 479.885 276.969 480.213C276.422 481.089 276.093 482.184 276.093 483.279C276.093 483.498 276.093 483.827 276.203 484.046C276.641 484.703 277.626 484.155 278.064 483.498C278.502 482.841 278.831 482.075 279.597 481.856C279.597 482.732 280.473 483.389 281.349 483.17C281.678 483.06 281.897 482.841 282.225 482.841C282.992 482.622 283.977 483.17 284.087 484.046C284.963 482.951 286.605 483.936 287.919 483.498C289.124 483.06 289.781 481.527 290.985 481.527C292.19 481.527 292.737 482.951 292.956 484.155C293.175 485.688 293.175 487.44 292.19 488.754C291.533 489.63 290 490.178 289.452 489.192C289.233 488.864 289.233 488.426 289.233 487.988C289.233 487.002 289.233 486.017 289.671 485.141C290 484.265 290.766 483.389 291.642 483.279C292.628 483.06 293.723 483.827 293.723 484.703C294.489 483.827 295.584 482.951 296.46 483.608C296.679 483.827 296.898 484.046 297.227 484.155C297.884 484.484 298.541 484.155 299.198 483.936C300.402 483.608 301.716 483.717 302.92 483.608C304.234 483.498 305.548 483.17 306.205 482.075C305.439 481.965 304.563 482.184 304.015 482.732" stroke="black" stroke-width="0.5" stroke-miterlimit="10" stroke-linecap="round" stroke-linejoin="round"/>
<path d="M246.638 492.477C246.966 491.492 247.185 490.178 246.309 489.63C245.433 488.973 244.01 489.959 243.9 491.054C243.791 492.149 244.338 493.244 244.886 494.229C245.652 493.572 246.528 493.025 247.404 492.696C247.733 493.134 248.061 493.463 248.39 493.901C248.937 493.682 249.485 493.353 249.923 492.915C252.551 494.339 256.055 494.229 258.464 492.477C257.588 491.382 255.288 492.368 255.507 493.791C258.792 494.886 260.982 499.047 259.559 502.223C255.507 500.142 259.997 494.777 260.982 492.258C259.559 496.857 270.509 495.215 272.808 494.777C276.312 494.12 286.496 496.748 288.357 493.572" stroke="black" stroke-width="0.5" stroke-miterlimit="10" stroke-linecap="round" stroke-linejoin="round"/>
<path d="M272.48 490.944C272.261 490.287 272.042 489.521 272.37 488.864C272.808 488.097 273.903 487.988 274.56 488.535C275.217 489.083 275.327 490.178 274.779 490.835C274.67 491.054 274.56 491.163 274.341 491.273C273.794 491.492 273.137 491.054 273.027 490.397C272.918 489.74 273.246 489.192 273.575 488.754C273.356 489.521 272.918 490.397 272.48 490.944Z" stroke="black" stroke-width="0.5" stroke-miterlimit="10" stroke-linecap="round" stroke-linejoin="round"/>
<path d="M111.845 525.875C116.991 525.765 122.247 525.875 127.393 526.203C127.831 520.947 127.831 515.582 127.174 510.326C127.174 510.107 127.065 509.888 126.955 509.669C126.736 509.45 126.408 509.45 126.079 509.45C123.451 509.669 120.933 509.778 118.305 509.888C116.991 509.888 115.567 509.888 114.253 509.888C113.158 509.888 112.173 509.45 111.735 510.435C111.516 511.53 112.392 525.875 111.845 525.875Z" fill="white" stroke="black" stroke-width="0.5" stroke-miterlimit="10" stroke-linecap="round" stroke-linejoin="round"/>
<path d="M138.672 517.334C139 516.239 137.248 515.472 136.263 516.129C135.277 516.786 135.168 518.1 135.058 519.305C135.058 519.743 134.949 520.29 134.949 520.728C134.949 521.166 134.839 521.713 135.058 522.042C135.496 522.808 136.701 522.59 137.248 521.933C137.796 521.276 137.905 520.4 138.015 519.524C139.986 522.371 140.971 525.984 140.752 529.378C137.796 526.969 137.905 521.604 141.081 519.414C141.409 519.195 141.847 518.867 142.285 518.976C143.818 519.086 143.928 521.714 145.351 522.152C146.556 521.385 147.432 520.29 147.979 519.086C148.308 520.29 150.06 520.619 150.936 519.743C151.702 520.29 152.797 520.071 153.454 519.414C154.111 518.757 154.221 517.662 153.673 516.896C152.688 517.115 152.688 518.757 153.454 519.414C154.221 520.071 155.425 520.071 156.52 519.962C158.163 519.852 159.696 519.852 161.338 519.743C163.309 519.633 165.28 519.524 166.923 518.429C168.456 517.334 169.332 514.815 168.018 513.392C166.266 514.596 167.032 517.881 169.222 518.1C170.098 518.21 170.974 517.772 171.85 517.553C174.697 516.786 177.763 517.881 180.719 517.772C181.814 517.662 183.347 516.786 182.69 515.801C181.705 516.896 181.157 518.429 181.267 519.852C181.924 520.181 182.909 520.071 183.457 519.524" stroke="black" stroke-width="0.5" stroke-miterlimit="10" stroke-linecap="round" stroke-linejoin="round"/>
<path d="M198.349 521.714C199.115 520.838 199.991 519.852 200.101 518.648C200.21 517.443 199.115 516.129 197.911 516.458C196.925 516.786 196.597 517.881 196.487 518.867C196.378 519.524 196.268 520.181 196.487 520.838C196.706 521.495 197.254 522.042 197.911 521.933C199.115 521.823 199.991 519.852 201.086 520.4C201.524 520.619 201.743 521.166 202.181 521.276C203.057 521.604 203.714 520.181 204.59 520.29C205.138 520.29 205.466 520.838 205.904 520.947C206.233 521.057 206.561 521.057 206.999 521.057C209.846 520.728 211.817 517.334 210.832 514.706C210.613 514.158 210.394 513.72 209.846 513.392C208.751 512.735 207.328 513.611 206.89 514.706C206.452 515.801 206.671 517.115 206.89 518.319C206.999 518.867 207.218 519.633 207.766 519.852C208.751 520.181 209.846 518.867 210.613 519.414C210.941 520.071 211.27 520.728 211.598 521.495C212.255 520.728 213.241 519.962 214.007 520.619C214.445 520.947 214.445 521.714 214.993 521.823C215.65 522.042 216.197 521.166 216.745 520.728C217.402 520.29 218.278 520.29 219.044 520.29C221.234 520.181 223.205 518.867 224.191 517.005C223.643 518.538 226.162 519.414 226.6 520.838C227.038 522.261 225.724 523.575 224.519 524.451C223.972 524.78 223.315 525.108 222.767 524.78C222.329 524.451 222.329 523.904 222.329 523.356C222.767 520.29 225.724 518.319 228.461 517.005C228.023 517.553 227.585 517.991 227.257 518.538" stroke="black" stroke-width="0.5" stroke-miterlimit="10" stroke-linecap="round" stroke-linejoin="round"/>
<path d="M238.097 518.319C241.054 516.677 242.805 513.063 242.258 509.669C241.163 511.749 240.506 514.049 240.397 516.458C240.397 517.224 240.506 518.21 241.273 518.319C242.368 518.429 242.805 516.567 243.791 516.677C244.886 516.786 245.105 518.648 246.2 518.538C246.966 518.429 247.295 517.443 247.952 517.334C248.828 517.224 249.266 518.538 250.032 518.429C250.47 518.429 250.799 518.1 251.127 517.881C252.66 517.005 254.303 518.867 256.055 519.414C258.026 520.071 260.216 518.648 261.092 516.786C262.077 514.925 262.077 512.735 262.077 510.764C262.077 509.778 261.858 508.464 260.873 508.355C260.216 508.245 259.668 508.902 259.34 509.45C258.135 511.311 257.807 513.611 258.354 515.691C258.464 516.239 258.683 516.896 259.121 517.334C259.887 518.1 261.311 518.1 262.296 517.553C263.282 517.005 264.048 516.02 264.705 515.144C265.143 516.02 265.581 517.005 266.457 517.443C267.333 517.881 268.647 517.443 268.757 516.567C271.056 517.772 274.013 517.553 276.203 516.02C276.641 517.991 279.597 518.538 281.24 517.334C282.882 516.129 283.649 514.049 283.868 511.968C284.306 509.121 283.977 505.946 282.006 503.865C279.159 504.522 277.188 507.26 276.641 510.107C276.093 512.954 276.86 515.91 277.955 518.648" stroke="black" stroke-width="0.5" stroke-miterlimit="10" stroke-linecap="round" stroke-linejoin="round"/>
<path d="M111.845 614.569C116.991 614.459 122.247 614.569 127.393 614.897C127.831 609.642 127.831 604.276 127.174 599.02C127.174 598.801 127.065 598.582 126.955 598.363C126.736 598.144 126.408 598.144 126.079 598.144C123.451 598.363 120.933 598.473 118.305 598.582C116.991 598.582 115.567 598.582 114.253 598.582C113.158 598.582 112.173 598.144 111.735 599.13C111.516 600.225 112.392 614.569 111.845 614.569Z" fill="white" stroke="black" stroke-width="0.5" stroke-miterlimit="10" stroke-linecap="round" stroke-linejoin="round"/>
<path d="M141.409 606.794C141.628 605.261 141.081 603.619 139.876 602.633C139 604.604 138.672 606.794 138.781 608.875C138.781 609.641 138.891 610.408 139.329 610.955C139.767 611.503 140.643 611.831 141.3 611.503C141.628 611.284 141.847 610.955 141.957 610.627C142.614 609.422 143.052 608.218 143.38 606.904C143.928 608.656 145.023 610.298 146.446 611.612C146.665 610.627 146.884 609.751 147.213 608.765C147.76 609.532 148.308 610.298 149.074 610.955C149.403 611.174 149.731 611.393 150.06 611.284C150.279 611.174 150.498 610.955 150.607 610.736C152.031 608.546 152.688 605.918 152.359 603.29C152.14 601.538 151.155 599.458 149.403 599.568C148.308 599.677 147.541 600.553 146.994 601.429C145.899 603.509 146.118 606.247 147.76 607.999C149.293 609.751 152.25 610.189 154.111 608.765C154.33 609.751 154.987 610.627 155.754 611.284C155.973 610.408 156.52 609.313 157.396 609.532C157.944 609.641 158.272 610.189 158.601 610.627C158.929 611.065 159.805 611.284 160.024 610.736" stroke="black" stroke-width="0.5" stroke-miterlimit="10" stroke-linecap="round" stroke-linejoin="round"/>
<path d="M168.565 607.78C168.565 606.466 168.784 605.152 169.222 603.948C170.208 603.948 171.084 604.933 171.303 605.919C171.522 606.904 171.412 607.89 171.193 608.985C171.412 607.89 171.741 606.795 172.288 605.919C172.507 605.59 172.617 605.262 172.945 605.152C173.712 604.824 174.478 605.59 174.697 606.357C174.916 607.123 175.026 607.999 175.573 608.547C176.449 607.452 177.653 606.357 178.967 606.795C180.062 607.233 180.61 608.656 181.814 608.547C182.581 608.437 183.128 607.342 184.004 607.452C184.552 607.561 184.88 608.218 185.318 608.656C186.194 609.423 187.618 609.094 188.384 608.328C189.151 607.561 189.479 606.357 189.808 605.262C190.027 604.386 190.246 603.291 189.589 602.634C189.041 602.086 187.946 602.196 187.289 602.743C186.632 603.291 186.304 604.057 185.975 604.824C185.318 606.247 185.099 608.437 186.632 608.766C187.18 608.875 187.727 608.547 188.275 608.437C189.698 608.109 191.231 608.985 191.779 610.299C192.326 609.532 193.202 608.766 194.078 609.094C194.407 609.204 194.626 609.532 194.954 609.751C195.94 610.408 197.254 610.08 198.349 609.642C199.553 609.204 200.977 607.89 199.991 607.014C199.444 606.576 198.568 606.795 198.239 607.342C197.911 607.89 197.801 608.656 197.911 609.313C198.239 607.78 200.539 607.561 201.743 608.656C202.948 609.751 203.167 611.394 203.386 612.927C203.824 616.43 204.152 620.373 201.962 623.11C198.787 620.592 198.568 615.883 198.896 611.832C199.006 610.737 199.115 609.642 199.663 608.656C200.21 607.671 201.415 607.014 202.4 607.342C203.386 607.671 203.933 609.204 203.167 609.97C204.043 609.423 204.919 608.875 205.795 608.328C205.904 609.094 206.233 609.861 206.671 610.518C208.313 609.642 210.394 609.642 211.927 610.518" stroke="black" stroke-width="0.5" stroke-miterlimit="10" stroke-linecap="round" stroke-linejoin="round"/>
<path d="M222.767 607.123C222.001 605.7 221.234 604.386 220.358 602.962C220.03 602.962 219.811 602.962 219.482 602.962C219.373 604.167 219.592 605.481 220.03 606.685C220.139 607.123 220.358 607.451 220.796 607.67C221.344 607.889 222.001 607.561 222.658 607.451C223.862 607.342 224.738 608.656 225.176 609.86C225.395 609.094 226.49 608.765 227.257 609.094C228.023 609.422 228.571 610.189 229.009 610.846C229.337 609.97 230.542 609.861 231.527 609.97C232.513 610.08 233.389 610.517 234.374 610.298C235.141 610.079 235.797 609.313 236.673 609.313C237.987 609.203 239.192 610.955 240.396 610.298C240.834 610.079 241.053 609.532 241.382 609.204C242.696 607.671 245.105 608.108 247.076 608.765C247.295 608.108 247.295 607.342 247.076 606.685" stroke="black" stroke-width="0.5" stroke-miterlimit="10" stroke-linecap="round" stroke-linejoin="round"/>
<path d="M256.383 602.743C255.617 602.195 255.507 600.881 256.164 600.224C256.821 599.567 258.135 599.677 258.683 600.443C259.011 600.881 259.011 601.538 259.011 602.195C258.902 603.838 258.354 605.48 257.369 606.794C259.23 605.261 261.311 603.947 263.501 602.962" stroke="black" stroke-width="0.5" stroke-miterlimit="10" stroke-linecap="round" stroke-linejoin="round"/>
<path d="M263.391 597.378C260.763 595.516 257.478 593.436 254.412 594.64C251.894 595.626 250.47 598.473 250.251 601.101C250.032 603.072 250.361 605.152 251.237 606.794C252.222 608.546 253.974 609.86 255.945 609.97C257.588 610.079 259.23 609.422 260.544 608.437C263.282 606.575 265.253 603.51 265.91 600.115C266.238 598.144 266.129 595.954 264.705 594.421C263.61 593.217 261.749 592.669 260.106 593.107C258.464 593.545 257.259 595.078 257.04 596.721" stroke="black" stroke-width="0.5" stroke-miterlimit="10" stroke-linecap="round" stroke-linejoin="round"/>
<path d="M111.845 437.18C116.991 437.071 122.247 437.18 127.393 437.509C127.831 432.253 127.831 426.887 127.174 421.631C127.174 421.412 127.065 421.193 126.955 420.974C126.736 420.755 126.408 420.755 126.079 420.755C123.451 420.974 120.933 421.084 118.305 421.193C116.991 421.193 115.567 421.193 114.253 421.193C113.158 421.193 112.173 420.755 111.735 421.741C111.516 422.836 112.392 437.18 111.845 437.18Z" fill="white" stroke="black" stroke-width="0.5" stroke-miterlimit="10" stroke-linecap="round" stroke-linejoin="round"/>
<path d="M136.701 425.902C136.591 425.574 136.701 425.245 136.701 424.917C136.701 424.588 136.482 424.15 136.153 424.26C136.044 424.26 135.934 424.479 135.825 424.588C135.387 425.574 135.277 426.669 135.715 427.654C136.153 427.107 136.591 426.45 137.139 425.902C137.467 426.669 137.905 427.435 138.234 428.202C138.781 427.435 139.11 426.669 139.438 425.793C140.095 425.793 140.205 427.216 140.862 426.997C141.3 426.888 141.19 426.231 141.519 426.012C141.628 426.559 142.504 426.559 142.833 426.121C143.161 425.683 143.161 425.136 143.161 424.588C143.161 424.369 143.161 424.15 142.942 424.041C142.614 423.822 142.285 424.26 142.176 424.698C142.066 425.245 141.847 425.793 142.066 426.34C142.285 426.888 142.942 427.216 143.38 426.888C143.599 426.778 143.709 426.45 143.818 426.231C143.928 426.012 144.256 425.902 144.475 426.012C144.694 426.121 144.694 426.45 144.913 426.559C145.351 426.888 145.68 426.012 146.227 426.012C146.446 426.012 146.665 426.231 146.994 426.34C147.651 426.669 148.527 426.45 148.965 425.793C149.293 426.559 149.95 427.435 150.607 427.107C150.826 426.997 150.936 426.888 151.155 426.778C151.812 426.121 152.031 425.136 151.812 424.26C150.607 425.026 150.169 426.778 150.717 428.092C151.593 428.092 152.469 427.435 152.578 426.559" stroke="black" stroke-width="0.5" stroke-miterlimit="10" stroke-linecap="round" stroke-linejoin="round"/>
<path d="M157.834 426.887C158.929 426.778 159.696 425.464 159.258 424.478C158.491 424.697 158.163 425.902 158.82 426.449C159.477 426.997 160.572 426.449 160.681 425.683C160.681 426.34 161.557 426.449 162.105 426.23C162.652 426.011 163.2 425.573 163.857 425.683C164.295 425.683 164.623 426.011 165.061 426.121C165.499 426.23 166.047 426.121 166.156 425.683C166.485 426.34 167.361 426.559 168.127 426.34C168.894 426.121 169.441 425.683 169.989 425.245C170.426 424.916 170.865 424.478 170.974 423.931C171.084 423.383 170.536 422.726 169.989 422.945C169.66 423.164 169.551 423.493 169.551 423.931C169.441 424.807 169.551 425.683 169.879 426.449C170.317 427.216 171.193 427.654 172.069 427.325C173.164 426.887 173.711 425.026 174.916 425.354C175.792 425.573 176.011 427.106 176.996 427.216C177.982 427.435 178.529 426.011 179.624 425.902C179.953 425.902 180.281 426.011 180.61 426.121C182.362 426.778 184.333 426.668 185.975 426.011C186.413 425.792 186.851 425.573 187.399 425.683C188.494 425.902 188.603 427.654 187.727 428.311C186.851 428.968 185.647 428.968 184.552 428.858C184.552 426.997 185.428 425.245 186.961 424.259C187.946 423.602 189.26 423.383 190.246 424.04C191.231 424.697 191.341 426.449 190.246 426.887C190.355 426.121 191.122 425.573 191.888 425.573C192.655 425.573 193.421 426.011 193.75 426.668C193.969 426.997 194.078 427.325 194.407 427.544C194.845 427.763 195.392 427.544 195.721 427.216C196.049 426.887 196.159 426.34 196.268 425.902" stroke="black" stroke-width="0.5" stroke-miterlimit="10" stroke-linecap="round" stroke-linejoin="round"/>
<path d="M139.767 434.662C140.205 434.224 139.986 433.348 139.438 433.129C138.891 432.91 138.124 433.238 137.796 433.676C137.467 434.224 137.358 434.881 137.358 435.538C137.358 435.757 137.467 435.976 137.577 436.085C137.796 436.195 138.015 436.195 138.234 436.085C139.329 435.757 140.205 434.99 140.643 433.895C140.862 434.881 142.395 435.319 143.161 434.662C143.599 434.224 144.037 433.457 144.585 433.676C144.913 433.895 144.913 434.333 145.242 434.662C145.899 435.319 147.103 434.114 147.979 434.443C148.308 434.552 148.527 434.881 148.855 434.99C149.512 435.319 150.279 434.771 150.936 434.99C151.374 435.1 151.702 435.538 152.14 435.757C152.907 436.085 153.783 435.866 154.33 435.319C154.878 434.771 155.316 434.005 155.644 433.348C155.754 433.129 155.863 432.91 155.754 432.691C155.644 432.362 155.097 432.362 154.659 432.581C153.673 433.129 152.907 434.443 153.564 435.319C154.111 435.976 155.097 435.976 155.863 435.647C156.63 435.319 157.287 434.662 158.053 434.333C158.272 434.224 158.382 434.114 158.601 434.224C158.82 434.333 159.039 434.552 159.148 434.771C159.696 435.428 160.791 435.209 161.667 434.881C162.433 434.552 163.419 434.005 164.185 434.443C164.404 435.319 163.966 436.195 163.309 436.742C163.966 436.195 164.733 435.757 165.499 435.428C166.375 435.209 167.251 435.319 167.908 435.976C168.237 436.414 168.456 436.961 168.565 437.509C168.784 439.48 167.908 441.56 166.266 442.655C166.156 440.027 167.58 436.961 170.208 436.523C170.646 436.414 171.084 436.414 171.522 436.742C172.179 437.18 172.179 438.166 171.85 438.713C171.522 439.261 170.865 439.808 170.208 440.137C170.208 439.151 170.427 438.056 171.193 437.399C171.96 436.742 173.383 436.961 173.493 438.056C174.478 437.071 175.792 436.414 177.216 436.414C178.968 436.304 180.61 437.071 182.362 437.18C184.114 437.399 186.194 436.852 186.742 435.209C186.851 434.771 186.961 434.333 186.742 433.895C186.523 433.348 185.975 433.019 185.428 433.019C184.114 432.91 183.019 434.552 183.457 435.866C183.895 437.18 185.318 437.947 186.742 437.728C188.056 437.618 189.26 436.633 190.027 435.538C190.793 434.443 191.231 433.129 191.669 431.815C191.779 431.267 191.998 430.72 191.669 430.282C191.341 429.734 190.355 429.734 189.917 430.172C189.479 430.61 189.151 431.267 189.041 431.924" stroke="black" stroke-width="0.5" stroke-miterlimit="10" stroke-linecap="round" stroke-linejoin="round"/>
<path d="M113.158 428.092C113.706 429.406 115.896 432.472 116.991 433.348C117.319 433.567 117.538 433.786 117.976 433.895C118.743 434.005 119.4 433.457 119.947 432.91C124.765 428.201 129.474 423.274 133.963 418.346" stroke="#91D7FF" stroke-width="4" stroke-miterlimit="10" stroke-linecap="round" stroke-linejoin="round"/>
<path d="M111.845 496.31C116.991 496.201 122.247 496.31 127.393 496.638C127.831 491.383 127.831 486.017 127.174 480.761C127.174 480.542 127.065 480.323 126.955 480.104C126.736 479.885 126.408 479.885 126.079 479.885C123.451 480.104 120.933 480.214 118.305 480.323C116.991 480.323 115.567 480.323 114.253 480.323C113.158 480.323 112.173 479.885 111.735 480.871C111.516 481.966 112.392 496.31 111.845 496.31Z" fill="white" stroke="black" stroke-width="0.5" stroke-miterlimit="10" stroke-linecap="round" stroke-linejoin="round"/>
<path d="M133.635 491.492C133.087 492.149 133.635 493.353 134.511 493.353C136.591 489.521 137.139 484.922 136.263 480.651C137.139 485.25 138.891 489.63 141.3 493.572C141.19 492.039 140.971 490.287 139.767 489.192C138.672 488.097 136.263 488.316 135.934 489.849C135.606 491.054 137.248 492.258 138.343 491.711C139.438 491.163 139.986 489.411 141.19 489.63C142.176 489.849 142.176 491.273 142.833 492.039C142.833 490.944 143.161 489.959 143.818 489.083C144.475 489.849 145.242 490.616 145.899 491.382C145.789 490.068 148.198 490.725 149.074 489.74C149.403 489.411 149.403 488.973 149.512 488.535C149.622 487.55 149.731 486.564 149.512 485.688C149.293 484.703 148.417 483.936 147.541 483.827C145.132 488.426 145.351 494.229 147.979 498.609C147.979 496.091 148.417 493.682 149.512 491.382C150.498 492.696 150.826 494.558 150.06 495.981C149.293 494.996 149.184 493.572 149.731 492.368C149.95 491.82 150.498 491.382 151.045 491.492C151.483 491.601 151.812 492.039 152.14 492.368C153.454 493.682 155.754 492.806 157.177 491.601C157.944 490.944 158.71 490.068 158.929 489.083C159.148 488.097 158.601 486.783 157.615 486.564C157.615 491.93 158.71 497.295 160.791 502.223C159.915 499.266 159.258 496.2 158.929 493.244C158.82 492.039 158.82 490.397 159.915 489.849C160.462 490.616 160.681 491.711 160.462 492.587C161.229 492.149 161.886 491.601 162.433 490.835C163.2 491.492 164.295 491.601 165.171 491.273C165.718 491.054 166.156 490.506 166.813 490.506C167.251 490.506 167.689 490.725 168.127 490.835C169.66 491.273 171.412 490.397 172.069 488.864C172.617 487.331 171.96 485.469 170.536 484.812C168.565 487.44 168.784 491.492 170.974 493.901C171.741 493.244 172.398 492.258 172.617 491.273C173.164 491.711 173.602 492.258 173.602 493.025C173.712 492.806 173.931 492.587 174.04 492.258" stroke="black" stroke-width="0.5" stroke-miterlimit="10" stroke-linecap="round" stroke-linejoin="round"/>
<path d="M177.215 491.382C176.777 489.411 176.777 487.44 177.106 485.47C177.872 485.251 178.529 486.236 178.748 487.002C179.296 488.645 179.405 490.397 179.296 492.149C179.515 491.163 180.391 489.849 181.267 490.287C182.033 490.616 182.252 491.82 183.019 491.82C184.114 491.711 184.004 489.521 185.099 489.74C185.647 489.849 185.866 490.725 186.523 490.835C187.07 491.054 187.618 490.397 188.165 490.068C189.26 489.521 190.465 490.287 191.669 490.616C193.859 491.273 196.487 489.959 197.254 487.769C196.159 488.426 195.173 489.302 194.516 490.397" stroke="black" stroke-width="0.5" stroke-miterlimit="10" stroke-linecap="round" stroke-linejoin="round"/>
<path d="M114.144 487.55C114.691 488.864 116.881 491.93 117.976 492.806C118.305 493.025 118.524 493.244 118.962 493.353C119.728 493.463 120.385 492.915 120.933 492.368C125.751 487.659 130.459 482.732 134.949 477.805" stroke="#91D7FF" stroke-width="4" stroke-miterlimit="10" stroke-linecap="round" stroke-linejoin="round"/>
<path d="M217.949 555.439C223.096 555.33 228.352 555.439 233.498 555.768C233.936 550.512 233.936 545.147 233.279 539.891C233.279 539.672 233.17 539.453 233.06 539.234C232.841 539.015 232.513 539.015 232.184 539.015C229.556 539.234 227.038 539.343 224.41 539.453C223.096 539.453 221.672 539.453 220.358 539.453C219.263 539.453 218.278 539.015 217.84 540C217.511 541.095 218.497 555.439 217.949 555.439Z" fill="white" stroke="black" stroke-width="0.5" stroke-miterlimit="10" stroke-linecap="round" stroke-linejoin="round"/>
<path d="M243.681 548.869C243.462 548.103 243.243 547.227 243.462 546.46C243.681 545.694 244.338 544.927 245.105 545.037C245.981 545.146 246.419 546.132 246.419 547.008C246.309 547.884 245.762 548.541 245.324 549.307C245.762 547.884 247.733 547.446 249.047 548.212C250.361 548.979 250.908 550.512 251.018 552.045C251.237 554.673 249.923 557.41 247.733 558.943C247.623 559.053 247.404 559.162 247.185 559.162C246.966 559.162 246.857 558.943 246.747 558.834C245.324 557.082 246.2 554.563 247.295 552.592C247.952 551.388 248.828 550.183 249.923 549.526C251.127 548.869 252.77 548.76 253.755 549.636C254.741 550.621 254.522 552.592 253.208 553.03C253.098 553.03 252.989 553.14 252.879 553.03C252.66 552.921 252.66 552.592 252.66 552.264C252.989 551.278 253.536 550.293 254.303 549.526C254.522 549.307 254.741 549.198 254.96 549.198C255.179 549.198 255.398 549.526 255.288 549.745" stroke="black" stroke-width="0.5" stroke-miterlimit="10" stroke-linecap="round" stroke-linejoin="round"/>
<path d="M258.245 549.526C258.354 548.431 258.573 547.117 259.668 546.898C260.654 546.789 261.42 547.993 261.201 548.979C260.982 549.964 260.106 550.621 259.34 551.278C258.902 549.964 259.559 548.212 260.873 547.884C262.187 547.555 263.72 549.307 262.844 550.402C265.362 549.526 268.1 549.307 270.618 549.855C271.494 550.074 272.48 550.293 273.356 549.964C274.232 549.636 274.56 548.212 273.794 547.774C273.027 548.76 272.699 550.074 273.027 551.278C273.027 551.388 273.137 551.607 273.246 551.716C273.575 551.935 274.013 551.716 274.341 551.388C275.108 550.621 275.874 549.964 276.641 549.198C277.188 549.855 277.736 550.512 278.283 551.169C278.283 550.402 279.159 549.855 279.926 549.855C280.692 549.855 281.459 550.183 282.116 550.512C284.525 551.497 287.81 551.716 289.562 549.745C290.766 548.431 290.985 546.46 290.985 544.708C290.985 543.066 290.876 541.314 290.109 539.891C289.233 538.467 287.372 537.482 285.839 538.139C284.196 538.905 283.758 541.095 284.634 542.737C285.51 544.27 287.262 545.146 289.014 545.256" stroke="black" stroke-width="0.5" stroke-miterlimit="10" stroke-linecap="round" stroke-linejoin="round"/>
<path d="M221.782 545.913C222.329 547.227 224.519 550.293 225.614 551.169C225.943 551.388 226.162 551.607 226.6 551.716C227.366 551.826 228.023 551.278 228.571 550.731C233.389 546.022 238.097 541.095 242.586 536.167" stroke="#91D7FF" stroke-width="4" stroke-miterlimit="10" stroke-linecap="round" stroke-linejoin="round"/>
<path d="M111.845 555.44C116.991 555.33 122.247 555.44 127.393 555.768C127.831 550.512 127.831 545.147 127.174 539.891C127.174 539.672 127.065 539.453 126.955 539.234C126.736 539.015 126.408 539.015 126.079 539.015C123.451 539.234 120.933 539.343 118.305 539.453C116.991 539.453 115.567 539.453 114.253 539.453C113.158 539.453 112.173 539.015 111.735 540C111.516 541.095 112.392 555.44 111.845 555.44Z" fill="white" stroke="black" stroke-width="0.5" stroke-miterlimit="10" stroke-linecap="round" stroke-linejoin="round"/>
<path d="M137.796 548.103C137.029 547.556 138.015 545.694 137.029 545.475C136.591 545.366 136.263 545.804 136.153 546.242C135.496 547.446 134.839 548.87 135.277 550.293C135.387 550.622 135.606 550.95 135.825 551.059C136.591 551.497 137.358 550.621 137.796 549.855C138.124 549.088 138.562 548.103 139.329 547.993C139.548 548.76 139.767 549.417 140.095 550.183C140.752 549.636 141.3 548.979 141.957 548.432C141.409 549.089 142.066 550.184 142.833 550.293C143.599 550.403 144.475 549.855 144.913 549.088C144.694 550.074 145.68 551.059 146.665 551.059C147.651 551.059 148.527 550.293 148.965 549.417C149.293 548.65 149.403 547.775 149.184 547.008C148.089 547.008 147.103 547.993 147.213 549.088C147.322 550.621 149.184 551.497 150.717 551.169C152.25 550.84 153.345 549.636 154.33 548.541C154.33 549.417 154.768 550.293 155.425 550.95C156.192 550.731 156.192 549.307 156.958 549.307C157.506 549.307 157.834 549.964 157.834 550.402C157.834 550.95 157.834 551.607 158.272 551.936C158.929 552.483 159.805 551.826 160.243 551.059C160.681 550.293 161.01 549.417 161.776 549.307C161.886 550.512 162.981 551.607 164.185 551.607" stroke="black" stroke-width="0.5" stroke-miterlimit="10" stroke-linecap="round" stroke-linejoin="round"/>
<path d="M169.55 550.512C169.222 549.964 168.893 549.417 168.893 548.76C168.893 548.103 169.331 547.446 169.988 547.446C170.645 547.446 171.083 547.993 171.193 548.65C171.302 549.307 171.083 549.855 170.864 550.402C171.302 549.417 172.945 549.417 173.602 550.402C174.259 551.278 174.04 552.592 173.602 553.578C173.383 554.016 173.164 554.454 172.726 554.673C172.288 554.892 171.74 554.892 171.412 554.454C171.193 554.235 171.193 553.906 171.193 553.578C171.193 551.935 171.85 550.293 172.835 549.088C173.054 548.869 173.273 548.65 173.492 548.65C174.04 548.65 174.368 549.417 174.259 549.964C174.149 550.512 174.149 551.278 174.697 551.607C175.573 552.045 176.23 550.512 177.215 550.512C178.31 550.512 179.077 552.483 180.062 551.935C180.61 551.607 180.719 550.731 181.267 550.731C181.486 550.731 181.705 550.95 181.924 551.169C183.457 552.483 186.304 551.716 186.961 549.745C187.399 551.059 188.932 551.826 190.136 551.497C191.45 551.169 192.326 549.745 192.107 548.431C191.56 548.979 191.122 549.636 191.012 550.402C190.903 551.169 191.45 551.935 192.107 552.154C192.655 552.264 193.093 552.045 193.531 551.716C195.83 550.074 195.94 546.351 194.407 543.942C193.64 542.737 192.326 541.642 190.793 541.642C189.37 541.533 187.727 542.737 187.727 544.161" stroke="black" stroke-width="0.5" stroke-miterlimit="10" stroke-linecap="round" stroke-linejoin="round"/>
<path d="M113.378 546.789C113.925 548.103 116.115 551.169 117.21 552.045C117.538 552.264 117.757 552.483 118.195 552.592C118.962 552.702 119.619 552.154 120.166 551.607C124.984 546.898 129.693 541.971 134.182 537.044" stroke="#91D7FF" stroke-width="4" stroke-miterlimit="10" stroke-linecap="round" stroke-linejoin="round"/>
<path d="M217.949 437.18C223.096 437.071 228.352 437.18 233.498 437.509C233.936 432.253 233.936 426.887 233.279 421.631C233.279 421.412 233.17 421.193 233.06 420.974C232.841 420.755 232.513 420.755 232.184 420.755C229.556 420.974 227.038 421.084 224.41 421.193C223.096 421.193 221.672 421.193 220.358 421.193C219.263 421.193 218.278 420.755 217.84 421.741C217.511 422.836 218.497 437.18 217.949 437.18Z" fill="white" stroke="black" stroke-width="0.5" stroke-miterlimit="10" stroke-linecap="round" stroke-linejoin="round"/>
<path d="M244.119 427.654C245.214 427.106 244.01 425.245 242.805 425.573C241.601 425.902 241.163 427.216 240.944 428.42C240.725 429.515 240.834 430.72 241.71 431.267C242.477 431.705 243.572 431.486 244.119 430.829C244.667 430.172 245.105 429.296 245.433 428.53C245.981 429.077 246.638 429.625 247.185 430.172C247.842 429.625 248.499 429.077 249.047 428.53C249.156 429.844 251.456 430.282 251.894 428.968C252.989 430.172 255.069 430.501 256.383 429.515C257.697 428.53 258.245 426.559 257.369 425.135C256.055 425.464 255.069 426.997 255.398 428.311C255.726 429.625 257.15 430.61 258.573 430.391C260.325 430.063 262.187 428.092 263.501 429.296C263.829 429.625 263.939 429.953 264.267 430.172C265.8 431.158 266.895 427.435 268.647 427.873C269.085 427.982 269.304 428.311 269.742 428.42C270.29 428.639 270.947 428.53 271.494 428.42C272.808 428.201 274.122 427.982 275.436 427.763C275.765 427.654 276.093 427.654 276.422 427.873C276.75 428.092 276.86 428.639 276.75 429.077C276.531 430.939 275.217 432.691 273.465 433.457C272.808 431.486 273.684 428.53 275.765 428.53C277.298 428.53 278.502 430.063 278.831 431.596C279.269 433.895 278.612 436.414 276.969 438.056C276.969 436.633 277.298 435.1 278.283 434.224C279.269 433.238 281.24 433.129 282.006 434.333C282.773 435.538 281.349 437.509 280.145 436.742C280.583 433.129 283.43 429.844 287.043 428.968" stroke="black" stroke-width="0.5" stroke-miterlimit="10" stroke-linecap="round" stroke-linejoin="round"/>
<path d="M292.19 427.106C292.628 426.449 293.723 426.668 294.161 427.216C294.599 427.873 294.599 428.639 294.489 429.406C294.161 428.858 294.708 427.982 295.365 427.873C296.022 427.763 296.789 428.092 297.336 428.311C297.884 428.53 298.65 428.858 299.417 428.639C299.745 428.53 300.074 428.311 300.402 428.201C301.388 427.982 302.373 428.968 303.359 428.858C304.015 428.858 304.563 428.311 305.22 427.982C306.096 427.544 307.191 427.544 308.067 427.216C308.943 426.887 309.819 425.902 309.49 424.916C307.191 424.697 304.891 425.464 303.139 426.997" stroke="black" stroke-width="0.5" stroke-miterlimit="10" stroke-linecap="round" stroke-linejoin="round"/>
<path d="M218.935 428.092C219.482 429.406 221.672 432.472 222.767 433.348C223.096 433.567 223.315 433.786 223.753 433.895C224.519 434.005 225.176 433.457 225.724 432.91C230.542 428.201 235.25 423.274 239.74 418.346" stroke="#91D7FF" stroke-width="4" stroke-miterlimit="10" stroke-linecap="round" stroke-linejoin="round"/>
<path d="M111.845 466.745C116.991 466.636 122.247 466.745 127.393 467.074C127.831 461.818 127.831 456.452 127.174 451.196C127.174 450.977 127.065 450.758 126.955 450.539C126.736 450.32 126.408 450.32 126.079 450.32C123.451 450.539 120.933 450.649 118.305 450.758C116.991 450.758 115.567 450.758 114.253 450.758C113.158 450.758 112.173 450.32 111.735 451.306C111.516 452.401 112.392 466.745 111.845 466.745Z" fill="white" stroke="black" stroke-width="0.5" stroke-miterlimit="10" stroke-linecap="round" stroke-linejoin="round"/>
<path d="M138.124 458.204C138.562 457.657 137.796 456.781 137.029 457C136.372 457.219 136.044 457.985 135.825 458.642C135.606 459.409 135.496 460.285 135.606 461.051C135.606 462.037 136.263 463.241 137.139 462.913C137.467 462.803 137.686 462.475 137.796 462.146C138.343 461.161 138.891 460.285 139.329 459.299C139.329 459.956 140.095 460.394 140.752 460.285C141.409 460.175 141.957 459.628 142.285 459.19C142.504 460.613 145.023 460.832 145.461 459.518C145.351 460.613 146.337 461.599 147.432 461.599C148.527 461.599 149.512 460.613 149.512 459.518C148.855 460.504 150.06 461.818 151.155 461.599C152.25 461.38 152.907 460.066 152.797 458.971C152.797 458.423 152.469 457.766 151.921 457.657C151.155 457.547 150.717 458.533 150.498 459.299C150.279 460.066 150.169 460.832 150.279 461.599C150.498 462.365 151.045 463.022 151.812 463.022C152.688 463.022 153.126 462.146 153.673 461.599C154.221 460.942 155.097 460.394 155.754 460.832C156.411 461.27 156.52 462.475 157.287 462.584C158.053 461.708 158.929 460.832 159.696 459.956C160.353 460.723 160.9 461.38 161.557 462.146C163.2 460.942 164.842 459.628 166.375 458.204C168.565 462.475 169.879 467.074 170.426 471.782C170.536 472.768 170.536 474.082 169.66 474.629C168.018 471.454 167.799 467.621 169.113 464.336" stroke="black" stroke-width="0.5" stroke-miterlimit="10" stroke-linecap="round" stroke-linejoin="round"/>
<path d="M174.04 459.299C174.369 458.533 173.602 457.547 172.836 457.547C172.507 458.533 172.288 459.518 172.507 460.394C172.726 461.27 173.931 462.037 174.807 461.489C175.792 460.832 175.683 458.971 176.887 458.752C176.887 459.847 177.325 461.051 178.092 461.927C178.42 461.051 179.077 460.175 179.734 459.628C179.953 460.504 180.829 461.27 181.705 461.161C182.581 461.051 183.457 460.285 183.457 459.409C184.114 459.299 184.333 460.285 184.661 460.832C185.099 461.489 185.866 461.599 186.632 461.489C187.399 461.38 187.946 460.832 188.494 460.285C188.932 459.847 189.479 459.299 189.589 458.642C189.698 457.985 189.151 457.219 188.494 457.328C187.837 457.438 187.508 458.204 187.399 458.861C187.07 460.066 187.07 461.818 188.165 462.146C188.822 462.365 189.479 461.927 189.808 461.38C190.136 460.832 190.355 460.175 190.465 459.518C192.436 463.351 194.188 467.95 192.326 471.782C191.012 469.592 190.684 466.964 191.341 464.555C191.56 463.898 191.888 463.132 192.545 463.241" stroke="black" stroke-width="0.5" stroke-miterlimit="10" stroke-linecap="round" stroke-linejoin="round"/>
<path d="M114.911 453.824C117.976 457.109 120.933 460.504 123.67 464.008C123.561 463.789 123.342 463.679 123.232 463.46" stroke="#91D7FF" stroke-width="4" stroke-miterlimit="10" stroke-linecap="round" stroke-linejoin="round"/>
<path d="M114.911 464.446C117.867 460.942 120.823 457.328 123.78 453.824" stroke="#91D7FF" stroke-width="4" stroke-miterlimit="10" stroke-linecap="round" stroke-linejoin="round"/>
<path d="M111.845 585.004C116.991 584.895 122.247 585.004 127.393 585.333C127.831 580.077 127.831 574.711 127.174 569.455C127.174 569.236 127.065 569.017 126.955 568.798C126.736 568.579 126.408 568.579 126.079 568.579C123.451 568.798 120.933 568.908 118.305 569.017C116.991 569.017 115.567 569.017 114.253 569.017C113.158 569.017 112.173 568.579 111.735 569.565C111.516 570.66 112.392 585.004 111.845 585.004Z" fill="white" stroke="black" stroke-width="0.5" stroke-miterlimit="10" stroke-linecap="round" stroke-linejoin="round"/>
<path d="M137.467 572.412C137.139 571.974 136.591 571.645 136.044 571.645C137.248 577.449 138.891 583.033 140.862 588.618C138.453 586.756 135.934 585.004 133.525 583.143C136.701 580.186 140.205 576.792 140.314 572.412C138.015 575.259 138.124 579.748 140.533 582.486C141.3 581.391 141.957 580.405 142.723 579.31C143.271 581.062 144.147 582.705 145.242 584.128C145.899 582.924 146.556 581.829 147.213 580.624C147.651 581.281 148.198 582.048 148.965 582.486C149.731 582.924 150.717 583.033 151.374 582.376C151.702 582.048 151.921 581.5 152.469 581.391C153.345 581.062 153.892 582.486 154.768 582.924C155.754 583.581 157.068 582.924 157.615 581.938C158.163 580.953 158.053 579.748 158.053 578.653C158.053 577.887 157.615 576.901 156.849 577.12C156.63 577.12 156.52 577.339 156.411 577.449C155.097 578.982 155.973 581.719 157.834 582.376C159.696 583.033 161.995 582.048 162.981 580.296C163.638 581.719 165.39 582.486 166.813 581.938C167.251 581.829 167.689 581.61 168.127 581.61C168.784 581.61 169.441 582.157 169.989 582.486C170.646 582.814 171.631 582.595 171.631 581.938" stroke="black" stroke-width="0.5" stroke-miterlimit="10" stroke-linecap="round" stroke-linejoin="round"/>
<path d="M179.296 581.61C181.048 578.434 182.143 574.383 180.172 571.317C178.529 571.974 178.201 574.054 177.982 575.806C177.872 577.23 177.763 578.763 178.42 580.077C179.077 581.391 180.938 582.048 182.033 581.172C183.019 580.405 183.457 578.434 184.771 578.653C185.975 578.872 186.194 581.062 187.508 580.953C188.494 580.843 188.713 579.529 189.589 579.201C190.903 578.653 192.217 580.624 193.421 580.077C194.188 579.748 194.516 578.653 195.392 578.653C195.721 578.653 196.049 578.872 196.378 579.091C197.582 579.858 199.225 579.639 200.32 578.763" stroke="black" stroke-width="0.5" stroke-miterlimit="10" stroke-linecap="round" stroke-linejoin="round"/>
<path d="M207.985 580.624C207.985 579.858 208.532 579.201 208.642 578.434C208.751 577.668 207.985 576.792 207.437 577.23C207.218 577.449 207.218 577.668 207.109 577.887C206.999 578.434 206.89 578.872 206.78 579.42C206.671 579.858 206.561 580.405 206.999 580.734C207.328 581.062 207.875 580.843 208.204 580.624C209.08 580.077 209.737 579.091 210.722 578.872C211.27 578.763 211.817 578.872 212.365 578.982C213.679 579.31 215.102 579.529 216.416 579.858C218.497 580.296 220.468 580.734 222.548 580.734C222.877 580.734 223.315 580.843 223.315 581.062C223.315 581.172 223.315 581.281 223.205 581.391C222.329 582.924 220.358 583.8 218.606 583.471C218.716 581.5 219.263 579.529 219.92 577.668C220.249 576.901 220.687 576.025 221.563 575.916C222.001 575.806 222.548 576.025 222.877 576.354C224.519 577.449 225.505 579.639 225.067 581.719C226.052 580.405 227.257 579.091 228.79 578.653C230.323 578.106 232.403 578.763 232.841 580.405C234.046 580.077 235.36 579.967 236.674 580.077C236.345 580.405 236.017 580.734 235.579 581.062" stroke="black" stroke-width="0.5" stroke-miterlimit="10" stroke-linecap="round" stroke-linejoin="round"/>
<path d="M253.536 569.455C253.755 572.083 254.084 574.602 254.303 577.23C254.412 577.777 255.288 577.777 255.398 577.23C255.507 576.682 254.631 576.354 254.303 576.901" stroke="black" stroke-width="0.5" stroke-miterlimit="10" stroke-linecap="round" stroke-linejoin="round"/>
<path d="M253.755 579.748C261.858 578.653 264.815 563.761 255.069 564.856C247.295 565.623 244.667 580.953 253.755 579.748Z" stroke="black" stroke-width="0.5" stroke-miterlimit="10" stroke-linecap="round" stroke-linejoin="round"/>
<path d="M114.911 571.645C117.976 574.93 120.933 578.325 123.67 581.829C123.561 581.61 123.342 581.5 123.232 581.281" stroke="#91D7FF" stroke-width="4" stroke-miterlimit="10" stroke-linecap="round" stroke-linejoin="round"/>
<path d="M114.911 582.267C117.867 578.763 120.823 575.149 123.78 571.645" stroke="#91D7FF" stroke-width="4" stroke-miterlimit="10" stroke-linecap="round" stroke-linejoin="round"/>
<path d="M466.731 377.065H366.321V433.676H466.731V377.065Z" fill="white" stroke="black" stroke-miterlimit="10" stroke-linecap="round" stroke-linejoin="round"/>
<path d="M416.471 381.883C419.132 381.883 421.289 379.726 421.289 377.065C421.289 374.404 419.132 372.247 416.471 372.247C413.81 372.247 411.653 374.404 411.653 377.065C411.653 379.726 413.81 381.883 416.471 381.883Z" fill="#8CD6FF" stroke="black" stroke-miterlimit="10" stroke-linecap="round" stroke-linejoin="round"/>
<path d="M387.782 393.49C388.001 393.052 387.016 393.052 386.687 393.381C386.03 393.928 385.483 394.585 385.045 395.352C384.716 395.79 384.497 396.337 384.607 396.885C384.826 397.98 386.359 398.199 387.454 397.761C388.549 397.432 389.644 396.666 390.739 396.994C391.615 397.213 392.162 398.089 392.272 398.965C392.381 399.841 392.162 400.717 391.834 401.484C391.396 402.469 390.629 403.455 389.644 403.783C388.549 404.112 387.235 403.674 386.906 402.579C386.578 401.374 387.892 400.17 389.206 400.279C390.52 400.389 391.396 401.593 391.724 402.798C392.381 401.922 393.148 400.936 393.805 400.17C394.024 399.951 394.243 399.732 394.462 399.732C394.79 399.732 395.009 400.17 395.119 400.498C395.447 401.265 395.776 402.031 396.104 402.798C396.542 401.703 396.98 400.608 397.418 399.622C397.637 400.279 397.856 401.046 398.404 401.484C398.951 401.922 399.827 402.141 400.265 401.593C400.484 401.374 400.594 401.046 400.594 400.717C400.922 399.075 401.032 397.432 400.813 395.79C400.703 397.87 401.141 399.951 402.127 401.703C402.017 401.046 402.017 400.279 402.236 399.622C402.565 398.965 403.331 398.527 403.988 398.746C404.207 398.856 404.426 399.075 404.645 399.403C405.193 400.608 404.098 402.141 402.784 402.031C403.55 400.936 404.536 399.951 405.631 399.294C405.85 399.184 406.178 398.965 406.507 398.965C407.602 398.965 408.04 400.498 407.93 401.703C407.711 400.608 408.478 399.513 409.573 399.403C410.668 399.294 411.653 400.279 411.653 401.374C411.544 400.827 411.544 400.17 411.763 399.622C411.982 399.075 412.529 398.637 413.186 398.856C414.281 399.184 413.953 401.046 414.829 401.703C415.705 400.936 416.362 399.841 416.581 398.637C416.909 399.951 417.676 401.265 418.661 402.141C419.209 400.717 419.647 399.184 420.194 397.761C419.866 398.746 420.523 400.06 421.618 400.279C421.946 400.389 422.165 400.389 422.384 400.498C422.822 400.827 422.603 401.593 422.056 401.812C421.618 402.031 420.961 401.922 420.413 401.812C421.727 400.827 423.041 399.841 424.355 398.746C423.917 398.637 423.479 399.075 423.479 399.622C424.136 399.732 424.793 399.841 425.45 399.951C425.779 400.06 426.107 400.06 426.326 400.279C426.655 400.717 426.326 401.484 425.779 401.703C425.231 401.922 424.574 401.812 424.027 401.703C425.231 400.498 426.326 399.294 427.531 398.089C427.531 398.965 427.64 399.951 427.969 400.827C428.188 401.265 428.516 401.703 428.954 401.593C429.283 401.593 429.502 401.265 429.611 400.936C430.049 400.279 430.487 399.513 430.816 398.856C430.268 399.622 430.597 400.827 431.473 401.265C432.349 401.703 433.444 401.265 433.882 400.498C434.21 399.622 433.772 398.527 432.896 398.199C431.911 397.87 430.706 399.075 431.363 399.841C431.801 400.389 432.677 400.279 433.225 400.06C433.882 399.732 434.429 399.294 435.086 399.184C436.291 399.075 437.386 400.608 436.729 401.703C437.495 400.389 438.371 398.965 439.138 397.651C439.466 398.856 439.904 400.06 440.233 401.265C440.342 401.484 440.342 401.703 440.561 401.812C440.78 401.922 440.89 401.812 441.109 401.703C442.313 401.155 443.408 400.17 443.956 398.965" stroke="black" stroke-width="0.5" stroke-miterlimit="10" stroke-linecap="round" stroke-linejoin="round"/>
<path d="M428.188 393.709C427.859 393.49 427.421 393.49 427.093 393.709C426.764 393.928 426.655 394.257 426.545 394.695C426.326 395.352 426.436 396.118 426.983 396.337C427.421 396.556 427.969 396.228 428.188 395.79C428.407 395.352 428.407 394.804 428.407 394.366C428.407 394.147 428.297 393.819 428.188 393.709ZM428.188 393.709C427.969 393.6 427.64 393.819 427.75 394.038" stroke="black" stroke-width="0.5" stroke-miterlimit="10" stroke-linecap="round" stroke-linejoin="round"/>
<path d="M415.705 394.366C415.376 394.366 414.938 394.585 414.829 394.914C414.61 395.242 414.61 395.571 414.5 396.009C414.5 396.228 414.391 396.556 414.61 396.775C414.829 397.104 415.376 396.994 415.705 396.666C415.924 396.337 416.033 395.899 415.924 395.461C415.924 395.023 415.814 394.585 415.376 394.366C415.048 394.147 414.391 394.585 414.61 394.914" stroke="black" stroke-width="0.5" stroke-miterlimit="10" stroke-linecap="round" stroke-linejoin="round"/>
<path d="M406.069 413.857C405.193 412.652 405.412 410.791 406.507 409.805C407.602 408.82 409.573 408.929 410.668 409.915C412.091 411.338 411.763 413.747 410.777 415.499C409.792 417.251 408.149 418.565 407.164 420.317C406.069 422.069 405.74 424.478 407.164 425.902C407.383 425.245 407.93 424.807 408.587 424.697C409.244 424.588 409.901 424.588 410.558 424.807C411.763 425.026 412.858 425.464 413.953 425.902C414.172 426.011 414.5 426.121 414.719 426.011C414.829 425.902 414.938 425.792 414.938 425.573C415.267 424.369 415.267 423.164 415.157 422.069" stroke="black" stroke-width="0.75" stroke-miterlimit="10" stroke-linecap="round" stroke-linejoin="round"/>
<path d="M420.194 408.382C419.428 408.492 418.771 408.93 418.114 409.477C417.128 410.244 416.362 411.448 416.252 412.653C416.143 413.857 416.909 415.28 418.114 415.499C419.428 415.828 420.632 414.843 421.946 414.733C424.136 414.514 425.998 416.594 426.326 418.784C426.655 420.974 425.669 423.493 423.589 424.588C421.508 425.683 418.771 425.026 417.676 423.055C415.705 419.66 418.223 416.704 420.742 414.624C422.603 413.31 423.917 407.944 420.194 408.382Z" stroke="black" stroke-width="0.75" stroke-miterlimit="10" stroke-linecap="round" stroke-linejoin="round"/>
<path d="M425.779 405.207C425.669 405.097 425.669 405.207 425.669 405.316C425.669 406.083 425.669 406.74 425.669 407.506C425.669 407.835 425.779 408.273 426.107 408.273C426.436 408.273 426.655 407.944 426.764 407.725C426.983 406.959 427.093 406.192 426.983 405.426C426.983 405.316 426.874 405.207 426.764 405.207C426.545 406.192 426.655 407.178 427.093 408.054C427.202 407.506 427.421 406.959 427.75 406.521L427.859 406.411C427.969 406.411 428.078 406.521 428.078 406.63C428.297 407.068 428.407 407.725 428.735 408.054C428.735 408.163 428.845 408.163 428.954 408.163C429.064 408.163 429.173 408.054 429.173 408.054C429.392 407.725 429.721 407.397 429.83 407.068" stroke="black" stroke-width="0.5" stroke-miterlimit="10" stroke-linecap="round" stroke-linejoin="round"/>
<path d="M423.698 406.63C424.246 407.068 425.231 406.849 425.45 406.192" stroke="black" stroke-width="0.5" stroke-miterlimit="10" stroke-linecap="round" stroke-linejoin="round"/>
<path d="M439.466 483.279H356.904V539.89H439.466V483.279Z" fill="#E8E8E8" stroke="black" stroke-miterlimit="10" stroke-linecap="round" stroke-linejoin="round"/>
<path d="M398.185 493.353C400.18 493.353 401.798 491.735 401.798 489.74C401.798 487.744 400.18 486.126 398.185 486.126C396.189 486.126 394.571 487.744 394.571 489.74C394.571 491.735 396.189 493.353 398.185 493.353Z" fill="white" stroke="black" stroke-miterlimit="10" stroke-linecap="round" stroke-linejoin="round"/>
<path d="M374.971 508.464H364.021V519.414H374.971V508.464Z" fill="white" stroke="black" stroke-miterlimit="10" stroke-linecap="round" stroke-linejoin="round"/>
<path d="M389.315 508.464H378.365V519.414H389.315V508.464Z" fill="#E3FAFF" stroke="black" stroke-miterlimit="10" stroke-linecap="round" stroke-linejoin="round"/>
<path d="M403.66 508.464H392.71V519.414H403.66V508.464Z" fill="#8CD6FF" stroke="black" stroke-miterlimit="10" stroke-linecap="round" stroke-linejoin="round"/>
<path d="M418.004 508.464H407.054V519.414H418.004V508.464Z" fill="#00B0D7" stroke="black" stroke-miterlimit="10" stroke-linecap="round" stroke-linejoin="round"/>
<path d="M432.239 508.464H421.289V519.414H432.239V508.464Z" fill="#0096C6" stroke="black" stroke-miterlimit="10" stroke-linecap="round" stroke-linejoin="round"/>
<path d="M406.288 639.316L369.496 637.126L373.766 528.065H407.711L406.288 639.316Z" fill="#E6E6ED" stroke="black" stroke-miterlimit="10" stroke-linecap="round" stroke-linejoin="round"/>
<path d="M389.972 538.796C391.968 538.796 393.586 537.178 393.586 535.182C393.586 533.186 391.968 531.569 389.972 531.569C387.977 531.569 386.359 533.186 386.359 535.182C386.359 537.178 387.977 538.796 389.972 538.796Z" fill="white" stroke="black" stroke-miterlimit="10" stroke-linecap="round" stroke-linejoin="round"/>
<path d="M378.584 554.782C379.022 554.563 378.475 553.797 378.037 554.016C377.599 554.235 377.489 554.782 377.489 555.33C377.489 555.768 377.489 556.206 377.599 556.644C377.818 557.082 378.256 557.41 378.694 557.301C379.351 557.191 379.46 556.315 379.46 555.549C379.132 555.877 379.679 556.425 380.117 556.315C380.555 556.206 380.884 555.768 381.103 555.439C380.993 555.877 381.212 556.425 381.65 556.644C382.088 556.863 382.636 556.753 382.964 556.315C383.512 556.753 384.388 556.644 384.935 556.096C385.483 555.549 385.483 554.673 385.045 554.125C384.169 554.563 383.95 556.096 384.826 556.753C385.702 557.41 387.016 556.863 387.235 555.877C387.563 556.425 388.111 557.082 388.658 556.753C389.096 556.534 389.206 555.658 389.753 555.658C389.972 555.658 390.191 555.877 390.41 556.096C390.848 556.315 391.615 555.987 391.615 555.439C391.943 555.768 392.381 556.096 392.819 556.096C393.257 556.096 393.805 555.768 393.805 555.33C393.805 555.987 394.462 556.644 395.228 556.644C395.995 556.644 396.542 555.877 396.433 555.22C395.776 555.658 396.104 556.863 396.871 557.082C397.637 557.301 398.513 556.644 398.732 555.877C398.951 555.111 398.842 554.235 398.623 553.468C398.404 552.702 397.637 551.716 396.871 552.045C396.542 552.154 396.433 552.592 396.214 552.811C395.885 553.687 395.776 554.673 395.995 555.549C396.214 556.425 396.98 557.191 397.966 557.301C398.951 557.41 399.827 556.753 399.937 555.877C400.375 556.644 401.032 557.191 401.798 557.41" stroke="black" stroke-width="0.5" stroke-miterlimit="10" stroke-linecap="round" stroke-linejoin="round"/>
<path d="M377.161 569.127C376.832 568.032 377.38 566.718 378.365 566.061C378.584 567.156 378.694 568.36 378.694 569.455C379.351 569.127 380.008 568.47 380.227 567.813C380.227 568.36 380.774 568.908 381.431 568.908C381.979 568.908 382.526 568.36 382.636 567.813C382.636 568.36 383.183 568.908 383.731 568.908C384.278 568.908 384.935 568.36 384.935 567.813C385.373 568.47 386.359 568.689 387.125 568.251C387.673 567.922 388.001 567.375 388.22 566.827C388.439 566.389 388.658 565.842 388.439 565.294C388.33 564.747 387.673 564.418 387.235 564.637C386.906 564.856 386.906 565.185 386.797 565.513C386.578 566.608 386.578 567.922 387.454 568.579C388.111 569.017 388.987 569.017 389.753 568.689C390.52 568.36 390.958 567.703 391.396 566.937C391.834 567.046 392.053 567.484 392.381 567.922C392.71 568.251 393.148 568.579 393.586 568.36C393.805 568.251 394.024 567.922 394.243 567.813C394.681 567.484 395.338 567.813 395.776 568.141C396.214 568.47 396.542 569.017 397.09 569.127C397.856 569.346 398.623 568.908 398.951 568.251C399.28 567.594 399.28 566.827 399.17 566.061C398.513 566.608 398.185 567.594 398.513 568.36" stroke="black" stroke-width="0.5" stroke-miterlimit="10" stroke-linecap="round" stroke-linejoin="round"/>
<path d="M377.927 577.23C378.146 576.901 377.927 576.354 377.599 576.135C377.161 576.792 376.942 577.668 376.942 578.434C376.942 578.544 376.942 578.763 377.051 578.872C377.27 579.201 377.927 578.982 378.146 578.653C378.365 578.325 378.584 577.777 379.022 577.668C379.241 578.215 379.46 578.653 379.898 579.091C380.227 578.544 380.555 577.996 380.993 577.558C381.103 577.449 381.212 577.339 381.322 577.339C381.65 577.339 381.76 577.777 381.979 577.887C382.417 578.325 383.074 577.668 383.402 577.12C383.84 577.777 384.388 578.325 385.154 578.653" stroke="black" stroke-width="0.5" stroke-miterlimit="10" stroke-linecap="round" stroke-linejoin="round"/>
<path d="M393.148 576.682C393.476 575.806 393.805 575.04 394.024 574.164C393.367 573.945 392.6 574.273 392.272 574.821C391.834 575.368 391.724 576.025 391.724 576.792C391.724 577.558 391.943 578.544 392.71 578.653C393.695 578.763 394.133 577.558 394.79 576.901C394.9 576.792 395.009 576.682 395.119 576.792C395.228 576.792 395.338 576.901 395.338 577.011C395.557 577.339 395.776 577.668 395.885 577.996C396.542 578.106 396.871 576.682 397.528 577.011C397.856 577.23 397.747 577.777 398.075 577.887C398.294 577.996 398.404 577.887 398.623 577.887C399.28 577.887 399.718 578.872 400.484 578.872C401.032 578.763 401.251 577.996 401.251 577.449C401.251 577.011 401.251 576.463 400.922 576.135C400.265 575.697 399.499 576.463 399.17 577.23C398.294 579.091 397.856 581.172 397.966 583.252C397.966 585.004 398.404 586.975 397.637 588.508C397.309 589.165 396.652 589.713 395.995 589.603C395.338 589.494 394.9 588.837 394.79 588.18C394.681 587.523 395.009 586.866 395.228 586.318C396.214 584.238 397.637 582.376 399.389 580.953" stroke="black" stroke-width="0.5" stroke-miterlimit="10" stroke-linecap="round" stroke-linejoin="round"/>
<path d="M378.037 591.684C377.818 590.917 377.489 590.041 377.708 589.165C377.818 588.289 378.475 587.523 379.351 587.413C379.898 588.837 380.117 590.37 379.898 591.903C380.117 591.136 380.446 590.37 380.993 589.713C381.322 590.698 381.76 591.574 382.088 592.56C382.636 592.012 383.183 591.246 383.402 590.479C383.621 591.136 384.278 591.574 384.935 591.465C385.592 591.355 386.249 590.917 386.359 590.26C386.687 591.136 388.111 591.136 388.549 590.37C388.658 590.151 388.768 589.932 388.877 589.822C389.206 589.713 389.534 589.932 389.863 590.041C390.848 590.589 392.381 589.822 392.381 588.618C392.381 587.523 390.739 586.647 389.972 587.523C389.644 587.742 389.534 588.18 389.425 588.508C389.206 589.932 390.082 591.355 391.396 591.793C392.71 592.231 394.352 591.574 394.9 590.26C395.228 591.027 395.666 591.684 396.323 592.121C396.761 591.574 397.309 591.136 397.747 590.589C398.075 591.246 398.513 591.903 399.28 592.012C399.937 592.122 400.813 591.246 400.375 590.698" stroke="black" stroke-width="0.5" stroke-miterlimit="10" stroke-linecap="round" stroke-linejoin="round"/>
<path d="M376.723 599.348C377.161 599.896 377.27 600.991 378.037 600.991C378.913 600.991 378.803 599.129 379.679 599.129C380.336 599.02 380.884 600.005 381.431 599.786C381.65 599.677 381.869 599.348 382.088 599.239C382.855 598.801 383.621 600.115 384.497 600.005C384.935 600.005 385.264 599.677 385.592 599.458C386.359 599.02 387.235 598.801 388.111 599.02C388.33 599.02 388.658 599.348 388.439 599.458" stroke="black" stroke-width="0.5" stroke-miterlimit="10" stroke-linecap="round" stroke-linejoin="round"/>
<path d="M379.789 611.174C379.789 610.955 379.46 611.065 379.351 611.284C379.022 611.831 378.584 612.598 378.803 613.255C379.022 613.912 380.117 614.131 380.336 613.474C380.446 613.802 380.774 614.131 381.103 614.35C381.322 613.693 382.088 613.364 382.636 613.693C382.855 613.802 383.074 613.912 383.293 613.912C383.731 613.912 383.95 613.474 384.278 613.255C384.826 612.926 385.483 613.474 386.14 613.583C386.906 613.583 387.454 612.926 387.892 612.379C388.111 612.16 388.22 611.831 388.001 611.612C387.673 611.284 387.344 611.831 387.235 612.16C387.016 612.926 387.125 613.912 387.673 614.459C388.22 615.007 389.425 614.897 389.644 614.131C389.863 614.678 390.191 615.116 390.629 615.445C390.848 614.897 391.177 614.24 391.724 614.021C392.272 613.802 393.148 614.35 392.929 614.897C393.914 614.788 394.571 613.364 395.557 613.474C395.885 613.474 396.214 613.693 396.542 613.693C397.199 613.693 397.637 612.926 398.294 612.707C399.061 612.598 399.718 613.255 399.937 614.021C400.484 615.664 400.046 617.525 398.842 618.73C397.966 616.978 398.732 614.459 400.484 613.583C400.703 613.802 400.594 614.24 400.375 614.459" stroke="black" stroke-width="0.5" stroke-miterlimit="10" stroke-linecap="round" stroke-linejoin="round"/>
<path d="M377.38 622.562C377.599 622.672 377.818 622.343 377.708 622.124C377.599 621.905 377.38 621.796 377.161 621.796C376.613 622.672 376.394 623.657 376.613 624.643C376.613 624.862 376.723 625.081 376.832 625.19C377.161 625.628 377.818 625.519 378.256 625.19C378.694 624.862 378.803 624.314 379.022 623.767C379.351 624.205 379.898 624.752 380.336 624.424C380.555 624.314 380.555 623.986 380.665 623.767C380.774 623.548 380.993 623.329 381.212 623.438C381.431 623.548 381.431 623.876 381.541 624.095C381.65 624.424 382.088 624.533 382.307 624.424C382.636 624.314 382.745 623.876 382.526 623.657C383.95 624.314 385.483 625.081 387.016 624.643C387.454 624.533 387.892 624.314 388.439 624.205C388.877 624.205 389.534 624.424 389.534 624.971" stroke="black" stroke-width="0.5" stroke-miterlimit="10" stroke-linecap="round" stroke-linejoin="round"/>
<path d="M557.439 341.968L475.091 347.941L479.187 404.405L561.535 398.432L557.439 341.968Z" fill="white" stroke="black" stroke-miterlimit="10" stroke-linecap="round" stroke-linejoin="round"/>
<path d="M516.553 357.465C519.214 357.465 521.371 355.308 521.371 352.647C521.371 349.986 519.214 347.829 516.553 347.829C513.893 347.829 511.735 349.986 511.735 352.647C511.735 355.308 513.893 357.465 516.553 357.465Z" fill="#8CD6FF" stroke="black" stroke-miterlimit="10" stroke-linecap="round" stroke-linejoin="round"/>
<path opacity="0.15" d="M509.983 382.978C515.789 382.978 520.495 378.272 520.495 372.466C520.495 366.661 515.789 361.954 509.983 361.954C504.178 361.954 499.471 366.661 499.471 372.466C499.471 378.272 504.178 382.978 509.983 382.978Z" fill="#AFA5C1"/>
<path opacity="0.15" d="M526.846 383.635C533.136 383.635 538.234 378.537 538.234 372.247C538.234 365.958 533.136 360.859 526.846 360.859C520.557 360.859 515.458 365.958 515.458 372.247C515.458 378.537 520.557 383.635 526.846 383.635Z" fill="#CDBFDE"/>
<path opacity="0.15" d="M518.962 395.571C525.252 395.571 530.35 390.472 530.35 384.183C530.35 377.893 525.252 372.795 518.962 372.795C512.673 372.795 507.574 377.893 507.574 384.183C507.574 390.472 512.673 395.571 518.962 395.571Z" fill="#A187BF"/>
<path d="M586.523 576.682C619.24 576.682 645.762 536.678 645.762 487.331C645.762 437.984 619.24 397.98 586.523 397.98C553.806 397.98 527.284 437.984 527.284 487.331C527.284 536.678 553.806 576.682 586.523 576.682Z" fill="#262626" stroke="black" stroke-miterlimit="10" stroke-linecap="round" stroke-linejoin="round"/>
<path d="M571.412 567.484C570.865 568.251 571.85 569.236 572.726 569.565C576.449 571.426 580.172 573.178 583.895 575.04C585.976 576.025 588.056 577.011 590.246 577.558C595.721 578.872 601.415 577.011 606.562 574.602C610.504 572.631 614.336 570.222 616.964 566.608C617.292 566.17 617.511 565.732 617.511 565.294C617.511 564.856 617.183 564.418 616.964 563.98C614.993 561.133 612.913 558.505 610.723 555.877C609.19 554.125 607.657 552.373 606.343 550.512C602.072 544.38 600.649 536.715 600.101 529.269C599.992 528.284 599.006 527.736 598.021 527.846C597.145 527.955 596.269 528.503 595.502 528.941C592.436 530.802 589.042 532.116 585.538 532.554C583.786 532.883 581.815 532.554 580.063 532.773C578.311 533.102 578.53 533.211 578.749 535.073C579.734 542.409 579.515 549.417 577.106 556.425C575.573 560.367 573.712 564.09 571.412 567.484Z" fill="white" stroke="black" stroke-miterlimit="10" stroke-linecap="round" stroke-linejoin="round"/>
<path d="M654.194 652.346C623.315 796.228 604.481 754.947 627.148 766.663C649.814 778.38 652.442 799.184 652.442 799.184C665.144 756.042 729.42 603.4 720.55 569.784C711.681 536.168 667.334 535.73 653.975 540.438C640.616 545.146 617.293 552.264 617.293 552.264C592.984 564.199 571.303 554.454 571.303 554.454C571.303 554.454 541.41 535.292 529.803 534.744C518.086 534.087 489.069 514.815 489.069 514.815C489.069 514.815 497.829 485.36 529.255 454.043C529.255 454.043 530.898 431.486 499.91 405.207C499.91 405.207 490.274 400.389 435.414 511.859C435.414 511.859 414.062 551.826 485.784 600.005C557.506 648.185 537.358 682.239 539.22 785.278C539.22 785.278 573.712 814.514 707.301 805.754C707.301 805.754 735.114 802.141 729.639 756.042C724.383 711.257 719.784 651.032 723.288 614.131C723.507 612.16 724.383 593.107 724.164 591.136C723.069 583.581 720.003 564.418 716.937 560.805" fill="#39CFFE"/>
<path d="M654.194 652.346C623.315 796.228 604.481 754.947 627.148 766.663C649.814 778.38 652.442 799.184 652.442 799.184C665.144 756.042 729.42 603.4 720.55 569.784C711.681 536.168 667.334 535.73 653.975 540.438C640.616 545.146 617.293 552.264 617.293 552.264C592.984 564.199 571.303 554.454 571.303 554.454C571.303 554.454 541.41 535.292 529.803 534.744C518.086 534.087 489.069 514.815 489.069 514.815C489.069 514.815 497.829 485.36 529.255 454.043C529.255 454.043 530.898 431.486 499.91 405.207C499.91 405.207 490.274 400.389 435.414 511.859C435.414 511.859 414.062 551.826 485.784 600.005C557.506 648.185 537.358 682.239 539.22 785.278C539.22 785.278 573.712 814.514 707.301 805.754C707.301 805.754 735.114 802.141 729.639 756.042C724.383 711.257 719.784 651.032 723.288 614.131C723.507 612.16 724.383 593.107 724.164 591.136C723.069 583.581 720.003 564.418 716.937 560.805" stroke="black" stroke-miterlimit="10" stroke-linecap="round" stroke-linejoin="round"/>
<path d="M611.599 784.293H305.001C303.14 784.293 301.607 782.76 301.607 780.898V771.591C301.607 769.729 303.14 768.196 305.001 768.196H603.058C609.628 768.196 614.993 773.562 614.993 780.132V780.898C614.993 782.76 613.46 784.293 611.599 784.293Z" fill="#CECFDB" stroke="black" stroke-miterlimit="10"/>
<path d="M284.196 633.403H481.185C491.369 633.403 500.238 640.52 502.318 650.594L525.642 761.188C528.16 773.124 519.072 784.293 506.917 784.293H309.272C299.636 784.293 291.314 777.613 289.233 768.196L264.486 658.04C261.639 645.448 271.275 633.403 284.196 633.403Z" fill="#F4F4F5" stroke="black" stroke-miterlimit="10"/>
<path d="M389.938 719.446C392.766 719.161 394.7 715.369 394.257 710.976C393.814 706.584 391.163 703.254 388.334 703.539C385.506 703.824 383.573 707.616 384.015 712.009C384.458 716.401 387.11 719.731 389.938 719.446Z" fill="#CCCCCB" stroke="black" stroke-miterlimit="10" stroke-linecap="round" stroke-linejoin="round"/>
<path d="M602.729 772.905C602.729 772.905 606.671 775.095 605.795 777.285" stroke="black" stroke-miterlimit="10" stroke-linecap="round" stroke-linejoin="round"/>
<path d="M396.104 715.856C396.104 715.856 396.214 719.688 393.367 721.112Z" fill="#F4F4F5"/>
<path d="M396.104 715.856C396.104 715.856 396.214 719.688 393.367 721.112" stroke="black" stroke-miterlimit="10" stroke-linecap="round" stroke-linejoin="round"/>
<path d="M638.426 774.328C635.688 772.138 632.841 770.167 629.775 767.758C624.3 763.488 618.826 756.918 611.051 758.67C601.306 760.86 594.845 765.568 589.808 772.467C584.771 779.475 593.641 774.438 593.641 774.438C593.641 774.438 591.013 776.847 590.027 779.146C589.042 781.555 594.517 780.022 596.816 778.599C596.816 778.599 593.531 781.555 594.736 783.088C595.94 784.512 600.649 781.884 601.525 781.446C602.291 781.008 603.058 780.679 603.058 780.679C603.058 780.679 600.868 781.993 600.43 783.636C599.992 785.278 601.634 786.045 606.671 785.278C609.628 784.84 616.964 780.679 619.045 783.855C619.592 784.731 619.811 785.607 620.249 786.592C622.11 790.644 627.038 792.615 631.527 792.396C636.017 792.177 640.178 790.206 644.339 788.235C645.543 787.687 646.857 786.921 646.967 785.607C647.076 784.84 646.748 784.074 646.31 783.417C644.12 779.475 641.382 776.737 638.426 774.328Z" fill="white" stroke="black" stroke-miterlimit="10" stroke-linecap="round" stroke-linejoin="round"/>
<path d="M593.641 774.438C593.641 774.438 600.758 765.897 608.423 764.802Z" fill="white"/>
<path d="M593.641 774.438C593.641 774.438 600.758 765.897 608.423 764.802" stroke="black" stroke-miterlimit="10" stroke-linecap="round" stroke-linejoin="round"/>
<path d="M596.816 778.599C596.816 778.599 608.861 767.43 614.993 767.868Z" fill="white"/>
<path d="M596.816 778.599C596.816 778.599 608.861 767.43 614.993 767.868" stroke="black" stroke-miterlimit="10" stroke-linecap="round" stroke-linejoin="round"/>
<path d="M602.948 780.679C602.948 780.679 612.146 775.423 617.511 773.671Z" fill="white"/>
<path d="M602.948 780.679C602.948 780.679 612.146 775.423 617.511 773.671" stroke="black" stroke-miterlimit="10" stroke-linecap="round" stroke-linejoin="round"/>
<path d="M617.84 782.431C617.84 782.431 620.906 780.351 621.453 778.38Z" fill="white"/>
<path d="M617.84 782.431C617.84 782.431 620.906 780.351 621.453 778.38" stroke="black" stroke-miterlimit="10" stroke-linecap="round" stroke-linejoin="round"/>
<path d="M662.078 750.786C662.078 750.786 651.237 767.649 647.514 770.167Z" fill="#5C58A6"/>
<path d="M662.078 750.786C662.078 750.786 651.237 767.649 647.514 770.167" stroke="black" stroke-miterlimit="10" stroke-linecap="round" stroke-linejoin="round"/>
<path d="M520.167 629.351C520.167 629.351 537.906 633.293 542.067 643.039Z" fill="#5C58A6"/>
<path d="M520.167 629.351C520.167 629.351 537.906 633.293 542.067 643.039" stroke="black" stroke-miterlimit="10" stroke-linecap="round" stroke-linejoin="round"/>
<path d="M494.435 534.744C494.435 534.744 521.7 553.03 524.985 561.243Z" fill="#5C58A6"/>
<path d="M494.435 534.744C494.435 534.744 521.7 553.03 524.985 561.243" stroke="black" stroke-miterlimit="10" stroke-linecap="round" stroke-linejoin="round"/>
<path d="M706.206 572.959C706.206 572.959 705.768 579.748 701.935 584.895Z" fill="#5C58A6"/>
<path d="M706.206 572.959C706.206 572.959 705.768 579.748 701.935 584.895" stroke="black" stroke-miterlimit="10" stroke-linecap="round" stroke-linejoin="round"/>
<path d="M499.471 419.222C499.471 419.222 491.916 423.602 487.755 436.742Z" fill="#5C58A6"/>
<path d="M499.471 419.222C499.471 419.222 491.916 423.602 487.755 436.742" stroke="black" stroke-miterlimit="10" stroke-linecap="round" stroke-linejoin="round"/>
<path d="M584.99 547.994C587.399 549.089 589.151 551.498 589.48 554.126" stroke="black" stroke-miterlimit="10" stroke-linecap="round" stroke-linejoin="round"/>
<path d="M538.015 439.042C534.292 444.407 532.978 451.087 532.431 457.547C531.117 473.315 533.526 490.068 539.877 504.632C546.666 520.29 557.725 529.488 572.945 536.606C577.325 538.686 582.034 540.766 586.961 540.547C601.306 540.109 611.599 523.575 618.388 512.844C622.768 505.946 626.381 498.5 628.023 490.506C630.542 478.571 627.147 466.964 622.877 455.795C618.607 444.845 612.584 433.676 602.072 428.42C592.546 423.602 577.216 421.084 566.485 422.179C556.302 423.164 543.928 430.829 538.015 439.042Z" fill="white" stroke="black" stroke-miterlimit="10" stroke-linecap="round" stroke-linejoin="round"/>
<path d="M527.832 449.554C527.503 444.626 524.766 439.589 522.247 433.457C518.415 424.15 524.656 417.908 529.255 410.353C533.745 403.126 539.001 396.447 545.133 390.643C564.295 372.576 593.531 364.035 617.402 374.656C647.624 388.015 660.216 425.135 663.939 458.752C668.976 504.96 663.501 552.264 648.062 595.954C647.952 596.392 647.295 596.392 647.076 595.954L642.149 583.033C641.93 582.595 641.382 582.595 641.163 583.033L637.769 593.107C637.55 593.655 636.893 593.545 636.783 592.998C636.345 590.589 635.141 588.289 633.498 586.647C633.279 586.428 632.841 586.537 632.622 586.866L625.614 602.743C625.395 603.29 624.629 603.071 624.629 602.524C625.395 558.177 621.782 513.72 613.898 470.14C613.898 469.811 613.57 469.702 613.351 469.702C601.525 471.454 589.37 469.483 578.201 465.322C571.303 462.803 564.733 459.409 558.382 455.576C556.52 454.372 546.118 449.225 543.271 445.721C542.943 445.393 542.395 445.502 542.395 445.94C539.22 470.249 541.957 495.215 549.075 518.648C553.783 534.306 562.543 552.373 561.01 569.346C561.01 569.893 560.243 570.003 560.024 569.455C559.148 567.375 557.834 565.623 556.082 564.309C555.754 564.09 555.425 564.309 555.316 564.637L550.389 581.829C550.279 582.376 549.513 582.376 549.403 581.829C548.856 579.529 547.87 577.339 546.556 575.478C546.228 575.04 545.68 575.259 545.68 575.697C545.352 578.325 543.271 582.924 542.176 585.223C541.957 585.661 541.41 585.661 541.191 585.223C540.205 582.595 538.782 580.077 536.592 578.325C535.606 577.558 534.183 576.901 533.197 577.558C532.65 577.996 532.321 578.653 531.993 579.31L528.27 588.618C528.16 588.946 527.613 589.056 527.394 588.727C518.853 578.215 515.458 564.199 513.049 550.731C510.969 539.233 509.326 527.736 508.45 516.129C507.246 500.69 501.661 484.922 512.83 471.673C515.677 468.278 519.181 465.541 522.247 462.475C526.737 457.766 528.051 453.715 527.832 449.554Z" fill="#3A3A3A" stroke="black" stroke-miterlimit="10" stroke-linecap="round" stroke-linejoin="round"/>
<path d="M563.966 494.448C566.385 494.448 568.346 491.85 568.346 488.645C568.346 485.44 566.385 482.842 563.966 482.842C561.547 482.842 559.586 485.44 559.586 488.645C559.586 491.85 561.547 494.448 563.966 494.448Z" fill="black"/>
<path d="M595.502 494.448C597.921 494.448 599.882 491.85 599.882 488.645C599.882 485.44 597.921 482.842 595.502 482.842C593.083 482.842 591.122 485.44 591.122 488.645C591.122 491.85 593.083 494.448 595.502 494.448Z" fill="black"/>
<path d="M556.958 474.41C557.287 473.644 557.835 472.877 558.711 472.549C559.587 472.22 560.462 472.33 561.229 472.658C561.667 472.877 562.105 473.315 562.433 473.644" stroke="#181818" stroke-miterlimit="10" stroke-linecap="round" stroke-linejoin="round"/>
<path d="M589.37 474.41C589.699 473.644 590.246 472.877 591.122 472.549C591.998 472.22 592.874 472.33 593.641 472.658C594.079 472.877 594.517 473.315 594.845 473.644" stroke="#181818" stroke-miterlimit="10" stroke-linecap="round" stroke-linejoin="round"/>
<path d="M582.91 516.677C583.348 516.348 586.633 509.559 594.188 512.187" stroke="#2A2A2A" stroke-miterlimit="10" stroke-linecap="round" stroke-linejoin="round"/>
<path d="M563.966 377.613C563.966 377.613 654.741 389.986 651.675 465.979" stroke="black" stroke-miterlimit="10" stroke-linecap="round" stroke-linejoin="round"/>
<path d="M613.46 469.811C613.46 469.811 630.651 471.015 635.141 466.198" stroke="black" stroke-miterlimit="10" stroke-linecap="round" stroke-linejoin="round"/>
<path d="M552.907 387.906C553.455 389.767 553.345 397.323 551.155 398.199C548.965 399.075 546.994 390.205 546.994 390.205C546.994 390.205 548.965 399.184 545.899 400.279C542.833 401.374 543.271 393.162 543.271 393.162C543.6 400.498 541.629 402.031 540.205 401.812C538.782 401.593 539.22 397.98 539.22 397.98C539.22 397.98 543.6 385.387 552.907 387.906Z" fill="white" stroke="black" stroke-miterlimit="10" stroke-linecap="round" stroke-linejoin="round"/>
<path d="M512.502 417.251C512.173 416.923 511.954 416.594 511.626 416.375C510.531 415.39 509.326 414.404 508.669 412.981C507.574 410.791 509.107 409.148 509.983 407.287C510.969 404.987 512.064 402.688 513.268 400.389C514.801 397.213 516.553 394.038 518.305 390.972C519.291 389.329 523.014 388.563 524.766 387.687C527.941 385.935 536.154 382.65 536.154 382.65C536.154 382.65 543.709 377.284 547.323 380.788C547.323 380.788 561.448 381.664 561.119 388.234C561.119 388.234 558.82 391.629 555.097 388.563C551.374 385.497 538.015 391.957 535.606 406.849C535.606 406.849 539.001 406.849 552.25 392.833C552.25 392.833 558.601 389.548 557.287 396.228C557.287 396.228 549.294 404.659 547.87 408.272C546.447 411.886 539.548 420.974 531.007 422.617C528.051 423.164 525.313 424.807 522.795 426.34C520.933 427.216 521.262 428.311 519.51 427.216C518.305 426.449 517.21 423.821 516.334 422.617C515.13 420.755 514.035 419.003 512.502 417.251Z" fill="white" stroke="black" stroke-miterlimit="10" stroke-linecap="round" stroke-linejoin="round"/>
<path d="M547.213 380.788C547.213 380.788 539.877 384.183 531.993 392.833" stroke="black" stroke-miterlimit="10" stroke-linecap="round" stroke-linejoin="round"/>
<path d="M535.387 382.65C535.387 382.65 525.861 387.577 524.766 388.453" stroke="black" stroke-miterlimit="10" stroke-linecap="round" stroke-linejoin="round"/>
<path d="M1018.39 810.572H58.0804V794.366C58.0804 788.782 62.5699 784.292 68.1544 784.292H1007.99C1013.68 784.292 1018.39 788.891 1018.39 794.695V810.572V810.572Z" fill="#AAA6BF" stroke="black" stroke-miterlimit="10" stroke-linecap="round" stroke-linejoin="round"/>
<path d="M1003.71 791.082C1003.71 791.082 1009.52 798.856 1001.74 803.236" stroke="black" stroke-miterlimit="10" stroke-linecap="round" stroke-linejoin="round"/>
<path d="M729.08 392.51C727.7 396.53 723.421 399.409 719.189 397.188C714.941 394.958 716.65 389.046 718.522 385.922C722.242 379.716 733.123 379.259 738.673 382.987C742.249 385.389 743.566 390.846 743.633 394.935C743.742 401.568 739.106 406.887 732.968 408.842C728.036 410.412 722.367 409.827 717.338 409.428C712.375 409.034 706.734 408.731 702.18 406.403C697.174 403.845 695.605 398.089 695.223 392.87C694.643 384.944 698.453 374.188 704.477 368.828C710.348 363.603 719.271 362.493 726.673 364.683C731.88 366.223 734.704 375.293 735.976 379.715C737.985 386.697 738.719 395.202 734.898 401.728C733.174 404.673 730.275 405.498 727.105 404.11C720.509 401.224 717.305 394.289 715.298 387.832C714.331 384.719 713.59 379.346 716.585 376.974C721.09 373.405 728.688 374.807 733.795 375.68C737.099 376.244 742.118 377.37 742.762 381.391C743.016 382.977 742.931 384.948 741.717 386.153C738.669 389.174 733.27 391.439 729.192 392.559C717.097 395.88 718.779 378.264 721.07 372.009C724.324 363.126 729.763 356.895 739.239 354.931C748.086 353.098 755.49 354.032 761.982 360.609C772.374 371.136 766.881 391.402 757.047 400.379C751.919 405.06 744.023 407.639 737.248 408.595C729.766 409.651 721.954 410.208 714.392 409.696C705.148 409.069 699.354 402.179 695.556 394.16C693.69 390.221 692.68 385.324 693.228 380.97C693.777 376.616 699.389 372.26 702.674 369.944C710.218 364.626 721.817 362.927 730.906 362.899C732.916 362.893 733.505 364.657 734.293 366.274C737.406 372.657 738.945 379.644 740.045 386.639C740.916 392.182 741.036 398.059 740.21 403.612C739.692 407.093 738.08 408.833 735.328 410.952C732.188 413.37 729.316 416.047 726.251 418.549C724.864 419.681 722.001 422.949 719.94 422.456C710.277 420.143 704.373 410.502 701.699 401.603C698.851 392.125 697.8 379.817 703.066 370.867C706.402 365.196 713.429 363.223 719.286 361.434C729.334 358.365 739.222 353.778 749.93 354.57C755.603 354.989 761.035 356.824 766.162 359.233C769.721 360.906 771.028 363.3 771.887 367.047C774.54 378.623 775.407 389.922 770.742 401.031C767.459 408.847 760.62 413.735 753.514 418.031C747.867 421.446 740.425 426.509 733.452 424.336C724.159 421.441 713.586 416.918 707.947 408.547C703.708 402.254 700.889 395.319 698.393 388.199C696.19 381.913 693.818 375.452 692.976 368.806C692.227 362.895 697.778 360.623 702.279 358.496C707.015 356.259 711.965 354.384 716.938 352.749C719.925 351.767 723.041 350.715 726.23 350.852C729.043 350.974 731.92 352.774 734.332 354.074C737.279 355.662 741.137 357.625 743.033 360.517C744.395 362.595 744.88 365.611 745.563 367.974C746.648 371.726 747.766 375.57 748.636 379.378C749.32 382.369 749.954 386.094 749.579 389.151C748.954 394.236 744.697 397.716 741.527 401.331C738.185 405.143 735.11 406.78 730.102 407.577C721.705 408.914 713.342 403.427 709.175 396.555C701.647 384.14 695.453 362.247 711.528 353.921C716.894 351.142 723.343 350.087 729.202 348.954C734.711 347.888 740.016 346.883 745.657 346.868C751.062 346.854 758.559 347.051 763.083 350.62C765.384 352.434 766.805 355.099 767.798 357.8C770.735 365.789 769.938 373.471 767.212 381.357C764.293 389.799 758.854 399.517 752.104 405.401C749.506 407.666 746.171 409.311 743.229 411.092C742.287 411.662 741.672 411.078 740.727 411.198C738.806 411.441 737.058 412.424 735.247 412.653C732.436 413.009 730.361 410.634 728.479 408.777C721.674 402.062 717.556 391.728 715.44 382.614C713.881 375.902 711.491 368.559 713.513 361.743C714.937 356.944 720.834 355.092 725.008 353.882C730.925 352.167 734.786 353.332 739.458 356.996C747.221 363.084 753.126 371.959 756.335 381.256C759.918 391.634 758.798 403.777 754.683 413.74C753.323 417.031 750.136 418.136 747.461 420.13C743.842 422.827 740.57 425.09 736.452 426.662C731.667 428.488 727.052 430.689 722.189 432.359C719.857 433.159 717.573 434.263 715.2 434.914C714.203 435.188 713.22 435.068 712.489 435.702" stroke="black" stroke-linecap="round"/>
<path d="M733.104 394.161C733.104 392.416 734.169 389.784 736.382 389.908C737.599 389.976 736.955 392.498 736.864 393.098C736.426 395.969 733.532 396.421 731.048 395.526C730.193 395.218 729.054 395.036 728.655 394.108C728.082 392.779 727.583 390.752 728.186 389.383C729.262 386.941 731.639 385.918 734.262 385.918C735.37 385.918 736.558 386.693 737.553 387.099C738.78 387.6 740.012 388.09 741.196 388.687C742.142 389.164 742.922 389.431 742.939 390.591C742.985 393.615 743.942 398.719 741.287 400.882C738.343 403.281 733.31 403.983 729.708 403.008C725.962 401.994 724.148 400.871 722.358 397.259C720.067 392.637 721.597 384.526 726.664 382.374C732.847 379.747 739.636 382.263 744.162 386.758C745.411 387.998 747.097 389.287 747.337 391.168C747.853 395.22 746.363 400.294 744.709 403.927C743.589 406.385 741.527 409.299 738.932 410.227C735.773 411.358 731.592 411.686 728.303 411.133C724.467 410.488 722.729 405.245 721.135 402.247C719.154 398.522 716.63 394.534 715.723 390.354C715.016 387.096 714.563 384.019 716.373 381.061C718.533 377.532 723.104 374.021 727.041 372.844C736.063 370.147 746.954 369.854 753.243 378.094C757.038 383.067 760.981 388.51 761.882 394.87C762.679 400.499 761.107 406.491 758.109 411.251C755.76 414.981 753.1 417.845 749.002 419.521C743.195 421.895 736.347 421.432 730.372 419.993C724.408 418.557 719.293 416.268 714.266 412.774C712.43 411.499 710.686 410.227 709.348 408.403C707.349 405.678 706.322 402.274 705.393 399.057C704.035 394.357 703.3 390.327 704.846 385.616C706.65 380.123 709.306 373.932 714.396 370.783C717.881 368.627 721.624 366.485 725.454 365.021C728.548 363.838 731.93 363.442 735.186 363.012C738.044 362.636 740.765 362.435 743.642 362.606C745.972 362.744 749.457 362.559 751.37 364.259C753.383 366.049 754.86 368.982 756.053 371.361C758.406 376.048 760.97 381.05 762.376 386.128C764.322 393.155 763.92 402.256 761.14 409.033C759.78 412.35 757.819 415.478 754.87 417.539C750.99 420.249 746.978 420.922 742.367 421.227C736.081 421.643 729.488 421.616 723.372 419.993C716.683 418.218 710.044 415.785 703.623 413.194C701.38 412.288 701.07 411.954 700.345 409.545C698.513 403.457 698.438 395.813 700.644 389.803C701.625 387.132 703.014 384.134 705.054 382.111C707.483 379.704 710.357 377.821 713.251 376.047C716.222 374.225 719.069 372.197 722.071 370.429C725.05 368.675 728.271 367.46 731.517 366.307C734.651 365.193 737.924 364.246 741.196 363.643C742.412 363.418 743.674 363.358 744.891 363.603C748.586 364.349 749.639 366.409 751.162 369.851C752.467 372.801 753.358 375.909 754.466 378.935C755.5 381.757 756.676 384.506 756.99 387.519C757.466 392.08 757.922 397.682 755.936 401.932C753.713 406.69 748.783 409.531 744.696 412.459C740.276 415.625 735.786 418.252 730.944 420.65C728.869 421.677 726.521 422.426 724.595 423.721C722.796 424.931 721.109 425.836 718.936 426.044C716.904 426.24 715.561 423.24 714.591 421.91C713.292 420.129 712.167 417.693 710.623 416.134" stroke="black" stroke-linecap="round"/>
</svg>
