<svg width="1080" height="1080" viewBox="0 0 1080 1080" fill="none" xmlns="http://www.w3.org/2000/svg">
<rect width="1080" height="1080" fill="white"/>
<path opacity="0.15" d="M700.7 788.9C656.3 820 598.4 842.1 544.9 823.3C495.6 805.9 468.5 755.9 424.8 729.7C368.3 695.9 295.9 708.8 234.1 686.8C208 677.5 183.7 661.6 167 639.2C150.3 616.8 141.7 587.6 146.5 559.9C153.6 519 188 485.3 188.1 443.7C188.2 424.6 180.7 406 181.1 386.8C182 345 221.1 312.4 261.5 304.9C306.6 296.5 368 308 408.1 330.3C449.4 353.2 494.7 374.7 542.9 371.3C585.7 368.3 626.1 345.9 668.9 347.2C696.9 348.1 723.6 359.1 748.1 372.7C769.8 384.8 791.1 399.9 803.4 421.7C827.4 464.6 810.1 518.6 817.5 567.4C822.1 597.5 836.2 628.1 827.1 657.1C821.7 674.2 809 687.8 796.6 700.7C769.2 729.3 741.7 757.9 710.3 781.9C707.2 784.3 704 786.6 700.7 788.9Z" fill="#C2DCFE"/>
<path d="M504.3 825.7H307.8C291.6 825.7 278 815.5 276.5 802.1L249.4 560.5C247.7 545.3 262.2 532.2 280.7 532.2H521.4C539.5 532.2 553.9 544.8 552.8 559.7L535.6 801.3C534.7 814.9 521 825.7 504.3 825.7Z" fill="#A5A4A4" stroke="black" stroke-miterlimit="10"/>
<path d="M321.4 839C321.4 839 313.5 917.4 321.4 925.1C329.3 932.8 408.2 930.9 408.2 930.9L411.7 891.8C411.7 891.8 409.5 930.5 411 931.1C412.5 931.7 504 934.3 503.7 928C503.4 921.7 498 835.2 498 835.2L321.4 839Z" fill="#E2E2E2" stroke="black" stroke-miterlimit="10" stroke-linecap="round" stroke-linejoin="round"/>
<path d="M366.3 539.4C366.3 539.4 454.2 534.7 459.5 542.6C464.8 550.5 453.2 831.2 453.2 831.2H387.1L366.3 539.4Z" fill="white" stroke="black" stroke-miterlimit="10" stroke-linecap="round" stroke-linejoin="round"/>
<path d="M321.4 821.1V839.7C321.4 839.7 487.9 841.9 495.9 836.9C503.9 831.8 499.1 821.1 499.1 821.1H321.4V821.1Z" fill="#3A3A3A" stroke="black" stroke-miterlimit="10" stroke-linecap="round" stroke-linejoin="round"/>
<path d="M426.8 530.6C426.8 530.6 420.8 909.9 429.6 923.4C438.4 936.9 496.5 923.4 506.5 906.5C516.5 889.6 499.2 742.4 499.2 742.4L503.2 555.4C503.2 555.4 429 528.2 426.8 530.6Z" fill="#39CFFE" stroke="black" stroke-miterlimit="10" stroke-linecap="round" stroke-linejoin="round"/>
<path d="M377.3 512.2C377.3 512.2 376.5 532.4 373.7 538.1C373.7 538.1 409.1 581.7 433.9 530.6C433.9 530.6 426.9 527.5 425.9 510C424.7 489 377.3 512.2 377.3 512.2Z" fill="white" stroke="black" stroke-miterlimit="10" stroke-linecap="round" stroke-linejoin="round"/>
<path d="M347.7 539.7C347.7 539.7 363.1 526.4 368.1 523.7C373.1 521 382 555.4 382 555.4C382 555.4 400.5 915.5 394.9 927.9C389.3 940.3 298.4 923.4 291.3 909.9C284.2 896.4 295.2 754.7 295.2 754.7" fill="#39CFFE"/>
<path d="M347.7 539.7C347.7 539.7 363.1 526.4 368.1 523.7C373.1 521 382 555.4 382 555.4C382 555.4 400.5 915.5 394.9 927.9C389.3 940.3 298.4 923.4 291.3 909.9C284.2 896.4 295.2 754.7 295.2 754.7" stroke="black" stroke-miterlimit="10" stroke-linecap="round" stroke-linejoin="round"/>
<path d="M399.2 576.3L383.7 790L408.2 835.2L430.3 788.3L410.8 576.3H399.2Z" fill="#F6FAFF" stroke="black" stroke-miterlimit="10" stroke-linecap="round" stroke-linejoin="round"/>
<path d="M385.3 562.4L401.2 578.3C403.3 580.4 406.7 580.4 408.9 578.3L424.8 562.4C428.2 559 425.8 553.2 421 553.2H389.3C384.3 553.2 381.9 559 385.3 562.4Z" fill="#F6FAFF" stroke="black" stroke-miterlimit="10" stroke-linecap="round" stroke-linejoin="round"/>
<path d="M412.3 568.8C412.3 568.8 412.1 571 408.2 572.7Z" fill="#F6FAFF"/>
<path d="M412.3 568.8C412.3 568.8 412.1 571 408.2 572.7" stroke="black" stroke-miterlimit="10" stroke-linecap="round" stroke-linejoin="round"/>
<path d="M418.3 791.5C418.3 791.5 413.5 813.3 410.9 817.7Z" fill="#F6FAFF"/>
<path d="M418.3 791.5C418.3 791.5 413.5 813.3 410.9 817.7" stroke="black" stroke-miterlimit="10" stroke-linecap="round" stroke-linejoin="round"/>
<path d="M432.1 731.5C432.5 731.5 433 731.6 433.3 731.9C433.6 732.3 433.4 732.7 433.3 733.1C431.6 736.8 428.8 740.2 425.4 742.8C437.7 742.5 450.1 742.9 462.4 744.1C463.7 744.2 465 744.4 466.1 745C467.2 745.6 468 746.9 467.4 747.9C467 748.6 466.2 748.9 465.4 749.2C456.3 752.3 445.9 751.9 435.9 751.4C449.3 751.7 462.7 751.9 476.1 754C477.8 754.3 480 755 479.9 756.5C479.9 757.9 477.9 758.4 476.3 758.5C463.4 759.6 450.4 760.3 437.4 760.6C443.5 761.7 449.6 761.7 455.7 762.4C461.8 763.1 468.1 764.6 472.9 768.1C473.8 768.8 474.8 769.6 475.1 770.6C475.5 771.6 475.1 772.8 474 773.2C473.6 773.3 473.1 773.3 472.6 773.3C459.5 772.9 446.4 771.1 433.6 767.9C439.7 768.8 445.7 770.4 451.7 772C453.8 772.6 456.3 773.4 456.9 775.3C457.4 776.7 456.5 778.1 455.1 778.9C453.8 779.7 452.1 779.9 450.5 780C440.4 780.8 429.9 778.8 420.7 774.4C415.8 772.1 411.3 769.1 406.2 767.2C402.1 765.7 397.4 764.8 394.6 761.7C388.8 755.2 395.6 742.3 403.2 739.7C407.6 738.2 412.8 738.7 417.4 737.3C422.1 735.9 426.5 731.2 432.1 731.5Z" fill="white" stroke="black" stroke-miterlimit="10" stroke-linecap="round" stroke-linejoin="round"/>
<path d="M395.5 731.4L404.9 733.5C404.9 733.5 400.2 768 396.9 770.1C393.6 772.2 381 763.1 381 763.1L392 730.6L395.5 731.4Z" fill="white" stroke="black" stroke-miterlimit="10" stroke-linecap="round" stroke-linejoin="round"/>
<path d="M393.6 767.2C394.428 767.2 395.1 766.529 395.1 765.7C395.1 764.872 394.428 764.2 393.6 764.2C392.772 764.2 392.1 764.872 392.1 765.7C392.1 766.529 392.772 767.2 393.6 767.2Z" fill="black"/>
<path d="M352 536.9C352 536.9 279.9 570.2 279.7 582.5C279.6 588.2 269.4 760.6 273.3 766.8C277.3 773 379.4 783.8 383.1 781.2C386.8 778.7 385.7 758.5 404.9 735.5C408.2 731.6 329.9 715 329.9 715C329.9 715 333 659.9 336.4 625.6" fill="#39CFFE"/>
<path d="M352 536.9C352 536.9 279.9 570.2 279.7 582.5C279.6 588.2 269.4 760.6 273.3 766.8C277.3 773 379.4 783.8 383.1 781.2C386.8 778.7 385.7 758.5 404.9 735.5C408.2 731.6 329.9 715 329.9 715C329.9 715 333 659.9 336.4 625.6" stroke="black" stroke-miterlimit="10" stroke-linecap="round" stroke-linejoin="round"/>
<path d="M443.6 532.7C443.6 532.7 516.8 548.2 523.8 561.7C530.8 575.2 561.4 708.5 570.8 716.1C580.2 723.7 606.8 754.1 606.8 754.1C606.8 754.1 547.3 796.3 537.9 783.6C528.5 770.9 494.1 723.7 487 668" fill="#39CFFE"/>
<path d="M443.6 532.7C443.6 532.7 516.8 548.2 523.8 561.7C530.8 575.2 561.4 708.5 570.8 716.1C580.2 723.7 606.8 754.1 606.8 754.1C606.8 754.1 547.3 796.3 537.9 783.6C528.5 770.9 494.1 723.7 487 668" stroke="black" stroke-miterlimit="10" stroke-linecap="round" stroke-linejoin="round"/>
<path d="M540.2 681.7C540.2 681.7 544.7 695.1 550.3 705.8Z" fill="#39CFFE"/>
<path d="M540.2 681.7C540.2 681.7 544.7 695.1 550.3 705.8" stroke="black" stroke-miterlimit="10" stroke-linecap="round" stroke-linejoin="round"/>
<path d="M298.6 592.6C298.6 592.6 291.8 607.8 297.5 615.4Z" fill="#39CFFE"/>
<path d="M298.6 592.6C298.6 592.6 291.8 607.8 297.5 615.4" stroke="black" stroke-miterlimit="10" stroke-linecap="round" stroke-linejoin="round"/>
<path d="M453.6 622.2L447.6 704.4" stroke="black" stroke-miterlimit="10" stroke-linecap="round" stroke-linejoin="round"/>
<path d="M369.5 603.6L377.8 715" stroke="black" stroke-miterlimit="10" stroke-linecap="round" stroke-linejoin="round"/>
<path d="M373.9 516.5C373.9 516.5 349.2 533.501 349.8 539.401C350.4 545.301 370.7 594.3 370.7 594.3C370.7 594.3 386.1 558.501 388.9 555.401C391.6 552.301 373.9 516.5 373.9 516.5Z" fill="#39CFFE" stroke="black" stroke-miterlimit="10" stroke-linecap="round" stroke-linejoin="round"/>
<path d="M427.4 520C427.4 520 430.6 536.101 417.4 551.401C417.4 551.401 426.5 576.801 433.9 594.201C433.9 594.201 454.9 555.4 455.4 547.5C455.8 539.7 427.4 520 427.4 520Z" fill="#39CFFE" stroke="black" stroke-miterlimit="10" stroke-linecap="round" stroke-linejoin="round"/>
<path d="M371.1 576.3C371.1 576.3 369.8 579.3 370.5 583.5Z" fill="#53549B"/>
<path d="M371.1 576.3C371.1 576.3 369.8 579.3 370.5 583.5" stroke="black" stroke-miterlimit="10" stroke-linecap="round" stroke-linejoin="round"/>
<path d="M433 579.9C433 579.9 434.8 582.7 434.7 585.2Z" fill="#53549B"/>
<path d="M433 579.9C433 579.9 434.8 582.7 434.7 585.2" stroke="black" stroke-miterlimit="10" stroke-linecap="round" stroke-linejoin="round"/>
<path d="M335.3 455.9C335.3 455.9 320.1 417 318.7 360.1C317.2 299 364.1 395.7 364.1 395.7C364.1 395.7 350 414.6 344.2 415.9L335.3 455.9Z" fill="#3A3A3A" stroke="black" stroke-miterlimit="10" stroke-linecap="round" stroke-linejoin="round"/>
<path d="M364.1 395.7C364.1 395.7 333 359.7 334.9 340.6C336.8 321.5 433.5 328.2 443.6 321.1C453.7 314 447.4 333.8 447.4 333.8L453.5 329.3C453.5 329.3 460.5 328.9 457.1 348.8C453.7 368.7 460.5 353.3 460.5 353.3C460.5 353.3 469.3 354.9 465.4 381C460.3 414.7 451.5 416.6 451.5 416.6C451.5 416.6 443.6 419.7 434.6 409.7C425.6 399.7 400.7 425.9 364.1 395.7Z" fill="#3A3A3A" stroke="black" stroke-miterlimit="10" stroke-linecap="round" stroke-linejoin="round"/>
<path d="M456.2 358.8C456.2 358.8 454.4 393.5 430.4 403.3Z" fill="#3A3A3A"/>
<path d="M456.2 358.8C456.2 358.8 454.4 393.5 430.4 403.3" stroke="black" stroke-miterlimit="10" stroke-linecap="round" stroke-linejoin="round"/>
<path d="M447.4 333.9C447.4 333.9 444.3 360.2 435.6 368.4C435.6 368.4 434.2 402.8 413.4 407.8" fill="#3A3A3A"/>
<path d="M447.4 333.9C447.4 333.9 444.3 360.2 435.6 368.4C435.6 368.4 434.2 402.8 413.4 407.8" stroke="black" stroke-miterlimit="10" stroke-linecap="round" stroke-linejoin="round"/>
<path d="M443.6 321.1C443.6 321.1 437.6 355.2 423.7 364.2C423.7 364.2 414.2 405.5 388.8 406.8" fill="#3A3A3A"/>
<path d="M443.6 321.1C443.6 321.1 437.6 355.2 423.7 364.2C423.7 364.2 414.2 405.5 388.8 406.8" stroke="black" stroke-miterlimit="10" stroke-linecap="round" stroke-linejoin="round"/>
<path d="M430.3 323.9C430.3 323.9 427.1 347.7 410.2 358.8C410.2 358.8 399.2 400.8 379 403.8" fill="#3A3A3A"/>
<path d="M430.3 323.9C430.3 323.9 427.1 347.7 410.2 358.8C410.2 358.8 399.2 400.8 379 403.8" stroke="black" stroke-miterlimit="10" stroke-linecap="round" stroke-linejoin="round"/>
<path d="M364.1 395.7C364.1 395.7 391.1 382.6 394.1 357.1C394.1 357.1 418.1 334.3 411.3 325.1" fill="#3A3A3A"/>
<path d="M364.1 395.7C364.1 395.7 391.1 382.6 394.1 357.1C394.1 357.1 418.1 334.3 411.3 325.1" stroke="black" stroke-miterlimit="10" stroke-linecap="round" stroke-linejoin="round"/>
<path d="M394.1 325.9C396.4 350.9 355.4 384.7 355.4 384.7C355.4 384.7 351.7 399.8 341.4 406.8C341.4 406.8 340.4 404.5 331.5 443.9" stroke="black" stroke-miterlimit="10" stroke-linecap="round" stroke-linejoin="round"/>
<path d="M382.9 326.7C379 343.6 349.2 375.8 349.2 375.8C349.2 375.8 328.2 403.5 328.7 435" stroke="black" stroke-miterlimit="10" stroke-linecap="round" stroke-linejoin="round"/>
<path d="M370.4 327.6C353.8 341.6 343.7 367.2 343.7 367.2C343.7 367.2 326 375 322.4 402.9" stroke="black" stroke-miterlimit="10" stroke-linecap="round" stroke-linejoin="round"/>
<path d="M337.1 353.4C337.1 353.4 320.9 350.9 321.1 393.5" stroke="black" stroke-miterlimit="10" stroke-linecap="round" stroke-linejoin="round"/>
<path d="M440.2 411.9C440.2 411.9 460.3 404.4 466.2 373.5" stroke="black" stroke-miterlimit="10" stroke-linecap="round" stroke-linejoin="round"/>
<path d="M452.4 434.1C452.4 434.1 480.5 396.9 466.6 376C466.6 376 453.3 405.7 440.2 411.8C440.2 411.8 446.6 417.8 451.6 419.3L452.4 434.1Z" fill="#3A3A3A" stroke="black" stroke-miterlimit="10" stroke-linecap="round" stroke-linejoin="round"/>
<path d="M334.7 448.6C334.7 448.6 326 443 327.7 456.1C329.4 469.2 337.3 478.8 342 472.3" fill="white"/>
<path d="M334.7 448.6C334.7 448.6 326 443 327.7 456.1C329.4 469.2 337.3 478.8 342 472.3" stroke="black" stroke-miterlimit="10" stroke-linecap="round" stroke-linejoin="round"/>
<path d="M451.5 434.7C451.5 434.7 459.3 427.9 459.5 441.1C459.7 454.3 453.3 464.9 447.6 459.2" fill="white"/>
<path d="M451.5 434.7C451.5 434.7 459.3 427.9 459.5 441.1C459.7 454.3 453.3 464.9 447.6 459.2" stroke="black" stroke-miterlimit="10" stroke-linecap="round" stroke-linejoin="round"/>
<path d="M334.9 454.6C334.9 454.6 346 489.2 352.7 498.5C359.5 507.8 404.9 532.9 409.1 530.4C413.3 527.9 442.3 506.8 452.4 484.9C452.4 484.9 454.8 448.6 452.4 435.5L451.5 416.8C451.5 416.8 434.6 411.6 430.5 403.3C430.5 403.3 397.1 419 364.1 395.8C364.1 395.8 353.2 412.3 344.2 416L334.9 454.6Z" fill="white" stroke="black" stroke-miterlimit="10"/>
<path d="M335.3 448.7C340.1 456 359.8 487.2 366.4 490.6C373.6 494.3 386.8 491.6 396.5 482C407 471.5 420.4 477.9 426 482C431.6 486.1 438.6 486.4 446 475.4C455.5 461.3 452.9 436.5 453.6 451.8C453.4 455.3 453.2 461 453.1 464.5C452.7 468.4 453.6 477.1 453.5 482.1C453.4 492.6 446.1 499.7 439.8 507.6C435.5 513 430.6 517.9 425.1 521.9C422.3 524 419.3 525.9 416.2 527.5C413.7 528.8 410.3 531.2 407.4 531.1C404.7 531 401.5 529.4 398.9 528.6C395.8 527.5 392.7 526.3 389.7 525C383.6 522.4 377.7 519.4 372.1 516.1C364.9 511.8 357.5 506.8 352.2 500.3C351.6 499.6 350.9 498.3 350.6 497.4L345.6 483.7C343.3 477.4 341 471.2 338.7 464.9C337.5 461.6 336.3 458.4 335.1 455.1C334.7 454.1 333.7 448.6 335.3 448.7Z" fill="#3A3A3A" stroke="black" stroke-miterlimit="10" stroke-linecap="round" stroke-linejoin="round"/>
<path d="M395.4 489.5C395.4 489.5 409.4 480.2 420.9 487.8C420.9 487.8 419.7 495.3 409 491.4C409 491.4 401.6 497.6 395.4 489.5Z" fill="white" stroke="black" stroke-miterlimit="10" stroke-linecap="round" stroke-linejoin="round"/>
<path d="M416.2 434.6C416.2 434.6 414.8 430.2 416.6 430.4C418.5 430.6 432.6 428.4 437.6 434.8C437.7 434.8 419.3 428.9 416.2 434.6Z" fill="black" stroke="black" stroke-miterlimit="10" stroke-linecap="round" stroke-linejoin="round"/>
<path d="M387.7 437.9C387.7 437.9 389.1 433.5 387.3 433.7C385.4 433.9 371.3 431.7 366.3 438.1C366.3 438 384.7 432.1 387.7 437.9Z" fill="black" stroke="black" stroke-miterlimit="10" stroke-linecap="round" stroke-linejoin="round"/>
<path d="M382.2 463.2C384.906 463.2 387.1 459.797 387.1 455.6C387.1 451.403 384.906 448 382.2 448C379.494 448 377.3 451.403 377.3 455.6C377.3 459.797 379.494 463.2 382.2 463.2Z" fill="black" stroke="black" stroke-miterlimit="10" stroke-linecap="round" stroke-linejoin="round"/>
<path d="M425.9 460.9C428.606 460.9 430.8 457.498 430.8 453.3C430.8 449.103 428.606 445.7 425.9 445.7C423.194 445.7 421 449.103 421 453.3C421 457.498 423.194 460.9 425.9 460.9Z" fill="black" stroke="black" stroke-miterlimit="10" stroke-linecap="round" stroke-linejoin="round"/>
<path d="M432.3 503.2C432.3 503.2 430.6 505.8 429.7 506.8Z" fill="#3A3A3A"/>
<path d="M432.3 503.2C432.3 503.2 430.6 505.8 429.7 506.8" stroke="black" stroke-miterlimit="10" stroke-linecap="round" stroke-linejoin="round"/>
<path d="M779.7 801.1C779.7 801.1 785.9 806.7 785.3 813.5" stroke="black" stroke-miterlimit="10" stroke-linecap="round" stroke-linejoin="round"/>
<path d="M800.6 825.7H162.7V810C162.7 799.1 171.5 790.3 182.4 790.3H780.6C791.7 790.3 800.6 799.3 800.6 810.3V825.7Z" fill="#3A3A3A" stroke="black" stroke-miterlimit="10" stroke-linecap="round" stroke-linejoin="round"/>
<path d="M535.3 777.8H420.1V784.5H535.3V777.8Z" fill="white" stroke="black" stroke-miterlimit="10" stroke-linecap="round" stroke-linejoin="round"/>
<path d="M415.9 777.8H403.4V784.5H415.9V777.8Z" fill="white" stroke="black" stroke-miterlimit="10" stroke-linecap="round" stroke-linejoin="round"/>
<path d="M399.2 777.8H386.7V784.5H399.2V777.8Z" fill="white" stroke="black" stroke-miterlimit="10" stroke-linecap="round" stroke-linejoin="round"/>
<path d="M382.5 777.8H370V784.5H382.5V777.8Z" fill="white" stroke="black" stroke-miterlimit="10" stroke-linecap="round" stroke-linejoin="round"/>
<path d="M365.7 777.8H353.2V784.5H365.7V777.8Z" fill="white" stroke="black" stroke-miterlimit="10" stroke-linecap="round" stroke-linejoin="round"/>
<path d="M602.3 777.8H589.8V784.5H602.3V777.8Z" fill="white" stroke="black" stroke-miterlimit="10" stroke-linecap="round" stroke-linejoin="round"/>
<path d="M585.6 777.8H573.1V784.5H585.6V777.8Z" fill="white" stroke="black" stroke-miterlimit="10" stroke-linecap="round" stroke-linejoin="round"/>
<path d="M568.9 777.8H556.4V784.5H568.9V777.8Z" fill="white" stroke="black" stroke-miterlimit="10" stroke-linecap="round" stroke-linejoin="round"/>
<path d="M635.8 777.6H623.3V784.3H635.8V777.6Z" fill="white" stroke="black" stroke-miterlimit="10" stroke-linecap="round" stroke-linejoin="round"/>
<path d="M619 777.6H606.5V784.3H619V777.6Z" fill="white" stroke="black" stroke-miterlimit="10" stroke-linecap="round" stroke-linejoin="round"/>
<path d="M552.1 777.8H539.6V784.5H552.1V777.8Z" fill="white" stroke="black" stroke-miterlimit="10" stroke-linecap="round" stroke-linejoin="round"/>
<path d="M649.4 790.5H341.4C339.8 790.5 338.6 789.2 338.6 787.7V783C338.6 781.4 339.9 780.2 341.4 780.2H649.4C651 780.2 652.2 781.5 652.2 783V787.7C652.3 789.3 651 790.5 649.4 790.5Z" fill="white" stroke="black" stroke-miterlimit="10" stroke-linecap="round" stroke-linejoin="round"/>
<path d="M624.9 769.8H361.9C352.3 769.8 344.5 762 344.5 752.4V590.9C344.5 581.3 352.3 573.5 361.9 573.5H624.8C634.4 573.5 642.2 581.3 642.2 590.9V752.4C642.3 762 634.5 769.8 624.9 769.8Z" fill="#E2E2E2" stroke="black" stroke-miterlimit="10"/>
<path d="M495.1 680.4C497.861 680.4 500.1 676.505 500.1 671.7C500.1 666.895 497.861 663 495.1 663C492.339 663 490.1 666.895 490.1 671.7C490.1 676.505 492.339 680.4 495.1 680.4Z" fill="white" stroke="black" stroke-miterlimit="10" stroke-linecap="round" stroke-linejoin="round"/>
<path d="M502.6 673.9C502.6 673.9 503.7 680.2 499.1 682.8" stroke="black" stroke-miterlimit="10" stroke-linecap="round" stroke-linejoin="round"/>
<path d="M519.1 790.3H471.8L477.1 736.4H514.2L519.1 790.3Z" fill="#E2E2E2" stroke="black" stroke-miterlimit="10"/>
<path d="M540.3 784.1H450.7V791H540.3V784.1Z" fill="#E2E2E2" stroke="black" stroke-miterlimit="10"/>
<path d="M247.8 769.8C236.5 769.8 227.3 779 227.3 790.3H267.4V789.5C267.5 778.6 258.7 769.8 247.8 769.8Z" fill="#E2E2E2" stroke="black" stroke-miterlimit="10"/>
<path d="M249.3 769.9H246.1V777H249.3V769.9Z" fill="#F4F4F5" stroke="black" stroke-width="0.5" stroke-miterlimit="10" stroke-linecap="round" stroke-linejoin="round"/>
<path d="M236.2 773.4C236.2 773.4 247.7 787.5 259.2 773.4" stroke="black" stroke-width="0.5" stroke-miterlimit="10" stroke-linecap="round" stroke-linejoin="round"/>
<path d="M246.1 784.1C246.1 784.1 240.1 788.2 246.1 787.6C252.1 786.9 272.2 780.6 282.6 784.1C293 787.6 330 785.3 330 785.3" stroke="black" stroke-width="0.5" stroke-miterlimit="10" stroke-linecap="round" stroke-linejoin="round"/>
</svg>
