<?xml version="1.0" encoding="utf-8"?>
<!-- Generator: Adobe Illustrator 24.3.0, SVG Export Plug-In . SVG Version: 6.00 Build 0)  -->
<svg version="1.1" id="Layer_1" xmlns="http://www.w3.org/2000/svg" xmlns:xlink="http://www.w3.org/1999/xlink" x="0px" y="0px"
	 viewBox="0 0 1417.3 1417.3" style="enable-background:new 0 0 1417.3 1417.3;" xml:space="preserve">
<style type="text/css">
	.st0{display:none;}
	.st1{display:inline;}
	.st2{fill:#FFFFFF;}
</style>
<g id="Default" class="st0">
	<g class="st1">
		<polygon class="st2" points="107.2,496.9 580.7,223.5 580.7,353 219.3,561.6 		"/>
		<path d="M575.7,232.1v117.9L219.3,555.8l-102.1-59L575.7,232.1 M585.7,214.8l-488.5,282l122.1,70.5l366.4-211.5L585.7,214.8
			L585.7,214.8z"/>
	</g>
	<g class="st1">
		<polygon class="st2" points="107.2,778.9 580.7,505.5 580.7,635 219.3,843.7 		"/>
		<path d="M575.7,514.2v117.9L219.3,837.9l-102.1-59L575.7,514.2 M585.7,496.9L97.2,778.9l122.1,70.5l366.4-211.5L585.7,496.9
			L585.7,496.9z"/>
	</g>
	<g class="st1">
		<polygon class="st2" points="1079.2,776 1079.2,358.7 1191.3,294 1191.3,840.8 		"/>
		<path d="M1186.3,302.6v529.5l-102.1-59V361.6L1186.3,302.6 M1196.3,285.3l-122.1,70.5v423.1l122.1,70.5V285.3L1196.3,285.3z"/>
	</g>
	<g class="st1">
		<polygon class="st2" points="835,635 835,217.7 947.1,153 947.1,699.7 		"/>
		<path d="M942.1,161.6v529.5l-102.1-59V220.6L942.1,161.6 M952.1,144.3L830,214.8v423.1l122.1,70.5V144.3L952.1,144.3z"/>
	</g>
	<g class="st1">
		<polygon class="st2" points="595.7,919.9 707.8,855.2 1069.2,1063.9 1069.2,1193.3 		"/>
		<path d="M707.8,861l356.4,205.8v117.9L605.7,919.9L707.8,861 M707.8,849.4l-122.1,70.5l488.5,282.1v-141L707.8,849.4L707.8,849.4z
			"/>
	</g>
	<g class="st1">
		<polygon class="st2" points="351.4,1061 463.6,996.2 825,1204.9 825,1334.4 		"/>
		<path d="M463.6,1002L820,1207.8v117.9L361.4,1061L463.6,1002 M463.6,990.5L341.4,1061L830,1343v-141L463.6,990.5L463.6,990.5z"/>
	</g>
</g>
<path d="M831,1342.9c-41.1,23.8-81.5,47.1-122.1,70.5c-1.5-0.8-3.1-1.6-4.6-2.5c-200.6-115.8-401.3-231.7-601.9-347.4
	c-3.1-1.8-4.4-3.7-4.4-7.4c0.2-43.7,0.2-87.3,0-131c0-3.9,1.3-5.9,4.6-7.8c145.7-84,291.4-168.1,437-252.2
	c14.4-8.3,28.8-16.7,43.2-24.9c2.7-1.5,3.7-3.3,3.7-6.4c-0.1-43.8-0.1-87.7-0.1-131.5c0-1.4-0.2-2.7-0.3-4.9
	c-162.7,94-324.9,187.6-487.6,281.5c-0.2-2-0.4-3.2-0.4-4.4c0-44.1,0-88.3-0.1-132.4c0-3.6,1.7-5,4.3-6.5
	c63.8-36.8,127.7-73.7,191.5-110.5c96.1-55.5,192.2-111,288.3-166.3c3.4-2,4.5-4.1,4.5-7.9c-0.1-43.2-0.1-86.4-0.1-129.6
	c0-1.7,0-3.4,0-6c-163,94.1-325.2,187.8-488,281.7c-0.2-1.9-0.4-3.1-0.4-4.3c0-44.1,0-88.3-0.1-132.4c0-3.9,1.9-5.2,4.6-6.8
	c95.3-55,190.5-110,285.8-165C492.9,128,597.5,67.7,702,7.3c2.2-1.3,4.4-2.5,6.8-3.9C749.5,27,790,50.4,830.8,73.9
	c0,187.9,0,375.8,0,563.9c40.5,23.4,80.9,46.7,122.1,70.5c0-188.3,0-375.6,0-563.6c2.1,1.1,3.5,1.7,4.8,2.5
	c37.5,21.6,75,43.4,112.6,64.9c3.5,2,4.7,4.2,4.7,8.2c-0.1,184.1-0.1,368.2-0.1,552.3c0,7.5-1.1,5.5,5.3,9.2
	c37.2,21.6,74.5,43,111.7,64.5c1.4,0.8,2.8,1.5,5,2.7c0.1-21.4,0-42.1,0-62.8c0-20.8,0-41.6,0-62.4c0-21,0-41.9,0-62.9
	c0-20.8,0-41.6,0-62.4c0-20.8,0-41.6,0-62.4c0-20.8,0-41.6,0-62.4c0-21,0-41.9,0-62.9c0-20.8,0-41.6,0-62.4c0-20.7,0-41.5,0-62.9
	c1.8,0.8,2.9,1.3,3.9,1.8c38.4,22.1,76.7,44.3,115.1,66.3c2.6,1.5,3.8,3.2,3.4,6.1c-0.1,0.8,0,1.6,0,2.4c0,230.7,0,461.3,0,692
	c0,7.9,1.2,5.8-5.8,9.9c-37.5,21.7-75,43.3-112.6,65c-1.2,0.7-2.5,1.4-3.9,2.1c-1.4-0.8-2.8-1.5-4.2-2.3
	c-159.5-92.1-319-184.2-478.5-276.3c-0.7-0.4-1.5-0.7-2.1-1.2c-2.5-2.1-4.7-1.6-7.4,0c-19.6,11.5-39.3,22.8-58.9,34.1
	c-17.9,10.3-35.7,20.6-53.6,30.9c-1.7,1-3.3,2-5.5,3.4c162.8,94,325.1,187.7,488.3,281.9c-41.1,23.7-81.6,47.1-122.3,70.6
	c-162.7-93.9-325.4-187.9-488.4-282c-40.4,23.3-80.8,46.6-121.9,70.4C505.6,1155,667.9,1248.8,831,1342.9z"/>
</svg>
