<svg width="1920" height="295" viewBox="0 0 1920 295" fill="none" xmlns="http://www.w3.org/2000/svg">
<g clip-path="url(#clip0_307_91868)">
<rect width="1920" height="295" fill="white"/>
<ellipse cx="445.5" cy="90" rx="76.5" ry="77" fill="#D99BFF"/>
<path d="M419.081 75.4205C419.02 74.8826 418.77 74.4659 418.331 74.1705C417.892 73.8712 417.339 73.7216 416.672 73.7216C416.195 73.7216 415.782 73.7973 415.433 73.9489C415.085 74.0966 414.814 74.3011 414.621 74.5625C414.431 74.8201 414.337 75.1136 414.337 75.4432C414.337 75.7197 414.401 75.9583 414.53 76.1591C414.663 76.3598 414.835 76.5284 415.047 76.6648C415.263 76.7973 415.494 76.9091 415.74 77C415.986 77.0871 416.223 77.1591 416.45 77.2159L417.587 77.5114C417.958 77.6023 418.339 77.7254 418.729 77.8807C419.119 78.036 419.481 78.2405 419.814 78.4943C420.147 78.7481 420.416 79.0625 420.621 79.4375C420.829 79.8125 420.933 80.2614 420.933 80.7841C420.933 81.4432 420.763 82.0284 420.422 82.5398C420.085 83.0511 419.594 83.4545 418.95 83.75C418.31 84.0455 417.536 84.1932 416.627 84.1932C415.755 84.1932 415.002 84.0549 414.365 83.7784C413.729 83.5019 413.231 83.1098 412.871 82.6023C412.511 82.0909 412.312 81.4848 412.274 80.7841H414.036C414.07 81.2045 414.206 81.5549 414.445 81.8352C414.687 82.1117 414.996 82.3182 415.371 82.4545C415.75 82.5871 416.164 82.6534 416.615 82.6534C417.111 82.6534 417.553 82.5758 417.939 82.4205C418.329 82.2614 418.636 82.0417 418.859 81.7614C419.083 81.4773 419.195 81.1458 419.195 80.767C419.195 80.4223 419.096 80.1402 418.899 79.9205C418.706 79.7008 418.443 79.5189 418.109 79.375C417.78 79.2311 417.407 79.1042 416.99 78.9943L415.615 78.6193C414.683 78.3655 413.945 77.9924 413.399 77.5C412.858 77.0076 412.587 76.3561 412.587 75.5455C412.587 74.875 412.769 74.2898 413.132 73.7898C413.496 73.2898 413.988 72.9015 414.609 72.625C415.231 72.3447 415.931 72.2045 416.712 72.2045C417.5 72.2045 418.195 72.3428 418.797 72.6193C419.403 72.8958 419.88 73.2765 420.229 73.7614C420.577 74.2424 420.759 74.7955 420.774 75.4205H419.081ZM426.48 84.1761C425.62 84.1761 424.88 83.9924 424.259 83.625C423.641 83.2538 423.164 82.733 422.827 82.0625C422.494 81.3883 422.327 80.5985 422.327 79.6932C422.327 78.7992 422.494 78.0114 422.827 77.3295C423.164 76.6477 423.634 76.1155 424.236 75.733C424.842 75.3504 425.55 75.1591 426.361 75.1591C426.853 75.1591 427.331 75.2405 427.793 75.4034C428.255 75.5663 428.67 75.822 429.037 76.1705C429.405 76.5189 429.694 76.9716 429.906 77.5284C430.119 78.0814 430.225 78.7538 430.225 79.5455V80.1477H423.287V78.875H428.56C428.56 78.428 428.469 78.0322 428.287 77.6875C428.105 77.339 427.85 77.0644 427.52 76.8636C427.194 76.6629 426.812 76.5625 426.372 76.5625C425.895 76.5625 425.478 76.6799 425.122 76.9148C424.77 77.1458 424.497 77.4489 424.304 77.8239C424.115 78.1951 424.02 78.5985 424.02 79.0341V80.0284C424.02 80.6117 424.122 81.108 424.327 81.517C424.535 81.9261 424.825 82.2386 425.196 82.4545C425.567 82.6667 426.001 82.7727 426.497 82.7727C426.819 82.7727 427.113 82.7273 427.378 82.6364C427.643 82.5417 427.872 82.4015 428.066 82.2159C428.259 82.0303 428.406 81.8011 428.509 81.5284L430.117 81.8182C429.988 82.2917 429.757 82.7064 429.424 83.0625C429.094 83.4148 428.679 83.6894 428.179 83.8864C427.683 84.0795 427.117 84.1761 426.48 84.1761ZM436.007 75.2727V76.6364H431.24V75.2727H436.007ZM432.519 73.1818H434.218V81.4375C434.218 81.767 434.267 82.0152 434.365 82.1818C434.464 82.3447 434.591 82.4564 434.746 82.517C434.905 82.5739 435.078 82.6023 435.263 82.6023C435.4 82.6023 435.519 82.5928 435.621 82.5739C435.723 82.5549 435.803 82.5398 435.86 82.5284L436.167 83.9318C436.068 83.9697 435.928 84.0076 435.746 84.0455C435.564 84.0871 435.337 84.1098 435.064 84.1136C434.617 84.1212 434.201 84.0417 433.814 83.875C433.428 83.7083 433.115 83.4508 432.877 83.1023C432.638 82.7538 432.519 82.3163 432.519 81.7898V73.1818ZM441.785 75.2727V76.6364H437.018V75.2727H441.785ZM438.296 73.1818H439.995V81.4375C439.995 81.767 440.044 82.0152 440.143 82.1818C440.241 82.3447 440.368 82.4564 440.523 82.517C440.682 82.5739 440.855 82.6023 441.04 82.6023C441.177 82.6023 441.296 82.5928 441.398 82.5739C441.501 82.5549 441.58 82.5398 441.637 82.5284L441.944 83.9318C441.845 83.9697 441.705 84.0076 441.523 84.0455C441.341 84.0871 441.114 84.1098 440.841 84.1136C440.394 84.1212 439.978 84.0417 439.591 83.875C439.205 83.7083 438.893 83.4508 438.654 83.1023C438.415 82.7538 438.296 82.3163 438.296 81.7898V73.1818ZM443.488 84V75.2727H445.187V84H443.488ZM444.346 73.9261C444.05 73.9261 443.797 73.8277 443.584 73.6307C443.376 73.4299 443.272 73.1913 443.272 72.9148C443.272 72.6345 443.376 72.3958 443.584 72.1989C443.797 71.9981 444.05 71.8977 444.346 71.8977C444.641 71.8977 444.893 71.9981 445.101 72.1989C445.314 72.3958 445.42 72.6345 445.42 72.9148C445.42 73.1913 445.314 73.4299 445.101 73.6307C444.893 73.8277 444.641 73.9261 444.346 73.9261ZM448.995 78.8182V84H447.296V75.2727H448.927V76.6932H449.035C449.236 76.2311 449.55 75.8598 449.978 75.5795C450.41 75.2992 450.953 75.1591 451.609 75.1591C452.203 75.1591 452.724 75.2841 453.171 75.5341C453.618 75.7803 453.965 76.1477 454.211 76.6364C454.457 77.125 454.58 77.7292 454.58 78.4489V84H452.881V78.6534C452.881 78.0208 452.717 77.5265 452.387 77.1705C452.058 76.8106 451.605 76.6307 451.029 76.6307C450.635 76.6307 450.285 76.7159 449.978 76.8864C449.675 77.0568 449.434 77.3068 449.256 77.6364C449.082 77.9621 448.995 78.3561 448.995 78.8182ZM460.342 87.4545C459.649 87.4545 459.052 87.3636 458.552 87.1818C458.056 87 457.651 86.7595 457.336 86.4602C457.022 86.161 456.787 85.8333 456.632 85.4773L458.092 84.875C458.194 85.0417 458.33 85.2178 458.501 85.4034C458.675 85.5928 458.91 85.7538 459.205 85.8864C459.505 86.0189 459.889 86.0852 460.359 86.0852C461.003 86.0852 461.535 85.928 461.955 85.6136C462.376 85.303 462.586 84.8068 462.586 84.125V82.4091H462.478C462.376 82.5947 462.228 82.8011 462.035 83.0284C461.846 83.2557 461.584 83.4527 461.251 83.6193C460.918 83.786 460.484 83.8693 459.95 83.8693C459.26 83.8693 458.639 83.7083 458.086 83.3864C457.537 83.0606 457.101 82.5814 456.779 81.9489C456.461 81.3125 456.302 80.5303 456.302 79.6023C456.302 78.6742 456.459 77.8788 456.774 77.2159C457.092 76.553 457.527 76.0455 458.08 75.6932C458.633 75.3371 459.26 75.1591 459.961 75.1591C460.503 75.1591 460.94 75.25 461.274 75.4318C461.607 75.6098 461.866 75.8182 462.052 76.0568C462.241 76.2955 462.387 76.5057 462.49 76.6875H462.615V75.2727H464.279V84.1932C464.279 84.9432 464.105 85.5587 463.757 86.0398C463.408 86.5208 462.937 86.8769 462.342 87.108C461.751 87.339 461.084 87.4545 460.342 87.4545ZM460.325 82.4602C460.813 82.4602 461.226 82.3466 461.563 82.1193C461.904 81.8883 462.162 81.5587 462.336 81.1307C462.514 80.6989 462.603 80.1818 462.603 79.5795C462.603 78.9924 462.516 78.4754 462.342 78.0284C462.168 77.5814 461.912 77.233 461.575 76.983C461.238 76.7292 460.821 76.6023 460.325 76.6023C459.813 76.6023 459.387 76.7348 459.046 77C458.705 77.2614 458.448 77.6174 458.274 78.0682C458.103 78.5189 458.018 79.0227 458.018 79.5795C458.018 80.1515 458.105 80.6534 458.279 81.0852C458.454 81.517 458.711 81.8542 459.052 82.0966C459.397 82.339 459.821 82.4602 460.325 82.4602ZM473.826 84.1648C473.046 84.1648 472.374 84.0227 471.809 83.7386C471.249 83.4545 470.817 83.0682 470.514 82.5795C470.211 82.0871 470.059 81.5303 470.059 80.9091C470.059 80.4356 470.158 80.0152 470.355 79.6477C470.552 79.2765 470.826 78.9337 471.179 78.6193C471.531 78.3049 471.938 77.9886 472.4 77.6705L474.275 76.3466C474.594 76.1383 474.842 75.9186 475.02 75.6875C475.198 75.4527 475.287 75.1629 475.287 74.8182C475.287 74.5455 475.169 74.2841 474.934 74.0341C474.7 73.7841 474.385 73.6591 473.991 73.6591C473.719 73.6591 473.478 73.7254 473.27 73.858C473.065 73.9905 472.904 74.161 472.787 74.3693C472.673 74.5739 472.616 74.7898 472.616 75.017C472.616 75.2822 472.688 75.5492 472.832 75.8182C472.98 76.0871 473.169 76.3655 473.4 76.6534C473.631 76.9375 473.874 77.233 474.128 77.5398L479.531 84H477.611L473.139 78.7443C472.764 78.3011 472.415 77.8845 472.094 77.4943C471.772 77.1004 471.51 76.7027 471.309 76.3011C471.112 75.8958 471.014 75.4583 471.014 74.9886C471.014 74.4545 471.135 73.9811 471.378 73.5682C471.624 73.1515 471.967 72.8258 472.406 72.5909C472.845 72.3561 473.361 72.2386 473.951 72.2386C474.55 72.2386 475.063 72.3561 475.491 72.5909C475.923 72.822 476.255 73.1307 476.486 73.517C476.72 73.8996 476.838 74.3182 476.838 74.7727C476.838 75.3258 476.7 75.8144 476.423 76.2386C476.15 76.6591 475.773 77.0455 475.292 77.3977L472.957 79.1193C472.503 79.4527 472.186 79.7822 472.008 80.108C471.834 80.4299 471.747 80.6818 471.747 80.8636C471.747 81.197 471.832 81.5057 472.003 81.7898C472.177 82.0739 472.419 82.3011 472.73 82.4716C473.044 82.642 473.412 82.7273 473.832 82.7273C474.264 82.7273 474.684 82.6345 475.094 82.4489C475.506 82.2595 475.88 81.9886 476.213 81.6364C476.55 81.2841 476.817 80.8617 477.014 80.3693C477.211 79.8769 477.309 79.3258 477.309 78.7159H478.844C478.844 79.4659 478.758 80.1004 478.588 80.6193C478.417 81.1345 478.211 81.5549 477.969 81.8807C477.73 82.2027 477.505 82.4545 477.292 82.6364C477.224 82.697 477.16 82.7576 477.099 82.8182C477.039 82.8788 476.974 82.9394 476.906 83C476.512 83.3977 476.035 83.6913 475.474 83.8807C474.917 84.0701 474.368 84.1648 473.826 84.1648ZM410.502 97.875V96.3636H419.508V97.875H415.877V108H414.127V97.875H410.502ZM422.538 108.193C421.985 108.193 421.485 108.091 421.038 107.886C420.591 107.678 420.237 107.377 419.975 106.983C419.718 106.589 419.589 106.106 419.589 105.534C419.589 105.042 419.684 104.636 419.873 104.318C420.063 104 420.318 103.748 420.64 103.562C420.962 103.377 421.322 103.237 421.72 103.142C422.117 103.047 422.523 102.975 422.936 102.926C423.458 102.866 423.883 102.816 424.208 102.778C424.534 102.737 424.771 102.67 424.919 102.58C425.066 102.489 425.14 102.341 425.14 102.136V102.097C425.14 101.6 425 101.216 424.72 100.943C424.443 100.67 424.03 100.534 423.481 100.534C422.909 100.534 422.458 100.661 422.129 100.915C421.803 101.165 421.578 101.443 421.453 101.75L419.856 101.386C420.046 100.856 420.322 100.428 420.686 100.102C421.053 99.7727 421.475 99.5341 421.953 99.3864C422.43 99.2348 422.932 99.1591 423.458 99.1591C423.807 99.1591 424.176 99.2008 424.566 99.2841C424.96 99.3636 425.328 99.5114 425.669 99.7273C426.013 99.9432 426.296 100.252 426.515 100.653C426.735 101.051 426.845 101.568 426.845 102.205V108H425.186V106.807H425.117C425.008 107.027 424.843 107.242 424.623 107.455C424.403 107.667 424.121 107.843 423.777 107.983C423.432 108.123 423.019 108.193 422.538 108.193ZM422.907 106.83C423.377 106.83 423.778 106.737 424.112 106.551C424.449 106.366 424.705 106.123 424.879 105.824C425.057 105.521 425.146 105.197 425.146 104.852V103.727C425.085 103.788 424.968 103.845 424.794 103.898C424.623 103.947 424.428 103.991 424.208 104.028C423.989 104.062 423.775 104.095 423.566 104.125C423.358 104.152 423.184 104.174 423.044 104.193C422.714 104.235 422.413 104.305 422.14 104.403C421.871 104.502 421.655 104.644 421.492 104.83C421.333 105.011 421.254 105.254 421.254 105.557C421.254 105.977 421.409 106.295 421.72 106.511C422.03 106.723 422.426 106.83 422.907 106.83ZM428.932 108V99.2727H430.574V100.659H430.664C430.824 100.189 431.104 99.8201 431.505 99.5511C431.911 99.2784 432.369 99.142 432.88 99.142C432.986 99.142 433.111 99.1458 433.255 99.1534C433.403 99.161 433.519 99.1705 433.602 99.1818V100.807C433.534 100.788 433.413 100.767 433.238 100.744C433.064 100.718 432.89 100.705 432.716 100.705C432.314 100.705 431.956 100.79 431.642 100.96C431.331 101.127 431.085 101.36 430.903 101.659C430.721 101.955 430.63 102.292 430.63 102.67V108H428.932ZM438.243 111.455C437.55 111.455 436.953 111.364 436.453 111.182C435.957 111 435.551 110.759 435.237 110.46C434.923 110.161 434.688 109.833 434.533 109.477L435.993 108.875C436.095 109.042 436.231 109.218 436.402 109.403C436.576 109.593 436.811 109.754 437.106 109.886C437.406 110.019 437.79 110.085 438.26 110.085C438.904 110.085 439.436 109.928 439.856 109.614C440.277 109.303 440.487 108.807 440.487 108.125V106.409H440.379C440.277 106.595 440.129 106.801 439.936 107.028C439.747 107.256 439.485 107.453 439.152 107.619C438.819 107.786 438.385 107.869 437.851 107.869C437.161 107.869 436.54 107.708 435.987 107.386C435.438 107.061 435.002 106.581 434.68 105.949C434.362 105.312 434.203 104.53 434.203 103.602C434.203 102.674 434.36 101.879 434.675 101.216C434.993 100.553 435.428 100.045 435.981 99.6932C436.534 99.3371 437.161 99.1591 437.862 99.1591C438.404 99.1591 438.841 99.25 439.175 99.4318C439.508 99.6098 439.767 99.8182 439.953 100.057C440.142 100.295 440.288 100.506 440.39 100.688H440.515V99.2727H442.18V108.193C442.18 108.943 442.006 109.559 441.658 110.04C441.309 110.521 440.837 110.877 440.243 111.108C439.652 111.339 438.985 111.455 438.243 111.455ZM438.226 106.46C438.714 106.46 439.127 106.347 439.464 106.119C439.805 105.888 440.063 105.559 440.237 105.131C440.415 104.699 440.504 104.182 440.504 103.58C440.504 102.992 440.417 102.475 440.243 102.028C440.069 101.581 439.813 101.233 439.476 100.983C439.139 100.729 438.722 100.602 438.226 100.602C437.714 100.602 437.288 100.735 436.947 101C436.606 101.261 436.349 101.617 436.175 102.068C436.004 102.519 435.919 103.023 435.919 103.58C435.919 104.152 436.006 104.653 436.18 105.085C436.355 105.517 436.612 105.854 436.953 106.097C437.298 106.339 437.722 106.46 438.226 106.46ZM448.044 108.176C447.184 108.176 446.444 107.992 445.822 107.625C445.205 107.254 444.728 106.733 444.391 106.062C444.057 105.388 443.891 104.598 443.891 103.693C443.891 102.799 444.057 102.011 444.391 101.33C444.728 100.648 445.197 100.116 445.8 99.733C446.406 99.3504 447.114 99.1591 447.925 99.1591C448.417 99.1591 448.894 99.2405 449.357 99.4034C449.819 99.5663 450.233 99.822 450.601 100.17C450.968 100.519 451.258 100.972 451.47 101.528C451.682 102.081 451.788 102.754 451.788 103.545V104.148H444.851V102.875H450.124C450.124 102.428 450.033 102.032 449.851 101.688C449.669 101.339 449.413 101.064 449.084 100.864C448.758 100.663 448.375 100.562 447.936 100.562C447.459 100.562 447.042 100.68 446.686 100.915C446.334 101.146 446.061 101.449 445.868 101.824C445.679 102.195 445.584 102.598 445.584 103.034V104.028C445.584 104.612 445.686 105.108 445.891 105.517C446.099 105.926 446.389 106.239 446.76 106.455C447.131 106.667 447.565 106.773 448.061 106.773C448.383 106.773 448.677 106.727 448.942 106.636C449.207 106.542 449.436 106.402 449.629 106.216C449.822 106.03 449.97 105.801 450.072 105.528L451.68 105.818C451.552 106.292 451.321 106.706 450.987 107.062C450.658 107.415 450.243 107.689 449.743 107.886C449.247 108.08 448.68 108.176 448.044 108.176ZM457.571 99.2727V100.636H452.804V99.2727H457.571ZM454.083 97.1818H455.781V105.438C455.781 105.767 455.831 106.015 455.929 106.182C456.028 106.345 456.154 106.456 456.31 106.517C456.469 106.574 456.641 106.602 456.827 106.602C456.963 106.602 457.083 106.593 457.185 106.574C457.287 106.555 457.367 106.54 457.423 106.528L457.73 107.932C457.632 107.97 457.492 108.008 457.31 108.045C457.128 108.087 456.901 108.11 456.628 108.114C456.181 108.121 455.764 108.042 455.378 107.875C454.992 107.708 454.679 107.451 454.44 107.102C454.202 106.754 454.083 106.316 454.083 105.79V97.1818ZM459.274 108V99.2727H460.973V108H459.274ZM460.132 97.9261C459.837 97.9261 459.583 97.8277 459.371 97.6307C459.163 97.4299 459.059 97.1913 459.059 96.9148C459.059 96.6345 459.163 96.3958 459.371 96.1989C459.583 95.9981 459.837 95.8977 460.132 95.8977C460.428 95.8977 460.68 95.9981 460.888 96.1989C461.1 96.3958 461.206 96.6345 461.206 96.9148C461.206 97.1913 461.1 97.4299 460.888 97.6307C460.68 97.8277 460.428 97.9261 460.132 97.9261ZM464.782 102.818V108H463.083V99.2727H464.713V100.693H464.821C465.022 100.231 465.337 99.8598 465.765 99.5795C466.196 99.2992 466.74 99.1591 467.395 99.1591C467.99 99.1591 468.511 99.2841 468.958 99.5341C469.405 99.7803 469.751 100.148 469.998 100.636C470.244 101.125 470.367 101.729 470.367 102.449V108H468.668V102.653C468.668 102.021 468.503 101.527 468.174 101.17C467.844 100.811 467.392 100.631 466.816 100.631C466.422 100.631 466.071 100.716 465.765 100.886C465.462 101.057 465.221 101.307 465.043 101.636C464.869 101.962 464.782 102.356 464.782 102.818ZM476.128 111.455C475.435 111.455 474.839 111.364 474.339 111.182C473.842 111 473.437 110.759 473.123 110.46C472.808 110.161 472.573 109.833 472.418 109.477L473.878 108.875C473.981 109.042 474.117 109.218 474.287 109.403C474.462 109.593 474.697 109.754 474.992 109.886C475.291 110.019 475.676 110.085 476.145 110.085C476.789 110.085 477.322 109.928 477.742 109.614C478.162 109.303 478.373 108.807 478.373 108.125V106.409H478.265C478.162 106.595 478.015 106.801 477.822 107.028C477.632 107.256 477.371 107.453 477.037 107.619C476.704 107.786 476.27 107.869 475.736 107.869C475.047 107.869 474.426 107.708 473.873 107.386C473.323 107.061 472.888 106.581 472.566 105.949C472.248 105.312 472.089 104.53 472.089 103.602C472.089 102.674 472.246 101.879 472.56 101.216C472.878 100.553 473.314 100.045 473.867 99.6932C474.42 99.3371 475.047 99.1591 475.748 99.1591C476.289 99.1591 476.727 99.25 477.06 99.4318C477.394 99.6098 477.653 99.8182 477.839 100.057C478.028 100.295 478.174 100.506 478.276 100.688H478.401V99.2727H480.066V108.193C480.066 108.943 479.892 109.559 479.543 110.04C479.195 110.521 478.723 110.877 478.128 111.108C477.537 111.339 476.871 111.455 476.128 111.455ZM476.111 106.46C476.6 106.46 477.013 106.347 477.35 106.119C477.691 105.888 477.948 105.559 478.123 105.131C478.301 104.699 478.39 104.182 478.39 103.58C478.39 102.992 478.303 102.475 478.128 102.028C477.954 101.581 477.698 101.233 477.361 100.983C477.024 100.729 476.608 100.602 476.111 100.602C475.6 100.602 475.174 100.735 474.833 101C474.492 101.261 474.234 101.617 474.06 102.068C473.89 102.519 473.805 103.023 473.805 103.58C473.805 104.152 473.892 104.653 474.066 105.085C474.24 105.517 474.498 105.854 474.839 106.097C475.183 106.339 475.608 106.46 476.111 106.46Z" fill="#333333"/>
<circle cx="1202" cy="90" r="77" fill="#D99BFF"/>
<path d="M1155.47 96H1153.61L1157.8 84.3636H1159.82L1164.01 96H1162.15L1158.86 86.4773H1158.77L1155.47 96ZM1155.78 91.4432H1161.83V92.9205H1155.78V91.4432ZM1168.51 96.1705C1167.8 96.1705 1167.17 95.9905 1166.62 95.6307C1166.07 95.267 1165.64 94.75 1165.32 94.0795C1165.01 93.4053 1164.86 92.5966 1164.86 91.6534C1164.86 90.7102 1165.02 89.9034 1165.33 89.233C1165.65 88.5625 1166.08 88.0492 1166.64 87.6932C1167.19 87.3371 1167.82 87.1591 1168.52 87.1591C1169.06 87.1591 1169.49 87.25 1169.82 87.4318C1170.16 87.6098 1170.41 87.8182 1170.6 88.0568C1170.78 88.2955 1170.93 88.5057 1171.03 88.6875H1171.13V84.3636H1172.83V96H1171.17V94.642H1171.03C1170.93 94.8277 1170.78 95.0398 1170.59 95.2784C1170.4 95.517 1170.13 95.7254 1169.8 95.9034C1169.47 96.0814 1169.04 96.1705 1168.51 96.1705ZM1168.88 94.7216C1169.37 94.7216 1169.78 94.5928 1170.12 94.3352C1170.46 94.0739 1170.72 93.7121 1170.89 93.25C1171.07 92.7879 1171.16 92.25 1171.16 91.6364C1171.16 91.0303 1171.07 90.5 1170.9 90.0455C1170.72 89.5909 1170.47 89.2367 1170.13 88.983C1169.79 88.7292 1169.38 88.6023 1168.88 88.6023C1168.37 88.6023 1167.94 88.7348 1167.6 89C1167.26 89.2652 1167 89.6269 1166.83 90.0852C1166.66 90.5436 1166.57 91.0606 1166.57 91.6364C1166.57 92.2197 1166.66 92.7443 1166.84 93.2102C1167.01 93.6761 1167.27 94.0455 1167.61 94.3182C1167.95 94.5871 1168.38 94.7216 1168.88 94.7216ZM1178.35 96.1705C1177.64 96.1705 1177.01 95.9905 1176.46 95.6307C1175.91 95.267 1175.48 94.75 1175.16 94.0795C1174.85 93.4053 1174.7 92.5966 1174.7 91.6534C1174.7 90.7102 1174.85 89.9034 1175.17 89.233C1175.49 88.5625 1175.92 88.0492 1176.48 87.6932C1177.03 87.3371 1177.66 87.1591 1178.36 87.1591C1178.9 87.1591 1179.33 87.25 1179.66 87.4318C1180 87.6098 1180.25 87.8182 1180.44 88.0568C1180.62 88.2955 1180.77 88.5057 1180.87 88.6875H1180.97V84.3636H1182.67V96H1181.01V94.642H1180.87C1180.77 94.8277 1180.62 95.0398 1180.42 95.2784C1180.24 95.517 1179.97 95.7254 1179.64 95.9034C1179.31 96.0814 1178.88 96.1705 1178.35 96.1705ZM1178.72 94.7216C1179.21 94.7216 1179.62 94.5928 1179.96 94.3352C1180.3 94.0739 1180.56 93.7121 1180.73 93.25C1180.91 92.7879 1181 92.25 1181 91.6364C1181 91.0303 1180.91 90.5 1180.74 90.0455C1180.56 89.5909 1180.31 89.2367 1179.97 88.983C1179.63 88.7292 1179.22 88.6023 1178.72 88.6023C1178.21 88.6023 1177.78 88.7348 1177.44 89C1177.1 89.2652 1176.84 89.6269 1176.67 90.0852C1176.5 90.5436 1176.41 91.0606 1176.41 91.6364C1176.41 92.2197 1176.5 92.7443 1176.67 93.2102C1176.85 93.6761 1177.11 94.0455 1177.45 94.3182C1177.79 94.5871 1178.22 94.7216 1178.72 94.7216ZM1198.78 88.1477H1197C1196.94 87.7689 1196.81 87.4356 1196.62 87.1477C1196.44 86.8598 1196.21 86.6155 1195.94 86.4148C1195.67 86.214 1195.37 86.0625 1195.04 85.9602C1194.71 85.858 1194.36 85.8068 1193.99 85.8068C1193.32 85.8068 1192.72 85.9754 1192.19 86.3125C1191.66 86.6496 1191.24 87.1439 1190.94 87.7955C1190.63 88.447 1190.48 89.2424 1190.48 90.1818C1190.48 91.1288 1190.63 91.928 1190.94 92.5795C1191.24 93.2311 1191.66 93.7235 1192.19 94.0568C1192.72 94.3902 1193.32 94.5568 1193.98 94.5568C1194.35 94.5568 1194.7 94.5076 1195.03 94.4091C1195.36 94.3068 1195.66 94.1572 1195.93 93.9602C1196.2 93.7633 1196.43 93.5227 1196.61 93.2386C1196.8 92.9508 1196.93 92.6212 1197 92.25L1198.78 92.2557C1198.68 92.8277 1198.5 93.3542 1198.23 93.8352C1197.96 94.3125 1197.61 94.7254 1197.19 95.0739C1196.77 95.4186 1196.29 95.6856 1195.74 95.875C1195.2 96.0644 1194.61 96.1591 1193.97 96.1591C1192.96 96.1591 1192.07 95.9205 1191.28 95.4432C1190.49 94.9621 1189.87 94.2746 1189.41 93.3807C1188.96 92.4867 1188.74 91.4205 1188.74 90.1818C1188.74 88.9394 1188.96 87.8731 1189.42 86.983C1189.87 86.089 1190.5 85.4034 1191.28 84.9261C1192.07 84.4451 1192.97 84.2045 1193.97 84.2045C1194.59 84.2045 1195.16 84.2936 1195.7 84.4716C1196.24 84.6458 1196.72 84.9034 1197.15 85.2443C1197.57 85.5814 1197.93 85.9943 1198.21 86.483C1198.49 86.9678 1198.68 87.5227 1198.78 88.1477ZM1200.57 96V87.2727H1202.21V88.6591H1202.3C1202.46 88.1894 1202.74 87.8201 1203.14 87.5511C1203.55 87.2784 1204 87.142 1204.51 87.142C1204.62 87.142 1204.75 87.1458 1204.89 87.1534C1205.04 87.161 1205.15 87.1705 1205.24 87.1818V88.8068C1205.17 88.7879 1205.05 88.767 1204.87 88.7443C1204.7 88.7178 1204.52 88.7045 1204.35 88.7045C1203.95 88.7045 1203.59 88.7898 1203.28 88.9602C1202.97 89.1269 1202.72 89.3598 1202.54 89.6591C1202.36 89.9545 1202.26 90.2917 1202.26 90.6705V96H1200.57ZM1209.98 96.1761C1209.12 96.1761 1208.38 95.9924 1207.76 95.625C1207.14 95.2538 1206.66 94.733 1206.33 94.0625C1205.99 93.3883 1205.83 92.5985 1205.83 91.6932C1205.83 90.7992 1205.99 90.0114 1206.33 89.3295C1206.66 88.6477 1207.13 88.1155 1207.74 87.733C1208.34 87.3504 1209.05 87.1591 1209.86 87.1591C1210.35 87.1591 1210.83 87.2405 1211.29 87.4034C1211.75 87.5663 1212.17 87.822 1212.54 88.1705C1212.9 88.5189 1213.19 88.9716 1213.41 89.5284C1213.62 90.0814 1213.72 90.7538 1213.72 91.5455V92.1477H1206.79V90.875H1212.06C1212.06 90.428 1211.97 90.0322 1211.79 89.6875C1211.6 89.339 1211.35 89.0644 1211.02 88.8636C1210.69 88.6629 1210.31 88.5625 1209.87 88.5625C1209.39 88.5625 1208.98 88.6799 1208.62 88.9148C1208.27 89.1458 1208 89.4489 1207.8 89.8239C1207.61 90.1951 1207.52 90.5985 1207.52 91.0341V92.0284C1207.52 92.6117 1207.62 93.108 1207.83 93.517C1208.03 93.9261 1208.32 94.2386 1208.7 94.4545C1209.07 94.6667 1209.5 94.7727 1210 94.7727C1210.32 94.7727 1210.61 94.7273 1210.88 94.6364C1211.14 94.5417 1211.37 94.4015 1211.56 94.2159C1211.76 94.0303 1211.91 93.8011 1212.01 93.5284L1213.62 93.8182C1213.49 94.2917 1213.26 94.7064 1212.92 95.0625C1212.59 95.4148 1212.18 95.6894 1211.68 95.8864C1211.18 96.0795 1210.62 96.1761 1209.98 96.1761ZM1217.97 96.1932C1217.42 96.1932 1216.92 96.0909 1216.47 95.8864C1216.03 95.678 1215.67 95.3769 1215.41 94.983C1215.15 94.589 1215.02 94.1061 1215.02 93.5341C1215.02 93.0417 1215.12 92.6364 1215.31 92.3182C1215.5 92 1215.75 91.7481 1216.07 91.5625C1216.4 91.3769 1216.76 91.2367 1217.15 91.142C1217.55 91.0473 1217.96 90.9754 1218.37 90.9261C1218.89 90.8655 1219.32 90.8163 1219.64 90.7784C1219.97 90.7367 1220.21 90.6705 1220.35 90.5795C1220.5 90.4886 1220.57 90.3409 1220.57 90.1364V90.0966C1220.57 89.6004 1220.43 89.2159 1220.15 88.9432C1219.88 88.6705 1219.46 88.5341 1218.92 88.5341C1218.34 88.5341 1217.89 88.661 1217.56 88.9148C1217.24 89.1648 1217.01 89.4432 1216.89 89.75L1215.29 89.3864C1215.48 88.8561 1215.76 88.428 1216.12 88.1023C1216.49 87.7727 1216.91 87.5341 1217.39 87.3864C1217.86 87.2348 1218.37 87.1591 1218.89 87.1591C1219.24 87.1591 1219.61 87.2008 1220 87.2841C1220.39 87.3636 1220.76 87.5114 1221.1 87.7273C1221.45 87.9432 1221.73 88.2519 1221.95 88.6534C1222.17 89.0511 1222.28 89.5682 1222.28 90.2045V96H1220.62V94.8068H1220.55C1220.44 95.0265 1220.28 95.2424 1220.06 95.4545C1219.84 95.6667 1219.56 95.8428 1219.21 95.983C1218.87 96.1231 1218.45 96.1932 1217.97 96.1932ZM1218.34 94.8295C1218.81 94.8295 1219.21 94.7367 1219.55 94.5511C1219.88 94.3655 1220.14 94.1231 1220.31 93.8239C1220.49 93.5208 1220.58 93.197 1220.58 92.8523V91.7273C1220.52 91.7879 1220.4 91.8447 1220.23 91.8977C1220.06 91.947 1219.86 91.9905 1219.64 92.0284C1219.42 92.0625 1219.21 92.0947 1219 92.125C1218.79 92.1515 1218.62 92.1742 1218.48 92.1932C1218.15 92.2348 1217.85 92.3049 1217.57 92.4034C1217.31 92.5019 1217.09 92.6439 1216.93 92.8295C1216.77 93.0114 1216.69 93.2538 1216.69 93.5568C1216.69 93.9773 1216.84 94.2955 1217.15 94.5114C1217.46 94.7235 1217.86 94.8295 1218.34 94.8295ZM1228.44 87.2727V88.6364H1223.67V87.2727H1228.44ZM1224.95 85.1818H1226.65V93.4375C1226.65 93.767 1226.7 94.0152 1226.8 94.1818C1226.9 94.3447 1227.02 94.4564 1227.18 94.517C1227.34 94.5739 1227.51 94.6023 1227.7 94.6023C1227.83 94.6023 1227.95 94.5928 1228.05 94.5739C1228.16 94.5549 1228.24 94.5398 1228.29 94.5284L1228.6 95.9318C1228.5 95.9697 1228.36 96.0076 1228.18 96.0455C1228 96.0871 1227.77 96.1098 1227.5 96.1136C1227.05 96.1212 1226.63 96.0417 1226.25 95.875C1225.86 95.7083 1225.55 95.4508 1225.31 95.1023C1225.07 94.7538 1224.95 94.3163 1224.95 93.7898V85.1818ZM1230.14 96V87.2727H1231.84V96H1230.14ZM1231 85.9261C1230.71 85.9261 1230.45 85.8277 1230.24 85.6307C1230.03 85.4299 1229.93 85.1913 1229.93 84.9148C1229.93 84.6345 1230.03 84.3958 1230.24 84.1989C1230.45 83.9981 1230.71 83.8977 1231 83.8977C1231.3 83.8977 1231.55 83.9981 1231.76 84.1989C1231.97 84.3958 1232.08 84.6345 1232.08 84.9148C1232.08 85.1913 1231.97 85.4299 1231.76 85.6307C1231.55 85.8277 1231.3 85.9261 1231 85.9261ZM1241.42 87.2727L1238.25 96H1236.43L1233.26 87.2727H1235.09L1237.3 93.9886H1237.39L1239.59 87.2727H1241.42ZM1246.3 96.1761C1245.44 96.1761 1244.7 95.9924 1244.08 95.625C1243.46 95.2538 1242.99 94.733 1242.65 94.0625C1242.32 93.3883 1242.15 92.5985 1242.15 91.6932C1242.15 90.7992 1242.32 90.0114 1242.65 89.3295C1242.99 88.6477 1243.46 88.1155 1244.06 87.733C1244.66 87.3504 1245.37 87.1591 1246.18 87.1591C1246.68 87.1591 1247.15 87.2405 1247.62 87.4034C1248.08 87.5663 1248.49 87.822 1248.86 88.1705C1249.23 88.5189 1249.52 88.9716 1249.73 89.5284C1249.94 90.0814 1250.05 90.7538 1250.05 91.5455V92.1477H1243.11V90.875H1248.38C1248.38 90.428 1248.29 90.0322 1248.11 89.6875C1247.93 89.339 1247.67 89.0644 1247.34 88.8636C1247.02 88.6629 1246.63 88.5625 1246.19 88.5625C1245.72 88.5625 1245.3 88.6799 1244.94 88.9148C1244.59 89.1458 1244.32 89.4489 1244.13 89.8239C1243.94 90.1951 1243.84 90.5985 1243.84 91.0341V92.0284C1243.84 92.6117 1243.94 93.108 1244.15 93.517C1244.36 93.9261 1244.65 94.2386 1245.02 94.4545C1245.39 94.6667 1245.82 94.7727 1246.32 94.7727C1246.64 94.7727 1246.94 94.7273 1247.2 94.6364C1247.47 94.5417 1247.69 94.4015 1247.89 94.2159C1248.08 94.0303 1248.23 93.8011 1248.33 93.5284L1249.94 93.8182C1249.81 94.2917 1249.58 94.7064 1249.25 95.0625C1248.92 95.4148 1248.5 95.6894 1248 95.8864C1247.51 96.0795 1246.94 96.1761 1246.3 96.1761Z" fill="#333333"/>
<ellipse cx="694.5" cy="90" rx="76.5" ry="77" fill="#D99BFF"/>
<path d="M666.375 88.0398C666.265 87.6951 666.118 87.3864 665.932 87.1136C665.75 86.8371 665.532 86.6023 665.279 86.4091C665.025 86.2121 664.735 86.0625 664.409 85.9602C664.087 85.858 663.733 85.8068 663.347 85.8068C662.691 85.8068 662.1 85.9754 661.574 86.3125C661.047 86.6496 660.631 87.1439 660.324 87.7955C660.021 88.4432 659.869 89.2367 659.869 90.1761C659.869 91.1193 660.023 91.9167 660.33 92.5682C660.636 93.2197 661.057 93.714 661.591 94.0511C662.125 94.3883 662.733 94.5568 663.415 94.5568C664.047 94.5568 664.599 94.428 665.068 94.1705C665.542 93.9129 665.907 93.5492 666.165 93.0795C666.426 92.6061 666.557 92.0492 666.557 91.4091L667.011 91.4943H663.682V90.0455H668.256V91.3693C668.256 92.3466 668.047 93.1951 667.631 93.9148C667.218 94.6307 666.646 95.1837 665.915 95.5739C665.188 95.964 664.354 96.1591 663.415 96.1591C662.362 96.1591 661.438 95.9167 660.642 95.4318C659.85 94.947 659.233 94.2595 658.79 93.3693C658.347 92.4754 658.125 91.4148 658.125 90.1875C658.125 89.2595 658.254 88.4261 658.511 87.6875C658.769 86.9489 659.131 86.322 659.597 85.8068C660.066 85.2879 660.618 84.892 661.25 84.6193C661.886 84.3428 662.582 84.2045 663.335 84.2045C663.964 84.2045 664.549 84.2973 665.091 84.483C665.636 84.6686 666.121 84.9318 666.546 85.2727C666.974 85.6136 667.328 86.0189 667.608 86.4886C667.888 86.9545 668.078 87.4716 668.176 88.0398H666.375ZM673.933 96.1761C673.074 96.1761 672.333 95.9924 671.712 95.625C671.094 95.2538 670.617 94.733 670.28 94.0625C669.947 93.3883 669.78 92.5985 669.78 91.6932C669.78 90.7992 669.947 90.0114 670.28 89.3295C670.617 88.6477 671.087 88.1155 671.689 87.733C672.295 87.3504 673.004 87.1591 673.814 87.1591C674.307 87.1591 674.784 87.2405 675.246 87.4034C675.708 87.5663 676.123 87.822 676.49 88.1705C676.858 88.5189 677.147 88.9716 677.36 89.5284C677.572 90.0814 677.678 90.7538 677.678 91.5455V92.1477H670.74V90.875H676.013C676.013 90.428 675.922 90.0322 675.74 89.6875C675.558 89.339 675.303 89.0644 674.973 88.8636C674.647 88.6629 674.265 88.5625 673.826 88.5625C673.348 88.5625 672.932 88.6799 672.576 88.9148C672.223 89.1458 671.951 89.4489 671.757 89.8239C671.568 90.1951 671.473 90.5985 671.473 91.0341V92.0284C671.473 92.6117 671.576 93.108 671.78 93.517C671.988 93.9261 672.278 94.2386 672.649 94.4545C673.021 94.6667 673.454 94.7727 673.951 94.7727C674.272 94.7727 674.566 94.7273 674.831 94.6364C675.096 94.5417 675.326 94.4015 675.519 94.2159C675.712 94.0303 675.86 93.8011 675.962 93.5284L677.57 93.8182C677.441 94.2917 677.21 94.7064 676.877 95.0625C676.547 95.4148 676.132 95.6894 675.632 95.8864C675.136 96.0795 674.57 96.1761 673.933 96.1761ZM683.461 87.2727V88.6364H678.694V87.2727H683.461ZM679.972 85.1818H681.671V93.4375C681.671 93.767 681.72 94.0152 681.819 94.1818C681.917 94.3447 682.044 94.4564 682.199 94.517C682.358 94.5739 682.531 94.6023 682.716 94.6023C682.853 94.6023 682.972 94.5928 683.074 94.5739C683.177 94.5549 683.256 94.5398 683.313 94.5284L683.62 95.9318C683.521 95.9697 683.381 96.0076 683.199 96.0455C683.017 96.0871 682.79 96.1098 682.517 96.1136C682.07 96.1212 681.654 96.0417 681.267 95.875C680.881 95.7083 680.569 95.4508 680.33 95.1023C680.091 94.7538 679.972 94.3163 679.972 93.7898V85.1818ZM690.342 96H688.478L692.665 84.3636H694.694L698.881 96H697.018L693.728 86.4773H693.637L690.342 96ZM690.654 91.4432H696.7V92.9205H690.654V91.4432ZM706.622 87.2727L703.457 96H701.639L698.468 87.2727H700.292L702.502 93.9886H702.593L704.798 87.2727H706.622ZM710.332 96.1932C709.779 96.1932 709.279 96.0909 708.832 95.8864C708.385 95.678 708.031 95.3769 707.769 94.983C707.512 94.589 707.383 94.1061 707.383 93.5341C707.383 93.0417 707.478 92.6364 707.667 92.3182C707.857 92 708.112 91.7481 708.434 91.5625C708.756 91.3769 709.116 91.2367 709.514 91.142C709.911 91.0473 710.317 90.9754 710.73 90.9261C711.252 90.8655 711.677 90.8163 712.002 90.7784C712.328 90.7367 712.565 90.6705 712.713 90.5795C712.86 90.4886 712.934 90.3409 712.934 90.1364V90.0966C712.934 89.6004 712.794 89.2159 712.514 88.9432C712.237 88.6705 711.824 88.5341 711.275 88.5341C710.703 88.5341 710.252 88.661 709.923 88.9148C709.597 89.1648 709.372 89.4432 709.247 89.75L707.65 89.3864C707.839 88.8561 708.116 88.428 708.48 88.1023C708.847 87.7727 709.269 87.5341 709.747 87.3864C710.224 87.2348 710.726 87.1591 711.252 87.1591C711.601 87.1591 711.97 87.2008 712.36 87.2841C712.754 87.3636 713.122 87.5114 713.463 87.7273C713.807 87.9432 714.089 88.2519 714.309 88.6534C714.529 89.0511 714.639 89.5682 714.639 90.2045V96H712.98V94.8068H712.911C712.802 95.0265 712.637 95.2424 712.417 95.4545C712.197 95.6667 711.915 95.8428 711.571 95.983C711.226 96.1231 710.813 96.1932 710.332 96.1932ZM710.701 94.8295C711.171 94.8295 711.572 94.7367 711.906 94.5511C712.243 94.3655 712.499 94.1231 712.673 93.8239C712.851 93.5208 712.94 93.197 712.94 92.8523V91.7273C712.879 91.7879 712.762 91.8447 712.588 91.8977C712.417 91.947 712.222 91.9905 712.002 92.0284C711.783 92.0625 711.569 92.0947 711.36 92.125C711.152 92.1515 710.978 92.1742 710.838 92.1932C710.508 92.2348 710.207 92.3049 709.934 92.4034C709.665 92.5019 709.449 92.6439 709.286 92.8295C709.127 93.0114 709.048 93.2538 709.048 93.5568C709.048 93.9773 709.203 94.2955 709.514 94.5114C709.824 94.7235 710.22 94.8295 710.701 94.8295ZM716.725 96V87.2727H718.424V96H716.725ZM717.583 85.9261C717.288 85.9261 717.034 85.8277 716.822 85.6307C716.614 85.4299 716.51 85.1913 716.51 84.9148C716.51 84.6345 716.614 84.3958 716.822 84.1989C717.034 83.9981 717.288 83.8977 717.583 83.8977C717.879 83.8977 718.131 83.9981 718.339 84.1989C718.551 84.3958 718.657 84.6345 718.657 84.9148C718.657 85.1913 718.551 85.4299 718.339 85.6307C718.131 85.8277 717.879 85.9261 717.583 85.9261ZM722.233 84.3636V96H720.534V84.3636H722.233ZM730.882 89.4034L729.342 89.6761C729.278 89.4792 729.176 89.2917 729.035 89.1136C728.899 88.9356 728.713 88.7898 728.479 88.6761C728.244 88.5625 727.95 88.5057 727.598 88.5057C727.117 88.5057 726.715 88.6136 726.393 88.8295C726.071 89.0417 725.91 89.3163 725.91 89.6534C725.91 89.9451 726.018 90.1799 726.234 90.358C726.45 90.536 726.799 90.6818 727.28 90.7955L728.666 91.1136C729.469 91.2992 730.068 91.5852 730.462 91.9716C730.855 92.358 731.052 92.8598 731.052 93.4773C731.052 94 730.901 94.4659 730.598 94.875C730.299 95.2803 729.88 95.5985 729.342 95.8295C728.808 96.0606 728.189 96.1761 727.484 96.1761C726.507 96.1761 725.71 95.9678 725.092 95.5511C724.475 95.1307 724.096 94.5341 723.956 93.7614L725.598 93.5114C725.7 93.9394 725.91 94.2633 726.229 94.483C726.547 94.6989 726.962 94.8068 727.473 94.8068C728.03 94.8068 728.475 94.6913 728.808 94.4602C729.141 94.2254 729.308 93.9394 729.308 93.6023C729.308 93.3295 729.206 93.1004 729.001 92.9148C728.801 92.7292 728.492 92.589 728.075 92.4943L726.598 92.1705C725.784 91.9848 725.181 91.6894 724.791 91.2841C724.405 90.8788 724.212 90.3655 724.212 89.7443C724.212 89.2292 724.355 88.7784 724.643 88.392C724.931 88.0057 725.329 87.7045 725.837 87.4886C726.344 87.2689 726.926 87.1591 727.581 87.1591C728.524 87.1591 729.266 87.3636 729.808 87.7727C730.35 88.178 730.708 88.7216 730.882 89.4034Z" fill="#333333"/>
<ellipse cx="1462.5" cy="90" rx="77.5" ry="77" fill="#D99BFF"/>
<path d="M1443.7 75.4205C1443.64 74.8826 1443.39 74.4659 1442.95 74.1705C1442.51 73.8712 1441.96 73.7216 1441.29 73.7216C1440.81 73.7216 1440.4 73.7973 1440.05 73.9489C1439.7 74.0966 1439.43 74.3011 1439.24 74.5625C1439.05 74.8201 1438.96 75.1136 1438.96 75.4432C1438.96 75.7197 1439.02 75.9583 1439.15 76.1591C1439.28 76.3598 1439.45 76.5284 1439.67 76.6648C1439.88 76.7973 1440.11 76.9091 1440.36 77C1440.61 77.0871 1440.84 77.1591 1441.07 77.2159L1442.21 77.5114C1442.58 77.6023 1442.96 77.7254 1443.35 77.8807C1443.74 78.036 1444.1 78.2405 1444.43 78.4943C1444.77 78.7481 1445.04 79.0625 1445.24 79.4375C1445.45 79.8125 1445.55 80.2614 1445.55 80.7841C1445.55 81.4432 1445.38 82.0284 1445.04 82.5398C1444.7 83.0511 1444.21 83.4545 1443.57 83.75C1442.93 84.0455 1442.15 84.1932 1441.25 84.1932C1440.37 84.1932 1439.62 84.0549 1438.98 83.7784C1438.35 83.5019 1437.85 83.1098 1437.49 82.6023C1437.13 82.0909 1436.93 81.4848 1436.89 80.7841H1438.65C1438.69 81.2045 1438.82 81.5549 1439.06 81.8352C1439.31 82.1117 1439.61 82.3182 1439.99 82.4545C1440.37 82.5871 1440.78 82.6534 1441.23 82.6534C1441.73 82.6534 1442.17 82.5758 1442.56 82.4205C1442.95 82.2614 1443.25 82.0417 1443.48 81.7614C1443.7 81.4773 1443.81 81.1458 1443.81 80.767C1443.81 80.4223 1443.72 80.1402 1443.52 79.9205C1443.32 79.7008 1443.06 79.5189 1442.73 79.375C1442.4 79.2311 1442.03 79.1042 1441.61 78.9943L1440.23 78.6193C1439.3 78.3655 1438.56 77.9924 1438.02 77.5C1437.48 77.0076 1437.21 76.3561 1437.21 75.5455C1437.21 74.875 1437.39 74.2898 1437.75 73.7898C1438.11 73.2898 1438.61 72.9015 1439.23 72.625C1439.85 72.3447 1440.55 72.2045 1441.33 72.2045C1442.12 72.2045 1442.81 72.3428 1443.42 72.6193C1444.02 72.8958 1444.5 73.2765 1444.85 73.7614C1445.2 74.2424 1445.38 74.7955 1445.39 75.4205H1443.7ZM1452.87 80.3807V75.2727H1454.57V84H1452.9V82.4886H1452.81C1452.61 82.9545 1452.29 83.3428 1451.84 83.6534C1451.4 83.9602 1450.86 84.1136 1450.2 84.1136C1449.64 84.1136 1449.14 83.9905 1448.71 83.7443C1448.28 83.4943 1447.95 83.125 1447.7 82.6364C1447.46 82.1477 1447.34 81.5436 1447.34 80.8239V75.2727H1449.04V80.6193C1449.04 81.214 1449.2 81.6875 1449.53 82.0398C1449.86 82.392 1450.29 82.5682 1450.82 82.5682C1451.13 82.5682 1451.45 82.4886 1451.76 82.3295C1452.08 82.1705 1452.35 81.9299 1452.55 81.608C1452.77 81.286 1452.87 80.8769 1452.87 80.3807ZM1456.81 84V72.3636H1458.51V76.6875H1458.61C1458.71 76.5057 1458.86 76.2955 1459.04 76.0568C1459.23 75.8182 1459.48 75.6098 1459.81 75.4318C1460.14 75.25 1460.58 75.1591 1461.12 75.1591C1461.83 75.1591 1462.45 75.3371 1463.01 75.6932C1463.56 76.0492 1463.99 76.5625 1464.31 77.233C1464.63 77.9034 1464.79 78.7102 1464.79 79.6534C1464.79 80.5966 1464.63 81.4053 1464.31 82.0795C1464 82.75 1463.57 83.267 1463.02 83.6307C1462.47 83.9905 1461.84 84.1705 1461.14 84.1705C1460.61 84.1705 1460.17 84.0814 1459.84 83.9034C1459.5 83.7254 1459.24 83.517 1459.05 83.2784C1458.86 83.0398 1458.72 82.8277 1458.61 82.642H1458.47V84H1456.81ZM1458.48 79.6364C1458.48 80.25 1458.57 80.7879 1458.75 81.25C1458.92 81.7121 1459.18 82.0739 1459.52 82.3352C1459.86 82.5928 1460.27 82.7216 1460.76 82.7216C1461.26 82.7216 1461.69 82.5871 1462.03 82.3182C1462.37 82.0455 1462.63 81.6761 1462.8 81.2102C1462.98 80.7443 1463.07 80.2197 1463.07 79.6364C1463.07 79.0606 1462.98 78.5436 1462.81 78.0852C1462.64 77.6269 1462.38 77.2652 1462.04 77C1461.69 76.7348 1461.27 76.6023 1460.76 76.6023C1460.26 76.6023 1459.85 76.7292 1459.51 76.983C1459.17 77.2367 1458.91 77.5909 1458.74 78.0455C1458.57 78.5 1458.48 79.0303 1458.48 79.6364ZM1466.52 84V75.2727H1468.15V76.6932H1468.26C1468.44 76.2121 1468.73 75.8371 1469.15 75.5682C1469.56 75.2955 1470.05 75.1591 1470.63 75.1591C1471.21 75.1591 1471.7 75.2955 1472.1 75.5682C1472.49 75.8409 1472.79 76.2159 1472.98 76.6932H1473.07C1473.28 76.2273 1473.61 75.8561 1474.06 75.5795C1474.52 75.2992 1475.06 75.1591 1475.69 75.1591C1476.48 75.1591 1477.12 75.4072 1477.62 75.9034C1478.13 76.3996 1478.38 77.1477 1478.38 78.1477V84H1476.68V78.3068C1476.68 77.7159 1476.52 77.2879 1476.2 77.0227C1475.88 76.7576 1475.49 76.625 1475.05 76.625C1474.49 76.625 1474.06 76.7955 1473.76 77.1364C1473.45 77.4735 1473.3 77.9072 1473.3 78.4375V84H1471.6V78.1989C1471.6 77.7254 1471.45 77.3447 1471.16 77.0568C1470.86 76.7689 1470.48 76.625 1470.01 76.625C1469.68 76.625 1469.39 76.7102 1469.11 76.8807C1468.84 77.0473 1468.63 77.2803 1468.46 77.5795C1468.3 77.8788 1468.22 78.2254 1468.22 78.6193V84H1466.52ZM1480.48 84V75.2727H1482.18V84H1480.48ZM1481.34 73.9261C1481.04 73.9261 1480.79 73.8277 1480.58 73.6307C1480.37 73.4299 1480.27 73.1913 1480.27 72.9148C1480.27 72.6345 1480.37 72.3958 1480.58 72.1989C1480.79 71.9981 1481.04 71.8977 1481.34 71.8977C1481.64 71.8977 1481.89 71.9981 1482.1 72.1989C1482.31 72.3958 1482.41 72.6345 1482.41 72.9148C1482.41 73.1913 1482.31 73.4299 1482.1 73.6307C1481.89 73.8277 1481.64 73.9261 1481.34 73.9261ZM1488.36 75.2727V76.6364H1483.6V75.2727H1488.36ZM1484.88 73.1818H1486.57V81.4375C1486.57 81.767 1486.62 82.0152 1486.72 82.1818C1486.82 82.3447 1486.95 82.4564 1487.1 82.517C1487.26 82.5739 1487.43 82.6023 1487.62 82.6023C1487.76 82.6023 1487.88 82.5928 1487.98 82.5739C1488.08 82.5549 1488.16 82.5398 1488.22 82.5284L1488.52 83.9318C1488.42 83.9697 1488.28 84.0076 1488.1 84.0455C1487.92 84.0871 1487.69 84.1098 1487.42 84.1136C1486.97 84.1212 1486.56 84.0417 1486.17 83.875C1485.78 83.7083 1485.47 83.4508 1485.23 83.1023C1484.99 82.7538 1484.88 82.3163 1484.88 81.7898V73.1818ZM1435.35 100.148H1433.58C1433.51 99.7689 1433.38 99.4356 1433.19 99.1477C1433.01 98.8598 1432.78 98.6155 1432.51 98.4148C1432.24 98.214 1431.94 98.0625 1431.61 97.9602C1431.28 97.858 1430.93 97.8068 1430.56 97.8068C1429.89 97.8068 1429.29 97.9754 1428.76 98.3125C1428.23 98.6496 1427.81 99.1439 1427.51 99.7955C1427.2 100.447 1427.05 101.242 1427.05 102.182C1427.05 103.129 1427.2 103.928 1427.51 104.58C1427.81 105.231 1428.23 105.723 1428.76 106.057C1429.29 106.39 1429.89 106.557 1430.55 106.557C1430.92 106.557 1431.27 106.508 1431.6 106.409C1431.93 106.307 1432.23 106.157 1432.5 105.96C1432.77 105.763 1433 105.523 1433.18 105.239C1433.37 104.951 1433.5 104.621 1433.58 104.25L1435.35 104.256C1435.25 104.828 1435.07 105.354 1434.8 105.835C1434.53 106.312 1434.18 106.725 1433.76 107.074C1433.34 107.419 1432.86 107.686 1432.31 107.875C1431.77 108.064 1431.18 108.159 1430.54 108.159C1429.53 108.159 1428.64 107.92 1427.85 107.443C1427.06 106.962 1426.44 106.275 1425.98 105.381C1425.53 104.487 1425.31 103.42 1425.31 102.182C1425.31 100.939 1425.54 99.8731 1425.99 98.983C1426.44 98.089 1427.07 97.4034 1427.85 96.9261C1428.64 96.4451 1429.54 96.2045 1430.54 96.2045C1431.16 96.2045 1431.73 96.2936 1432.27 96.4716C1432.81 96.6458 1433.29 96.9034 1433.72 97.2443C1434.15 97.5814 1434.5 97.9943 1434.78 98.483C1435.06 98.9678 1435.25 99.5227 1435.35 100.148ZM1439.68 108.193C1439.12 108.193 1438.62 108.091 1438.18 107.886C1437.73 107.678 1437.38 107.377 1437.11 106.983C1436.86 106.589 1436.73 106.106 1436.73 105.534C1436.73 105.042 1436.82 104.636 1437.01 104.318C1437.2 104 1437.46 103.748 1437.78 103.562C1438.1 103.377 1438.46 103.237 1438.86 103.142C1439.26 103.047 1439.66 102.975 1440.07 102.926C1440.6 102.866 1441.02 102.816 1441.35 102.778C1441.67 102.737 1441.91 102.67 1442.06 102.58C1442.2 102.489 1442.28 102.341 1442.28 102.136V102.097C1442.28 101.6 1442.14 101.216 1441.86 100.943C1441.58 100.67 1441.17 100.534 1440.62 100.534C1440.05 100.534 1439.6 100.661 1439.27 100.915C1438.94 101.165 1438.72 101.443 1438.59 101.75L1436.99 101.386C1437.18 100.856 1437.46 100.428 1437.82 100.102C1438.19 99.7727 1438.61 99.5341 1439.09 99.3864C1439.57 99.2348 1440.07 99.1591 1440.6 99.1591C1440.95 99.1591 1441.31 99.2008 1441.7 99.2841C1442.1 99.3636 1442.47 99.5114 1442.81 99.7273C1443.15 99.9432 1443.43 100.252 1443.65 100.653C1443.87 101.051 1443.98 101.568 1443.98 102.205V108H1442.32V106.807H1442.26C1442.15 107.027 1441.98 107.242 1441.76 107.455C1441.54 107.667 1441.26 107.843 1440.92 107.983C1440.57 108.123 1440.16 108.193 1439.68 108.193ZM1440.05 106.83C1440.52 106.83 1440.92 106.737 1441.25 106.551C1441.59 106.366 1441.84 106.123 1442.02 105.824C1442.2 105.521 1442.28 105.197 1442.28 104.852V103.727C1442.22 103.788 1442.11 103.845 1441.93 103.898C1441.76 103.947 1441.57 103.991 1441.35 104.028C1441.13 104.062 1440.91 104.095 1440.7 104.125C1440.5 104.152 1440.32 104.174 1440.18 104.193C1439.85 104.235 1439.55 104.305 1439.28 104.403C1439.01 104.502 1438.79 104.644 1438.63 104.83C1438.47 105.011 1438.39 105.254 1438.39 105.557C1438.39 105.977 1438.55 106.295 1438.86 106.511C1439.17 106.723 1439.56 106.83 1440.05 106.83ZM1446.07 108V99.2727H1447.7V100.693H1447.81C1447.99 100.212 1448.29 99.8371 1448.7 99.5682C1449.11 99.2955 1449.61 99.1591 1450.18 99.1591C1450.77 99.1591 1451.26 99.2955 1451.65 99.5682C1452.05 99.8409 1452.34 100.216 1452.53 100.693H1452.62C1452.83 100.227 1453.16 99.8561 1453.62 99.5795C1454.07 99.2992 1454.61 99.1591 1455.24 99.1591C1456.03 99.1591 1456.68 99.4072 1457.18 99.9034C1457.68 100.4 1457.93 101.148 1457.93 102.148V108H1456.23V102.307C1456.23 101.716 1456.07 101.288 1455.75 101.023C1455.43 100.758 1455.05 100.625 1454.6 100.625C1454.05 100.625 1453.62 100.795 1453.31 101.136C1453 101.473 1452.85 101.907 1452.85 102.438V108H1451.16V102.199C1451.16 101.725 1451.01 101.345 1450.71 101.057C1450.42 100.769 1450.03 100.625 1449.56 100.625C1449.24 100.625 1448.94 100.71 1448.67 100.881C1448.4 101.047 1448.18 101.28 1448.01 101.58C1447.85 101.879 1447.77 102.225 1447.77 102.619V108H1446.07ZM1460.03 111.273V99.2727H1461.69V100.688H1461.84C1461.93 100.506 1462.08 100.295 1462.26 100.057C1462.45 99.8182 1462.71 99.6098 1463.03 99.4318C1463.36 99.25 1463.8 99.1591 1464.34 99.1591C1465.05 99.1591 1465.67 99.3371 1466.23 99.6932C1466.78 100.049 1467.21 100.562 1467.53 101.233C1467.85 101.903 1468.01 102.71 1468.01 103.653C1468.01 104.597 1467.85 105.405 1467.53 106.08C1467.22 106.75 1466.79 107.267 1466.24 107.631C1465.69 107.991 1465.06 108.17 1464.36 108.17C1463.83 108.17 1463.39 108.081 1463.06 107.903C1462.72 107.725 1462.46 107.517 1462.27 107.278C1462.08 107.04 1461.94 106.828 1461.84 106.642H1461.73V111.273H1460.03ZM1461.7 103.636C1461.7 104.25 1461.79 104.788 1461.97 105.25C1462.14 105.712 1462.4 106.074 1462.74 106.335C1463.08 106.593 1463.49 106.722 1463.98 106.722C1464.49 106.722 1464.91 106.587 1465.25 106.318C1465.59 106.045 1465.85 105.676 1466.02 105.21C1466.2 104.744 1466.29 104.22 1466.29 103.636C1466.29 103.061 1466.2 102.544 1466.03 102.085C1465.86 101.627 1465.6 101.265 1465.26 101C1464.92 100.735 1464.49 100.602 1463.98 100.602C1463.49 100.602 1463.07 100.729 1462.73 100.983C1462.39 101.237 1462.14 101.591 1461.96 102.045C1461.79 102.5 1461.7 103.03 1461.7 103.636ZM1472.27 108.193C1471.72 108.193 1471.22 108.091 1470.77 107.886C1470.33 107.678 1469.97 107.377 1469.71 106.983C1469.45 106.589 1469.32 106.106 1469.32 105.534C1469.32 105.042 1469.42 104.636 1469.61 104.318C1469.8 104 1470.05 103.748 1470.38 103.562C1470.7 103.377 1471.06 103.237 1471.46 103.142C1471.85 103.047 1472.26 102.975 1472.67 102.926C1473.19 102.866 1473.62 102.816 1473.94 102.778C1474.27 102.737 1474.51 102.67 1474.65 102.58C1474.8 102.489 1474.88 102.341 1474.88 102.136V102.097C1474.88 101.6 1474.74 101.216 1474.46 100.943C1474.18 100.67 1473.77 100.534 1473.22 100.534C1472.64 100.534 1472.19 100.661 1471.86 100.915C1471.54 101.165 1471.31 101.443 1471.19 101.75L1469.59 101.386C1469.78 100.856 1470.06 100.428 1470.42 100.102C1470.79 99.7727 1471.21 99.5341 1471.69 99.3864C1472.17 99.2348 1472.67 99.1591 1473.19 99.1591C1473.54 99.1591 1473.91 99.2008 1474.3 99.2841C1474.7 99.3636 1475.06 99.5114 1475.4 99.7273C1475.75 99.9432 1476.03 100.252 1476.25 100.653C1476.47 101.051 1476.58 101.568 1476.58 102.205V108H1474.92V106.807H1474.85C1474.74 107.027 1474.58 107.242 1474.36 107.455C1474.14 107.667 1473.86 107.843 1473.51 107.983C1473.17 108.123 1472.75 108.193 1472.27 108.193ZM1472.64 106.83C1473.11 106.83 1473.51 106.737 1473.85 106.551C1474.18 106.366 1474.44 106.123 1474.61 105.824C1474.79 105.521 1474.88 105.197 1474.88 104.852V103.727C1474.82 103.788 1474.7 103.845 1474.53 103.898C1474.36 103.947 1474.16 103.991 1473.94 104.028C1473.72 104.062 1473.51 104.095 1473.3 104.125C1473.09 104.152 1472.92 104.174 1472.78 104.193C1472.45 104.235 1472.15 104.305 1471.88 104.403C1471.61 104.502 1471.39 104.644 1471.23 104.83C1471.07 105.011 1470.99 105.254 1470.99 105.557C1470.99 105.977 1471.14 106.295 1471.46 106.511C1471.77 106.723 1472.16 106.83 1472.64 106.83ZM1478.67 108V99.2727H1480.37V108H1478.67ZM1479.53 97.9261C1479.23 97.9261 1478.98 97.8277 1478.76 97.6307C1478.56 97.4299 1478.45 97.1913 1478.45 96.9148C1478.45 96.6345 1478.56 96.3958 1478.76 96.1989C1478.98 95.9981 1479.23 95.8977 1479.53 95.8977C1479.82 95.8977 1480.07 95.9981 1480.28 96.1989C1480.49 96.3958 1480.6 96.6345 1480.6 96.9148C1480.6 97.1913 1480.49 97.4299 1480.28 97.6307C1480.07 97.8277 1479.82 97.9261 1479.53 97.9261ZM1486.13 111.455C1485.44 111.455 1484.84 111.364 1484.34 111.182C1483.85 111 1483.44 110.759 1483.13 110.46C1482.81 110.161 1482.58 109.833 1482.42 109.477L1483.88 108.875C1483.99 109.042 1484.12 109.218 1484.29 109.403C1484.47 109.593 1484.7 109.754 1485 109.886C1485.3 110.019 1485.68 110.085 1486.15 110.085C1486.8 110.085 1487.33 109.928 1487.75 109.614C1488.17 109.303 1488.38 108.807 1488.38 108.125V106.409H1488.27C1488.17 106.595 1488.02 106.801 1487.83 107.028C1487.64 107.256 1487.38 107.453 1487.04 107.619C1486.71 107.786 1486.28 107.869 1485.74 107.869C1485.05 107.869 1484.43 107.708 1483.88 107.386C1483.33 107.061 1482.89 106.581 1482.57 105.949C1482.25 105.312 1482.09 104.53 1482.09 103.602C1482.09 102.674 1482.25 101.879 1482.57 101.216C1482.88 100.553 1483.32 100.045 1483.87 99.6932C1484.43 99.3371 1485.05 99.1591 1485.75 99.1591C1486.3 99.1591 1486.73 99.25 1487.07 99.4318C1487.4 99.6098 1487.66 99.8182 1487.84 100.057C1488.03 100.295 1488.18 100.506 1488.28 100.688H1488.41V99.2727H1490.07V108.193C1490.07 108.943 1489.9 109.559 1489.55 110.04C1489.2 110.521 1488.73 110.877 1488.13 111.108C1487.54 111.339 1486.88 111.455 1486.13 111.455ZM1486.12 106.46C1486.61 106.46 1487.02 106.347 1487.36 106.119C1487.7 105.888 1487.95 105.559 1488.13 105.131C1488.31 104.699 1488.4 104.182 1488.4 103.58C1488.4 102.992 1488.31 102.475 1488.13 102.028C1487.96 101.581 1487.7 101.233 1487.37 100.983C1487.03 100.729 1486.61 100.602 1486.12 100.602C1485.61 100.602 1485.18 100.735 1484.84 101C1484.5 101.261 1484.24 101.617 1484.07 102.068C1483.9 102.519 1483.81 103.023 1483.81 103.58C1483.81 104.152 1483.9 104.653 1484.07 105.085C1484.25 105.517 1484.5 105.854 1484.84 106.097C1485.19 106.339 1485.61 106.46 1486.12 106.46ZM1493.87 102.818V108H1492.17V99.2727H1493.81V100.693H1493.91C1494.11 100.231 1494.43 99.8598 1494.86 99.5795C1495.29 99.2992 1495.83 99.1591 1496.49 99.1591C1497.08 99.1591 1497.6 99.2841 1498.05 99.5341C1498.5 99.7803 1498.84 100.148 1499.09 100.636C1499.34 101.125 1499.46 101.729 1499.46 102.449V108H1497.76V102.653C1497.76 102.021 1497.59 101.527 1497.27 101.17C1496.94 100.811 1496.48 100.631 1495.91 100.631C1495.51 100.631 1495.16 100.716 1494.86 100.886C1494.55 101.057 1494.31 101.307 1494.13 101.636C1493.96 101.962 1493.87 102.356 1493.87 102.818Z" fill="#333333"/>
<path d="M1283 88.5C1282.17 88.5 1281.5 89.1716 1281.5 90C1281.5 90.8284 1282.17 91.5 1283 91.5V88.5ZM1382.06 91.0607C1382.65 90.4749 1382.65 89.5251 1382.06 88.9393L1372.51 79.3934C1371.93 78.8076 1370.98 78.8076 1370.39 79.3934C1369.81 79.9792 1369.81 80.9289 1370.39 81.5147L1378.88 90L1370.39 98.4853C1369.81 99.0711 1369.81 100.021 1370.39 100.607C1370.98 101.192 1371.93 101.192 1372.51 100.607L1382.06 91.0607ZM1283 91.5H1381V88.5H1283V91.5Z" fill="#CECCCC"/>
<path d="M937.244 14.7712C939.59 12.4096 943.41 12.4096 945.756 14.7712L1016.26 85.7712C1018.58 88.1111 1018.58 91.8889 1016.26 94.2288L945.756 165.229C943.41 167.59 939.59 167.59 937.244 165.229L866.744 94.2288C864.419 91.8889 864.419 88.1111 866.744 85.7712L937.244 14.7712Z" fill="#D99BFF"/>
<path d="M922 84H920.137L924.324 72.3636H926.353L930.54 84H928.676L925.387 74.4773H925.296L922 84ZM922.313 79.4432H928.358V80.9205H922.313V79.4432ZM938.28 75.2727L935.115 84H933.297L930.127 75.2727H931.951L934.161 81.9886H934.252L936.456 75.2727H938.28ZM941.991 84.1932C941.438 84.1932 940.938 84.0909 940.491 83.8864C940.044 83.678 939.689 83.3769 939.428 82.983C939.171 82.589 939.042 82.1061 939.042 81.5341C939.042 81.0417 939.136 80.6364 939.326 80.3182C939.515 80 939.771 79.7481 940.093 79.5625C940.415 79.3769 940.775 79.2367 941.172 79.142C941.57 79.0473 941.975 78.9754 942.388 78.9261C942.911 78.8655 943.335 78.8163 943.661 78.7784C943.987 78.7367 944.224 78.6705 944.371 78.5795C944.519 78.4886 944.593 78.3409 944.593 78.1364V78.0966C944.593 77.6004 944.453 77.2159 944.172 76.9432C943.896 76.6705 943.483 76.5341 942.934 76.5341C942.362 76.5341 941.911 76.661 941.582 76.9148C941.256 77.1648 941.03 77.4432 940.905 77.75L939.309 77.3864C939.498 76.8561 939.775 76.428 940.138 76.1023C940.506 75.7727 940.928 75.5341 941.405 75.3864C941.883 75.2348 942.385 75.1591 942.911 75.1591C943.26 75.1591 943.629 75.2008 944.019 75.2841C944.413 75.3636 944.78 75.5114 945.121 75.7273C945.466 75.9432 945.748 76.2519 945.968 76.6534C946.188 77.0511 946.297 77.5682 946.297 78.2045V84H944.638V82.8068H944.57C944.46 83.0265 944.296 83.2424 944.076 83.4545C943.856 83.6667 943.574 83.8428 943.229 83.983C942.885 84.1231 942.472 84.1932 941.991 84.1932ZM942.36 82.8295C942.83 82.8295 943.231 82.7367 943.564 82.5511C943.902 82.3655 944.157 82.1231 944.332 81.8239C944.51 81.5208 944.599 81.197 944.599 80.8523V79.7273C944.538 79.7879 944.421 79.8447 944.246 79.8977C944.076 79.947 943.881 79.9905 943.661 80.0284C943.441 80.0625 943.227 80.0947 943.019 80.125C942.811 80.1515 942.636 80.1742 942.496 80.1932C942.167 80.2348 941.866 80.3049 941.593 80.4034C941.324 80.5019 941.108 80.6439 940.945 80.8295C940.786 81.0114 940.707 81.2538 940.707 81.5568C940.707 81.9773 940.862 82.2955 941.172 82.5114C941.483 82.7235 941.879 82.8295 942.36 82.8295ZM948.384 84V75.2727H950.083V84H948.384ZM949.242 73.9261C948.947 73.9261 948.693 73.8277 948.481 73.6307C948.272 73.4299 948.168 73.1913 948.168 72.9148C948.168 72.6345 948.272 72.3958 948.481 72.1989C948.693 71.9981 948.947 71.8977 949.242 71.8977C949.538 71.8977 949.79 71.9981 949.998 72.1989C950.21 72.3958 950.316 72.6345 950.316 72.9148C950.316 73.1913 950.21 73.4299 949.998 73.6307C949.79 73.8277 949.538 73.9261 949.242 73.9261ZM953.891 72.3636V84H952.193V72.3636H953.891ZM962.541 77.4034L961.001 77.6761C960.937 77.4792 960.834 77.2917 960.694 77.1136C960.558 76.9356 960.372 76.7898 960.137 76.6761C959.902 76.5625 959.609 76.5057 959.257 76.5057C958.776 76.5057 958.374 76.6136 958.052 76.8295C957.73 77.0417 957.569 77.3163 957.569 77.6534C957.569 77.9451 957.677 78.1799 957.893 78.358C958.109 78.536 958.457 78.6818 958.938 78.7955L960.325 79.1136C961.128 79.2992 961.726 79.5852 962.12 79.9716C962.514 80.358 962.711 80.8598 962.711 81.4773C962.711 82 962.56 82.4659 962.257 82.875C961.957 83.2803 961.539 83.5985 961.001 83.8295C960.467 84.0606 959.848 84.1761 959.143 84.1761C958.166 84.1761 957.368 83.9678 956.751 83.5511C956.134 83.1307 955.755 82.5341 955.615 81.7614L957.257 81.5114C957.359 81.9394 957.569 82.2633 957.887 82.483C958.206 82.6989 958.62 82.8068 959.132 82.8068C959.688 82.8068 960.134 82.6913 960.467 82.4602C960.8 82.2254 960.967 81.9394 960.967 81.6023C960.967 81.3295 960.865 81.1004 960.66 80.9148C960.459 80.7292 960.151 80.589 959.734 80.4943L958.257 80.1705C957.442 79.9848 956.84 79.6894 956.45 79.2841C956.063 78.8788 955.87 78.3655 955.87 77.7443C955.87 77.2292 956.014 76.7784 956.302 76.392C956.59 76.0057 956.988 75.7045 957.495 75.4886C958.003 75.2689 958.584 75.1591 959.24 75.1591C960.183 75.1591 960.925 75.3636 961.467 75.7727C962.009 76.178 962.367 76.7216 962.541 77.4034ZM926.162 100.04C926.052 99.6951 925.904 99.3864 925.718 99.1136C925.537 98.8371 925.319 98.6023 925.065 98.4091C924.811 98.2121 924.522 98.0625 924.196 97.9602C923.874 97.858 923.52 97.8068 923.133 97.8068C922.478 97.8068 921.887 97.9754 921.361 98.3125C920.834 98.6496 920.417 99.1439 920.111 99.7955C919.807 100.443 919.656 101.237 919.656 102.176C919.656 103.119 919.809 103.917 920.116 104.568C920.423 105.22 920.843 105.714 921.378 106.051C921.912 106.388 922.52 106.557 923.201 106.557C923.834 106.557 924.385 106.428 924.855 106.17C925.328 105.913 925.694 105.549 925.951 105.08C926.213 104.606 926.343 104.049 926.343 103.409L926.798 103.494H923.468V102.045H928.042V103.369C928.042 104.347 927.834 105.195 927.417 105.915C927.004 106.631 926.432 107.184 925.701 107.574C924.974 107.964 924.141 108.159 923.201 108.159C922.148 108.159 921.224 107.917 920.429 107.432C919.637 106.947 919.02 106.259 918.576 105.369C918.133 104.475 917.912 103.415 917.912 102.188C917.912 101.259 918.04 100.426 918.298 99.6875C918.556 98.9489 918.917 98.322 919.383 97.8068C919.853 97.2879 920.404 96.892 921.037 96.6193C921.673 96.3428 922.368 96.2045 923.122 96.2045C923.751 96.2045 924.336 96.2973 924.878 96.483C925.423 96.6686 925.908 96.9318 926.332 97.2727C926.76 97.6136 927.114 98.0189 927.395 98.4886C927.675 98.9545 927.864 99.4716 927.963 100.04H926.162ZM933.635 108.176C932.817 108.176 932.103 107.989 931.493 107.614C930.883 107.239 930.409 106.714 930.072 106.04C929.735 105.366 929.567 104.578 929.567 103.676C929.567 102.771 929.735 101.979 930.072 101.301C930.409 100.623 930.883 100.097 931.493 99.7216C932.103 99.3466 932.817 99.1591 933.635 99.1591C934.453 99.1591 935.167 99.3466 935.777 99.7216C936.387 100.097 936.86 100.623 937.197 101.301C937.534 101.979 937.703 102.771 937.703 103.676C937.703 104.578 937.534 105.366 937.197 106.04C936.86 106.714 936.387 107.239 935.777 107.614C935.167 107.989 934.453 108.176 933.635 108.176ZM933.64 106.75C934.171 106.75 934.61 106.61 934.959 106.33C935.307 106.049 935.565 105.676 935.731 105.21C935.902 104.744 935.987 104.231 935.987 103.67C935.987 103.114 935.902 102.602 935.731 102.136C935.565 101.667 935.307 101.29 934.959 101.006C934.61 100.722 934.171 100.58 933.64 100.58C933.106 100.58 932.663 100.722 932.311 101.006C931.962 101.29 931.703 101.667 931.533 102.136C931.366 102.602 931.283 103.114 931.283 103.67C931.283 104.231 931.366 104.744 931.533 105.21C931.703 105.676 931.962 106.049 932.311 106.33C932.663 106.61 933.106 106.75 933.64 106.75ZM943.099 108.176C942.281 108.176 941.567 107.989 940.957 107.614C940.348 107.239 939.874 106.714 939.537 106.04C939.2 105.366 939.031 104.578 939.031 103.676C939.031 102.771 939.2 101.979 939.537 101.301C939.874 100.623 940.348 100.097 940.957 99.7216C941.567 99.3466 942.281 99.1591 943.099 99.1591C943.918 99.1591 944.632 99.3466 945.241 99.7216C945.851 100.097 946.325 100.623 946.662 101.301C946.999 101.979 947.168 102.771 947.168 103.676C947.168 104.578 946.999 105.366 946.662 106.04C946.325 106.714 945.851 107.239 945.241 107.614C944.632 107.989 943.918 108.176 943.099 108.176ZM943.105 106.75C943.635 106.75 944.075 106.61 944.423 106.33C944.772 106.049 945.029 105.676 945.196 105.21C945.366 104.744 945.452 104.231 945.452 103.67C945.452 103.114 945.366 102.602 945.196 102.136C945.029 101.667 944.772 101.29 944.423 101.006C944.075 100.722 943.635 100.58 943.105 100.58C942.571 100.58 942.128 100.722 941.776 101.006C941.427 101.29 941.168 101.667 940.997 102.136C940.83 102.602 940.747 103.114 940.747 103.67C940.747 104.231 940.83 104.744 940.997 105.21C941.168 105.676 941.427 106.049 941.776 106.33C942.128 106.61 942.571 106.75 943.105 106.75ZM952.155 108.17C951.45 108.17 950.822 107.991 950.269 107.631C949.719 107.267 949.288 106.75 948.973 106.08C948.663 105.405 948.507 104.597 948.507 103.653C948.507 102.71 948.664 101.903 948.979 101.233C949.297 100.562 949.733 100.049 950.286 99.6932C950.839 99.3371 951.466 99.1591 952.166 99.1591C952.708 99.1591 953.144 99.25 953.473 99.4318C953.806 99.6098 954.064 99.8182 954.246 100.057C954.431 100.295 954.575 100.506 954.678 100.688H954.78V96.3636H956.479V108H954.82V106.642H954.678C954.575 106.828 954.428 107.04 954.235 107.278C954.045 107.517 953.784 107.725 953.45 107.903C953.117 108.081 952.685 108.17 952.155 108.17ZM952.53 106.722C953.019 106.722 953.431 106.593 953.769 106.335C954.11 106.074 954.367 105.712 954.541 105.25C954.719 104.788 954.808 104.25 954.808 103.636C954.808 103.03 954.721 102.5 954.547 102.045C954.373 101.591 954.117 101.237 953.78 100.983C953.443 100.729 953.026 100.602 952.53 100.602C952.019 100.602 951.592 100.735 951.252 101C950.911 101.265 950.653 101.627 950.479 102.085C950.308 102.544 950.223 103.061 950.223 103.636C950.223 104.22 950.31 104.744 950.485 105.21C950.659 105.676 950.916 106.045 951.257 106.318C951.602 106.587 952.026 106.722 952.53 106.722ZM960.586 104.653V104.545C960.593 103.841 960.663 103.28 960.796 102.864C960.932 102.447 961.125 102.11 961.375 101.852C961.625 101.595 961.926 101.36 962.279 101.148C962.506 101.004 962.711 100.843 962.892 100.665C963.074 100.487 963.218 100.282 963.324 100.051C963.43 99.8201 963.483 99.5644 963.483 99.2841C963.483 98.947 963.404 98.6553 963.245 98.4091C963.086 98.1629 962.873 97.9735 962.608 97.8409C962.347 97.7045 962.055 97.6364 961.733 97.6364C961.442 97.6364 961.163 97.697 960.898 97.8182C960.633 97.9394 960.413 98.1288 960.239 98.3864C960.065 98.6402 959.964 98.9678 959.938 99.3693H958.211C958.237 98.6875 958.409 98.1117 958.728 97.642C959.046 97.1686 959.466 96.8106 959.989 96.5682C960.515 96.3258 961.097 96.2045 961.733 96.2045C962.43 96.2045 963.04 96.3352 963.563 96.5966C964.086 96.8542 964.491 97.2159 964.779 97.6818C965.07 98.1439 965.216 98.6837 965.216 99.3011C965.216 99.7254 965.15 100.108 965.017 100.449C964.885 100.786 964.695 101.087 964.449 101.352C964.207 101.617 963.915 101.852 963.574 102.057C963.252 102.258 962.991 102.466 962.79 102.682C962.593 102.898 962.449 103.153 962.358 103.449C962.267 103.744 962.218 104.11 962.211 104.545V104.653H960.586ZM961.443 108.108C961.133 108.108 960.866 107.998 960.642 107.778C960.419 107.555 960.307 107.286 960.307 106.972C960.307 106.661 960.419 106.396 960.642 106.176C960.866 105.953 961.133 105.841 961.443 105.841C961.75 105.841 962.015 105.953 962.239 106.176C962.466 106.396 962.58 106.661 962.58 106.972C962.58 107.18 962.527 107.371 962.421 107.545C962.318 107.716 962.182 107.852 962.012 107.955C961.841 108.057 961.652 108.108 961.443 108.108Z" fill="#333333"/>
<path d="M775 88.5C774.172 88.5 773.5 89.1716 773.5 90C773.5 90.8284 774.172 91.5 775 91.5V88.5ZM862.061 91.0607C862.646 90.4749 862.646 89.5251 862.061 88.9393L852.515 79.3934C851.929 78.8076 850.979 78.8076 850.393 79.3934C849.808 79.9792 849.808 80.9289 850.393 81.5147L858.879 90L850.393 98.4853C849.808 99.0711 849.808 100.021 850.393 100.607C850.979 101.192 851.929 101.192 852.515 100.607L862.061 91.0607ZM775 91.5H861V88.5H775V91.5Z" fill="#CECCCC"/>
<path d="M1022 88.5C1021.17 88.5 1020.5 89.1716 1020.5 90C1020.5 90.8284 1021.17 91.5 1022 91.5V88.5ZM1122.06 91.0607C1122.65 90.4749 1122.65 89.5251 1122.06 88.9393L1112.51 79.3934C1111.93 78.8076 1110.98 78.8076 1110.39 79.3934C1109.81 79.9792 1109.81 80.9289 1110.39 81.5147L1118.88 90L1110.39 98.4853C1109.81 99.0711 1109.81 100.021 1110.39 100.607C1110.98 101.192 1111.93 101.192 1112.51 100.607L1122.06 91.0607ZM1022 91.5H1047.5V88.5H1022V91.5ZM1095.5 91.5H1121V88.5H1095.5V91.5Z" fill="#CECCCC"/>
<path d="M1057.88 84.3636H1059.88L1062.91 89.6534H1063.04L1066.08 84.3636H1068.07L1063.85 91.4318V96H1062.1V91.4318L1057.88 84.3636ZM1071.74 96.1761C1070.88 96.1761 1070.14 95.9924 1069.52 95.625C1068.9 95.2538 1068.43 94.733 1068.09 94.0625C1067.76 93.3883 1067.59 92.5985 1067.59 91.6932C1067.59 90.7992 1067.76 90.0114 1068.09 89.3295C1068.43 88.6477 1068.9 88.1155 1069.5 87.733C1070.1 87.3504 1070.81 87.1591 1071.62 87.1591C1072.12 87.1591 1072.59 87.2405 1073.06 87.4034C1073.52 87.5663 1073.93 87.822 1074.3 88.1705C1074.67 88.5189 1074.96 88.9716 1075.17 89.5284C1075.38 90.0814 1075.49 90.7538 1075.49 91.5455V92.1477H1068.55V90.875H1073.82C1073.82 90.428 1073.73 90.0322 1073.55 89.6875C1073.37 89.339 1073.11 89.0644 1072.78 88.8636C1072.46 88.6629 1072.07 88.5625 1071.64 88.5625C1071.16 88.5625 1070.74 88.6799 1070.39 88.9148C1070.03 89.1458 1069.76 89.4489 1069.57 89.8239C1069.38 90.1951 1069.28 90.5985 1069.28 91.0341V92.0284C1069.28 92.6117 1069.39 93.108 1069.59 93.517C1069.8 93.9261 1070.09 94.2386 1070.46 94.4545C1070.83 94.6667 1071.26 94.7727 1071.76 94.7727C1072.08 94.7727 1072.38 94.7273 1072.64 94.6364C1072.91 94.5417 1073.14 94.4015 1073.33 94.2159C1073.52 94.0303 1073.67 93.8011 1073.77 93.5284L1075.38 93.8182C1075.25 94.2917 1075.02 94.7064 1074.69 95.0625C1074.36 95.4148 1073.94 95.6894 1073.44 95.8864C1072.95 96.0795 1072.38 96.1761 1071.74 96.1761ZM1083.74 89.4034L1082.2 89.6761C1082.13 89.4792 1082.03 89.2917 1081.89 89.1136C1081.75 88.9356 1081.57 88.7898 1081.33 88.6761C1081.1 88.5625 1080.8 88.5057 1080.45 88.5057C1079.97 88.5057 1079.57 88.6136 1079.25 88.8295C1078.93 89.0417 1078.76 89.3163 1078.76 89.6534C1078.76 89.9451 1078.87 90.1799 1079.09 90.358C1079.3 90.536 1079.65 90.6818 1080.13 90.7955L1081.52 91.1136C1082.32 91.2992 1082.92 91.5852 1083.32 91.9716C1083.71 92.358 1083.91 92.8598 1083.91 93.4773C1083.91 94 1083.76 94.4659 1083.45 94.875C1083.15 95.2803 1082.73 95.5985 1082.2 95.8295C1081.66 96.0606 1081.04 96.1761 1080.34 96.1761C1079.36 96.1761 1078.56 95.9678 1077.95 95.5511C1077.33 95.1307 1076.95 94.5341 1076.81 93.7614L1078.45 93.5114C1078.55 93.9394 1078.76 94.2633 1079.08 94.483C1079.4 94.6989 1079.82 94.8068 1080.33 94.8068C1080.88 94.8068 1081.33 94.6913 1081.66 94.4602C1082 94.2254 1082.16 93.9394 1082.16 93.6023C1082.16 93.3295 1082.06 93.1004 1081.86 92.9148C1081.65 92.7292 1081.35 92.589 1080.93 92.4943L1079.45 92.1705C1078.64 91.9848 1078.04 91.6894 1077.65 91.2841C1077.26 90.8788 1077.07 90.3655 1077.07 89.7443C1077.07 89.2292 1077.21 88.7784 1077.5 88.392C1077.79 88.0057 1078.18 87.7045 1078.69 87.4886C1079.2 87.2689 1079.78 87.1591 1080.43 87.1591C1081.38 87.1591 1082.12 87.3636 1082.66 87.7727C1083.2 88.178 1083.56 88.7216 1083.74 89.4034Z" fill="#333333"/>
<path d="M943 171C943 170.172 942.328 169.5 941.5 169.5C940.672 169.5 940 170.172 940 171H943ZM446.561 169.939C445.975 169.354 445.025 169.354 444.439 169.939L434.893 179.485C434.308 180.071 434.308 181.021 434.893 181.607C435.479 182.192 436.429 182.192 437.015 181.607L445.5 173.121L453.985 181.607C454.571 182.192 455.521 182.192 456.107 181.607C456.692 181.021 456.692 180.071 456.107 179.485L446.561 169.939ZM940 171V249.23H943V171H940ZM917.5 271.73H714.5V274.73H917.5V271.73ZM672.5 271.73H469.5V274.73H672.5V271.73ZM447 249.23V171H444V249.23H447ZM469.5 271.73C457.074 271.73 447 261.657 447 249.23H444C444 263.314 455.417 274.73 469.5 274.73V271.73ZM940 249.23C940 261.657 929.926 271.73 917.5 271.73V274.73C931.583 274.73 943 263.314 943 249.23H940Z" fill="#CECCCC"/>
<path d="M693.17 267.594V279.23H691.557L685.642 270.696H685.534V279.23H683.778V267.594H685.403L691.324 276.14H691.432V267.594H693.17ZM699.095 279.407C698.277 279.407 697.563 279.219 696.953 278.844C696.343 278.469 695.87 277.944 695.533 277.27C695.196 276.596 695.027 275.808 695.027 274.907C695.027 274.001 695.196 273.21 695.533 272.532C695.87 271.854 696.343 271.327 696.953 270.952C697.563 270.577 698.277 270.39 699.095 270.39C699.913 270.39 700.628 270.577 701.237 270.952C701.847 271.327 702.321 271.854 702.658 272.532C702.995 273.21 703.163 274.001 703.163 274.907C703.163 275.808 702.995 276.596 702.658 277.27C702.321 277.944 701.847 278.469 701.237 278.844C700.628 279.219 699.913 279.407 699.095 279.407ZM699.101 277.98C699.631 277.98 700.071 277.84 700.419 277.56C700.768 277.28 701.025 276.907 701.192 276.441C701.362 275.975 701.448 275.462 701.448 274.901C701.448 274.344 701.362 273.833 701.192 273.367C701.025 272.897 700.768 272.52 700.419 272.236C700.071 271.952 699.631 271.81 699.101 271.81C698.567 271.81 698.124 271.952 697.771 272.236C697.423 272.52 697.163 272.897 696.993 273.367C696.826 273.833 696.743 274.344 696.743 274.901C696.743 275.462 696.826 275.975 696.993 276.441C697.163 276.907 697.423 277.28 697.771 277.56C698.124 277.84 698.567 277.98 699.101 277.98Z" fill="#333333"/>
<circle cx="197" cy="90" r="77" fill="#D99BFF"/>
<path d="M185.993 87.4205C185.932 86.8826 185.682 86.4659 185.243 86.1705C184.803 85.8712 184.25 85.7216 183.584 85.7216C183.106 85.7216 182.693 85.7973 182.345 85.9489C181.996 86.0966 181.726 86.3011 181.532 86.5625C181.343 86.8201 181.248 87.1136 181.248 87.4432C181.248 87.7197 181.313 87.9583 181.441 88.1591C181.574 88.3598 181.746 88.5284 181.959 88.6648C182.174 88.7973 182.406 88.9091 182.652 89C182.898 89.0871 183.135 89.1591 183.362 89.2159L184.498 89.5114C184.87 89.6023 185.25 89.7254 185.64 89.8807C186.031 90.036 186.392 90.2405 186.726 90.4943C187.059 90.7481 187.328 91.0625 187.532 91.4375C187.741 91.8125 187.845 92.2614 187.845 92.7841C187.845 93.4432 187.674 94.0284 187.334 94.5398C186.996 95.0511 186.506 95.4545 185.862 95.75C185.222 96.0455 184.447 96.1932 183.538 96.1932C182.667 96.1932 181.913 96.0549 181.277 95.7784C180.64 95.5019 180.142 95.1098 179.782 94.6023C179.423 94.0909 179.224 93.4848 179.186 92.7841H180.947C180.981 93.2045 181.118 93.5549 181.356 93.8352C181.599 94.1117 181.907 94.3182 182.282 94.4545C182.661 94.5871 183.076 94.6534 183.527 94.6534C184.023 94.6534 184.464 94.5758 184.851 94.4205C185.241 94.2614 185.548 94.0417 185.771 93.7614C185.995 93.4773 186.106 93.1458 186.106 92.767C186.106 92.4223 186.008 92.1402 185.811 91.9205C185.618 91.7008 185.354 91.5189 185.021 91.375C184.691 91.2311 184.318 91.1042 183.902 90.9943L182.527 90.6193C181.595 90.3655 180.856 89.9924 180.311 89.5C179.769 89.0076 179.498 88.3561 179.498 87.5455C179.498 86.875 179.68 86.2898 180.044 85.7898C180.407 85.2898 180.9 84.9015 181.521 84.625C182.142 84.3447 182.843 84.2045 183.623 84.2045C184.411 84.2045 185.106 84.3428 185.709 84.6193C186.315 84.8958 186.792 85.2765 187.14 85.7614C187.489 86.2424 187.671 86.7955 187.686 87.4205H185.993ZM193.704 87.2727V88.6364H188.937V87.2727H193.704ZM190.216 85.1818H191.915V93.4375C191.915 93.767 191.964 94.0152 192.062 94.1818C192.161 94.3447 192.288 94.4564 192.443 94.517C192.602 94.5739 192.774 94.6023 192.96 94.6023C193.096 94.6023 193.216 94.5928 193.318 94.5739C193.42 94.5549 193.5 94.5398 193.557 94.5284L193.863 95.9318C193.765 95.9697 193.625 96.0076 193.443 96.0455C193.261 96.0871 193.034 96.1098 192.761 96.1136C192.314 96.1212 191.898 96.0417 191.511 95.875C191.125 95.7083 190.812 95.4508 190.574 95.1023C190.335 94.7538 190.216 94.3163 190.216 93.7898V85.1818ZM197.947 96.1932C197.394 96.1932 196.894 96.0909 196.447 95.8864C196 95.678 195.646 95.3769 195.385 94.983C195.127 94.589 194.999 94.1061 194.999 93.5341C194.999 93.0417 195.093 92.6364 195.283 92.3182C195.472 92 195.728 91.7481 196.05 91.5625C196.372 91.3769 196.732 91.2367 197.129 91.142C197.527 91.0473 197.932 90.9754 198.345 90.9261C198.868 90.8655 199.292 90.8163 199.618 90.7784C199.944 90.7367 200.18 90.6705 200.328 90.5795C200.476 90.4886 200.55 90.3409 200.55 90.1364V90.0966C200.55 89.6004 200.41 89.2159 200.129 88.9432C199.853 88.6705 199.44 88.5341 198.891 88.5341C198.319 88.5341 197.868 88.661 197.538 88.9148C197.213 89.1648 196.987 89.4432 196.862 89.75L195.266 89.3864C195.455 88.8561 195.732 88.428 196.095 88.1023C196.463 87.7727 196.885 87.5341 197.362 87.3864C197.839 87.2348 198.341 87.1591 198.868 87.1591C199.216 87.1591 199.586 87.2008 199.976 87.2841C200.37 87.3636 200.737 87.5114 201.078 87.7273C201.423 87.9432 201.705 88.2519 201.925 88.6534C202.144 89.0511 202.254 89.5682 202.254 90.2045V96H200.595V94.8068H200.527C200.417 95.0265 200.252 95.2424 200.033 95.4545C199.813 95.6667 199.531 95.8428 199.186 95.983C198.841 96.1231 198.428 96.1932 197.947 96.1932ZM198.317 94.8295C198.786 94.8295 199.188 94.7367 199.521 94.5511C199.858 94.3655 200.114 94.1231 200.288 93.8239C200.466 93.5208 200.555 93.197 200.555 92.8523V91.7273C200.495 91.7879 200.377 91.8447 200.203 91.8977C200.033 91.947 199.838 91.9905 199.618 92.0284C199.398 92.0625 199.184 92.0947 198.976 92.125C198.768 92.1515 198.593 92.1742 198.453 92.1932C198.124 92.2348 197.822 92.3049 197.55 92.4034C197.281 92.5019 197.065 92.6439 196.902 92.8295C196.743 93.0114 196.663 93.2538 196.663 93.5568C196.663 93.9773 196.819 94.2955 197.129 94.5114C197.44 94.7235 197.836 94.8295 198.317 94.8295ZM204.341 96V87.2727H205.983V88.6591H206.074C206.233 88.1894 206.513 87.8201 206.915 87.5511C207.32 87.2784 207.779 87.142 208.29 87.142C208.396 87.142 208.521 87.1458 208.665 87.1534C208.813 87.161 208.928 87.1705 209.011 87.1818V88.8068C208.943 88.7879 208.822 88.767 208.648 88.7443C208.474 88.7178 208.299 88.7045 208.125 88.7045C207.724 88.7045 207.366 88.7898 207.051 88.9602C206.741 89.1269 206.494 89.3598 206.313 89.6591C206.131 89.9545 206.04 90.2917 206.04 90.6705V96H204.341ZM214.895 87.2727V88.6364H210.128V87.2727H214.895ZM211.407 85.1818H213.105V93.4375C213.105 93.767 213.155 94.0152 213.253 94.1818C213.352 94.3447 213.478 94.4564 213.634 94.517C213.793 94.5739 213.965 94.6023 214.151 94.6023C214.287 94.6023 214.407 94.5928 214.509 94.5739C214.611 94.5549 214.691 94.5398 214.747 94.5284L215.054 95.9318C214.956 95.9697 214.816 96.0076 214.634 96.0455C214.452 96.0871 214.225 96.1098 213.952 96.1136C213.505 96.1212 213.088 96.0417 212.702 95.875C212.316 95.7083 212.003 95.4508 211.764 95.1023C211.526 94.7538 211.407 94.3163 211.407 93.7898V85.1818Z" fill="#333333"/>
<path d="M278 88.5C277.172 88.5 276.5 89.1716 276.5 90C276.5 90.8284 277.172 91.5 278 91.5V88.5ZM366.061 91.0607C366.646 90.4749 366.646 89.5251 366.061 88.9393L356.515 79.3934C355.929 78.8076 354.979 78.8076 354.393 79.3934C353.808 79.9792 353.808 80.9289 354.393 81.5147L362.879 90L354.393 98.4853C353.808 99.0711 353.808 100.021 354.393 100.607C354.979 101.192 355.929 101.192 356.515 100.607L366.061 91.0607ZM278 91.5H365V88.5H278V91.5Z" fill="#CECCCC"/>
<ellipse cx="1722.5" cy="90" rx="77.5" ry="77" fill="#D99BFF"/>
<path d="M1707.74 96H1703.97V84.3636H1707.86C1709 84.3636 1709.98 84.5966 1710.8 85.0625C1711.61 85.5246 1712.24 86.1894 1712.68 87.0568C1713.12 87.9205 1713.34 88.9564 1713.34 90.1648C1713.34 91.3769 1713.11 92.4186 1712.67 93.2898C1712.23 94.161 1711.6 94.8314 1710.76 95.3011C1709.93 95.767 1708.92 96 1707.74 96ZM1705.73 94.4659H1707.64C1708.53 94.4659 1709.27 94.2992 1709.85 93.9659C1710.44 93.6288 1710.88 93.142 1711.17 92.5057C1711.46 91.8655 1711.61 91.0852 1711.61 90.1648C1711.61 89.2519 1711.46 88.4773 1711.17 87.8409C1710.88 87.2045 1710.45 86.7216 1709.88 86.392C1709.31 86.0625 1708.6 85.8977 1707.75 85.8977H1705.73V94.4659ZM1718.88 96.1761C1718.06 96.1761 1717.35 95.9886 1716.74 95.6136C1716.13 95.2386 1715.66 94.714 1715.32 94.0398C1714.98 93.3655 1714.81 92.5777 1714.81 91.6761C1714.81 90.7708 1714.98 89.9792 1715.32 89.3011C1715.66 88.6231 1716.13 88.0966 1716.74 87.7216C1717.35 87.3466 1718.06 87.1591 1718.88 87.1591C1719.7 87.1591 1720.41 87.3466 1721.02 87.7216C1721.63 88.0966 1722.11 88.6231 1722.45 89.3011C1722.78 89.9792 1722.95 90.7708 1722.95 91.6761C1722.95 92.5777 1722.78 93.3655 1722.45 94.0398C1722.11 94.714 1721.63 95.2386 1721.02 95.6136C1720.41 95.9886 1719.7 96.1761 1718.88 96.1761ZM1718.89 94.75C1719.42 94.75 1719.86 94.6098 1720.21 94.3295C1720.56 94.0492 1720.81 93.6761 1720.98 93.2102C1721.15 92.7443 1721.24 92.2311 1721.24 91.6705C1721.24 91.1136 1721.15 90.6023 1720.98 90.1364C1720.81 89.6667 1720.56 89.2898 1720.21 89.0057C1719.86 88.7216 1719.42 88.5795 1718.89 88.5795C1718.35 88.5795 1717.91 88.7216 1717.56 89.0057C1717.21 89.2898 1716.95 89.6667 1716.78 90.1364C1716.61 90.6023 1716.53 91.1136 1716.53 91.6705C1716.53 92.2311 1716.61 92.7443 1716.78 93.2102C1716.95 93.6761 1717.21 94.0492 1717.56 94.3295C1717.91 94.6098 1718.35 94.75 1718.89 94.75ZM1726.37 90.8182V96H1724.67V87.2727H1726.3V88.6932H1726.41C1726.61 88.2311 1726.93 87.8598 1727.35 87.5795C1727.78 87.2992 1728.33 87.1591 1728.98 87.1591C1729.58 87.1591 1730.1 87.2841 1730.55 87.5341C1730.99 87.7803 1731.34 88.1477 1731.59 88.6364C1731.83 89.125 1731.96 89.7292 1731.96 90.4489V96H1730.26V90.6534C1730.26 90.0208 1730.09 89.5265 1729.76 89.1705C1729.43 88.8106 1728.98 88.6307 1728.4 88.6307C1728.01 88.6307 1727.66 88.7159 1727.35 88.8864C1727.05 89.0568 1726.81 89.3068 1726.63 89.6364C1726.46 89.9621 1726.37 90.3561 1726.37 90.8182ZM1737.82 96.1761C1736.96 96.1761 1736.22 95.9924 1735.6 95.625C1734.98 95.2538 1734.5 94.733 1734.17 94.0625C1733.83 93.3883 1733.67 92.5985 1733.67 91.6932C1733.67 90.7992 1733.83 90.0114 1734.17 89.3295C1734.5 88.6477 1734.97 88.1155 1735.57 87.733C1736.18 87.3504 1736.89 87.1591 1737.7 87.1591C1738.19 87.1591 1738.67 87.2405 1739.13 87.4034C1739.59 87.5663 1740.01 87.822 1740.38 88.1705C1740.74 88.5189 1741.03 88.9716 1741.25 89.5284C1741.46 90.0814 1741.56 90.7538 1741.56 91.5455V92.1477H1734.63V90.875H1739.9C1739.9 90.428 1739.81 90.0322 1739.63 89.6875C1739.44 89.339 1739.19 89.0644 1738.86 88.8636C1738.53 88.6629 1738.15 88.5625 1737.71 88.5625C1737.23 88.5625 1736.82 88.6799 1736.46 88.9148C1736.11 89.1458 1735.84 89.4489 1735.64 89.8239C1735.45 90.1951 1735.36 90.5985 1735.36 91.0341V92.0284C1735.36 92.6117 1735.46 93.108 1735.67 93.517C1735.87 93.9261 1736.16 94.2386 1736.54 94.4545C1736.91 94.6667 1737.34 94.7727 1737.84 94.7727C1738.16 94.7727 1738.45 94.7273 1738.72 94.6364C1738.98 94.5417 1739.21 94.4015 1739.4 94.2159C1739.6 94.0303 1739.75 93.8011 1739.85 93.5284L1741.46 93.8182C1741.33 94.2917 1741.1 94.7064 1740.76 95.0625C1740.43 95.4148 1740.02 95.6894 1739.52 95.8864C1739.02 96.0795 1738.46 96.1761 1737.82 96.1761Z" fill="#333333"/>
<path d="M1544 88.5C1543.17 88.5 1542.5 89.1716 1542.5 90C1542.5 90.8284 1543.17 91.5 1544 91.5V88.5ZM1642.06 91.0607C1642.65 90.4749 1642.65 89.5251 1642.06 88.9393L1632.51 79.3934C1631.93 78.8076 1630.98 78.8076 1630.39 79.3934C1629.81 79.9792 1629.81 80.9289 1630.39 81.5147L1638.88 90L1630.39 98.4853C1629.81 99.0711 1629.81 100.021 1630.39 100.607C1630.98 101.192 1631.93 101.192 1632.51 100.607L1642.06 91.0607ZM1544 91.5H1641V88.5H1544V91.5Z" fill="#CECCCC"/>
<path d="M526 88.5C525.172 88.5 524.5 89.1716 524.5 90C524.5 90.8284 525.172 91.5 526 91.5V88.5ZM615.061 91.0607C615.646 90.4749 615.646 89.5251 615.061 88.9393L605.515 79.3934C604.929 78.8076 603.979 78.8076 603.393 79.3934C602.808 79.9792 602.808 80.9289 603.393 81.5147L611.879 90L603.393 98.4853C602.808 99.0711 602.808 100.021 603.393 100.607C603.979 101.192 604.929 101.192 605.515 100.607L615.061 91.0607ZM526 91.5H614V88.5H526V91.5Z" fill="#CECCCC"/>
</g>
<defs>
<clipPath id="clip0_307_91868">
<rect width="1920" height="295" fill="white"/>
</clipPath>
</defs>
</svg>
