<svg width="1920" height="387" viewBox="0 0 1920 387" fill="none" xmlns="http://www.w3.org/2000/svg">
<g clip-path="url(#clip0_307_91929)">
<rect width="1920" height="387" fill="white"/>
<path fill-rule="evenodd" clip-rule="evenodd" d="M1539.93 377.22C1539.93 365.905 1540.06 354.577 1539.89 343.249C1539.77 334.739 1543.13 330.732 1554.39 330.589C1587.75 330.178 1602.02 317.143 1602.02 288.802C1602.02 210.772 1602.09 132.736 1602.03 54.7054C1602 24.2865 1587.16 11.3573 1551.9 11.3456C1334.36 11.3022 1116.82 11.6492 899.289 11.0003C871.287 10.9119 852.774 29.8628 853.002 50.0915C853.953 131.221 853.282 212.351 853.484 293.491C853.534 317.228 869.983 330.797 898.273 330.807C1090.39 330.896 1282.48 330.971 1474.57 330.687C1486.67 330.667 1494.79 332.951 1501.08 342.35C1510.16 355.942 1522.08 367.84 1539.93 377.22Z" fill="#E1E1E1"/>
<path fill-rule="evenodd" clip-rule="evenodd" d="M881.079 52.6396C881.578 53.7272 882.04 54.7447 882.536 55.829C879.388 57.3486 877.128 59.5071 876.574 63.1618C877.029 63.3086 877.435 63.432 877.835 63.5638C883.338 65.387 885.235 72.5764 881.216 76.5831C878.903 78.8867 876.024 79.5539 872.924 78.6298C869.65 77.649 867.907 75.1669 867.305 71.9192C865.718 63.3937 871.513 54.8582 880.184 52.8465C880.437 52.7881 880.687 52.7297 881.079 52.6396Z" fill="black"/>
<path fill-rule="evenodd" clip-rule="evenodd" d="M901.854 52.6313C902.378 53.754 902.852 54.7648 903.352 55.8357C900.176 57.3153 897.958 59.5121 897.344 63.1902C897.799 63.3237 898.243 63.4388 898.68 63.5872C902.186 64.7615 904.283 67.9659 904.098 71.8525C903.931 75.2704 901.566 77.9326 897.927 78.7917C894.438 79.6124 890.862 78.0977 889.203 74.9217C887.027 70.7482 887.497 66.513 889.36 62.3962C891.782 57.0434 896.051 53.9258 901.854 52.6313Z" fill="black"/>
<path fill-rule="evenodd" clip-rule="evenodd" d="M1567.12 79.0305C1566.62 77.9396 1566.16 76.9254 1565.66 75.8411C1568.81 74.3232 1571.07 72.1597 1571.63 68.5083C1571.17 68.3615 1570.76 68.2414 1570.36 68.108C1564.86 66.2831 1562.96 59.0937 1566.98 55.0887C1569.29 52.7818 1572.17 52.1162 1575.27 53.0403C1578.55 54.0211 1580.29 56.5016 1580.89 59.7526C1582.48 68.2764 1576.68 76.8119 1568.01 78.822C1567.76 78.8804 1567.51 78.9387 1567.12 79.0305Z" fill="black"/>
<path fill-rule="evenodd" clip-rule="evenodd" d="M1546.34 79.0338C1545.81 77.9128 1545.34 76.9036 1544.84 75.8344C1548.02 74.3548 1550.24 72.1563 1550.85 68.4782C1550.4 68.3448 1549.95 68.228 1549.51 68.0846C1546.01 66.9052 1543.92 63.7042 1544.1 59.816C1544.26 56.3998 1546.63 53.7358 1550.26 52.8785C1553.76 52.0578 1557.33 53.5707 1558.99 56.7467C1561.17 60.9202 1560.7 65.1588 1558.83 69.2722C1556.41 74.6251 1552.14 77.7393 1546.34 79.0338Z" fill="black"/>
<path d="M937.781 104.29V131.306H934.2V104.29H937.781ZM956.93 102.806V131.306H953.479V102.806H956.93ZM961.531 121.49V121.063C961.531 119.616 961.742 118.274 962.162 117.037C962.583 115.788 963.189 114.705 963.98 113.79C964.772 112.862 965.731 112.145 966.856 111.638C967.982 111.118 969.244 110.858 970.642 110.858C972.052 110.858 973.32 111.118 974.445 111.638C975.583 112.145 976.548 112.862 977.34 113.79C978.144 114.705 978.756 115.788 979.177 117.037C979.597 118.274 979.808 119.616 979.808 121.063V121.49C979.808 122.938 979.597 124.28 979.177 125.517C978.756 126.754 978.144 127.836 977.34 128.764C976.548 129.679 975.59 130.396 974.464 130.916C973.351 131.423 972.089 131.677 970.679 131.677C969.269 131.677 968.001 131.423 966.875 130.916C965.749 130.396 964.785 129.679 963.98 128.764C963.189 127.836 962.583 126.754 962.162 125.517C961.742 124.28 961.531 122.938 961.531 121.49ZM964.964 121.063V121.49C964.964 122.492 965.081 123.438 965.316 124.329C965.551 125.207 965.904 125.987 966.374 126.667C966.856 127.347 967.456 127.885 968.174 128.281C968.891 128.665 969.726 128.856 970.679 128.856C971.619 128.856 972.441 128.665 973.146 128.281C973.864 127.885 974.458 127.347 974.928 126.667C975.398 125.987 975.75 125.207 975.985 124.329C976.233 123.438 976.356 122.492 976.356 121.49V121.063C976.356 120.074 976.233 119.14 975.985 118.262C975.75 117.371 975.392 116.586 974.909 115.905C974.439 115.213 973.845 114.668 973.128 114.272C972.423 113.877 971.594 113.679 970.642 113.679C969.701 113.679 968.873 113.877 968.155 114.272C967.45 114.668 966.856 115.213 966.374 115.905C965.904 116.586 965.551 117.371 965.316 118.262C965.081 119.14 964.964 120.074 964.964 121.063ZM989.92 128.207L995.412 111.229H998.919L991.701 131.306H989.4L989.92 128.207ZM985.337 111.229L990.996 128.3L991.386 131.306H989.085L981.812 111.229H985.337ZM1010.29 131.677C1008.9 131.677 1007.63 131.442 1006.49 130.972C1005.36 130.489 1004.39 129.815 1003.58 128.949C1002.77 128.083 1002.15 127.057 1001.72 125.869C1001.29 124.682 1001.07 123.383 1001.07 121.973V121.193C1001.07 119.561 1001.31 118.107 1001.79 116.833C1002.28 115.547 1002.93 114.458 1003.76 113.567C1004.59 112.677 1005.53 112.003 1006.58 111.545C1007.63 111.087 1008.72 110.858 1009.85 110.858C1011.28 110.858 1012.52 111.106 1013.56 111.601C1014.61 112.095 1015.47 112.788 1016.14 113.679C1016.81 114.557 1017.3 115.596 1017.62 116.796C1017.94 117.983 1018.1 119.282 1018.1 120.692V122.232H1003.11V119.431H1014.67V119.171C1014.62 118.28 1014.44 117.414 1014.12 116.573C1013.81 115.732 1013.31 115.039 1012.63 114.495C1011.95 113.951 1011.02 113.679 1009.85 113.679C1009.07 113.679 1008.35 113.846 1007.7 114.18C1007.04 114.501 1006.48 114.984 1006.01 115.627C1005.54 116.27 1005.17 117.056 1004.91 117.983C1004.65 118.911 1004.52 119.981 1004.52 121.193V121.973C1004.52 122.925 1004.65 123.822 1004.91 124.663C1005.18 125.492 1005.57 126.222 1006.08 126.853C1006.6 127.483 1007.23 127.978 1007.96 128.337C1008.7 128.696 1009.54 128.875 1010.48 128.875C1011.69 128.875 1012.72 128.628 1013.56 128.133C1014.4 127.638 1015.14 126.976 1015.77 126.147L1017.84 127.799C1017.41 128.454 1016.86 129.079 1016.19 129.673C1015.53 130.267 1014.7 130.749 1013.73 131.12C1012.76 131.491 1011.62 131.677 1010.29 131.677ZM1035.27 111.229V131.306H1031.82V111.229H1035.27ZM1031.56 105.904C1031.56 105.348 1031.72 104.878 1032.06 104.494C1032.4 104.111 1032.91 103.919 1033.58 103.919C1034.23 103.919 1034.74 104.111 1035.08 104.494C1035.44 104.878 1035.62 105.348 1035.62 105.904C1035.62 106.436 1035.44 106.894 1035.08 107.277C1034.74 107.648 1034.23 107.834 1033.58 107.834C1032.91 107.834 1032.4 107.648 1032.06 107.277C1031.72 106.894 1031.56 106.436 1031.56 105.904ZM1049.18 111.229V113.864H1038.33V111.229H1049.18ZM1042 106.35H1045.44V126.333C1045.44 127.013 1045.54 127.527 1045.75 127.873C1045.96 128.219 1046.23 128.448 1046.57 128.56C1046.9 128.671 1047.26 128.727 1047.64 128.727C1047.93 128.727 1048.22 128.702 1048.53 128.652C1048.86 128.59 1049.1 128.541 1049.26 128.504L1049.28 131.306C1049 131.392 1048.65 131.473 1048.2 131.547C1047.77 131.633 1047.24 131.677 1046.62 131.677C1045.78 131.677 1045.01 131.51 1044.3 131.176C1043.6 130.842 1043.04 130.285 1042.62 129.506C1042.21 128.714 1042 127.65 1042 126.314V106.35ZM1056.33 127.224V129.988C1056.33 131.114 1056.04 132.301 1055.47 133.551C1054.9 134.812 1054.11 135.864 1053.08 136.705L1051.13 135.351C1051.53 134.806 1051.86 134.25 1052.13 133.681C1052.41 133.124 1052.61 132.543 1052.75 131.937C1052.89 131.343 1052.97 130.712 1052.97 130.044V127.224H1056.33ZM1070.11 102.806H1073.56V127.409L1073.27 131.306H1070.11V102.806ZM1087.13 121.101V121.49C1087.13 122.95 1086.95 124.304 1086.61 125.554C1086.26 126.791 1085.75 127.867 1085.09 128.782C1084.42 129.698 1083.6 130.409 1082.64 130.916C1081.67 131.423 1080.57 131.677 1079.32 131.677C1078.04 131.677 1076.92 131.46 1075.96 131.027C1075.01 130.582 1074.2 129.945 1073.55 129.116C1072.89 128.287 1072.36 127.285 1071.97 126.11C1071.59 124.935 1071.32 123.612 1071.17 122.14V120.433C1071.32 118.948 1071.59 117.618 1071.97 116.443C1072.36 115.268 1072.89 114.266 1073.55 113.438C1074.2 112.596 1075.01 111.959 1075.96 111.526C1076.91 111.081 1078.02 110.858 1079.28 110.858C1080.54 110.858 1081.66 111.106 1082.64 111.601C1083.61 112.083 1084.43 112.776 1085.09 113.679C1085.75 114.582 1086.26 115.664 1086.61 116.926C1086.95 118.175 1087.13 119.567 1087.13 121.101ZM1083.68 121.49V121.101C1083.68 120.099 1083.58 119.159 1083.4 118.28C1083.21 117.39 1082.92 116.61 1082.51 115.942C1082.1 115.262 1081.56 114.73 1080.89 114.347C1080.23 113.951 1079.4 113.753 1078.43 113.753C1077.56 113.753 1076.81 113.901 1076.16 114.198C1075.53 114.495 1074.99 114.897 1074.55 115.404C1074.1 115.899 1073.74 116.468 1073.45 117.111C1073.18 117.742 1072.98 118.398 1072.84 119.078V123.55C1073.04 124.416 1073.36 125.251 1073.81 126.055C1074.26 126.846 1074.87 127.496 1075.62 128.003C1076.39 128.51 1077.34 128.764 1078.46 128.764C1079.39 128.764 1080.18 128.578 1080.84 128.207C1081.51 127.824 1082.04 127.298 1082.45 126.63C1082.87 125.962 1083.18 125.189 1083.38 124.311C1083.58 123.432 1083.68 122.492 1083.68 121.49ZM1103.75 126.667V111.229H1107.2V131.306H1103.92L1103.75 126.667ZM1104.4 122.437L1105.83 122.399C1105.83 123.735 1105.69 124.972 1105.4 126.11C1105.13 127.236 1104.69 128.213 1104.07 129.042C1103.45 129.871 1102.64 130.52 1101.64 130.99C1100.64 131.448 1099.42 131.677 1097.98 131.677C1097.01 131.677 1096.11 131.535 1095.29 131.25C1094.49 130.965 1093.8 130.526 1093.21 129.933C1092.63 129.339 1092.18 128.566 1091.86 127.613C1091.55 126.661 1091.4 125.517 1091.4 124.181V111.229H1094.83V124.218C1094.83 125.121 1094.93 125.869 1095.12 126.463C1095.34 127.044 1095.61 127.508 1095.96 127.854C1096.32 128.188 1096.71 128.424 1097.15 128.56C1097.59 128.696 1098.05 128.764 1098.52 128.764C1099.98 128.764 1101.14 128.485 1101.99 127.929C1102.84 127.36 1103.46 126.599 1103.83 125.646C1104.21 124.682 1104.4 123.612 1104.4 122.437ZM1120.84 111.229V113.864H1109.99V111.229H1120.84ZM1113.66 106.35H1117.09V126.333C1117.09 127.013 1117.2 127.527 1117.41 127.873C1117.62 128.219 1117.89 128.448 1118.23 128.56C1118.56 128.671 1118.92 128.727 1119.3 128.727C1119.59 128.727 1119.88 128.702 1120.19 128.652C1120.51 128.59 1120.76 128.541 1120.92 128.504L1120.93 131.306C1120.66 131.392 1120.3 131.473 1119.86 131.547C1119.43 131.633 1118.9 131.677 1118.28 131.677C1117.44 131.677 1116.67 131.51 1115.96 131.176C1115.26 130.842 1114.69 130.285 1114.27 129.506C1113.87 128.714 1113.66 127.65 1113.66 126.314V106.35ZM1138.65 104.29V131.306H1135.07V104.29H1138.65ZM1162.48 111.229V113.864H1151.62V111.229H1162.48ZM1155.3 106.35H1158.73V126.333C1158.73 127.013 1158.84 127.527 1159.05 127.873C1159.26 128.219 1159.53 128.448 1159.86 128.56C1160.2 128.671 1160.56 128.727 1160.94 128.727C1161.22 128.727 1161.52 128.702 1161.83 128.652C1162.15 128.59 1162.39 128.541 1162.55 128.504L1162.57 131.306C1162.3 131.392 1161.94 131.473 1161.5 131.547C1161.06 131.633 1160.54 131.677 1159.92 131.677C1159.08 131.677 1158.3 131.51 1157.6 131.176C1156.89 130.842 1156.33 130.285 1155.91 129.506C1155.5 128.714 1155.3 127.65 1155.3 126.314V106.35ZM1169.94 102.806V131.306H1166.5V102.806H1169.94ZM1169.12 120.507L1167.69 120.451C1167.7 119.078 1167.91 117.81 1168.3 116.647C1168.7 115.472 1169.26 114.452 1169.97 113.586C1170.69 112.72 1171.55 112.052 1172.54 111.582C1173.54 111.1 1174.64 110.858 1175.86 110.858C1176.85 110.858 1177.74 110.994 1178.53 111.267C1179.32 111.526 1179.99 111.947 1180.55 112.528C1181.12 113.11 1181.55 113.864 1181.85 114.792C1182.15 115.707 1182.29 116.827 1182.29 118.15V131.306H1178.84V118.113C1178.84 117.062 1178.69 116.221 1178.38 115.59C1178.07 114.947 1177.62 114.483 1177.03 114.198C1176.43 113.901 1175.7 113.753 1174.84 113.753C1173.98 113.753 1173.2 113.932 1172.5 114.291C1171.81 114.65 1171.21 115.145 1170.7 115.775C1170.2 116.406 1169.81 117.13 1169.53 117.946C1169.26 118.75 1169.12 119.604 1169.12 120.507ZM1191.16 111.229V131.306H1187.71V111.229H1191.16ZM1187.45 105.904C1187.45 105.348 1187.62 104.878 1187.95 104.494C1188.3 104.111 1188.81 103.919 1189.48 103.919C1190.13 103.919 1190.63 104.111 1190.98 104.494C1191.34 104.878 1191.52 105.348 1191.52 105.904C1191.52 106.436 1191.34 106.894 1190.98 107.277C1190.63 107.648 1190.13 107.834 1189.48 107.834C1188.81 107.834 1188.3 107.648 1187.95 107.277C1187.62 106.894 1187.45 106.436 1187.45 105.904ZM1200.11 115.516V131.306H1196.67V111.229H1199.92L1200.11 115.516ZM1199.29 120.507L1197.86 120.451C1197.87 119.078 1198.08 117.81 1198.47 116.647C1198.87 115.472 1199.43 114.452 1200.14 113.586C1200.86 112.72 1201.72 112.052 1202.71 111.582C1203.71 111.1 1204.81 110.858 1206.03 110.858C1207.02 110.858 1207.91 110.994 1208.7 111.267C1209.49 111.526 1210.16 111.947 1210.72 112.528C1211.29 113.11 1211.72 113.864 1212.02 114.792C1212.32 115.707 1212.46 116.827 1212.46 118.15V131.306H1209.01V118.113C1209.01 117.062 1208.86 116.221 1208.55 115.59C1208.24 114.947 1207.79 114.483 1207.2 114.198C1206.6 113.901 1205.87 113.753 1205.01 113.753C1204.15 113.753 1203.37 113.932 1202.67 114.291C1201.98 114.65 1201.38 115.145 1200.87 115.775C1200.37 116.406 1199.98 117.13 1199.7 117.946C1199.43 118.75 1199.29 119.604 1199.29 120.507ZM1221.13 102.806V131.306H1217.68V102.806H1221.13ZM1233.39 111.229L1224.64 120.6L1219.74 125.684L1219.46 122.028L1222.97 117.835L1229.2 111.229H1233.39ZM1230.26 131.306L1223.1 121.731L1224.88 118.67L1234.3 131.306H1230.26ZM1254.77 111.229V113.864H1243.92V111.229H1254.77ZM1247.59 106.35H1251.02V126.333C1251.02 127.013 1251.13 127.527 1251.34 127.873C1251.55 128.219 1251.82 128.448 1252.15 128.56C1252.49 128.671 1252.85 128.727 1253.23 128.727C1253.51 128.727 1253.81 128.702 1254.12 128.652C1254.44 128.59 1254.68 128.541 1254.84 128.504L1254.86 131.306C1254.59 131.392 1254.23 131.473 1253.79 131.547C1253.35 131.633 1252.83 131.677 1252.21 131.677C1251.37 131.677 1250.59 131.51 1249.89 131.176C1249.18 130.842 1248.62 130.285 1248.2 129.506C1247.79 128.714 1247.59 127.65 1247.59 126.314V106.35ZM1262.23 102.806V131.306H1258.8V102.806H1262.23ZM1261.41 120.507L1259.98 120.451C1260 119.078 1260.2 117.81 1260.6 116.647C1260.99 115.472 1261.55 114.452 1262.27 113.586C1262.98 112.72 1263.84 112.052 1264.83 111.582C1265.83 111.1 1266.94 110.858 1268.15 110.858C1269.14 110.858 1270.03 110.994 1270.82 111.267C1271.61 111.526 1272.29 111.947 1272.84 112.528C1273.41 113.11 1273.84 113.864 1274.14 114.792C1274.44 115.707 1274.59 116.827 1274.59 118.15V131.306H1271.13V118.113C1271.13 117.062 1270.98 116.221 1270.67 115.59C1270.36 114.947 1269.91 114.483 1269.32 114.198C1268.72 113.901 1267.99 113.753 1267.13 113.753C1266.27 113.753 1265.49 113.932 1264.79 114.291C1264.1 114.65 1263.5 115.145 1262.99 115.775C1262.49 116.406 1262.1 117.13 1261.82 117.946C1261.55 118.75 1261.41 119.604 1261.41 120.507ZM1288.06 131.677C1286.66 131.677 1285.39 131.442 1284.25 130.972C1283.13 130.489 1282.16 129.815 1281.34 128.949C1280.54 128.083 1279.92 127.057 1279.48 125.869C1279.05 124.682 1278.83 123.383 1278.83 121.973V121.193C1278.83 119.561 1279.08 118.107 1279.56 116.833C1280.04 115.547 1280.7 114.458 1281.53 113.567C1282.35 112.677 1283.29 112.003 1284.35 111.545C1285.4 111.087 1286.49 110.858 1287.61 110.858C1289.05 110.858 1290.28 111.106 1291.32 111.601C1292.37 112.095 1293.23 112.788 1293.9 113.679C1294.57 114.557 1295.06 115.596 1295.39 116.796C1295.71 117.983 1295.87 119.282 1295.87 120.692V122.232H1280.88V119.431H1292.44V119.171C1292.39 118.28 1292.2 117.414 1291.88 116.573C1291.57 115.732 1291.07 115.039 1290.39 114.495C1289.71 113.951 1288.79 113.679 1287.61 113.679C1286.83 113.679 1286.11 113.846 1285.46 114.18C1284.8 114.501 1284.24 114.984 1283.77 115.627C1283.3 116.27 1282.94 117.056 1282.68 117.983C1282.42 118.911 1282.29 119.981 1282.29 121.193V121.973C1282.29 122.925 1282.42 123.822 1282.68 124.663C1282.95 125.492 1283.34 126.222 1283.84 126.853C1284.36 127.483 1284.99 127.978 1285.72 128.337C1286.46 128.696 1287.3 128.875 1288.24 128.875C1289.45 128.875 1290.48 128.628 1291.32 128.133C1292.16 127.638 1292.9 126.976 1293.53 126.147L1295.61 127.799C1295.18 128.454 1294.62 129.079 1293.96 129.673C1293.29 130.267 1292.47 130.749 1291.49 131.12C1290.52 131.491 1289.38 131.677 1288.06 131.677ZM1303.31 114.384V131.306H1299.88V111.229H1303.22L1303.31 114.384ZM1309.58 111.118L1309.56 114.31C1309.28 114.248 1309 114.211 1308.75 114.198C1308.5 114.174 1308.21 114.161 1307.89 114.161C1307.1 114.161 1306.4 114.285 1305.79 114.532C1305.19 114.78 1304.68 115.126 1304.25 115.571C1303.83 116.017 1303.5 116.549 1303.25 117.167C1303.02 117.773 1302.86 118.441 1302.79 119.171L1301.82 119.728C1301.82 118.515 1301.94 117.377 1302.18 116.313C1302.42 115.25 1302.8 114.31 1303.31 113.493C1303.82 112.664 1304.46 112.021 1305.24 111.563C1306.03 111.093 1306.97 110.858 1308.06 110.858C1308.31 110.858 1308.59 110.889 1308.91 110.951C1309.23 111.001 1309.46 111.056 1309.58 111.118ZM1320.71 131.677C1319.32 131.677 1318.05 131.442 1316.91 130.972C1315.78 130.489 1314.81 129.815 1314 128.949C1313.19 128.083 1312.57 127.057 1312.14 125.869C1311.71 124.682 1311.49 123.383 1311.49 121.973V121.193C1311.49 119.561 1311.73 118.107 1312.21 116.833C1312.7 115.547 1313.35 114.458 1314.18 113.567C1315.01 112.677 1315.95 112.003 1317 111.545C1318.05 111.087 1319.14 110.858 1320.27 110.858C1321.7 110.858 1322.94 111.106 1323.98 111.601C1325.03 112.095 1325.89 112.788 1326.56 113.679C1327.23 114.557 1327.72 115.596 1328.04 116.796C1328.36 117.983 1328.52 119.282 1328.52 120.692V122.232H1313.53V119.431H1325.09V119.171C1325.04 118.28 1324.86 117.414 1324.54 116.573C1324.23 115.732 1323.73 115.039 1323.05 114.495C1322.37 113.951 1321.44 113.679 1320.27 113.679C1319.49 113.679 1318.77 113.846 1318.12 114.18C1317.46 114.501 1316.9 114.984 1316.43 115.627C1315.96 116.27 1315.59 117.056 1315.33 117.983C1315.07 118.911 1314.94 119.981 1314.94 121.193V121.973C1314.94 122.925 1315.07 123.822 1315.33 124.663C1315.6 125.492 1315.99 126.222 1316.5 126.853C1317.02 127.483 1317.65 127.978 1318.38 128.337C1319.12 128.696 1319.96 128.875 1320.9 128.875C1322.11 128.875 1323.14 128.628 1323.98 128.133C1324.82 127.638 1325.56 126.976 1326.19 126.147L1328.26 127.799C1327.83 128.454 1327.28 129.079 1326.61 129.673C1325.95 130.267 1325.12 130.749 1324.15 131.12C1323.18 131.491 1322.04 131.677 1320.71 131.677ZM1334.52 102.806V105.181C1334.52 105.923 1334.39 106.708 1334.13 107.537C1333.88 108.354 1333.52 109.145 1333.03 109.912C1332.55 110.667 1331.97 111.328 1331.29 111.897L1329.32 110.543C1329.9 109.727 1330.34 108.892 1330.64 108.038C1330.95 107.172 1331.1 106.238 1331.1 105.236V102.806H1334.52ZM1348.27 125.98C1348.27 125.486 1348.16 125.028 1347.93 124.607C1347.72 124.174 1347.28 123.785 1346.62 123.438C1345.96 123.08 1344.97 122.771 1343.65 122.511C1342.53 122.276 1341.53 121.997 1340.62 121.676C1339.73 121.354 1338.97 120.965 1338.34 120.507C1337.72 120.049 1337.25 119.511 1336.91 118.893C1336.58 118.274 1336.41 117.55 1336.41 116.722C1336.41 115.93 1336.58 115.182 1336.93 114.477C1337.29 113.771 1337.79 113.147 1338.43 112.603C1339.09 112.058 1339.87 111.632 1340.79 111.322C1341.7 111.013 1342.72 110.858 1343.85 110.858C1345.46 110.858 1346.83 111.143 1347.97 111.712C1349.11 112.281 1349.98 113.042 1350.59 113.994C1351.19 114.934 1351.5 115.979 1351.5 117.13H1348.06C1348.06 116.573 1347.9 116.035 1347.56 115.516C1347.24 114.984 1346.76 114.545 1346.13 114.198C1345.51 113.852 1344.75 113.679 1343.85 113.679C1342.9 113.679 1342.12 113.827 1341.53 114.124C1340.95 114.409 1340.52 114.773 1340.25 115.219C1339.99 115.664 1339.86 116.134 1339.86 116.629C1339.86 117 1339.92 117.334 1340.05 117.631C1340.18 117.915 1340.42 118.181 1340.75 118.429C1341.09 118.664 1341.56 118.886 1342.16 119.097C1342.77 119.307 1343.54 119.517 1344.48 119.728C1346.13 120.099 1347.48 120.544 1348.54 121.063C1349.61 121.583 1350.4 122.22 1350.92 122.975C1351.44 123.729 1351.7 124.645 1351.7 125.721C1351.7 126.599 1351.51 127.403 1351.14 128.133C1350.78 128.863 1350.26 129.493 1349.57 130.025C1348.89 130.545 1348.07 130.953 1347.12 131.25C1346.18 131.535 1345.12 131.677 1343.94 131.677C1342.17 131.677 1340.68 131.361 1339.45 130.73C1338.23 130.1 1337.3 129.283 1336.67 128.281C1336.04 127.279 1335.72 126.222 1335.72 125.108H1339.17C1339.22 126.049 1339.5 126.797 1339.99 127.354C1340.49 127.898 1341.09 128.287 1341.81 128.522C1342.53 128.745 1343.24 128.856 1343.94 128.856C1344.88 128.856 1345.67 128.733 1346.3 128.485C1346.94 128.238 1347.43 127.898 1347.77 127.465C1348.1 127.032 1348.27 126.537 1348.27 125.98ZM1377.47 127.873V117.538C1377.47 116.746 1377.31 116.06 1376.99 115.479C1376.68 114.885 1376.21 114.427 1375.58 114.105C1374.95 113.784 1374.17 113.623 1373.24 113.623C1372.38 113.623 1371.61 113.771 1370.96 114.068C1370.32 114.365 1369.81 114.755 1369.44 115.237C1369.08 115.72 1368.9 116.239 1368.9 116.796H1365.47C1365.47 116.078 1365.65 115.367 1366.02 114.662C1366.39 113.957 1366.93 113.32 1367.62 112.751C1368.32 112.17 1369.17 111.712 1370.14 111.378C1371.13 111.032 1372.23 110.858 1373.45 110.858C1374.9 110.858 1376.19 111.106 1377.3 111.601C1378.43 112.095 1379.31 112.844 1379.94 113.846C1380.58 114.835 1380.9 116.078 1380.9 117.575V126.927C1380.9 127.595 1380.96 128.306 1381.07 129.061C1381.19 129.815 1381.37 130.465 1381.61 131.009V131.306H1378.03C1377.86 130.91 1377.72 130.384 1377.62 129.729C1377.52 129.061 1377.47 128.442 1377.47 127.873ZM1378.07 119.134L1378.1 121.546H1374.63C1373.66 121.546 1372.78 121.626 1372.02 121.787C1371.25 121.936 1370.61 122.164 1370.09 122.474C1369.57 122.783 1369.17 123.173 1368.9 123.643C1368.63 124.1 1368.49 124.638 1368.49 125.257C1368.49 125.888 1368.63 126.463 1368.92 126.982C1369.2 127.502 1369.63 127.916 1370.2 128.226C1370.78 128.522 1371.49 128.671 1372.33 128.671C1373.38 128.671 1374.31 128.448 1375.12 128.003C1375.92 127.558 1376.56 127.013 1377.03 126.37C1377.51 125.727 1377.77 125.102 1377.81 124.496L1379.27 126.147C1379.18 126.667 1378.95 127.242 1378.57 127.873C1378.18 128.504 1377.67 129.11 1377.03 129.691C1376.4 130.26 1375.64 130.737 1374.76 131.12C1373.9 131.491 1372.92 131.677 1371.83 131.677C1370.47 131.677 1369.28 131.411 1368.25 130.879C1367.24 130.347 1366.44 129.636 1365.88 128.745C1365.32 127.842 1365.04 126.834 1365.04 125.721C1365.04 124.645 1365.25 123.698 1365.67 122.882C1366.09 122.053 1366.7 121.367 1367.49 120.822C1368.28 120.266 1369.23 119.845 1370.35 119.561C1371.46 119.276 1372.7 119.134 1374.08 119.134H1378.07ZM1400.81 127.743L1405.97 111.229H1408.24L1407.79 114.514L1402.54 131.306H1400.33L1400.81 127.743ZM1397.34 111.229L1401.74 127.929L1402.06 131.306H1399.74L1393.91 111.229H1397.34ZM1413.17 127.799L1417.36 111.229H1420.78L1414.95 131.306H1412.65L1413.17 127.799ZM1408.74 111.229L1413.78 127.465L1414.36 131.306H1412.17L1406.77 114.477L1406.32 111.229H1408.74ZM1436.14 127.873V117.538C1436.14 116.746 1435.98 116.06 1435.66 115.479C1435.35 114.885 1434.88 114.427 1434.25 114.105C1433.62 113.784 1432.84 113.623 1431.91 113.623C1431.05 113.623 1430.28 113.771 1429.63 114.068C1428.99 114.365 1428.48 114.755 1428.11 115.237C1427.75 115.72 1427.57 116.239 1427.57 116.796H1424.14C1424.14 116.078 1424.32 115.367 1424.69 114.662C1425.06 113.957 1425.6 113.32 1426.29 112.751C1426.99 112.17 1427.84 111.712 1428.81 111.378C1429.8 111.032 1430.9 110.858 1432.12 110.858C1433.57 110.858 1434.86 111.106 1435.97 111.601C1437.1 112.095 1437.98 112.844 1438.61 113.846C1439.25 114.835 1439.57 116.078 1439.57 117.575V126.927C1439.57 127.595 1439.63 128.306 1439.74 129.061C1439.86 129.815 1440.04 130.465 1440.28 131.009V131.306H1436.7C1436.53 130.91 1436.39 130.384 1436.29 129.729C1436.19 129.061 1436.14 128.442 1436.14 127.873ZM1436.74 119.134L1436.77 121.546H1433.3C1432.33 121.546 1431.45 121.626 1430.69 121.787C1429.92 121.936 1429.28 122.164 1428.76 122.474C1428.24 122.783 1427.84 123.173 1427.57 123.643C1427.3 124.1 1427.16 124.638 1427.16 125.257C1427.16 125.888 1427.3 126.463 1427.59 126.982C1427.87 127.502 1428.3 127.916 1428.87 128.226C1429.45 128.522 1430.16 128.671 1431 128.671C1432.05 128.671 1432.98 128.448 1433.79 128.003C1434.59 127.558 1435.23 127.013 1435.7 126.37C1436.18 125.727 1436.44 125.102 1436.48 124.496L1437.94 126.147C1437.85 126.667 1437.62 127.242 1437.24 127.873C1436.85 128.504 1436.34 129.11 1435.7 129.691C1435.07 130.26 1434.31 130.737 1433.43 131.12C1432.57 131.491 1431.59 131.677 1430.5 131.677C1429.14 131.677 1427.95 131.411 1426.92 130.879C1425.91 130.347 1425.11 129.636 1424.54 128.745C1423.99 127.842 1423.71 126.834 1423.71 125.721C1423.71 124.645 1423.92 123.698 1424.34 122.882C1424.76 122.053 1425.37 121.367 1426.16 120.822C1426.95 120.266 1427.9 119.845 1429.02 119.561C1430.13 119.276 1431.37 119.134 1432.75 119.134H1436.74ZM1450.32 129.228L1455.9 111.229H1459.58L1451.52 134.404C1451.34 134.899 1451.09 135.431 1450.78 136C1450.48 136.581 1450.1 137.132 1449.63 137.651C1449.16 138.171 1448.59 138.591 1447.92 138.913C1447.27 139.247 1446.48 139.414 1445.57 139.414C1445.3 139.414 1444.95 139.377 1444.53 139.303C1444.11 139.229 1443.81 139.167 1443.64 139.117L1443.62 136.334C1443.72 136.346 1443.87 136.359 1444.08 136.371C1444.31 136.396 1444.46 136.408 1444.55 136.408C1445.33 136.408 1445.99 136.303 1446.53 136.093C1447.08 135.895 1447.53 135.555 1447.91 135.072C1448.29 134.602 1448.62 133.953 1448.89 133.124L1450.32 129.228ZM1446.22 111.229L1451.43 126.815L1452.32 130.434L1449.85 131.695L1442.47 111.229H1446.22ZM1480.51 111.229V113.864H1469.65V111.229H1480.51ZM1473.33 106.35H1476.76V126.333C1476.76 127.013 1476.86 127.527 1477.07 127.873C1477.28 128.219 1477.56 128.448 1477.89 128.56C1478.22 128.671 1478.58 128.727 1478.97 128.727C1479.25 128.727 1479.55 128.702 1479.86 128.652C1480.18 128.59 1480.42 128.541 1480.58 128.504L1480.6 131.306C1480.33 131.392 1479.97 131.473 1479.52 131.547C1479.09 131.633 1478.56 131.677 1477.95 131.677C1477.1 131.677 1476.33 131.51 1475.63 131.176C1474.92 130.842 1474.36 130.285 1473.94 129.506C1473.53 128.714 1473.33 127.65 1473.33 126.314V106.35ZM1483.25 121.49V121.063C1483.25 119.616 1483.46 118.274 1483.88 117.037C1484.3 115.788 1484.91 114.705 1485.7 113.79C1486.49 112.862 1487.45 112.145 1488.58 111.638C1489.7 111.118 1490.96 110.858 1492.36 110.858C1493.77 110.858 1495.04 111.118 1496.17 111.638C1497.3 112.145 1498.27 112.862 1499.06 113.79C1499.86 114.705 1500.48 115.788 1500.9 117.037C1501.32 118.274 1501.53 119.616 1501.53 121.063V121.49C1501.53 122.938 1501.32 124.28 1500.9 125.517C1500.48 126.754 1499.86 127.836 1499.06 128.764C1498.27 129.679 1497.31 130.396 1496.18 130.916C1495.07 131.423 1493.81 131.677 1492.4 131.677C1490.99 131.677 1489.72 131.423 1488.6 130.916C1487.47 130.396 1486.51 129.679 1485.7 128.764C1484.91 127.836 1484.3 126.754 1483.88 125.517C1483.46 124.28 1483.25 122.938 1483.25 121.49ZM1486.68 121.063V121.49C1486.68 122.492 1486.8 123.438 1487.04 124.329C1487.27 125.207 1487.62 125.987 1488.09 126.667C1488.58 127.347 1489.18 127.885 1489.89 128.281C1490.61 128.665 1491.45 128.856 1492.4 128.856C1493.34 128.856 1494.16 128.665 1494.87 128.281C1495.58 127.885 1496.18 127.347 1496.65 126.667C1497.12 125.987 1497.47 125.207 1497.71 124.329C1497.95 123.438 1498.08 122.492 1498.08 121.49V121.063C1498.08 120.074 1497.95 119.14 1497.71 118.262C1497.47 117.371 1497.11 116.586 1496.63 115.905C1496.16 115.213 1495.57 114.668 1494.85 114.272C1494.14 113.877 1493.31 113.679 1492.36 113.679C1491.42 113.679 1490.59 113.877 1489.88 114.272C1489.17 114.668 1488.58 115.213 1488.09 115.905C1487.62 116.586 1487.27 117.371 1487.04 118.262C1486.8 119.14 1486.68 120.074 1486.68 121.063ZM945.11 177.98C945.11 177.486 944.999 177.028 944.776 176.607C944.566 176.174 944.127 175.785 943.459 175.438C942.803 175.08 941.814 174.771 940.49 174.511C939.377 174.276 938.369 173.997 937.466 173.676C936.575 173.354 935.814 172.965 935.184 172.507C934.565 172.049 934.089 171.511 933.755 170.893C933.421 170.274 933.254 169.55 933.254 168.722C933.254 167.93 933.427 167.182 933.773 166.477C934.132 165.771 934.633 165.147 935.276 164.603C935.932 164.058 936.717 163.632 937.633 163.322C938.548 163.013 939.569 162.858 940.694 162.858C942.302 162.858 943.675 163.143 944.813 163.712C945.951 164.281 946.824 165.042 947.43 165.994C948.036 166.934 948.339 167.979 948.339 169.13H944.906C944.906 168.573 944.739 168.035 944.405 167.516C944.084 166.984 943.607 166.545 942.977 166.198C942.358 165.852 941.597 165.679 940.694 165.679C939.742 165.679 938.969 165.827 938.375 166.124C937.794 166.409 937.367 166.773 937.095 167.219C936.835 167.664 936.705 168.134 936.705 168.629C936.705 169 936.767 169.334 936.891 169.631C937.027 169.915 937.262 170.181 937.596 170.429C937.93 170.664 938.4 170.886 939.006 171.097C939.612 171.307 940.385 171.517 941.325 171.728C942.97 172.099 944.325 172.544 945.389 173.063C946.452 173.583 947.244 174.22 947.764 174.975C948.283 175.729 948.543 176.645 948.543 177.721C948.543 178.599 948.357 179.403 947.986 180.133C947.628 180.863 947.102 181.493 946.409 182.025C945.729 182.545 944.912 182.953 943.96 183.25C943.02 183.535 941.962 183.677 940.787 183.677C939.018 183.677 937.521 183.361 936.297 182.73C935.072 182.1 934.145 181.283 933.514 180.281C932.883 179.279 932.567 178.222 932.567 177.108H936.019C936.068 178.049 936.34 178.797 936.835 179.354C937.33 179.898 937.936 180.287 938.653 180.522C939.371 180.745 940.082 180.856 940.787 180.856C941.727 180.856 942.513 180.733 943.144 180.485C943.787 180.238 944.275 179.898 944.609 179.465C944.943 179.032 945.11 178.537 945.11 177.98ZM956.781 163.229V183.306H953.33V163.229H956.781ZM953.07 157.904C953.07 157.348 953.237 156.878 953.571 156.494C953.918 156.111 954.425 155.919 955.093 155.919C955.748 155.919 956.249 156.111 956.596 156.494C956.954 156.878 957.134 157.348 957.134 157.904C957.134 158.436 956.954 158.894 956.596 159.277C956.249 159.648 955.748 159.834 955.093 159.834C954.425 159.834 953.918 159.648 953.571 159.277C953.237 158.894 953.07 158.436 953.07 157.904ZM965.706 167.219V183.306H962.255V163.229H965.521L965.706 167.219ZM965.001 172.507L963.405 172.451C963.418 171.078 963.597 169.81 963.943 168.647C964.29 167.472 964.803 166.452 965.483 165.586C966.164 164.72 967.011 164.052 968.025 163.582C969.04 163.1 970.215 162.858 971.551 162.858C972.491 162.858 973.357 162.994 974.148 163.267C974.94 163.526 975.627 163.941 976.208 164.51C976.789 165.079 977.241 165.809 977.562 166.699C977.884 167.59 978.045 168.666 978.045 169.928V183.306H974.612V170.095C974.612 169.043 974.433 168.202 974.074 167.571C973.728 166.94 973.233 166.483 972.59 166.198C971.947 165.901 971.192 165.753 970.326 165.753C969.312 165.753 968.465 165.932 967.784 166.291C967.104 166.65 966.56 167.145 966.151 167.775C965.743 168.406 965.446 169.13 965.261 169.946C965.088 170.75 965.001 171.604 965.001 172.507ZM978.008 170.614L975.707 171.319C975.719 170.218 975.899 169.161 976.245 168.146C976.604 167.132 977.117 166.229 977.785 165.438C978.465 164.646 979.3 164.021 980.29 163.563C981.28 163.093 982.411 162.858 983.686 162.858C984.762 162.858 985.714 163.001 986.543 163.285C987.384 163.57 988.089 164.009 988.658 164.603C989.24 165.184 989.679 165.932 989.976 166.848C990.272 167.763 990.421 168.852 990.421 170.113V183.306H986.97V170.076C986.97 168.951 986.79 168.078 986.432 167.46C986.085 166.829 985.59 166.39 984.947 166.143C984.316 165.883 983.562 165.753 982.684 165.753C981.929 165.753 981.261 165.883 980.68 166.143C980.098 166.402 979.61 166.761 979.214 167.219C978.818 167.664 978.515 168.177 978.305 168.759C978.107 169.34 978.008 169.959 978.008 170.614ZM999.049 167.089V191.024H995.598V163.229H998.752L999.049 167.089ZM1012.58 173.101V173.49C1012.58 174.95 1012.4 176.304 1012.06 177.554C1011.71 178.791 1011.2 179.867 1010.53 180.782C1009.88 181.698 1009.07 182.409 1008.1 182.916C1007.14 183.423 1006.03 183.677 1004.78 183.677C1003.51 183.677 1002.38 183.466 1001.41 183.046C1000.43 182.625 999.599 182.013 998.919 181.209C998.239 180.405 997.694 179.44 997.286 178.314C996.89 177.189 996.618 175.921 996.47 174.511V172.433C996.618 170.948 996.896 169.618 997.305 168.443C997.713 167.268 998.251 166.266 998.919 165.438C999.599 164.596 1000.42 163.959 1001.39 163.526C1002.35 163.081 1003.46 162.858 1004.73 162.858C1005.99 162.858 1007.11 163.106 1008.08 163.601C1009.06 164.083 1009.88 164.776 1010.55 165.679C1011.22 166.582 1011.72 167.664 1012.06 168.926C1012.4 170.175 1012.58 171.567 1012.58 173.101ZM1009.12 173.49V173.101C1009.12 172.099 1009.02 171.159 1008.81 170.28C1008.6 169.39 1008.27 168.61 1007.83 167.942C1007.39 167.262 1006.84 166.73 1006.16 166.347C1005.47 165.951 1004.66 165.753 1003.72 165.753C1002.86 165.753 1002.1 165.901 1001.46 166.198C1000.83 166.495 1000.29 166.897 999.847 167.404C999.401 167.899 999.036 168.468 998.752 169.111C998.48 169.742 998.276 170.398 998.14 171.078V175.884C998.387 176.75 998.733 177.566 999.179 178.333C999.624 179.088 1000.22 179.7 1000.96 180.17C1001.7 180.628 1002.64 180.856 1003.76 180.856C1004.69 180.856 1005.49 180.665 1006.16 180.281C1006.84 179.885 1007.39 179.347 1007.83 178.667C1008.27 177.987 1008.6 177.207 1008.81 176.329C1009.02 175.438 1009.12 174.492 1009.12 173.49ZM1020.68 154.806V183.306H1017.23V154.806H1020.68ZM1029.92 163.229V183.306H1026.47V163.229H1029.92ZM1026.21 157.904C1026.21 157.348 1026.38 156.878 1026.71 156.494C1027.06 156.111 1027.57 155.919 1028.24 155.919C1028.89 155.919 1029.39 156.111 1029.74 156.494C1030.1 156.878 1030.28 157.348 1030.28 157.904C1030.28 158.436 1030.1 158.894 1029.74 159.277C1029.39 159.648 1028.89 159.834 1028.24 159.834C1027.57 159.834 1027.06 159.648 1026.71 159.277C1026.38 158.894 1026.21 158.436 1026.21 157.904ZM1040.56 183.306H1037.12V161.114C1037.12 159.667 1037.38 158.449 1037.9 157.459C1038.43 156.457 1039.19 155.702 1040.18 155.195C1041.17 154.676 1042.35 154.416 1043.71 154.416C1044.11 154.416 1044.5 154.441 1044.9 154.49C1045.31 154.54 1045.7 154.614 1046.08 154.713L1045.9 157.515C1045.64 157.453 1045.34 157.41 1045.01 157.385C1044.69 157.36 1044.37 157.348 1044.04 157.348C1043.31 157.348 1042.68 157.496 1042.15 157.793C1041.63 158.077 1041.24 158.498 1040.96 159.055C1040.69 159.611 1040.56 160.298 1040.56 161.114V183.306ZM1044.82 163.229V165.864H1033.95V163.229H1044.82ZM1054.29 181.228L1059.87 163.229H1063.54L1055.49 186.404C1055.31 186.899 1055.06 187.431 1054.75 188C1054.45 188.581 1054.07 189.132 1053.6 189.651C1053.13 190.171 1052.56 190.591 1051.89 190.913C1051.24 191.247 1050.45 191.414 1049.54 191.414C1049.26 191.414 1048.92 191.377 1048.5 191.303C1048.08 191.229 1047.78 191.167 1047.61 191.117L1047.59 188.334C1047.69 188.346 1047.84 188.359 1048.05 188.371C1048.27 188.396 1048.43 188.408 1048.52 188.408C1049.29 188.408 1049.96 188.303 1050.5 188.093C1051.05 187.895 1051.5 187.555 1051.87 187.072C1052.26 186.602 1052.59 185.953 1052.86 185.124L1054.29 181.228ZM1050.19 163.229L1055.4 178.815L1056.29 182.434L1053.82 183.695L1046.44 163.229H1050.19ZM1079.8 163.229V183.306H1076.35V163.229H1079.8ZM1076.09 157.904C1076.09 157.348 1076.25 156.878 1076.59 156.494C1076.94 156.111 1077.44 155.919 1078.11 155.919C1078.77 155.919 1079.27 156.111 1079.61 156.494C1079.97 156.878 1080.15 157.348 1080.15 157.904C1080.15 158.436 1079.97 158.894 1079.61 159.277C1079.27 159.648 1078.77 159.834 1078.11 159.834C1077.44 159.834 1076.94 159.648 1076.59 159.277C1076.25 158.894 1076.09 158.436 1076.09 157.904ZM1093.71 163.229V165.864H1082.86V163.229H1093.71ZM1086.53 158.35H1089.97V178.333C1089.97 179.013 1090.07 179.527 1090.28 179.873C1090.49 180.219 1090.76 180.448 1091.1 180.56C1091.43 180.671 1091.79 180.727 1092.17 180.727C1092.46 180.727 1092.76 180.702 1093.07 180.652C1093.39 180.59 1093.63 180.541 1093.79 180.504L1093.81 183.306C1093.54 183.392 1093.18 183.473 1092.73 183.547C1092.3 183.633 1091.77 183.677 1091.15 183.677C1090.31 183.677 1089.54 183.51 1088.83 183.176C1088.13 182.842 1087.57 182.285 1087.15 181.506C1086.74 180.714 1086.53 179.65 1086.53 178.314V158.35ZM1115.5 183.677C1114.1 183.677 1112.83 183.442 1111.69 182.972C1110.57 182.489 1109.6 181.815 1108.78 180.949C1107.98 180.083 1107.36 179.057 1106.93 177.869C1106.49 176.682 1106.28 175.383 1106.28 173.973V173.193C1106.28 171.561 1106.52 170.107 1107 168.833C1107.48 167.547 1108.14 166.458 1108.97 165.567C1109.8 164.677 1110.74 164.003 1111.79 163.545C1112.84 163.087 1113.93 162.858 1115.05 162.858C1116.49 162.858 1117.72 163.106 1118.76 163.601C1119.82 164.095 1120.67 164.788 1121.34 165.679C1122.01 166.557 1122.51 167.596 1122.83 168.796C1123.15 169.983 1123.31 171.282 1123.31 172.692V174.232H1108.32V171.431H1119.88V171.171C1119.83 170.28 1119.64 169.414 1119.32 168.573C1119.01 167.732 1118.52 167.039 1117.84 166.495C1117.16 165.951 1116.23 165.679 1115.05 165.679C1114.27 165.679 1113.56 165.846 1112.9 166.18C1112.24 166.501 1111.68 166.984 1111.21 167.627C1110.74 168.27 1110.38 169.056 1110.12 169.983C1109.86 170.911 1109.73 171.981 1109.73 173.193V173.973C1109.73 174.925 1109.86 175.822 1110.12 176.663C1110.39 177.492 1110.78 178.222 1111.29 178.853C1111.81 179.483 1112.43 179.978 1113.16 180.337C1113.9 180.696 1114.74 180.875 1115.68 180.875C1116.9 180.875 1117.92 180.628 1118.76 180.133C1119.6 179.638 1120.34 178.976 1120.97 178.147L1123.05 179.799C1122.62 180.454 1122.07 181.079 1121.4 181.673C1120.73 182.267 1119.91 182.749 1118.93 183.12C1117.97 183.491 1116.82 183.677 1115.5 183.677ZM1133.16 180.207L1138.65 163.229H1142.16L1134.94 183.306H1132.64L1133.16 180.207ZM1128.58 163.229L1134.24 180.3L1134.63 183.306H1132.33L1125.05 163.229H1128.58ZM1153.54 183.677C1152.14 183.677 1150.87 183.442 1149.73 182.972C1148.61 182.489 1147.63 181.815 1146.82 180.949C1146.01 180.083 1145.4 179.057 1144.96 177.869C1144.53 176.682 1144.31 175.383 1144.31 173.973V173.193C1144.31 171.561 1144.55 170.107 1145.04 168.833C1145.52 167.547 1146.18 166.458 1147 165.567C1147.83 164.677 1148.77 164.003 1149.82 163.545C1150.88 163.087 1151.96 162.858 1153.09 162.858C1154.52 162.858 1155.76 163.106 1156.8 163.601C1157.85 164.095 1158.71 164.788 1159.38 165.679C1160.05 166.557 1160.54 167.596 1160.86 168.796C1161.19 169.983 1161.35 171.282 1161.35 172.692V174.232H1146.35V171.431H1157.91V171.171C1157.86 170.28 1157.68 169.414 1157.36 168.573C1157.05 167.732 1156.55 167.039 1155.87 166.495C1155.19 165.951 1154.26 165.679 1153.09 165.679C1152.31 165.679 1151.59 165.846 1150.94 166.18C1150.28 166.501 1149.72 166.984 1149.25 167.627C1148.78 168.27 1148.41 169.056 1148.15 169.983C1147.89 170.911 1147.76 171.981 1147.76 173.193V173.973C1147.76 174.925 1147.89 175.822 1148.15 176.663C1148.43 177.492 1148.82 178.222 1149.32 178.853C1149.84 179.483 1150.47 179.978 1151.2 180.337C1151.94 180.696 1152.78 180.875 1153.72 180.875C1154.93 180.875 1155.96 180.628 1156.8 180.133C1157.64 179.638 1158.38 178.976 1159.01 178.147L1161.09 179.799C1160.65 180.454 1160.1 181.079 1159.44 181.673C1158.77 182.267 1157.94 182.749 1156.97 183.12C1156 183.491 1154.86 183.677 1153.54 183.677ZM1168.79 167.516V183.306H1165.35V163.229H1168.6L1168.79 167.516ZM1167.97 172.507L1166.54 172.451C1166.55 171.078 1166.76 169.81 1167.15 168.647C1167.55 167.472 1168.11 166.452 1168.82 165.586C1169.54 164.72 1170.4 164.052 1171.38 163.582C1172.39 163.1 1173.49 162.858 1174.71 162.858C1175.7 162.858 1176.59 162.994 1177.38 163.267C1178.17 163.526 1178.84 163.947 1179.4 164.528C1179.97 165.11 1180.4 165.864 1180.7 166.792C1181 167.707 1181.14 168.827 1181.14 170.15V183.306H1177.69V170.113C1177.69 169.062 1177.54 168.221 1177.23 167.59C1176.92 166.947 1176.47 166.483 1175.88 166.198C1175.28 165.901 1174.55 165.753 1173.69 165.753C1172.83 165.753 1172.05 165.932 1171.35 166.291C1170.65 166.65 1170.06 167.145 1169.55 167.775C1169.05 168.406 1168.66 169.13 1168.38 169.946C1168.11 170.75 1167.97 171.604 1167.97 172.507ZM1207.62 179.873V169.538C1207.62 168.746 1207.46 168.06 1207.14 167.479C1206.83 166.885 1206.36 166.427 1205.73 166.105C1205.1 165.784 1204.32 165.623 1203.39 165.623C1202.53 165.623 1201.76 165.771 1201.11 166.068C1200.47 166.365 1199.96 166.755 1199.59 167.237C1199.23 167.72 1199.05 168.239 1199.05 168.796H1195.62C1195.62 168.078 1195.8 167.367 1196.17 166.662C1196.54 165.957 1197.08 165.32 1197.77 164.751C1198.47 164.17 1199.32 163.712 1200.29 163.378C1201.28 163.032 1202.38 162.858 1203.6 162.858C1205.06 162.858 1206.34 163.106 1207.46 163.601C1208.58 164.095 1209.46 164.844 1210.09 165.846C1210.73 166.835 1211.05 168.078 1211.05 169.575V178.927C1211.05 179.595 1211.11 180.306 1211.22 181.061C1211.35 181.815 1211.52 182.465 1211.76 183.009V183.306H1208.18C1208.01 182.91 1207.87 182.384 1207.77 181.729C1207.67 181.061 1207.62 180.442 1207.62 179.873ZM1208.22 171.134L1208.25 173.546H1204.78C1203.81 173.546 1202.93 173.626 1202.17 173.787C1201.4 173.936 1200.76 174.164 1200.24 174.474C1199.72 174.783 1199.32 175.173 1199.05 175.643C1198.78 176.1 1198.64 176.638 1198.64 177.257C1198.64 177.888 1198.78 178.463 1199.07 178.982C1199.35 179.502 1199.78 179.916 1200.35 180.226C1200.93 180.522 1201.64 180.671 1202.48 180.671C1203.53 180.671 1204.46 180.448 1205.27 180.003C1206.07 179.558 1206.71 179.013 1207.18 178.37C1207.66 177.727 1207.92 177.102 1207.96 176.496L1209.42 178.147C1209.34 178.667 1209.1 179.242 1208.72 179.873C1208.33 180.504 1207.82 181.11 1207.18 181.691C1206.55 182.26 1205.79 182.737 1204.91 183.12C1204.05 183.491 1203.07 183.677 1201.98 183.677C1200.62 183.677 1199.43 183.411 1198.4 182.879C1197.39 182.347 1196.59 181.636 1196.03 180.745C1195.47 179.842 1195.19 178.834 1195.19 177.721C1195.19 176.645 1195.4 175.698 1195.82 174.882C1196.24 174.053 1196.85 173.367 1197.64 172.822C1198.43 172.266 1199.38 171.845 1200.5 171.561C1201.61 171.276 1202.85 171.134 1204.23 171.134H1208.22ZM1225.86 154.806H1229.31V179.409L1229.02 183.306H1225.86V154.806ZM1242.88 173.101V173.49C1242.88 174.95 1242.7 176.304 1242.36 177.554C1242.01 178.791 1241.5 179.867 1240.83 180.782C1240.17 181.698 1239.35 182.409 1238.39 182.916C1237.42 183.423 1236.31 183.677 1235.06 183.677C1233.79 183.677 1232.67 183.46 1231.71 183.027C1230.75 182.582 1229.95 181.945 1229.29 181.116C1228.64 180.287 1228.11 179.285 1227.72 178.11C1227.33 176.935 1227.07 175.612 1226.92 174.14V172.433C1227.07 170.948 1227.33 169.618 1227.72 168.443C1228.11 167.268 1228.64 166.266 1229.29 165.438C1229.95 164.596 1230.75 163.959 1231.71 163.526C1232.66 163.081 1233.77 162.858 1235.03 162.858C1236.29 162.858 1237.41 163.106 1238.39 163.601C1239.36 164.083 1240.18 164.776 1240.83 165.679C1241.5 166.582 1242.01 167.664 1242.36 168.926C1242.7 170.175 1242.88 171.567 1242.88 173.101ZM1239.42 173.49V173.101C1239.42 172.099 1239.33 171.159 1239.15 170.28C1238.96 169.39 1238.66 168.61 1238.26 167.942C1237.85 167.262 1237.31 166.73 1236.64 166.347C1235.97 165.951 1235.15 165.753 1234.17 165.753C1233.31 165.753 1232.55 165.901 1231.91 166.198C1231.28 166.495 1230.74 166.897 1230.3 167.404C1229.85 167.899 1229.49 168.468 1229.2 169.111C1228.93 169.742 1228.72 170.398 1228.59 171.078V175.55C1228.79 176.416 1229.11 177.251 1229.55 178.055C1230.01 178.846 1230.62 179.496 1231.37 180.003C1232.14 180.51 1233.09 180.764 1234.21 180.764C1235.14 180.764 1235.93 180.578 1236.59 180.207C1237.25 179.824 1237.79 179.298 1238.2 178.63C1238.62 177.962 1238.93 177.189 1239.13 176.311C1239.33 175.432 1239.42 174.492 1239.42 173.49ZM1250.95 163.229V183.306H1247.5V163.229H1250.95ZM1247.24 157.904C1247.24 157.348 1247.4 156.878 1247.74 156.494C1248.08 156.111 1248.59 155.919 1249.26 155.919C1249.91 155.919 1250.42 156.111 1250.76 156.494C1251.12 156.878 1251.3 157.348 1251.3 157.904C1251.3 158.436 1251.12 158.894 1250.76 159.277C1250.42 159.648 1249.91 159.834 1249.26 159.834C1248.59 159.834 1248.08 159.648 1247.74 159.277C1247.4 158.894 1247.24 158.436 1247.24 157.904ZM1264.86 163.229V165.864H1254.01V163.229H1264.86ZM1257.68 158.35H1261.12V178.333C1261.12 179.013 1261.22 179.527 1261.43 179.873C1261.64 180.219 1261.91 180.448 1262.25 180.56C1262.58 180.671 1262.94 180.727 1263.32 180.727C1263.61 180.727 1263.9 180.702 1264.21 180.652C1264.54 180.59 1264.78 180.541 1264.94 180.504L1264.96 183.306C1264.68 183.392 1264.33 183.473 1263.88 183.547C1263.45 183.633 1262.92 183.677 1262.3 183.677C1261.46 183.677 1260.69 183.51 1259.98 183.176C1259.28 182.842 1258.72 182.285 1258.29 181.506C1257.89 180.714 1257.68 179.65 1257.68 178.314V158.35ZM1281.73 167.219V183.306H1278.28V163.229H1281.54L1281.73 167.219ZM1281.02 172.507L1279.43 172.451C1279.44 171.078 1279.62 169.81 1279.97 168.647C1280.31 167.472 1280.83 166.452 1281.51 165.586C1282.19 164.72 1283.03 164.052 1284.05 163.582C1285.06 163.1 1286.24 162.858 1287.57 162.858C1288.51 162.858 1289.38 162.994 1290.17 163.267C1290.96 163.526 1291.65 163.941 1292.23 164.51C1292.81 165.079 1293.26 165.809 1293.59 166.699C1293.91 167.59 1294.07 168.666 1294.07 169.928V183.306H1290.64V170.095C1290.64 169.043 1290.46 168.202 1290.1 167.571C1289.75 166.94 1289.26 166.483 1288.61 166.198C1287.97 165.901 1287.22 165.753 1286.35 165.753C1285.34 165.753 1284.49 165.932 1283.81 166.291C1283.13 166.65 1282.58 167.145 1282.17 167.775C1281.77 168.406 1281.47 169.13 1281.28 169.946C1281.11 170.75 1281.02 171.604 1281.02 172.507ZM1294.03 170.614L1291.73 171.319C1291.74 170.218 1291.92 169.161 1292.27 168.146C1292.63 167.132 1293.14 166.229 1293.81 165.438C1294.49 164.646 1295.32 164.021 1296.31 163.563C1297.3 163.093 1298.43 162.858 1299.71 162.858C1300.79 162.858 1301.74 163.001 1302.57 163.285C1303.41 163.57 1304.11 164.009 1304.68 164.603C1305.26 165.184 1305.7 165.932 1306 166.848C1306.3 167.763 1306.44 168.852 1306.44 170.113V183.306H1302.99V170.076C1302.99 168.951 1302.81 168.078 1302.46 167.46C1302.11 166.829 1301.61 166.39 1300.97 166.143C1300.34 165.883 1299.59 165.753 1298.71 165.753C1297.95 165.753 1297.28 165.883 1296.7 166.143C1296.12 166.402 1295.63 166.761 1295.24 167.219C1294.84 167.664 1294.54 168.177 1294.33 168.759C1294.13 169.34 1294.03 169.959 1294.03 170.614ZM1310.73 173.49V173.063C1310.73 171.616 1310.94 170.274 1311.36 169.037C1311.78 167.788 1312.39 166.705 1313.18 165.79C1313.97 164.862 1314.93 164.145 1316.06 163.638C1317.18 163.118 1318.44 162.858 1319.84 162.858C1321.25 162.858 1322.52 163.118 1323.64 163.638C1324.78 164.145 1325.75 164.862 1326.54 165.79C1327.34 166.705 1327.96 167.788 1328.38 169.037C1328.8 170.274 1329.01 171.616 1329.01 173.063V173.49C1329.01 174.938 1328.8 176.28 1328.38 177.517C1327.96 178.754 1327.34 179.836 1326.54 180.764C1325.75 181.679 1324.79 182.396 1323.66 182.916C1322.55 183.423 1321.29 183.677 1319.88 183.677C1318.47 183.677 1317.2 183.423 1316.07 182.916C1314.95 182.396 1313.98 181.679 1313.18 180.764C1312.39 179.836 1311.78 178.754 1311.36 177.517C1310.94 176.28 1310.73 174.938 1310.73 173.49ZM1314.16 173.063V173.49C1314.16 174.492 1314.28 175.438 1314.52 176.329C1314.75 177.207 1315.1 177.987 1315.57 178.667C1316.06 179.347 1316.66 179.885 1317.37 180.281C1318.09 180.665 1318.93 180.856 1319.88 180.856C1320.82 180.856 1321.64 180.665 1322.35 180.281C1323.06 179.885 1323.66 179.347 1324.13 178.667C1324.6 177.987 1324.95 177.207 1325.18 176.329C1325.43 175.438 1325.56 174.492 1325.56 173.49V173.063C1325.56 172.074 1325.43 171.14 1325.18 170.262C1324.95 169.371 1324.59 168.586 1324.11 167.905C1323.64 167.213 1323.04 166.668 1322.33 166.272C1321.62 165.877 1320.79 165.679 1319.84 165.679C1318.9 165.679 1318.07 165.877 1317.35 166.272C1316.65 166.668 1316.06 167.213 1315.57 167.905C1315.1 168.586 1314.75 169.371 1314.52 170.262C1314.28 171.14 1314.16 172.074 1314.16 173.063ZM1336.74 166.384V183.306H1333.31V163.229H1336.65L1336.74 166.384ZM1343.02 163.118L1343 166.31C1342.71 166.248 1342.44 166.211 1342.18 166.198C1341.93 166.174 1341.65 166.161 1341.33 166.161C1340.54 166.161 1339.84 166.285 1339.23 166.532C1338.62 166.78 1338.11 167.126 1337.69 167.571C1337.27 168.017 1336.94 168.549 1336.69 169.167C1336.45 169.773 1336.3 170.441 1336.22 171.171L1335.26 171.728C1335.26 170.515 1335.38 169.377 1335.61 168.313C1335.86 167.25 1336.24 166.31 1336.74 165.493C1337.25 164.664 1337.89 164.021 1338.67 163.563C1339.47 163.093 1340.41 162.858 1341.49 162.858C1341.74 162.858 1342.03 162.889 1342.35 162.951C1342.67 163.001 1342.89 163.056 1343.02 163.118ZM1354.15 183.677C1352.75 183.677 1351.48 183.442 1350.34 182.972C1349.22 182.489 1348.25 181.815 1347.43 180.949C1346.63 180.083 1346.01 179.057 1345.58 177.869C1345.14 176.682 1344.93 175.383 1344.93 173.973V173.193C1344.93 171.561 1345.17 170.107 1345.65 168.833C1346.13 167.547 1346.79 166.458 1347.62 165.567C1348.45 164.677 1349.39 164.003 1350.44 163.545C1351.49 163.087 1352.58 162.858 1353.7 162.858C1355.14 162.858 1356.38 163.106 1357.41 163.601C1358.47 164.095 1359.33 164.788 1359.99 165.679C1360.66 166.557 1361.16 167.596 1361.48 168.796C1361.8 169.983 1361.96 171.282 1361.96 172.692V174.232H1346.97V171.431H1358.53V171.171C1358.48 170.28 1358.29 169.414 1357.97 168.573C1357.66 167.732 1357.17 167.039 1356.49 166.495C1355.81 165.951 1354.88 165.679 1353.7 165.679C1352.92 165.679 1352.21 165.846 1351.55 166.18C1350.9 166.501 1350.33 166.984 1349.86 167.627C1349.39 168.27 1349.03 169.056 1348.77 169.983C1348.51 170.911 1348.38 171.981 1348.38 173.193V173.973C1348.38 174.925 1348.51 175.822 1348.77 176.663C1349.04 177.492 1349.43 178.222 1349.94 178.853C1350.46 179.483 1351.08 179.978 1351.81 180.337C1352.55 180.696 1353.39 180.875 1354.33 180.875C1355.55 180.875 1356.57 180.628 1357.41 180.133C1358.26 179.638 1358.99 178.976 1359.62 178.147L1361.7 179.799C1361.27 180.454 1360.72 181.079 1360.05 181.673C1359.38 182.267 1358.56 182.749 1357.58 183.12C1356.62 183.491 1355.47 183.677 1354.15 183.677ZM1366.02 181.487C1366.02 180.906 1366.2 180.417 1366.56 180.021C1366.93 179.613 1367.46 179.409 1368.16 179.409C1368.85 179.409 1369.38 179.613 1369.73 180.021C1370.11 180.417 1370.29 180.906 1370.29 181.487C1370.29 182.056 1370.11 182.539 1369.73 182.935C1369.38 183.33 1368.85 183.528 1368.16 183.528C1367.46 183.528 1366.93 183.33 1366.56 182.935C1366.2 182.539 1366.02 182.056 1366.02 181.487ZM1393.04 175.142L1398.4 156.29H1401L1399.5 163.619L1393.73 183.306H1391.15L1393.04 175.142ZM1387.49 156.29L1391.76 174.771L1393.04 183.306H1390.48L1383.93 156.29H1387.49ZM1407.94 174.752L1412.11 156.29H1415.69L1409.16 183.306H1406.6L1407.94 174.752ZM1401.39 156.29L1406.6 175.142L1408.5 183.306H1405.92L1400.35 163.619L1398.83 156.29H1401.39ZM1422.58 154.806V183.306H1419.15V154.806H1422.58ZM1421.76 172.507L1420.33 172.451C1420.35 171.078 1420.55 169.81 1420.95 168.647C1421.34 167.472 1421.9 166.452 1422.62 165.586C1423.33 164.72 1424.19 164.052 1425.18 163.582C1426.18 163.1 1427.28 162.858 1428.5 162.858C1429.49 162.858 1430.38 162.994 1431.17 163.267C1431.96 163.526 1432.63 163.947 1433.19 164.528C1433.76 165.11 1434.19 165.864 1434.49 166.792C1434.79 167.707 1434.94 168.827 1434.94 170.15V183.306H1431.48V170.113C1431.48 169.062 1431.33 168.221 1431.02 167.59C1430.71 166.947 1430.26 166.483 1429.67 166.198C1429.07 165.901 1428.34 165.753 1427.48 165.753C1426.62 165.753 1425.84 165.932 1425.14 166.291C1424.45 166.65 1423.85 167.145 1423.34 167.775C1422.84 168.406 1422.45 169.13 1422.17 169.946C1421.9 170.75 1421.76 171.604 1421.76 172.507ZM1451.91 179.873V169.538C1451.91 168.746 1451.75 168.06 1451.43 167.479C1451.12 166.885 1450.65 166.427 1450.02 166.105C1449.39 165.784 1448.61 165.623 1447.68 165.623C1446.82 165.623 1446.06 165.771 1445.4 166.068C1444.76 166.365 1444.25 166.755 1443.88 167.237C1443.52 167.72 1443.34 168.239 1443.34 168.796H1439.91C1439.91 168.078 1440.09 167.367 1440.46 166.662C1440.84 165.957 1441.37 165.32 1442.06 164.751C1442.77 164.17 1443.61 163.712 1444.58 163.378C1445.57 163.032 1446.67 162.858 1447.89 162.858C1449.35 162.858 1450.63 163.106 1451.75 163.601C1452.87 164.095 1453.75 164.844 1454.38 165.846C1455.02 166.835 1455.35 168.078 1455.35 169.575V178.927C1455.35 179.595 1455.4 180.306 1455.51 181.061C1455.64 181.815 1455.82 182.465 1456.05 183.009V183.306H1452.47C1452.3 182.91 1452.16 182.384 1452.06 181.729C1451.96 181.061 1451.91 180.442 1451.91 179.873ZM1452.51 171.134L1452.54 173.546H1449.07C1448.1 173.546 1447.22 173.626 1446.46 173.787C1445.69 173.936 1445.05 174.164 1444.53 174.474C1444.01 174.783 1443.61 175.173 1443.34 175.643C1443.07 176.1 1442.93 176.638 1442.93 177.257C1442.93 177.888 1443.07 178.463 1443.36 178.982C1443.64 179.502 1444.07 179.916 1444.64 180.226C1445.22 180.522 1445.93 180.671 1446.77 180.671C1447.82 180.671 1448.75 180.448 1449.56 180.003C1450.36 179.558 1451 179.013 1451.47 178.37C1451.95 177.727 1452.21 177.102 1452.25 176.496L1453.71 178.147C1453.63 178.667 1453.39 179.242 1453.01 179.873C1452.62 180.504 1452.11 181.11 1451.47 181.691C1450.84 182.26 1450.08 182.737 1449.2 183.12C1448.34 183.491 1447.36 183.677 1446.27 183.677C1444.91 183.677 1443.72 183.411 1442.69 182.879C1441.68 182.347 1440.89 181.636 1440.32 180.745C1439.76 179.842 1439.48 178.834 1439.48 177.721C1439.48 176.645 1439.69 175.698 1440.11 174.882C1440.53 174.053 1441.14 173.367 1441.93 172.822C1442.72 172.266 1443.67 171.845 1444.79 171.561C1445.9 171.276 1447.14 171.134 1448.52 171.134H1452.51ZM1469.15 163.229V165.864H1458.3V163.229H1469.15ZM1461.97 158.35H1465.4V178.333C1465.4 179.013 1465.51 179.527 1465.72 179.873C1465.93 180.219 1466.2 180.448 1466.53 180.56C1466.87 180.671 1467.23 180.727 1467.61 180.727C1467.89 180.727 1468.19 180.702 1468.5 180.652C1468.82 180.59 1469.06 180.541 1469.22 180.504L1469.24 183.306C1468.97 183.392 1468.61 183.473 1468.17 183.547C1467.73 183.633 1467.21 183.677 1466.59 183.677C1465.75 183.677 1464.98 183.51 1464.27 183.176C1463.57 182.842 1463 182.285 1462.58 181.506C1462.17 180.714 1461.97 179.65 1461.97 178.314V158.35ZM945.259 231.873V221.538C945.259 220.746 945.098 220.06 944.776 219.479C944.467 218.885 943.997 218.427 943.366 218.105C942.735 217.784 941.956 217.623 941.028 217.623C940.162 217.623 939.402 217.771 938.746 218.068C938.103 218.365 937.596 218.755 937.225 219.237C936.866 219.72 936.687 220.239 936.687 220.796H933.254C933.254 220.078 933.439 219.367 933.811 218.662C934.182 217.957 934.714 217.32 935.406 216.751C936.111 216.17 936.952 215.712 937.93 215.378C938.919 215.032 940.02 214.858 941.232 214.858C942.692 214.858 943.979 215.106 945.092 215.601C946.217 216.095 947.096 216.844 947.727 217.846C948.37 218.835 948.691 220.078 948.691 221.575V230.927C948.691 231.595 948.747 232.306 948.858 233.061C948.982 233.815 949.161 234.465 949.396 235.009V235.306H945.815C945.642 234.91 945.506 234.384 945.407 233.729C945.308 233.061 945.259 232.442 945.259 231.873ZM945.853 223.134L945.89 225.546H942.42C941.443 225.546 940.571 225.626 939.804 225.787C939.037 225.936 938.394 226.164 937.874 226.474C937.354 226.783 936.959 227.173 936.687 227.643C936.414 228.1 936.278 228.638 936.278 229.257C936.278 229.888 936.421 230.463 936.705 230.982C936.99 231.502 937.416 231.916 937.985 232.226C938.567 232.522 939.278 232.671 940.119 232.671C941.171 232.671 942.098 232.448 942.902 232.003C943.706 231.558 944.343 231.013 944.813 230.37C945.296 229.727 945.556 229.102 945.593 228.496L947.059 230.147C946.972 230.667 946.737 231.242 946.354 231.873C945.97 232.504 945.457 233.11 944.813 233.691C944.183 234.26 943.428 234.737 942.55 235.12C941.684 235.491 940.707 235.677 939.618 235.677C938.257 235.677 937.064 235.411 936.037 234.879C935.023 234.347 934.231 233.636 933.662 232.745C933.105 231.842 932.827 230.834 932.827 229.721C932.827 228.645 933.037 227.698 933.458 226.882C933.879 226.053 934.485 225.367 935.276 224.822C936.068 224.266 937.021 223.845 938.134 223.561C939.247 223.276 940.49 223.134 941.863 223.134H945.853ZM954.072 206.806H957.523V231.409L957.227 235.306H954.072V206.806ZM971.087 225.101V225.49C971.087 226.95 970.914 228.304 970.567 229.554C970.221 230.791 969.714 231.867 969.046 232.782C968.378 233.698 967.562 234.409 966.597 234.916C965.632 235.423 964.525 235.677 963.275 235.677C962.001 235.677 960.882 235.46 959.917 235.027C958.965 234.582 958.16 233.945 957.505 233.116C956.849 232.287 956.324 231.285 955.928 230.11C955.544 228.935 955.278 227.612 955.13 226.14V224.433C955.278 222.948 955.544 221.618 955.928 220.443C956.324 219.268 956.849 218.266 957.505 217.438C958.16 216.596 958.965 215.959 959.917 215.526C960.869 215.081 961.977 214.858 963.238 214.858C964.5 214.858 965.619 215.106 966.597 215.601C967.574 216.083 968.39 216.776 969.046 217.679C969.714 218.582 970.221 219.664 970.567 220.926C970.914 222.175 971.087 223.567 971.087 225.101ZM967.636 225.49V225.101C967.636 224.099 967.543 223.159 967.357 222.28C967.172 221.39 966.875 220.61 966.467 219.942C966.059 219.262 965.521 218.73 964.853 218.347C964.185 217.951 963.362 217.753 962.385 217.753C961.519 217.753 960.764 217.901 960.121 218.198C959.49 218.495 958.952 218.897 958.507 219.404C958.062 219.899 957.697 220.468 957.412 221.111C957.14 221.742 956.936 222.398 956.8 223.078V227.55C956.998 228.416 957.319 229.251 957.765 230.055C958.222 230.846 958.828 231.496 959.583 232.003C960.35 232.51 961.296 232.764 962.422 232.764C963.35 232.764 964.141 232.578 964.797 232.207C965.465 231.824 966.003 231.298 966.411 230.63C966.832 229.962 967.141 229.189 967.339 228.311C967.537 227.432 967.636 226.492 967.636 225.49ZM974.52 225.49V225.063C974.52 223.616 974.73 222.274 975.15 221.037C975.571 219.788 976.177 218.705 976.969 217.79C977.76 216.862 978.719 216.145 979.845 215.638C980.97 215.118 982.232 214.858 983.63 214.858C985.04 214.858 986.308 215.118 987.434 215.638C988.572 216.145 989.536 216.862 990.328 217.79C991.132 218.705 991.744 219.788 992.165 221.037C992.586 222.274 992.796 223.616 992.796 225.063V225.49C992.796 226.938 992.586 228.28 992.165 229.517C991.744 230.754 991.132 231.836 990.328 232.764C989.536 233.679 988.578 234.396 987.452 234.916C986.339 235.423 985.077 235.677 983.667 235.677C982.257 235.677 980.989 235.423 979.863 234.916C978.738 234.396 977.773 233.679 976.969 232.764C976.177 231.836 975.571 230.754 975.15 229.517C974.73 228.28 974.52 226.938 974.52 225.49ZM977.952 225.063V225.49C977.952 226.492 978.07 227.438 978.305 228.329C978.54 229.207 978.892 229.987 979.362 230.667C979.845 231.347 980.445 231.885 981.162 232.281C981.88 232.665 982.715 232.856 983.667 232.856C984.607 232.856 985.43 232.665 986.135 232.281C986.852 231.885 987.446 231.347 987.916 230.667C988.386 229.987 988.739 229.207 988.974 228.329C989.221 227.438 989.345 226.492 989.345 225.49V225.063C989.345 224.074 989.221 223.14 988.974 222.262C988.739 221.371 988.38 220.586 987.897 219.905C987.427 219.213 986.834 218.668 986.116 218.272C985.411 217.877 984.582 217.679 983.63 217.679C982.69 217.679 981.861 217.877 981.144 218.272C980.438 218.668 979.845 219.213 979.362 219.905C978.892 220.586 978.54 221.371 978.305 222.262C978.07 223.14 977.952 224.074 977.952 225.063ZM1009.38 230.667V215.229H1012.83V235.306H1009.55L1009.38 230.667ZM1010.03 226.437L1011.46 226.399C1011.46 227.735 1011.32 228.972 1011.04 230.11C1010.76 231.236 1010.32 232.213 1009.7 233.042C1009.08 233.871 1008.27 234.52 1007.27 234.99C1006.27 235.448 1005.05 235.677 1003.61 235.677C1002.64 235.677 1001.74 235.535 1000.92 235.25C1000.12 234.965 999.426 234.526 998.845 233.933C998.263 233.339 997.812 232.566 997.49 231.613C997.181 230.661 997.026 229.517 997.026 228.181V215.229H1000.46V228.218C1000.46 229.121 1000.56 229.869 1000.76 230.463C1000.97 231.044 1001.24 231.508 1001.59 231.854C1001.95 232.188 1002.35 232.424 1002.78 232.56C1003.22 232.696 1003.68 232.764 1004.15 232.764C1005.61 232.764 1006.77 232.485 1007.62 231.929C1008.47 231.36 1009.09 230.599 1009.46 229.646C1009.84 228.682 1010.03 227.612 1010.03 226.437ZM1026.47 215.229V217.864H1015.62V215.229H1026.47ZM1019.29 210.35H1022.72V230.333C1022.72 231.013 1022.83 231.527 1023.04 231.873C1023.25 232.219 1023.52 232.448 1023.86 232.56C1024.19 232.671 1024.55 232.727 1024.93 232.727C1025.22 232.727 1025.51 232.702 1025.82 232.652C1026.14 232.59 1026.39 232.541 1026.55 232.504L1026.57 235.306C1026.29 235.392 1025.93 235.473 1025.49 235.547C1025.06 235.633 1024.53 235.677 1023.91 235.677C1023.07 235.677 1022.3 235.51 1021.59 235.176C1020.89 234.842 1020.32 234.285 1019.9 233.506C1019.5 232.714 1019.29 231.65 1019.29 230.314V210.35ZM1039.98 233.487C1039.98 232.906 1040.16 232.417 1040.52 232.021C1040.89 231.613 1041.42 231.409 1042.11 231.409C1042.81 231.409 1043.33 231.613 1043.69 232.021C1044.06 232.417 1044.25 232.906 1044.25 233.487C1044.25 234.056 1044.06 234.539 1043.69 234.935C1043.33 235.33 1042.81 235.528 1042.11 235.528C1041.42 235.528 1040.89 235.33 1040.52 234.935C1040.16 234.539 1039.98 234.056 1039.98 233.487ZM1050 233.487C1050 232.906 1050.18 232.417 1050.54 232.021C1050.91 231.613 1051.44 231.409 1052.13 231.409C1052.83 231.409 1053.35 231.613 1053.71 232.021C1054.08 232.417 1054.27 232.906 1054.27 233.487C1054.27 234.056 1054.08 234.539 1053.71 234.935C1053.35 235.33 1052.83 235.528 1052.13 235.528C1051.44 235.528 1050.91 235.33 1050.54 234.935C1050.18 234.539 1050 234.056 1050 233.487ZM1060.02 233.487C1060.02 232.906 1060.2 232.417 1060.56 232.021C1060.93 231.613 1061.46 231.409 1062.15 231.409C1062.85 231.409 1063.37 231.613 1063.73 232.021C1064.1 232.417 1064.29 232.906 1064.29 233.487C1064.29 234.056 1064.1 234.539 1063.73 234.935C1063.37 235.33 1062.85 235.528 1062.15 235.528C1061.46 235.528 1060.93 235.33 1060.56 234.935C1060.2 234.539 1060.02 234.056 1060.02 233.487Z" fill="#222222"/>
</g>
<defs>
<clipPath id="clip0_307_91929">
<rect width="1920" height="387" fill="white"/>
</clipPath>
</defs>
</svg>
